<!-- Generated by readme-aura https://github.com/collectioneur/readme-aura -->
<svg width="900" height="280" viewBox="0 0 900 280" xmlns="http://www.w3.org/2000/svg"><clipPath id="satori_cp-id"><path x="0" y="0" width="900" height="280" d="M16,0 h868 a16,16 0 0 1 16,16 v248 a16,16 0 0 1 -16,16 h-868 a16,16 0 0 1 -16,-16 v-248 a16,16 0 0 1 16,-16"/></clipPath><mask id="satori_om-id"><rect x="0" y="0" width="900" height="280" fill="#fff"/></mask><path x="0" y="0" width="900" height="280" fill="#04050a" d="M16,0 h868 a16,16 0 0 1 16,16 v248 a16,16 0 0 1 -16,16 h-868 a16,16 0 0 1 -16,-16 v-248 a16,16 0 0 1 16,-16"/><clipPath id="satori_cp-id-0" clip-path="url(#satori_cp-id)"><rect x="0" y="0" width="900" height="280"/></clipPath><mask id="satori_om-id-0"><rect x="0" y="0" width="900" height="280" fill="#fff" mask="url(#satori_om-id)"/></mask><svg x="0" y="0" width="900" height="280" preserveAspectRatio="none" clip-path="url(#satori_cp-id-0)" mask="url(#satori_om-id-0)"><defs><radialGradient id="g1" cx="28%" cy="35%" r="60%"><stop offset="0%" stop-color="#7c3aed" stop-opacity="0.9"></stop><stop offset="100%" stop-color="#04050a" stop-opacity="0"></stop></radialGradient><radialGradient id="g2" cx="74%" cy="68%" r="55%"><stop offset="0%" stop-color="#06b6d4" stop-opacity="0.85"></stop><stop offset="100%" stop-color="#04050a" stop-opacity="0"></stop></radialGradient><radialGradient id="g3" cx="55%" cy="50%" r="45%"><stop offset="0%" stop-color="#f472b6" stop-opacity="0.4"></stop><stop offset="100%" stop-color="#04050a" stop-opacity="0"></stop></radialGradient><linearGradient id="ln" x1="0" y1="0" x2="1" y2="0"><stop offset="0%" stop-color="#22d3ee"></stop><stop offset="50%" stop-color="#a78bfa"></stop><stop offset="100%" stop-color="#f472b6"></stop></linearGradient></defs><rect x="0" y="0" width="900" height="280" fill="#04050a"></rect><ellipse cx="250" cy="90" rx="340" ry="190" fill="url(#g1)"><animate attributeName="opacity" values="0.5;0.95;0.5" dur="5s" repeatCount="indefinite"></animate><animateTransform attributeName="transform" type="translate" values="-60 0;60 0;-60 0" dur="10s" repeatCount="indefinite"></animateTransform></ellipse><ellipse cx="660" cy="170" rx="320" ry="180" fill="url(#g2)"><animate attributeName="opacity" values="0.95;0.5;0.95" dur="7s" repeatCount="indefinite"></animate><animateTransform attributeName="transform" type="translate" values="60 0;-60 0;60 0" dur="13s" repeatCount="indefinite"></animateTransform></ellipse><ellipse cx="450" cy="130" rx="260" ry="150" fill="url(#g3)"><animate attributeName="opacity" values="0.3;0.7;0.3" dur="6s" repeatCount="indefinite"></animate></ellipse><line x1="170" y1="206" x2="730" y2="206" stroke="url(#ln)" stroke-width="2.5" stroke-dasharray="900" stroke-dashoffset="900"><animate attributeName="strokeDashoffset" values="900;0" dur="3.5s" repeatCount="indefinite"></animate></line></svg><mask id="satori_om-id-0-0"><rect x="0" y="0" width="0" height="280" fill="#fff" mask="url(#satori_om-id)"/></mask><mask id="satori_om-id-0-0-0"><rect x="0" y="0" width="0" height="280" fill="#fff" mask="url(#satori_om-id)"/></mask><mask id="satori_om-id-0-0-0-0"><rect x="0" y="0" width="0" height="280" fill="#fff" mask="url(#satori_om-id)"/></mask><mask id="satori_om-id-0-0-0-1"><rect x="0" y="0" width="0" height="280" fill="#fff" mask="url(#satori_om-id)"/></mask><mask id="satori_om-id-0-0-1"><rect x="0" y="0" width="0" height="280" fill="#fff" mask="url(#satori_om-id)"/></mask><mask id="satori_om-id-0-0-1-0"><rect x="0" y="0" width="0" height="280" fill="#fff" mask="url(#satori_om-id)"/></mask><mask id="satori_om-id-0-0-1-1"><rect x="0" y="0" width="0" height="280" fill="#fff" mask="url(#satori_om-id)"/></mask><mask id="satori_om-id-0-0-2"><rect x="0" y="0" width="0" height="280" fill="#fff" mask="url(#satori_om-id)"/></mask><mask id="satori_om-id-0-0-2-0"><rect x="0" y="0" width="0" height="280" fill="#fff" mask="url(#satori_om-id)"/></mask><mask id="satori_om-id-0-0-2-1"><rect x="0" y="0" width="0" height="280" fill="#fff" mask="url(#satori_om-id)"/></mask><mask id="satori_om-id-0-0-3"><rect x="0" y="0" width="0" height="280" fill="#fff" mask="url(#satori_om-id)"/></mask><mask id="satori_om-id-0-0-3-0"><rect x="0" y="0" width="0" height="280" fill="#fff" mask="url(#satori_om-id)"/></mask><mask id="satori_om-id-0-0-3-1"><rect x="0" y="0" width="0" height="280" fill="#fff" mask="url(#satori_om-id)"/></mask><mask id="satori_om-id-0-0-3-2"><rect x="0" y="0" width="0" height="280" fill="#fff" mask="url(#satori_om-id)"/></mask><mask id="satori_om-id-0-1"><rect x="0" y="0" width="0" height="280" fill="#fff" mask="url(#satori_om-id)"/></mask><mask id="satori_om-id-0-2"><rect x="0" y="0" width="0" height="280" fill="#fff" mask="url(#satori_om-id)"/></mask><mask id="satori_om-id-0-2-0"><rect x="0" y="0" width="0" height="280" fill="#fff" mask="url(#satori_om-id)"/></mask><mask id="satori_om-id-0-2-1"><rect x="0" y="0" width="0" height="280" fill="#fff" mask="url(#satori_om-id)"/></mask><mask id="satori_om-id-0-3"><rect x="0" y="0" width="0" height="280" fill="#fff" mask="url(#satori_om-id)"/></mask><mask id="satori_om-id-0-3-0"><rect x="0" y="0" width="0" height="280" fill="#fff" mask="url(#satori_om-id)"/></mask><mask id="satori_om-id-0-3-1"><rect x="0" y="0" width="0" height="280" fill="#fff" mask="url(#satori_om-id)"/></mask><mask id="satori_om-id-0-4"><rect x="0" y="0" width="0" height="280" fill="#fff" mask="url(#satori_om-id)"/></mask><mask id="satori_om-id-0-4-0"><rect x="0" y="0" width="0" height="280" fill="#fff" mask="url(#satori_om-id)"/></mask><mask id="satori_om-id-0-5"><rect x="0" y="0" width="0" height="280" fill="#fff" mask="url(#satori_om-id)"/></mask><mask id="satori_om-id-0-5-0"><rect x="0" y="0" width="0" height="280" fill="#fff" mask="url(#satori_om-id)"/></mask><mask id="satori_om-id-1"><rect x="132" y="57" width="636" height="167" fill="#fff" mask="url(#satori_om-id)"/></mask><clipPath id="satori_bct-id-1-0" clip-path="url(#satori_cp-id)"><path d="M148.3 131L137.0 131L137.0 75.7L148.3 75.7L148.3 98.0L172.4 98.0L172.4 75.7L183.8 75.7L183.8 131L172.4 131L172.4 107.4L148.3 107.4L148.3 131ZM206.1 131L193.6 131L212.5 75.7L227.3 75.7L246.7 131L234.1 131L229.9 118.2L210.2 118.2L206.1 131ZM213.0 109.3L226.9 109.3L225.3 104.3Q223.7 99.2 222.0 93L222.0 93Q220.9 89.0 219.8 84.6L219.8 84.6Q218.7 89.1 217.7 93.1L217.7 93.1Q216.2 99.3 214.6 104.3L214.6 104.3L213.0 109.3ZM276.8 131.8L276.8 131.8Q270.1 131.8 265.2 129.8Q260.3 127.7 257.6 123.7Q254.8 119.7 254.7 113.9L254.7 113.9L265.7 113.9Q265.9 116.6 267.4 118.5Q268.8 120.4 271.2 121.3Q273.6 122.2 276.7 122.2L276.7 122.2Q279.7 122.2 282.0 121.4Q284.2 120.5 285.5 118.9Q286.7 117.3 286.7 115.2L286.7 115.2Q286.7 113.3 285.6 112.0Q284.5 110.7 282.4 109.8Q280.2 108.9 277.2 108.2L277.2 108.2L271.1 106.7Q264.1 104.9 260.1 101.3Q256.2 97.6 256.2 91.6L256.2 91.6Q256.2 86.6 258.8 82.9Q261.5 79.1 266.2 77.0Q270.9 75.0 276.9 75.0L276.9 75.0Q283.1 75.0 287.6 77.1Q292.2 79.2 294.8 82.9Q297.3 86.6 297.4 91.5L297.4 91.5L286.4 91.5Q286.1 88.1 283.6 86.3Q281.1 84.5 276.8 84.5L276.8 84.5Q274.0 84.5 271.9 85.3Q269.9 86.1 268.8 87.6Q267.8 89.0 267.8 90.9L267.8 90.9Q267.8 92.9 269.0 94.3Q270.2 95.6 272.3 96.5Q274.3 97.3 276.6 97.9L276.6 97.9L281.6 99.1Q285.1 99.9 288.1 101.2Q291.1 102.5 293.4 104.5Q295.6 106.4 296.9 109.1Q298.1 111.8 298.1 115.3L298.1 115.3Q298.1 120.3 295.6 124.0Q293.1 127.7 288.3 129.8Q283.5 131.8 276.8 131.8ZM329.6 131.8L329.6 131.8Q322.9 131.8 318.0 129.8Q313.1 127.7 310.3 123.7Q307.6 119.7 307.4 113.9L307.4 113.9L318.5 113.9Q318.7 116.6 320.1 118.5Q321.6 120.4 324.0 121.3Q326.4 122.2 329.4 122.2L329.4 122.2Q332.5 122.2 334.7 121.4Q337.0 120.5 338.2 118.9Q339.5 117.3 339.5 115.2L339.5 115.2Q339.5 113.3 338.4 112.0Q337.2 110.7 335.1 109.8Q333.0 108.9 330.0 108.2L330.0 108.2L323.9 106.7Q316.9 104.9 312.9 101.3Q308.9 97.6 308.9 91.6L308.9 91.6Q308.9 86.6 311.6 82.9Q314.3 79.1 319.0 77.0Q323.7 75.0 329.7 75.0L329.7 75.0Q335.8 75.0 340.4 77.1Q345.0 79.2 347.5 82.9Q350.1 86.6 350.1 91.5L350.1 91.5L339.2 91.5Q338.9 88.1 336.4 86.3Q333.8 84.5 329.6 84.5L329.6 84.5Q326.7 84.5 324.7 85.3Q322.7 86.1 321.6 87.6Q320.5 89.0 320.5 90.9L320.5 90.9Q320.5 92.9 321.8 94.3Q323.0 95.6 325.0 96.5Q327.1 97.3 329.4 97.9L329.4 97.9L334.4 99.1Q337.9 99.9 340.9 101.2Q343.9 102.5 346.1 104.5Q348.4 106.4 349.6 109.1Q350.9 111.8 350.9 115.3L350.9 115.3Q350.9 120.3 348.4 124.0Q345.8 127.7 341.1 129.8Q336.3 131.8 329.6 131.8ZM371.4 131L358.9 131L377.8 75.7L392.6 75.7L412.0 131L399.4 131L395.1 118.2L375.5 118.2L371.4 131ZM378.3 109.3L392.2 109.3L390.5 104.3Q388.9 99.2 387.3 93L387.3 93Q386.2 89.0 385.1 84.6L385.1 84.6Q383.9 89.1 383.0 93.1L383.0 93.1Q381.4 99.3 379.9 104.3L379.9 104.3L378.3 109.3ZM433.4 131L421.8 131L421.8 75.7L434.4 75.7L451.9 103.7Q453.2 105.8 454.6 108.4Q456.0 110.9 457.4 114.0L457.4 114.0Q458.1 115.5 458.8 117.2L458.8 117.2Q458.7 115.8 458.6 114.3L458.6 114.3Q458.4 110.8 458.3 107.7Q458.1 104.5 458.1 102.2L458.1 102.2L458.1 75.7L469.7 75.7L469.7 131L457.0 131L441.2 105.6Q439.4 102.8 437.9 100.1Q436.5 97.4 434.9 94.1L434.9 94.1Q433.9 92.1 432.6 89.7L432.6 89.7Q432.8 91.9 432.9 94.0L432.9 94.0Q433.1 97.7 433.2 100.7Q433.4 103.7 433.4 105.6L433.4 105.6L433.4 131Z M513.0 131L500.5 131L519.4 75.7L534.3 75.7L553.6 131L541.1 131L536.8 118.2L517.2 118.2L513.0 131ZM520.0 109.3L533.9 109.3L532.2 104.3Q530.6 99.2 529.0 93L529.0 93Q527.9 89.0 526.7 84.6L526.7 84.6Q525.6 89.1 524.7 93.1L524.7 93.1Q523.1 99.3 521.6 104.3L521.6 104.3L520.0 109.3ZM563.5 75.7L574.8 75.7L574.8 131L563.5 131L563.5 75.7ZM607.2 131L607.2 131L587.8 131L587.8 75.7L607.4 75.7Q615.7 75.7 621.7 79.0Q627.7 82.3 631.0 88.5Q634.2 94.7 634.2 103.3L634.2 103.3Q634.2 112.0 631.0 118.2Q627.7 124.4 621.7 127.7Q615.7 131 607.2 131ZM599.1 85.5L599.1 121.2L606.7 121.2Q612.0 121.2 615.6 119.3Q619.3 117.5 621.1 113.5Q622.9 109.5 622.9 103.3L622.9 103.3Q622.9 97.2 621.1 93.2Q619.2 89.3 615.6 87.4Q612.1 85.5 606.8 85.5L606.8 85.5L599.1 85.5ZM645.7 75.7L657.0 75.7L657.0 131L645.7 131L645.7 75.7ZM693.4 131L670.0 131L670.0 75.7L692.0 75.7Q698.0 75.7 702.1 77.5Q706.2 79.4 708.2 82.6Q710.2 85.8 710.2 89.9L710.2 89.9Q710.2 93.2 708.9 95.6Q707.6 98.0 705.4 99.6Q703.1 101.1 700.3 101.8L700.3 101.8L700.3 102.4Q703.4 102.5 706.1 104.1Q708.9 105.8 710.6 108.7Q712.4 111.7 712.4 115.7L712.4 115.7Q712.4 120.1 710.2 123.6Q708.1 127.0 703.8 129.0Q699.6 131 693.4 131L693.4 131ZM681.3 106.7L681.3 121.7L691.1 121.7Q696.1 121.7 698.4 119.8Q700.7 117.8 700.7 114.7L700.7 114.7Q700.7 112.3 699.6 110.5Q698.4 108.7 696.4 107.7Q694.3 106.7 691.4 106.7L691.4 106.7L681.3 106.7ZM681.3 84.9L681.3 98.9L690.3 98.9Q692.7 98.9 694.6 98.1Q696.6 97.2 697.6 95.6Q698.7 94.0 698.7 91.7L698.7 91.7Q698.7 88.7 696.6 86.8Q694.5 84.9 690.5 84.9L690.5 84.9L681.3 84.9ZM760.4 131L723.3 131L723.3 75.7L760.3 75.7L760.3 85.1L734.6 85.1L734.6 98.5L758.4 98.5L758.4 107.7L734.6 107.7L734.6 121.6L760.4 121.6L760.4 131Z "/></clipPath><defs><pattern id="satori_pattern_id-1-0_0" x="0" y="0" width="1" height="1" patternUnits="objectBoundingBox"><linearGradient id="satori_biid-1-0_0" x1="0" y1="0" x2="1" y2="0" spreadMethod="pad"><stop offset="0%" stop-color="#22d3ee"/><stop offset="50%" stop-color="#a78bfa"/><stop offset="100%" stop-color="#f472b6"/></linearGradient><rect x="0" y="0" width="636" height="92" fill="url(#satori_biid-1-0_0)"/></pattern></defs><mask id="satori_om-id-1-0"><rect x="132" y="57" width="636" height="92" fill="#fff" mask="url(#satori_om-id)"/></mask><rect x="132" y="57" width="636" height="92" fill="url(#satori_pattern_id-1-0_0)" clip-path="url(#satori_bct-id-1-0)" mask="url(#satori_om-id)"/><mask id="satori_om-id-1-1"><rect x="261" y="155" width="378" height="21" fill="#fff" mask="url(#satori_om-id)"/></mask><g mask="url(#satori_om-id)" clip-path="url(#satori_cp-id)"><path fill="#cbd5e1" d="M264.7 171L262.1 171L262.1 158.6L270.3 158.6L270.3 160.7L264.7 160.7L264.7 164.2L269.7 164.2L269.7 166.3L264.7 166.3L264.7 171ZM286.2 171.2L286.2 171.2Q284.7 171.2 283.5 170.6Q282.4 170.0 281.7 169.0Q281.1 168.0 281.1 166.7L281.1 166.7L281.1 158.6L283.6 158.6L283.6 166.5Q283.6 167.2 283.9 167.7Q284.3 168.3 284.8 168.6Q285.4 168.9 286.2 168.9L286.2 168.9Q287.0 168.9 287.6 168.6Q288.1 168.3 288.4 167.7Q288.8 167.2 288.8 166.5L288.8 166.5L288.8 158.6L291.3 158.6L291.3 166.7Q291.3 168.0 290.7 169.0Q290.0 170.0 288.9 170.6Q287.7 171.2 286.2 171.2ZM310.4 171L302.5 171L302.5 158.6L305.1 158.6L305.1 168.9L310.4 168.9L310.4 171ZM329.0 171L321.2 171L321.2 158.6L323.7 158.6L323.7 168.9L329.0 168.9L329.0 171ZM344.3 171.2L344.3 171.2Q342.8 171.2 341.7 170.7Q340.6 170.3 340.0 169.4Q339.4 168.5 339.4 167.2L339.4 167.2L341.8 167.2Q341.9 167.8 342.2 168.2Q342.5 168.6 343.1 168.8Q343.6 169.0 344.3 169.0L344.3 169.0Q345.0 169.0 345.5 168.8Q346.0 168.7 346.2 168.3Q346.5 167.9 346.5 167.5L346.5 167.5Q346.5 167.0 346.3 166.8Q346.0 166.5 345.5 166.3Q345.1 166.1 344.4 165.9L344.4 165.9L343.0 165.6Q341.5 165.2 340.6 164.4Q339.7 163.5 339.7 162.2L339.7 162.2Q339.7 161.1 340.3 160.2Q340.9 159.4 341.9 158.9Q343.0 158.5 344.3 158.5L344.3 158.5Q345.7 158.5 346.7 158.9Q347.7 159.4 348.3 160.2Q348.9 161.1 348.9 162.2L348.9 162.2L346.5 162.2Q346.4 161.4 345.8 161.0Q345.3 160.6 344.3 160.6L344.3 160.6Q343.7 160.6 343.2 160.8Q342.8 161.0 342.5 161.3Q342.3 161.6 342.3 162.0L342.3 162.0Q342.3 162.5 342.6 162.8Q342.8 163.1 343.3 163.3Q343.7 163.5 344.3 163.6L344.3 163.6L345.4 163.9Q346.2 164.0 346.8 164.3Q347.5 164.6 348.0 165.1Q348.5 165.5 348.8 166.1Q349.1 166.7 349.1 167.5L349.1 167.5Q349.1 168.6 348.5 169.4Q347.9 170.3 346.9 170.7Q345.8 171.2 344.3 171.2ZM363.2 160.7L359.4 160.7L359.4 158.6L369.5 158.6L369.5 160.7L365.7 160.7L365.7 171L363.2 171L363.2 160.7ZM382.3 171L379.5 171L383.8 158.6L387.1 158.6L391.4 171L388.6 171L387.6 168.1L383.2 168.1L382.3 171ZM383.9 166.1L387.0 166.1L386.6 165.0Q386.3 163.9 385.9 162.5L385.9 162.5Q385.6 161.6 385.4 160.6L385.4 160.6Q385.1 161.6 384.9 162.5L384.9 162.5Q384.6 163.9 384.2 165.0L384.2 165.0L383.9 166.1ZM407.3 171.2L407.3 171.2Q405.7 171.2 404.4 170.4Q403.1 169.7 402.3 168.3Q401.6 166.8 401.6 164.8L401.6 164.8Q401.6 162.8 402.4 161.4Q403.1 160.0 404.4 159.2Q405.7 158.5 407.3 158.5L407.3 158.5Q408.4 158.5 409.3 158.8Q410.2 159.1 410.9 159.6Q411.6 160.2 412.1 161.0Q412.5 161.8 412.7 162.9L412.7 162.9L410.1 162.9Q410.0 162.4 409.8 162.0Q409.5 161.6 409.2 161.3Q408.8 161.0 408.4 160.9Q407.9 160.7 407.4 160.7L407.4 160.7Q406.4 160.7 405.7 161.2Q405.0 161.7 404.6 162.6Q404.2 163.5 404.2 164.8L404.2 164.8Q404.2 166.2 404.6 167.1Q405.0 168.0 405.7 168.5Q406.4 168.9 407.4 168.9L407.4 168.9Q407.9 168.9 408.4 168.8Q408.8 168.6 409.2 168.3Q409.5 168.1 409.8 167.7Q410.0 167.3 410.1 166.8L410.1 166.8L412.7 166.8Q412.6 167.6 412.2 168.4Q411.7 169.2 411.1 169.8Q410.4 170.5 409.4 170.8Q408.5 171.2 407.3 171.2ZM426.0 171L423.5 171L423.5 158.6L426.0 158.6L426.0 162.0L426.0 164.8Q426.1 164.7 426.1 164.6L426.1 164.6Q426.5 164.0 426.9 163.5Q427.4 162.9 427.9 162.2L427.9 162.2L431.0 158.6L434.1 158.6L429.4 164.0L434.2 171L431.2 171L427.7 165.7L426.0 167.5L426.0 171Z M462.1 171L462.1 171L457.8 171L457.8 158.6L462.2 158.6Q464.0 158.6 465.4 159.4Q466.7 160.1 467.4 161.5Q468.1 162.9 468.1 164.8L468.1 164.8Q468.1 166.7 467.4 168.1Q466.7 169.5 465.3 170.3Q464.0 171 462.1 171ZM460.3 160.8L460.3 168.8L462.0 168.8Q463.2 168.8 464.0 168.4Q464.8 168.0 465.2 167.1Q465.6 166.2 465.6 164.8L465.6 164.8Q465.6 163.4 465.2 162.5Q464.8 161.7 464.0 161.2Q463.2 160.8 462.0 160.8L462.0 160.8L460.3 160.8ZM487.3 171L479.0 171L479.0 158.6L487.3 158.6L487.3 160.7L481.6 160.7L481.6 163.7L486.9 163.7L486.9 165.8L481.6 165.8L481.6 168.9L487.3 168.9L487.3 171ZM505.3 171L502.0 171L497.7 158.6L500.5 158.6L502.4 164.6Q502.8 165.7 503.2 167.1L503.2 167.1Q503.4 168.0 503.7 169.0L503.7 169.0Q503.9 168.0 504.1 167.1L504.1 167.1Q504.5 165.7 504.8 164.6L504.8 164.6L506.7 158.6L509.5 158.6L505.3 171ZM528.4 171L520.1 171L520.1 158.6L528.3 158.6L528.3 160.7L522.6 160.7L522.6 163.7L527.9 163.7L527.9 165.8L522.6 165.8L522.6 168.9L528.4 168.9L528.4 171ZM547.3 171L539.4 171L539.4 158.6L541.9 158.6L541.9 168.9L547.3 168.9L547.3 171ZM563.4 171.2L563.4 171.2Q561.8 171.2 560.5 170.4Q559.2 169.7 558.4 168.3Q557.7 166.8 557.7 164.8L557.7 164.8Q557.7 162.8 558.4 161.4Q559.2 160.0 560.5 159.2Q561.8 158.5 563.4 158.5L563.4 158.5Q565.1 158.5 566.4 159.2Q567.7 160.0 568.4 161.4Q569.2 162.8 569.2 164.8L569.2 164.8Q569.2 166.8 568.4 168.3Q567.7 169.7 566.4 170.4Q565.1 171.2 563.4 171.2ZM563.4 168.9L563.4 168.9Q564.4 168.9 565.1 168.4Q565.8 168.0 566.2 167.1Q566.6 166.1 566.6 164.8L566.6 164.8Q566.6 163.5 566.2 162.6Q565.8 161.7 565.1 161.2Q564.4 160.7 563.4 160.7L563.4 160.7Q562.5 160.7 561.8 161.2Q561.0 161.7 560.6 162.6Q560.2 163.5 560.2 164.8L560.2 164.8Q560.2 166.1 560.6 167.1Q561.0 168.0 561.8 168.4Q562.5 168.9 563.4 168.9ZM582.6 171L580.1 171L580.1 158.6L584.9 158.6Q586.3 158.6 587.3 159.2Q588.3 159.7 588.8 160.6Q589.3 161.6 589.3 162.8L589.3 162.8Q589.3 164.0 588.8 165.0Q588.3 165.9 587.3 166.4Q586.3 167.0 584.9 167.0L584.9 167.0L582.6 167.0L582.6 171ZM582.6 160.7L582.6 164.9L584.5 164.9Q585.2 164.9 585.7 164.6Q586.2 164.4 586.5 163.9Q586.7 163.4 586.7 162.8Q586.7 162.2 586.5 161.7Q586.2 161.2 585.7 161.0Q585.2 160.7 584.4 160.7L584.4 160.7L582.6 160.7ZM608.4 171L600.1 171L600.1 158.6L608.4 158.6L608.4 160.7L602.6 160.7L602.6 163.7L608.0 163.7L608.0 165.8L602.6 165.8L602.6 168.9L608.4 168.9L608.4 171ZM622.0 171L619.4 171L619.4 158.6L624.3 158.6Q625.7 158.6 626.7 159.1Q627.6 159.6 628.2 160.5Q628.7 161.4 628.7 162.7Q628.7 163.9 628.2 164.8Q627.6 165.6 626.6 166.1L626.6 166.1Q626.6 166.1 626.5 166.2L626.5 166.2L629.1 171L626.3 171L624.0 166.6L622.0 166.6L622.0 171ZM622.0 160.7L622.0 164.5L623.8 164.5Q624.6 164.5 625.1 164.3Q625.6 164.1 625.8 163.7Q626.1 163.3 626.1 162.7L626.1 162.7Q626.1 162.0 625.8 161.6Q625.6 161.2 625.1 160.9Q624.6 160.7 623.8 160.7L623.8 160.7L622.0 160.7Z "/></g><mask id="satori_om-id-1-2"><rect x="285" y="196" width="331" height="28" fill="#fff" mask="url(#satori_om-id)"/></mask><defs><clipPath id="satori_bc-id-1-2-0" clip-path="url(#satori_cp-id)"><path x="285" y="196" width="82" height="28" d="M299,196 h54 a14,14 0 0 1 14,14 v0 a14,14 0 0 1 -14,14 h-54 a14,14 0 0 1 -14,-14 v0 a14,14 0 0 1 14,-14"/></clipPath></defs><mask id="satori_om-id-1-2-0"><rect x="286" y="197" width="80" height="26" fill="#fff" mask="url(#satori_om-id)"/><path width="82" height="28" fill="none" stroke="#000" stroke-width="2" d="M289.101,200.101 A14,14 0 0 1 299,196 h54 a14,14 0 0 1 14,14 v0 a14,14 0 0 1 -14,14 h-54 a14,14 0 0 1 -14,-14 v0 A14,14 0 0 1 289.101,200.101"/></mask><path width="82" height="28" clip-path="url(#satori_bc-id-1-2-0)" fill="none" stroke="#22d3ee55" stroke-width="2" d="M289.101,200.101 A14,14 0 0 1 299,196 h54 a14,14 0 0 1 14,14 v0 a14,14 0 0 1 -14,14 h-54 a14,14 0 0 1 -14,-14 v0 A14,14 0 0 1 289.101,200.101"/><g mask="url(#satori_om-id)" clip-path="url(#satori_cp-id)"><path fill="#22d3ee" d="M304.1 215.1L304.1 215.1Q303.5 215.1 302.9 214.9Q302.3 214.7 301.8 214.2Q301.4 213.7 301.1 212.8Q300.8 211.9 300.8 210.6L300.8 210.6Q300.8 209.4 301.0 208.4Q301.3 207.4 301.7 206.8Q302.2 206.1 302.8 205.8Q303.4 205.4 304.2 205.4L304.2 205.4Q305.0 205.4 305.7 205.7Q306.3 206.0 306.7 206.6Q307.1 207.2 307.2 207.9L307.2 207.9L306.0 207.9Q305.9 207.3 305.4 206.9Q305.0 206.5 304.2 206.5L304.2 206.5Q303.5 206.5 303.0 206.9Q302.5 207.3 302.2 208.1Q301.9 208.9 301.9 210.1L301.9 210.1L302.0 210.1Q302.2 209.7 302.6 209.4Q303.0 209.1 303.4 209.0Q303.8 208.8 304.3 208.8L304.3 208.8Q305.1 208.8 305.8 209.2Q306.5 209.6 306.9 210.3Q307.3 211.0 307.3 211.9L307.3 211.9Q307.3 212.8 306.9 213.5Q306.5 214.3 305.8 214.7Q305.1 215.1 304.1 215.1ZM304.1 214.1L304.1 214.1Q304.7 214.1 305.1 213.8Q305.6 213.5 305.9 213.0Q306.1 212.5 306.1 211.9L306.1 211.9Q306.1 211.4 305.9 210.9Q305.6 210.4 305.2 210.1Q304.7 209.9 304.1 209.9L304.1 209.9Q303.7 209.9 303.3 210.0Q303.0 210.2 302.7 210.5Q302.4 210.8 302.2 211.2Q302.1 211.5 302.1 212.0L302.1 212.0Q302.1 212.5 302.3 213.0Q302.6 213.5 303.1 213.8Q303.5 214.1 304.1 214.1Z M312.6 217.6L312.6 217.6L312.9 216.6L313.0 216.6Q313.4 216.7 313.7 216.7Q313.9 216.6 314.2 216.4Q314.4 216.1 314.6 215.6L314.6 215.6L314.8 215.0L312.1 207.9L313.3 207.9L314.8 212.1Q315.1 212.8 315.2 213.4L315.2 213.4Q315.3 213.7 315.4 214.0L315.4 214.0Q315.4 213.7 315.5 213.4L315.5 213.4Q315.7 212.8 315.9 212.1L315.9 212.1L317.4 207.9L318.7 207.9L315.6 216.1Q315.3 216.6 315.0 217.0Q314.7 217.4 314.3 217.5Q313.9 217.7 313.4 217.7L313.4 217.7Q313.1 217.7 312.9 217.7Q312.7 217.6 312.6 217.6ZM321.2 215L320.0 215L320.0 207.9L321.1 207.9L321.1 209.0L321.2 209.0Q321.4 208.5 321.9 208.1Q322.4 207.8 323.0 207.8L323.0 207.8Q323.2 207.8 323.3 207.8Q323.5 207.8 323.6 207.8L323.6 207.8L323.6 209.0Q323.6 209.0 323.4 208.9Q323.2 208.9 322.9 208.9L322.9 208.9Q322.4 208.9 322.0 209.1Q321.6 209.3 321.4 209.7Q321.2 210.1 321.2 210.6L321.2 210.6L321.2 215ZM327.3 215.2L327.3 215.2Q326.6 215.2 326.0 214.9Q325.5 214.7 325.1 214.3Q324.7 213.9 324.6 213.3L324.6 213.3L325.7 213.0Q325.8 213.6 326.3 213.9Q326.7 214.1 327.3 214.1L327.3 214.1Q328.1 214.1 328.5 213.8Q328.9 213.5 328.9 213.1L328.9 213.1Q328.9 212.7 328.7 212.5Q328.4 212.2 327.9 212.1L327.9 212.1L326.7 211.8Q325.8 211.6 325.3 211.1Q324.8 210.6 324.8 209.9L324.8 209.9Q324.8 209.3 325.2 208.8Q325.5 208.3 326.1 208.1Q326.7 207.8 327.4 207.8L327.4 207.8Q328.2 207.8 328.7 208.0Q329.2 208.3 329.5 208.6Q329.8 209.0 330.0 209.5L330.0 209.5L329.0 209.8Q328.8 209.4 328.5 209.1Q328.1 208.8 327.5 208.8L327.5 208.8Q326.8 208.8 326.4 209.1Q326.0 209.4 326.0 209.8L326.0 209.8Q326.0 210.2 326.3 210.4Q326.5 210.7 327.2 210.8L327.2 210.8L328.2 211.1Q329.2 211.3 329.7 211.8Q330.1 212.3 330.1 213.0L330.1 213.0Q330.1 213.6 329.8 214.1Q329.4 214.6 328.8 214.9Q328.2 215.2 327.3 215.2Z M336.2 215L334.8 215L338.2 210.2L335.0 205.5L336.4 205.5L337.8 207.5Q338.1 208.0 338.3 208.3Q338.5 208.6 338.6 208.9L338.6 208.9Q338.7 209.1 338.9 209.4L338.9 209.4Q339.0 209.1 339.1 208.9L339.1 208.9Q339.3 208.6 339.5 208.3Q339.7 208.0 340.0 207.5L340.0 207.5L341.4 205.5L342.8 205.5L339.6 210.1L342.9 215L341.6 215L339.9 212.6Q339.6 212.2 339.4 211.9Q339.3 211.6 339.1 211.4L339.1 211.4Q339.0 211.2 338.9 210.9L338.9 210.9Q338.8 211.2 338.7 211.3L338.7 211.3Q338.5 211.6 338.3 211.9Q338.1 212.2 337.8 212.6L337.8 212.6L336.2 215ZM345.7 215L344.4 215L344.4 205.5L347.7 205.5Q348.8 205.5 349.5 205.9Q350.2 206.3 350.6 207.0Q350.9 207.7 350.9 208.6Q350.9 209.4 350.6 210.1Q350.2 210.8 349.5 211.2Q348.8 211.6 347.7 211.6L347.7 211.6L345.7 211.6L345.7 215ZM345.7 206.6L345.7 210.5L347.6 210.5Q348.4 210.5 348.8 210.3Q349.3 210.0 349.5 209.6Q349.7 209.1 349.7 208.6Q349.7 208.0 349.5 207.6Q349.3 207.1 348.8 206.9Q348.4 206.6 347.6 206.6L347.6 206.6L345.7 206.6Z "/></g><defs><clipPath id="satori_bc-id-1-2-1" clip-path="url(#satori_cp-id)"><path x="377" y="196" width="126" height="28" d="M391,196 h98 a14,14 0 0 1 14,14 v0 a14,14 0 0 1 -14,14 h-98 a14,14 0 0 1 -14,-14 v0 a14,14 0 0 1 14,-14"/></clipPath></defs><mask id="satori_om-id-1-2-1"><rect x="378" y="197" width="124" height="26" fill="#fff" mask="url(#satori_om-id)"/><path width="126" height="28" fill="none" stroke="#000" stroke-width="2" d="M381.101,200.101 A14,14 0 0 1 391,196 h98 a14,14 0 0 1 14,14 v0 a14,14 0 0 1 -14,14 h-98 a14,14 0 0 1 -14,-14 v0 A14,14 0 0 1 381.101,200.101"/></mask><path width="126" height="28" clip-path="url(#satori_bc-id-1-2-1)" fill="none" stroke="#a78bfa55" stroke-width="2" d="M381.101,200.101 A14,14 0 0 1 391,196 h98 a14,14 0 0 1 14,14 v0 a14,14 0 0 1 -14,14 h-98 a14,14 0 0 1 -14,-14 v0 A14,14 0 0 1 381.101,200.101"/><g mask="url(#satori_om-id)" clip-path="url(#satori_cp-id)"><path fill="#a78bfa" d="M396.0 215.1L396.0 215.1Q395.1 215.1 394.4 214.8Q393.7 214.5 393.2 213.9Q392.8 213.4 392.8 212.6L392.8 212.6L394.0 212.6Q394.1 213.1 394.3 213.4Q394.6 213.7 395.0 213.9Q395.5 214.1 396.0 214.1L396.0 214.1Q396.6 214.1 397.1 213.9Q397.5 213.7 397.8 213.3Q398.1 212.9 398.1 212.4L398.1 212.4Q398.1 211.9 397.8 211.5Q397.5 211.1 397.1 210.9Q396.6 210.7 395.9 210.7L395.9 210.7L395.1 210.7L395.1 209.6L395.9 209.6Q396.4 209.6 396.8 209.4Q397.3 209.2 397.5 208.9Q397.7 208.5 397.7 208.0L397.7 208.0Q397.7 207.5 397.5 207.2Q397.3 206.8 396.9 206.7Q396.6 206.5 396.0 206.5L396.0 206.5Q395.6 206.5 395.1 206.6Q394.7 206.8 394.4 207.1Q394.2 207.5 394.2 207.9L394.2 207.9L393.0 207.9Q393.0 207.2 393.4 206.6Q393.9 206.0 394.5 205.7Q395.2 205.4 396.1 205.4L396.1 205.4Q397.0 205.4 397.6 205.8Q398.2 206.1 398.6 206.7Q398.9 207.3 398.9 208.0L398.9 208.0Q398.9 208.8 398.5 209.3Q398.1 209.9 397.3 210.1L397.3 210.1L397.3 210.2Q397.9 210.3 398.4 210.6Q398.8 210.9 399.0 211.4Q399.3 211.8 399.3 212.4L399.3 212.4Q399.3 213.2 398.8 213.8Q398.4 214.4 397.7 214.8Q397.0 215.1 396.0 215.1Z M407.9 215.2L407.9 215.2Q406.8 215.2 406.1 214.8Q405.3 214.5 404.9 213.9Q404.5 213.3 404.4 212.5L404.4 212.5L405.7 212.5Q405.7 213.1 406.0 213.4Q406.3 213.7 406.8 213.9Q407.3 214.1 407.9 214.1L407.9 214.1Q408.5 214.1 409.0 213.9Q409.5 213.7 409.8 213.3Q410.1 212.9 410.1 212.4L410.1 212.4Q410.1 211.9 409.9 211.7Q409.6 211.4 409.2 211.2Q408.8 211.0 408.2 210.9L408.2 210.9L407.1 210.5Q406.0 210.2 405.3 209.6Q404.7 209.0 404.7 208.1L404.7 208.1Q404.7 207.3 405.1 206.7Q405.6 206.1 406.3 205.7Q407.0 205.4 407.9 205.4L407.9 205.4Q408.9 205.4 409.6 205.7Q410.3 206.1 410.7 206.6Q411.1 207.2 411.2 207.9L411.2 207.9L410.0 207.9Q409.9 207.2 409.3 206.9Q408.7 206.5 407.9 206.5L407.9 206.5Q407.3 206.5 406.8 206.7Q406.4 206.9 406.1 207.2Q405.9 207.6 405.9 208.0L405.9 208.0Q405.9 208.5 406.2 208.8Q406.5 209.1 406.9 209.3Q407.3 209.5 407.7 209.5L407.7 209.5L408.6 209.8Q409.0 209.9 409.5 210.1Q409.9 210.3 410.3 210.6Q410.8 210.9 411.0 211.3Q411.3 211.8 411.3 212.4L411.3 212.4Q411.3 213.2 410.9 213.8Q410.5 214.4 409.7 214.8Q408.9 215.2 407.9 215.2ZM415.0 215.2L415.0 215.2Q414.3 215.2 413.8 214.9Q413.2 214.7 412.9 214.2Q412.6 213.7 412.6 213.0L412.6 213.0Q412.6 212.4 412.8 212.0Q413.1 211.6 413.5 211.4Q413.9 211.2 414.4 211.1Q414.9 211.0 415.4 210.9L415.4 210.9Q416.0 210.8 416.4 210.8Q416.8 210.7 417.0 210.6Q417.2 210.5 417.2 210.2L417.2 210.2L417.2 210.2Q417.2 209.8 417.0 209.5Q416.9 209.1 416.5 209.0Q416.2 208.8 415.7 208.8L415.7 208.8Q415.2 208.8 414.8 209.0Q414.5 209.1 414.2 209.4Q414.0 209.6 413.9 209.9L413.9 209.9L412.8 209.5Q413.1 208.8 413.5 208.5Q414.0 208.1 414.6 208.0Q415.1 207.8 415.7 207.8L415.7 207.8Q416.0 207.8 416.5 207.9Q416.9 208.0 417.3 208.2Q417.8 208.5 418.0 209.0Q418.3 209.5 418.3 210.3L418.3 210.3L418.3 215L417.2 215L417.2 214.0L417.1 214.0Q417.0 214.3 416.7 214.5Q416.5 214.8 416.0 215.0Q415.6 215.2 415.0 215.2ZM415.2 214.2L415.2 214.2Q415.8 214.2 416.3 213.9Q416.7 213.7 417.0 213.3Q417.2 212.9 417.2 212.4L417.2 212.4L417.2 211.5Q417.1 211.5 416.9 211.6Q416.6 211.7 416.3 211.7Q416.0 211.8 415.8 211.8Q415.5 211.8 415.3 211.9L415.3 211.9Q414.9 211.9 414.5 212.0Q414.2 212.2 414.0 212.4Q413.7 212.6 413.7 213.0L413.7 213.0Q413.7 213.4 413.9 213.7Q414.1 213.9 414.5 214.0Q414.8 214.2 415.2 214.2ZM422.3 215.2L422.3 215.2Q421.6 215.2 421.1 214.9Q420.5 214.7 420.2 214.2Q419.9 213.7 419.9 213.0L419.9 213.0Q419.9 212.4 420.1 212.0Q420.4 211.6 420.8 211.4Q421.2 211.2 421.7 211.1Q422.2 211.0 422.7 210.9L422.7 210.9Q423.3 210.8 423.7 210.8Q424.1 210.7 424.3 210.6Q424.5 210.5 424.5 210.2L424.5 210.2L424.5 210.2Q424.5 209.8 424.3 209.5Q424.2 209.1 423.8 209.0Q423.5 208.8 423.0 208.8L423.0 208.8Q422.5 208.8 422.1 209.0Q421.8 209.1 421.5 209.4Q421.3 209.6 421.2 209.9L421.2 209.9L420.1 209.5Q420.4 208.8 420.8 208.5Q421.3 208.1 421.9 208.0Q422.4 207.8 423.0 207.8L423.0 207.8Q423.3 207.8 423.8 207.9Q424.2 208.0 424.6 208.2Q425.1 208.5 425.3 209.0Q425.6 209.5 425.6 210.3L425.6 210.3L425.6 215L424.5 215L424.5 214.0L424.4 214.0Q424.3 214.3 424.0 214.5Q423.8 214.8 423.3 215.0Q422.9 215.2 422.3 215.2ZM422.5 214.2L422.5 214.2Q423.1 214.2 423.6 213.9Q424.0 213.7 424.3 213.3Q424.5 212.9 424.5 212.4L424.5 212.4L424.5 211.5Q424.4 211.5 424.2 211.6Q423.9 211.7 423.6 211.7Q423.3 211.8 423.1 211.8Q422.8 211.8 422.6 211.9L422.6 211.9Q422.2 211.9 421.8 212.0Q421.5 212.2 421.3 212.4Q421.0 212.6 421.0 213.0L421.0 213.0Q421.0 213.4 421.2 213.7Q421.4 213.9 421.8 214.0Q422.1 214.2 422.5 214.2ZM430.8 215.2L430.8 215.2Q429.8 215.2 429.0 214.8Q428.3 214.5 427.8 213.9Q427.4 213.3 427.4 212.5L427.4 212.5L428.6 212.5Q428.7 213.1 429.0 213.4Q429.3 213.7 429.8 213.9Q430.2 214.1 430.8 214.1L430.8 214.1Q431.4 214.1 431.9 213.9Q432.5 213.7 432.8 213.3Q433.1 212.9 433.1 212.4L433.1 212.4Q433.1 211.9 432.8 211.7Q432.5 211.4 432.1 211.2Q431.7 211.0 431.2 210.9L431.2 210.9L430.0 210.5Q428.9 210.2 428.3 209.6Q427.6 209.0 427.6 208.1L427.6 208.1Q427.6 207.3 428.1 206.7Q428.5 206.1 429.2 205.7Q430.0 205.4 430.9 205.4L430.9 205.4Q431.8 205.4 432.5 205.7Q433.2 206.1 433.7 206.6Q434.1 207.2 434.1 207.9L434.1 207.9L432.9 207.9Q432.8 207.2 432.3 206.9Q431.7 206.5 430.8 206.5L430.8 206.5Q430.2 206.5 429.8 206.7Q429.3 206.9 429.1 207.2Q428.8 207.6 428.8 208.0L428.8 208.0Q428.8 208.5 429.1 208.8Q429.4 209.1 429.8 209.3Q430.3 209.5 430.6 209.5L430.6 209.5L431.6 209.8Q431.9 209.9 432.4 210.1Q432.9 210.3 433.3 210.6Q433.7 210.9 434.0 211.3Q434.2 211.8 434.2 212.4L434.2 212.4Q434.2 213.2 433.8 213.8Q433.4 214.4 432.7 214.8Q431.9 215.2 430.8 215.2Z M442.0 215.2L442.0 215.2Q441.3 215.2 440.7 214.9Q440.2 214.7 439.8 214.3Q439.4 213.9 439.3 213.3L439.3 213.3L440.4 213.0Q440.5 213.6 441.0 213.9Q441.4 214.1 442.0 214.1L442.0 214.1Q442.8 214.1 443.2 213.8Q443.7 213.5 443.7 213.1L443.7 213.1Q443.7 212.7 443.4 212.5Q443.1 212.2 442.6 212.1L442.6 212.1L441.4 211.8Q440.5 211.6 440.0 211.1Q439.5 210.6 439.5 209.9L439.5 209.9Q439.5 209.3 439.9 208.8Q440.2 208.3 440.8 208.1Q441.4 207.8 442.2 207.8L442.2 207.8Q442.9 207.8 443.4 208.0Q443.9 208.3 444.2 208.6Q444.5 209.0 444.7 209.5L444.7 209.5L443.7 209.8Q443.5 209.4 443.2 209.1Q442.8 208.8 442.2 208.8L442.2 208.8Q441.5 208.8 441.1 209.1Q440.7 209.4 440.7 209.8L440.7 209.8Q440.7 210.2 441.0 210.4Q441.3 210.7 441.9 210.8L441.9 210.8L442.9 211.1Q443.9 211.3 444.4 211.8Q444.8 212.3 444.8 213.0L444.8 213.0Q444.8 213.6 444.5 214.1Q444.1 214.6 443.5 214.9Q442.9 215.2 442.0 215.2ZM447.6 210.7L447.6 210.7L447.6 215L446.5 215L446.5 205.5L447.6 205.5L447.6 209.1Q447.9 208.5 448.4 208.2L448.4 208.2Q449.0 207.8 449.8 207.8L449.8 207.8Q450.5 207.8 451.0 208.1Q451.6 208.4 451.9 209.0Q452.2 209.6 452.2 210.5L452.2 210.5L452.2 215L451.0 215L451.0 210.6Q451.0 209.8 450.6 209.3Q450.2 208.8 449.4 208.8L449.4 208.8Q448.9 208.8 448.5 209.1Q448.1 209.3 447.9 209.7Q447.6 210.1 447.6 210.7ZM455.3 215L454.2 215L454.2 207.9L455.3 207.9L455.3 215ZM454.8 206.7L454.8 206.7Q454.4 206.7 454.2 206.5Q454.0 206.3 454.0 206.0L454.0 206.0Q454.0 205.7 454.2 205.4Q454.4 205.2 454.8 205.2L454.8 205.2Q455.1 205.2 455.3 205.4Q455.6 205.7 455.6 206.0L455.6 206.0Q455.6 206.3 455.3 206.5Q455.1 206.7 454.8 206.7ZM458.5 217.7L457.3 217.7L457.3 207.9L458.4 207.9L458.4 209.0L458.6 209.0Q458.7 208.8 458.9 208.6Q459.1 208.3 459.5 208.0Q459.9 207.8 460.6 207.8L460.6 207.8Q461.5 207.8 462.2 208.3Q462.9 208.7 463.2 209.5Q463.6 210.3 463.6 211.5L463.6 211.5Q463.6 212.6 463.2 213.4Q462.9 214.3 462.2 214.7Q461.5 215.2 460.6 215.2L460.6 215.2Q459.9 215.2 459.5 214.9Q459.1 214.7 458.9 214.4Q458.7 214.1 458.6 213.9L458.6 213.9L458.5 213.9L458.5 217.7ZM460.4 214.1L460.4 214.1Q461.1 214.1 461.6 213.8Q462.0 213.4 462.2 212.8Q462.5 212.2 462.5 211.5L462.5 211.5Q462.5 210.7 462.2 210.1Q462.0 209.5 461.6 209.2Q461.1 208.8 460.4 208.8L460.4 208.8Q459.8 208.8 459.3 209.2Q458.9 209.5 458.7 210.1Q458.5 210.7 458.5 211.5L458.5 211.5Q458.5 212.2 458.7 212.8Q458.9 213.5 459.4 213.8Q459.8 214.1 460.4 214.1ZM466.4 217.7L465.3 217.7L465.3 207.9L466.4 207.9L466.4 209.0L466.5 209.0Q466.6 208.8 466.9 208.6Q467.1 208.3 467.5 208.0Q467.9 207.8 468.6 207.8L468.6 207.8Q469.5 207.8 470.1 208.3Q470.8 208.7 471.2 209.5Q471.6 210.3 471.6 211.5L471.6 211.5Q471.6 212.6 471.2 213.4Q470.8 214.3 470.1 214.7Q469.5 215.2 468.6 215.2L468.6 215.2Q467.9 215.2 467.5 214.9Q467.1 214.7 466.9 214.4Q466.6 214.1 466.5 213.9L466.5 213.9L466.4 213.9L466.4 217.7ZM468.4 214.1L468.4 214.1Q469.1 214.1 469.5 213.8Q470.0 213.4 470.2 212.8Q470.4 212.2 470.4 211.5L470.4 211.5Q470.4 210.7 470.2 210.1Q470.0 209.5 469.5 209.2Q469.1 208.8 468.4 208.8L468.4 208.8Q467.8 208.8 467.3 209.2Q466.9 209.5 466.6 210.1Q466.4 210.7 466.4 211.5L466.4 211.5Q466.4 212.2 466.6 212.8Q466.9 213.5 467.3 213.8Q467.8 214.1 468.4 214.1ZM476.2 215.2L476.2 215.2Q475.2 215.2 474.5 214.7Q473.7 214.2 473.3 213.4Q472.9 212.6 472.9 211.5Q472.9 210.4 473.3 209.6Q473.7 208.8 474.4 208.3Q475.1 207.8 476.1 207.8L476.1 207.8Q476.7 207.8 477.2 208.0Q477.8 208.2 478.2 208.6Q478.7 209.0 478.9 209.7Q479.2 210.4 479.2 211.4L479.2 211.4L479.2 211.8L474.1 211.8Q474.1 212.5 474.3 213.0L474.3 213.0Q474.6 213.6 475.1 213.9Q475.6 214.1 476.2 214.1L476.2 214.1Q476.7 214.1 477.0 214.0Q477.3 213.9 477.6 213.7Q477.8 213.4 478.0 213.0L478.0 213.0L479.1 213.3Q478.9 213.9 478.5 214.3Q478.1 214.7 477.5 214.9Q477.0 215.2 476.2 215.2ZM474.1 210.9L474.1 210.9L478.0 210.9Q478.0 210.4 477.8 210.0L477.8 210.0Q477.6 209.4 477.2 209.1Q476.7 208.8 476.1 208.8Q475.5 208.8 475.0 209.1Q474.5 209.5 474.3 210.0L474.3 210.0Q474.1 210.4 474.1 210.9ZM483.5 215.2L483.5 215.2Q482.6 215.2 481.9 214.7Q481.2 214.3 480.9 213.4Q480.5 212.6 480.5 211.5L480.5 211.5Q480.5 210.3 480.9 209.5Q481.2 208.7 481.9 208.3Q482.6 207.8 483.5 207.8L483.5 207.8Q484.2 207.8 484.6 208.0Q485.0 208.3 485.2 208.6Q485.4 208.8 485.5 209.0L485.5 209.0L485.6 209.0L485.6 205.5L486.8 205.5L486.8 215L485.7 215L485.7 213.9L485.5 213.9Q485.4 214.1 485.2 214.4Q485.0 214.7 484.6 214.9Q484.2 215.2 483.5 215.2ZM483.7 214.1L483.7 214.1Q484.3 214.1 484.7 213.8Q485.2 213.5 485.4 212.8Q485.6 212.2 485.6 211.5L485.6 211.5Q485.6 210.7 485.4 210.1Q485.2 209.5 484.8 209.2Q484.3 208.8 483.7 208.8L483.7 208.8Q483.0 208.8 482.5 209.2Q482.1 209.5 481.9 210.1Q481.6 210.7 481.6 211.5L481.6 211.5Q481.6 212.2 481.9 212.8Q482.1 213.4 482.5 213.8Q483.0 214.1 483.7 214.1Z "/></g><defs><clipPath id="satori_bc-id-1-2-2" clip-path="url(#satori_cp-id)"><path x="513" y="196" width="103" height="28" d="M527,196 h75 a14,14 0 0 1 14,14 v0 a14,14 0 0 1 -14,14 h-75 a14,14 0 0 1 -14,-14 v0 a14,14 0 0 1 14,-14"/></clipPath></defs><mask id="satori_om-id-1-2-2"><rect x="514" y="197" width="101" height="26" fill="#fff" mask="url(#satori_om-id)"/><path width="103" height="28" fill="none" stroke="#000" stroke-width="2" d="M517.101,200.101 A14,14 0 0 1 527,196 h75 a14,14 0 0 1 14,14 v0 a14,14 0 0 1 -14,14 h-75 a14,14 0 0 1 -14,-14 v0 A14,14 0 0 1 517.101,200.101"/></mask><path width="103" height="28" clip-path="url(#satori_bc-id-1-2-2)" fill="none" stroke="#f472b655" stroke-width="2" d="M517.101,200.101 A14,14 0 0 1 527,196 h75 a14,14 0 0 1 14,14 v0 a14,14 0 0 1 -14,14 h-75 a14,14 0 0 1 -14,-14 v0 A14,14 0 0 1 517.101,200.101"/><g mask="url(#satori_om-id)" clip-path="url(#satori_cp-id)"><path fill="#f472b6" d="M531.9 215.2L531.9 215.2Q530.9 215.2 530.2 214.7Q529.5 214.2 529.1 213.4Q528.7 212.6 528.7 211.5L528.7 211.5Q528.7 210.4 529.1 209.6Q529.5 208.7 530.2 208.3Q530.9 207.8 531.9 207.8L531.9 207.8Q532.9 207.8 533.6 208.3Q534.3 208.7 534.7 209.6Q535.1 210.4 535.1 211.5L535.1 211.5Q535.1 212.6 534.7 213.4Q534.3 214.2 533.6 214.7Q532.9 215.2 531.9 215.2ZM531.9 214.1L531.9 214.1Q532.6 214.1 533.1 213.8Q533.5 213.4 533.8 212.8Q534.0 212.2 534.0 211.5L534.0 211.5Q534.0 210.8 533.8 210.2Q533.5 209.6 533.1 209.2Q532.6 208.8 531.9 208.8L531.9 208.8Q531.2 208.8 530.7 209.2Q530.3 209.6 530.0 210.2Q529.8 210.8 529.8 211.5L529.8 211.5Q529.8 212.2 530.0 212.8Q530.3 213.4 530.7 213.8Q531.2 214.1 531.9 214.1ZM537.9 217.7L536.8 217.7L536.8 207.9L537.9 207.9L537.9 209.0L538.0 209.0Q538.1 208.8 538.4 208.6Q538.6 208.3 539.0 208.0Q539.4 207.8 540.1 207.8L540.1 207.8Q541.0 207.8 541.7 208.3Q542.3 208.7 542.7 209.5Q543.1 210.3 543.1 211.5L543.1 211.5Q543.1 212.6 542.7 213.4Q542.3 214.3 541.7 214.7Q541.0 215.2 540.1 215.2L540.1 215.2Q539.4 215.2 539.0 214.9Q538.6 214.7 538.4 214.4Q538.1 214.1 538.0 213.9L538.0 213.9L537.9 213.9L537.9 217.7ZM539.9 214.1L539.9 214.1Q540.6 214.1 541.0 213.8Q541.5 213.4 541.7 212.8Q541.9 212.2 541.9 211.5L541.9 211.5Q541.9 210.7 541.7 210.1Q541.5 209.5 541.0 209.2Q540.6 208.8 539.9 208.8L539.9 208.8Q539.3 208.8 538.8 209.2Q538.4 209.5 538.2 210.1Q537.9 210.7 537.9 211.5L537.9 211.5Q537.9 212.2 538.2 212.8Q538.4 213.5 538.8 213.8Q539.3 214.1 539.9 214.1ZM547.7 215.2L547.7 215.2Q546.7 215.2 546.0 214.7Q545.2 214.2 544.8 213.4Q544.4 212.6 544.4 211.5Q544.4 210.4 544.8 209.6Q545.2 208.8 545.9 208.3Q546.6 207.8 547.6 207.8L547.6 207.8Q548.2 207.8 548.7 208.0Q549.3 208.2 549.7 208.6Q550.2 209.0 550.4 209.7Q550.7 210.4 550.7 211.4L550.7 211.4L550.7 211.8L545.6 211.8Q545.6 212.5 545.8 213.0L545.8 213.0Q546.1 213.6 546.6 213.9Q547.1 214.1 547.7 214.1L547.7 214.1Q548.2 214.1 548.5 214.0Q548.9 213.9 549.1 213.7Q549.3 213.4 549.5 213.0L549.5 213.0L550.6 213.3Q550.4 213.9 550.0 214.3Q549.6 214.7 549.1 214.9Q548.5 215.2 547.7 215.2ZM545.6 210.9L545.6 210.9L549.5 210.9Q549.5 210.4 549.3 210.0L549.3 210.0Q549.1 209.4 548.7 209.1Q548.2 208.8 547.6 208.8Q547.0 208.8 546.5 209.1Q546.1 209.5 545.8 210.0L545.8 210.0Q545.6 210.4 545.6 210.9ZM553.5 210.7L553.5 210.7L553.5 215L552.3 215L552.3 207.9L553.4 207.9L553.4 209.2Q553.7 208.6 554.2 208.2L554.2 208.2Q554.8 207.8 555.6 207.8L555.6 207.8Q556.3 207.8 556.9 208.1Q557.4 208.4 557.7 209.0Q558.0 209.6 558.0 210.5L558.0 210.5L558.0 215L556.9 215L556.9 210.6Q556.9 209.8 556.4 209.3Q556.0 208.8 555.3 208.8L555.3 208.8Q554.8 208.8 554.4 209.1Q553.9 209.3 553.7 209.7Q553.5 210.1 553.5 210.7Z M565.0 207.9L566.5 207.9L566.5 208.9L565.0 208.9L565.0 213.2Q565.0 213.6 565.2 213.9Q565.4 214.1 565.8 214.1L565.8 214.1Q566.0 214.1 566.1 214.0Q566.3 214.0 566.4 214.0L566.4 214.0L566.7 215.0Q566.5 215.0 566.3 215.1Q566.0 215.1 565.8 215.1L565.8 215.1Q564.9 215.1 564.4 214.6Q563.9 214.1 563.9 213.2L563.9 213.2L563.9 208.9L562.8 208.9L562.8 207.9L563.9 207.9L563.9 206.2L565.0 206.2L565.0 207.9ZM570.8 215.2L570.8 215.2Q569.9 215.2 569.1 214.7Q568.4 214.2 568.0 213.4Q567.6 212.6 567.6 211.5L567.6 211.5Q567.6 210.4 568.0 209.6Q568.4 208.7 569.1 208.3Q569.9 207.8 570.8 207.8L570.8 207.8Q571.8 207.8 572.5 208.3Q573.2 208.7 573.7 209.6Q574.1 210.4 574.1 211.5L574.1 211.5Q574.1 212.6 573.7 213.4Q573.2 214.2 572.5 214.7Q571.8 215.2 570.8 215.2ZM570.8 214.1L570.8 214.1Q571.5 214.1 572.0 213.8Q572.5 213.4 572.7 212.8Q572.9 212.2 572.9 211.5L572.9 211.5Q572.9 210.8 572.7 210.2Q572.5 209.6 572.0 209.2Q571.5 208.8 570.8 208.8L570.8 208.8Q570.1 208.8 569.6 209.2Q569.2 209.6 569.0 210.2Q568.7 210.8 568.7 211.5L568.7 211.5Q568.7 212.2 569.0 212.8Q569.2 213.4 569.6 213.8Q570.1 214.1 570.8 214.1Z M583.3 215.1L583.3 215.1Q582.1 215.1 581.2 214.5Q580.2 214.0 579.7 212.9Q579.1 211.8 579.1 210.3L579.1 210.3Q579.1 208.8 579.7 207.7Q580.2 206.6 581.2 206.0Q582.1 205.4 583.3 205.4L583.3 205.4Q584.1 205.4 584.7 205.6Q585.3 205.8 585.8 206.2Q586.4 206.6 586.7 207.2Q587.0 207.8 587.2 208.5L587.2 208.5L586.0 208.5Q585.9 208.0 585.6 207.7Q585.4 207.3 585.0 207.0Q584.7 206.8 584.2 206.7Q583.8 206.5 583.3 206.5L583.3 206.5Q582.5 206.5 581.8 207.0Q581.1 207.4 580.7 208.2Q580.3 209.1 580.3 210.3L580.3 210.3Q580.3 211.5 580.7 212.3Q581.1 213.2 581.8 213.6Q582.5 214.0 583.3 214.0L583.3 214.0Q583.8 214.0 584.2 213.9Q584.7 213.7 585.0 213.5Q585.4 213.2 585.6 212.9Q585.9 212.5 586.0 212.0L586.0 212.0L587.2 212.0Q587.0 212.7 586.7 213.3Q586.4 213.9 585.9 214.3Q585.3 214.7 584.7 214.9Q584.1 215.1 583.3 215.1ZM592.0 215L592.0 215L589.0 215L589.0 205.5L592.1 205.5Q593.5 205.5 594.5 206.1Q595.4 206.7 596.0 207.7Q596.5 208.8 596.5 210.3L596.5 210.3Q596.5 211.7 596.0 212.8Q595.4 213.9 594.4 214.4Q593.4 215 592.0 215ZM590.2 206.6L590.2 213.9L591.9 213.9Q593.0 213.9 593.8 213.5Q594.6 213.1 594.9 212.2Q595.3 211.4 595.3 210.3L595.3 210.3Q595.3 209.1 594.9 208.3Q594.6 207.5 593.8 207.0Q593.1 206.6 592.0 206.6L592.0 206.6L590.2 206.6ZM598.4 205.5L599.6 205.5L599.6 215L598.4 215L598.4 205.5Z "/></g></svg>