<!-- Generated by readme-aura https://github.com/collectioneur/readme-aura -->
<svg width="900" height="150" viewBox="0 0 900 150" xmlns="http://www.w3.org/2000/svg"><defs><pattern id="satori_pattern_id_0" x="0" y="0" width="1" height="1" patternUnits="objectBoundingBox"><linearGradient id="satori_biid_0" x1="0" y1="0" x2="1" y2="0" spreadMethod="pad"><stop offset="0%" stop-color="#0a0c14"/><stop offset="100%" stop-color="#11141d"/></linearGradient><rect x="0" y="0" width="900" height="150" fill="url(#satori_biid_0)"/></pattern></defs><clipPath id="satori_cp-id"><path x="0" y="0" width="900" height="150" d="M16,0 h868 a16,16 0 0 1 16,16 v118 a16,16 0 0 1 -16,16 h-868 a16,16 0 0 1 -16,-16 v-118 a16,16 0 0 1 16,-16"/></clipPath><mask id="satori_om-id"><rect x="0" y="0" width="900" height="150" fill="#fff"/></mask><path x="0" y="0" width="900" height="150" fill="url(#satori_pattern_id_0)" d="M16,0 h868 a16,16 0 0 1 16,16 v118 a16,16 0 0 1 -16,16 h-868 a16,16 0 0 1 -16,-16 v-118 a16,16 0 0 1 16,-16"/><clipPath id="satori_cp-id-0" clip-path="url(#satori_cp-id)"><rect x="0" y="0" width="900" height="3"/></clipPath><mask id="satori_om-id-0"><rect x="0" y="0" width="900" height="3" fill="#fff" mask="url(#satori_om-id)"/></mask><svg x="0" y="0" width="900" height="3" preserveAspectRatio="none" clip-path="url(#satori_cp-id-0)" mask="url(#satori_om-id-0)"><defs><linearGradient id="sweep" x1="0" y1="0" x2="1" y2="0"><stop offset="0%" stop-color="#22d3ee"></stop><stop offset="50%" stop-color="#a78bfa"></stop><stop offset="100%" stop-color="#f472b6"></stop></linearGradient></defs><rect x="0" y="0" width="900" height="3" fill="url(#sweep)"><animate attributeName="opacity" values="0.4;1;0.4" dur="3s" repeatCount="indefinite"></animate></rect><rect x="0" y="0" width="120" height="3" fill="#ffffff" opacity="0.6"><animate attributeName="x" values="-120;900" dur="4s" repeatCount="indefinite"></animate></rect></svg><mask id="satori_om-id-0-0"><rect x="0" y="0" width="0" height="3" fill="#fff" mask="url(#satori_om-id)"/></mask><mask id="satori_om-id-0-0-0"><rect x="0" y="0" width="0" height="3" fill="#fff" mask="url(#satori_om-id)"/></mask><mask id="satori_om-id-0-0-0-0"><rect x="0" y="0" width="0" height="3" fill="#fff" mask="url(#satori_om-id)"/></mask><mask id="satori_om-id-0-0-0-1"><rect x="0" y="0" width="0" height="3" fill="#fff" mask="url(#satori_om-id)"/></mask><mask id="satori_om-id-0-0-0-2"><rect x="0" y="0" width="0" height="3" fill="#fff" mask="url(#satori_om-id)"/></mask><mask id="satori_om-id-0-1"><rect x="0" y="0" width="0" height="3" fill="#fff" mask="url(#satori_om-id)"/></mask><mask id="satori_om-id-0-1-0"><rect x="0" y="0" width="0" height="3" fill="#fff" mask="url(#satori_om-id)"/></mask><mask id="satori_om-id-0-2"><rect x="0" y="0" width="0" height="3" fill="#fff" mask="url(#satori_om-id)"/></mask><mask id="satori_om-id-0-2-0"><rect x="0" y="0" width="0" height="3" fill="#fff" mask="url(#satori_om-id)"/></mask><mask id="satori_om-id-1"><rect x="0" y="3" width="900" height="147" fill="#fff" mask="url(#satori_om-id)"/></mask><mask id="satori_om-id-1-0"><rect x="36" y="55" width="341" height="44" fill="#fff" mask="url(#satori_om-id)"/></mask><clipPath id="satori_bct-id-1-0-0" clip-path="url(#satori_cp-id)"><path d="M46.0 73L37.3 73L37.3 59.2L40.1 59.2L40.1 70.7L46.0 70.7L46.0 73ZM52.6 73.2L52.6 73.2Q51.0 73.2 49.9 72.6Q48.7 71.9 48.1 70.7Q47.5 69.5 47.5 67.9L47.5 67.9Q47.5 66.3 48.1 65.1Q48.7 63.9 49.8 63.2Q51.0 62.5 52.5 62.5L52.5 62.5Q53.5 62.5 54.4 62.8Q55.3 63.1 55.9 63.8Q56.6 64.5 57.0 65.4Q57.3 66.4 57.3 67.8L57.3 67.8L57.3 68.5L50.3 68.5Q50.3 69.3 50.6 69.9L50.6 69.9Q50.9 70.5 51.4 70.8Q51.9 71.1 52.7 71.1L52.7 71.1Q53.2 71.1 53.6 71.0Q54.0 70.8 54.2 70.6Q54.5 70.3 54.7 69.9L54.7 69.9L57.2 70.4Q56.9 71.2 56.3 71.9Q55.7 72.5 54.8 72.9Q53.8 73.2 52.6 73.2ZM50.3 66.8L50.3 66.8L54.7 66.8Q54.6 66.3 54.4 65.8L54.4 65.8Q54.2 65.3 53.7 64.9Q53.2 64.6 52.5 64.6L52.5 64.6Q51.8 64.6 51.3 64.9Q50.8 65.3 50.5 65.8L50.5 65.8Q50.3 66.3 50.3 66.8ZM62.5 62.6L64.4 62.6L64.4 64.8L62.5 64.8L62.5 70.0Q62.5 70.5 62.7 70.7Q62.9 70.9 63.4 70.9L63.4 70.9Q63.6 70.9 63.9 70.9Q64.1 70.8 64.3 70.8L64.3 70.8L64.7 72.9Q64.2 73.0 63.8 73.1Q63.3 73.1 62.9 73.1L62.9 73.1Q61.3 73.1 60.5 72.4Q59.7 71.6 59.7 70.2L59.7 70.2L59.7 64.8L58.2 64.8L58.2 62.6L59.7 62.6L59.7 60.2L62.5 60.2L62.5 62.6ZM69.3 64.9L67.2 64.9L66.9 59.2L69.6 59.2L69.3 64.9ZM76.8 73.2L76.8 73.2Q75.5 73.2 74.5 72.8Q73.6 72.5 73.0 71.8Q72.4 71.1 72.2 70.2L72.2 70.2L74.8 69.7Q75.0 70.4 75.5 70.8Q76.0 71.2 76.8 71.2L76.8 71.2Q77.6 71.2 78.1 70.9Q78.6 70.6 78.6 70.1L78.6 70.1Q78.6 69.7 78.2 69.4Q77.9 69.2 77.2 69.0L77.2 69.0L75.4 68.7Q73.9 68.4 73.2 67.6Q72.5 66.9 72.5 65.7L72.5 65.7Q72.5 64.7 73.0 64.0Q73.5 63.3 74.5 62.9Q75.5 62.5 76.8 62.5L76.8 62.5Q78.0 62.5 78.9 62.8Q79.8 63.2 80.4 63.8Q80.9 64.4 81.1 65.3L81.1 65.3L78.7 65.7Q78.5 65.2 78.1 64.8Q77.6 64.5 76.8 64.5L76.8 64.5Q76.2 64.5 75.7 64.8Q75.2 65.1 75.2 65.6L75.2 65.6Q75.2 65.9 75.5 66.2Q75.8 66.5 76.6 66.6L76.6 66.6L78.4 67.0Q79.9 67.3 80.7 68.0Q81.4 68.7 81.4 69.8L81.4 69.8Q81.4 70.8 80.8 71.6Q80.2 72.4 79.2 72.8Q78.1 73.2 76.8 73.2Z M93.6 73.2L93.6 73.2Q92.7 73.2 92.2 72.9Q91.6 72.6 91.2 72.2Q90.8 71.8 90.7 71.3L90.7 71.3L90.5 71.3L90.5 73L87.8 73L87.8 59.2L90.6 59.2L90.6 64.4L90.7 64.4Q90.8 64.0 91.2 63.5Q91.6 63.1 92.1 62.8Q92.7 62.5 93.6 62.5L93.6 62.5Q94.8 62.5 95.7 63.1Q96.7 63.7 97.2 64.9Q97.8 66.1 97.8 67.8L97.8 67.8Q97.8 69.6 97.3 70.8Q96.7 71.9 95.7 72.6Q94.8 73.2 93.6 73.2ZM92.7 70.9L92.7 70.9Q93.5 70.9 94.0 70.5Q94.5 70.1 94.7 69.4Q95.0 68.7 95.0 67.8L95.0 67.8Q95.0 66.9 94.7 66.2Q94.5 65.5 94.0 65.1Q93.5 64.7 92.7 64.7L92.7 64.7Q92.0 64.7 91.5 65.1Q91.0 65.5 90.8 66.2Q90.5 66.9 90.5 67.8L90.5 67.8Q90.5 68.8 90.8 69.5Q91.0 70.2 91.5 70.6Q92.0 70.9 92.7 70.9ZM103.3 73.1L103.3 73.1Q102.3 73.1 101.5 72.7Q100.6 72.2 100.2 71.3Q99.8 70.4 99.8 69.2L99.8 69.2L99.8 62.6L102.5 62.6L102.5 68.7Q102.5 69.7 103.0 70.3Q103.5 70.8 104.4 70.8L104.4 70.8Q105.0 70.8 105.5 70.5Q105.9 70.3 106.2 69.8Q106.4 69.3 106.4 68.6L106.4 68.6L106.4 62.6L109.2 62.6L109.2 73L106.6 73L106.6 70.8Q106.2 71.8 105.5 72.4L105.5 72.4Q104.6 73.1 103.3 73.1ZM114.4 73L111.6 73L111.6 62.6L114.4 62.6L114.4 73ZM113.0 61.3L113.0 61.3Q112.4 61.3 111.9 60.9Q111.5 60.4 111.5 59.8L111.5 59.8Q111.5 59.3 111.9 58.8Q112.4 58.4 113.0 58.4L113.0 58.4Q113.6 58.4 114.1 58.8Q114.5 59.2 114.5 59.8L114.5 59.8Q114.5 60.4 114.1 60.9Q113.6 61.3 113.0 61.3ZM116.7 59.2L119.5 59.2L119.5 73L116.7 73L116.7 59.2ZM125.7 73.2L125.7 73.2Q124.5 73.2 123.5 72.6Q122.6 71.9 122.0 70.8Q121.5 69.6 121.5 67.8L121.5 67.8Q121.5 66.1 122.0 64.9Q122.6 63.7 123.6 63.1Q124.5 62.5 125.7 62.5L125.7 62.5Q126.5 62.5 127.1 62.8Q127.7 63.1 128.1 63.5Q128.4 64.0 128.6 64.4L128.6 64.4L128.7 64.4L128.7 59.2L131.5 59.2L131.5 73L128.8 73L128.8 71.3L128.6 71.3Q128.4 71.8 128.1 72.2Q127.7 72.6 127.1 72.9Q126.5 73.2 125.7 73.2ZM126.5 70.9L126.5 70.9Q127.2 70.9 127.7 70.6Q128.2 70.2 128.5 69.5Q128.8 68.8 128.8 67.8L128.8 67.8Q128.8 66.9 128.5 66.2Q128.3 65.5 127.8 65.1Q127.3 64.7 126.5 64.7L126.5 64.7Q125.8 64.7 125.3 65.1Q124.8 65.5 124.6 66.2Q124.3 66.9 124.3 67.8L124.3 67.8Q124.3 68.7 124.6 69.4Q124.8 70.1 125.3 70.5Q125.8 70.9 126.5 70.9Z M142.5 73.2L142.5 73.2Q141.2 73.2 140.3 72.8Q139.3 72.5 138.7 71.8Q138.1 71.1 137.9 70.2L137.9 70.2L140.5 69.7Q140.7 70.4 141.2 70.8Q141.7 71.2 142.6 71.2L142.6 71.2Q143.4 71.2 143.8 70.9Q144.3 70.6 144.3 70.1L144.3 70.1Q144.3 69.7 144.0 69.4Q143.6 69.2 142.9 69.0L142.9 69.0L141.2 68.7Q139.7 68.4 138.9 67.6Q138.2 66.9 138.2 65.7L138.2 65.7Q138.2 64.7 138.7 64.0Q139.3 63.3 140.2 62.9Q141.2 62.5 142.5 62.5L142.5 62.5Q143.8 62.5 144.7 62.8Q145.6 63.2 146.1 63.8Q146.7 64.4 146.9 65.3L146.9 65.3L144.4 65.7Q144.2 65.2 143.8 64.8Q143.3 64.5 142.6 64.5L142.6 64.5Q141.9 64.5 141.4 64.8Q141.0 65.1 141.0 65.6L141.0 65.6Q141.0 65.9 141.3 66.2Q141.6 66.5 142.3 66.6L142.3 66.6L144.2 67.0Q145.7 67.3 146.4 68.0Q147.1 68.7 147.1 69.8L147.1 69.8Q147.1 70.8 146.5 71.6Q145.9 72.4 144.9 72.8Q143.8 73.2 142.5 73.2ZM153.6 73.2L153.6 73.2Q152.1 73.2 150.9 72.5Q149.8 71.9 149.2 70.7Q148.6 69.5 148.6 67.9L148.6 67.9Q148.6 66.2 149.2 65.0Q149.8 63.8 150.9 63.2Q152.1 62.5 153.6 62.5L153.6 62.5Q155.2 62.5 156.4 63.2Q157.5 63.8 158.1 65.0Q158.7 66.2 158.7 67.9L158.7 67.9Q158.7 69.5 158.1 70.7Q157.5 71.9 156.4 72.5Q155.2 73.2 153.6 73.2ZM153.6 71.0L153.6 71.0Q154.4 71.0 154.9 70.6Q155.4 70.2 155.6 69.5Q155.9 68.8 155.9 67.9L155.9 67.9Q155.9 66.9 155.6 66.2Q155.4 65.5 154.9 65.1Q154.4 64.7 153.6 64.7L153.6 64.7Q152.9 64.7 152.4 65.1Q151.9 65.5 151.7 66.2Q151.4 66.9 151.4 67.9L151.4 67.9Q151.4 68.8 151.7 69.5Q151.9 70.2 152.4 70.6Q152.9 71.0 153.6 71.0ZM163.4 73L160.7 73L160.7 62.6L163.2 62.6L163.4 64.6Q163.6 64.1 163.9 63.6L163.9 63.6Q164.4 63.0 165.0 62.8Q165.6 62.5 166.3 62.5L166.3 62.5Q167.4 62.5 168.1 63.2L168.1 63.2Q168.7 63.7 169.0 64.8L169.0 64.8Q169.2 64.2 169.6 63.7L169.6 63.7Q170.1 63.1 170.8 62.8Q171.5 62.5 172.3 62.5L172.3 62.5Q173.3 62.5 174.0 62.9Q174.8 63.3 175.2 64.1Q175.6 64.9 175.6 66.0L175.6 66.0L175.6 73L172.8 73L172.8 66.5Q172.8 65.7 172.4 65.2Q171.9 64.8 171.2 64.8L171.2 64.8Q170.7 64.8 170.3 65.0Q169.9 65.3 169.7 65.7Q169.5 66.1 169.5 66.6L169.5 66.6L169.5 73L166.8 73L166.8 66.5Q166.8 65.7 166.3 65.2Q165.9 64.8 165.2 64.8L165.2 64.8Q164.7 64.8 164.3 65.0Q163.9 65.2 163.7 65.7Q163.4 66.1 163.4 66.7L163.4 66.7L163.4 73ZM182.7 73.2L182.7 73.2Q181.1 73.2 179.9 72.6Q178.8 71.9 178.2 70.7Q177.6 69.5 177.6 67.9L177.6 67.9Q177.6 66.3 178.2 65.1Q178.8 63.9 179.9 63.2Q181.0 62.5 182.5 62.5L182.5 62.5Q183.6 62.5 184.4 62.8Q185.3 63.1 186.0 63.8Q186.7 64.5 187.0 65.4Q187.4 66.4 187.4 67.8L187.4 67.8L187.4 68.5L180.3 68.5Q180.3 69.3 180.6 69.9L180.6 69.9Q180.9 70.5 181.5 70.8Q182.0 71.1 182.7 71.1L182.7 71.1Q183.2 71.1 183.6 71.0Q184.0 70.8 184.3 70.6Q184.6 70.3 184.7 69.9L184.7 69.9L187.3 70.4Q187.0 71.2 186.4 71.9Q185.8 72.5 184.8 72.9Q183.9 73.2 182.7 73.2ZM180.3 66.8L180.3 66.8L184.7 66.8Q184.7 66.3 184.5 65.8L184.5 65.8Q184.3 65.3 183.8 64.9Q183.3 64.6 182.6 64.6L182.6 64.6Q181.8 64.6 181.3 64.9Q180.8 65.3 180.6 65.8L180.6 65.8Q180.4 66.3 180.3 66.8ZM192.5 62.6L194.5 62.6L194.5 64.8L192.5 64.8L192.5 70.0Q192.5 70.5 192.7 70.7Q193.0 70.9 193.5 70.9L193.5 70.9Q193.6 70.9 193.9 70.9Q194.2 70.8 194.4 70.8L194.4 70.8L194.8 72.9Q194.3 73.0 193.8 73.1Q193.4 73.1 193.0 73.1L193.0 73.1Q191.4 73.1 190.6 72.4Q189.7 71.6 189.7 70.2L189.7 70.2L189.7 64.8L188.3 64.8L188.3 62.6L189.7 62.6L189.7 60.2L192.5 60.2L192.5 62.6ZM199.1 67.0L199.1 67.0L199.1 73L196.3 73L196.3 59.2L199.0 59.2L199.0 64.6Q199.4 63.7 200.0 63.2L200.0 63.2Q200.8 62.5 202.2 62.5L202.2 62.5Q203.2 62.5 204.0 63.0Q204.8 63.4 205.3 64.3Q205.7 65.2 205.7 66.4L205.7 66.4L205.7 73L202.9 73L202.9 66.9Q202.9 65.9 202.4 65.4Q202.0 64.8 201.1 64.8L201.1 64.8Q200.5 64.8 200.0 65.1Q199.6 65.3 199.3 65.8Q199.1 66.3 199.1 67.0ZM210.9 73L208.1 73L208.1 62.6L210.9 62.6L210.9 73ZM209.5 61.3L209.5 61.3Q208.9 61.3 208.4 60.9Q208.0 60.4 208.0 59.8L208.0 59.8Q208.0 59.3 208.4 58.8Q208.9 58.4 209.5 58.4L209.5 58.4Q210.1 58.4 210.6 58.8Q211.0 59.2 211.0 59.8L211.0 59.8Q211.0 60.4 210.6 60.9Q210.1 61.3 209.5 61.3ZM216.0 67.0L216.0 67.0L216.0 73L213.3 73L213.3 62.6L215.9 62.6L215.9 64.8Q216.3 63.8 217.0 63.2L217.0 63.2Q217.8 62.5 219.1 62.5L219.1 62.5Q220.2 62.5 221.0 63.0Q221.8 63.4 222.3 64.3Q222.7 65.2 222.7 66.4L222.7 66.4L222.7 73L219.9 73L219.9 66.9Q219.9 65.9 219.4 65.4Q218.9 64.8 218.0 64.8L218.0 64.8Q217.5 64.8 217.0 65.1Q216.5 65.3 216.3 65.8Q216.0 66.3 216.0 67.0ZM229.7 77.1L229.7 77.1Q228.4 77.1 227.4 76.8Q226.5 76.4 225.9 75.9Q225.3 75.3 225.0 74.6L225.0 74.6L227.4 73.9Q227.5 74.2 227.8 74.5Q228.1 74.7 228.6 74.9Q229.0 75.1 229.7 75.1L229.7 75.1Q230.7 75.1 231.3 74.6Q232.0 74.1 232.0 73.1L232.0 73.1L232.0 71.2L231.7 71.2Q231.6 71.6 231.2 72.0Q230.9 72.4 230.3 72.6Q229.7 72.9 228.9 72.9L228.9 72.9Q227.7 72.9 226.7 72.3Q225.8 71.8 225.2 70.6Q224.6 69.5 224.6 67.8L224.6 67.8Q224.6 66.0 225.2 64.9Q225.8 63.7 226.8 63.1Q227.7 62.5 228.9 62.5L228.9 62.5Q229.7 62.5 230.3 62.8Q230.9 63.1 231.3 63.5Q231.7 64.0 231.9 64.4L231.9 64.4L232.0 64.4L232.0 62.6L234.7 62.6L234.7 72.9Q234.7 74.3 234.1 75.2Q233.4 76.2 232.3 76.6Q231.2 77.1 229.7 77.1ZM229.7 70.7L229.7 70.7Q230.5 70.7 230.9 70.4Q231.4 70.0 231.7 69.4Q232.0 68.7 232.0 67.8L232.0 67.8Q232.0 66.9 231.7 66.2Q231.4 65.5 230.9 65.1Q230.5 64.7 229.7 64.7L229.7 64.7Q229.0 64.7 228.5 65.1Q228.0 65.5 227.8 66.2Q227.5 66.9 227.5 67.8L227.5 67.8Q227.5 68.7 227.8 69.3Q228.0 70.0 228.5 70.4Q229.0 70.7 229.7 70.7Z M246.2 77.1L246.2 77.1Q244.9 77.1 243.9 76.8Q243.0 76.4 242.4 75.9Q241.8 75.3 241.5 74.6L241.5 74.6L243.9 73.9Q244.1 74.2 244.3 74.5Q244.6 74.7 245.1 74.9Q245.5 75.1 246.2 75.1L246.2 75.1Q247.2 75.1 247.9 74.6Q248.5 74.1 248.5 73.1L248.5 73.1L248.5 71.2L248.2 71.2Q248.1 71.6 247.7 72.0Q247.4 72.4 246.8 72.6Q246.2 72.9 245.4 72.9L245.4 72.9Q244.2 72.9 243.2 72.3Q242.3 71.8 241.7 70.6Q241.1 69.5 241.1 67.8L241.1 67.8Q241.1 66.0 241.7 64.9Q242.3 63.7 243.3 63.1Q244.2 62.5 245.4 62.5L245.4 62.5Q246.3 62.5 246.8 62.8Q247.4 63.1 247.8 63.5Q248.2 64.0 248.4 64.4L248.4 64.4L248.5 64.4L248.5 62.6L251.2 62.6L251.2 72.9Q251.2 74.3 250.6 75.2Q249.9 76.2 248.8 76.6Q247.7 77.1 246.2 77.1ZM246.2 70.7L246.2 70.7Q247.0 70.7 247.5 70.4Q248.0 70.0 248.2 69.4Q248.5 68.7 248.5 67.8L248.5 67.8Q248.5 66.9 248.2 66.2Q248.0 65.5 247.5 65.1Q247.0 64.7 246.2 64.7L246.2 64.7Q245.5 64.7 245.0 65.1Q244.5 65.5 244.3 66.2Q244.0 66.9 244.0 67.8L244.0 67.8Q244.0 68.7 244.3 69.3Q244.5 70.0 245.0 70.4Q245.5 70.7 246.2 70.7ZM256.4 73L253.6 73L253.6 62.6L256.3 62.6L256.3 64.4L256.4 64.4Q256.7 63.5 257.4 63.0Q258.0 62.5 258.9 62.5L258.9 62.5Q259.1 62.5 259.4 62.5Q259.6 62.5 259.8 62.6L259.8 62.6L259.8 65.1Q259.6 65.0 259.3 65.0Q258.9 64.9 258.6 64.9L258.6 64.9Q258.0 64.9 257.5 65.2Q256.9 65.5 256.7 66.0Q256.4 66.5 256.4 67.1L256.4 67.1L256.4 73ZM266.0 73.2L266.0 73.2Q264.4 73.2 263.3 72.6Q262.1 71.9 261.5 70.7Q260.9 69.5 260.9 67.9L260.9 67.9Q260.9 66.3 261.5 65.1Q262.1 63.9 263.2 63.2Q264.4 62.5 265.9 62.5L265.9 62.5Q266.9 62.5 267.8 62.8Q268.7 63.1 269.3 63.8Q270.0 64.5 270.4 65.4Q270.7 66.4 270.7 67.8L270.7 67.8L270.7 68.5L263.6 68.5Q263.7 69.3 264.0 69.9L264.0 69.9Q264.3 70.5 264.8 70.8Q265.3 71.1 266.1 71.1L266.1 71.1Q266.6 71.1 267.0 71.0Q267.3 70.8 267.6 70.6Q267.9 70.3 268.1 69.9L268.1 69.9L270.6 70.4Q270.3 71.2 269.7 71.9Q269.1 72.5 268.2 72.9Q267.2 73.2 266.0 73.2ZM263.7 66.8L263.7 66.8L268.1 66.8Q268.0 66.3 267.8 65.8L267.8 65.8Q267.6 65.3 267.1 64.9Q266.6 64.6 265.9 64.6L265.9 64.6Q265.2 64.6 264.7 64.9Q264.2 65.3 263.9 65.8L263.9 65.8Q263.7 66.3 263.7 66.8ZM275.5 73.2L275.5 73.2Q274.6 73.2 273.8 72.9Q273.0 72.5 272.5 71.8Q272.1 71.1 272.1 70.1L272.1 70.1Q272.1 69.2 272.4 68.6Q272.7 68.1 273.3 67.7Q273.8 67.4 274.5 67.2Q275.2 67.0 276.0 66.9L276.0 66.9Q276.9 66.8 277.5 66.7Q278.0 66.7 278.3 66.5Q278.5 66.3 278.5 66.0L278.5 66.0L278.5 65.9Q278.5 65.5 278.3 65.2Q278.1 64.9 277.8 64.7Q277.4 64.6 276.9 64.6L276.9 64.6Q276.4 64.6 276.0 64.7Q275.6 64.9 275.3 65.2Q275.1 65.4 274.9 65.8L274.9 65.8L272.4 65.3Q272.7 64.4 273.3 63.8Q273.9 63.2 274.8 62.8Q275.7 62.5 276.9 62.5L276.9 62.5Q277.7 62.5 278.5 62.7Q279.3 62.9 279.9 63.3Q280.6 63.7 280.9 64.4Q281.3 65.1 281.3 66.0L281.3 66.0L281.3 73L278.7 73L278.7 71.6L278.6 71.6Q278.3 72.0 277.9 72.4Q277.5 72.8 276.9 73.0Q276.3 73.2 275.5 73.2ZM276.3 71.2L276.3 71.2Q277.0 71.2 277.5 71.0Q278.0 70.7 278.3 70.3Q278.5 69.8 278.5 69.3L278.5 69.3L278.5 68.2Q278.4 68.3 278.2 68.3Q277.9 68.4 277.6 68.5Q277.3 68.5 277.0 68.6Q276.7 68.6 276.5 68.6L276.5 68.6Q276.0 68.7 275.6 68.9Q275.2 69.0 275.0 69.3Q274.8 69.6 274.8 70.0L274.8 70.0Q274.8 70.4 275.0 70.7Q275.2 71.0 275.5 71.1Q275.9 71.2 276.3 71.2ZM286.9 62.6L288.8 62.6L288.8 64.8L286.9 64.8L286.9 70.0Q286.9 70.5 287.1 70.7Q287.3 70.9 287.8 70.9L287.8 70.9Q288.0 70.9 288.3 70.9Q288.6 70.8 288.7 70.8L288.7 70.8L289.1 72.9Q288.6 73.0 288.2 73.1Q287.7 73.1 287.3 73.1L287.3 73.1Q285.8 73.1 284.9 72.4Q284.1 71.6 284.1 70.2L284.1 70.2L284.1 64.8L282.7 64.8L282.7 62.6L284.1 62.6L284.1 60.2L286.9 60.2L286.9 62.6ZM292.6 73.2L292.6 73.2Q291.9 73.2 291.5 72.7Q291.0 72.3 291.0 71.6L291.0 71.6Q291.0 70.9 291.5 70.4Q291.9 70.0 292.6 70.0L292.6 70.0Q293.3 70.0 293.8 70.4Q294.2 70.9 294.2 71.6L294.2 71.6Q294.2 72.3 293.8 72.7Q293.3 73.2 292.6 73.2Z "/></clipPath><defs><pattern id="satori_pattern_id-1-0-0_0" x="0" y="0" width="1" height="1" patternUnits="objectBoundingBox"><linearGradient id="satori_biid-1-0-0_0" x1="0" y1="0" x2="1" y2="0" spreadMethod="pad"><stop offset="0%" stop-color="#e2e8f0"/><stop offset="100%" stop-color="#94a3b8"/></linearGradient><rect x="0" y="0" width="341" height="23" fill="url(#satori_biid-1-0-0_0)"/></pattern></defs><mask id="satori_om-id-1-0-0"><rect x="36" y="55" width="341" height="23" fill="#fff" mask="url(#satori_om-id)"/></mask><rect x="36" y="55" width="341" height="23" fill="url(#satori_pattern_id-1-0-0_0)" clip-path="url(#satori_bct-id-1-0-0)" mask="url(#satori_om-id)"/><mask id="satori_om-id-1-0-1"><rect x="36" y="83" width="341" height="16" fill="#fff" mask="url(#satori_om-id)"/></mask><g mask="url(#satori_om-id)" clip-path="url(#satori_cp-id)"><path fill="#64748b" d="M38.3 96L37.1 96L37.1 86.5L38.3 86.5L38.3 90.6L43.3 90.6L43.3 86.5L44.5 86.5L44.5 96L43.3 96L43.3 91.7L38.3 91.7L38.3 96ZM52.6 96L46.8 96L46.8 86.5L52.6 86.5L52.6 87.6L48.0 87.6L48.0 90.7L52.3 90.7L52.3 91.8L48.0 91.8L48.0 94.9L52.6 94.9L52.6 96ZM57.1 87.6L54.1 87.6L54.1 86.5L61.2 86.5L61.2 87.6L58.3 87.6L58.3 96L57.1 96L57.1 87.6ZM63.0 86.5L64.2 86.5L64.2 96L63.0 96L63.0 86.5ZM70.3 96.1L70.3 96.1Q69.1 96.1 68.2 95.5Q67.2 95.0 66.7 93.9Q66.1 92.8 66.1 91.3L66.1 91.3Q66.1 89.8 66.7 88.7Q67.2 87.6 68.2 87.0Q69.1 86.4 70.3 86.4L70.3 86.4Q71.0 86.4 71.7 86.6Q72.3 86.8 72.8 87.2Q73.3 87.6 73.7 88.2Q74.0 88.8 74.1 89.5L74.1 89.5L72.9 89.5Q72.8 89.0 72.6 88.7Q72.3 88.3 72.0 88.0Q71.6 87.8 71.2 87.7Q70.8 87.5 70.3 87.5L70.3 87.5Q69.5 87.5 68.8 88.0Q68.1 88.4 67.7 89.2Q67.3 90.1 67.3 91.3L67.3 91.3Q67.3 92.5 67.7 93.3Q68.1 94.2 68.8 94.6Q69.5 95.0 70.3 95.0L70.3 95.0Q70.8 95.0 71.2 94.9Q71.6 94.7 72.0 94.5Q72.3 94.2 72.6 93.9Q72.8 93.5 72.9 93.0L72.9 93.0L74.1 93.0Q74.0 93.7 73.7 94.3Q73.3 94.9 72.8 95.3Q72.3 95.7 71.7 95.9Q71.1 96.1 70.3 96.1Z M80.4 92.4L80.4 92.4Q80.0 92.4 79.8 92.1Q79.5 91.9 79.5 91.5L79.5 91.5Q79.5 91.2 79.8 90.9Q80.0 90.6 80.4 90.6L80.4 90.6Q80.7 90.6 81.0 90.9Q81.2 91.2 81.2 91.5L81.2 91.5Q81.2 91.9 81.0 92.1Q80.7 92.4 80.4 92.4Z M88.2 96L87.1 96L87.1 86.5L88.8 86.5L91.1 92.5Q91.2 92.7 91.3 93.0Q91.4 93.3 91.5 93.7Q91.6 94.1 91.7 94.4L91.7 94.4Q91.8 94.6 91.8 94.7L91.8 94.7Q91.8 94.6 91.9 94.5L91.9 94.5Q92.0 94.1 92.1 93.7Q92.2 93.4 92.3 93.0Q92.4 92.7 92.5 92.5L92.5 92.5L94.8 86.5L96.5 86.5L96.5 96L95.3 96L95.3 90.6Q95.3 90.3 95.3 89.9Q95.3 89.6 95.3 89.1Q95.4 88.7 95.4 88.3L95.4 88.3Q95.4 88.1 95.4 87.8L95.4 87.8Q95.3 88.1 95.2 88.4L95.2 88.4Q95.0 88.8 94.9 89.2Q94.8 89.7 94.6 90.0Q94.5 90.4 94.4 90.6L94.4 90.6L92.3 96L91.3 96L89.1 90.6Q89.0 90.4 88.9 90.0Q88.8 89.7 88.6 89.3Q88.5 88.9 88.3 88.4L88.3 88.4Q88.3 88.1 88.2 87.8L88.2 87.8Q88.2 88.0 88.2 88.2L88.2 88.2Q88.2 88.7 88.2 89.1Q88.2 89.5 88.2 89.9Q88.2 90.3 88.2 90.6L88.2 90.6L88.2 96ZM100.6 96.2L100.6 96.2Q100.0 96.2 99.4 95.9Q98.9 95.7 98.5 95.2Q98.2 94.7 98.2 94.0L98.2 94.0Q98.2 93.4 98.5 93.0Q98.7 92.6 99.1 92.4Q99.5 92.2 100.0 92.1Q100.5 92.0 101.0 91.9L101.0 91.9Q101.6 91.8 102.0 91.8Q102.4 91.7 102.6 91.6Q102.8 91.5 102.8 91.2L102.8 91.2L102.8 91.2Q102.8 90.8 102.6 90.5Q102.5 90.1 102.1 90.0Q101.8 89.8 101.3 89.8L101.3 89.8Q100.8 89.8 100.5 90.0Q100.1 90.1 99.9 90.4Q99.6 90.6 99.5 90.9L99.5 90.9L98.4 90.5Q98.7 89.8 99.2 89.5Q99.6 89.1 100.2 89.0Q100.7 88.8 101.3 88.8L101.3 88.8Q101.6 88.8 102.1 88.9Q102.6 89.0 103.0 89.2Q103.4 89.5 103.7 90.0Q104.0 90.5 104.0 91.3L104.0 91.3L104.0 96L102.8 96L102.8 95.0L102.8 95.0Q102.6 95.3 102.4 95.5Q102.1 95.8 101.7 96.0Q101.2 96.2 100.6 96.2ZM100.8 95.2L100.8 95.2Q101.5 95.2 101.9 94.9Q102.4 94.7 102.6 94.3Q102.8 93.9 102.8 93.4L102.8 93.4L102.8 92.5Q102.7 92.5 102.5 92.6Q102.3 92.7 102.0 92.7Q101.7 92.8 101.4 92.8Q101.1 92.8 100.9 92.9L100.9 92.9Q100.5 92.9 100.2 93.0Q99.8 93.2 99.6 93.4Q99.4 93.6 99.4 94.0L99.4 94.0Q99.4 94.4 99.6 94.7Q99.8 94.9 100.1 95.0Q100.4 95.2 100.8 95.2ZM108.4 96.2L108.4 96.2Q107.6 96.2 107.1 95.9Q106.5 95.7 106.1 95.3Q105.8 94.9 105.6 94.3L105.6 94.3L106.7 94.0Q106.9 94.6 107.3 94.9Q107.7 95.1 108.4 95.1L108.4 95.1Q109.1 95.1 109.5 94.8Q110.0 94.5 110.0 94.1L110.0 94.1Q110.0 93.7 109.7 93.5Q109.5 93.2 108.9 93.1L108.9 93.1L107.8 92.8Q106.8 92.6 106.3 92.1Q105.9 91.6 105.9 90.9L105.9 90.9Q105.9 90.3 106.2 89.8Q106.5 89.3 107.1 89.1Q107.7 88.8 108.5 88.8L108.5 88.8Q109.2 88.8 109.7 89.0Q110.2 89.3 110.6 89.6Q110.9 90.0 111.0 90.5L111.0 90.5L110.0 90.8Q109.9 90.4 109.5 90.1Q109.2 89.8 108.5 89.8L108.5 89.8Q107.9 89.8 107.4 90.1Q107.0 90.4 107.0 90.8L107.0 90.8Q107.0 91.2 107.3 91.4Q107.6 91.7 108.2 91.8L108.2 91.8L109.3 92.1Q110.2 92.3 110.7 92.8Q111.2 93.3 111.2 94.0L111.2 94.0Q111.2 94.6 110.8 95.1Q110.5 95.6 109.8 95.9Q109.2 96.2 108.4 96.2ZM114.2 88.9L115.6 88.9L115.6 89.9L114.2 89.9L114.2 94.2Q114.2 94.6 114.3 94.9Q114.5 95.1 115.0 95.1L115.0 95.1Q115.1 95.1 115.3 95.0Q115.4 95.0 115.6 95.0L115.6 95.0L115.8 96.0Q115.6 96.0 115.4 96.1Q115.2 96.1 115.0 96.1L115.0 96.1Q114.0 96.1 113.5 95.6Q113.0 95.1 113.0 94.2L113.0 94.2L113.0 89.9L111.9 89.9L111.9 88.9L113.0 88.9L113.0 87.2L114.2 87.2L114.2 88.9ZM120.1 96.2L120.1 96.2Q119.0 96.2 118.3 95.7Q117.5 95.2 117.1 94.4Q116.7 93.6 116.7 92.5Q116.7 91.4 117.1 90.6Q117.5 89.8 118.2 89.3Q119.0 88.8 119.9 88.8L119.9 88.8Q120.5 88.8 121.0 89.0Q121.6 89.2 122.0 89.6Q122.5 90.0 122.7 90.7Q123.0 91.4 123.0 92.4L123.0 92.4L123.0 92.8L117.9 92.8Q117.9 93.5 118.2 94.0L118.2 94.0Q118.4 94.6 118.9 94.9Q119.4 95.1 120.1 95.1L120.1 95.1Q120.5 95.1 120.8 95.0Q121.2 94.9 121.4 94.7Q121.7 94.4 121.8 94.0L121.8 94.0L122.9 94.3Q122.7 94.9 122.3 95.3Q121.9 95.7 121.4 95.9Q120.8 96.2 120.1 96.2ZM117.9 91.9L117.9 91.9L121.9 91.9Q121.8 91.4 121.6 91.0L121.6 91.0Q121.4 90.4 121.0 90.1Q120.6 89.8 119.9 89.8Q119.3 89.8 118.8 90.1Q118.4 90.5 118.1 91.0L118.1 91.0Q117.9 91.4 117.9 91.9ZM120.4 88.0L119.4 88.0L118.2 86.1L119.5 86.1L120.4 88.0ZM125.8 96L124.7 96L124.7 88.9L125.8 88.9L125.8 90.0L125.8 90.0Q126.0 89.5 126.5 89.1Q127.0 88.8 127.7 88.8L127.7 88.8Q127.8 88.8 128.0 88.8Q128.1 88.8 128.3 88.8L128.3 88.8L128.3 90.0Q128.2 90.0 128.0 89.9Q127.8 89.9 127.6 89.9L127.6 89.9Q127.1 89.9 126.7 90.1Q126.3 90.3 126.0 90.7Q125.8 91.1 125.8 91.6L125.8 91.6L125.8 96ZM132.5 96.2L132.5 96.2Q131.5 96.2 130.8 95.7Q130.0 95.2 129.6 94.4Q129.2 93.6 129.2 92.5Q129.2 91.4 129.6 90.6Q130.0 89.8 130.7 89.3Q131.4 88.8 132.4 88.8L132.4 88.8Q133.0 88.8 133.5 89.0Q134.1 89.2 134.5 89.6Q135.0 90.0 135.2 90.7Q135.5 91.4 135.5 92.4L135.5 92.4L135.5 92.8L130.4 92.8Q130.4 93.5 130.6 94.0L130.6 94.0Q130.9 94.6 131.4 94.9Q131.9 95.1 132.5 95.1L132.5 95.1Q133.0 95.1 133.3 95.0Q133.6 94.9 133.9 94.7Q134.1 94.4 134.3 94.0L134.3 94.0L135.4 94.3Q135.2 94.9 134.8 95.3Q134.4 95.7 133.8 95.9Q133.3 96.2 132.5 96.2ZM130.4 91.9L130.4 91.9L134.3 91.9Q134.3 91.4 134.1 91.0L134.1 91.0Q133.9 90.4 133.5 90.1Q133.0 89.8 132.4 89.8Q131.8 89.8 131.3 90.1Q130.8 90.5 130.6 91.0L130.6 91.0Q130.4 91.4 130.4 91.9Z M144.7 96.1L144.7 96.1Q143.5 96.1 142.6 95.5Q141.6 95.0 141.1 93.9Q140.6 92.8 140.6 91.3L140.6 91.3Q140.6 89.8 141.1 88.7Q141.6 87.6 142.6 87.0Q143.5 86.4 144.7 86.4L144.7 86.4Q145.5 86.4 146.1 86.6Q146.7 86.8 147.2 87.2Q147.8 87.6 148.1 88.2Q148.4 88.8 148.6 89.5L148.6 89.5L147.4 89.5Q147.3 89.0 147.0 88.7Q146.8 88.3 146.4 88.0Q146.1 87.8 145.6 87.7Q145.2 87.5 144.7 87.5L144.7 87.5Q143.9 87.5 143.2 88.0Q142.5 88.4 142.1 89.2Q141.7 90.1 141.7 91.3L141.7 91.3Q141.7 92.5 142.1 93.3Q142.5 94.2 143.2 94.6Q143.9 95.0 144.7 95.0L144.7 95.0Q145.2 95.0 145.6 94.9Q146.1 94.7 146.4 94.5Q146.8 94.2 147.0 93.9Q147.3 93.5 147.4 93.0L147.4 93.0L148.6 93.0Q148.4 93.7 148.1 94.3Q147.8 94.9 147.3 95.3Q146.7 95.7 146.1 95.9Q145.5 96.1 144.7 96.1ZM152.9 87.6L149.9 87.6L149.9 86.5L157.0 86.5L157.0 87.6L154.1 87.6L154.1 96L152.9 96L152.9 87.6ZM162.6 96.1L162.6 96.1Q161.4 96.1 160.5 95.5Q159.5 95.0 159.0 93.9Q158.4 92.8 158.4 91.3L158.4 91.3Q158.4 89.8 159.0 88.7Q159.5 87.6 160.5 87.0Q161.4 86.4 162.6 86.4L162.6 86.4Q163.9 86.4 164.8 87.0Q165.7 87.6 166.3 88.7Q166.8 89.8 166.8 91.3L166.8 91.3Q166.8 92.8 166.3 93.9Q165.7 95.0 164.8 95.5Q163.9 96.1 162.6 96.1ZM162.6 95.0L162.6 95.0Q163.5 95.0 164.2 94.6Q164.9 94.2 165.3 93.3Q165.7 92.5 165.7 91.3L165.7 91.3Q165.7 90.1 165.3 89.2Q164.9 88.4 164.2 88.0Q163.5 87.5 162.6 87.5L162.6 87.5Q161.8 87.5 161.1 88.0Q160.4 88.4 160.0 89.2Q159.6 90.1 159.6 91.3L159.6 91.3Q159.6 92.5 160.0 93.3Q160.4 94.1 161.1 94.6Q161.8 95.0 162.6 95.0Z M174.9 96.1L174.9 96.1Q174.0 96.1 173.3 95.8Q172.7 95.4 172.3 94.8Q171.9 94.3 171.9 93.5L171.9 93.5Q171.9 92.9 172.2 92.5Q172.4 92.0 172.9 91.6L172.9 91.6Q173.3 91.3 173.8 90.9L173.8 90.9Q173.7 90.7 173.6 90.6L173.6 90.6Q173.2 90.1 172.9 89.6Q172.7 89.2 172.7 88.6L172.7 88.6Q172.7 88.0 173.0 87.5Q173.3 87.0 173.8 86.7Q174.3 86.5 175.0 86.5L175.0 86.5Q175.7 86.5 176.2 86.7Q176.7 87.0 177.0 87.5Q177.3 87.9 177.3 88.5L177.3 88.5Q177.3 88.9 177.1 89.3Q177.0 89.7 176.7 90.0Q176.4 90.3 176.0 90.6L176.0 90.6L175.4 91.1L177.4 93.5Q177.5 93.4 177.5 93.2L177.5 93.2Q177.8 92.6 177.8 91.8L177.8 91.8L178.9 91.8Q178.9 92.8 178.7 93.4Q178.4 94.0 178.2 94.3L178.2 94.3Q178.1 94.4 178.1 94.4L178.1 94.4L179.4 96L178.1 96L177.4 95.2Q177.0 95.7 176.3 95.9L176.3 95.9Q175.6 96.1 174.9 96.1ZM176.7 94.4L174.5 91.7L174.2 92.0Q173.6 92.4 173.3 92.8Q173.1 93.1 173.1 93.6L173.1 93.6Q173.1 94.0 173.3 94.4Q173.5 94.7 173.9 94.9Q174.3 95.1 174.9 95.1L174.9 95.1Q175.4 95.1 175.9 94.9L175.9 94.9Q176.4 94.7 176.7 94.4L176.7 94.4ZM174.7 90.2L174.7 90.2L175.3 89.8Q175.5 89.7 175.7 89.5Q175.9 89.3 176.0 89.0Q176.2 88.8 176.2 88.5L176.2 88.5Q176.2 88.0 175.9 87.7Q175.6 87.4 175.0 87.4L175.0 87.4Q174.7 87.4 174.4 87.6Q174.1 87.7 174.0 88.0Q173.8 88.2 173.8 88.6L173.8 88.6Q173.8 88.9 174.0 89.3Q174.2 89.6 174.4 89.9L174.4 89.9Q174.6 90.1 174.7 90.2Z M186.9 87.6L183.9 87.6L183.9 86.5L191.1 86.5L191.1 87.6L188.1 87.6L188.1 96L186.9 96L186.9 87.6ZM195.7 96.2L195.7 96.2Q194.6 96.2 193.9 95.7Q193.1 95.2 192.7 94.4Q192.3 93.6 192.3 92.5Q192.3 91.4 192.7 90.6Q193.1 89.8 193.9 89.3Q194.6 88.8 195.5 88.8L195.5 88.8Q196.1 88.8 196.6 89.0Q197.2 89.2 197.6 89.6Q198.1 90.0 198.4 90.7Q198.6 91.4 198.6 92.4L198.6 92.4L198.6 92.8L193.5 92.8Q193.5 93.5 193.8 94.0L193.8 94.0Q194.0 94.6 194.5 94.9Q195.0 95.1 195.7 95.1L195.7 95.1Q196.1 95.1 196.4 95.0Q196.8 94.9 197.0 94.7Q197.3 94.4 197.4 94.0L197.4 94.0L198.5 94.3Q198.3 94.9 198.0 95.3Q197.6 95.7 197.0 95.9Q196.4 96.2 195.7 96.2ZM193.5 91.9L193.5 91.9L197.5 91.9Q197.4 91.4 197.3 91.0L197.3 91.0Q197.0 90.4 196.6 90.1Q196.2 89.8 195.5 89.8Q194.9 89.8 194.4 90.1Q194.0 90.5 193.7 91.0L193.7 91.0Q193.5 91.4 193.5 91.9ZM203.2 96.2L203.2 96.2Q202.2 96.2 201.5 95.7Q200.7 95.2 200.3 94.4Q199.9 93.6 199.9 92.5L199.9 92.5Q199.9 91.4 200.3 90.6Q200.7 89.7 201.5 89.3Q202.2 88.8 203.2 88.8L203.2 88.8Q203.7 88.8 204.1 88.9Q204.6 89.1 205.0 89.3Q205.3 89.6 205.6 89.9Q205.9 90.3 206.0 90.8L206.0 90.8L204.9 91.1Q204.9 90.8 204.7 90.6Q204.5 90.4 204.3 90.2Q204.1 90.0 203.8 89.9Q203.5 89.8 203.2 89.8L203.2 89.8Q202.4 89.8 202.0 90.2Q201.5 90.6 201.3 91.2Q201.1 91.8 201.1 92.5L201.1 92.5Q201.1 93.2 201.3 93.8Q201.5 94.4 202.0 94.8Q202.4 95.1 203.2 95.1L203.2 95.1Q203.5 95.1 203.8 95.0Q204.1 94.9 204.3 94.8Q204.6 94.6 204.7 94.3Q204.9 94.1 205.0 93.8L205.0 93.8L206.1 94.1Q205.9 94.6 205.6 95.0Q205.4 95.4 205.0 95.6Q204.6 95.9 204.1 96.0Q203.7 96.2 203.2 96.2ZM208.8 91.7L208.8 91.7L208.8 96L207.7 96L207.7 86.5L208.8 86.5L208.8 90.1Q209.1 89.5 209.6 89.2L209.6 89.2Q210.2 88.8 211.0 88.8L211.0 88.8Q211.7 88.8 212.2 89.1Q212.8 89.4 213.1 90.0Q213.4 90.6 213.4 91.5L213.4 91.5L213.4 96L212.2 96L212.2 91.6Q212.2 90.8 211.8 90.3Q211.4 89.8 210.6 89.8L210.6 89.8Q210.1 89.8 209.7 90.1Q209.3 90.3 209.1 90.7Q208.8 91.1 208.8 91.7Z M224.8 96L219.2 96L219.2 86.5L220.4 86.5L220.4 94.9L224.8 94.9L224.8 96ZM229.4 96.2L229.4 96.2Q228.3 96.2 227.6 95.7Q226.8 95.2 226.4 94.4Q226.0 93.6 226.0 92.5Q226.0 91.4 226.4 90.6Q226.8 89.8 227.6 89.3Q228.3 88.8 229.2 88.8L229.2 88.8Q229.8 88.8 230.3 89.0Q230.9 89.2 231.3 89.6Q231.8 90.0 232.1 90.7Q232.3 91.4 232.3 92.4L232.3 92.4L232.3 92.8L227.2 92.8Q227.2 93.5 227.5 94.0L227.5 94.0Q227.7 94.6 228.2 94.9Q228.7 95.1 229.4 95.1L229.4 95.1Q229.8 95.1 230.1 95.0Q230.5 94.9 230.7 94.7Q231.0 94.4 231.1 94.0L231.1 94.0L232.2 94.3Q232.0 94.9 231.7 95.3Q231.3 95.7 230.7 95.9Q230.1 96.2 229.4 96.2ZM227.2 91.9L227.2 91.9L231.2 91.9Q231.1 91.4 231.0 91.0L231.0 91.0Q230.7 90.4 230.3 90.1Q229.9 89.8 229.2 89.8Q228.6 89.8 228.1 90.1Q227.7 90.5 227.4 91.0L227.4 91.0Q227.2 91.4 227.2 91.9ZM236.0 96.2L236.0 96.2Q235.3 96.2 234.7 95.9Q234.2 95.7 233.9 95.2Q233.5 94.7 233.5 94.0L233.5 94.0Q233.5 93.4 233.8 93.0Q234.0 92.6 234.4 92.4Q234.8 92.2 235.3 92.1Q235.8 92.0 236.3 91.9L236.3 91.9Q236.9 91.8 237.3 91.8Q237.7 91.7 237.9 91.6Q238.1 91.5 238.1 91.2L238.1 91.2L238.1 91.2Q238.1 90.8 238.0 90.5Q237.8 90.1 237.5 90.0Q237.1 89.8 236.6 89.8L236.6 89.8Q236.1 89.8 235.8 90.0Q235.4 90.1 235.2 90.4Q234.9 90.6 234.8 90.9L234.8 90.9L233.7 90.5Q234.0 89.8 234.5 89.5Q234.9 89.1 235.5 89.0Q236.1 88.8 236.6 88.8L236.6 88.8Q237.0 88.8 237.4 88.9Q237.9 89.0 238.3 89.2Q238.7 89.5 239.0 90.0Q239.3 90.5 239.3 91.3L239.3 91.3L239.3 96L238.1 96L238.1 95.0L238.1 95.0Q237.9 95.3 237.7 95.5Q237.4 95.8 237.0 96.0Q236.6 96.2 236.0 96.2ZM236.1 95.2L236.1 95.2Q236.8 95.2 237.2 94.9Q237.7 94.7 237.9 94.3Q238.1 93.9 238.1 93.4L238.1 93.4L238.1 92.5Q238.0 92.5 237.8 92.6Q237.6 92.7 237.3 92.7Q237.0 92.8 236.7 92.8Q236.4 92.8 236.2 92.9L236.2 92.9Q235.8 92.9 235.5 93.0Q235.1 93.2 234.9 93.4Q234.7 93.6 234.7 94.0L234.7 94.0Q234.7 94.4 234.9 94.7Q235.1 94.9 235.4 95.0Q235.7 95.2 236.1 95.2ZM243.9 96.2L243.9 96.2Q243.0 96.2 242.4 95.7Q241.7 95.3 241.3 94.4Q240.9 93.6 240.9 92.5L240.9 92.5Q240.9 91.3 241.3 90.5Q241.7 89.7 242.4 89.3Q243.0 88.8 243.9 88.8L243.9 88.8Q244.6 88.8 245.0 89.0Q245.4 89.3 245.7 89.6Q245.9 89.8 246.0 90.0L246.0 90.0L246.1 90.0L246.1 86.5L247.2 86.5L247.2 96L246.1 96L246.1 94.9L246.0 94.9Q245.9 95.1 245.6 95.4Q245.4 95.7 245.0 95.9Q244.6 96.2 243.9 96.2ZM244.1 95.1L244.1 95.1Q244.7 95.1 245.2 94.8Q245.6 94.5 245.9 93.8Q246.1 93.2 246.1 92.5L246.1 92.5Q246.1 91.7 245.9 91.1Q245.6 90.5 245.2 90.2Q244.7 89.8 244.1 89.8L244.1 89.8Q243.4 89.8 243.0 90.2Q242.5 90.5 242.3 91.1Q242.1 91.7 242.1 92.5L242.1 92.5Q242.1 93.2 242.3 93.8Q242.5 94.4 243.0 94.8Q243.4 95.1 244.1 95.1Z M251.9 91.4L264.9 91.4L264.9 92.5L251.9 92.5L251.9 91.4Z M272.2 96.2L272.2 96.2Q271.3 96.2 270.6 95.7Q270.0 95.3 269.6 94.4Q269.2 93.6 269.2 92.5L269.2 92.5Q269.2 91.3 269.6 90.5Q270.0 89.7 270.6 89.3Q271.3 88.8 272.2 88.8L272.2 88.8Q272.9 88.8 273.3 89.0Q273.7 89.3 273.9 89.6Q274.1 89.8 274.3 90.0L274.3 90.0L274.3 90.0L274.3 86.5L275.5 86.5L275.5 96L274.4 96L274.4 94.9L274.3 94.9Q274.1 95.1 273.9 95.4Q273.7 95.7 273.3 95.9Q272.9 96.2 272.2 96.2ZM272.4 95.1L272.4 95.1Q273.0 95.1 273.5 94.8Q273.9 94.5 274.1 93.8Q274.4 93.2 274.4 92.5L274.4 92.5Q274.4 91.7 274.1 91.1Q273.9 90.5 273.5 90.2Q273.0 89.8 272.4 89.8L272.4 89.8Q271.7 89.8 271.2 90.2Q270.8 90.5 270.6 91.1Q270.4 91.7 270.4 92.5L270.4 92.5Q270.4 93.2 270.6 93.8Q270.8 94.4 271.3 94.8Q271.7 95.1 272.4 95.1ZM278.6 96L277.5 96L277.5 88.9L278.6 88.9L278.6 96ZM278.1 87.7L278.1 87.7Q277.8 87.7 277.5 87.5Q277.3 87.3 277.3 87.0L277.3 87.0Q277.3 86.7 277.5 86.4Q277.8 86.2 278.1 86.2L278.1 86.2Q278.4 86.2 278.6 86.4Q278.9 86.7 278.9 87.0L278.9 87.0Q278.9 87.3 278.6 87.5Q278.4 87.7 278.1 87.7ZM283.1 96.2L283.1 96.2Q282.3 96.2 281.8 95.9Q281.2 95.7 280.8 95.3Q280.5 94.9 280.3 94.3L280.3 94.3L281.4 94.0Q281.6 94.6 282.0 94.9Q282.4 95.1 283.0 95.1L283.0 95.1Q283.8 95.1 284.2 94.8Q284.7 94.5 284.7 94.1L284.7 94.1Q284.7 93.7 284.4 93.5Q284.2 93.2 283.6 93.1L283.6 93.1L282.4 92.8Q281.5 92.6 281.0 92.1Q280.5 91.6 280.5 90.9L280.5 90.9Q280.5 90.3 280.9 89.8Q281.2 89.3 281.8 89.1Q282.4 88.8 283.2 88.8L283.2 88.8Q283.9 88.8 284.4 89.0Q284.9 89.3 285.2 89.6Q285.6 90.0 285.7 90.5L285.7 90.5L284.7 90.8Q284.5 90.4 284.2 90.1Q283.9 89.8 283.2 89.8L283.2 89.8Q282.5 89.8 282.1 90.1Q281.7 90.4 281.7 90.8L281.7 90.8Q281.7 91.2 282.0 91.4Q282.3 91.7 282.9 91.8L282.9 91.8L284.0 92.1Q284.9 92.3 285.4 92.8Q285.9 93.3 285.9 94.0L285.9 94.0Q285.9 94.6 285.5 95.1Q285.2 95.6 284.5 95.9Q283.9 96.2 283.1 96.2ZM288.6 98.7L287.5 98.7L287.5 88.9L288.6 88.9L288.6 90.0L288.7 90.0Q288.9 89.8 289.1 89.6Q289.3 89.3 289.7 89.0Q290.1 88.8 290.8 88.8L290.8 88.8Q291.7 88.8 292.4 89.3Q293.0 89.7 293.4 90.5Q293.8 91.3 293.8 92.5L293.8 92.5Q293.8 93.6 293.4 94.4Q293.0 95.3 292.4 95.7Q291.7 96.2 290.8 96.2L290.8 96.2Q290.1 96.2 289.7 95.9Q289.3 95.7 289.1 95.4Q288.9 95.1 288.7 94.9L288.7 94.9L288.6 94.9L288.6 98.7ZM290.6 95.1L290.6 95.1Q291.3 95.1 291.7 94.8Q292.2 94.4 292.4 93.8Q292.6 93.2 292.6 92.5L292.6 92.5Q292.6 91.7 292.4 91.1Q292.2 90.5 291.8 90.2Q291.3 89.8 290.6 89.8L290.6 89.8Q290.0 89.8 289.5 90.2Q289.1 90.5 288.9 91.1Q288.6 91.7 288.6 92.5L288.6 92.5Q288.6 93.2 288.9 93.8Q289.1 94.5 289.5 94.8Q290.0 95.1 290.6 95.1ZM298.4 96.2L298.4 96.2Q297.4 96.2 296.7 95.7Q295.9 95.2 295.5 94.4Q295.1 93.6 295.1 92.5L295.1 92.5Q295.1 91.4 295.5 90.6Q295.9 89.7 296.7 89.3Q297.4 88.8 298.4 88.8L298.4 88.8Q299.3 88.8 300.1 89.3Q300.8 89.7 301.2 90.6Q301.6 91.4 301.6 92.5L301.6 92.5Q301.6 93.6 301.2 94.4Q300.8 95.2 300.1 95.7Q299.3 96.2 298.4 96.2ZM298.4 95.1L298.4 95.1Q299.1 95.1 299.5 94.8Q300.0 94.4 300.2 93.8Q300.4 93.2 300.4 92.5L300.4 92.5Q300.4 91.8 300.2 91.2Q300.0 90.6 299.5 90.2Q299.1 89.8 298.4 89.8L298.4 89.8Q297.6 89.8 297.2 90.2Q296.7 90.6 296.5 91.2Q296.3 91.8 296.3 92.5L296.3 92.5Q296.3 93.2 296.5 93.8Q296.7 94.4 297.2 94.8Q297.6 95.1 298.4 95.1ZM304.4 91.7L304.4 91.7L304.4 96L303.3 96L303.3 88.9L304.4 88.9L304.4 90.2Q304.7 89.6 305.1 89.2L305.1 89.2Q305.7 88.8 306.5 88.8L306.5 88.8Q307.3 88.8 307.8 89.1Q308.3 89.4 308.6 90.0Q308.9 90.6 308.9 91.5L308.9 91.5L308.9 96L307.8 96L307.8 91.6Q307.8 90.8 307.4 90.3Q306.9 89.8 306.2 89.8L306.2 89.8Q305.7 89.8 305.3 90.1Q304.9 90.3 304.6 90.7Q304.4 91.1 304.4 91.7ZM312.1 96L310.9 96L310.9 88.9L312.1 88.9L312.1 96ZM311.5 87.7L311.5 87.7Q311.2 87.7 311.0 87.5Q310.7 87.3 310.7 87.0L310.7 87.0Q310.7 86.7 311.0 86.4Q311.2 86.2 311.5 86.2L311.5 86.2Q311.9 86.2 312.1 86.4Q312.3 86.7 312.3 87.0L312.3 87.0Q312.3 87.3 312.1 87.5Q311.9 87.7 311.5 87.7ZM317.4 96.2L317.4 96.2Q316.7 96.2 316.3 95.9Q315.9 95.7 315.7 95.4Q315.4 95.1 315.3 94.9L315.3 94.9L315.2 94.9L315.2 96L314.1 96L314.1 86.5L315.2 86.5L315.2 90.0L315.3 90.0Q315.4 89.8 315.7 89.6Q315.9 89.3 316.3 89.0Q316.7 88.8 317.4 88.8L317.4 88.8Q318.3 88.8 318.9 89.3Q319.6 89.7 320.0 90.5Q320.4 91.3 320.4 92.5L320.4 92.5Q320.4 93.6 320.0 94.4Q319.6 95.3 318.9 95.7Q318.3 96.2 317.4 96.2ZM317.2 95.1L317.2 95.1Q317.9 95.1 318.3 94.8Q318.8 94.4 319.0 93.8Q319.2 93.2 319.2 92.5L319.2 92.5Q319.2 91.7 319.0 91.1Q318.8 90.5 318.3 90.2Q317.9 89.8 317.2 89.8L317.2 89.8Q316.6 89.8 316.1 90.2Q315.7 90.5 315.4 91.1Q315.2 91.7 315.2 92.5L315.2 92.5Q315.2 93.2 315.4 93.8Q315.7 94.5 316.1 94.8Q316.6 95.1 317.2 95.1ZM322.1 86.5L323.2 86.5L323.2 96L322.1 96L322.1 86.5ZM328.2 96.2L328.2 96.2Q327.2 96.2 326.4 95.7Q325.7 95.2 325.3 94.4Q324.9 93.6 324.9 92.5Q324.9 91.4 325.3 90.6Q325.6 89.8 326.4 89.3Q327.1 88.8 328.0 88.8L328.0 88.8Q328.6 88.8 329.2 89.0Q329.7 89.2 330.2 89.6Q330.6 90.0 330.9 90.7Q331.1 91.4 331.1 92.4L331.1 92.4L331.1 92.8L326.0 92.8Q326.0 93.5 326.3 94.0L326.3 94.0Q326.6 94.6 327.0 94.9Q327.5 95.1 328.2 95.1L328.2 95.1Q328.6 95.1 329.0 95.0Q329.3 94.9 329.5 94.7Q329.8 94.4 329.9 94.0L329.9 94.0L331.0 94.3Q330.9 94.9 330.5 95.3Q330.1 95.7 329.5 95.9Q328.9 96.2 328.2 96.2ZM326.0 91.9L326.0 91.9L330.0 91.9Q329.9 91.4 329.8 91.0L329.8 91.0Q329.6 90.4 329.1 90.1Q328.7 89.8 328.0 89.8Q327.4 89.8 327.0 90.1Q326.5 90.5 326.3 91.0L326.3 91.0Q326.0 91.4 326.0 91.9Z M339.4 96.2L339.4 96.2Q338.4 96.2 337.6 95.7Q336.9 95.2 336.5 94.4Q336.1 93.6 336.1 92.5Q336.1 91.4 336.5 90.6Q336.9 89.8 337.6 89.3Q338.3 88.8 339.3 88.8L339.3 88.8Q339.8 88.8 340.4 89.0Q340.9 89.2 341.4 89.6Q341.8 90.0 342.1 90.7Q342.4 91.4 342.4 92.4L342.4 92.4L342.4 92.8L337.2 92.8Q337.3 93.5 337.5 94.0L337.5 94.0Q337.8 94.6 338.3 94.9Q338.8 95.1 339.4 95.1L339.4 95.1Q339.8 95.1 340.2 95.0Q340.5 94.9 340.8 94.7Q341.0 94.4 341.2 94.0L341.2 94.0L342.3 94.3Q342.1 94.9 341.7 95.3Q341.3 95.7 340.7 95.9Q340.1 96.2 339.4 96.2ZM337.3 91.9L337.3 91.9L341.2 91.9Q341.2 91.4 341.0 91.0L341.0 91.0Q340.8 90.4 340.4 90.1Q339.9 89.8 339.3 89.8Q338.6 89.8 338.2 90.1Q337.7 90.5 337.5 91.0L337.5 91.0Q337.3 91.4 337.3 91.9ZM345.2 91.7L345.2 91.7L345.2 96L344.0 96L344.0 88.9L345.1 88.9L345.1 90.2Q345.4 89.6 345.9 89.2L345.9 89.2Q346.5 88.8 347.3 88.8L347.3 88.8Q348.0 88.8 348.5 89.1Q349.1 89.4 349.4 90.0Q349.7 90.6 349.7 91.5L349.7 91.5L349.7 96L348.5 96L348.5 91.6Q348.5 90.8 348.1 90.3Q347.7 89.8 346.9 89.8L346.9 89.8Q346.4 89.8 346.0 90.1Q345.6 90.3 345.4 90.7Q345.2 91.1 345.2 91.7Z M359.3 96.1L359.3 96.1Q358.1 96.1 357.2 95.5Q356.2 95.0 355.7 93.9Q355.1 92.8 355.1 91.3L355.1 91.3Q355.1 89.8 355.7 88.7Q356.2 87.6 357.2 87.0Q358.1 86.4 359.3 86.4L359.3 86.4Q360.0 86.4 360.7 86.6Q361.3 86.8 361.8 87.2Q362.3 87.6 362.7 88.2Q363.0 88.8 363.1 89.5L363.1 89.5L361.9 89.5Q361.8 89.0 361.6 88.7Q361.3 88.3 361.0 88.0Q360.6 87.8 360.2 87.7Q359.8 87.5 359.3 87.5L359.3 87.5Q358.5 87.5 357.8 88.0Q357.1 88.4 356.7 89.2Q356.3 90.1 356.3 91.3L356.3 91.3Q356.3 92.5 356.7 93.3Q357.1 94.2 357.8 94.6Q358.5 95.0 359.3 95.0L359.3 95.0Q359.8 95.0 360.2 94.9Q360.6 94.7 361.0 94.5Q361.3 94.2 361.6 93.9Q361.8 93.5 361.9 93.0L361.9 93.0L363.1 93.0Q363.0 93.7 362.7 94.3Q362.3 94.9 361.8 95.3Q361.3 95.7 360.7 95.9Q360.0 96.1 359.3 96.1ZM367.9 96L367.9 96L365.0 96L365.0 86.5L368.1 86.5Q369.4 86.5 370.4 87.1Q371.4 87.7 371.9 88.7Q372.5 89.8 372.5 91.3L372.5 91.3Q372.5 92.7 371.9 93.8Q371.4 94.9 370.4 95.4Q369.4 96 367.9 96ZM366.2 87.6L366.2 94.9L367.9 94.9Q369.0 94.9 369.8 94.5Q370.5 94.1 370.9 93.2Q371.3 92.4 371.3 91.3L371.3 91.3Q371.3 90.1 370.9 89.3Q370.5 88.5 369.8 88.0Q369.1 87.6 368.0 87.6L368.0 87.6L366.2 87.6ZM374.4 86.5L375.6 86.5L375.6 96L374.4 96L374.4 86.5Z "/></g><mask id="satori_om-id-1-1"><rect x="514" y="60" width="350" height="34" fill="#fff" mask="url(#satori_om-id)"/></mask><defs><clipPath id="satori_bc-id-1-1-0" clip-path="url(#satori_cp-id)"><path x="524" y="60" width="67" height="34" d="M534,60 h47 a10,10 0 0 1 10,10 v14 a10,10 0 0 1 -10,10 h-47 a10,10 0 0 1 -10,-10 v-14 a10,10 0 0 1 10,-10"/></clipPath></defs><mask id="satori_om-id-1-1-0"><rect x="525" y="61" width="65" height="32" fill="#fff" mask="url(#satori_om-id)"/><path width="67" height="34" fill="none" stroke="#000" stroke-width="2" d="M526.929,62.929 A10,10 0 0 1 534,60 h47 a10,10 0 0 1 10,10 v14 a10,10 0 0 1 -10,10 h-47 a10,10 0 0 1 -10,-10 v-14 A10,10 0 0 1 526.929,62.929"/></mask><path x="524" y="60" width="67" height="34" fill="#34d39914" d="M534,60 h47 a10,10 0 0 1 10,10 v14 a10,10 0 0 1 -10,10 h-47 a10,10 0 0 1 -10,-10 v-14 a10,10 0 0 1 10,-10" clip-path="url(#satori_cp-id)" mask="url(#satori_om-id)"/><path width="67" height="34" clip-path="url(#satori_bc-id-1-1-0)" fill="none" stroke="#34d39944" stroke-width="2" d="M526.929,62.929 A10,10 0 0 1 534,60 h47 a10,10 0 0 1 10,10 v14 a10,10 0 0 1 -10,10 h-47 a10,10 0 0 1 -10,-10 v-14 A10,10 0 0 1 526.929,62.929"/><g mask="url(#satori_om-id)" clip-path="url(#satori_cp-id)"><path fill="#a7f3d0" d="M548.0 82L542.1 82L542.1 72.5L547.9 72.5L547.9 73.6L543.3 73.6L543.3 76.7L547.6 76.7L547.6 77.8L543.3 77.8L543.3 80.9L548.0 80.9L548.0 82ZM551.0 82L549.8 82L549.8 74.9L550.9 74.9L550.9 76.2Q551.1 75.8 551.3 75.5L551.3 75.5Q551.6 75.2 552.0 75.0Q552.5 74.8 552.9 74.8L552.9 74.8Q553.7 74.8 554.2 75.3L554.2 75.3Q554.6 75.6 554.7 76.2L554.7 76.2Q554.9 75.9 555.1 75.6L555.1 75.6Q555.4 75.2 555.9 75.0Q556.4 74.8 557.0 74.8L557.0 74.8Q557.6 74.8 558.1 75.0Q558.6 75.3 558.9 75.8Q559.2 76.4 559.2 77.2L559.2 77.2L559.2 82L558.1 82L558.1 77.2Q558.1 76.5 557.6 76.1Q557.2 75.8 556.6 75.8L556.6 75.8Q556.1 75.8 555.8 76.0Q555.5 76.2 555.3 76.6Q555.1 76.9 555.1 77.4L555.1 77.4L555.1 82L553.9 82L553.9 77.1Q553.9 76.5 553.5 76.2Q553.1 75.8 552.5 75.8L552.5 75.8Q552.1 75.8 551.8 76.0Q551.4 76.2 551.2 76.6Q551.0 77.0 551.0 77.5L551.0 77.5L551.0 82ZM563.2 82.2L563.2 82.2Q562.5 82.2 562.0 81.9Q561.4 81.7 561.1 81.2Q560.8 80.7 560.8 80.0L560.8 80.0Q560.8 79.4 561.0 79.0Q561.3 78.6 561.7 78.4Q562.1 78.2 562.6 78.1Q563.0 78.0 563.5 77.9L563.5 77.9Q564.2 77.8 564.6 77.8Q565.0 77.7 565.2 77.6Q565.4 77.5 565.4 77.2L565.4 77.2L565.4 77.2Q565.4 76.8 565.2 76.5Q565.0 76.1 564.7 76.0Q564.4 75.8 563.9 75.8L563.9 75.8Q563.4 75.8 563.0 76.0Q562.6 76.1 562.4 76.4Q562.2 76.6 562.1 76.9L562.1 76.9L561.0 76.5Q561.2 75.8 561.7 75.5Q562.2 75.1 562.7 75.0Q563.3 74.8 563.8 74.8L563.8 74.8Q564.2 74.8 564.6 74.9Q565.1 75.0 565.5 75.2Q565.9 75.5 566.2 76.0Q566.5 76.5 566.5 77.3L566.5 77.3L566.5 82L565.4 82L565.4 81.0L565.3 81.0Q565.2 81.3 564.9 81.5Q564.6 81.8 564.2 82.0Q563.8 82.2 563.2 82.2ZM563.4 81.2L563.4 81.2Q564.0 81.2 564.5 80.9Q564.9 80.7 565.1 80.3Q565.4 79.9 565.4 79.4L565.4 79.4L565.4 78.5Q565.3 78.5 565.1 78.6Q564.8 78.7 564.5 78.7Q564.2 78.8 563.9 78.8Q563.6 78.8 563.5 78.9L563.5 78.9Q563.1 78.9 562.7 79.0Q562.4 79.2 562.1 79.4Q561.9 79.6 561.9 80.0L561.9 80.0Q561.9 80.4 562.1 80.7Q562.3 80.9 562.6 81.0Q563.0 81.2 563.4 81.2ZM569.6 82L568.5 82L568.5 74.9L569.6 74.9L569.6 82ZM569.1 73.7L569.1 73.7Q568.8 73.7 568.5 73.5Q568.3 73.3 568.3 73.0L568.3 73.0Q568.3 72.7 568.5 72.4Q568.8 72.2 569.1 72.2L569.1 72.2Q569.4 72.2 569.6 72.4Q569.9 72.7 569.9 73.0L569.9 73.0Q569.9 73.3 569.6 73.5Q569.4 73.7 569.1 73.7ZM571.7 72.5L572.8 72.5L572.8 82L571.7 82L571.7 72.5Z "/></g><defs><clipPath id="satori_bc-id-1-1-1" clip-path="url(#satori_cp-id)"><path x="601" y="60" width="140" height="34" d="M611,60 h120 a10,10 0 0 1 10,10 v14 a10,10 0 0 1 -10,10 h-120 a10,10 0 0 1 -10,-10 v-14 a10,10 0 0 1 10,-10"/></clipPath></defs><mask id="satori_om-id-1-1-1"><rect x="602" y="61" width="138" height="32" fill="#fff" mask="url(#satori_om-id)"/><path width="140" height="34" fill="none" stroke="#000" stroke-width="2" d="M603.929,62.929 A10,10 0 0 1 611,60 h120 a10,10 0 0 1 10,10 v14 a10,10 0 0 1 -10,10 h-120 a10,10 0 0 1 -10,-10 v-14 A10,10 0 0 1 603.929,62.929"/></mask><path x="601" y="60" width="140" height="34" fill="#22d3ee14" d="M611,60 h120 a10,10 0 0 1 10,10 v14 a10,10 0 0 1 -10,10 h-120 a10,10 0 0 1 -10,-10 v-14 a10,10 0 0 1 10,-10" clip-path="url(#satori_cp-id)" mask="url(#satori_om-id)"/><path width="140" height="34" clip-path="url(#satori_bc-id-1-1-1)" fill="none" stroke="#22d3ee44" stroke-width="2" d="M603.929,62.929 A10,10 0 0 1 611,60 h120 a10,10 0 0 1 10,10 v14 a10,10 0 0 1 -10,10 h-120 a10,10 0 0 1 -10,-10 v-14 A10,10 0 0 1 603.929,62.929"/><g mask="url(#satori_om-id)" clip-path="url(#satori_cp-id)"><path fill="#a5f3fc" d="M620.1 82L619.0 82L619.0 74.9L620.1 74.9L620.1 82ZM619.6 73.7L619.6 73.7Q619.3 73.7 619.0 73.5Q618.8 73.3 618.8 73.0L618.8 73.0Q618.8 72.7 619.0 72.4Q619.3 72.2 619.6 72.2L619.6 72.2Q619.9 72.2 620.1 72.4Q620.4 72.7 620.4 73.0L620.4 73.0Q620.4 73.3 620.1 73.5Q619.9 73.7 619.6 73.7ZM623.3 77.7L623.3 77.7L623.3 82L622.2 82L622.2 74.9L623.2 74.9L623.3 76.2Q623.6 75.6 624.0 75.2L624.0 75.2Q624.6 74.8 625.4 74.8L625.4 74.8Q626.1 74.8 626.7 75.1Q627.2 75.4 627.5 76.0Q627.8 76.6 627.8 77.5L627.8 77.5L627.8 82L626.7 82L626.7 77.6Q626.7 76.8 626.3 76.3Q625.8 75.8 625.1 75.8L625.1 75.8Q624.6 75.8 624.2 76.1Q623.8 76.3 623.5 76.7Q623.3 77.1 623.3 77.7ZM632.2 72.1L633.2 72.1L630.2 83.4L629.1 83.4L632.2 72.1ZM635.9 82L634.7 82L634.7 72.5L635.9 72.5L635.9 76.6L640.8 76.6L640.8 72.5L642.0 72.5L642.0 82L640.8 82L640.8 77.7L635.9 77.7L635.9 82ZM646.2 82.2L646.2 82.2Q645.5 82.2 644.9 81.9Q644.4 81.7 644.1 81.2Q643.7 80.7 643.7 80.0L643.7 80.0Q643.7 79.4 644.0 79.0Q644.2 78.6 644.6 78.4Q645.0 78.2 645.5 78.1Q646.0 78.0 646.5 77.9L646.5 77.9Q647.1 77.8 647.5 77.8Q647.9 77.7 648.1 77.6Q648.3 77.5 648.3 77.2L648.3 77.2L648.3 77.2Q648.3 76.8 648.2 76.5Q648.0 76.1 647.7 76.0Q647.3 75.8 646.8 75.8L646.8 75.8Q646.3 75.8 646.0 76.0Q645.6 76.1 645.4 76.4Q645.2 76.6 645.0 76.9L645.0 76.9L643.9 76.5Q644.2 75.8 644.7 75.5Q645.1 75.1 645.7 75.0Q646.3 74.8 646.8 74.8L646.8 74.8Q647.2 74.8 647.6 74.9Q648.1 75.0 648.5 75.2Q648.9 75.5 649.2 76.0Q649.5 76.5 649.5 77.3L649.5 77.3L649.5 82L648.3 82L648.3 81.0L648.3 81.0Q648.2 81.3 647.9 81.5Q647.6 81.8 647.2 82.0Q646.8 82.2 646.2 82.2ZM646.4 81.2L646.4 81.2Q647.0 81.2 647.4 80.9Q647.9 80.7 648.1 80.3Q648.3 79.9 648.3 79.4L648.3 79.4L648.3 78.5Q648.3 78.5 648.0 78.6Q647.8 78.7 647.5 78.7Q647.2 78.8 646.9 78.8Q646.6 78.8 646.5 78.9L646.5 78.9Q646.0 78.9 645.7 79.0Q645.3 79.2 645.1 79.4Q644.9 79.6 644.9 80.0L644.9 80.0Q644.9 80.4 645.1 80.7Q645.3 80.9 645.6 81.0Q645.9 81.2 646.4 81.2ZM653.9 82.2L653.9 82.2Q653.2 82.2 652.6 81.9Q652.0 81.7 651.7 81.3Q651.3 80.9 651.2 80.3L651.2 80.3L652.2 80.0Q652.4 80.6 652.8 80.9Q653.2 81.1 653.9 81.1L653.9 81.1Q654.6 81.1 655.1 80.8Q655.5 80.5 655.5 80.1L655.5 80.1Q655.5 79.7 655.2 79.5Q655.0 79.2 654.5 79.1L654.5 79.1L653.3 78.8Q652.3 78.6 651.8 78.1Q651.4 77.6 651.4 76.9L651.4 76.9Q651.4 76.3 651.7 75.8Q652.1 75.3 652.7 75.1Q653.2 74.8 654.0 74.8L654.0 74.8Q654.7 74.8 655.2 75.0Q655.8 75.3 656.1 75.6Q656.4 76.0 656.6 76.5L656.6 76.5L655.5 76.8Q655.4 76.4 655.0 76.1Q654.7 75.8 654.0 75.8L654.0 75.8Q653.4 75.8 653.0 76.1Q652.5 76.4 652.5 76.8L652.5 76.8Q652.5 77.2 652.8 77.4Q653.1 77.7 653.7 77.8L653.7 77.8L654.8 78.1Q655.8 78.3 656.2 78.8Q656.7 79.3 656.7 80.0L656.7 80.0Q656.7 80.6 656.3 81.1Q656.0 81.6 655.4 81.9Q654.7 82.2 653.9 82.2ZM660.8 82.2L660.8 82.2Q660.0 82.2 659.5 81.9Q658.9 81.7 658.5 81.3Q658.1 80.9 658.0 80.3L658.0 80.3L659.1 80.0Q659.3 80.6 659.7 80.9Q660.1 81.1 660.7 81.1L660.7 81.1Q661.5 81.1 661.9 80.8Q662.4 80.5 662.4 80.1L662.4 80.1Q662.4 79.7 662.1 79.5Q661.8 79.2 661.3 79.1L661.3 79.1L660.1 78.8Q659.2 78.6 658.7 78.1Q658.2 77.6 658.2 76.9L658.2 76.9Q658.2 76.3 658.6 75.8Q658.9 75.3 659.5 75.1Q660.1 74.8 660.9 74.8L660.9 74.8Q661.6 74.8 662.1 75.0Q662.6 75.3 662.9 75.6Q663.3 76.0 663.4 76.5L663.4 76.5L662.4 76.8Q662.2 76.4 661.9 76.1Q661.6 75.8 660.9 75.8L660.9 75.8Q660.2 75.8 659.8 76.1Q659.4 76.4 659.4 76.8L659.4 76.8Q659.4 77.2 659.7 77.4Q660.0 77.7 660.6 77.8L660.6 77.8L661.7 78.1Q662.6 78.3 663.1 78.8Q663.6 79.3 663.6 80.0L663.6 80.0Q663.6 80.6 663.2 81.1Q662.8 81.6 662.2 81.9Q661.6 82.2 660.8 82.2ZM667.2 82.2L667.2 82.2Q666.5 82.2 666.0 81.9Q665.4 81.7 665.1 81.2Q664.8 80.7 664.8 80.0L664.8 80.0Q664.8 79.4 665.0 79.0Q665.3 78.6 665.7 78.4Q666.1 78.2 666.5 78.1Q667.0 78.0 667.5 77.9L667.5 77.9Q668.2 77.8 668.6 77.8Q669.0 77.7 669.2 77.6Q669.4 77.5 669.4 77.2L669.4 77.2L669.4 77.2Q669.4 76.8 669.2 76.5Q669.0 76.1 668.7 76.0Q668.4 75.8 667.9 75.8L667.9 75.8Q667.4 75.8 667.0 76.0Q666.6 76.1 666.4 76.4Q666.2 76.6 666.1 76.9L666.1 76.9L665.0 76.5Q665.2 75.8 665.7 75.5Q666.2 75.1 666.7 75.0Q667.3 74.8 667.8 74.8L667.8 74.8Q668.2 74.8 668.6 74.9Q669.1 75.0 669.5 75.2Q669.9 75.5 670.2 76.0Q670.5 76.5 670.5 77.3L670.5 77.3L670.5 82L669.4 82L669.4 81.0L669.3 81.0Q669.2 81.3 668.9 81.5Q668.6 81.8 668.2 82.0Q667.8 82.2 667.2 82.2ZM667.4 81.2L667.4 81.2Q668.0 81.2 668.5 80.9Q668.9 80.7 669.1 80.3Q669.4 79.9 669.4 79.4L669.4 79.4L669.4 78.5Q669.3 78.5 669.0 78.6Q668.8 78.7 668.5 78.7Q668.2 78.8 667.9 78.8Q667.6 78.8 667.5 78.9L667.5 78.9Q667.1 78.9 666.7 79.0Q666.4 79.2 666.1 79.4Q665.9 79.6 665.9 80.0L665.9 80.0Q665.9 80.4 666.1 80.7Q666.3 80.9 666.6 81.0Q667.0 81.2 667.4 81.2ZM673.6 77.7L673.6 77.7L673.6 82L672.5 82L672.5 74.9L673.6 74.9L673.6 76.2Q673.9 75.6 674.4 75.2L674.4 75.2Q675.0 74.8 675.8 74.8L675.8 74.8Q676.5 74.8 677.0 75.1Q677.6 75.4 677.9 76.0Q678.2 76.6 678.2 77.5L678.2 77.5L678.2 82L677.0 82L677.0 77.6Q677.0 76.8 676.6 76.3Q676.2 75.8 675.4 75.8L675.4 75.8Q674.9 75.8 674.5 76.1Q674.1 76.3 673.9 76.7Q673.6 77.1 673.6 77.7ZM680.1 77.4L684.2 77.4L684.2 78.5L680.1 78.5L680.1 77.4ZM686.8 82L685.5 82L688.9 72.5L690.3 72.5L693.8 82L692.5 82L691.6 79.4L687.7 79.4L686.8 82ZM688.1 78.3L691.2 78.3L690.5 76.4Q690.3 75.9 690.1 75.1L690.1 75.1Q689.9 74.4 689.6 73.5L689.6 73.5Q689.3 74.5 689.1 75.1L689.1 75.1Q688.9 75.9 688.7 76.4L688.7 76.4L688.1 78.3ZM696.3 82L695.1 82L695.1 74.9L696.3 74.9L696.3 82ZM695.7 73.7L695.7 73.7Q695.4 73.7 695.1 73.5Q694.9 73.3 694.9 73.0L694.9 73.0Q694.9 72.7 695.1 72.4Q695.4 72.2 695.7 72.2L695.7 72.2Q696.0 72.2 696.3 72.4Q696.5 72.7 696.5 73.0L696.5 73.0Q696.5 73.3 696.3 73.5Q696.0 73.7 695.7 73.7ZM700.9 82.2L700.9 82.2Q700.1 82.2 699.4 81.7Q698.7 81.3 698.3 80.4Q697.9 79.6 697.9 78.5L697.9 78.5Q697.9 77.3 698.3 76.5Q698.7 75.7 699.4 75.3Q700.1 74.8 700.9 74.8L700.9 74.8Q701.6 74.8 702.0 75.0Q702.4 75.3 702.7 75.6Q702.9 75.8 703.0 76.0L703.0 76.0L703.1 76.0L703.1 72.5L704.2 72.5L704.2 82L703.1 82L703.1 80.9L703.0 80.9Q702.9 81.1 702.7 81.4Q702.4 81.7 702.0 81.9Q701.6 82.2 700.9 82.2ZM701.1 81.1L701.1 81.1Q701.8 81.1 702.2 80.8Q702.6 80.5 702.9 79.8Q703.1 79.2 703.1 78.5L703.1 78.5Q703.1 77.7 702.9 77.1Q702.7 76.5 702.2 76.2Q701.8 75.8 701.1 75.8L701.1 75.8Q700.4 75.8 700.0 76.2Q699.5 76.5 699.3 77.1Q699.1 77.7 699.1 78.5L699.1 78.5Q699.1 79.2 699.3 79.8Q699.5 80.4 700.0 80.8Q700.4 81.1 701.1 81.1ZM707.4 82L706.2 82L706.2 74.9L707.4 74.9L707.4 82ZM706.8 73.7L706.8 73.7Q706.5 73.7 706.3 73.5Q706.0 73.3 706.0 73.0L706.0 73.0Q706.0 72.7 706.3 72.4Q706.5 72.2 706.8 72.2L706.8 72.2Q707.1 72.2 707.4 72.4Q707.6 72.7 707.6 73.0L707.6 73.0Q707.6 73.3 707.4 73.5Q707.1 73.7 706.8 73.7ZM712.7 82.2L712.7 82.2Q712.0 82.2 711.6 81.9Q711.2 81.7 711.0 81.4Q710.7 81.1 710.6 80.9L710.6 80.9L710.5 80.9L710.5 82L709.4 82L709.4 72.5L710.5 72.5L710.5 76.0L710.6 76.0Q710.7 75.8 711.0 75.6Q711.2 75.3 711.6 75.0Q712.0 74.8 712.7 74.8L712.7 74.8Q713.6 74.8 714.2 75.3Q714.9 75.7 715.3 76.5Q715.7 77.3 715.7 78.5L715.7 78.5Q715.7 79.6 715.3 80.4Q714.9 81.3 714.2 81.7Q713.6 82.2 712.7 82.2ZM712.5 81.1L712.5 81.1Q713.2 81.1 713.6 80.8Q714.1 80.4 714.3 79.8Q714.5 79.2 714.5 78.5L714.5 78.5Q714.5 77.7 714.3 77.1Q714.1 76.5 713.6 76.2Q713.2 75.8 712.5 75.8L712.5 75.8Q711.9 75.8 711.4 76.2Q711.0 76.5 710.7 77.1Q710.5 77.7 710.5 78.5L710.5 78.5Q710.5 79.2 710.7 79.8Q711.0 80.5 711.4 80.8Q711.9 81.1 712.5 81.1ZM720.3 82.2L720.3 82.2Q719.3 82.2 718.6 81.7Q717.8 81.2 717.4 80.4Q717.0 79.6 717.0 78.5Q717.0 77.4 717.4 76.6Q717.8 75.8 718.5 75.3Q719.2 74.8 720.2 74.8L720.2 74.8Q720.8 74.8 721.3 75.0Q721.9 75.2 722.3 75.6Q722.8 76.0 723.0 76.7Q723.3 77.4 723.3 78.4L723.3 78.4L723.3 78.8L718.2 78.8Q718.2 79.5 718.4 80.0L718.4 80.0Q718.7 80.6 719.2 80.9Q719.7 81.1 720.3 81.1L720.3 81.1Q720.8 81.1 721.1 81.0Q721.4 80.9 721.7 80.7Q721.9 80.4 722.1 80.0L722.1 80.0L723.2 80.3Q723.0 80.9 722.6 81.3Q722.2 81.7 721.6 81.9Q721.1 82.2 720.3 82.2ZM718.2 77.9L718.2 77.9L722.1 77.9Q722.1 77.4 721.9 77.0L721.9 77.0Q721.7 76.4 721.3 76.1Q720.8 75.8 720.2 75.8Q719.6 75.8 719.1 76.1Q718.6 76.5 718.4 77.0L718.4 77.0Q718.2 77.4 718.2 77.9Z "/></g><defs><clipPath id="satori_bc-id-1-1-2" clip-path="url(#satori_cp-id)"><path x="751" y="60" width="113" height="34" d="M761,60 h93 a10,10 0 0 1 10,10 v14 a10,10 0 0 1 -10,10 h-93 a10,10 0 0 1 -10,-10 v-14 a10,10 0 0 1 10,-10"/></clipPath></defs><mask id="satori_om-id-1-1-2"><rect x="752" y="61" width="111" height="32" fill="#fff" mask="url(#satori_om-id)"/><path width="113" height="34" fill="none" stroke="#000" stroke-width="2" d="M753.929,62.929 A10,10 0 0 1 761,60 h93 a10,10 0 0 1 10,10 v14 a10,10 0 0 1 -10,10 h-93 a10,10 0 0 1 -10,-10 v-14 A10,10 0 0 1 753.929,62.929"/></mask><path x="751" y="60" width="113" height="34" fill="#f472b614" d="M761,60 h93 a10,10 0 0 1 10,10 v14 a10,10 0 0 1 -10,10 h-93 a10,10 0 0 1 -10,-10 v-14 a10,10 0 0 1 10,-10" clip-path="url(#satori_cp-id)" mask="url(#satori_om-id)"/><path width="113" height="34" clip-path="url(#satori_bc-id-1-1-2)" fill="none" stroke="#f472b644" stroke-width="2" d="M753.929,62.929 A10,10 0 0 1 761,60 h93 a10,10 0 0 1 10,10 v14 a10,10 0 0 1 -10,10 h-93 a10,10 0 0 1 -10,-10 v-14 A10,10 0 0 1 753.929,62.929"/><g mask="url(#satori_om-id)" clip-path="url(#satori_cp-id)"><path fill="#fbcfe8" d="M774.6 84.5L774.6 84.5Q773.2 84.5 772.1 84.1Q771.0 83.7 770.3 83.0Q769.5 82.2 769.2 81.2Q768.8 80.1 768.8 78.7L768.8 78.7Q768.8 77.3 769.2 76.2Q769.5 75.2 770.3 74.4Q771.0 73.7 772.1 73.3Q773.1 72.9 774.5 72.9L774.5 72.9Q775.8 72.9 776.8 73.3Q777.8 73.7 778.4 74.4Q779.1 75.2 779.4 76.1Q779.8 77.0 779.8 77.9L779.8 77.9Q779.8 78.6 779.7 79.3Q779.6 80.0 779.4 80.5Q779.2 81.1 778.8 81.5Q778.3 81.8 777.6 81.8L777.6 81.8Q777.3 81.8 776.9 81.7Q776.5 81.6 776.2 81.4Q775.9 81.1 775.8 80.7L775.8 80.7L775.8 80.7Q775.6 81.1 775.2 81.5Q774.8 81.8 774.1 81.8L774.1 81.8Q773.2 81.8 772.6 81.3Q772.1 80.9 771.8 80.2Q771.5 79.5 771.5 78.6L771.5 78.6Q771.5 77.8 771.8 77.1Q772.2 76.4 772.8 76.0Q773.4 75.6 774.1 75.6L774.1 75.6Q774.7 75.6 775.1 75.8Q775.6 76.1 775.7 76.3L775.7 76.3L775.8 76.3L775.8 75.8L776.8 75.8L776.8 80.0Q776.8 80.3 777.0 80.6Q777.2 80.9 777.6 80.9L777.6 80.9Q778.1 80.9 778.3 80.6Q778.6 80.3 778.7 79.6Q778.8 79.0 778.8 77.9L778.8 77.9Q778.8 77.1 778.5 76.4Q778.2 75.7 777.7 75.1Q777.2 74.5 776.4 74.1Q775.6 73.8 774.5 73.8L774.5 73.8Q773.4 73.8 772.5 74.1Q771.6 74.5 771.1 75.1Q770.5 75.7 770.1 76.6Q769.8 77.5 769.8 78.7L769.8 78.7Q769.8 79.9 770.1 80.8Q770.5 81.7 771.1 82.3Q771.7 82.9 772.6 83.3Q773.5 83.6 774.7 83.6L774.7 83.6Q775.2 83.6 775.7 83.5Q776.2 83.4 776.5 83.3Q776.9 83.2 777.1 83.1L777.1 83.1L777.4 84.0Q777.1 84.1 776.6 84.2Q776.2 84.3 775.6 84.4Q775.1 84.5 774.6 84.5ZM774.1 80.8L774.1 80.8Q774.7 80.8 775.1 80.5Q775.5 80.3 775.7 79.8Q775.8 79.3 775.8 78.6L775.8 78.6Q775.8 77.8 775.6 77.4Q775.4 76.9 775.1 76.8Q774.7 76.6 774.1 76.6L774.1 76.6Q773.6 76.6 773.2 76.9Q772.9 77.1 772.7 77.6Q772.5 78.0 772.5 78.6L772.5 78.6Q772.5 79.1 772.6 79.7Q772.8 80.2 773.2 80.5Q773.5 80.8 774.1 80.8ZM782.9 82L781.7 82L781.7 72.5L782.9 72.5L782.9 76.6L787.9 76.6L787.9 72.5L789.1 72.5L789.1 82L787.9 82L787.9 77.7L782.9 77.7L782.9 82ZM793.2 82.2L793.2 82.2Q792.5 82.2 792.0 81.9Q791.4 81.7 791.1 81.2Q790.8 80.7 790.8 80.0L790.8 80.0Q790.8 79.4 791.0 79.0Q791.3 78.6 791.7 78.4Q792.1 78.2 792.6 78.1Q793.1 78.0 793.5 77.9L793.5 77.9Q794.2 77.8 794.6 77.8Q795.0 77.7 795.2 77.6Q795.4 77.5 795.4 77.2L795.4 77.2L795.4 77.2Q795.4 76.8 795.2 76.5Q795.0 76.1 794.7 76.0Q794.4 75.8 793.9 75.8L793.9 75.8Q793.4 75.8 793.0 76.0Q792.7 76.1 792.4 76.4Q792.2 76.6 792.1 76.9L792.1 76.9L791.0 76.5Q791.3 75.8 791.7 75.5Q792.2 75.1 792.7 75.0Q793.3 74.8 793.9 74.8L793.9 74.8Q794.2 74.8 794.7 74.9Q795.1 75.0 795.5 75.2Q796.0 75.5 796.2 76.0Q796.5 76.5 796.5 77.3L796.5 77.3L796.5 82L795.4 82L795.4 81.0L795.3 81.0Q795.2 81.3 794.9 81.5Q794.7 81.8 794.2 82.0Q793.8 82.2 793.2 82.2ZM793.4 81.2L793.4 81.2Q794.0 81.2 794.5 80.9Q794.9 80.7 795.1 80.3Q795.4 79.9 795.4 79.4L795.4 79.4L795.4 78.5Q795.3 78.5 795.1 78.6Q794.8 78.7 794.5 78.7Q794.2 78.8 793.9 78.8Q793.7 78.8 793.5 78.9L793.5 78.9Q793.1 78.9 792.7 79.0Q792.4 79.2 792.2 79.4Q791.9 79.6 791.9 80.0L791.9 80.0Q791.9 80.4 792.1 80.7Q792.3 80.9 792.6 81.0Q793.0 81.2 793.4 81.2ZM800.9 82.2L800.9 82.2Q800.2 82.2 799.6 81.9Q799.1 81.7 798.7 81.3Q798.3 80.9 798.2 80.3L798.2 80.3L799.3 80.0Q799.4 80.6 799.9 80.9Q800.3 81.1 800.9 81.1L800.9 81.1Q801.7 81.1 802.1 80.8Q802.5 80.5 802.5 80.1L802.5 80.1Q802.5 79.7 802.3 79.5Q802.0 79.2 801.5 79.1L801.5 79.1L800.3 78.8Q799.4 78.6 798.9 78.1Q798.4 77.6 798.4 76.9L798.4 76.9Q798.4 76.3 798.8 75.8Q799.1 75.3 799.7 75.1Q800.3 74.8 801.0 74.8L801.0 74.8Q801.8 74.8 802.3 75.0Q802.8 75.3 803.1 75.6Q803.4 76.0 803.6 76.5L803.6 76.5L802.6 76.8Q802.4 76.4 802.1 76.1Q801.7 75.8 801.1 75.8L801.1 75.8Q800.4 75.8 800.0 76.1Q799.6 76.4 799.6 76.8L799.6 76.8Q799.6 77.2 799.9 77.4Q800.1 77.7 800.8 77.8L800.8 77.8L801.8 78.1Q802.8 78.3 803.3 78.8Q803.7 79.3 803.7 80.0L803.7 80.0Q803.7 80.6 803.4 81.1Q803.0 81.6 802.4 81.9Q801.8 82.2 800.9 82.2ZM808.3 82.2L808.3 82.2Q807.3 82.2 806.6 81.7Q805.9 81.2 805.4 80.4Q805.0 79.6 805.0 78.5L805.0 78.5Q805.0 77.4 805.4 76.6Q805.9 75.7 806.6 75.3Q807.3 74.8 808.3 74.8L808.3 74.8Q808.8 74.8 809.2 74.9Q809.7 75.1 810.1 75.3Q810.5 75.6 810.7 75.9Q811.0 76.3 811.1 76.8L811.1 76.8L810.0 77.1Q810.0 76.8 809.8 76.6Q809.7 76.4 809.4 76.2Q809.2 76.0 808.9 75.9Q808.6 75.8 808.3 75.8L808.3 75.8Q807.6 75.8 807.1 76.2Q806.6 76.6 806.4 77.2Q806.2 77.8 806.2 78.5L806.2 78.5Q806.2 79.2 806.4 79.8Q806.6 80.4 807.1 80.8Q807.6 81.1 808.3 81.1L808.3 81.1Q808.6 81.1 808.9 81.0Q809.2 80.9 809.5 80.8Q809.7 80.6 809.8 80.3Q810.0 80.1 810.1 79.8L810.1 79.8L811.2 80.1Q811.0 80.6 810.8 81.0Q810.5 81.4 810.1 81.6Q809.7 81.9 809.3 82.0Q808.8 82.2 808.3 82.2ZM815.7 82.2L815.7 82.2Q814.7 82.2 814.0 81.7Q813.3 81.2 812.9 80.4Q812.5 79.6 812.5 78.5L812.5 78.5Q812.5 77.4 812.9 76.6Q813.3 75.7 814.0 75.3Q814.7 74.8 815.7 74.8L815.7 74.8Q816.7 74.8 817.4 75.3Q818.1 75.7 818.5 76.6Q818.9 77.4 818.9 78.5L818.9 78.5Q818.9 79.6 818.5 80.4Q818.1 81.2 817.4 81.7Q816.7 82.2 815.7 82.2ZM815.7 81.1L815.7 81.1Q816.4 81.1 816.9 80.8Q817.3 80.4 817.6 79.8Q817.8 79.2 817.8 78.5L817.8 78.5Q817.8 77.8 817.6 77.2Q817.3 76.6 816.9 76.2Q816.4 75.8 815.7 75.8L815.7 75.8Q815.0 75.8 814.5 76.2Q814.1 76.6 813.8 77.2Q813.6 77.8 813.6 78.5L813.6 78.5Q813.6 79.2 813.8 79.8Q814.1 80.4 814.5 80.8Q815.0 81.1 815.7 81.1ZM824.8 82L823.4 82L819.9 72.5L821.2 72.5L823.2 78.2Q823.4 78.6 823.6 79.4L823.6 79.4Q823.8 80.1 824.1 81.0L824.1 81.0Q824.4 80.1 824.6 79.4L824.6 79.4Q824.8 78.6 825.0 78.2L825.0 78.2L827.0 72.5L828.2 72.5L824.8 82ZM830.7 82L829.6 82L829.6 74.9L830.7 74.9L830.7 82ZM830.1 73.7L830.1 73.7Q829.8 73.7 829.6 73.5Q829.4 73.3 829.4 73.0L829.4 73.0Q829.4 72.7 829.6 72.4Q829.8 72.2 830.1 72.2L830.1 72.2Q830.5 72.2 830.7 72.4Q830.9 72.7 830.9 73.0L830.9 73.0Q830.9 73.3 830.7 73.5Q830.5 73.7 830.1 73.7ZM835.6 82.2L835.6 82.2Q834.6 82.2 833.9 81.7Q833.2 81.2 832.8 80.4Q832.4 79.6 832.4 78.5L832.4 78.5Q832.4 77.4 832.8 76.6Q833.2 75.7 833.9 75.3Q834.6 74.8 835.6 74.8L835.6 74.8Q836.1 74.8 836.6 74.9Q837.0 75.1 837.4 75.3Q837.8 75.6 838.1 75.9Q838.3 76.3 838.5 76.8L838.5 76.8L837.4 77.1Q837.3 76.8 837.2 76.6Q837.0 76.4 836.8 76.2Q836.5 76.0 836.3 75.9Q836.0 75.8 835.6 75.8L835.6 75.8Q834.9 75.8 834.4 76.2Q834.0 76.6 833.8 77.2Q833.5 77.8 833.5 78.5L833.5 78.5Q833.5 79.2 833.8 79.8Q834.0 80.4 834.4 80.8Q834.9 81.1 835.6 81.1L835.6 81.1Q836.0 81.1 836.3 81.0Q836.6 80.9 836.8 80.8Q837.0 80.6 837.2 80.3Q837.3 80.1 837.4 79.8L837.4 79.8L838.5 80.1Q838.4 80.6 838.1 81.0Q837.8 81.4 837.4 81.6Q837.1 81.9 836.6 82.0Q836.1 82.2 835.6 82.2ZM843.1 82.2L843.1 82.2Q842.1 82.2 841.4 81.7Q840.6 81.2 840.2 80.4Q839.8 79.6 839.8 78.5Q839.8 77.4 840.2 76.6Q840.6 75.8 841.3 75.3Q842.0 74.8 843.0 74.8L843.0 74.8Q843.6 74.8 844.1 75.0Q844.7 75.2 845.1 75.6Q845.6 76.0 845.8 76.7Q846.1 77.4 846.1 78.4L846.1 78.4L846.1 78.8L841.0 78.8Q841.0 79.5 841.2 80.0L841.2 80.0Q841.5 80.6 842.0 80.9Q842.5 81.1 843.1 81.1L843.1 81.1Q843.6 81.1 843.9 81.0Q844.2 80.9 844.5 80.7Q844.7 80.4 844.9 80.0L844.9 80.0L846.0 80.3Q845.8 80.9 845.4 81.3Q845.0 81.7 844.4 81.9Q843.9 82.2 843.1 82.2ZM841.0 77.9L841.0 77.9L844.9 77.9Q844.9 77.4 844.7 77.0L844.7 77.0Q844.5 76.4 844.1 76.1Q843.6 75.8 843.0 75.8Q842.4 75.8 841.9 76.1Q841.4 76.5 841.2 77.0L841.2 77.0Q841.0 77.4 841.0 77.9Z "/></g></svg>