<!-- Generated by readme-aura https://github.com/collectioneur/readme-aura -->
<svg width="210" height="46" viewBox="0 0 210 46" xmlns="http://www.w3.org/2000/svg"><defs><clipPath id="satori_bc-id"><path x="0" y="0" width="210" height="46" d="M12,0 h186 a12,12 0 0 1 12,12 v22 a12,12 0 0 1 -12,12 h-186 a12,12 0 0 1 -12,-12 v-22 a12,12 0 0 1 12,-12"/></clipPath></defs><mask id="satori_om-id"><rect x="1" y="1" width="208" height="44" fill="#fff"/><path width="210" height="46" fill="none" stroke="#000" stroke-width="2" d="M3.5150000000000006,3.5150000000000006 A12,12 0 0 1 12,0 h186 a12,12 0 0 1 12,12 v22 a12,12 0 0 1 -12,12 h-186 a12,12 0 0 1 -12,-12 v-22 A12,12 0 0 1 3.5150000000000006,3.5150000000000006"/></mask><path x="0" y="0" width="210" height="46" fill="#22d3ee14" d="M12,0 h186 a12,12 0 0 1 12,12 v22 a12,12 0 0 1 -12,12 h-186 a12,12 0 0 1 -12,-12 v-22 a12,12 0 0 1 12,-12"/><path width="210" height="46" clip-path="url(#satori_bc-id)" fill="none" stroke="#22d3ee44" stroke-width="2" d="M3.5150000000000006,3.5150000000000006 A12,12 0 0 1 12,0 h186 a12,12 0 0 1 12,12 v22 a12,12 0 0 1 -12,12 h-186 a12,12 0 0 1 -12,-12 v-22 A12,12 0 0 1 3.5150000000000006,3.5150000000000006"/><g  ><path fill="#a5f3fc" d="M52.7 28L50.8 28L50.8 20.9L52.7 20.9L52.7 28ZM51.8 20.0L51.8 20.0Q51.3 20.0 51.0 19.7Q50.7 19.4 50.7 19.0L50.7 19.0Q50.7 18.6 51.0 18.3Q51.3 18.0 51.8 18.0L51.8 18.0Q52.2 18.0 52.5 18.3Q52.8 18.6 52.8 19.0L52.8 19.0Q52.8 19.4 52.5 19.7Q52.2 20.0 51.8 20.0ZM56.2 23.9L56.2 23.9L56.2 28L54.3 28L54.3 20.9L56.1 20.9L56.2 22.4Q56.4 21.7 56.9 21.3L56.9 21.3Q57.5 20.8 58.4 20.8L58.4 20.8Q59.1 20.8 59.7 21.1Q60.2 21.5 60.5 22.1Q60.8 22.7 60.8 23.5L60.8 23.5L60.8 28L58.9 28L58.9 23.8Q58.9 23.2 58.6 22.8Q58.2 22.4 57.6 22.4L57.6 22.4Q57.2 22.4 56.9 22.6Q56.6 22.8 56.4 23.1Q56.2 23.4 56.2 23.9Z M67.5 28L65.6 28L65.6 18.5L67.5 18.5L67.5 22.4L71.6 22.4L71.6 18.5L73.5 18.5L73.5 28L71.6 28L71.6 24.0L67.5 24.0L67.5 28ZM77.2 28.1L77.2 28.1Q76.5 28.1 76.0 27.9Q75.5 27.7 75.1 27.2Q74.8 26.7 74.8 26.0L74.8 26.0Q74.8 25.4 75.1 25.0Q75.3 24.6 75.7 24.4Q76.0 24.1 76.5 24.0Q77.0 23.9 77.5 23.8L77.5 23.8Q78.1 23.8 78.5 23.7Q78.9 23.7 79.1 23.5Q79.2 23.4 79.2 23.2L79.2 23.2L79.2 23.2Q79.2 22.9 79.1 22.7Q79.0 22.4 78.7 22.3Q78.5 22.2 78.1 22.2L78.1 22.2Q77.8 22.2 77.5 22.3Q77.2 22.4 77.0 22.6Q76.9 22.8 76.8 23.0L76.8 23.0L75.0 22.8Q75.2 22.1 75.7 21.7Q76.1 21.3 76.7 21.0Q77.3 20.8 78.1 20.8L78.1 20.8Q78.7 20.8 79.2 21.0Q79.8 21.1 80.2 21.4Q80.6 21.7 80.9 22.1Q81.1 22.6 81.1 23.2L81.1 23.2L81.1 28L79.3 28L79.3 27.0L79.3 27.0Q79.1 27.3 78.8 27.6Q78.5 27.8 78.1 28.0Q77.7 28.1 77.2 28.1ZM77.7 26.8L77.7 26.8Q78.2 26.8 78.5 26.6Q78.9 26.4 79.1 26.1Q79.3 25.8 79.3 25.5L79.3 25.5L79.3 24.7Q79.2 24.8 79.0 24.8Q78.8 24.9 78.6 24.9Q78.4 24.9 78.2 25.0Q78.0 25.0 77.8 25.0L77.8 25.0Q77.5 25.1 77.2 25.2Q77.0 25.3 76.8 25.5Q76.7 25.7 76.7 26.0L76.7 26.0Q76.7 26.2 76.8 26.4Q76.9 26.6 77.2 26.7Q77.4 26.8 77.7 26.8ZM85.6 28.1L85.6 28.1Q84.7 28.1 84.1 27.9Q83.4 27.7 83.0 27.2Q82.6 26.7 82.4 26.1L82.4 26.1L84.2 25.8Q84.4 26.2 84.7 26.5Q85.1 26.7 85.6 26.7L85.6 26.7Q86.2 26.7 86.5 26.5Q86.8 26.3 86.8 26.0L86.8 26.0Q86.8 25.7 86.6 25.6Q86.4 25.4 85.9 25.3L85.9 25.3L84.7 25.0Q83.6 24.8 83.1 24.3Q82.6 23.8 82.6 23.0L82.6 23.0Q82.6 22.3 83.0 21.8Q83.4 21.3 84.0 21.1Q84.7 20.8 85.6 20.8L85.6 20.8Q86.5 20.8 87.1 21.0Q87.7 21.3 88.1 21.7Q88.4 22.1 88.6 22.7L88.6 22.7L86.9 23.0Q86.8 22.6 86.5 22.4Q86.2 22.2 85.6 22.2L85.6 22.2Q85.2 22.2 84.9 22.4Q84.5 22.6 84.5 22.9L84.5 22.9Q84.5 23.2 84.7 23.4Q85.0 23.5 85.5 23.6L85.5 23.6L86.7 23.9Q87.8 24.1 88.3 24.6Q88.8 25.0 88.8 25.8L88.8 25.8Q88.8 26.5 88.4 27.0Q87.9 27.6 87.2 27.8Q86.5 28.1 85.6 28.1ZM92.9 28.1L92.9 28.1Q92.0 28.1 91.3 27.9Q90.7 27.7 90.3 27.2Q89.9 26.7 89.7 26.1L89.7 26.1L91.5 25.8Q91.6 26.2 92.0 26.5Q92.3 26.7 92.9 26.7L92.9 26.7Q93.5 26.7 93.8 26.5Q94.1 26.3 94.1 26.0L94.1 26.0Q94.1 25.7 93.9 25.6Q93.6 25.4 93.2 25.3L93.2 25.3L92.0 25.0Q90.9 24.8 90.4 24.3Q89.9 23.8 89.9 23.0L89.9 23.0Q89.9 22.3 90.3 21.8Q90.7 21.3 91.3 21.1Q92.0 20.8 92.9 20.8L92.9 20.8Q93.7 20.8 94.4 21.0Q95.0 21.3 95.3 21.7Q95.7 22.1 95.9 22.7L95.9 22.7L94.2 23.0Q94.1 22.6 93.8 22.4Q93.4 22.2 92.9 22.2L92.9 22.2Q92.5 22.2 92.1 22.4Q91.8 22.6 91.8 22.9L91.8 22.9Q91.8 23.2 92.0 23.4Q92.2 23.5 92.7 23.6L92.7 23.6L94.0 23.9Q95.0 24.1 95.5 24.6Q96.0 25.0 96.0 25.8L96.0 25.8Q96.0 26.5 95.6 27.0Q95.2 27.6 94.5 27.8Q93.8 28.1 92.9 28.1ZM99.3 28.1L99.3 28.1Q98.6 28.1 98.1 27.9Q97.6 27.7 97.3 27.2Q96.9 26.7 96.9 26.0L96.9 26.0Q96.9 25.4 97.2 25.0Q97.4 24.6 97.8 24.4Q98.1 24.1 98.6 24.0Q99.1 23.9 99.6 23.8L99.6 23.8Q100.2 23.8 100.6 23.7Q101.0 23.7 101.2 23.5Q101.3 23.4 101.3 23.2L101.3 23.2L101.3 23.2Q101.3 22.9 101.2 22.7Q101.1 22.4 100.8 22.3Q100.6 22.2 100.2 22.2L100.2 22.2Q99.9 22.2 99.6 22.3Q99.3 22.4 99.1 22.6Q99.0 22.8 98.9 23.0L98.9 23.0L97.2 22.8Q97.3 22.1 97.8 21.7Q98.2 21.3 98.8 21.0Q99.4 20.8 100.2 20.8L100.2 20.8Q100.8 20.8 101.4 21.0Q101.9 21.1 102.3 21.4Q102.7 21.7 103.0 22.1Q103.3 22.6 103.3 23.2L103.3 23.2L103.3 28L101.4 28L101.4 27.0L101.4 27.0Q101.2 27.3 100.9 27.6Q100.6 27.8 100.2 28.0Q99.8 28.1 99.3 28.1ZM99.8 26.8L99.8 26.8Q100.3 26.8 100.6 26.6Q101.0 26.4 101.2 26.1Q101.4 25.8 101.4 25.5L101.4 25.5L101.4 24.7Q101.3 24.8 101.1 24.8Q100.9 24.9 100.7 24.9Q100.5 24.9 100.3 25.0Q100.1 25.0 99.9 25.0L99.9 25.0Q99.6 25.1 99.3 25.2Q99.1 25.3 98.9 25.5Q98.8 25.7 98.8 26.0L98.8 26.0Q98.8 26.2 98.9 26.4Q99.1 26.6 99.3 26.7Q99.5 26.8 99.8 26.8ZM106.8 23.9L106.8 23.9L106.8 28L104.9 28L104.9 20.9L106.7 20.9L106.7 22.4Q107.0 21.7 107.4 21.3L107.4 21.3Q108.0 20.8 108.9 20.8L108.9 20.8Q109.6 20.8 110.2 21.1Q110.7 21.5 111.0 22.1Q111.3 22.7 111.3 23.5L111.3 23.5L111.3 28L109.4 28L109.4 23.8Q109.4 23.2 109.1 22.8Q108.8 22.4 108.2 22.4L108.2 22.4Q107.8 22.4 107.4 22.6Q107.1 22.8 107.0 23.1Q106.8 23.4 106.8 23.9ZM113.0 23.3L117.3 23.3L117.3 24.9L113.0 24.9L113.0 23.3ZM120.7 28L118.5 28L121.8 18.5L124.3 18.5L127.6 28L125.5 28L124.8 25.8L121.4 25.8L120.7 28ZM121.9 24.3L124.2 24.3L124.0 23.4Q123.7 22.6 123.4 21.5L123.4 21.5Q123.2 20.8 123.0 20.1L123.0 20.1Q122.8 20.8 122.7 21.5L122.7 21.5Q122.4 22.6 122.1 23.4L122.1 23.4L121.9 24.3ZM130.7 28L128.8 28L128.8 20.9L130.7 20.9L130.7 28ZM129.7 20.0L129.7 20.0Q129.3 20.0 129.0 19.7Q128.7 19.4 128.7 19.0L128.7 19.0Q128.7 18.6 129.0 18.3Q129.3 18.0 129.7 18.0L129.7 18.0Q130.1 18.0 130.4 18.3Q130.8 18.6 130.8 19.0L130.8 19.0Q130.8 19.4 130.4 19.7Q130.1 20.0 129.7 20.0ZM134.9 28.1L134.9 28.1Q134.1 28.1 133.4 27.7Q132.7 27.3 132.4 26.5Q132.0 25.6 132.0 24.5L132.0 24.5Q132.0 23.3 132.4 22.4Q132.8 21.6 133.4 21.2Q134.1 20.8 134.9 20.8L134.9 20.8Q135.5 20.8 135.9 21.0Q136.3 21.2 136.5 21.5Q136.8 21.8 136.9 22.1L136.9 22.1L136.9 22.1L136.9 18.5L138.8 18.5L138.8 28L137.0 28L137.0 26.9L136.9 26.9Q136.8 27.1 136.5 27.4Q136.3 27.7 135.9 27.9Q135.5 28.1 134.9 28.1ZM135.5 26.6L135.5 26.6Q135.9 26.6 136.3 26.3Q136.6 26.1 136.8 25.6Q137.0 25.1 137.0 24.5L137.0 24.5Q137.0 23.8 136.8 23.3Q136.6 22.9 136.3 22.6Q135.9 22.3 135.5 22.3L135.5 22.3Q135.0 22.3 134.6 22.6Q134.3 22.9 134.1 23.4Q133.9 23.8 133.9 24.5L133.9 24.5Q133.9 25.1 134.1 25.6Q134.3 26.0 134.6 26.3Q135.0 26.6 135.5 26.6ZM142.4 28L140.5 28L140.5 20.9L142.4 20.9L142.4 28ZM141.4 20.0L141.4 20.0Q141.0 20.0 140.7 19.7Q140.4 19.4 140.4 19.0L140.4 19.0Q140.4 18.6 140.7 18.3Q141.0 18.0 141.4 18.0L141.4 18.0Q141.9 18.0 142.2 18.3Q142.5 18.6 142.5 19.0L142.5 19.0Q142.5 19.4 142.2 19.7Q141.9 20.0 141.4 20.0ZM148.0 28.1L148.0 28.1Q147.4 28.1 147.0 27.9Q146.6 27.7 146.3 27.4Q146.1 27.1 146.0 26.9L146.0 26.9L145.9 26.9L145.9 28L144.0 28L144.0 18.5L145.9 18.5L145.9 22.1L146.0 22.1Q146.1 21.8 146.3 21.5Q146.6 21.2 147.0 21.0Q147.4 20.8 148.0 20.8L148.0 20.8Q148.8 20.8 149.4 21.2Q150.1 21.6 150.5 22.4Q150.9 23.3 150.9 24.5L150.9 24.5Q150.9 25.6 150.5 26.5Q150.1 27.3 149.4 27.7Q148.8 28.1 148.0 28.1ZM147.4 26.6L147.4 26.6Q147.9 26.6 148.2 26.3Q148.6 26.0 148.7 25.6Q148.9 25.1 148.9 24.5L148.9 24.5Q148.9 23.8 148.7 23.4Q148.6 22.9 148.2 22.6Q147.9 22.3 147.4 22.3L147.4 22.3Q146.9 22.3 146.6 22.6Q146.2 22.9 146.0 23.3Q145.9 23.8 145.9 24.5L145.9 24.5Q145.9 25.1 146.0 25.6Q146.2 26.1 146.6 26.3Q146.9 26.6 147.4 26.6ZM155.4 28.1L155.4 28.1Q154.3 28.1 153.5 27.7Q152.7 27.3 152.3 26.4Q151.9 25.6 151.9 24.5L151.9 24.5Q151.9 23.4 152.3 22.6Q152.7 21.7 153.5 21.3Q154.3 20.8 155.3 20.8L155.3 20.8Q156.0 20.8 156.6 21.0Q157.2 21.3 157.7 21.7Q158.1 22.2 158.4 22.8Q158.6 23.5 158.6 24.4L158.6 24.4L158.6 24.9L153.8 24.9Q153.8 25.5 154.0 25.9L154.0 25.9Q154.2 26.3 154.6 26.5Q154.9 26.7 155.4 26.7L155.4 26.7Q155.8 26.7 156.0 26.6Q156.3 26.5 156.5 26.3Q156.7 26.1 156.8 25.9L156.8 25.9L158.5 26.2Q158.4 26.8 157.9 27.2Q157.5 27.7 156.9 27.9Q156.2 28.1 155.4 28.1ZM153.8 23.8L153.8 23.8L156.8 23.8Q156.8 23.4 156.6 23.1L156.6 23.1Q156.5 22.7 156.1 22.5Q155.8 22.2 155.3 22.2L155.3 22.2Q154.8 22.2 154.5 22.5Q154.1 22.7 154.0 23.1L154.0 23.1Q153.8 23.4 153.8 23.8Z "/></g></svg>