<!-- Generated by readme-aura https://github.com/collectioneur/readme-aura -->
<svg width="900" height="120" viewBox="0 0 900 120" xmlns="http://www.w3.org/2000/svg"><mask id="satori_om-id"><rect x="0" y="0" width="900" height="120" fill="#fff"/></mask><path x="0" y="0" width="900" height="120" fill="#0a0c14" d="M16,0 h868 a16,16 0 0 1 16,16 v88 a16,16 0 0 1 -16,16 h-868 a16,16 0 0 1 -16,-16 v-88 a16,16 0 0 1 16,-16"/><mask id="satori_om-id-0"><rect x="20" y="31" width="210" height="58" fill="#fff"/></mask><clipPath id="satori_bct-id-0-0"><path d="M125.4 64.3L125.4 64.3Q123.5 64.3 121.7 63.7Q120.0 63.1 118.6 61.7Q117.2 60.3 116.4 57.9Q115.6 55.6 115.6 52.2L115.6 52.2Q115.6 49.1 116.3 46.6Q117.0 44.2 118.3 42.5Q119.6 40.7 121.4 39.8Q123.3 38.9 125.5 38.9L125.5 38.9Q128.0 38.9 129.9 39.9Q131.7 40.8 132.9 42.5Q134.0 44.1 134.3 46.1L134.3 46.1L129.3 46.1Q129.0 44.8 128.0 44.1Q127.0 43.3 125.5 43.3L125.5 43.3Q123.9 43.3 122.8 44.3Q121.7 45.2 121.1 47.0Q120.5 48.8 120.5 51.2L120.5 51.2L120.7 51.2Q121.3 50.1 122.2 49.3Q123.1 48.6 124.4 48.2Q125.6 47.7 126.9 47.7L126.9 47.7Q129.1 47.7 130.8 48.8Q132.5 49.8 133.5 51.6Q134.5 53.4 134.5 55.7L134.5 55.7Q134.5 58.2 133.4 60.2Q132.2 62.1 130.2 63.2Q128.1 64.3 125.4 64.3ZM125.3 60.3L125.3 60.3Q126.6 60.3 127.5 59.7Q128.5 59.1 129.0 58.1Q129.6 57.1 129.6 55.9L129.6 55.9Q129.6 54.6 129.1 53.6Q128.5 52.6 127.5 52.0Q126.6 51.4 125.4 51.4L125.4 51.4Q124.4 51.4 123.7 51.8Q122.9 52.1 122.3 52.8Q121.7 53.4 121.4 54.2Q121.1 55.0 121.1 55.9L121.1 55.9Q121.1 57.1 121.6 58.1Q122.2 59.1 123.1 59.7Q124.1 60.3 125.3 60.3Z "/></clipPath><defs><pattern id="satori_pattern_id-0-0_0" x="0" y="0" width="1" height="1" patternUnits="objectBoundingBox"><linearGradient id="satori_biid-0-0_0" x1="0" y1="0" x2="1" y2="0" spreadMethod="pad"><stop offset="0%" stop-color="#22d3ee"/><stop offset="100%" stop-color="#67e8f9"/></linearGradient><rect x="0" y="0" width="23" height="41" fill="url(#satori_biid-0-0_0)"/></pattern></defs><mask id="satori_om-id-0-0"><rect x="114" y="31" width="23" height="41" fill="#fff"/></mask><rect x="114" y="31" width="23" height="41" fill="url(#satori_pattern_id-0-0_0)" clip-path="url(#satori_bct-id-0-0)"/><mask id="satori_om-id-0-1"><rect x="81" y="74" width="89" height="15" fill="#fff"/></mask><g  ><path fill="#94a3b8" d="M85.6 86L84.5 86L84.5 82.4L81.3 77.3L82.6 77.3L84.3 80.1Q84.6 80.6 84.8 81.0L84.8 81.0Q85.0 81.2 85.1 81.5L85.1 81.5Q85.2 81.2 85.3 81.0L85.3 81.0Q85.6 80.5 85.8 80.1L85.8 80.1L87.6 77.3L88.8 77.3L85.6 82.4L85.6 86ZM96.6 86L91.2 86L91.2 77.3L96.5 77.3L96.5 78.3L92.3 78.3L92.3 81.1L96.2 81.1L96.2 82.1L92.3 82.1L92.3 85.0L96.6 85.0L96.6 86ZM99.8 86L98.7 86L101.8 77.3L103.1 77.3L106.3 86L105.2 86L104.3 83.6L100.7 83.6L99.8 86ZM101.0 82.6L103.9 82.6L103.3 80.8Q103.1 80.3 102.9 79.6L102.9 79.6Q102.7 79.0 102.5 78.2L102.5 78.2Q102.2 79.0 102.0 79.6L102.0 79.6Q101.8 80.4 101.6 80.8L101.6 80.8L101.0 82.6ZM109.8 86L108.7 86L108.7 77.3L111.7 77.3Q112.7 77.3 113.4 77.6Q114.0 78.0 114.3 78.6Q114.7 79.2 114.7 80.0Q114.7 80.7 114.3 81.3Q114.0 81.9 113.4 82.3L113.4 82.3Q113.2 82.4 113.0 82.4L113.0 82.4L115.0 86L113.7 86L111.9 82.6Q111.8 82.6 111.7 82.6L111.7 82.6L109.8 82.6L109.8 86ZM109.8 78.2L109.8 81.6L111.6 81.6Q112.3 81.6 112.7 81.4Q113.2 81.2 113.4 80.8Q113.5 80.5 113.5 80.0L113.5 80.0Q113.5 79.4 113.4 79.1Q113.2 78.7 112.7 78.5Q112.3 78.2 111.6 78.2L111.6 78.2L109.8 78.2ZM120.2 86.2L120.2 86.2Q119.3 86.2 118.6 85.8Q117.9 85.5 117.5 85.0Q117.1 84.4 117.0 83.7L117.0 83.7L118.2 83.7Q118.2 84.2 118.5 84.5Q118.8 84.8 119.3 85.0Q119.7 85.2 120.2 85.2L120.2 85.2Q120.8 85.2 121.3 85.0Q121.7 84.8 122.0 84.4Q122.3 84.1 122.3 83.6L122.3 83.6Q122.3 83.2 122.1 82.9Q121.8 82.7 121.4 82.5Q121.0 82.3 120.6 82.2L120.6 82.2L119.5 81.9Q118.5 81.6 117.9 81.0Q117.3 80.5 117.3 79.6L117.3 79.6Q117.3 78.9 117.7 78.3Q118.1 77.8 118.8 77.5Q119.4 77.2 120.3 77.2L120.3 77.2Q121.1 77.2 121.8 77.5Q122.5 77.8 122.9 78.3Q123.2 78.8 123.3 79.5L123.3 79.5L122.2 79.5Q122.1 78.8 121.6 78.5Q121.0 78.1 120.3 78.1L120.3 78.1Q119.7 78.1 119.3 78.3Q118.8 78.5 118.6 78.8Q118.4 79.1 118.4 79.6L118.4 79.6Q118.4 80.0 118.7 80.3Q118.9 80.6 119.3 80.7Q119.7 80.9 120.0 81.0L120.0 81.0L120.9 81.2Q121.3 81.3 121.7 81.5Q122.1 81.6 122.5 81.9Q122.9 82.2 123.1 82.6Q123.4 83.0 123.4 83.6L123.4 83.6Q123.4 84.3 123.0 84.9Q122.6 85.5 121.9 85.8Q121.2 86.2 120.2 86.2Z M134.0 86.1L134.0 86.1Q132.9 86.1 132.0 85.6Q131.2 85.0 130.7 84.0Q130.1 83.0 130.1 81.6L130.1 81.6Q130.1 80.3 130.7 79.2Q131.2 78.2 132.0 77.7Q132.9 77.2 134.0 77.2L134.0 77.2Q135.1 77.2 136.0 77.7Q136.9 78.2 137.4 79.2Q137.9 80.3 137.9 81.6L137.9 81.6Q137.9 83.0 137.4 84.0Q136.9 85.0 136.0 85.6Q135.1 86.1 134.0 86.1ZM134.0 85.1L134.0 85.1Q134.8 85.1 135.4 84.7Q136.1 84.3 136.4 83.5Q136.8 82.8 136.8 81.6L136.8 81.6Q136.8 80.5 136.4 79.7Q136.1 79.0 135.4 78.6Q134.8 78.2 134.0 78.2L134.0 78.2Q133.2 78.2 132.6 78.6Q132.0 79.0 131.6 79.8Q131.2 80.5 131.2 81.6L131.2 81.6Q131.2 82.8 131.6 83.5Q132.0 84.3 132.6 84.7Q133.2 85.1 134.0 85.1ZM141.8 86L140.7 86L140.7 77.3L145.9 77.3L145.9 78.3L141.8 78.3L141.8 81.2L145.5 81.2L145.5 82.2L141.8 82.2L141.8 86Z M153.7 86L152.4 86L155.5 81.5L152.6 77.3L153.9 77.3L155.1 79.1Q155.4 79.5 155.6 79.8Q155.8 80.1 155.9 80.4L155.9 80.4Q156.0 80.6 156.2 80.8L156.2 80.8Q156.3 80.6 156.4 80.4L156.4 80.4Q156.6 80.1 156.7 79.8Q156.9 79.5 157.2 79.1L157.2 79.1L158.5 77.3L159.8 77.3L156.8 81.5L159.9 86L158.6 86L157.1 83.8Q156.9 83.4 156.7 83.2Q156.5 82.9 156.4 82.6L156.4 82.6Q156.3 82.5 156.2 82.3L156.2 82.3Q156.1 82.5 156.0 82.6L156.0 82.6Q155.8 82.9 155.6 83.1Q155.5 83.4 155.2 83.8L155.2 83.8L153.7 86ZM163.4 86L162.3 86L162.3 77.3L165.3 77.3Q166.3 77.3 167.0 77.6Q167.6 78.0 168.0 78.6Q168.3 79.3 168.3 80.0Q168.3 80.8 168.0 81.5Q167.6 82.1 167.0 82.5Q166.3 82.8 165.3 82.8L165.3 82.8L163.4 82.8L163.4 86ZM163.4 78.2L163.4 81.9L165.3 81.9Q165.9 81.9 166.4 81.6Q166.8 81.4 167.0 81.0Q167.2 80.6 167.2 80.0Q167.2 79.5 167.0 79.1Q166.8 78.7 166.4 78.5Q165.9 78.2 165.2 78.2L165.2 78.2L163.4 78.2Z "/></g><mask id="satori_om-id-1"><rect x="233" y="37" width="1" height="46" fill="#fff"/></mask><rect x="233" y="37" width="1" height="46" fill="#1e293b"/><mask id="satori_om-id-2"><rect x="237" y="31" width="210" height="58" fill="#fff"/></mask><clipPath id="satori_bct-id-2-0"><path d="M341.9 64.3L341.9 64.3Q339.3 64.3 337.2 63.4Q335.1 62.5 333.9 60.8Q332.7 59.2 332.6 57.1L332.6 57.1L337.7 57.1Q337.8 58.0 338.3 58.7Q338.9 59.4 339.8 59.8Q340.8 60.1 342.0 60.1L342.0 60.1Q343.2 60.1 344.1 59.7Q345.0 59.3 345.6 58.5Q346.1 57.8 346.1 56.7L346.1 56.7Q346.1 55.7 345.6 54.9Q345.0 54.2 344.0 53.7Q342.9 53.3 341.5 53.3L341.5 53.3L339.2 53.3L339.2 49.5L341.5 49.5Q342.7 49.5 343.6 49.1Q344.5 48.7 345.1 47.9Q345.6 47.2 345.6 46.2L345.6 46.2Q345.6 45.2 345.1 44.5Q344.7 43.8 343.9 43.4Q343.1 43.0 342.0 43.0L342.0 43.0Q340.9 43.0 340.0 43.4Q339.1 43.8 338.6 44.5Q338.0 45.2 338.0 46.1L338.0 46.1L333.1 46.1Q333.2 44.0 334.3 42.4Q335.5 40.8 337.5 39.8Q339.5 38.9 342.0 38.9L342.0 38.9Q344.6 38.9 346.5 39.9Q348.4 40.8 349.4 42.4Q350.5 43.9 350.5 45.9L350.5 45.9Q350.5 47.9 349.2 49.3Q347.9 50.7 345.9 51.1L345.9 51.1L345.9 51.3Q347.7 51.5 348.9 52.3Q350.1 53.1 350.8 54.3Q351.4 55.5 351.4 57.1L351.4 57.1Q351.4 59.2 350.2 60.8Q349.0 62.5 346.8 63.4Q344.7 64.3 341.9 64.3Z "/></clipPath><defs><pattern id="satori_pattern_id-2-0_0" x="0" y="0" width="1" height="1" patternUnits="objectBoundingBox"><linearGradient id="satori_biid-2-0_0" x1="0" y1="0" x2="1" y2="0" spreadMethod="pad"><stop offset="0%" stop-color="#a78bfa"/><stop offset="100%" stop-color="#c4b5fd"/></linearGradient><rect x="0" y="0" width="22" height="41" fill="url(#satori_biid-2-0_0)"/></pattern></defs><mask id="satori_om-id-2-0"><rect x="331" y="31" width="22" height="41" fill="#fff"/></mask><rect x="331" y="31" width="22" height="41" fill="url(#satori_pattern_id-2-0_0)" clip-path="url(#satori_bct-id-2-0)"/><mask id="satori_om-id-2-1"><rect x="293" y="74" width="99" height="15" fill="#fff"/></mask><g  ><path fill="#94a3b8" d="M296.8 86.2L296.8 86.2Q295.9 86.2 295.2 85.8Q294.5 85.5 294.1 85.0Q293.7 84.4 293.7 83.7L293.7 83.7L294.8 83.7Q294.9 84.2 295.2 84.5Q295.4 84.8 295.9 85.0Q296.3 85.2 296.8 85.2L296.8 85.2Q297.4 85.2 297.9 85.0Q298.4 84.8 298.7 84.4Q298.9 84.1 298.9 83.6L298.9 83.6Q298.9 83.2 298.7 82.9Q298.5 82.7 298.1 82.5Q297.7 82.3 297.2 82.2L297.2 82.2L296.2 81.9Q295.1 81.6 294.5 81.0Q293.9 80.5 293.9 79.6L293.9 79.6Q293.9 78.9 294.3 78.3Q294.7 77.8 295.4 77.5Q296.1 77.2 296.9 77.2L296.9 77.2Q297.8 77.2 298.4 77.5Q299.1 77.8 299.5 78.3Q299.9 78.8 299.9 79.5L299.9 79.5L298.8 79.5Q298.7 78.8 298.2 78.5Q297.7 78.1 296.9 78.1L296.9 78.1Q296.3 78.1 295.9 78.3Q295.5 78.5 295.2 78.8Q295.0 79.1 295.0 79.6L295.0 79.6Q295.0 80.0 295.3 80.3Q295.6 80.6 296.0 80.7Q296.4 80.9 296.7 81.0L296.7 81.0L297.5 81.2Q297.9 81.3 298.3 81.5Q298.7 81.6 299.1 81.9Q299.5 82.2 299.8 82.6Q300.0 83.0 300.0 83.6L300.0 83.6Q300.0 84.3 299.6 84.9Q299.3 85.5 298.6 85.8Q297.9 86.2 296.8 86.2ZM303.2 86L302.0 86L305.2 77.3L306.5 77.3L309.7 86L308.5 86L307.6 83.6L304.0 83.6L303.2 86ZM304.4 82.6L307.3 82.6L306.7 80.8Q306.5 80.3 306.3 79.6L306.3 79.6Q306.1 79.0 305.8 78.2L305.8 78.2Q305.6 79.0 305.4 79.6L305.4 79.6Q305.1 80.4 305.0 80.8L305.0 80.8L304.4 82.6ZM312.5 86L311.3 86L314.5 77.3L315.7 77.3L319.0 86L317.8 86L316.9 83.6L313.3 83.6L312.5 86ZM313.7 82.6L316.6 82.6L315.9 80.8Q315.8 80.3 315.5 79.6L315.5 79.6Q315.3 79.0 315.1 78.2L315.1 78.2Q314.8 79.0 314.7 79.6L314.7 79.6Q314.4 80.4 314.3 80.8L314.3 80.8L313.7 82.6ZM324.1 86.2L324.1 86.2Q323.2 86.2 322.5 85.8Q321.8 85.5 321.4 85.0Q321.0 84.4 320.9 83.7L320.9 83.7L322.1 83.7Q322.1 84.2 322.4 84.5Q322.7 84.8 323.1 85.0Q323.6 85.2 324.1 85.2L324.1 85.2Q324.7 85.2 325.2 85.0Q325.6 84.8 325.9 84.4Q326.2 84.1 326.2 83.6L326.2 83.6Q326.2 83.2 326.0 82.9Q325.7 82.7 325.3 82.5Q324.9 82.3 324.5 82.2L324.5 82.2L323.4 81.9Q322.4 81.6 321.8 81.0Q321.2 80.5 321.2 79.6L321.2 79.6Q321.2 78.9 321.6 78.3Q322.0 77.8 322.7 77.5Q323.3 77.2 324.2 77.2L324.2 77.2Q325.0 77.2 325.7 77.5Q326.4 77.8 326.8 78.3Q327.1 78.8 327.2 79.5L327.2 79.5L326.1 79.5Q326.0 78.8 325.5 78.5Q324.9 78.1 324.1 78.1L324.1 78.1Q323.6 78.1 323.2 78.3Q322.7 78.5 322.5 78.8Q322.3 79.1 322.3 79.6L322.3 79.6Q322.3 80.0 322.6 80.3Q322.8 80.6 323.2 80.7Q323.6 80.9 323.9 81.0L323.9 81.0L324.8 81.2Q325.2 81.3 325.6 81.5Q326.0 81.6 326.4 81.9Q326.8 82.2 327.0 82.6Q327.3 83.0 327.3 83.6L327.3 83.6Q327.3 84.3 326.9 84.9Q326.5 85.5 325.8 85.8Q325.1 86.2 324.1 86.2Z M337.2 86.2L337.2 86.2Q336.2 86.2 335.5 85.8Q334.8 85.5 334.5 85.0Q334.1 84.4 334.0 83.7L334.0 83.7L335.2 83.7Q335.2 84.2 335.5 84.5Q335.8 84.8 336.2 85.0Q336.7 85.2 337.2 85.2L337.2 85.2Q337.8 85.2 338.2 85.0Q338.7 84.8 339.0 84.4Q339.3 84.1 339.3 83.6L339.3 83.6Q339.3 83.2 339.0 82.9Q338.8 82.7 338.4 82.5Q338.0 82.3 337.5 82.2L337.5 82.2L336.5 81.9Q335.4 81.6 334.8 81.0Q334.3 80.5 334.3 79.6L334.3 79.6Q334.3 78.9 334.7 78.3Q335.1 77.8 335.7 77.5Q336.4 77.2 337.3 77.2L337.3 77.2Q338.1 77.2 338.8 77.5Q339.4 77.8 339.8 78.3Q340.2 78.8 340.2 79.5L340.2 79.5L339.1 79.5Q339.1 78.8 338.5 78.5Q338.0 78.1 337.2 78.1L337.2 78.1Q336.7 78.1 336.2 78.3Q335.8 78.5 335.6 78.8Q335.3 79.1 335.3 79.6L335.3 79.6Q335.3 80.0 335.6 80.3Q335.9 80.6 336.3 80.7Q336.7 80.9 337.0 81.0L337.0 81.0L337.9 81.2Q338.2 81.3 338.7 81.5Q339.1 81.6 339.5 81.9Q339.9 82.2 340.1 82.6Q340.4 83.0 340.4 83.6L340.4 83.6Q340.4 84.3 340.0 84.9Q339.6 85.5 338.9 85.8Q338.2 86.2 337.2 86.2ZM344.2 86L343.1 86L343.1 77.3L344.2 77.3L344.2 81.0L348.8 81.0L348.8 77.3L349.9 77.3L349.9 86L348.8 86L348.8 82.0L344.2 82.0L344.2 86ZM353.0 77.3L354.1 77.3L354.1 86L353.0 86L353.0 77.3ZM358.3 86L357.2 86L357.2 77.3L360.2 77.3Q361.2 77.3 361.9 77.6Q362.6 78.0 362.9 78.6Q363.2 79.3 363.2 80.0Q363.2 80.8 362.9 81.5Q362.6 82.1 361.9 82.5Q361.2 82.8 360.2 82.8L360.2 82.8L358.3 82.8L358.3 86ZM358.3 78.2L358.3 81.9L360.2 81.9Q360.9 81.9 361.3 81.6Q361.7 81.4 361.9 81.0Q362.1 80.6 362.1 80.0Q362.1 79.5 361.9 79.1Q361.7 78.7 361.3 78.5Q360.9 78.2 360.2 78.2L360.2 78.2L358.3 78.2ZM367.0 86L365.9 86L365.9 77.3L368.9 77.3Q369.9 77.3 370.6 77.6Q371.2 78.0 371.5 78.6Q371.9 79.3 371.9 80.0Q371.9 80.8 371.5 81.5Q371.2 82.1 370.6 82.5Q369.9 82.8 368.9 82.8L368.9 82.8L367.0 82.8L367.0 86ZM367.0 78.2L367.0 81.9L368.8 81.9Q369.5 81.9 369.9 81.6Q370.4 81.4 370.6 81.0Q370.7 80.6 370.7 80.0Q370.7 79.5 370.6 79.1Q370.4 78.7 369.9 78.5Q369.5 78.2 368.8 78.2L368.8 78.2L367.0 78.2ZM379.9 86L374.6 86L374.6 77.3L379.9 77.3L379.9 78.3L375.7 78.3L375.7 81.1L379.6 81.1L379.6 82.1L375.7 82.1L375.7 85.0L379.9 85.0L379.9 86ZM385.5 86L385.5 86L382.8 86L382.8 77.3L385.6 77.3Q386.9 77.3 387.8 77.8Q388.7 78.3 389.2 79.3Q389.7 80.3 389.7 81.6L389.7 81.6Q389.7 83.0 389.2 84.0Q388.7 84.9 387.8 85.5Q386.8 86 385.5 86ZM383.9 78.3L383.9 85.0L385.4 85.0Q386.5 85.0 387.2 84.6Q387.9 84.2 388.2 83.4Q388.6 82.7 388.6 81.6L388.6 81.6Q388.6 80.6 388.2 79.8Q387.9 79.1 387.2 78.7Q386.5 78.3 385.5 78.3L385.5 78.3L383.9 78.3Z "/></g><mask id="satori_om-id-3"><rect x="450" y="37" width="1" height="46" fill="#fff"/></mask><rect x="450" y="37" width="1" height="46" fill="#1e293b"/><mask id="satori_om-id-4"><rect x="453" y="31" width="210" height="58" fill="#fff"/></mask><clipPath id="satori_bct-id-4-0"><path d="M547.0 39.3L552.4 39.3L552.4 64L547.4 64L547.4 43.7L547.2 43.7L541.5 47.7L541.5 43.1L547.0 39.3ZM574.2 64L556.7 64L556.7 60.3L565.5 52.1Q566.6 51.0 567.4 50.1Q568.2 49.3 568.6 48.4Q569.0 47.5 569.0 46.6L569.0 46.6Q569.0 45.4 568.5 44.6Q568.0 43.8 567.1 43.4Q566.2 43.0 565.1 43.0L565.1 43.0Q564.0 43.0 563.1 43.4Q562.3 43.9 561.8 44.8Q561.3 45.6 561.3 46.9L561.3 46.9L556.5 46.9Q556.5 44.4 557.6 42.7Q558.7 40.9 560.7 39.9Q562.6 38.9 565.2 38.9L565.2 38.9Q567.8 38.9 569.8 39.9Q571.7 40.8 572.8 42.5Q573.9 44.1 573.9 46.2L573.9 46.2Q573.9 47.6 573.3 49.0Q572.8 50.3 571.4 52.0Q570.0 53.6 567.5 56.0L567.5 56.0L563.8 59.7L563.8 59.8L574.2 59.8L574.2 64Z "/></clipPath><defs><pattern id="satori_pattern_id-4-0_0" x="0" y="0" width="1" height="1" patternUnits="objectBoundingBox"><linearGradient id="satori_biid-4-0_0" x1="0" y1="0" x2="1" y2="0" spreadMethod="pad"><stop offset="0%" stop-color="#f472b6"/><stop offset="100%" stop-color="#f9a8d4"/></linearGradient><rect x="0" y="0" width="37" height="41" fill="url(#satori_biid-4-0_0)"/></pattern></defs><mask id="satori_om-id-4-0"><rect x="540" y="31" width="37" height="41" fill="#fff"/></mask><rect x="540" y="31" width="37" height="41" fill="url(#satori_pattern_id-4-0_0)" clip-path="url(#satori_bct-id-4-0)"/><mask id="satori_om-id-4-1"><rect x="498" y="74" width="121" height="15" fill="#fff"/></mask><g  ><path fill="#94a3b8" d="M500.1 86L499.1 86L499.1 77.3L500.6 77.3L502.8 82.8Q502.9 83.0 503.0 83.3Q503.1 83.6 503.2 83.9Q503.3 84.2 503.4 84.6L503.4 84.6Q503.4 84.7 503.4 84.8L503.4 84.8Q503.5 84.7 503.5 84.6L503.5 84.6Q503.6 84.3 503.7 83.9Q503.8 83.6 503.9 83.3Q504 83.0 504.1 82.8L504.1 82.8L506.2 77.3L507.8 77.3L507.8 86L506.7 86L506.7 81.0Q506.7 80.7 506.7 80.4Q506.7 80.1 506.7 79.7Q506.7 79.3 506.7 78.9L506.7 78.9Q506.7 78.7 506.7 78.5L506.7 78.5Q506.7 78.7 506.6 79.0L506.6 79.0Q506.4 79.4 506.3 79.8Q506.2 80.2 506.1 80.5Q505.9 80.8 505.9 81.0L505.9 81.0L503.9 86L502.9 86L501.0 81.0Q500.9 80.8 500.8 80.5Q500.6 80.2 500.5 79.8Q500.4 79.4 500.2 79.0L500.2 79.0Q500.2 78.7 500.1 78.5L500.1 78.5Q500.1 78.7 500.1 78.8L500.1 78.8Q500.1 79.2 500.1 79.6Q500.1 80.0 500.1 80.4Q500.1 80.7 500.1 81.0L500.1 81.0L500.1 86ZM514.4 86.1L514.4 86.1Q513.3 86.1 512.4 85.6Q511.6 85.0 511.1 84.0Q510.6 83.0 510.6 81.6L510.6 81.6Q510.6 80.3 511.1 79.2Q511.6 78.2 512.4 77.7Q513.3 77.2 514.4 77.2L514.4 77.2Q515.6 77.2 516.4 77.7Q517.3 78.2 517.8 79.2Q518.3 80.3 518.3 81.6L518.3 81.6Q518.3 83.0 517.8 84.0Q517.3 85.0 516.4 85.6Q515.6 86.1 514.4 86.1ZM514.4 85.1L514.4 85.1Q515.2 85.1 515.8 84.7Q516.5 84.3 516.8 83.5Q517.2 82.8 517.2 81.6L517.2 81.6Q517.2 80.5 516.8 79.7Q516.5 79.0 515.8 78.6Q515.2 78.2 514.4 78.2L514.4 78.2Q513.6 78.2 513.0 78.6Q512.4 79.0 512.0 79.8Q511.6 80.5 511.6 81.6L511.6 81.6Q511.6 82.8 512.0 83.5Q512.4 84.3 513.0 84.7Q513.6 85.1 514.4 85.1ZM523.8 86L523.8 86L521.1 86L521.1 77.3L523.9 77.3Q525.2 77.3 526.1 77.8Q527.0 78.3 527.5 79.3Q528.0 80.3 528.0 81.6L528.0 81.6Q528.0 83.0 527.5 84.0Q527.0 84.9 526.1 85.5Q525.1 86 523.8 86ZM522.2 78.3L522.2 85.0L523.7 85.0Q524.8 85.0 525.5 84.6Q526.2 84.2 526.5 83.4Q526.9 82.7 526.9 81.6L526.9 81.6Q526.9 80.6 526.5 79.8Q526.2 79.1 525.5 78.7Q524.8 78.3 523.8 78.3L523.8 78.3L522.2 78.3ZM534.1 86.1L534.1 86.1Q533.1 86.1 532.3 85.7Q531.6 85.3 531.2 84.6Q530.7 83.9 530.7 83.0L530.7 83.0L530.7 77.3L531.8 77.3L531.8 82.9Q531.8 83.6 532.1 84.1Q532.4 84.5 532.9 84.8Q533.4 85.1 534.1 85.1L534.1 85.1Q534.9 85.1 535.4 84.8Q535.9 84.5 536.2 84.1Q536.4 83.6 536.4 82.9L536.4 82.9L536.4 77.3L537.6 77.3L537.6 83.0Q537.6 83.9 537.1 84.6Q536.7 85.3 535.9 85.7Q535.2 86.1 534.1 86.1ZM545.8 86L540.7 86L540.7 77.3L541.8 77.3L541.8 85.0L545.8 85.0L545.8 86ZM553.8 86L548.4 86L548.4 77.3L553.8 77.3L553.8 78.3L549.6 78.3L549.6 81.1L553.5 81.1L553.5 82.1L549.6 82.1L549.6 85.0L553.8 85.0L553.8 86ZM559.5 86.2L559.5 86.2Q558.5 86.2 557.8 85.8Q557.1 85.5 556.7 85.0Q556.3 84.4 556.3 83.7L556.3 83.7L557.4 83.7Q557.5 84.2 557.8 84.5Q558.0 84.8 558.5 85.0Q558.9 85.2 559.5 85.2L559.5 85.2Q560.0 85.2 560.5 85.0Q561.0 84.8 561.3 84.4Q561.5 84.1 561.5 83.6L561.5 83.6Q561.5 83.2 561.3 82.9Q561.1 82.7 560.7 82.5Q560.3 82.3 559.8 82.2L559.8 82.2L558.8 81.9Q557.7 81.6 557.1 81.0Q556.5 80.5 556.5 79.6L556.5 79.6Q556.5 78.9 556.9 78.3Q557.3 77.8 558.0 77.5Q558.7 77.2 559.5 77.2L559.5 77.2Q560.4 77.2 561.1 77.5Q561.7 77.8 562.1 78.3Q562.5 78.8 562.5 79.5L562.5 79.5L561.4 79.5Q561.3 78.8 560.8 78.5Q560.3 78.1 559.5 78.1L559.5 78.1Q558.9 78.1 558.5 78.3Q558.1 78.5 557.8 78.8Q557.6 79.1 557.6 79.6L557.6 79.6Q557.6 80.0 557.9 80.3Q558.2 80.6 558.6 80.7Q559.0 80.9 559.3 81.0L559.3 81.0L560.2 81.2Q560.5 81.3 560.9 81.5Q561.4 81.6 561.7 81.9Q562.1 82.2 562.4 82.6Q562.6 83.0 562.6 83.6L562.6 83.6Q562.6 84.3 562.3 84.9Q561.9 85.5 561.2 85.8Q560.5 86.2 559.5 86.2Z M570.8 86L569.7 86L569.7 77.3L571.3 77.3L573.5 82.8Q573.5 83.0 573.6 83.3Q573.7 83.6 573.8 83.9Q574.0 84.2 574.1 84.6L574.1 84.6Q574.1 84.7 574.1 84.8L574.1 84.8Q574.1 84.7 574.2 84.6L574.2 84.6Q574.3 84.3 574.4 83.9Q574.5 83.6 574.6 83.3Q574.7 83.0 574.8 82.8L574.8 82.8L576.9 77.3L578.5 77.3L578.5 86L577.4 86L577.4 81.0Q577.4 80.7 577.4 80.4Q577.4 80.1 577.4 79.7Q577.4 79.3 577.4 78.9L577.4 78.9Q577.4 78.7 577.4 78.5L577.4 78.5Q577.3 78.7 577.3 79.0L577.3 79.0Q577.1 79.4 577.0 79.8Q576.8 80.2 576.7 80.5Q576.6 80.8 576.5 81.0L576.5 81.0L574.6 86L573.6 86L571.6 81.0Q571.5 80.8 571.4 80.5Q571.3 80.2 571.2 79.8Q571.1 79.4 570.9 79.0L570.9 79.0Q570.8 78.7 570.8 78.5L570.8 78.5Q570.8 78.7 570.8 78.8L570.8 78.8Q570.8 79.2 570.8 79.6Q570.8 80.0 570.8 80.4Q570.8 80.7 570.8 81.0L570.8 81.0L570.8 86ZM586.9 86L581.6 86L581.6 77.3L586.9 77.3L586.9 78.3L582.7 78.3L582.7 81.1L586.6 81.1L586.6 82.1L582.7 82.1L582.7 85.0L586.9 85.0L586.9 86ZM584.7 76.4L583.8 76.4L584.6 74.7L585.8 74.7L584.7 76.4ZM592.1 78.3L589.3 78.3L589.3 77.3L595.9 77.3L595.9 78.3L593.2 78.3L593.2 86L592.1 86L592.1 78.3ZM598.5 77.3L599.6 77.3L599.6 86L598.5 86L598.5 77.3ZM608.1 86L602.8 86L602.8 77.3L608.1 77.3L608.1 78.3L603.9 78.3L603.9 81.1L607.8 81.1L607.8 82.1L603.9 82.1L603.9 85.0L608.1 85.0L608.1 86ZM612.1 86L611.0 86L611.0 77.3L614.0 77.3Q615.0 77.3 615.6 77.6Q616.3 78.0 616.6 78.6Q616.9 79.2 616.9 80.0Q616.9 80.7 616.6 81.3Q616.3 81.9 615.6 82.3L615.6 82.3Q615.5 82.4 615.3 82.4L615.3 82.4L617.3 86L616.0 86L614.2 82.6Q614.1 82.6 614.0 82.6L614.0 82.6L612.1 82.6L612.1 86ZM612.1 78.2L612.1 81.6L613.9 81.6Q614.6 81.6 615.0 81.4Q615.4 81.2 615.6 80.8Q615.8 80.5 615.8 80.0L615.8 80.0Q615.8 79.4 615.6 79.1Q615.4 78.7 615.0 78.5Q614.6 78.2 613.9 78.2L613.9 78.2L612.1 78.2Z "/></g><mask id="satori_om-id-5"><rect x="666" y="37" width="1" height="46" fill="#fff"/></mask><rect x="666" y="37" width="1" height="46" fill="#1e293b"/><mask id="satori_om-id-6"><rect x="670" y="31" width="210" height="58" fill="#fff"/></mask><clipPath id="satori_bct-id-6-0"><path d="M765.5 59.6L753.7 59.6L753.7 55.6L764.0 39.3L770.4 39.3L770.4 55.5L773.5 55.5L773.5 59.6L770.4 59.6L770.4 64L765.5 64L765.5 59.6ZM758.8 55.5L765.6 55.5L765.6 44.8L765.4 44.8L758.8 55.3L758.8 55.5ZM788.6 62.6L784.4 62.6L784.4 56.1L778.0 56.1L778.0 52.1L784.4 52.1L784.4 45.6L788.6 45.6L788.6 52.1L795.0 52.1L795.0 56.1L788.6 56.1L788.6 62.6Z "/></clipPath><defs><pattern id="satori_pattern_id-6-0_0" x="0" y="0" width="1" height="1" patternUnits="objectBoundingBox"><linearGradient id="satori_biid-6-0_0" x1="0" y1="0" x2="1" y2="0" spreadMethod="pad"><stop offset="0%" stop-color="#34d399"/><stop offset="100%" stop-color="#6ee7b7"/></linearGradient><rect x="0" y="0" width="47" height="41" fill="url(#satori_biid-6-0_0)"/></pattern></defs><mask id="satori_om-id-6-0"><rect x="752" y="31" width="47" height="41" fill="#fff"/></mask><rect x="752" y="31" width="47" height="41" fill="url(#satori_pattern_id-6-0_0)" clip-path="url(#satori_bct-id-6-0)"/><mask id="satori_om-id-6-1"><rect x="717" y="74" width="116" height="15" fill="#fff"/></mask><g  ><path fill="#94a3b8" d="M718.5 86L717.3 86L720.5 77.3L721.8 77.3L725.0 86L723.8 86L722.9 83.6L719.3 83.6L718.5 86ZM719.7 82.6L722.6 82.6L722.0 80.8Q721.8 80.3 721.6 79.6L721.6 79.6Q721.4 79.0 721.1 78.2L721.1 78.2Q720.9 79.0 720.7 79.6L720.7 79.6Q720.4 80.4 720.3 80.8L720.3 80.8L719.7 82.6ZM727.3 77.3L728.4 77.3L728.4 86L727.3 86L727.3 77.3Z M737.0 86L735.9 86L735.9 77.3L737.5 77.3L739.7 82.8Q739.7 83.0 739.8 83.3Q739.9 83.6 740.0 83.9Q740.2 84.2 740.3 84.6L740.3 84.6Q740.3 84.7 740.3 84.8L740.3 84.8Q740.3 84.7 740.4 84.6L740.4 84.6Q740.5 84.3 740.6 83.9Q740.7 83.6 740.8 83.3Q740.9 83.0 741.0 82.8L741.0 82.8L743.1 77.3L744.7 77.3L744.7 86L743.6 86L743.6 81.0Q743.6 80.7 743.6 80.4Q743.6 80.1 743.6 79.7Q743.6 79.3 743.6 78.9L743.6 78.9Q743.6 78.7 743.6 78.5L743.6 78.5Q743.5 78.7 743.4 79.0L743.4 79.0Q743.3 79.4 743.2 79.8Q743.0 80.2 742.9 80.5Q742.8 80.8 742.7 81.0L742.7 81.0L740.8 86L739.8 86L737.8 81.0Q737.7 80.8 737.6 80.5Q737.5 80.2 737.4 79.8Q737.3 79.4 737.1 79.0L737.1 79.0Q737.0 78.7 737.0 78.5L737.0 78.5Q737.0 78.7 737.0 78.8L737.0 78.8Q737.0 79.2 737.0 79.6Q737.0 80.0 737.0 80.4Q737.0 80.7 737.0 81.0L737.0 81.0L737.0 86ZM751.3 86.1L751.3 86.1Q750.2 86.1 749.3 85.6Q748.4 85.0 747.9 84.0Q747.4 83.0 747.4 81.6L747.4 81.6Q747.4 80.3 747.9 79.2Q748.4 78.2 749.3 77.7Q750.2 77.2 751.3 77.2L751.3 77.2Q752.4 77.2 753.3 77.7Q754.2 78.2 754.7 79.2Q755.2 80.3 755.2 81.6L755.2 81.6Q755.2 83.0 754.7 84.0Q754.2 85.0 753.3 85.6Q752.4 86.1 751.3 86.1ZM751.3 85.1L751.3 85.1Q752.1 85.1 752.7 84.7Q753.3 84.3 753.7 83.5Q754.1 82.8 754.1 81.6L754.1 81.6Q754.1 80.5 753.7 79.7Q753.3 79.0 752.7 78.6Q752.1 78.2 751.3 78.2L751.3 78.2Q750.5 78.2 749.9 78.6Q749.3 79.0 748.9 79.8Q748.5 80.5 748.5 81.6L748.5 81.6Q748.5 82.8 748.9 83.5Q749.3 84.3 749.9 84.7Q750.5 85.1 751.3 85.1ZM760.7 86L760.7 86L757.9 86L757.9 77.3L760.8 77.3Q762.1 77.3 763.0 77.8Q763.9 78.3 764.4 79.3Q764.8 80.3 764.8 81.6L764.8 81.6Q764.8 83.0 764.4 84.0Q763.9 84.9 762.9 85.5Q762.0 86 760.7 86ZM759.1 78.3L759.1 85.0L760.6 85.0Q761.7 85.0 762.4 84.6Q763.1 84.2 763.4 83.4Q763.8 82.7 763.8 81.6L763.8 81.6Q763.8 80.6 763.4 79.8Q763.1 79.1 762.4 78.7Q761.7 78.3 760.7 78.3L760.7 78.3L759.1 78.3ZM773.0 86L767.6 86L767.6 77.3L772.9 77.3L772.9 78.3L768.7 78.3L768.7 81.1L772.6 81.1L772.6 82.1L768.7 82.1L768.7 85.0L773.0 85.0L773.0 86ZM781.0 86L775.8 86L775.8 77.3L776.9 77.3L776.9 85.0L781.0 85.0L781.0 86ZM786.4 86.2L786.4 86.2Q785.5 86.2 784.8 85.8Q784.1 85.5 783.7 85.0Q783.3 84.4 783.2 83.7L783.2 83.7L784.4 83.7Q784.4 84.2 784.7 84.5Q785.0 84.8 785.4 85.0Q785.9 85.2 786.4 85.2L786.4 85.2Q787.0 85.2 787.5 85.0Q787.9 84.8 788.2 84.4Q788.5 84.1 788.5 83.6L788.5 83.6Q788.5 83.2 788.2 82.9Q788.0 82.7 787.6 82.5Q787.2 82.3 786.8 82.2L786.8 82.2L785.7 81.9Q784.6 81.6 784.1 81.0Q783.5 80.5 783.5 79.6L783.5 79.6Q783.5 78.9 783.9 78.3Q784.3 77.8 785.0 77.5Q785.6 77.2 786.5 77.2L786.5 77.2Q787.3 77.2 788 77.5Q788.7 77.8 789.0 78.3Q789.4 78.8 789.5 79.5L789.5 79.5L788.4 79.5Q788.3 78.8 787.8 78.5Q787.2 78.1 786.4 78.1L786.4 78.1Q785.9 78.1 785.5 78.3Q785.0 78.5 784.8 78.8Q784.6 79.1 784.6 79.6L784.6 79.6Q784.6 80.0 784.8 80.3Q785.1 80.6 785.5 80.7Q785.9 80.9 786.2 81.0L786.2 81.0L787.1 81.2Q787.4 81.3 787.9 81.5Q788.3 81.6 788.7 81.9Q789.1 82.2 789.3 82.6Q789.6 83.0 789.6 83.6L789.6 83.6Q789.6 84.3 789.2 84.9Q788.8 85.5 788.1 85.8Q787.4 86.2 786.4 86.2Z M800.1 86.1L800.1 86.1Q799.1 86.1 798.3 85.7Q797.5 85.3 797.1 84.6Q796.7 83.9 796.7 83.0L796.7 83.0L796.7 77.3L797.8 77.3L797.8 82.9Q797.8 83.6 798.1 84.1Q798.3 84.5 798.9 84.8Q799.4 85.1 800.1 85.1L800.1 85.1Q800.8 85.1 801.3 84.8Q801.8 84.5 802.1 84.1Q802.4 83.6 802.4 82.9L802.4 82.9L802.4 77.3L803.5 77.3L803.5 83.0Q803.5 83.9 803.1 84.6Q802.7 85.3 801.9 85.7Q801.1 86.1 800.1 86.1ZM809.4 86.2L809.4 86.2Q808.5 86.2 807.8 85.8Q807.1 85.5 806.7 85.0Q806.3 84.4 806.2 83.7L806.2 83.7L807.4 83.7Q807.4 84.2 807.7 84.5Q808.0 84.8 808.4 85.0Q808.9 85.2 809.4 85.2L809.4 85.2Q810.0 85.2 810.5 85.0Q810.9 84.8 811.2 84.4Q811.5 84.1 811.5 83.6L811.5 83.6Q811.5 83.2 811.3 82.9Q811.0 82.7 810.6 82.5Q810.2 82.3 809.8 82.2L809.8 82.2L808.7 81.9Q807.7 81.6 807.1 81.0Q806.5 80.5 806.5 79.6L806.5 79.6Q806.5 78.9 806.9 78.3Q807.3 77.8 808.0 77.5Q808.6 77.2 809.5 77.2L809.5 77.2Q810.3 77.2 811.0 77.5Q811.7 77.8 812.0 78.3Q812.4 78.8 812.5 79.5L812.5 79.5L811.4 79.5Q811.3 78.8 810.8 78.5Q810.2 78.1 809.4 78.1L809.4 78.1Q808.9 78.1 808.5 78.3Q808.0 78.5 807.8 78.8Q807.6 79.1 807.6 79.6L807.6 79.6Q807.6 80.0 807.8 80.3Q808.1 80.6 808.5 80.7Q808.9 80.9 809.2 81.0L809.2 81.0L810.1 81.2Q810.5 81.3 810.9 81.5Q811.3 81.6 811.7 81.9Q812.1 82.2 812.3 82.6Q812.6 83.0 812.6 83.6L812.6 83.6Q812.6 84.3 812.2 84.9Q811.8 85.5 811.1 85.8Q810.4 86.2 809.4 86.2ZM820.7 86L815.3 86L815.3 77.3L820.6 77.3L820.6 78.3L816.4 78.3L816.4 81.1L820.3 81.1L820.3 82.1L816.4 82.1L816.4 85.0L820.7 85.0L820.7 86ZM826.2 86L826.2 86L823.5 86L823.5 77.3L826.4 77.3Q827.6 77.3 828.5 77.8Q829.4 78.3 829.9 79.3Q830.4 80.3 830.4 81.6L830.4 81.6Q830.4 83.0 829.9 84.0Q829.4 84.9 828.5 85.5Q827.6 86 826.2 86ZM824.6 78.3L824.6 85.0L826.2 85.0Q827.2 85.0 827.9 84.6Q828.6 84.2 829.0 83.4Q829.3 82.7 829.3 81.6L829.3 81.6Q829.3 80.6 829.0 79.8Q828.6 79.1 828.0 78.7Q827.3 78.3 826.3 78.3L826.3 78.3L824.6 78.3Z "/></g></svg>