<!-- Generated by readme-aura https://github.com/collectioneur/readme-aura -->
<svg width="900" height="90" viewBox="0 0 900 90" xmlns="http://www.w3.org/2000/svg"><defs><pattern id="satori_pattern_id_0" x="0" y="0" width="1" height="1" patternUnits="objectBoundingBox"><linearGradient id="satori_biid_0" x1="0" y1="0" x2="1" y2="0" spreadMethod="pad"><stop offset="0%" stop-color="#0a0c14"/><stop offset="100%" stop-color="#11141d"/></linearGradient><rect x="0" y="0" width="900" height="90" fill="url(#satori_biid_0)"/></pattern></defs><clipPath id="satori_cp-id"><path x="0" y="0" width="900" height="90" d="M16,0 h868 a16,16 0 0 1 16,16 v58 a16,16 0 0 1 -16,16 h-868 a16,16 0 0 1 -16,-16 v-58 a16,16 0 0 1 16,-16"/></clipPath><mask id="satori_om-id"><rect x="0" y="0" width="900" height="90" fill="#fff"/></mask><path x="0" y="0" width="900" height="90" fill="url(#satori_pattern_id_0)" d="M16,0 h868 a16,16 0 0 1 16,16 v58 a16,16 0 0 1 -16,16 h-868 a16,16 0 0 1 -16,-16 v-58 a16,16 0 0 1 16,-16"/><clipPath id="satori_bct-id-0" clip-path="url(#satori_cp-id)"><path d="M330.0 41L321.3 41L321.3 27.2L324.1 27.2L324.1 38.7L330.0 38.7L330.0 41ZM336.6 41.2L336.6 41.2Q335.0 41.2 333.9 40.6Q332.7 39.9 332.1 38.7Q331.5 37.5 331.5 35.9L331.5 35.9Q331.5 34.3 332.1 33.1Q332.7 31.9 333.8 31.2Q335.0 30.5 336.5 30.5L336.5 30.5Q337.5 30.5 338.4 30.8Q339.3 31.1 339.9 31.8Q340.6 32.5 341.0 33.4Q341.3 34.4 341.3 35.8L341.3 35.8L341.3 36.5L334.3 36.5Q334.3 37.3 334.6 37.9L334.6 37.9Q334.9 38.5 335.4 38.8Q335.9 39.1 336.7 39.1L336.7 39.1Q337.2 39.1 337.6 39.0Q338.0 38.8 338.2 38.6Q338.5 38.3 338.7 37.9L338.7 37.9L341.2 38.4Q340.9 39.2 340.3 39.9Q339.7 40.5 338.8 40.9Q337.8 41.2 336.6 41.2ZM334.3 34.8L334.3 34.8L338.7 34.8Q338.6 34.3 338.4 33.8L338.4 33.8Q338.2 33.3 337.7 32.9Q337.2 32.6 336.5 32.6L336.5 32.6Q335.8 32.6 335.3 32.9Q334.8 33.3 334.5 33.8L334.5 33.8Q334.3 34.3 334.3 34.8ZM346.5 30.6L348.4 30.6L348.4 32.8L346.5 32.8L346.5 38.0Q346.5 38.5 346.7 38.7Q346.9 38.9 347.4 38.9L347.4 38.9Q347.6 38.9 347.9 38.9Q348.1 38.8 348.3 38.8L348.3 38.8L348.7 40.9Q348.2 41.0 347.8 41.1Q347.3 41.1 346.9 41.1L346.9 41.1Q345.3 41.1 344.5 40.4Q343.7 39.6 343.7 38.2L343.7 38.2L343.7 32.8L342.2 32.8L342.2 30.6L343.7 30.6L343.7 28.2L346.5 28.2L346.5 30.6ZM353.3 32.9L351.2 32.9L350.9 27.2L353.6 27.2L353.3 32.9ZM360.8 41.2L360.8 41.2Q359.5 41.2 358.5 40.8Q357.6 40.5 357.0 39.8Q356.4 39.1 356.2 38.2L356.2 38.2L358.8 37.7Q359.0 38.4 359.5 38.8Q360.0 39.2 360.8 39.2L360.8 39.2Q361.6 39.2 362.1 38.9Q362.6 38.6 362.6 38.1L362.6 38.1Q362.6 37.7 362.2 37.4Q361.9 37.2 361.2 37.0L361.2 37.0L359.4 36.7Q357.9 36.4 357.2 35.6Q356.5 34.9 356.5 33.7L356.5 33.7Q356.5 32.7 357.0 32.0Q357.5 31.3 358.5 30.9Q359.5 30.5 360.8 30.5L360.8 30.5Q362.0 30.5 362.9 30.8Q363.8 31.2 364.4 31.8Q364.9 32.4 365.1 33.3L365.1 33.3L362.7 33.7Q362.5 33.2 362.1 32.8Q361.6 32.5 360.8 32.5L360.8 32.5Q360.2 32.5 359.7 32.8Q359.2 33.1 359.2 33.6L359.2 33.6Q359.2 33.9 359.5 34.2Q359.8 34.5 360.6 34.6L360.6 34.6L362.4 35.0Q363.9 35.3 364.7 36.0Q365.4 36.7 365.4 37.8L365.4 37.8Q365.4 38.8 364.8 39.6Q364.2 40.4 363.2 40.8Q362.1 41.2 360.8 41.2Z M377.6 41.2L377.6 41.2Q376.7 41.2 376.2 40.9Q375.6 40.6 375.2 40.2Q374.8 39.8 374.7 39.3L374.7 39.3L374.5 39.3L374.5 41L371.8 41L371.8 27.2L374.6 27.2L374.6 32.4L374.7 32.4Q374.8 32.0 375.2 31.5Q375.6 31.1 376.1 30.8Q376.7 30.5 377.6 30.5L377.6 30.5Q378.8 30.5 379.7 31.1Q380.7 31.7 381.2 32.9Q381.8 34.1 381.8 35.8L381.8 35.8Q381.8 37.6 381.3 38.8Q380.7 39.9 379.7 40.6Q378.8 41.2 377.6 41.2ZM376.7 38.9L376.7 38.9Q377.5 38.9 378.0 38.5Q378.5 38.1 378.7 37.4Q379.0 36.7 379.0 35.8L379.0 35.8Q379.0 34.9 378.7 34.2Q378.5 33.5 378.0 33.1Q377.5 32.7 376.7 32.7L376.7 32.7Q376.0 32.7 375.5 33.1Q375.0 33.5 374.8 34.2Q374.5 34.9 374.5 35.8L374.5 35.8Q374.5 36.8 374.8 37.5Q375.0 38.2 375.5 38.6Q376.0 38.9 376.7 38.9ZM387.3 41.1L387.3 41.1Q386.3 41.1 385.5 40.7Q384.6 40.2 384.2 39.3Q383.8 38.4 383.8 37.2L383.8 37.2L383.8 30.6L386.5 30.6L386.5 36.7Q386.5 37.7 387.0 38.3Q387.5 38.8 388.4 38.8L388.4 38.8Q389.0 38.8 389.5 38.5Q389.9 38.3 390.2 37.8Q390.4 37.3 390.4 36.6L390.4 36.6L390.4 30.6L393.2 30.6L393.2 41L390.6 41L390.6 38.8Q390.2 39.8 389.5 40.4L389.5 40.4Q388.6 41.1 387.3 41.1ZM398.4 41L395.6 41L395.6 30.6L398.4 30.6L398.4 41ZM397.0 29.3L397.0 29.3Q396.4 29.3 395.9 28.9Q395.5 28.4 395.5 27.8L395.5 27.8Q395.5 27.3 395.9 26.8Q396.4 26.4 397.0 26.4L397.0 26.4Q397.6 26.4 398.1 26.8Q398.5 27.2 398.5 27.8L398.5 27.8Q398.5 28.4 398.1 28.9Q397.6 29.3 397.0 29.3ZM400.7 27.2L403.5 27.2L403.5 41L400.7 41L400.7 27.2ZM409.7 41.2L409.7 41.2Q408.5 41.2 407.5 40.6Q406.6 39.9 406.0 38.8Q405.5 37.6 405.5 35.8L405.5 35.8Q405.5 34.1 406.0 32.9Q406.6 31.7 407.6 31.1Q408.5 30.5 409.7 30.5L409.7 30.5Q410.5 30.5 411.1 30.8Q411.7 31.1 412.1 31.5Q412.4 32.0 412.6 32.4L412.6 32.4L412.7 32.4L412.7 27.2L415.5 27.2L415.5 41L412.8 41L412.8 39.3L412.6 39.3Q412.4 39.8 412.1 40.2Q411.7 40.6 411.1 40.9Q410.5 41.2 409.7 41.2ZM410.5 38.9L410.5 38.9Q411.2 38.9 411.7 38.6Q412.2 38.2 412.5 37.5Q412.8 36.8 412.8 35.8L412.8 35.8Q412.8 34.9 412.5 34.2Q412.3 33.5 411.8 33.1Q411.3 32.7 410.5 32.7L410.5 32.7Q409.8 32.7 409.3 33.1Q408.8 33.5 408.6 34.2Q408.3 34.9 408.3 35.8L408.3 35.8Q408.3 36.7 408.6 37.4Q408.8 38.1 409.3 38.5Q409.8 38.9 410.5 38.9Z M426.5 41.2L426.5 41.2Q425.2 41.2 424.3 40.8Q423.3 40.5 422.7 39.8Q422.1 39.1 421.9 38.2L421.9 38.2L424.5 37.7Q424.7 38.4 425.2 38.8Q425.7 39.2 426.6 39.2L426.6 39.2Q427.4 39.2 427.8 38.9Q428.3 38.6 428.3 38.1L428.3 38.1Q428.3 37.7 428.0 37.4Q427.6 37.2 426.9 37.0L426.9 37.0L425.2 36.7Q423.7 36.4 422.9 35.6Q422.2 34.9 422.2 33.7L422.2 33.7Q422.2 32.7 422.7 32.0Q423.3 31.3 424.2 30.9Q425.2 30.5 426.5 30.5L426.5 30.5Q427.8 30.5 428.7 30.8Q429.6 31.2 430.1 31.8Q430.7 32.4 430.9 33.3L430.9 33.3L428.4 33.7Q428.2 33.2 427.8 32.8Q427.3 32.5 426.6 32.5L426.6 32.5Q425.9 32.5 425.4 32.8Q425.0 33.1 425.0 33.6L425.0 33.6Q425.0 33.9 425.3 34.2Q425.6 34.5 426.3 34.6L426.3 34.6L428.2 35.0Q429.7 35.3 430.4 36.0Q431.1 36.7 431.1 37.8L431.1 37.8Q431.1 38.8 430.5 39.6Q429.9 40.4 428.9 40.8Q427.8 41.2 426.5 41.2ZM437.6 41.2L437.6 41.2Q436.1 41.2 434.9 40.5Q433.8 39.9 433.2 38.7Q432.6 37.5 432.6 35.9L432.6 35.9Q432.6 34.2 433.2 33.0Q433.8 31.8 434.9 31.2Q436.1 30.5 437.6 30.5L437.6 30.5Q439.2 30.5 440.4 31.2Q441.5 31.8 442.1 33.0Q442.7 34.2 442.7 35.9L442.7 35.9Q442.7 37.5 442.1 38.7Q441.5 39.9 440.4 40.5Q439.2 41.2 437.6 41.2ZM437.6 39.0L437.6 39.0Q438.4 39.0 438.9 38.6Q439.4 38.2 439.6 37.5Q439.9 36.8 439.9 35.9L439.9 35.9Q439.9 34.9 439.6 34.2Q439.4 33.5 438.9 33.1Q438.4 32.7 437.6 32.7L437.6 32.7Q436.9 32.7 436.4 33.1Q435.9 33.5 435.7 34.2Q435.4 34.9 435.4 35.9L435.4 35.9Q435.4 36.8 435.7 37.5Q435.9 38.2 436.4 38.6Q436.9 39.0 437.6 39.0ZM447.4 41L444.7 41L444.7 30.6L447.2 30.6L447.4 32.6Q447.6 32.1 447.9 31.6L447.9 31.6Q448.4 31.0 449.0 30.8Q449.6 30.5 450.3 30.5L450.3 30.5Q451.4 30.5 452.1 31.2L452.1 31.2Q452.7 31.7 453.0 32.8L453.0 32.8Q453.2 32.2 453.6 31.7L453.6 31.7Q454.1 31.1 454.8 30.8Q455.5 30.5 456.3 30.5L456.3 30.5Q457.3 30.5 458.0 30.9Q458.8 31.3 459.2 32.1Q459.6 32.9 459.6 34.0L459.6 34.0L459.6 41L456.8 41L456.8 34.5Q456.8 33.7 456.4 33.2Q455.9 32.8 455.2 32.8L455.2 32.8Q454.7 32.8 454.3 33.0Q453.9 33.3 453.7 33.7Q453.5 34.1 453.5 34.6L453.5 34.6L453.5 41L450.8 41L450.8 34.5Q450.8 33.7 450.3 33.2Q449.9 32.8 449.2 32.8L449.2 32.8Q448.7 32.8 448.3 33.0Q447.9 33.2 447.7 33.7Q447.4 34.1 447.4 34.7L447.4 34.7L447.4 41ZM466.7 41.2L466.7 41.2Q465.1 41.2 463.9 40.6Q462.8 39.9 462.2 38.7Q461.6 37.5 461.6 35.9L461.6 35.9Q461.6 34.3 462.2 33.1Q462.8 31.9 463.9 31.2Q465.0 30.5 466.5 30.5L466.5 30.5Q467.6 30.5 468.4 30.8Q469.3 31.1 470.0 31.8Q470.7 32.5 471.0 33.4Q471.4 34.4 471.4 35.8L471.4 35.8L471.4 36.5L464.3 36.5Q464.3 37.3 464.6 37.9L464.6 37.9Q464.9 38.5 465.5 38.8Q466.0 39.1 466.7 39.1L466.7 39.1Q467.2 39.1 467.6 39.0Q468.0 38.8 468.3 38.6Q468.6 38.3 468.7 37.9L468.7 37.9L471.3 38.4Q471.0 39.2 470.4 39.9Q469.8 40.5 468.8 40.9Q467.9 41.2 466.7 41.2ZM464.3 34.8L464.3 34.8L468.7 34.8Q468.7 34.3 468.5 33.8L468.5 33.8Q468.3 33.3 467.8 32.9Q467.3 32.6 466.6 32.6L466.6 32.6Q465.8 32.6 465.3 32.9Q464.8 33.3 464.6 33.8L464.6 33.8Q464.4 34.3 464.3 34.8ZM476.5 30.6L478.5 30.6L478.5 32.8L476.5 32.8L476.5 38.0Q476.5 38.5 476.7 38.7Q477.0 38.9 477.5 38.9L477.5 38.9Q477.6 38.9 477.9 38.9Q478.2 38.8 478.4 38.8L478.4 38.8L478.8 40.9Q478.3 41.0 477.8 41.1Q477.4 41.1 477.0 41.1L477.0 41.1Q475.4 41.1 474.6 40.4Q473.7 39.6 473.7 38.2L473.7 38.2L473.7 32.8L472.3 32.8L472.3 30.6L473.7 30.6L473.7 28.2L476.5 28.2L476.5 30.6ZM483.1 35.0L483.1 35.0L483.1 41L480.3 41L480.3 27.2L483.0 27.2L483.0 32.6Q483.4 31.7 484.0 31.2L484.0 31.2Q484.8 30.5 486.2 30.5L486.2 30.5Q487.2 30.5 488.0 31.0Q488.8 31.4 489.3 32.3Q489.7 33.2 489.7 34.4L489.7 34.4L489.7 41L486.9 41L486.9 34.9Q486.9 33.9 486.4 33.4Q486.0 32.8 485.1 32.8L485.1 32.8Q484.5 32.8 484.0 33.1Q483.6 33.3 483.3 33.8Q483.1 34.3 483.1 35.0ZM494.9 41L492.1 41L492.1 30.6L494.9 30.6L494.9 41ZM493.5 29.3L493.5 29.3Q492.9 29.3 492.4 28.9Q492.0 28.4 492.0 27.8L492.0 27.8Q492.0 27.3 492.4 26.8Q492.9 26.4 493.5 26.4L493.5 26.4Q494.1 26.4 494.6 26.8Q495.0 27.2 495.0 27.8L495.0 27.8Q495.0 28.4 494.6 28.9Q494.1 29.3 493.5 29.3ZM500.0 35.0L500.0 35.0L500.0 41L497.3 41L497.3 30.6L499.9 30.6L499.9 32.8Q500.3 31.8 501.0 31.2L501.0 31.2Q501.8 30.5 503.1 30.5L503.1 30.5Q504.2 30.5 505.0 31.0Q505.8 31.4 506.3 32.3Q506.7 33.2 506.7 34.4L506.7 34.4L506.7 41L503.9 41L503.9 34.9Q503.9 33.9 503.4 33.4Q502.9 32.8 502.0 32.8L502.0 32.8Q501.5 32.8 501.0 33.1Q500.5 33.3 500.3 33.8Q500.0 34.3 500.0 35.0ZM513.7 45.1L513.7 45.1Q512.4 45.1 511.4 44.8Q510.5 44.4 509.9 43.9Q509.3 43.3 509.0 42.6L509.0 42.6L511.4 41.9Q511.5 42.2 511.8 42.5Q512.1 42.7 512.6 42.9Q513.0 43.1 513.7 43.1L513.7 43.1Q514.7 43.1 515.3 42.6Q516.0 42.1 516.0 41.1L516.0 41.1L516.0 39.2L515.7 39.2Q515.6 39.6 515.2 40.0Q514.9 40.4 514.3 40.6Q513.7 40.9 512.9 40.9L512.9 40.9Q511.7 40.9 510.7 40.3Q509.8 39.8 509.2 38.6Q508.6 37.5 508.6 35.8L508.6 35.8Q508.6 34.0 509.2 32.9Q509.8 31.7 510.8 31.1Q511.7 30.5 512.9 30.5L512.9 30.5Q513.7 30.5 514.3 30.8Q514.9 31.1 515.3 31.5Q515.7 32.0 515.9 32.4L515.9 32.4L516.0 32.4L516.0 30.6L518.7 30.6L518.7 40.9Q518.7 42.3 518.1 43.2Q517.4 44.2 516.3 44.6Q515.2 45.1 513.7 45.1ZM513.7 38.7L513.7 38.7Q514.5 38.7 514.9 38.4Q515.4 38.0 515.7 37.4Q516.0 36.7 516.0 35.8L516.0 35.8Q516.0 34.9 515.7 34.2Q515.4 33.5 514.9 33.1Q514.5 32.7 513.7 32.7L513.7 32.7Q513.0 32.7 512.5 33.1Q512.0 33.5 511.8 34.2Q511.5 34.9 511.5 35.8L511.5 35.8Q511.5 36.7 511.8 37.3Q512.0 38.0 512.5 38.4Q513.0 38.7 513.7 38.7Z M530.2 45.1L530.2 45.1Q528.9 45.1 527.9 44.8Q527.0 44.4 526.4 43.9Q525.8 43.3 525.5 42.6L525.5 42.6L527.9 41.9Q528.1 42.2 528.3 42.5Q528.6 42.7 529.1 42.9Q529.5 43.1 530.2 43.1L530.2 43.1Q531.2 43.1 531.9 42.6Q532.5 42.1 532.5 41.1L532.5 41.1L532.5 39.2L532.2 39.2Q532.1 39.6 531.7 40.0Q531.4 40.4 530.8 40.6Q530.2 40.9 529.4 40.9L529.4 40.9Q528.2 40.9 527.2 40.3Q526.3 39.8 525.7 38.6Q525.1 37.5 525.1 35.8L525.1 35.8Q525.1 34.0 525.7 32.9Q526.3 31.7 527.3 31.1Q528.2 30.5 529.4 30.5L529.4 30.5Q530.3 30.5 530.8 30.8Q531.4 31.1 531.8 31.5Q532.2 32.0 532.4 32.4L532.4 32.4L532.5 32.4L532.5 30.6L535.2 30.6L535.2 40.9Q535.2 42.3 534.6 43.2Q533.9 44.2 532.8 44.6Q531.7 45.1 530.2 45.1ZM530.2 38.7L530.2 38.7Q531.0 38.7 531.5 38.4Q532.0 38.0 532.2 37.4Q532.5 36.7 532.5 35.8L532.5 35.8Q532.5 34.9 532.2 34.2Q532.0 33.5 531.5 33.1Q531.0 32.7 530.2 32.7L530.2 32.7Q529.5 32.7 529.0 33.1Q528.5 33.5 528.3 34.2Q528.0 34.9 528.0 35.8L528.0 35.8Q528.0 36.7 528.3 37.3Q528.5 38.0 529.0 38.4Q529.5 38.7 530.2 38.7ZM540.4 41L537.6 41L537.6 30.6L540.3 30.6L540.3 32.4L540.4 32.4Q540.7 31.5 541.4 31.0Q542.0 30.5 542.9 30.5L542.9 30.5Q543.1 30.5 543.4 30.5Q543.6 30.5 543.8 30.6L543.8 30.6L543.8 33.1Q543.6 33.0 543.3 33.0Q542.9 32.9 542.6 32.9L542.6 32.9Q542.0 32.9 541.5 33.2Q540.9 33.5 540.7 34.0Q540.4 34.5 540.4 35.1L540.4 35.1L540.4 41ZM550.0 41.2L550.0 41.2Q548.4 41.2 547.3 40.6Q546.1 39.9 545.5 38.7Q544.9 37.5 544.9 35.9L544.9 35.9Q544.9 34.3 545.5 33.1Q546.1 31.9 547.2 31.2Q548.4 30.5 549.9 30.5L549.9 30.5Q550.9 30.5 551.8 30.8Q552.7 31.1 553.3 31.8Q554.0 32.5 554.4 33.4Q554.7 34.4 554.7 35.8L554.7 35.8L554.7 36.5L547.6 36.5Q547.7 37.3 548.0 37.9L548.0 37.9Q548.3 38.5 548.8 38.8Q549.3 39.1 550.1 39.1L550.1 39.1Q550.6 39.1 551.0 39.0Q551.3 38.8 551.6 38.6Q551.9 38.3 552.1 37.9L552.1 37.9L554.6 38.4Q554.3 39.2 553.7 39.9Q553.1 40.5 552.2 40.9Q551.2 41.2 550.0 41.2ZM547.7 34.8L547.7 34.8L552.1 34.8Q552.0 34.3 551.8 33.8L551.8 33.8Q551.6 33.3 551.1 32.9Q550.6 32.6 549.9 32.6L549.9 32.6Q549.2 32.6 548.7 32.9Q548.2 33.3 547.9 33.8L547.9 33.8Q547.7 34.3 547.7 34.8ZM559.5 41.2L559.5 41.2Q558.6 41.2 557.8 40.9Q557.0 40.5 556.5 39.8Q556.1 39.1 556.1 38.1L556.1 38.1Q556.1 37.2 556.4 36.6Q556.7 36.1 557.3 35.7Q557.8 35.4 558.5 35.2Q559.2 35.0 560.0 34.9L560.0 34.9Q560.9 34.8 561.5 34.7Q562.0 34.7 562.3 34.5Q562.5 34.3 562.5 34.0L562.5 34.0L562.5 33.9Q562.5 33.5 562.3 33.2Q562.1 32.9 561.8 32.7Q561.4 32.6 560.9 32.6L560.9 32.6Q560.4 32.6 560.0 32.7Q559.6 32.9 559.3 33.2Q559.1 33.4 558.9 33.8L558.9 33.8L556.4 33.3Q556.7 32.4 557.3 31.8Q557.9 31.2 558.8 30.8Q559.7 30.5 560.9 30.5L560.9 30.5Q561.7 30.5 562.5 30.7Q563.3 30.9 563.9 31.3Q564.6 31.7 564.9 32.4Q565.3 33.1 565.3 34.0L565.3 34.0L565.3 41L562.7 41L562.7 39.6L562.6 39.6Q562.3 40.0 561.9 40.4Q561.5 40.8 560.9 41.0Q560.3 41.2 559.5 41.2ZM560.3 39.2L560.3 39.2Q561.0 39.2 561.5 39.0Q562.0 38.7 562.3 38.3Q562.5 37.8 562.5 37.3L562.5 37.3L562.5 36.2Q562.4 36.3 562.2 36.3Q561.9 36.4 561.6 36.5Q561.3 36.5 561.0 36.6Q560.7 36.6 560.5 36.6L560.5 36.6Q560.0 36.7 559.6 36.9Q559.2 37.0 559.0 37.3Q558.8 37.6 558.8 38.0L558.8 38.0Q558.8 38.4 559.0 38.7Q559.2 39.0 559.5 39.1Q559.9 39.2 560.3 39.2ZM570.9 30.6L572.8 30.6L572.8 32.8L570.9 32.8L570.9 38.0Q570.9 38.5 571.1 38.7Q571.3 38.9 571.8 38.9L571.8 38.9Q572.0 38.9 572.3 38.9Q572.6 38.8 572.7 38.8L572.7 38.8L573.1 40.9Q572.6 41.0 572.2 41.1Q571.7 41.1 571.3 41.1L571.3 41.1Q569.8 41.1 568.9 40.4Q568.1 39.6 568.1 38.2L568.1 38.2L568.1 32.8L566.7 32.8L566.7 30.6L568.1 30.6L568.1 28.2L570.9 28.2L570.9 30.6ZM576.6 41.2L576.6 41.2Q575.9 41.2 575.5 40.7Q575.0 40.3 575.0 39.6L575.0 39.6Q575.0 38.9 575.5 38.4Q575.9 38.0 576.6 38.0L576.6 38.0Q577.3 38.0 577.8 38.4Q578.2 38.9 578.2 39.6L578.2 39.6Q578.2 40.3 577.8 40.7Q577.3 41.2 576.6 41.2Z "/></clipPath><defs><pattern id="satori_pattern_id-0_0" x="0" y="0" width="1" height="1" patternUnits="objectBoundingBox"><linearGradient id="satori_biid-0_0" x1="0" y1="0" x2="1" y2="0" spreadMethod="pad"><stop offset="0%" stop-color="#22d3ee"/><stop offset="50%" stop-color="#a78bfa"/><stop offset="100%" stop-color="#f472b6"/></linearGradient><rect x="0" y="0" width="260" height="23" fill="url(#satori_biid-0_0)"/></pattern></defs><mask id="satori_om-id-0"><rect x="320" y="23" width="260" height="23" fill="#fff" mask="url(#satori_om-id)"/></mask><rect x="320" y="23" width="260" height="23" fill="url(#satori_pattern_id-0_0)" clip-path="url(#satori_bct-id-0)" mask="url(#satori_om-id)"/><mask id="satori_om-id-1"><rect x="284" y="52" width="332" height="16" fill="#fff" mask="url(#satori_om-id)"/></mask><g mask="url(#satori_om-id)" clip-path="url(#satori_cp-id)"><path fill="#64748b" d="M286.3 65L285.1 65L285.1 55.5L286.3 55.5L286.3 59.6L291.3 59.6L291.3 55.5L292.5 55.5L292.5 65L291.3 65L291.3 60.7L286.3 60.7L286.3 65ZM300.6 65L294.8 65L294.8 55.5L300.6 55.5L300.6 56.6L296.0 56.6L296.0 59.7L300.3 59.7L300.3 60.8L296.0 60.8L296.0 63.9L300.6 63.9L300.6 65ZM305.1 56.6L302.1 56.6L302.1 55.5L309.2 55.5L309.2 56.6L306.3 56.6L306.3 65L305.1 65L305.1 56.6ZM311.0 55.5L312.2 55.5L312.2 65L311.0 65L311.0 55.5ZM318.3 65.1L318.3 65.1Q317.1 65.1 316.2 64.5Q315.2 64.0 314.7 62.9Q314.1 61.8 314.1 60.3L314.1 60.3Q314.1 58.8 314.7 57.7Q315.2 56.6 316.2 56.0Q317.1 55.4 318.3 55.4L318.3 55.4Q319.0 55.4 319.7 55.6Q320.3 55.8 320.8 56.2Q321.3 56.6 321.7 57.2Q322.0 57.8 322.1 58.5L322.1 58.5L320.9 58.5Q320.8 58.0 320.6 57.7Q320.3 57.3 320.0 57.0Q319.6 56.8 319.2 56.7Q318.8 56.5 318.3 56.5L318.3 56.5Q317.5 56.5 316.8 57.0Q316.1 57.4 315.7 58.2Q315.3 59.1 315.3 60.3L315.3 60.3Q315.3 61.5 315.7 62.3Q316.1 63.2 316.8 63.6Q317.5 64.0 318.3 64.0L318.3 64.0Q318.8 64.0 319.2 63.9Q319.6 63.7 320.0 63.5Q320.3 63.2 320.6 62.9Q320.8 62.5 320.9 62.0L320.9 62.0L322.1 62.0Q322.0 62.7 321.7 63.3Q321.3 63.9 320.8 64.3Q320.3 64.7 319.7 64.9Q319.1 65.1 318.3 65.1Z M328.4 61.4L328.4 61.4Q328.0 61.4 327.8 61.1Q327.5 60.9 327.5 60.5L327.5 60.5Q327.5 60.2 327.8 59.9Q328.0 59.6 328.4 59.6L328.4 59.6Q328.7 59.6 329.0 59.9Q329.2 60.2 329.2 60.5L329.2 60.5Q329.2 60.9 329.0 61.1Q328.7 61.4 328.4 61.4Z M336.2 65L335.1 65L335.1 55.5L336.8 55.5L339.1 61.5Q339.2 61.7 339.3 62.0Q339.4 62.3 339.5 62.7Q339.6 63.1 339.7 63.4L339.7 63.4Q339.8 63.6 339.8 63.7L339.8 63.7Q339.8 63.6 339.9 63.5L339.9 63.5Q340.0 63.1 340.1 62.7Q340.2 62.4 340.3 62.0Q340.4 61.7 340.5 61.5L340.5 61.5L342.8 55.5L344.5 55.5L344.5 65L343.3 65L343.3 59.6Q343.3 59.3 343.3 58.9Q343.3 58.6 343.3 58.1Q343.4 57.7 343.4 57.3L343.4 57.3Q343.4 57.1 343.4 56.8L343.4 56.8Q343.3 57.1 343.2 57.4L343.2 57.4Q343.0 57.8 342.9 58.2Q342.8 58.7 342.6 59.0Q342.5 59.4 342.4 59.6L342.4 59.6L340.3 65L339.3 65L337.1 59.6Q337.0 59.4 336.9 59.0Q336.8 58.7 336.6 58.3Q336.5 57.9 336.3 57.4L336.3 57.4Q336.3 57.1 336.2 56.8L336.2 56.8Q336.2 57.0 336.2 57.2L336.2 57.2Q336.2 57.7 336.2 58.1Q336.2 58.5 336.2 58.9Q336.2 59.3 336.2 59.6L336.2 59.6L336.2 65ZM348.6 65.2L348.6 65.2Q348.0 65.2 347.4 64.9Q346.9 64.7 346.5 64.2Q346.2 63.7 346.2 63.0L346.2 63.0Q346.2 62.4 346.5 62.0Q346.7 61.6 347.1 61.4Q347.5 61.2 348.0 61.1Q348.5 61.0 349.0 60.9L349.0 60.9Q349.6 60.8 350.0 60.8Q350.4 60.7 350.6 60.6Q350.8 60.5 350.8 60.2L350.8 60.2L350.8 60.2Q350.8 59.8 350.6 59.5Q350.5 59.1 350.1 59.0Q349.8 58.8 349.3 58.8L349.3 58.8Q348.8 58.8 348.5 59.0Q348.1 59.1 347.9 59.4Q347.6 59.6 347.5 59.9L347.5 59.9L346.4 59.5Q346.7 58.8 347.2 58.5Q347.6 58.1 348.2 58.0Q348.7 57.8 349.3 57.8L349.3 57.8Q349.6 57.8 350.1 57.9Q350.6 58.0 351.0 58.2Q351.4 58.5 351.7 59.0Q352.0 59.5 352.0 60.3L352.0 60.3L352.0 65L350.8 65L350.8 64.0L350.8 64.0Q350.6 64.3 350.4 64.5Q350.1 64.8 349.7 65.0Q349.2 65.2 348.6 65.2ZM348.8 64.2L348.8 64.2Q349.5 64.2 349.9 63.9Q350.4 63.7 350.6 63.3Q350.8 62.9 350.8 62.4L350.8 62.4L350.8 61.5Q350.7 61.5 350.5 61.6Q350.3 61.7 350.0 61.7Q349.7 61.8 349.4 61.8Q349.1 61.8 348.9 61.9L348.9 61.9Q348.5 61.9 348.2 62.0Q347.8 62.2 347.6 62.4Q347.4 62.6 347.4 63.0L347.4 63.0Q347.4 63.4 347.6 63.7Q347.8 63.9 348.1 64.0Q348.4 64.2 348.8 64.2ZM356.4 65.2L356.4 65.2Q355.6 65.2 355.1 64.9Q354.5 64.7 354.1 64.3Q353.8 63.9 353.6 63.3L353.6 63.3L354.7 63.0Q354.9 63.6 355.3 63.9Q355.7 64.1 356.4 64.1L356.4 64.1Q357.1 64.1 357.5 63.8Q358.0 63.5 358.0 63.1L358.0 63.1Q358.0 62.7 357.7 62.5Q357.5 62.2 356.9 62.1L356.9 62.1L355.8 61.8Q354.8 61.6 354.3 61.1Q353.9 60.6 353.9 59.9L353.9 59.9Q353.9 59.3 354.2 58.8Q354.5 58.3 355.1 58.1Q355.7 57.8 356.5 57.8L356.5 57.8Q357.2 57.8 357.7 58.0Q358.2 58.3 358.6 58.6Q358.9 59.0 359.0 59.5L359.0 59.5L358.0 59.8Q357.9 59.4 357.5 59.1Q357.2 58.8 356.5 58.8L356.5 58.8Q355.9 58.8 355.4 59.1Q355.0 59.4 355.0 59.8L355.0 59.8Q355.0 60.2 355.3 60.4Q355.6 60.7 356.2 60.8L356.2 60.8L357.3 61.1Q358.2 61.3 358.7 61.8Q359.2 62.3 359.2 63.0L359.2 63.0Q359.2 63.6 358.8 64.1Q358.5 64.6 357.8 64.9Q357.2 65.2 356.4 65.2ZM362.2 57.9L363.6 57.9L363.6 58.9L362.2 58.9L362.2 63.2Q362.2 63.6 362.3 63.9Q362.5 64.1 363.0 64.1L363.0 64.1Q363.1 64.1 363.3 64.0Q363.4 64.0 363.6 64.0L363.6 64.0L363.8 65.0Q363.6 65.0 363.4 65.1Q363.2 65.1 363.0 65.1L363.0 65.1Q362.0 65.1 361.5 64.6Q361.0 64.1 361.0 63.2L361.0 63.2L361.0 58.9L359.9 58.9L359.9 57.9L361.0 57.9L361.0 56.2L362.2 56.2L362.2 57.9ZM368.1 65.2L368.1 65.2Q367.0 65.2 366.3 64.7Q365.5 64.2 365.1 63.4Q364.7 62.6 364.7 61.5Q364.7 60.4 365.1 59.6Q365.5 58.8 366.2 58.3Q367.0 57.8 367.9 57.8L367.9 57.8Q368.5 57.8 369.0 58.0Q369.6 58.2 370.0 58.6Q370.5 59.0 370.7 59.7Q371.0 60.4 371.0 61.4L371.0 61.4L371.0 61.8L365.9 61.8Q365.9 62.5 366.2 63.0L366.2 63.0Q366.4 63.6 366.9 63.9Q367.4 64.1 368.1 64.1L368.1 64.1Q368.5 64.1 368.8 64.0Q369.2 63.9 369.4 63.7Q369.7 63.4 369.8 63.0L369.8 63.0L370.9 63.3Q370.7 63.9 370.3 64.3Q369.9 64.7 369.4 64.9Q368.8 65.2 368.1 65.2ZM365.9 60.9L365.9 60.9L369.9 60.9Q369.8 60.4 369.6 60.0L369.6 60.0Q369.4 59.4 369.0 59.1Q368.6 58.8 367.9 58.8Q367.3 58.8 366.8 59.1Q366.4 59.5 366.1 60.0L366.1 60.0Q365.9 60.4 365.9 60.9ZM368.4 57.0L367.4 57.0L366.2 55.1L367.5 55.1L368.4 57.0ZM373.8 65L372.7 65L372.7 57.9L373.8 57.9L373.8 59.0L373.8 59.0Q374.0 58.5 374.5 58.1Q375.0 57.8 375.7 57.8L375.7 57.8Q375.8 57.8 376.0 57.8Q376.1 57.8 376.3 57.8L376.3 57.8L376.3 59.0Q376.2 59.0 376.0 58.9Q375.8 58.9 375.6 58.9L375.6 58.9Q375.1 58.9 374.7 59.1Q374.3 59.3 374.0 59.7Q373.8 60.1 373.8 60.6L373.8 60.6L373.8 65ZM380.5 65.2L380.5 65.2Q379.5 65.2 378.8 64.7Q378.0 64.2 377.6 63.4Q377.2 62.6 377.2 61.5Q377.2 60.4 377.6 59.6Q378.0 58.8 378.7 58.3Q379.4 57.8 380.4 57.8L380.4 57.8Q381.0 57.8 381.5 58.0Q382.1 58.2 382.5 58.6Q383.0 59.0 383.2 59.7Q383.5 60.4 383.5 61.4L383.5 61.4L383.5 61.8L378.4 61.8Q378.4 62.5 378.6 63.0L378.6 63.0Q378.9 63.6 379.4 63.9Q379.9 64.1 380.5 64.1L380.5 64.1Q381.0 64.1 381.3 64.0Q381.6 63.9 381.9 63.7Q382.1 63.4 382.3 63.0L382.3 63.0L383.4 63.3Q383.2 63.9 382.8 64.3Q382.4 64.7 381.8 64.9Q381.3 65.2 380.5 65.2ZM378.4 60.9L378.4 60.9L382.3 60.9Q382.3 60.4 382.1 60.0L382.1 60.0Q381.9 59.4 381.5 59.1Q381.0 58.8 380.4 58.8Q379.8 58.8 379.3 59.1Q378.8 59.5 378.6 60.0L378.6 60.0Q378.4 60.4 378.4 60.9Z M392.7 65.1L392.7 65.1Q391.5 65.1 390.6 64.5Q389.6 64.0 389.1 62.9Q388.6 61.8 388.6 60.3L388.6 60.3Q388.6 58.8 389.1 57.7Q389.6 56.6 390.6 56.0Q391.5 55.4 392.7 55.4L392.7 55.4Q393.5 55.4 394.1 55.6Q394.7 55.8 395.2 56.2Q395.8 56.6 396.1 57.2Q396.4 57.8 396.6 58.5L396.6 58.5L395.4 58.5Q395.3 58.0 395.0 57.7Q394.8 57.3 394.4 57.0Q394.1 56.8 393.6 56.7Q393.2 56.5 392.7 56.5L392.7 56.5Q391.9 56.5 391.2 57.0Q390.5 57.4 390.1 58.2Q389.7 59.1 389.7 60.3L389.7 60.3Q389.7 61.5 390.1 62.3Q390.5 63.2 391.2 63.6Q391.9 64.0 392.7 64.0L392.7 64.0Q393.2 64.0 393.6 63.9Q394.1 63.7 394.4 63.5Q394.8 63.2 395.0 62.9Q395.3 62.5 395.4 62.0L395.4 62.0L396.6 62.0Q396.4 62.7 396.1 63.3Q395.8 63.9 395.3 64.3Q394.7 64.7 394.1 64.9Q393.5 65.1 392.7 65.1ZM400.9 56.6L397.9 56.6L397.9 55.5L405.0 55.5L405.0 56.6L402.1 56.6L402.1 65L400.9 65L400.9 56.6ZM410.6 65.1L410.6 65.1Q409.4 65.1 408.5 64.5Q407.5 64.0 407.0 62.9Q406.4 61.8 406.4 60.3L406.4 60.3Q406.4 58.8 407.0 57.7Q407.5 56.6 408.5 56.0Q409.4 55.4 410.6 55.4L410.6 55.4Q411.9 55.4 412.8 56.0Q413.7 56.6 414.3 57.7Q414.8 58.8 414.8 60.3L414.8 60.3Q414.8 61.8 414.3 62.9Q413.7 64.0 412.8 64.5Q411.9 65.1 410.6 65.1ZM410.6 64.0L410.6 64.0Q411.5 64.0 412.2 63.6Q412.9 63.2 413.3 62.3Q413.7 61.5 413.7 60.3L413.7 60.3Q413.7 59.1 413.3 58.2Q412.9 57.4 412.2 57.0Q411.5 56.5 410.6 56.5L410.6 56.5Q409.8 56.5 409.1 57.0Q408.4 57.4 408.0 58.2Q407.6 59.1 407.6 60.3L407.6 60.3Q407.6 61.5 408.0 62.3Q408.4 63.1 409.1 63.6Q409.8 64.0 410.6 64.0Z M422.9 65.1L422.9 65.1Q422.0 65.1 421.3 64.8Q420.7 64.4 420.3 63.8Q419.9 63.3 419.9 62.5L419.9 62.5Q419.9 61.9 420.2 61.5Q420.4 61.0 420.9 60.6L420.9 60.6Q421.3 60.3 421.8 59.9L421.8 59.9Q421.7 59.7 421.6 59.6L421.6 59.6Q421.2 59.1 420.9 58.6Q420.7 58.2 420.7 57.6L420.7 57.6Q420.7 57.0 421.0 56.5Q421.3 56.0 421.8 55.7Q422.3 55.5 423.0 55.5L423.0 55.5Q423.7 55.5 424.2 55.7Q424.7 56.0 425.0 56.5Q425.3 56.9 425.3 57.5L425.3 57.5Q425.3 57.9 425.1 58.3Q425.0 58.7 424.7 59.0Q424.4 59.3 424.0 59.6L424.0 59.6L423.4 60.1L425.4 62.5Q425.5 62.4 425.5 62.2L425.5 62.2Q425.8 61.6 425.8 60.8L425.8 60.8L426.9 60.8Q426.9 61.8 426.7 62.4Q426.4 63.0 426.2 63.3L426.2 63.3Q426.1 63.4 426.1 63.4L426.1 63.4L427.4 65L426.1 65L425.4 64.2Q425.0 64.7 424.3 64.9L424.3 64.9Q423.6 65.1 422.9 65.1ZM424.7 63.4L422.5 60.7L422.2 61.0Q421.6 61.4 421.3 61.8Q421.1 62.1 421.1 62.6L421.1 62.6Q421.1 63.0 421.3 63.4Q421.5 63.7 421.9 63.9Q422.3 64.1 422.9 64.1L422.9 64.1Q423.4 64.1 423.9 63.9L423.9 63.9Q424.4 63.7 424.7 63.4L424.7 63.4ZM422.7 59.2L422.7 59.2L423.3 58.8Q423.5 58.7 423.7 58.5Q423.9 58.3 424.0 58.0Q424.2 57.8 424.2 57.5L424.2 57.5Q424.2 57.0 423.9 56.7Q423.6 56.4 423.0 56.4L423.0 56.4Q422.7 56.4 422.4 56.6Q422.1 56.7 422.0 57.0Q421.8 57.2 421.8 57.6L421.8 57.6Q421.8 57.9 422.0 58.3Q422.2 58.6 422.4 58.9L422.4 58.9Q422.6 59.1 422.7 59.2Z M434.9 56.6L431.9 56.6L431.9 55.5L439.1 55.5L439.1 56.6L436.1 56.6L436.1 65L434.9 65L434.9 56.6ZM443.7 65.2L443.7 65.2Q442.6 65.2 441.9 64.7Q441.1 64.2 440.7 63.4Q440.3 62.6 440.3 61.5Q440.3 60.4 440.7 59.6Q441.1 58.8 441.9 58.3Q442.6 57.8 443.5 57.8L443.5 57.8Q444.1 57.8 444.6 58.0Q445.2 58.2 445.6 58.6Q446.1 59.0 446.4 59.7Q446.6 60.4 446.6 61.4L446.6 61.4L446.6 61.8L441.5 61.8Q441.5 62.5 441.8 63.0L441.8 63.0Q442.0 63.6 442.5 63.9Q443.0 64.1 443.7 64.1L443.7 64.1Q444.1 64.1 444.4 64.0Q444.8 63.9 445.0 63.7Q445.3 63.4 445.4 63.0L445.4 63.0L446.5 63.3Q446.3 63.9 446.0 64.3Q445.6 64.7 445.0 64.9Q444.4 65.2 443.7 65.2ZM441.5 60.9L441.5 60.9L445.5 60.9Q445.4 60.4 445.3 60.0L445.3 60.0Q445.0 59.4 444.6 59.1Q444.2 58.8 443.5 58.8Q442.9 58.8 442.4 59.1Q442.0 59.5 441.7 60.0L441.7 60.0Q441.5 60.4 441.5 60.9ZM451.2 65.2L451.2 65.2Q450.2 65.2 449.5 64.7Q448.7 64.2 448.3 63.4Q447.9 62.6 447.9 61.5L447.9 61.5Q447.9 60.4 448.3 59.6Q448.7 58.7 449.5 58.3Q450.2 57.8 451.2 57.8L451.2 57.8Q451.7 57.8 452.1 57.9Q452.6 58.1 453.0 58.3Q453.3 58.6 453.6 58.9Q453.9 59.3 454.0 59.8L454.0 59.8L452.9 60.1Q452.9 59.8 452.7 59.6Q452.5 59.4 452.3 59.2Q452.1 59.0 451.8 58.9Q451.5 58.8 451.2 58.8L451.2 58.8Q450.4 58.8 450.0 59.2Q449.5 59.6 449.3 60.2Q449.1 60.8 449.1 61.5L449.1 61.5Q449.1 62.2 449.3 62.8Q449.5 63.4 450.0 63.8Q450.4 64.1 451.2 64.1L451.2 64.1Q451.5 64.1 451.8 64.0Q452.1 63.9 452.3 63.8Q452.6 63.6 452.7 63.3Q452.9 63.1 453.0 62.8L453.0 62.8L454.1 63.1Q453.9 63.6 453.6 64.0Q453.4 64.4 453.0 64.6Q452.6 64.9 452.1 65.0Q451.7 65.2 451.2 65.2ZM456.8 60.7L456.8 60.7L456.8 65L455.7 65L455.7 55.5L456.8 55.5L456.8 59.1Q457.1 58.5 457.6 58.2L457.6 58.2Q458.2 57.8 459.0 57.8L459.0 57.8Q459.7 57.8 460.2 58.1Q460.8 58.4 461.1 59.0Q461.4 59.6 461.4 60.5L461.4 60.5L461.4 65L460.2 65L460.2 60.6Q460.2 59.8 459.8 59.3Q459.4 58.8 458.6 58.8L458.6 58.8Q458.1 58.8 457.7 59.1Q457.3 59.3 457.1 59.7Q456.8 60.1 456.8 60.7Z M472.8 65L467.2 65L467.2 55.5L468.4 55.5L468.4 63.9L472.8 63.9L472.8 65ZM477.4 65.2L477.4 65.2Q476.3 65.2 475.6 64.7Q474.8 64.2 474.4 63.4Q474.0 62.6 474.0 61.5Q474.0 60.4 474.4 59.6Q474.8 58.8 475.6 58.3Q476.3 57.8 477.2 57.8L477.2 57.8Q477.8 57.8 478.3 58.0Q478.9 58.2 479.3 58.6Q479.8 59.0 480.1 59.7Q480.3 60.4 480.3 61.4L480.3 61.4L480.3 61.8L475.2 61.8Q475.2 62.5 475.5 63.0L475.5 63.0Q475.7 63.6 476.2 63.9Q476.7 64.1 477.4 64.1L477.4 64.1Q477.8 64.1 478.1 64.0Q478.5 63.9 478.7 63.7Q479.0 63.4 479.1 63.0L479.1 63.0L480.2 63.3Q480.0 63.9 479.7 64.3Q479.3 64.7 478.7 64.9Q478.1 65.2 477.4 65.2ZM475.2 60.9L475.2 60.9L479.2 60.9Q479.1 60.4 479.0 60.0L479.0 60.0Q478.7 59.4 478.3 59.1Q477.9 58.8 477.2 58.8Q476.6 58.8 476.1 59.1Q475.7 59.5 475.4 60.0L475.4 60.0Q475.2 60.4 475.2 60.9ZM484.0 65.2L484.0 65.2Q483.3 65.2 482.7 64.9Q482.2 64.7 481.9 64.2Q481.5 63.7 481.5 63.0L481.5 63.0Q481.5 62.4 481.8 62.0Q482.0 61.6 482.4 61.4Q482.8 61.2 483.3 61.1Q483.8 61.0 484.3 60.9L484.3 60.9Q484.9 60.8 485.3 60.8Q485.7 60.7 485.9 60.6Q486.1 60.5 486.1 60.2L486.1 60.2L486.1 60.2Q486.1 59.8 486.0 59.5Q485.8 59.1 485.5 59.0Q485.1 58.8 484.6 58.8L484.6 58.8Q484.1 58.8 483.8 59.0Q483.4 59.1 483.2 59.4Q482.9 59.6 482.8 59.9L482.8 59.9L481.7 59.5Q482.0 58.8 482.5 58.5Q482.9 58.1 483.5 58.0Q484.1 57.8 484.6 57.8L484.6 57.8Q485.0 57.8 485.4 57.9Q485.9 58.0 486.3 58.2Q486.7 58.5 487.0 59.0Q487.3 59.5 487.3 60.3L487.3 60.3L487.3 65L486.1 65L486.1 64.0L486.1 64.0Q485.9 64.3 485.7 64.5Q485.4 64.8 485.0 65.0Q484.6 65.2 484.0 65.2ZM484.1 64.2L484.1 64.2Q484.8 64.2 485.2 63.9Q485.7 63.7 485.9 63.3Q486.1 62.9 486.1 62.4L486.1 62.4L486.1 61.5Q486.0 61.5 485.8 61.6Q485.6 61.7 485.3 61.7Q485.0 61.8 484.7 61.8Q484.4 61.8 484.2 61.9L484.2 61.9Q483.8 61.9 483.5 62.0Q483.1 62.2 482.9 62.4Q482.7 62.6 482.7 63.0L482.7 63.0Q482.7 63.4 482.9 63.7Q483.1 63.9 483.4 64.0Q483.7 64.2 484.1 64.2ZM491.9 65.2L491.9 65.2Q491.0 65.2 490.4 64.7Q489.7 64.3 489.3 63.4Q488.9 62.6 488.9 61.5L488.9 61.5Q488.9 60.3 489.3 59.5Q489.7 58.7 490.4 58.3Q491.0 57.8 491.9 57.8L491.9 57.8Q492.6 57.8 493.0 58.0Q493.4 58.3 493.7 58.6Q493.9 58.8 494.0 59.0L494.0 59.0L494.1 59.0L494.1 55.5L495.2 55.5L495.2 65L494.1 65L494.1 63.9L494.0 63.9Q493.9 64.1 493.6 64.4Q493.4 64.7 493.0 64.9Q492.6 65.2 491.9 65.2ZM492.1 64.1L492.1 64.1Q492.7 64.1 493.2 63.8Q493.6 63.5 493.9 62.8Q494.1 62.2 494.1 61.5L494.1 61.5Q494.1 60.7 493.9 60.1Q493.6 59.5 493.2 59.2Q492.7 58.8 492.1 58.8L492.1 58.8Q491.4 58.8 491.0 59.2Q490.5 59.5 490.3 60.1Q490.1 60.7 490.1 61.5L490.1 61.5Q490.1 62.2 490.3 62.8Q490.5 63.4 491.0 63.8Q491.4 64.1 492.1 64.1Z M501.8 61.4L501.8 61.4Q501.4 61.4 501.1 61.1Q500.9 60.9 500.9 60.5L500.9 60.5Q500.9 60.2 501.1 59.9Q501.4 59.6 501.8 59.6L501.8 59.6Q502.1 59.6 502.4 59.9Q502.6 60.2 502.6 60.5L502.6 60.5Q502.6 60.9 502.4 61.1Q502.1 61.4 501.8 61.4Z M510.9 65.2L510.9 65.2Q510.1 65.2 509.4 64.7Q508.7 64.3 508.3 63.4Q507.9 62.6 507.9 61.5L507.9 61.5Q507.9 60.3 508.3 59.5Q508.7 58.7 509.4 58.3Q510.1 57.8 510.9 57.8L510.9 57.8Q511.6 57.8 512.0 58.0Q512.5 58.3 512.7 58.6Q512.9 58.8 513.0 59.0L513.0 59.0L513.1 59.0L513.1 55.5L514.2 55.5L514.2 65L513.1 65L513.1 63.9L513.0 63.9Q512.9 64.1 512.7 64.4Q512.4 64.7 512.0 64.9Q511.6 65.2 510.9 65.2ZM511.1 64.1L511.1 64.1Q511.8 64.1 512.2 63.8Q512.6 63.5 512.9 62.8Q513.1 62.2 513.1 61.5L513.1 61.5Q513.1 60.7 512.9 60.1Q512.7 59.5 512.2 59.2Q511.8 58.8 511.1 58.8L511.1 58.8Q510.4 58.8 510.0 59.2Q509.5 59.5 509.3 60.1Q509.1 60.7 509.1 61.5L509.1 61.5Q509.1 62.2 509.3 62.8Q509.6 63.4 510.0 63.8Q510.5 64.1 511.1 64.1ZM517.4 65L516.2 65L516.2 57.9L517.4 57.9L517.4 65ZM516.8 56.7L516.8 56.7Q516.5 56.7 516.3 56.5Q516.0 56.3 516.0 56.0L516.0 56.0Q516.0 55.7 516.3 55.4Q516.5 55.2 516.8 55.2L516.8 55.2Q517.1 55.2 517.4 55.4Q517.6 55.7 517.6 56.0L517.6 56.0Q517.6 56.3 517.4 56.5Q517.1 56.7 516.8 56.7ZM521.8 65.2L521.8 65.2Q521.1 65.2 520.5 64.9Q519.9 64.7 519.6 64.3Q519.2 63.9 519.1 63.3L519.1 63.3L520.2 63.0Q520.3 63.6 520.7 63.9Q521.2 64.1 521.8 64.1L521.8 64.1Q522.5 64.1 523.0 63.8Q523.4 63.5 523.4 63.1L523.4 63.1Q523.4 62.7 523.2 62.5Q522.9 62.2 522.4 62.1L522.4 62.1L521.2 61.8Q520.2 61.6 519.8 61.1Q519.3 60.6 519.3 59.9L519.3 59.9Q519.3 59.3 519.6 58.8Q520.0 58.3 520.6 58.1Q521.2 57.8 521.9 57.8L521.9 57.8Q522.6 57.8 523.2 58.0Q523.7 58.3 524.0 58.6Q524.3 59.0 524.5 59.5L524.5 59.5L523.4 59.8Q523.3 59.4 522.9 59.1Q522.6 58.8 521.9 58.8L521.9 58.8Q521.3 58.8 520.9 59.1Q520.4 59.4 520.4 59.8L520.4 59.8Q520.4 60.2 520.7 60.4Q521.0 60.7 521.6 60.8L521.6 60.8L522.7 61.1Q523.7 61.3 524.1 61.8Q524.6 62.3 524.6 63.0L524.6 63.0Q524.6 63.6 524.2 64.1Q523.9 64.6 523.3 64.9Q522.6 65.2 521.8 65.2ZM527.4 67.7L526.3 67.7L526.3 57.9L527.4 57.9L527.4 59.0L527.5 59.0Q527.6 58.8 527.8 58.6Q528.0 58.3 528.4 58.0Q528.8 57.8 529.5 57.8L529.5 57.8Q530.4 57.8 531.1 58.3Q531.8 58.7 532.2 59.5Q532.5 60.3 532.5 61.5L532.5 61.5Q532.5 62.6 532.2 63.4Q531.8 64.3 531.1 64.7Q530.4 65.2 529.5 65.2L529.5 65.2Q528.9 65.2 528.5 64.9Q528.0 64.7 527.8 64.4Q527.6 64.1 527.5 63.9L527.5 63.9L527.4 63.9L527.4 67.7ZM529.4 64.1L529.4 64.1Q530.0 64.1 530.5 63.8Q530.9 63.4 531.2 62.8Q531.4 62.2 531.4 61.5L531.4 61.5Q531.4 60.7 531.2 60.1Q530.9 59.5 530.5 59.2Q530.0 58.8 529.4 58.8L529.4 58.8Q528.7 58.8 528.3 59.2Q527.8 59.5 527.6 60.1Q527.4 60.7 527.4 61.5L527.4 61.5Q527.4 62.2 527.6 62.8Q527.8 63.5 528.3 63.8Q528.7 64.1 529.4 64.1ZM537.1 65.2L537.1 65.2Q536.1 65.2 535.4 64.7Q534.7 64.2 534.3 63.4Q533.9 62.6 533.9 61.5L533.9 61.5Q533.9 60.4 534.3 59.6Q534.7 58.7 535.4 58.3Q536.1 57.8 537.1 57.8L537.1 57.8Q538.1 57.8 538.8 58.3Q539.5 58.7 539.9 59.6Q540.3 60.4 540.3 61.5L540.3 61.5Q540.3 62.6 539.9 63.4Q539.5 64.2 538.8 64.7Q538.1 65.2 537.1 65.2ZM537.1 64.1L537.1 64.1Q537.8 64.1 538.3 63.8Q538.7 63.4 539.0 62.8Q539.2 62.2 539.2 61.5L539.2 61.5Q539.2 60.8 539.0 60.2Q538.7 59.6 538.3 59.2Q537.8 58.8 537.1 58.8L537.1 58.8Q536.4 58.8 535.9 59.2Q535.5 59.6 535.3 60.2Q535.0 60.8 535.0 61.5L535.0 61.5Q535.0 62.2 535.3 62.8Q535.5 63.4 535.9 63.8Q536.4 64.1 537.1 64.1ZM543.1 60.7L543.1 60.7L543.1 65L542.0 65L542.0 57.9L543.1 57.9L543.1 59.2Q543.4 58.6 543.9 58.2L543.9 58.2Q544.5 57.8 545.3 57.8L545.3 57.8Q546.0 57.8 546.5 58.1Q547.1 58.4 547.4 59.0Q547.7 59.6 547.7 60.5L547.7 60.5L547.7 65L546.5 65L546.5 60.6Q546.5 59.8 546.1 59.3Q545.7 58.8 544.9 58.8L544.9 58.8Q544.4 58.8 544.0 59.1Q543.6 59.3 543.4 59.7Q543.1 60.1 543.1 60.7ZM550.8 65L549.7 65L549.7 57.9L550.8 57.9L550.8 65ZM550.3 56.7L550.3 56.7Q549.9 56.7 549.7 56.5Q549.5 56.3 549.5 56.0L549.5 56.0Q549.5 55.7 549.7 55.4Q549.9 55.2 550.3 55.2L550.3 55.2Q550.6 55.2 550.8 55.4Q551.1 55.7 551.1 56.0L551.1 56.0Q551.1 56.3 550.8 56.5Q550.6 56.7 550.3 56.7ZM556.1 65.2L556.1 65.2Q555.5 65.2 555.0 64.9Q554.6 64.7 554.4 64.4Q554.2 64.1 554.1 63.9L554.1 63.9L553.9 63.9L553.9 65L552.8 65L552.8 55.5L554.0 55.5L554.0 59.0L554.1 59.0Q554.2 58.8 554.4 58.6Q554.6 58.3 555.0 58.0Q555.4 57.8 556.1 57.8L556.1 57.8Q557.0 57.8 557.7 58.3Q558.4 58.7 558.7 59.5Q559.1 60.3 559.1 61.5L559.1 61.5Q559.1 62.6 558.8 63.4Q558.4 64.3 557.7 64.7Q557.0 65.2 556.1 65.2ZM556.0 64.1L556.0 64.1Q556.6 64.1 557.1 63.8Q557.5 63.4 557.7 62.8Q558.0 62.2 558.0 61.5L558.0 61.5Q558.0 60.7 557.7 60.1Q557.5 59.5 557.1 59.2Q556.6 58.8 556.0 58.8L556.0 58.8Q555.3 58.8 554.9 59.2Q554.4 59.5 554.2 60.1Q554.0 60.7 554.0 61.5L554.0 61.5Q554.0 62.2 554.2 62.8Q554.4 63.5 554.9 63.8Q555.3 64.1 556.0 64.1ZM560.8 55.5L561.9 55.5L561.9 65L560.8 65L560.8 55.5ZM566.9 65.2L566.9 65.2Q565.9 65.2 565.2 64.7Q564.4 64.2 564.0 63.4Q563.6 62.6 563.6 61.5Q563.6 60.4 564.0 59.6Q564.4 58.8 565.1 58.3Q565.8 57.8 566.8 57.8L566.8 57.8Q567.4 57.8 567.9 58.0Q568.5 58.2 568.9 58.6Q569.4 59.0 569.6 59.7Q569.9 60.4 569.9 61.4L569.9 61.4L569.9 61.8L564.8 61.8Q564.8 62.5 565.0 63.0L565.0 63.0Q565.3 63.6 565.8 63.9Q566.3 64.1 566.9 64.1L566.9 64.1Q567.4 64.1 567.7 64.0Q568.0 63.9 568.3 63.7Q568.5 63.4 568.7 63.0L568.7 63.0L569.8 63.3Q569.6 63.9 569.2 64.3Q568.8 64.7 568.2 64.9Q567.7 65.2 566.9 65.2ZM564.8 60.9L564.8 60.9L568.7 60.9Q568.7 60.4 568.5 60.0L568.5 60.0Q568.3 59.4 567.9 59.1Q567.4 58.8 566.8 58.8Q566.2 58.8 565.7 59.1Q565.2 59.5 565.0 60.0L565.0 60.0Q564.8 60.4 564.8 60.9Z M578.2 65.2L578.2 65.2Q577.1 65.2 576.4 64.7Q575.6 64.2 575.2 63.4Q574.8 62.6 574.8 61.5Q574.8 60.4 575.2 59.6Q575.6 58.8 576.3 58.3Q577.1 57.8 578.0 57.8L578.0 57.8Q578.6 57.8 579.1 58.0Q579.7 58.2 580.1 58.6Q580.6 59.0 580.9 59.7Q581.1 60.4 581.1 61.4L581.1 61.4L581.1 61.8L576.0 61.8Q576.0 62.5 576.3 63.0L576.3 63.0Q576.5 63.6 577.0 63.9Q577.5 64.1 578.2 64.1L578.2 64.1Q578.6 64.1 578.9 64.0Q579.3 63.9 579.5 63.7Q579.8 63.4 579.9 63.0L579.9 63.0L581.0 63.3Q580.8 63.9 580.4 64.3Q580.1 64.7 579.5 64.9Q578.9 65.2 578.2 65.2ZM576.0 60.9L576.0 60.9L580.0 60.9Q579.9 60.4 579.8 60.0L579.8 60.0Q579.5 59.4 579.1 59.1Q578.7 58.8 578.0 58.8Q577.4 58.8 576.9 59.1Q576.5 59.5 576.2 60.0L576.2 60.0Q576.0 60.4 576.0 60.9ZM583.9 60.7L583.9 60.7L583.9 65L582.8 65L582.8 57.9L583.9 57.9L583.9 59.2Q584.2 58.6 584.6 58.2L584.6 58.2Q585.2 57.8 586.0 57.8L586.0 57.8Q586.8 57.8 587.3 58.1Q587.8 58.4 588.1 59.0Q588.4 59.6 588.4 60.5L588.4 60.5L588.4 65L587.3 65L587.3 60.6Q587.3 59.8 586.9 59.3Q586.4 58.8 585.7 58.8L585.7 58.8Q585.2 58.8 584.8 59.1Q584.4 59.3 584.1 59.7Q583.9 60.1 583.9 60.7Z M598.1 65.1L598.1 65.1Q596.9 65.1 595.9 64.5Q595.0 64.0 594.4 62.9Q593.9 61.8 593.9 60.3L593.9 60.3Q593.9 58.8 594.4 57.7Q595.0 56.6 595.9 56.0Q596.9 55.4 598.1 55.4L598.1 55.4Q598.8 55.4 599.4 55.6Q600.1 55.8 600.6 56.2Q601.1 56.6 601.4 57.2Q601.8 57.8 601.9 58.5L601.9 58.5L600.7 58.5Q600.6 58.0 600.3 57.7Q600.1 57.3 599.7 57.0Q599.4 56.8 599.0 56.7Q598.5 56.5 598.1 56.5L598.1 56.5Q597.2 56.5 596.5 57.0Q595.8 57.4 595.4 58.2Q595.0 59.1 595.0 60.3L595.0 60.3Q595.0 61.5 595.4 62.3Q595.8 63.2 596.5 63.6Q597.2 64.0 598.1 64.0L598.1 64.0Q598.5 64.0 599.0 63.9Q599.4 63.7 599.7 63.5Q600.1 63.2 600.3 62.9Q600.6 62.5 600.7 62.0L600.7 62.0L601.9 62.0Q601.8 62.7 601.4 63.3Q601.1 63.9 600.6 64.3Q600.1 64.7 599.4 64.9Q598.8 65.1 598.1 65.1ZM606.7 65L606.7 65L603.7 65L603.7 55.5L606.8 55.5Q608.2 55.5 609.2 56.1Q610.1 56.7 610.7 57.7Q611.2 58.8 611.2 60.3L611.2 60.3Q611.2 61.7 610.7 62.8Q610.1 63.9 609.1 64.4Q608.1 65 606.7 65ZM604.9 56.6L604.9 63.9L606.6 63.9Q607.8 63.9 608.5 63.5Q609.3 63.1 609.7 62.2Q610.0 61.4 610.0 60.3L610.0 60.3Q610.0 59.1 609.7 58.3Q609.3 57.5 608.6 57.0Q607.8 56.6 606.7 56.6L606.7 56.6L604.9 56.6ZM613.1 55.5L614.3 55.5L614.3 65L613.1 65L613.1 55.5Z "/></g></svg>