<!-- Generated by readme-aura https://github.com/collectioneur/readme-aura -->
<svg width="900" height="230" viewBox="0 0 900 230" xmlns="http://www.w3.org/2000/svg"><mask id="satori_om-id"><rect x="0" y="0" width="900" height="230" fill="#fff"/></mask><path x="0" y="0" width="900" height="230" fill="#05060a" d="M14,0 h872 a14,14 0 0 1 14,14 v202 a14,14 0 0 1 -14,14 h-872 a14,14 0 0 1 -14,-14 v-202 a14,14 0 0 1 14,-14"/><clipPath id="satori_cp-id-0"><rect x="0" y="0" width="900" height="230"/></clipPath><mask id="satori_om-id-0"><rect x="0" y="0" width="900" height="230" fill="#fff"/></mask><svg x="0" y="0" width="900" height="230" preserveAspectRatio="none" clip-path="url(#satori_cp-id-0)" mask="url(#satori_om-id-0)"><defs><radialGradient id="g1" cx="30%" cy="40%" r="60%"><stop offset="0%" stop-color="#7c3aed" stop-opacity="0.85"></stop><stop offset="100%" stop-color="#05060a" stop-opacity="0"></stop></radialGradient><radialGradient id="g2" cx="72%" cy="62%" r="55%"><stop offset="0%" stop-color="#06b6d4" stop-opacity="0.8"></stop><stop offset="100%" stop-color="#05060a" stop-opacity="0"></stop></radialGradient><linearGradient id="ln" x1="0" y1="0" x2="1" y2="0"><stop offset="0%" stop-color="#22d3ee"></stop><stop offset="50%" stop-color="#a78bfa"></stop><stop offset="100%" stop-color="#f472b6"></stop></linearGradient></defs><ellipse cx="260" cy="95" rx="320" ry="170" fill="url(#g1)"><animate attributeName="opacity" values="0.45;0.9;0.45" dur="5s" repeatCount="indefinite"></animate><animateTransform attributeName="transform" type="translate" values="-50 0;50 0;-50 0" dur="9s" repeatCount="indefinite"></animateTransform></ellipse><ellipse cx="650" cy="140" rx="300" ry="160" fill="url(#g2)"><animate attributeName="opacity" values="0.9;0.45;0.9" dur="7s" repeatCount="indefinite"></animate><animateTransform attributeName="transform" type="translate" values="50 0;-50 0;50 0" dur="12s" repeatCount="indefinite"></animateTransform></ellipse><line x1="120" y1="178" x2="780" y2="178" stroke="url(#ln)" stroke-width="2" stroke-dasharray="1100" stroke-dashoffset="1100"><animate attributeName="strokeDashoffset" values="1100;0" dur="3s" repeatCount="indefinite"></animate></line></svg><mask id="satori_om-id-0-0"><rect x="0" y="0" width="0" height="230" fill="#fff"/></mask><mask id="satori_om-id-0-0-0"><rect x="0" y="0" width="0" height="230" fill="#fff"/></mask><mask id="satori_om-id-0-0-0-0"><rect x="0" y="0" width="0" height="230" fill="#fff"/></mask><mask id="satori_om-id-0-0-0-1"><rect x="0" y="0" width="0" height="230" fill="#fff"/></mask><mask id="satori_om-id-0-0-1"><rect x="0" y="0" width="0" height="230" fill="#fff"/></mask><mask id="satori_om-id-0-0-1-0"><rect x="0" y="0" width="0" height="230" fill="#fff"/></mask><mask id="satori_om-id-0-0-1-1"><rect x="0" y="0" width="0" height="230" fill="#fff"/></mask><mask id="satori_om-id-0-0-2"><rect x="0" y="0" width="0" height="230" fill="#fff"/></mask><mask id="satori_om-id-0-0-2-0"><rect x="0" y="0" width="0" height="230" fill="#fff"/></mask><mask id="satori_om-id-0-0-2-1"><rect x="0" y="0" width="0" height="230" fill="#fff"/></mask><mask id="satori_om-id-0-0-2-2"><rect x="0" y="0" width="0" height="230" fill="#fff"/></mask><mask id="satori_om-id-0-1"><rect x="0" y="0" width="0" height="230" fill="#fff"/></mask><mask id="satori_om-id-0-1-0"><rect x="0" y="0" width="0" height="230" fill="#fff"/></mask><mask id="satori_om-id-0-1-1"><rect x="0" y="0" width="0" height="230" fill="#fff"/></mask><mask id="satori_om-id-0-2"><rect x="0" y="0" width="0" height="230" fill="#fff"/></mask><mask id="satori_om-id-0-2-0"><rect x="0" y="0" width="0" height="230" fill="#fff"/></mask><mask id="satori_om-id-0-2-1"><rect x="0" y="0" width="0" height="230" fill="#fff"/></mask><mask id="satori_om-id-0-3"><rect x="0" y="0" width="0" height="230" fill="#fff"/></mask><mask id="satori_om-id-0-3-0"><rect x="0" y="0" width="0" height="230" fill="#fff"/></mask><mask id="satori_om-id-1"><rect x="162" y="58" width="576" height="115" fill="#fff"/></mask><clipPath id="satori_bct-id-1-0"><path d="M177.0 126L166.6 126L166.6 75.1L177.0 75.1L177.0 95.6L199.2 95.6L199.2 75.1L209.7 75.1L209.7 126L199.2 126L199.2 104.3L177.0 104.3L177.0 126ZM229.5 126L218.0 126L235.4 75.1L249.0 75.1L266.9 126L255.3 126L251.4 114.2L233.3 114.2L229.5 126ZM235.9 106.0L248.7 106.0L247.1 101.4Q245.7 96.7 244.2 91L244.2 91Q243.2 87.3 242.1 83.3L242.1 83.3Q241.1 87.4 240.2 91.1L240.2 91.1Q238.8 96.8 237.3 101.4L237.3 101.4L235.9 106.0ZM293.8 126.8L293.8 126.8Q287.7 126.8 283.2 124.9Q278.7 123.0 276.1 119.3Q273.6 115.6 273.5 110.2L273.5 110.2L283.6 110.2Q283.8 112.8 285.2 114.5Q286.5 116.2 288.7 117.1Q290.9 117.9 293.7 117.9L293.7 117.9Q296.5 117.9 298.6 117.1Q300.7 116.3 301.8 114.9Q303.0 113.4 303.0 111.4L303.0 111.4Q303.0 109.7 301.9 108.5Q300.9 107.3 299.0 106.5Q297.0 105.6 294.2 105.0L294.2 105.0L288.6 103.6Q282.1 102.0 278.5 98.6Q274.8 95.3 274.8 89.7L274.8 89.7Q274.8 85.1 277.3 81.7Q279.8 78.2 284.1 76.3Q288.4 74.4 294.0 74.4L294.0 74.4Q299.6 74.4 303.8 76.3Q308.0 78.3 310.4 81.7Q312.7 85.1 312.8 89.6L312.8 89.6L302.7 89.6Q302.4 86.5 300.1 84.8Q297.8 83.2 293.9 83.2L293.9 83.2Q291.2 83.2 289.4 83.9Q287.5 84.7 286.5 86.0Q285.5 87.3 285.5 89.1L285.5 89.1Q285.5 90.9 286.7 92.2Q287.8 93.4 289.7 94.2Q291.5 95.0 293.7 95.5L293.7 95.5L298.3 96.6Q301.5 97.3 304.3 98.6Q307.0 99.8 309.1 101.6Q311.2 103.4 312.3 105.8Q313.5 108.3 313.5 111.5L313.5 111.5Q313.5 116.1 311.2 119.6Q308.8 123.0 304.4 124.9Q300.0 126.8 293.8 126.8ZM341.7 126.8L341.7 126.8Q335.5 126.8 331.0 124.9Q326.5 123.0 324.0 119.3Q321.4 115.6 321.3 110.2L321.3 110.2L331.4 110.2Q331.7 112.8 333.0 114.5Q334.3 116.2 336.5 117.1Q338.8 117.9 341.6 117.9L341.6 117.9Q344.4 117.9 346.4 117.1Q348.5 116.3 349.7 114.9Q350.8 113.4 350.8 111.4L350.8 111.4Q350.8 109.7 349.8 108.5Q348.7 107.3 346.8 106.5Q344.8 105.6 342.0 105.0L342.0 105.0L336.4 103.6Q330.0 102.0 326.3 98.6Q322.7 95.3 322.7 89.7L322.7 89.7Q322.7 85.1 325.1 81.7Q327.6 78.2 331.9 76.3Q336.3 74.4 341.8 74.4L341.8 74.4Q347.4 74.4 351.6 76.3Q355.9 78.3 358.2 81.7Q360.6 85.1 360.6 89.6L360.6 89.6L350.6 89.6Q350.3 86.5 347.9 84.8Q345.6 83.2 341.7 83.2L341.7 83.2Q339.1 83.2 337.2 83.9Q335.3 84.7 334.3 86.0Q333.4 87.3 333.4 89.1L333.4 89.1Q333.4 90.9 334.5 92.2Q335.6 93.4 337.5 94.2Q339.4 95.0 341.5 95.5L341.5 95.5L346.1 96.6Q349.3 97.3 352.1 98.6Q354.9 99.8 356.9 101.6Q359.0 103.4 360.2 105.8Q361.3 108.3 361.3 111.5L361.3 111.5Q361.3 116.1 359.0 119.6Q356.7 123.0 352.3 124.9Q347.9 126.8 341.7 126.8ZM379.4 126L367.9 126L385.3 75.1L399.0 75.1L416.8 126L405.2 126L401.3 114.2L383.2 114.2L379.4 126ZM385.8 106.0L398.6 106.0L397.1 101.4Q395.6 96.7 394.1 91L394.1 91Q393.1 87.3 392.0 83.3L392.0 83.3Q391.0 87.4 390.1 91.1L390.1 91.1Q388.7 96.8 387.3 101.4L387.3 101.4L385.8 106.0ZM435.8 126L425.1 126L425.1 75.1L436.7 75.1L452.8 100.8Q454.1 102.8 455.3 105.2Q456.6 107.5 457.9 110.3L457.9 110.3Q458.6 111.7 459.2 113.3L459.2 113.3Q459.1 112.0 459.0 110.7L459.0 110.7Q458.8 107.4 458.7 104.5Q458.6 101.6 458.6 99.5L458.6 99.5L458.6 75.1L469.2 75.1L469.2 126L457.6 126L442.9 102.6Q441.3 100.0 440.0 97.5Q438.6 95.0 437.1 92.0L437.1 92.0Q436.2 90.2 435.1 87.9L435.1 87.9Q435.2 90.0 435.3 92.0L435.3 92.0Q435.5 95.3 435.6 98.1Q435.8 100.8 435.8 102.6L435.8 102.6L435.8 126Z M507.6 126L496.1 126L513.5 75.1L527.2 75.1L545.0 126L533.4 126L529.5 114.2L511.4 114.2L507.6 126ZM514.0 106.0L526.8 106.0L525.2 101.4Q523.8 96.7 522.3 91L522.3 91Q521.3 87.3 520.2 83.3L520.2 83.3Q519.2 87.4 518.3 91.1L518.3 91.1Q516.9 96.8 515.5 101.4L515.5 101.4L514.0 106.0ZM553.3 75.1L563.7 75.1L563.7 126L553.3 126L553.3 75.1ZM592.9 126L592.9 126L574.9 126L574.9 75.1L593.0 75.1Q600.7 75.1 606.2 78.1Q611.7 81.2 614.7 86.9Q617.7 92.6 617.7 100.5L617.7 100.5Q617.7 108.5 614.7 114.2Q611.7 119.9 606.2 122.9Q600.6 126 592.9 126ZM585.4 84.1L585.4 117.0L592.3 117.0Q597.3 117.0 600.6 115.3Q603.9 113.5 605.6 109.9Q607.3 106.2 607.3 100.5L607.3 100.5Q607.3 94.8 605.6 91.2Q603.9 87.5 600.6 85.8Q597.3 84.1 592.4 84.1L592.4 84.1L585.4 84.1ZM627.5 75.1L637.9 75.1L637.9 126L627.5 126L627.5 75.1ZM670.7 126L649.2 126L649.2 75.1L669.4 75.1Q675.0 75.1 678.7 76.8Q682.4 78.5 684.3 81.4Q686.2 84.3 686.2 88.2L686.2 88.2Q686.2 91.2 685.0 93.4Q683.8 95.6 681.7 97.1Q679.6 98.5 677.0 99.1L677.0 99.1L677.0 99.6Q679.9 99.7 682.4 101.2Q685.0 102.8 686.6 105.5Q688.2 108.2 688.2 112.0L688.2 112.0Q688.2 116.0 686.2 119.2Q684.2 122.3 680.3 124.2Q676.4 126 670.7 126L670.7 126ZM659.6 103.6L659.6 117.4L668.6 117.4Q673.2 117.4 675.3 115.6Q677.4 113.9 677.4 111.0L677.4 111.0Q677.4 108.8 676.4 107.1Q675.3 105.5 673.4 104.6Q671.5 103.6 668.9 103.6L668.9 103.6L659.6 103.6ZM659.6 83.6L659.6 96.5L667.8 96.5Q670.0 96.5 671.8 95.7Q673.6 94.9 674.6 93.4Q675.6 91.9 675.6 89.8L675.6 89.8Q675.6 87.1 673.6 85.3Q671.7 83.6 668.0 83.6L668.0 83.6L659.6 83.6ZM731.6 126L697.5 126L697.5 75.1L731.5 75.1L731.5 83.7L707.9 83.7L707.9 96.0L729.8 96.0L729.8 104.5L707.9 104.5L707.9 117.4L731.6 117.4L731.6 126Z "/></clipPath><defs><pattern id="satori_pattern_id-1-0_0" x="0" y="0" width="1" height="1" patternUnits="objectBoundingBox"><linearGradient id="satori_biid-1-0_0" x1="0" y1="0" x2="1" y2="0" spreadMethod="pad"><stop offset="0%" stop-color="#22d3ee"/><stop offset="50%" stop-color="#a78bfa"/><stop offset="100%" stop-color="#f472b6"/></linearGradient><rect x="0" y="0" width="576" height="85" fill="url(#satori_biid-1-0_0)"/></pattern></defs><mask id="satori_om-id-1-0"><rect x="162" y="58" width="576" height="85" fill="#fff"/></mask><rect x="162" y="58" width="576" height="85" fill="url(#satori_pattern_id-1-0_0)" clip-path="url(#satori_bct-id-1-0)"/><mask id="satori_om-id-1-1"><rect x="266" y="151" width="368" height="22" fill="#fff"/></mask><g  ><path fill="#94a3b8" d="M269.3 168L267.6 168L267.6 154.9L275.5 154.9L275.5 156.4L269.3 156.4L269.3 160.9L274.9 160.9L274.9 162.3L269.3 162.3L269.3 168ZM291.3 168.2L291.3 168.2Q289.8 168.2 288.6 167.6Q287.5 167.0 286.8 165.9Q286.2 164.9 286.2 163.5L286.2 163.5L286.2 154.9L287.9 154.9L287.9 163.4Q287.9 164.4 288.3 165.1Q288.7 165.8 289.5 166.2Q290.3 166.7 291.3 166.7L291.3 166.7Q292.4 166.7 293.2 166.2Q293.9 165.8 294.4 165.1Q294.8 164.4 294.8 163.4L294.8 163.4L294.8 154.9L296.4 154.9L296.4 163.5Q296.4 164.9 295.8 165.9Q295.2 167.0 294.0 167.6Q292.9 168.2 291.3 168.2ZM315.3 168L307.6 168L307.6 154.9L309.3 154.9L309.3 166.5L315.3 166.5L315.3 168ZM333.5 168L325.8 168L325.8 154.9L327.5 154.9L327.5 166.5L333.5 166.5L333.5 168ZM348.2 168.2L348.2 168.2Q346.7 168.2 345.7 167.8Q344.7 167.3 344.1 166.5Q343.5 165.7 343.4 164.6L343.4 164.6L345.1 164.6Q345.2 165.3 345.6 165.8Q346.0 166.3 346.7 166.5Q347.4 166.7 348.2 166.7L348.2 166.7Q349.0 166.7 349.7 166.4Q350.5 166.2 350.9 165.6Q351.3 165.1 351.3 164.4L351.3 164.4Q351.3 163.8 350.9 163.4Q350.6 163.0 350.0 162.7Q349.4 162.5 348.7 162.3L348.7 162.3L347.1 161.8Q345.5 161.4 344.6 160.5Q343.8 159.7 343.8 158.4L343.8 158.4Q343.8 157.3 344.4 156.5Q345.0 155.6 346.0 155.2Q347.0 154.7 348.3 154.7L348.3 154.7Q349.6 154.7 350.5 155.2Q351.5 155.6 352.1 156.4Q352.7 157.2 352.7 158.2L352.7 158.2L351.1 158.2Q351.0 157.3 350.2 156.7Q349.4 156.2 348.2 156.2L348.2 156.2Q347.4 156.2 346.7 156.5Q346.1 156.8 345.7 157.2Q345.4 157.7 345.4 158.3L345.4 158.3Q345.4 159.0 345.8 159.4Q346.2 159.9 346.8 160.1Q347.4 160.3 347.9 160.5L347.9 160.5L349.2 160.8Q349.7 161.0 350.4 161.2Q351.0 161.4 351.6 161.9Q352.2 162.3 352.5 162.9Q352.9 163.5 352.9 164.4L352.9 164.4Q352.9 165.5 352.3 166.4Q351.8 167.2 350.7 167.7Q349.7 168.2 348.2 168.2ZM366.9 156.4L362.8 156.4L362.8 154.9L372.7 154.9L372.7 156.4L368.6 156.4L368.6 168L366.9 168L366.9 156.4ZM383.8 168L382.0 168L386.8 154.9L388.7 154.9L393.5 168L391.7 168L390.4 164.3L385.0 164.3L383.8 168ZM385.6 162.9L389.9 162.9L389.0 160.2Q388.7 159.5 388.4 158.4L388.4 158.4Q388.1 157.5 387.7 156.2L387.7 156.2Q387.3 157.6 387.1 158.5L387.1 158.5Q386.7 159.6 386.5 160.2L386.5 160.2L385.6 162.9ZM408.8 168.2L408.8 168.2Q407.2 168.2 405.9 167.4Q404.5 166.5 403.8 165.0Q403.0 163.5 403.0 161.5L403.0 161.5Q403.0 159.4 403.8 157.9Q404.5 156.4 405.9 155.5Q407.2 154.7 408.8 154.7L408.8 154.7Q409.8 154.7 410.7 155.0Q411.6 155.3 412.3 155.9Q413.0 156.4 413.5 157.2Q414.0 158.0 414.1 159.0L414.1 159.0L412.5 159.0Q412.3 158.3 412.0 157.8Q411.6 157.3 411.2 157.0Q410.7 156.6 410.1 156.5Q409.5 156.3 408.8 156.3L408.8 156.3Q407.7 156.3 406.7 156.9Q405.8 157.5 405.2 158.6Q404.7 159.8 404.7 161.5L404.7 161.5Q404.7 163.1 405.2 164.3Q405.8 165.4 406.7 166.0Q407.7 166.6 408.8 166.6L408.8 166.6Q409.5 166.6 410.1 166.4Q410.7 166.3 411.2 165.9Q411.6 165.6 412.0 165.1Q412.3 164.5 412.5 163.9L412.5 163.9L414.1 163.9Q414.0 164.9 413.5 165.7Q413.0 166.5 412.3 167.0Q411.6 167.6 410.7 167.9Q409.8 168.2 408.8 168.2ZM426.4 168L424.7 168L424.7 154.9L426.4 154.9L426.4 159.4L426.3 161.8Q426.5 161.5 426.7 161.3L426.7 161.3Q427.2 160.7 427.6 160.2Q428.1 159.7 428.6 159.1L428.6 159.1L432.5 154.9L434.7 154.9L429.4 160.6L434.7 168L432.7 168L428.3 161.7L426.4 163.7L426.4 168Z M461.9 168L461.9 168L457.8 168L457.8 154.9L462.1 154.9Q464.0 154.9 465.4 155.7Q466.7 156.5 467.5 157.9Q468.2 159.4 468.2 161.4L468.2 161.4Q468.2 163.5 467.5 164.9Q466.7 166.4 465.3 167.2Q463.9 168 461.9 168ZM459.5 156.4L459.5 166.5L461.8 166.5Q463.4 166.5 464.5 165.9Q465.5 165.3 466.0 164.2Q466.6 163.0 466.6 161.4L466.6 161.4Q466.6 159.9 466.1 158.7Q465.5 157.6 464.5 157.0Q463.5 156.4 462.0 156.4L462.0 156.4L459.5 156.4ZM486.9 168L478.8 168L478.8 154.9L486.8 154.9L486.8 156.4L480.5 156.4L480.5 160.7L486.4 160.7L486.4 162.1L480.5 162.1L480.5 166.5L486.9 166.5L486.9 168ZM503.3 168L501.4 168L496.5 154.9L498.3 154.9L501.1 162.7Q501.3 163.3 501.7 164.5L501.7 164.5Q501.9 165.4 502.3 166.6L502.3 166.6Q502.7 165.3 503.0 164.4L503.0 164.4Q503.3 163.3 503.6 162.7L503.6 162.7L506.3 154.9L508.0 154.9L503.3 168ZM526.1 168L518.1 168L518.1 154.9L526.1 154.9L526.1 156.4L519.7 156.4L519.7 160.7L525.6 160.7L525.6 162.1L519.7 162.1L519.7 166.5L526.1 166.5L526.1 168ZM544.6 168L536.9 168L536.9 154.9L538.6 154.9L538.6 166.5L544.6 166.5L544.6 168ZM560.4 168.2L560.4 168.2Q558.7 168.2 557.4 167.4Q556.1 166.5 555.3 165.0Q554.6 163.5 554.6 161.5L554.6 161.5Q554.6 159.4 555.3 157.9Q556.1 156.4 557.4 155.5Q558.7 154.7 560.4 154.7L560.4 154.7Q562.1 154.7 563.4 155.5Q564.7 156.4 565.4 157.9Q566.2 159.4 566.2 161.5L566.2 161.5Q566.2 163.5 565.4 165.0Q564.7 166.5 563.4 167.4Q562.1 168.2 560.4 168.2ZM560.4 166.6L560.4 166.6Q561.6 166.6 562.5 166.0Q563.4 165.4 564.0 164.3Q564.6 163.1 564.6 161.5L564.6 161.5Q564.6 159.8 564.0 158.6Q563.4 157.5 562.5 156.9Q561.6 156.3 560.4 156.3L560.4 156.3Q559.2 156.3 558.3 156.9Q557.3 157.5 556.7 158.6Q556.2 159.8 556.2 161.5L556.2 161.5Q556.2 163.1 556.7 164.3Q557.3 165.4 558.3 166.0Q559.2 166.6 560.4 166.6ZM578.5 168L576.8 168L576.8 154.9L581.3 154.9Q582.9 154.9 583.8 155.5Q584.8 156.0 585.3 157.0Q585.8 157.9 585.8 159.1Q585.8 160.2 585.3 161.2Q584.8 162.1 583.8 162.7Q582.9 163.3 581.3 163.3L581.3 163.3L578.5 163.3L578.5 168ZM578.5 156.4L578.5 161.8L581.3 161.8Q582.3 161.8 582.9 161.4Q583.6 161.1 583.8 160.5Q584.1 159.8 584.1 159.1Q584.1 158.3 583.8 157.7Q583.6 157.1 582.9 156.7Q582.3 156.4 581.2 156.4L581.2 156.4L578.5 156.4ZM604.4 168L596.3 168L596.3 154.9L604.3 154.9L604.3 156.4L598.0 156.4L598.0 160.7L603.9 160.7L603.9 162.1L598.0 162.1L598.0 166.5L604.4 166.5L604.4 168ZM616.8 168L615.2 168L615.2 154.9L619.6 154.9Q621.2 154.9 622.2 155.4Q623.1 156.0 623.6 156.9Q624.1 157.8 624.1 158.9Q624.1 160.1 623.6 161.0Q623.1 161.9 622.2 162.4L622.2 162.4Q621.9 162.5 621.7 162.6L621.7 162.6L624.6 168L622.7 168L620.0 162.9Q619.8 162.9 619.6 162.9L619.6 162.9L616.8 162.9L616.8 168ZM616.8 156.4L616.8 161.4L619.6 161.4Q620.6 161.4 621.2 161.1Q621.9 160.8 622.2 160.3Q622.4 159.7 622.4 158.9L622.4 158.9Q622.4 158.2 622.2 157.6Q621.9 157.0 621.2 156.7Q620.6 156.4 619.5 156.4L619.5 156.4L616.8 156.4Z "/></g></svg>