<!-- Generated by readme-aura https://github.com/collectioneur/readme-aura -->
<svg width="900" height="180" viewBox="0 0 900 180" xmlns="http://www.w3.org/2000/svg"><clipPath id="satori_cp-id"><path x="0" y="0" width="900" height="180" d="M16,0 h868 a16,16 0 0 1 16,16 v148 a16,16 0 0 1 -16,16 h-868 a16,16 0 0 1 -16,-16 v-148 a16,16 0 0 1 16,-16"/></clipPath><mask id="satori_om-id"><rect x="0" y="0" width="900" height="180" fill="#fff"/></mask><path x="0" y="0" width="900" height="180" fill="#0a0c14" d="M16,0 h868 a16,16 0 0 1 16,16 v148 a16,16 0 0 1 -16,16 h-868 a16,16 0 0 1 -16,-16 v-148 a16,16 0 0 1 16,-16"/><clipPath id="satori_cp-id-0" clip-path="url(#satori_cp-id)"><rect x="0" y="0" width="900" height="180"/></clipPath><mask id="satori_om-id-0"><rect x="0" y="0" width="900" height="180" fill="#fff" mask="url(#satori_om-id)"/></mask><svg x="0" y="0" width="900" height="180" preserveAspectRatio="none" clip-path="url(#satori_cp-id-0)" mask="url(#satori_om-id-0)"><radialGradient id="ng" cx="85%" cy="40%" r="65%"><stop offset="0%" stop-color="#22d3ee" stop-opacity="0.18"></stop><stop offset="100%" stop-color="#0a0c14" stop-opacity="0"></stop></radialGradient><rect x="0" y="0" width="900" height="180" fill="url(#ng)"><animate attributeName="opacity" values="0.55;1;0.55" dur="4s" repeatCount="indefinite"></animate></rect></svg><mask id="satori_om-id-0-0"><rect x="0" y="0" width="0" height="180" fill="#fff" mask="url(#satori_om-id)"/></mask><mask id="satori_om-id-0-0-0"><rect x="0" y="0" width="0" height="180" fill="#fff" mask="url(#satori_om-id)"/></mask><mask id="satori_om-id-0-0-1"><rect x="0" y="0" width="0" height="180" fill="#fff" mask="url(#satori_om-id)"/></mask><mask id="satori_om-id-0-1"><rect x="0" y="0" width="0" height="180" fill="#fff" mask="url(#satori_om-id)"/></mask><mask id="satori_om-id-0-1-0"><rect x="0" y="0" width="0" height="180" fill="#fff" mask="url(#satori_om-id)"/></mask><mask id="satori_om-id-1"><rect x="28" y="22" width="844" height="136" fill="#fff" mask="url(#satori_om-id)"/></mask><mask id="satori_om-id-1-0"><rect x="28" y="22" width="844" height="21" fill="#fff" mask="url(#satori_om-id)"/></mask><mask id="satori_om-id-1-0-0"><rect x="28" y="25" width="191" height="15" fill="#fff" mask="url(#satori_om-id)"/></mask><mask id="satori_om-id-1-0-0-0"><rect x="28" y="28" width="10" height="10" fill="#fff" mask="url(#satori_om-id)"/></mask><path x="28" y="28" width="10" height="10" fill="#34d399" d="M33,28 h0 a5,5 0 0 1 5,5 v0 a5,5 0 0 1 -5,5 h0 a5,5 0 0 1 -5,-5 v0 a5,5 0 0 1 5,-5" clip-path="url(#satori_cp-id)" mask="url(#satori_om-id)"/><mask id="satori_om-id-1-0-0-0-0"><rect x="28" y="28" width="0" height="10" fill="#fff" mask="url(#satori_om-id)"/></mask><mask id="satori_om-id-1-0-0-1"><rect x="49" y="25" width="170" height="15" fill="#fff" mask="url(#satori_om-id)"/></mask><g mask="url(#satori_om-id)" clip-path="url(#satori_cp-id)"><path fill="#34d399" d="M53.6 37.1L53.6 37.1Q52.4 37.1 51.5 36.6Q50.6 36.1 50.1 35.1Q49.6 34.1 49.6 32.6L49.6 32.6Q49.6 31.2 50.1 30.2Q50.6 29.2 51.5 28.7Q52.5 28.2 53.6 28.2L53.6 28.2Q54.3 28.2 55.0 28.4Q55.6 28.6 56.1 29.0Q56.6 29.4 56.9 29.9Q57.3 30.5 57.4 31.3L57.4 31.3L55.6 31.3Q55.5 30.9 55.3 30.6Q55.2 30.3 54.9 30.1Q54.7 29.9 54.3 29.8Q54.0 29.7 53.6 29.7L53.6 29.7Q53.0 29.7 52.4 30.1Q51.9 30.4 51.7 31.1Q51.4 31.7 51.4 32.6L51.4 32.6Q51.4 33.6 51.7 34.2Q51.9 34.9 52.5 35.2Q53.0 35.5 53.6 35.5L53.6 35.5Q54.0 35.5 54.3 35.4Q54.6 35.3 54.9 35.1Q55.2 34.9 55.3 34.7Q55.5 34.4 55.6 34.0L55.6 34.0L57.4 34.0Q57.3 34.6 57.0 35.2Q56.7 35.7 56.2 36.2Q55.8 36.6 55.1 36.9Q54.4 37.1 53.6 37.1ZM64.3 37.1L64.3 37.1Q63.2 37.1 62.4 36.7Q61.6 36.3 61.1 35.6Q60.7 34.9 60.7 33.9L60.7 33.9L60.7 28.3L62.5 28.3L62.5 33.8Q62.5 34.3 62.7 34.7Q62.9 35.1 63.3 35.3Q63.7 35.5 64.3 35.5L64.3 35.5Q64.8 35.5 65.2 35.3Q65.6 35.1 65.9 34.7Q66.1 34.3 66.1 33.8L66.1 33.8L66.1 28.3L67.9 28.3L67.9 33.9Q67.9 34.9 67.4 35.6Q67.0 36.3 66.2 36.7Q65.3 37.1 64.3 37.1ZM73.2 37L71.5 37L71.5 28.3L74.9 28.3Q75.9 28.3 76.5 28.6Q77.2 29.0 77.6 29.6Q78.0 30.3 78.0 31.1Q78.0 32.0 77.6 32.6Q77.2 33.2 76.5 33.5L76.5 33.5Q76.5 33.6 76.4 33.6L76.4 33.6L78.3 37L76.3 37L74.6 33.9L73.2 33.9L73.2 37ZM73.2 29.7L73.2 32.4L74.5 32.4Q75.1 32.4 75.4 32.3Q75.8 32.1 76.0 31.8Q76.1 31.5 76.1 31.1L76.1 31.1Q76.1 30.7 76.0 30.4Q75.8 30.1 75.4 29.9Q75.1 29.7 74.5 29.7L74.5 29.7L73.2 29.7ZM83.1 37L81.3 37L81.3 28.3L84.7 28.3Q85.7 28.3 86.4 28.6Q87.1 29.0 87.5 29.6Q87.9 30.3 87.9 31.1Q87.9 32.0 87.5 32.6Q87.1 33.2 86.4 33.5L86.4 33.5Q86.4 33.6 86.3 33.6L86.3 33.6L88.2 37L86.2 37L84.5 33.9L83.1 33.9L83.1 37ZM83.1 29.7L83.1 32.4L84.4 32.4Q85.0 32.4 85.3 32.3Q85.7 32.1 85.8 31.8Q86.0 31.5 86.0 31.1L86.0 31.1Q86.0 30.7 85.8 30.4Q85.7 30.1 85.3 29.9Q85.0 29.7 84.4 29.7L84.4 29.7L83.1 29.7ZM97.1 37L91.2 37L91.2 28.3L97.1 28.3L97.1 29.8L93 29.8L93 31.9L96.8 31.9L96.8 33.3L93 33.3L93 35.5L97.1 35.5L97.1 37ZM102.3 37L100.5 37L100.5 28.3L102.5 28.3L105.3 32.7Q105.5 33.0 105.7 33.4Q105.9 33.8 106.1 34.3L106.1 34.3Q106.2 34.6 106.3 34.8L106.3 34.8Q106.3 34.6 106.3 34.4L106.3 34.4Q106.3 33.8 106.3 33.3Q106.2 32.8 106.2 32.5L106.2 32.5L106.2 28.3L108.1 28.3L108.1 37L106.1 37L103.6 33.0Q103.3 32.5 103.1 32.1Q102.8 31.7 102.6 31.2L102.6 31.2Q102.4 30.9 102.2 30.5L102.2 30.5Q102.2 30.8 102.3 31.2L102.3 31.2Q102.3 31.7 102.3 32.2Q102.3 32.7 102.3 33.0L102.3 33.0L102.3 37ZM114.0 29.8L111.3 29.8L111.3 28.3L118.4 28.3L118.4 29.8L115.8 29.8L115.8 37L114.0 37L114.0 29.8ZM127.2 37L121.7 37L121.7 28.3L123.4 28.3L123.4 35.5L127.2 35.5L127.2 37ZM135.0 37L133.2 37L133.2 33.7L129.9 28.3L132.0 28.3L133.5 31.0Q133.7 31.4 133.9 31.8L133.9 31.8Q134.0 32.0 134.1 32.2L134.1 32.2Q134.2 32.0 134.2 31.8L134.2 31.8Q134.4 31.4 134.6 31.0L134.6 31.0L136.1 28.3L138.1 28.3L135.0 33.7L135.0 37Z M149.7 37L146.1 37L146.1 28.3L149.5 28.3Q150.5 28.3 151.1 28.6Q151.8 28.8 152.1 29.4Q152.4 29.9 152.4 30.5L152.4 30.5Q152.4 31.0 152.2 31.4Q152.0 31.8 151.6 32.0Q151.3 32.3 150.8 32.4L150.8 32.4L150.8 32.5Q151.3 32.5 151.8 32.8Q152.2 33.0 152.5 33.5Q152.7 33.9 152.7 34.6L152.7 34.6Q152.7 35.3 152.4 35.8Q152.1 36.4 151.4 36.7Q150.7 37 149.7 37L149.7 37ZM147.8 33.2L147.8 35.5L149.4 35.5Q150.2 35.5 150.5 35.2Q150.9 34.9 150.9 34.4L150.9 34.4Q150.9 34.1 150.7 33.8Q150.5 33.5 150.2 33.3Q149.9 33.2 149.4 33.2L149.4 33.2L147.8 33.2ZM147.8 29.7L147.8 31.9L149.3 31.9Q149.6 31.9 149.9 31.8Q150.2 31.7 150.4 31.4Q150.6 31.2 150.6 30.8L150.6 30.8Q150.6 30.3 150.3 30.0Q149.9 29.7 149.3 29.7L149.3 29.7L147.8 29.7ZM159.6 37.1L159.6 37.1Q158.5 37.1 157.7 36.7Q156.9 36.3 156.4 35.6Q156.0 34.9 156.0 33.9L156.0 33.9L156.0 28.3L157.8 28.3L157.8 33.8Q157.8 34.3 158.0 34.7Q158.2 35.1 158.6 35.3Q159.0 35.5 159.6 35.5L159.6 35.5Q160.1 35.5 160.6 35.3Q161.0 35.1 161.2 34.7Q161.4 34.3 161.4 33.8L161.4 33.8L161.4 28.3L163.2 28.3L163.2 33.9Q163.2 34.9 162.8 35.6Q162.3 36.3 161.5 36.7Q160.7 37.1 159.6 37.1ZM166.8 28.3L168.6 28.3L168.6 37L166.8 37L166.8 28.3ZM177.7 37L172.1 37L172.1 28.3L173.9 28.3L173.9 35.5L177.7 35.5L177.7 37ZM184.0 37L184.0 37L180.9 37L180.9 28.3L184.0 28.3Q185.3 28.3 186.3 28.8Q187.2 29.3 187.7 30.3Q188.3 31.3 188.3 32.6L188.3 32.6Q188.3 34.0 187.7 35.0Q187.2 36.0 186.3 36.5Q185.3 37 184.0 37ZM182.7 29.8L182.7 35.5L183.9 35.5Q184.8 35.5 185.3 35.2Q185.9 34.9 186.2 34.2Q186.5 33.6 186.5 32.6L186.5 32.6Q186.5 31.7 186.2 31.0Q185.9 30.4 185.3 30.1Q184.8 29.8 183.9 29.8L183.9 29.8L182.7 29.8ZM191.6 28.3L193.4 28.3L193.4 37L191.6 37L191.6 28.3ZM198.8 37L197.0 37L197.0 28.3L199.0 28.3L201.7 32.7Q201.9 33.0 202.1 33.4Q202.4 33.8 202.6 34.3L202.6 34.3Q202.7 34.6 202.8 34.8L202.8 34.8Q202.8 34.6 202.8 34.4L202.8 34.4Q202.8 33.8 202.7 33.3Q202.7 32.8 202.7 32.5L202.7 32.5L202.7 28.3L204.5 28.3L204.5 37L202.5 37L200.0 33.0Q199.8 32.5 199.5 32.1Q199.3 31.7 199.0 31.2L199.0 31.2Q198.9 30.9 198.7 30.5L198.7 30.5Q198.7 30.8 198.7 31.2L198.7 31.2Q198.8 31.7 198.8 32.2Q198.8 32.7 198.8 33.0L198.8 33.0L198.8 37ZM212.0 37.1L212.0 37.1Q210.8 37.1 209.8 36.6Q208.9 36.0 208.4 35.0Q207.9 34.0 207.9 32.6L207.9 32.6Q207.9 31.2 208.4 30.2Q209.0 29.2 209.9 28.7Q210.8 28.2 211.9 28.2L211.9 28.2Q212.7 28.2 213.3 28.4Q214.0 28.6 214.4 29.0Q214.9 29.4 215.3 29.9Q215.6 30.4 215.7 31.1L215.7 31.1L213.8 31.1Q213.8 30.8 213.6 30.5Q213.4 30.3 213.2 30.1Q212.9 29.9 212.6 29.8Q212.3 29.7 212.0 29.7L212.0 29.7Q211.3 29.7 210.8 30.1Q210.3 30.4 210.0 31.1Q209.7 31.7 209.7 32.6Q209.7 33.6 210.0 34.2Q210.3 34.8 210.8 35.2Q211.3 35.5 212.0 35.5L212.0 35.5Q212.6 35.5 213.1 35.3Q213.5 35.1 213.8 34.6L213.8 34.6Q214.0 34.2 214.0 33.7L214.0 33.7L212.1 33.7L212.1 32.3L215.8 32.3L215.8 33.4Q215.8 34.6 215.3 35.4Q214.8 36.2 213.9 36.7Q213.1 37.1 212.0 37.1Z "/></g><defs><clipPath id="satori_bc-id-1-0-1" clip-path="url(#satori_cp-id)"><path x="770" y="22" width="102" height="21" d="M780.5,22 h81 a10.5,10.5 0 0 1 10.5,10.5 v0 a10.5,10.5 0 0 1 -10.5,10.5 h-81 a10.5,10.5 0 0 1 -10.5,-10.5 v0 a10.5,10.5 0 0 1 10.5,-10.5"/></clipPath></defs><mask id="satori_om-id-1-0-1"><rect x="771" y="23" width="100" height="19" fill="#fff" mask="url(#satori_om-id)"/><path width="102" height="21" fill="none" stroke="#000" stroke-width="2" d="M773.075,25.075 A10.5,10.5 0 0 1 780.5,22 h81 a10.5,10.5 0 0 1 10.5,10.5 v0 a10.5,10.5 0 0 1 -10.5,10.5 h-81 a10.5,10.5 0 0 1 -10.5,-10.5 v0 A10.5,10.5 0 0 1 773.075,25.075"/></mask><path x="770" y="22" width="102" height="21" fill="#34d39914" d="M780.5,22 h81 a10.5,10.5 0 0 1 10.5,10.5 v0 a10.5,10.5 0 0 1 -10.5,10.5 h-81 a10.5,10.5 0 0 1 -10.5,-10.5 v0 a10.5,10.5 0 0 1 10.5,-10.5" clip-path="url(#satori_cp-id)" mask="url(#satori_om-id)"/><path width="102" height="21" clip-path="url(#satori_bc-id-1-0-1)" fill="none" stroke="#34d39944" stroke-width="2" d="M773.075,25.075 A10.5,10.5 0 0 1 780.5,22 h81 a10.5,10.5 0 0 1 10.5,10.5 v0 a10.5,10.5 0 0 1 -10.5,10.5 h-81 a10.5,10.5 0 0 1 -10.5,-10.5 v0 A10.5,10.5 0 0 1 773.075,25.075"/><g mask="url(#satori_om-id)" clip-path="url(#satori_cp-id)"><path fill="#34d399" d="M786.4 37.1L786.4 37.1Q785.5 37.1 784.8 36.7Q784.1 36.4 783.8 35.7Q783.4 35.0 783.4 34.0L783.4 34.0Q783.4 33.1 783.8 32.4Q784.1 31.7 784.8 31.3Q785.4 30.9 786.3 30.9L786.3 30.9Q786.9 30.9 787.4 31.1Q787.9 31.3 788.3 31.7Q788.7 32.1 788.9 32.6Q789.1 33.2 789.1 34.0L789.1 34.0L789.1 34.4L785.0 34.4Q785.0 34.9 785.2 35.2L785.2 35.2Q785.4 35.5 785.7 35.7Q786.0 35.9 786.4 35.9L786.4 35.9Q786.7 35.9 786.9 35.8Q787.2 35.7 787.3 35.6Q787.5 35.4 787.6 35.2L787.6 35.2L789.0 35.5Q788.9 36.0 788.5 36.3Q788.2 36.7 787.6 36.9Q787.1 37.1 786.4 37.1ZM785.0 33.4L785.0 33.4L787.6 33.4Q787.6 33.1 787.5 32.9L787.5 32.9Q787.3 32.5 787.0 32.3Q786.7 32.1 786.3 32.1L786.3 32.1Q785.9 32.1 785.6 32.3Q785.3 32.5 785.2 32.8L785.2 32.8Q785.1 33.1 785.0 33.4ZM791.9 33.5L791.9 33.5L791.9 37L790.2 37L790.2 31.0L791.8 31.0L791.8 32.2Q792.0 31.7 792.4 31.3L792.4 31.3Q792.9 30.9 793.7 30.9L793.7 30.9Q794.3 30.9 794.7 31.2Q795.2 31.5 795.5 32.0Q795.7 32.5 795.7 33.2L795.7 33.2L795.7 37L794.1 37L794.1 33.5Q794.1 32.9 793.8 32.6Q793.5 32.3 793.0 32.3L793.0 32.3Q792.7 32.3 792.4 32.4Q792.1 32.6 792.0 32.8Q791.9 33.1 791.9 33.5Z M801.3 39.2L799.7 39.2L799.7 31.0L801.3 31.0L801.3 32.0L801.4 32.0Q801.5 31.8 801.7 31.5Q801.9 31.3 802.2 31.1Q802.6 30.9 803.1 30.9L803.1 30.9Q803.7 30.9 804.3 31.3Q804.8 31.6 805.2 32.3Q805.5 33.0 805.5 34.0L805.5 34.0Q805.5 35.0 805.2 35.7Q804.9 36.4 804.3 36.7Q803.7 37.1 803.1 37.1L803.1 37.1Q802.6 37.1 802.2 36.9Q801.9 36.8 801.7 36.5Q801.5 36.3 801.4 36.0L801.4 36.0L801.3 36.0L801.3 39.2ZM802.6 35.8L802.6 35.8Q803.0 35.8 803.3 35.6Q803.6 35.3 803.7 34.9Q803.9 34.5 803.9 34.0L803.9 34.0Q803.9 33.5 803.7 33.1Q803.6 32.7 803.3 32.4Q803.0 32.2 802.6 32.2L802.6 32.2Q802.1 32.2 801.9 32.4Q801.6 32.7 801.4 33.1Q801.3 33.5 801.3 34.0L801.3 34.0Q801.3 34.5 801.4 35.0Q801.6 35.4 801.9 35.6Q802.2 35.8 802.6 35.8ZM808.2 37L806.6 37L806.6 31.0L808.2 31.0L808.2 32.0L808.2 32.0Q808.4 31.5 808.8 31.2Q809.2 30.9 809.7 30.9L809.7 30.9Q809.8 30.9 810.0 30.9Q810.1 30.9 810.2 31.0L810.2 31.0L810.2 32.4Q810.1 32.4 809.9 32.3Q809.7 32.3 809.5 32.3L809.5 32.3Q809.2 32.3 808.9 32.5Q808.6 32.6 808.4 32.9Q808.2 33.2 808.2 33.6L808.2 33.6L808.2 37ZM813.8 37.1L813.8 37.1Q812.9 37.1 812.2 36.7Q811.6 36.3 811.2 35.6Q810.9 34.9 810.9 34.0L810.9 34.0Q810.9 33.1 811.2 32.4Q811.6 31.7 812.2 31.3Q812.9 30.9 813.8 30.9L813.8 30.9Q814.7 30.9 815.4 31.3Q816.0 31.7 816.4 32.4Q816.7 33.1 816.7 34.0L816.7 34.0Q816.7 34.9 816.4 35.6Q816.0 36.3 815.4 36.7Q814.7 37.1 813.8 37.1ZM813.8 35.9L813.8 35.9Q814.2 35.9 814.5 35.6Q814.8 35.4 814.9 35.0Q815.1 34.5 815.1 34.0L815.1 34.0Q815.1 33.5 814.9 33.1Q814.8 32.7 814.5 32.4Q814.2 32.2 813.8 32.2L813.8 32.2Q813.4 32.2 813.1 32.4Q812.8 32.7 812.6 33.1Q812.5 33.5 812.5 34.0L812.5 34.0Q812.5 34.5 812.6 35.0Q812.8 35.4 813.1 35.6Q813.4 35.9 813.8 35.9ZM820.0 37.1L820.0 37.1Q819.4 37.1 818.8 36.7Q818.2 36.4 817.9 35.7Q817.6 35.0 817.6 34.0L817.6 34.0Q817.6 33.0 817.9 32.3Q818.3 31.6 818.8 31.3Q819.4 30.9 820.0 30.9L820.0 30.9Q820.5 30.9 820.9 31.1Q821.2 31.3 821.4 31.5Q821.6 31.8 821.7 32.0L821.7 32.0L821.8 32.0L821.8 29.0L823.4 29.0L823.4 37L821.8 37L821.8 36.0L821.7 36.0Q821.6 36.3 821.4 36.5Q821.2 36.8 820.9 36.9Q820.5 37.1 820.0 37.1ZM820.5 35.8L820.5 35.8Q821.0 35.8 821.2 35.6Q821.5 35.4 821.7 35.0Q821.8 34.5 821.8 34.0L821.8 34.0Q821.8 33.5 821.7 33.1Q821.5 32.7 821.2 32.4Q821.0 32.2 820.5 32.2L820.5 32.2Q820.1 32.2 819.8 32.4Q819.5 32.7 819.4 33.1Q819.3 33.5 819.3 34.0L819.3 34.0Q819.3 34.5 819.4 34.9Q819.6 35.3 819.8 35.6Q820.1 35.8 820.5 35.8ZM826.9 37.1L826.9 37.1Q826.2 37.1 825.8 36.8Q825.3 36.5 825.0 36.0Q824.8 35.5 824.8 34.8L824.8 34.8L824.8 31.0L826.4 31.0L826.4 34.5Q826.4 35.1 826.7 35.4Q827.0 35.7 827.5 35.7L827.5 35.7Q827.8 35.7 828.1 35.6Q828.4 35.4 828.5 35.1Q828.6 34.9 828.6 34.5L828.6 34.5L828.6 31.0L830.3 31.0L830.3 37L828.7 37L828.7 35.7Q828.5 36.3 828.1 36.7L828.1 36.7Q827.6 37.1 826.9 37.1ZM834.3 37.1L834.3 37.1Q833.4 37.1 832.8 36.7Q832.1 36.3 831.7 35.6Q831.4 34.9 831.4 34.0L831.4 34.0Q831.4 33.1 831.7 32.4Q832.1 31.7 832.8 31.3Q833.4 30.9 834.3 30.9L834.3 30.9Q834.9 30.9 835.3 31.1Q835.8 31.2 836.1 31.5Q836.5 31.7 836.7 32.1Q836.9 32.5 837.0 32.9L837.0 32.9L835.5 33.2Q835.4 33.0 835.3 32.8Q835.2 32.6 835.1 32.5Q834.9 32.3 834.8 32.3Q834.6 32.2 834.3 32.2L834.3 32.2Q833.9 32.2 833.6 32.4Q833.3 32.6 833.2 33.1Q833.0 33.5 833.0 34.0L833.0 34.0Q833.0 34.6 833.2 35.0Q833.3 35.4 833.6 35.6Q833.9 35.9 834.3 35.9L834.3 35.9Q834.6 35.9 834.8 35.8Q835.0 35.7 835.1 35.6Q835.3 35.4 835.4 35.2Q835.5 35.0 835.5 34.8L835.5 34.8L837.0 35.1Q836.9 35.6 836.7 35.9Q836.5 36.3 836.1 36.6Q835.8 36.8 835.3 37.0Q834.9 37.1 834.3 37.1ZM840.0 31.0L841.1 31.0L841.1 32.2L840.0 32.2L840.0 35.2Q840.0 35.5 840.1 35.7Q840.2 35.8 840.5 35.8L840.5 35.8Q840.6 35.8 840.8 35.8Q840.9 35.8 841.0 35.7L841.0 35.7L841.3 36.9Q841.0 37.0 840.7 37.1Q840.5 37.1 840.2 37.1L840.2 37.1Q839.3 37.1 838.8 36.6Q838.4 36.2 838.4 35.4L838.4 35.4L838.4 32.2L837.5 32.2L837.5 31.0L838.4 31.0L838.4 29.6L840.0 29.6L840.0 31.0ZM843.7 37L842.1 37L842.1 31.0L843.7 31.0L843.7 37ZM842.9 30.2L842.9 30.2Q842.6 30.2 842.3 30.0Q842.1 29.7 842.1 29.4L842.1 29.4Q842.1 29.0 842.3 28.8Q842.6 28.6 842.9 28.6L842.9 28.6Q843.3 28.6 843.6 28.8Q843.8 29.0 843.8 29.4L843.8 29.4Q843.8 29.7 843.6 30.0Q843.3 30.2 842.9 30.2ZM847.8 37.1L847.8 37.1Q846.9 37.1 846.2 36.7Q845.6 36.3 845.2 35.6Q844.9 34.9 844.9 34.0L844.9 34.0Q844.9 33.1 845.2 32.4Q845.6 31.7 846.2 31.3Q846.9 30.9 847.8 30.9L847.8 30.9Q848.7 30.9 849.4 31.3Q850.0 31.7 850.4 32.4Q850.7 33.1 850.7 34.0L850.7 34.0Q850.7 34.9 850.4 35.6Q850.0 36.3 849.4 36.7Q848.7 37.1 847.8 37.1ZM847.8 35.9L847.8 35.9Q848.2 35.9 848.5 35.6Q848.8 35.4 849.0 35.0Q849.1 34.5 849.1 34.0L849.1 34.0Q849.1 33.5 849.0 33.1Q848.8 32.7 848.5 32.4Q848.2 32.2 847.8 32.2L847.8 32.2Q847.4 32.2 847.1 32.4Q846.8 32.7 846.7 33.1Q846.5 33.5 846.5 34.0L846.5 34.0Q846.5 34.5 846.7 35.0Q846.8 35.4 847.1 35.6Q847.4 35.9 847.8 35.9ZM853.5 33.5L853.5 33.5L853.5 37L851.9 37L851.9 31.0L853.4 31.0L853.4 32.2Q853.6 31.7 854.0 31.3L854.0 31.3Q854.5 30.9 855.3 30.9L855.3 30.9Q855.9 30.9 856.4 31.2Q856.8 31.5 857.1 32.0Q857.3 32.5 857.3 33.2L857.3 33.2L857.3 37L855.7 37L855.7 33.5Q855.7 32.9 855.4 32.6Q855.1 32.3 854.6 32.3L854.6 32.3Q854.3 32.3 854.0 32.4Q853.8 32.6 853.6 32.8Q853.5 33.1 853.5 33.5Z "/></g><mask id="satori_om-id-1-1"><rect x="28" y="49" width="844" height="31" fill="#fff" mask="url(#satori_om-id)"/></mask><mask id="satori_om-id-1-1-0"><rect x="28" y="49" width="67" height="31" fill="#fff" mask="url(#satori_om-id)"/></mask><g mask="url(#satori_om-id)" clip-path="url(#satori_cp-id)"><path fill="#f1f5f9" d="M33.6 74L29.7 74L29.7 55.1L33.6 55.1L33.6 60.3L33.5 64.5Q33.6 64.4 33.7 64.3L33.7 64.3Q34.3 63.4 34.9 62.5Q35.6 61.6 36.5 60.5L36.5 60.5L41.1 55.1L45.8 55.1L38.8 63.3L46.1 74L41.5 74L36.1 65.8L33.6 68.6L33.6 74ZM48.3 55.1L52.1 55.1L52.1 74L48.3 74L48.3 55.1ZM59.3 74.3L59.3 74.3Q58.0 74.3 56.9 73.8Q55.8 73.3 55.2 72.4Q54.6 71.4 54.6 70.0L54.6 70.0Q54.6 68.8 55.0 68.0Q55.5 67.2 56.2 66.8Q57.0 66.3 58.0 66.0Q58.9 65.8 60.0 65.7L60.0 65.7Q61.2 65.5 62.0 65.4Q62.7 65.3 63.1 65.1Q63.4 64.9 63.4 64.4L63.4 64.4L63.4 64.3Q63.4 63.7 63.2 63.3Q62.9 62.9 62.4 62.7Q61.9 62.4 61.2 62.4L61.2 62.4Q60.4 62.4 59.9 62.7Q59.4 62.9 59.0 63.3Q58.7 63.6 58.5 64.1L58.5 64.1L55.0 63.5Q55.4 62.3 56.2 61.4Q57.1 60.5 58.3 60.1Q59.6 59.6 61.2 59.6L61.2 59.6Q62.3 59.6 63.4 59.9Q64.5 60.2 65.4 60.7Q66.2 61.3 66.7 62.2Q67.2 63.2 67.2 64.4L67.2 64.4L67.2 74L63.6 74L63.6 72.0L63.5 72.0Q63.1 72.7 62.6 73.2Q62.0 73.7 61.2 74.0Q60.4 74.3 59.3 74.3ZM60.4 71.6L60.4 71.6Q61.3 71.6 62.0 71.2Q62.7 70.9 63.1 70.3Q63.4 69.7 63.4 68.9L63.4 68.9L63.4 67.4Q63.3 67.5 62.9 67.6Q62.6 67.7 62.2 67.8Q61.7 67.9 61.3 67.9Q60.9 68.0 60.6 68.0L60.6 68.0Q59.9 68.1 59.4 68.4Q58.8 68.6 58.6 69.0Q58.3 69.3 58.3 69.9L58.3 69.9Q58.3 70.5 58.5 70.8Q58.8 71.2 59.3 71.4Q59.8 71.6 60.4 71.6ZM74.3 74L70.5 74L70.5 59.8L74.1 59.8L74.1 62.3L74.3 62.3Q74.7 61.0 75.6 60.3Q76.5 59.6 77.7 59.6L77.7 59.6Q78.0 59.6 78.4 59.6Q78.7 59.7 79.0 59.7L79.0 59.7L79.0 63.1Q78.7 63.1 78.2 63.0Q77.7 63.0 77.3 63.0L77.3 63.0Q76.4 63.0 75.7 63.3Q75.0 63.7 74.7 64.4Q74.3 65.0 74.3 65.9L74.3 65.9L74.3 74ZM84.9 74L81.1 74L81.1 55.1L84.9 55.1L84.9 65.3L85.1 65.3L89.7 59.8L94.1 59.8L88.8 66.0L94.4 74L89.9 74L86.0 68.2L84.9 69.4L84.9 74Z "/></g><mask id="satori_om-id-1-1-1"><rect x="107" y="59" width="393" height="17" fill="#fff" mask="url(#satori_om-id)"/></mask><g mask="url(#satori_om-id)" clip-path="url(#satori_cp-id)"><path fill="#94a3b8" d="M111.5 73.2L111.5 73.2Q110.4 73.2 109.6 72.8Q108.8 72.5 108.3 71.8Q107.9 71.2 107.8 70.3L107.8 70.3L109.1 70.3Q109.2 70.9 109.5 71.3Q109.9 71.7 110.4 71.8Q110.9 72.0 111.5 72.0L111.5 72.0Q112.2 72.0 112.7 71.8Q113.3 71.6 113.6 71.2Q113.9 70.7 113.9 70.2L113.9 70.2Q113.9 69.7 113.6 69.4Q113.4 69.1 112.9 68.9Q112.5 68.7 111.9 68.5L111.9 68.5L110.7 68.2Q109.4 67.9 108.8 67.2Q108.1 66.6 108.1 65.5L108.1 65.5Q108.1 64.7 108.5 64.0Q109.0 63.4 109.8 63.0Q110.6 62.7 111.6 62.7L111.6 62.7Q112.6 62.7 113.4 63.0Q114.1 63.4 114.6 64.0Q115.0 64.6 115.1 65.4L115.1 65.4L113.8 65.4Q113.7 64.6 113.1 64.2Q112.4 63.8 111.5 63.8L111.5 63.8Q110.9 63.8 110.4 64.0Q109.9 64.3 109.6 64.6Q109.3 65.0 109.3 65.5L109.3 65.5Q109.3 66.0 109.7 66.3Q110.0 66.7 110.5 66.8Q110.9 67.0 111.3 67.1L111.3 67.1L112.3 67.4Q112.7 67.5 113.2 67.7Q113.7 67.9 114.2 68.2Q114.6 68.5 114.9 69.0Q115.2 69.5 115.2 70.2L115.2 70.2Q115.2 71.1 114.8 71.7Q114.3 72.4 113.5 72.8Q112.7 73.2 111.5 73.2ZM119.2 73.2L119.2 73.2Q118.5 73.2 117.9 72.9Q117.3 72.6 116.9 72.1Q116.6 71.6 116.6 70.8L116.6 70.8Q116.6 70.2 116.9 69.8Q117.1 69.3 117.6 69.1Q118.0 68.9 118.5 68.8Q119.0 68.6 119.6 68.6L119.6 68.6Q120.3 68.5 120.7 68.4Q121.1 68.4 121.3 68.3Q121.5 68.2 121.5 67.9L121.5 67.9L121.5 67.8Q121.5 67.4 121.4 67.0Q121.2 66.7 120.8 66.5Q120.5 66.3 119.9 66.3L119.9 66.3Q119.4 66.3 119.0 66.5Q118.6 66.7 118.4 66.9Q118.1 67.2 118.0 67.5L118.0 67.5L116.8 67.1Q117.1 66.4 117.6 66.0Q118.1 65.6 118.7 65.4Q119.3 65.3 119.9 65.3L119.9 65.3Q120.3 65.3 120.8 65.4Q121.3 65.4 121.7 65.7Q122.2 66.0 122.5 66.5Q122.8 67.1 122.8 68.0L122.8 68.0L122.8 73L121.6 73L121.6 72.0L121.5 72.0Q121.3 72.2 121.1 72.5Q120.8 72.8 120.3 73.0Q119.9 73.2 119.2 73.2ZM119.4 72.1L119.4 72.1Q120.1 72.1 120.6 71.8Q121.0 71.6 121.3 71.1Q121.5 70.7 121.5 70.2L121.5 70.2L121.5 69.2Q121.5 69.3 121.2 69.3Q121.0 69.4 120.6 69.5Q120.3 69.5 120.0 69.6Q119.7 69.6 119.5 69.6L119.5 69.6Q119.1 69.7 118.7 69.8Q118.3 69.9 118.1 70.2Q117.8 70.5 117.8 70.9L117.8 70.9Q117.8 71.3 118.0 71.6Q118.2 71.8 118.6 72.0Q119.0 72.1 119.4 72.1ZM127.1 73.2L127.1 73.2Q126.3 73.2 125.7 72.9Q125.2 72.6 124.8 72.1Q124.5 71.6 124.5 70.8L124.5 70.8Q124.5 70.2 124.7 69.8Q125.0 69.3 125.4 69.1Q125.8 68.9 126.4 68.8Q126.9 68.6 127.4 68.6L127.4 68.6Q128.1 68.5 128.5 68.4Q129.0 68.4 129.2 68.3Q129.4 68.2 129.4 67.9L129.4 67.9L129.4 67.8Q129.4 67.4 129.2 67.0Q129.0 66.7 128.7 66.5Q128.3 66.3 127.8 66.3L127.8 66.3Q127.2 66.3 126.9 66.5Q126.5 66.7 126.2 66.9Q126.0 67.2 125.9 67.5L125.9 67.5L124.7 67.1Q125.0 66.4 125.5 66.0Q126.0 65.6 126.6 65.4Q127.2 65.3 127.8 65.3L127.8 65.3Q128.1 65.3 128.6 65.4Q129.1 65.4 129.6 65.7Q130.0 66.0 130.3 66.5Q130.6 67.1 130.6 68.0L130.6 68.0L130.6 73L129.4 73L129.4 72.0L129.3 72.0Q129.2 72.2 128.9 72.5Q128.6 72.8 128.2 73.0Q127.7 73.2 127.1 73.2ZM127.3 72.1L127.3 72.1Q128.0 72.1 128.4 71.8Q128.9 71.6 129.1 71.1Q129.4 70.7 129.4 70.2L129.4 70.2L129.4 69.2Q129.3 69.3 129.1 69.3Q128.8 69.4 128.5 69.5Q128.2 69.5 127.9 69.6Q127.6 69.6 127.4 69.6L127.4 69.6Q126.9 69.7 126.5 69.8Q126.2 69.9 125.9 70.2Q125.7 70.5 125.7 70.9L125.7 70.9Q125.7 71.3 125.9 71.6Q126.1 71.8 126.5 72.0Q126.8 72.1 127.3 72.1ZM136.2 73.2L136.2 73.2Q135.1 73.2 134.3 72.8Q133.5 72.5 133.0 71.8Q132.6 71.2 132.5 70.3L132.5 70.3L133.8 70.3Q133.9 70.9 134.2 71.3Q134.6 71.7 135.1 71.8Q135.6 72.0 136.2 72.0L136.2 72.0Q136.9 72.0 137.4 71.8Q138.0 71.6 138.3 71.2Q138.6 70.7 138.6 70.2L138.6 70.2Q138.6 69.7 138.4 69.4Q138.1 69.1 137.6 68.9Q137.2 68.7 136.6 68.5L136.6 68.5L135.4 68.2Q134.2 67.9 133.5 67.2Q132.8 66.6 132.8 65.5L132.8 65.5Q132.8 64.7 133.3 64.0Q133.7 63.4 134.5 63.0Q135.3 62.7 136.3 62.7L136.3 62.7Q137.3 62.7 138.1 63.0Q138.8 63.4 139.3 64.0Q139.7 64.6 139.8 65.4L139.8 65.4L138.5 65.4Q138.4 64.6 137.8 64.2Q137.2 63.8 136.2 63.8L136.2 63.8Q135.6 63.8 135.1 64.0Q134.6 64.3 134.3 64.6Q134.0 65.0 134.0 65.5L134.0 65.5Q134.0 66.0 134.4 66.3Q134.7 66.7 135.2 66.8Q135.6 67.0 136.0 67.1L136.0 67.1L137.0 67.4Q137.4 67.5 137.9 67.7Q138.4 67.9 138.9 68.2Q139.3 68.5 139.6 69.0Q139.9 69.5 139.9 70.2L139.9 70.2Q139.9 71.1 139.5 71.7Q139.0 72.4 138.2 72.8Q137.4 73.2 136.2 73.2Z M149.6 73L145.9 73L145.9 62.8L149.5 62.8Q150.5 62.8 151.2 63.2Q151.9 63.5 152.3 64.2Q152.6 64.8 152.6 65.5L152.6 65.5Q152.6 66.2 152.4 66.6Q152.1 67.0 151.8 67.3Q151.4 67.5 150.9 67.7L150.9 67.7L150.9 67.8Q151.4 67.8 151.9 68.1Q152.4 68.4 152.7 68.9Q153.0 69.5 153.0 70.3L153.0 70.3Q153.0 71.1 152.6 71.7Q152.3 72.3 151.5 72.6Q150.8 73 149.6 73L149.6 73ZM147.2 68.4L147.2 71.9L149.5 71.9Q150.7 71.9 151.2 71.4Q151.7 70.9 151.7 70.3L151.7 70.3Q151.7 69.8 151.5 69.3Q151.2 68.9 150.7 68.6Q150.3 68.4 149.6 68.4L149.6 68.4L147.2 68.4ZM147.2 64.0L147.2 67.3L149.4 67.3Q149.9 67.3 150.4 67.1Q150.8 66.9 151.1 66.5Q151.4 66.1 151.4 65.5L151.4 65.5Q151.4 64.9 150.9 64.4Q150.4 64.0 149.4 64.0L149.4 64.0L147.2 64.0ZM161.3 73L154.8 73L154.8 72.1L158.2 68.4Q158.8 67.8 159.2 67.3Q159.5 66.8 159.7 66.4Q159.9 66.0 159.9 65.5L159.9 65.5Q159.9 65.0 159.7 64.6Q159.4 64.2 159.0 64.0Q158.6 63.8 158.0 63.8L158.0 63.8Q157.4 63.8 157.0 64.0Q156.6 64.3 156.3 64.7Q156.1 65.1 156.1 65.7L156.1 65.7L154.9 65.7Q154.9 64.8 155.3 64.1Q155.7 63.4 156.4 63.1Q157.1 62.7 158.0 62.7L158.0 62.7Q159.0 62.7 159.7 63.1Q160.4 63.4 160.8 64.1Q161.2 64.7 161.2 65.5L161.2 65.5Q161.2 66.1 161.0 66.6Q160.8 67.1 160.3 67.8Q159.8 68.4 158.9 69.4L158.9 69.4L156.6 71.8L156.6 71.9L161.3 71.9L161.3 73ZM167.3 73L163.6 73L163.6 62.8L167.2 62.8Q168.2 62.8 168.9 63.2Q169.6 63.5 170.0 64.2Q170.3 64.8 170.3 65.5L170.3 65.5Q170.3 66.2 170.1 66.6Q169.8 67.0 169.4 67.3Q169.1 67.5 168.6 67.7L168.6 67.7L168.6 67.8Q169.1 67.8 169.6 68.1Q170.1 68.4 170.4 68.9Q170.7 69.5 170.7 70.3L170.7 70.3Q170.7 71.1 170.3 71.7Q170.0 72.3 169.2 72.6Q168.5 73 167.3 73L167.3 73ZM164.9 68.4L164.9 71.9L167.2 71.9Q168.4 71.9 168.9 71.4Q169.4 70.9 169.4 70.3L169.4 70.3Q169.4 69.8 169.2 69.3Q168.9 68.9 168.4 68.6Q168.0 68.4 167.3 68.4L167.3 68.4L164.9 68.4ZM164.9 64.0L164.9 67.3L167.1 67.3Q167.6 67.3 168.1 67.1Q168.5 66.9 168.8 66.5Q169.0 66.1 169.0 65.5L169.0 65.5Q169.0 64.9 168.6 64.4Q168.1 64.0 167.1 64.0L167.1 64.0L164.9 64.0Z M178.6 73.2L178.6 73.2Q177.9 73.2 177.3 72.9Q176.7 72.6 176.4 72.1Q176.0 71.6 176.0 70.8L176.0 70.8Q176.0 70.2 176.3 69.8Q176.6 69.3 177.0 69.1Q177.4 68.9 178.0 68.8Q178.5 68.6 179.0 68.6L179.0 68.6Q179.7 68.5 180.1 68.4Q180.6 68.4 180.8 68.3Q181.0 68.2 181.0 67.9L181.0 67.9L181.0 67.8Q181.0 67.4 180.8 67.0Q180.6 66.7 180.3 66.5Q179.9 66.3 179.4 66.3L179.4 66.3Q178.8 66.3 178.4 66.5Q178.0 66.7 177.8 66.9Q177.6 67.2 177.4 67.5L177.4 67.5L176.3 67.1Q176.5 66.4 177.0 66.0Q177.5 65.6 178.1 65.4Q178.8 65.3 179.3 65.3L179.3 65.3Q179.7 65.3 180.2 65.4Q180.7 65.4 181.2 65.7Q181.6 66.0 181.9 66.5Q182.2 67.1 182.2 68.0L182.2 68.0L182.2 73L181.0 73L181.0 72.0L180.9 72.0Q180.8 72.2 180.5 72.5Q180.2 72.8 179.7 73.0Q179.3 73.2 178.6 73.2ZM178.9 72.1L178.9 72.1Q179.5 72.1 180.0 71.8Q180.5 71.6 180.7 71.1Q181.0 70.7 181.0 70.2L181.0 70.2L181.0 69.2Q180.9 69.3 180.6 69.3Q180.4 69.4 180.1 69.5Q179.7 69.5 179.4 69.6Q179.1 69.6 179.0 69.6L179.0 69.6Q178.5 69.7 178.1 69.8Q177.7 69.9 177.5 70.2Q177.3 70.5 177.3 70.9L177.3 70.9Q177.3 71.3 177.5 71.6Q177.7 71.8 178.0 72.0Q178.4 72.1 178.9 72.1ZM184.4 62.8L185.6 62.8L185.6 73L184.4 73L184.4 62.8ZM187.8 62.8L189.0 62.8L189.0 73L187.8 73L187.8 62.8ZM191.0 68.1L195.5 68.1L195.5 69.2L191.0 69.2L191.0 68.1ZM198.8 73L197.6 73L197.6 65.4L198.8 65.4L198.8 73ZM198.2 64.1L198.2 64.1Q197.9 64.1 197.6 63.9Q197.4 63.6 197.4 63.3L197.4 63.3Q197.4 63.0 197.6 62.7Q197.9 62.5 198.2 62.5L198.2 62.5Q198.6 62.5 198.8 62.7Q199.1 63.0 199.1 63.3L199.1 63.3Q199.1 63.6 198.8 63.9Q198.6 64.1 198.2 64.1ZM202.2 68.4L202.2 68.4L202.2 73L201.0 73L201.0 65.4L202.2 65.4L202.2 66.8Q202.5 66.1 203.0 65.7L203.0 65.7Q203.6 65.3 204.5 65.3L204.5 65.3Q205.3 65.3 205.9 65.6Q206.4 65.9 206.8 66.5Q207.1 67.2 207.1 68.1L207.1 68.1L207.1 73L205.9 73L205.9 68.2Q205.9 67.4 205.4 66.9Q204.9 66.4 204.1 66.4L204.1 66.4Q203.6 66.4 203.1 66.6Q202.7 66.8 202.5 67.3Q202.2 67.8 202.2 68.4ZM209.1 68.1L213.6 68.1L213.6 69.2L209.1 69.2L209.1 68.1ZM218.8 73.2L218.8 73.2Q217.8 73.2 217.0 72.7Q216.2 72.2 215.8 71.3Q215.3 70.4 215.3 69.2L215.3 69.2Q215.3 68.0 215.8 67.1Q216.2 66.2 217.0 65.8Q217.8 65.3 218.8 65.3L218.8 65.3Q219.8 65.3 220.6 65.8Q221.4 66.2 221.9 67.1Q222.3 68.0 222.3 69.2L222.3 69.2Q222.3 70.4 221.9 71.3Q221.4 72.2 220.6 72.7Q219.8 73.2 218.8 73.2ZM218.8 72.1L218.8 72.1Q219.6 72.1 220.1 71.7Q220.6 71.3 220.8 70.6Q221.0 70.0 221.0 69.2L221.0 69.2Q221.0 68.5 220.8 67.8Q220.6 67.2 220.1 66.8Q219.6 66.4 218.8 66.4L218.8 66.4Q218.0 66.4 217.5 66.8Q217.0 67.2 216.8 67.8Q216.6 68.5 216.6 69.2L216.6 69.2Q216.6 70.0 216.8 70.6Q217.0 71.3 217.5 71.7Q218.0 72.1 218.8 72.1ZM225.3 68.4L225.3 68.4L225.3 73L224.1 73L224.1 65.4L225.3 65.4L225.3 66.8Q225.6 66.1 226.1 65.7L226.1 65.7Q226.7 65.3 227.6 65.3L227.6 65.3Q228.4 65.3 229.0 65.6Q229.5 65.9 229.9 66.5Q230.2 67.2 230.2 68.1L230.2 68.1L230.2 73L229.0 73L229.0 68.2Q229.0 67.4 228.5 66.9Q228.0 66.4 227.2 66.4L227.2 66.4Q226.7 66.4 226.3 66.6Q225.8 66.8 225.6 67.3Q225.3 67.8 225.3 68.4ZM235.6 73.2L235.6 73.2Q234.5 73.2 233.7 72.7Q232.8 72.2 232.4 71.3Q232.0 70.4 232.0 69.2Q232.0 68.1 232.4 67.2Q232.8 66.3 233.6 65.8Q234.4 65.3 235.4 65.3L235.4 65.3Q236.0 65.3 236.6 65.5Q237.2 65.7 237.7 66.1Q238.2 66.6 238.5 67.3Q238.7 68.0 238.7 69.1L238.7 69.1L238.7 69.6L233.2 69.6Q233.3 70.3 233.5 70.9L233.5 70.9Q233.8 71.5 234.3 71.8Q234.9 72.1 235.6 72.1L235.6 72.1Q236.0 72.1 236.4 71.9Q236.8 71.8 237.0 71.5Q237.3 71.3 237.4 70.9L237.4 70.9L238.6 71.2Q238.4 71.8 238.0 72.2Q237.6 72.7 237.0 72.9Q236.3 73.2 235.6 73.2ZM233.2 68.6L233.2 68.6L237.5 68.6Q237.5 68.0 237.3 67.6L237.3 67.6Q237.0 67.0 236.6 66.7Q236.1 66.4 235.4 66.4Q234.7 66.4 234.2 66.7Q233.7 67.0 233.5 67.6L233.5 67.6Q233.3 68.0 233.2 68.6ZM241.3 75.5L240.3 75.5L240.9 71.6L242.3 71.6L241.3 75.5Z M250.3 62.8L251.9 62.8L251.9 73L250.6 73L250.6 64.0L250.5 64.0L248.1 65.8L248.1 64.4L250.3 62.8ZM260.6 73L254.2 73L254.2 72.1L257.5 68.4Q258.1 67.8 258.5 67.3Q258.9 66.8 259.0 66.4Q259.2 66.0 259.2 65.5L259.2 65.5Q259.2 65.0 259.0 64.6Q258.7 64.2 258.3 64.0Q257.9 63.8 257.3 63.8L257.3 63.8Q256.7 63.8 256.3 64.0Q255.9 64.3 255.7 64.7Q255.4 65.1 255.4 65.7L255.4 65.7L254.2 65.7Q254.2 64.8 254.6 64.1Q255.0 63.4 255.7 63.1Q256.4 62.7 257.4 62.7L257.4 62.7Q258.3 62.7 259.0 63.1Q259.7 63.4 260.1 64.1Q260.5 64.7 260.5 65.5L260.5 65.5Q260.5 66.1 260.3 66.6Q260.1 67.1 259.6 67.8Q259.1 68.4 258.2 69.4L258.2 69.4L255.9 71.8L255.9 71.9L260.6 71.9L260.6 73Z M267.9 73L266.7 73L266.7 65.4L267.8 65.4L267.9 66.8Q268.0 66.3 268.3 66.0L268.3 66.0Q268.6 65.6 269.0 65.4Q269.5 65.2 270.0 65.2L270.0 65.2Q270.8 65.2 271.3 65.7L271.3 65.7Q271.8 66.2 271.9 66.8L271.9 66.8Q272.1 66.4 272.3 66.1L272.3 66.1Q272.7 65.7 273.2 65.4Q273.7 65.2 274.4 65.2L274.4 65.2Q275.0 65.2 275.6 65.5Q276.1 65.8 276.4 66.4Q276.8 67.0 276.8 67.8L276.8 67.8L276.8 73L275.5 73L275.5 67.9Q275.5 67.1 275.1 66.7Q274.6 66.3 274.0 66.3L274.0 66.3Q273.5 66.3 273.1 66.6Q272.7 66.8 272.5 67.1Q272.3 67.5 272.3 68.0L272.3 68.0L272.3 73L271.1 73L271.1 67.8Q271.1 67.1 270.7 66.7Q270.2 66.3 269.6 66.3L269.6 66.3Q269.1 66.3 268.8 66.6Q268.4 66.8 268.1 67.2Q267.9 67.6 267.9 68.2L267.9 68.2L267.9 73ZM282.0 73.2L282.0 73.2Q281.0 73.2 280.2 72.7Q279.4 72.2 279.0 71.3Q278.5 70.4 278.5 69.2L278.5 69.2Q278.5 68.0 279.0 67.1Q279.4 66.2 280.2 65.8Q281.0 65.3 282.0 65.3L282.0 65.3Q283.1 65.3 283.9 65.8Q284.6 66.2 285.1 67.1Q285.5 68.0 285.5 69.2L285.5 69.2Q285.5 70.4 285.1 71.3Q284.6 72.2 283.9 72.7Q283.1 73.2 282.0 73.2ZM282.0 72.1L282.0 72.1Q282.8 72.1 283.3 71.7Q283.8 71.3 284.0 70.6Q284.3 70.0 284.3 69.2L284.3 69.2Q284.3 68.5 284.0 67.8Q283.8 67.2 283.3 66.8Q282.8 66.4 282.0 66.4L282.0 66.4Q281.3 66.4 280.8 66.8Q280.3 67.2 280.0 67.8Q279.8 68.5 279.8 69.2L279.8 69.2Q279.8 70.0 280.0 70.6Q280.3 71.3 280.8 71.7Q281.3 72.1 282.0 72.1ZM290.2 73.2L290.2 73.2Q289.2 73.2 288.5 72.7Q287.8 72.2 287.4 71.3Q286.9 70.4 286.9 69.2L286.9 69.2Q286.9 68.0 287.4 67.1Q287.8 66.2 288.5 65.7Q289.2 65.3 290.2 65.3L290.2 65.3Q290.9 65.3 291.4 65.5Q291.8 65.8 292.0 66.1Q292.3 66.4 292.4 66.6L292.4 66.6L292.5 66.6L292.5 62.8L293.7 62.8L293.7 73L292.5 73L292.5 71.8L292.4 71.8Q292.3 72.0 292.0 72.3Q291.8 72.7 291.3 72.9Q290.9 73.2 290.2 73.2ZM290.4 72.1L290.4 72.1Q291.1 72.1 291.5 71.7Q292.0 71.3 292.3 70.7Q292.5 70.0 292.5 69.2L292.5 69.2Q292.5 68.3 292.3 67.7Q292.0 67.1 291.5 66.7Q291.1 66.4 290.4 66.4L290.4 66.4Q289.6 66.4 289.2 66.7Q288.7 67.1 288.4 67.8Q288.2 68.4 288.2 69.2L288.2 69.2Q288.2 70.0 288.4 70.6Q288.7 71.3 289.2 71.7Q289.6 72.1 290.4 72.1ZM298.5 73.1L298.5 73.1Q297.7 73.1 297.1 72.8Q296.5 72.5 296.2 71.8Q295.9 71.2 295.9 70.2L295.9 70.2L295.9 65.4L297.1 65.4L297.1 70.1Q297.1 71.0 297.6 71.5Q298.0 72.0 298.8 72.0L298.8 72.0Q299.4 72.0 299.8 71.7Q300.3 71.5 300.5 71.0Q300.8 70.6 300.8 69.9L300.8 69.9L300.8 65.4L302.0 65.4L302.0 73L300.8 73L300.8 71.6Q300.5 72.3 300.0 72.7L300.0 72.7Q299.3 73.1 298.5 73.1ZM304.2 62.8L305.4 62.8L305.4 73L304.2 73L304.2 62.8ZM310.8 73.2L310.8 73.2Q309.7 73.2 308.9 72.7Q308.1 72.2 307.6 71.3Q307.2 70.4 307.2 69.2Q307.2 68.1 307.6 67.2Q308.0 66.3 308.8 65.8Q309.6 65.3 310.6 65.3L310.6 65.3Q311.2 65.3 311.8 65.5Q312.4 65.7 312.9 66.1Q313.4 66.6 313.7 67.3Q314.0 68.0 314.0 69.1L314.0 69.1L314.0 69.6L308.4 69.6Q308.5 70.3 308.7 70.9L308.7 70.9Q309.0 71.5 309.5 71.8Q310.1 72.1 310.8 72.1L310.8 72.1Q311.2 72.1 311.6 71.9Q312.0 71.8 312.2 71.5Q312.5 71.3 312.6 70.9L312.6 70.9L313.8 71.2Q313.7 71.8 313.2 72.2Q312.8 72.7 312.2 72.9Q311.6 73.2 310.8 73.2ZM308.4 68.6L308.4 68.6L312.7 68.6Q312.7 68.0 312.5 67.6L312.5 67.6Q312.2 67.0 311.8 66.7Q311.3 66.4 310.6 66.4Q309.9 66.4 309.4 66.7Q308.9 67.0 308.7 67.6L308.7 67.6Q308.5 68.0 308.4 68.6ZM318.3 73.2L318.3 73.2Q317.5 73.2 316.9 72.9Q316.3 72.7 315.9 72.3Q315.5 71.8 315.4 71.1L315.4 71.1L316.5 70.9Q316.7 71.5 317.2 71.8Q317.6 72.1 318.3 72.1L318.3 72.1Q319.1 72.1 319.6 71.7Q320.0 71.4 320.0 70.9L320.0 70.9Q320.0 70.5 319.8 70.3Q319.5 70.0 318.9 69.9L318.9 69.9L317.7 69.6Q316.6 69.3 316.1 68.8Q315.6 68.3 315.6 67.5L315.6 67.5Q315.6 66.8 316.0 66.3Q316.3 65.8 317.0 65.5Q317.6 65.3 318.4 65.3L318.4 65.3Q319.2 65.3 319.8 65.5Q320.3 65.7 320.7 66.1Q321.0 66.6 321.2 67.1L321.2 67.1L320.1 67.4Q319.9 67.0 319.5 66.6Q319.2 66.3 318.4 66.3L318.4 66.3Q317.8 66.3 317.3 66.6Q316.8 66.9 316.8 67.4L316.8 67.4Q316.8 67.8 317.2 68.1Q317.5 68.4 318.1 68.5L318.1 68.5L319.3 68.8Q320.3 69.0 320.8 69.5Q321.3 70.1 321.3 70.8L321.3 70.8Q321.3 71.5 320.9 72.0Q320.6 72.6 319.9 72.9Q319.2 73.2 318.3 73.2Z M328.3 73L327.0 73L327.0 65.4L328.2 65.4L328.2 66.8Q328.4 66.3 328.6 66.0L328.6 66.0Q329.0 65.6 329.4 65.4Q329.9 65.2 330.4 65.2L330.4 65.2Q331.2 65.2 331.7 65.7L331.7 65.7Q332.2 66.2 332.3 66.8L332.3 66.8Q332.5 66.4 332.7 66.1L332.7 66.1Q333.1 65.7 333.6 65.4Q334.1 65.2 334.7 65.2L334.7 65.2Q335.4 65.2 335.9 65.5Q336.5 65.8 336.8 66.4Q337.1 67.0 337.1 67.8L337.1 67.8L337.1 73L335.9 73L335.9 67.9Q335.9 67.1 335.5 66.7Q335.0 66.3 334.4 66.3L334.4 66.3Q333.9 66.3 333.5 66.6Q333.1 66.8 332.9 67.1Q332.7 67.5 332.7 68.0L332.7 68.0L332.7 73L331.5 73L331.5 67.8Q331.5 67.1 331.1 66.7Q330.6 66.3 330.0 66.3L330.0 66.3Q329.5 66.3 329.1 66.6Q328.8 66.8 328.5 67.2Q328.3 67.6 328.3 68.2L328.3 68.2L328.3 73ZM342.5 73.2L342.5 73.2Q341.4 73.2 340.6 72.7Q339.8 72.2 339.4 71.3Q338.9 70.4 338.9 69.2Q338.9 68.1 339.4 67.2Q339.8 66.3 340.6 65.8Q341.3 65.3 342.4 65.3L342.4 65.3Q343.0 65.3 343.6 65.5Q344.2 65.7 344.6 66.1Q345.1 66.6 345.4 67.3Q345.7 68.0 345.7 69.1L345.7 69.1L345.7 69.6L340.2 69.6Q340.2 70.3 340.5 70.9L340.5 70.9Q340.8 71.5 341.3 71.8Q341.8 72.1 342.5 72.1L342.5 72.1Q343.0 72.1 343.3 71.9Q343.7 71.8 344.0 71.5Q344.2 71.3 344.4 70.9L344.4 70.9L345.6 71.2Q345.4 71.8 345.0 72.2Q344.6 72.7 343.9 72.9Q343.3 73.2 342.5 73.2ZM340.2 68.6L340.2 68.6L344.5 68.6Q344.4 68.0 344.2 67.6L344.2 67.6Q344.0 67.0 343.5 66.7Q343.1 66.4 342.4 66.4Q341.7 66.4 341.2 66.7Q340.7 67.0 340.4 67.6L340.4 67.6Q340.2 68.0 340.2 68.6ZM342.8 64.4L341.8 64.4L342.8 62.3L344.1 62.3L342.8 64.4ZM348.9 65.4L350.5 65.4L350.5 66.4L348.9 66.4L348.9 71.0Q348.9 71.5 349.1 71.8Q349.3 72.0 349.8 72.0L349.8 72.0Q349.9 72.0 350.1 72.0Q350.3 71.9 350.4 71.9L350.4 71.9L350.7 73.0Q350.5 73.0 350.3 73.1Q350.0 73.1 349.8 73.1L349.8 73.1Q348.8 73.1 348.2 72.6Q347.7 72.0 347.7 71.1L347.7 71.1L347.7 66.4L346.5 66.4L346.5 65.4L347.7 65.4L347.7 63.5L348.9 63.5L348.9 65.4ZM353.3 73L352.0 73L352.0 65.4L353.3 65.4L353.3 73ZM352.7 64.1L352.7 64.1Q352.3 64.1 352.1 63.9Q351.8 63.6 351.8 63.3L351.8 63.3Q351.8 63.0 352.1 62.7Q352.3 62.5 352.7 62.5L352.7 62.5Q353.0 62.5 353.3 62.7Q353.5 63.0 353.5 63.3L353.5 63.3Q353.5 63.6 353.3 63.9Q353.0 64.1 352.7 64.1ZM358.7 73.2L358.7 73.2Q357.5 73.2 356.7 72.7Q355.9 72.2 355.5 71.3Q355.1 70.4 355.1 69.2Q355.1 68.1 355.5 67.2Q355.9 66.3 356.7 65.8Q357.5 65.3 358.5 65.3L358.5 65.3Q359.1 65.3 359.7 65.5Q360.3 65.7 360.8 66.1Q361.3 66.6 361.5 67.3Q361.8 68.0 361.8 69.1L361.8 69.1L361.8 69.6L356.3 69.6Q356.3 70.3 356.6 70.9L356.6 70.9Q356.9 71.5 357.4 71.8Q358.0 72.1 358.7 72.1L358.7 72.1Q359.1 72.1 359.5 71.9Q359.8 71.8 360.1 71.5Q360.4 71.3 360.5 70.9L360.5 70.9L361.7 71.2Q361.5 71.8 361.1 72.2Q360.7 72.7 360.1 72.9Q359.4 73.2 358.7 73.2ZM356.3 68.6L356.3 68.6L360.6 68.6Q360.5 68.0 360.4 67.6L360.4 67.6Q360.1 67.0 359.7 66.7Q359.2 66.4 358.5 66.4Q357.8 66.4 357.3 66.7Q356.8 67.0 356.6 67.6L356.6 67.6Q356.4 68.0 356.3 68.6ZM364.8 73L363.6 73L363.6 65.4L364.8 65.4L364.8 66.5L364.9 66.5Q365.1 66.0 365.6 65.6Q366.2 65.2 366.9 65.2L366.9 65.2Q367.0 65.2 367.2 65.3Q367.4 65.3 367.5 65.3L367.5 65.3L367.5 66.5Q367.4 66.5 367.2 66.5Q367.0 66.4 366.7 66.4L366.7 66.4Q366.2 66.4 365.8 66.7Q365.3 66.9 365.1 67.3Q364.8 67.7 364.8 68.2L364.8 68.2L364.8 73Z M376.0 73.2L376.0 73.2Q374.9 73.2 374.1 72.7Q373.3 72.2 372.9 71.3Q372.4 70.4 372.4 69.2Q372.4 68.1 372.9 67.2Q373.3 66.3 374.1 65.8Q374.8 65.3 375.9 65.3L375.9 65.3Q376.5 65.3 377.1 65.5Q377.7 65.7 378.2 66.1Q378.6 66.6 378.9 67.3Q379.2 68.0 379.2 69.1L379.2 69.1L379.2 69.6L373.7 69.6Q373.7 70.3 374.0 70.9L374.0 70.9Q374.3 71.5 374.8 71.8Q375.3 72.1 376.0 72.1L376.0 72.1Q376.5 72.1 376.8 71.9Q377.2 71.8 377.5 71.5Q377.8 71.3 377.9 70.9L377.9 70.9L379.1 71.2Q378.9 71.8 378.5 72.2Q378.1 72.7 377.4 72.9Q376.8 73.2 376.0 73.2ZM373.7 68.6L373.7 68.6L378.0 68.6Q377.9 68.0 377.7 67.6L377.7 67.6Q377.5 67.0 377.0 66.7Q376.6 66.4 375.9 66.4Q375.2 66.4 374.7 66.7Q374.2 67.0 373.9 67.6L373.9 67.6Q373.7 68.0 373.7 68.6ZM382.2 68.4L382.2 68.4L382.2 73L381.0 73L381.0 65.4L382.2 65.4L382.2 66.8Q382.5 66.1 383.0 65.7L383.0 65.7Q383.6 65.3 384.5 65.3L384.5 65.3Q385.3 65.3 385.9 65.6Q386.4 65.9 386.8 66.5Q387.1 67.2 387.1 68.1L387.1 68.1L387.1 73L385.9 73L385.9 68.2Q385.9 67.4 385.4 66.9Q384.9 66.4 384.1 66.4L384.1 66.4Q383.6 66.4 383.1 66.6Q382.7 66.8 382.5 67.3Q382.2 67.8 382.2 68.4Z M394.4 73L393.2 73L393.2 65.4L394.4 65.4L394.4 66.8Q394.5 66.3 394.8 66.0L394.8 66.0Q395.1 65.6 395.6 65.4Q396.0 65.2 396.5 65.2L396.5 65.2Q397.4 65.2 397.9 65.7L397.9 65.7Q398.3 66.2 398.5 66.8L398.5 66.8Q398.6 66.4 398.9 66.1L398.9 66.1Q399.2 65.7 399.8 65.4Q400.3 65.2 400.9 65.2L400.9 65.2Q401.5 65.2 402.1 65.5Q402.6 65.8 403.0 66.4Q403.3 67.0 403.3 67.8L403.3 67.8L403.3 73L402.1 73L402.1 67.9Q402.1 67.1 401.6 66.7Q401.1 66.3 400.5 66.3L400.5 66.3Q400.0 66.3 399.6 66.6Q399.3 66.8 399.0 67.1Q398.8 67.5 398.8 68.0L398.8 68.0L398.8 73L397.6 73L397.6 67.8Q397.6 67.1 397.2 66.7Q396.8 66.3 396.1 66.3L396.1 66.3Q395.7 66.3 395.3 66.6Q394.9 66.8 394.6 67.2Q394.4 67.6 394.4 68.2L394.4 68.2L394.4 73ZM406.7 73L405.4 73L405.4 65.4L406.7 65.4L406.7 73ZM406.1 64.1L406.1 64.1Q405.7 64.1 405.5 63.9Q405.2 63.6 405.2 63.3L405.2 63.3Q405.2 63.0 405.5 62.7Q405.7 62.5 406.1 62.5L406.1 62.5Q406.4 62.5 406.7 62.7Q406.9 63.0 406.9 63.3L406.9 63.3Q406.9 63.6 406.7 63.9Q406.4 64.1 406.1 64.1ZM411.9 73.2L411.9 73.2Q410.9 73.2 410.1 72.7Q409.3 72.2 408.9 71.3Q408.5 70.4 408.5 69.2L408.5 69.2Q408.5 68.0 408.9 67.1Q409.3 66.2 410.1 65.8Q410.9 65.3 411.9 65.3L411.9 65.3Q412.5 65.3 413.0 65.4Q413.5 65.5 413.9 65.8Q414.3 66.1 414.6 66.5Q414.9 66.9 415.0 67.4L415.0 67.4L413.9 67.7Q413.8 67.4 413.6 67.2Q413.4 66.9 413.2 66.7Q412.9 66.6 412.6 66.5Q412.3 66.4 411.9 66.4L411.9 66.4Q411.2 66.4 410.7 66.8Q410.2 67.2 410.0 67.8Q409.7 68.5 409.7 69.2L409.7 69.2Q409.7 70.0 410.0 70.6Q410.2 71.3 410.7 71.7Q411.2 72.1 411.9 72.1L411.9 72.1Q412.3 72.1 412.6 72.0Q413.0 71.9 413.2 71.7Q413.5 71.5 413.6 71.2Q413.8 71.0 413.9 70.7L413.9 70.7L415.1 71.0Q414.9 71.5 414.6 71.9Q414.3 72.3 413.9 72.6Q413.5 72.9 413.0 73.0Q412.5 73.2 411.9 73.2ZM418.1 73L416.8 73L416.8 65.4L418.0 65.4L418.0 66.5L418.1 66.5Q418.3 66.0 418.9 65.6Q419.4 65.2 420.1 65.2L420.1 65.2Q420.2 65.2 420.4 65.3Q420.6 65.3 420.7 65.3L420.7 65.3L420.7 66.5Q420.7 66.5 420.4 66.5Q420.2 66.4 420.0 66.4L420.0 66.4Q419.4 66.4 419.0 66.7Q418.6 66.9 418.3 67.3Q418.1 67.7 418.1 68.2L418.1 68.2L418.1 73ZM425.2 73.2L425.2 73.2Q424.2 73.2 423.4 72.7Q422.6 72.2 422.2 71.3Q421.7 70.4 421.7 69.2L421.7 69.2Q421.7 68.0 422.2 67.1Q422.6 66.2 423.4 65.8Q424.2 65.3 425.2 65.3L425.2 65.3Q426.3 65.3 427.0 65.8Q427.8 66.2 428.3 67.1Q428.7 68.0 428.7 69.2L428.7 69.2Q428.7 70.4 428.3 71.3Q427.8 72.2 427.0 72.7Q426.3 73.2 425.2 73.2ZM425.2 72.1L425.2 72.1Q426.0 72.1 426.5 71.7Q427.0 71.3 427.2 70.6Q427.5 70.0 427.5 69.2L427.5 69.2Q427.5 68.5 427.2 67.8Q427.0 67.2 426.5 66.8Q426.0 66.4 425.2 66.4L425.2 66.4Q424.4 66.4 424.0 66.8Q423.5 67.2 423.2 67.8Q423.0 68.5 423.0 69.2L423.0 69.2Q423.0 70.0 423.2 70.6Q423.5 71.3 424.0 71.7Q424.4 72.1 425.2 72.1ZM430.4 68.1L434.9 68.1L434.9 69.2L430.4 69.2L430.4 68.1ZM438.7 65.4L440.5 65.4L440.5 66.4L438.7 66.4L438.7 73L437.5 73L437.5 66.4L436.0 66.4L436.0 65.4L437.5 65.4L437.5 64.3Q437.5 63.7 437.8 63.2Q438.1 62.8 438.6 62.6Q439.1 62.3 439.7 62.3L439.7 62.3Q440.1 62.3 440.4 62.4Q440.7 62.5 440.8 62.5L440.8 62.5L440.5 63.6Q440.4 63.6 440.2 63.5Q440.1 63.5 439.8 63.5L439.8 63.5Q439.2 63.5 439.0 63.8Q438.7 64.1 438.7 64.6L438.7 64.6L438.7 65.4ZM443.3 73L442.1 73L442.1 65.4L443.3 65.4L443.3 66.5L443.4 66.5Q443.6 66.0 444.1 65.6Q444.7 65.2 445.4 65.2L445.4 65.2Q445.5 65.2 445.7 65.3Q445.9 65.3 446.0 65.3L446.0 65.3L446.0 66.5Q445.9 66.5 445.7 66.5Q445.5 66.4 445.3 66.4L445.3 66.4Q444.7 66.4 444.3 66.7Q443.8 66.9 443.6 67.3Q443.3 67.7 443.3 68.2L443.3 68.2L443.3 73ZM450.5 73.2L450.5 73.2Q449.5 73.2 448.7 72.7Q447.9 72.2 447.5 71.3Q447.0 70.4 447.0 69.2L447.0 69.2Q447.0 68.0 447.5 67.1Q447.9 66.2 448.7 65.8Q449.5 65.3 450.5 65.3L450.5 65.3Q451.5 65.3 452.3 65.8Q453.1 66.2 453.6 67.1Q454.0 68.0 454.0 69.2L454.0 69.2Q454.0 70.4 453.6 71.3Q453.1 72.2 452.3 72.7Q451.5 73.2 450.5 73.2ZM450.5 72.1L450.5 72.1Q451.3 72.1 451.8 71.7Q452.3 71.3 452.5 70.6Q452.7 70.0 452.7 69.2L452.7 69.2Q452.7 68.5 452.5 67.8Q452.3 67.2 451.8 66.8Q451.3 66.4 450.5 66.4L450.5 66.4Q449.7 66.4 449.2 66.8Q448.7 67.2 448.5 67.8Q448.3 68.5 448.3 69.2L448.3 69.2Q448.3 70.0 448.5 70.6Q448.7 71.3 449.2 71.7Q449.7 72.1 450.5 72.1ZM457.0 68.4L457.0 68.4L457.0 73L455.8 73L455.8 65.4L457.0 65.4L457.0 66.8Q457.3 66.1 457.8 65.7L457.8 65.7Q458.4 65.3 459.3 65.3L459.3 65.3Q460.1 65.3 460.7 65.6Q461.2 65.9 461.6 66.5Q461.9 67.2 461.9 68.1L461.9 68.1L461.9 73L460.7 73L460.7 68.2Q460.7 67.4 460.2 66.9Q459.7 66.4 458.9 66.4L458.9 66.4Q458.4 66.4 458.0 66.6Q457.5 66.8 457.3 67.3Q457.0 67.8 457.0 68.4ZM465.5 65.4L467.1 65.4L467.1 66.4L465.5 66.4L465.5 71.0Q465.5 71.5 465.7 71.8Q465.9 72.0 466.4 72.0L466.4 72.0Q466.5 72.0 466.7 72.0Q466.9 71.9 467.0 71.9L467.0 71.9L467.3 73.0Q467.1 73.0 466.8 73.1Q466.6 73.1 466.4 73.1L466.4 73.1Q465.4 73.1 464.8 72.6Q464.3 72.0 464.3 71.1L464.3 71.1L464.3 66.4L463.1 66.4L463.1 65.4L464.3 65.4L464.3 63.5L465.5 63.5L465.5 65.4ZM471.8 73.2L471.8 73.2Q470.7 73.2 469.9 72.7Q469.1 72.2 468.7 71.3Q468.3 70.4 468.3 69.2Q468.3 68.1 468.7 67.2Q469.1 66.3 469.9 65.8Q470.7 65.3 471.7 65.3L471.7 65.3Q472.3 65.3 472.9 65.5Q473.5 65.7 474.0 66.1Q474.5 66.6 474.7 67.3Q475.0 68.0 475.0 69.1L475.0 69.1L475.0 69.6L469.5 69.6Q469.5 70.3 469.8 70.9L469.8 70.9Q470.1 71.5 470.6 71.8Q471.2 72.1 471.9 72.1L471.9 72.1Q472.3 72.1 472.7 71.9Q473.0 71.8 473.3 71.5Q473.6 71.3 473.7 70.9L473.7 70.9L474.9 71.2Q474.7 71.8 474.3 72.2Q473.9 72.7 473.3 72.9Q472.6 73.2 471.8 73.2ZM469.5 68.6L469.5 68.6L473.8 68.6Q473.7 68.0 473.6 67.6L473.6 67.6Q473.3 67.0 472.9 66.7Q472.4 66.4 471.7 66.4Q471.0 66.4 470.5 66.7Q470.0 67.0 469.8 67.6L469.8 67.6Q469.6 68.0 469.5 68.6ZM478.0 68.4L478.0 68.4L478.0 73L476.8 73L476.8 65.4L478.0 65.4L478.0 66.8Q478.3 66.1 478.8 65.7L478.8 65.7Q479.5 65.3 480.3 65.3L480.3 65.3Q481.1 65.3 481.7 65.6Q482.3 65.9 482.6 66.5Q482.9 67.2 482.9 68.1L482.9 68.1L482.9 73L481.7 73L481.7 68.2Q481.7 67.4 481.2 66.9Q480.8 66.4 480.0 66.4L480.0 66.4Q479.4 66.4 479.0 66.6Q478.5 66.8 478.3 67.3Q478.0 67.8 478.0 68.4ZM487.9 73.2L487.9 73.2Q487.0 73.2 486.3 72.7Q485.5 72.2 485.1 71.3Q484.7 70.4 484.7 69.2L484.7 69.2Q484.7 68.0 485.1 67.1Q485.5 66.2 486.3 65.7Q487.0 65.3 487.9 65.3L487.9 65.3Q488.7 65.3 489.1 65.5Q489.6 65.8 489.8 66.1Q490.0 66.4 490.2 66.6L490.2 66.6L490.3 66.6L490.3 62.8L491.5 62.8L491.5 73L490.3 73L490.3 71.8L490.2 71.8Q490.0 72.0 489.8 72.3Q489.5 72.7 489.1 72.9Q488.7 73.2 487.9 73.2ZM488.1 72.1L488.1 72.1Q488.8 72.1 489.3 71.7Q489.8 71.3 490.0 70.7Q490.3 70.0 490.3 69.2L490.3 69.2Q490.3 68.3 490.0 67.7Q489.8 67.1 489.3 66.7Q488.8 66.4 488.1 66.4L488.1 66.4Q487.4 66.4 486.9 66.7Q486.4 67.1 486.2 67.8Q486.0 68.4 486.0 69.2L486.0 69.2Q486.0 70.0 486.2 70.6Q486.4 71.3 486.9 71.7Q487.4 72.1 488.1 72.1ZM496.2 73.2L496.2 73.2Q495.5 73.2 494.8 72.9Q494.2 72.7 493.8 72.3Q493.4 71.8 493.3 71.1L493.3 71.1L494.5 70.9Q494.6 71.5 495.1 71.8Q495.5 72.1 496.2 72.1L496.2 72.1Q497.0 72.1 497.5 71.7Q498.0 71.4 498.0 70.9L498.0 70.9Q498.0 70.5 497.7 70.3Q497.4 70.0 496.9 69.9L496.9 69.9L495.6 69.6Q494.5 69.3 494.0 68.8Q493.5 68.3 493.5 67.5L493.5 67.5Q493.5 66.8 493.9 66.3Q494.3 65.8 494.9 65.5Q495.5 65.3 496.4 65.3L496.4 65.3Q497.1 65.3 497.7 65.5Q498.2 65.7 498.6 66.1Q498.9 66.6 499.1 67.1L499.1 67.1L498.0 67.4Q497.8 67.0 497.5 66.6Q497.1 66.3 496.4 66.3L496.4 66.3Q495.7 66.3 495.2 66.6Q494.8 66.9 494.8 67.4L494.8 67.4Q494.8 67.8 495.1 68.1Q495.4 68.4 496.1 68.5L496.1 68.5L497.2 68.8Q498.3 69.0 498.8 69.5Q499.3 70.1 499.3 70.8L499.3 70.8Q499.3 71.5 498.9 72.0Q498.5 72.6 497.8 72.9Q497.1 73.2 496.2 73.2Z "/></g><mask id="satori_om-id-1-2"><rect x="28" y="94" width="844" height="17" fill="#fff" mask="url(#satori_om-id)"/></mask><clipPath id="satori_cp-id-1-2-0" clip-path="url(#satori_cp-id)"><path x="28" y="98" width="780" height="9" d="M32.5,98 h771 a4.5,4.5 0 0 1 4.5,4.5 v0 a4.5,4.5 0 0 1 -4.5,4.5 h-771 a4.5,4.5 0 0 1 -4.5,-4.5 v0 a4.5,4.5 0 0 1 4.5,-4.5"/></clipPath><mask id="satori_om-id-1-2-0"><rect x="28" y="98" width="780" height="9" fill="#fff" mask="url(#satori_om-id)"/></mask><path x="28" y="98" width="780" height="9" fill="#1e2330" d="M32.5,98 h771 a4.5,4.5 0 0 1 4.5,4.5 v0 a4.5,4.5 0 0 1 -4.5,4.5 h-771 a4.5,4.5 0 0 1 -4.5,-4.5 v0 a4.5,4.5 0 0 1 4.5,-4.5" clip-path="url(#satori_cp-id)" mask="url(#satori_om-id)"/><defs><pattern id="satori_pattern_id-1-2-0-0_0" x="0" y="0" width="1" height="1" patternUnits="objectBoundingBox"><linearGradient id="satori_biid-1-2-0-0_0" x1="0" y1="0" x2="1" y2="0" spreadMethod="pad"><stop offset="0%" stop-color="#22d3ee"/><stop offset="50%" stop-color="#a78bfa"/><stop offset="100%" stop-color="#f472b6"/></linearGradient><rect x="0" y="0" width="562" height="9" fill="url(#satori_biid-1-2-0-0_0)"/></pattern></defs><mask id="satori_om-id-1-2-0-0"><rect x="28" y="98" width="562" height="9" fill="#fff" mask="url(#satori_om-id-1-2-0)"/></mask><path x="28" y="98" width="562" height="9" fill="url(#satori_pattern_id-1-2-0-0_0)" d="M32.5,98 h553 a4.5,4.5 0 0 1 4.5,4.5 v0 a4.5,4.5 0 0 1 -4.5,4.5 h-553 a4.5,4.5 0 0 1 -4.5,-4.5 v0 a4.5,4.5 0 0 1 4.5,-4.5" clip-path="url(#satori_cp-id-1-2-0)" mask="url(#satori_om-id-1-2-0)"/><mask id="satori_om-id-1-2-0-0-0"><rect x="28" y="98" width="0" height="9" fill="#fff" mask="url(#satori_om-id-1-2-0)"/></mask><clipPath id="satori_bct-id-1-2-1" clip-path="url(#satori_cp-id)"><path d="M825.4 108L823.2 108L827.4 99.6L827.4 99.5L822.5 99.5L822.5 97.8L829.6 97.8L829.6 99.6L825.4 108ZM838.2 108L831.0 108L831.0 106.5L834.6 103.1Q835.1 102.7 835.4 102.3Q835.7 101.9 835.9 101.6Q836.0 101.2 836.0 100.8L836.0 100.8Q836.0 100.4 835.8 100.0Q835.6 99.7 835.3 99.5Q834.9 99.3 834.5 99.3L834.5 99.3Q834.0 99.3 833.6 99.5Q833.3 99.7 833.1 100.1Q832.9 100.4 832.9 100.9L832.9 100.9L830.9 100.9Q830.9 99.9 831.3 99.2Q831.8 98.5 832.6 98.1Q833.4 97.7 834.5 97.7L834.5 97.7Q835.5 97.7 836.4 98.1Q837.2 98.5 837.6 99.1Q838.1 99.8 838.1 100.7L838.1 100.7Q838.1 101.3 837.8 101.8Q837.6 102.4 837.0 103.0Q836.5 103.7 835.4 104.7L835.4 104.7L833.9 106.2L833.9 106.3L838.2 106.3L838.2 108ZM842.5 102.7L842.5 102.7Q841.7 102.7 841.2 102.4Q840.7 102.1 840.5 101.5Q840.2 101.0 840.2 100.4L840.2 100.4L840.2 99.9Q840.2 99.3 840.5 98.8Q840.8 98.3 841.2 98.0Q841.7 97.7 842.5 97.7L842.5 97.7Q843.2 97.7 843.7 98.0Q844.2 98.3 844.4 98.8Q844.7 99.3 844.7 99.9L844.7 99.9L844.7 100.4Q844.7 101.0 844.4 101.6Q844.2 102.1 843.7 102.4Q843.2 102.7 842.5 102.7ZM842.5 101.4L842.5 101.4Q842.9 101.4 843.1 101.1Q843.2 100.8 843.2 100.4L843.2 100.4L843.2 99.9Q843.2 99.5 843.1 99.2Q842.9 98.9 842.5 98.9L842.5 98.9Q842.0 98.9 841.8 99.2Q841.7 99.5 841.7 99.9L841.7 99.9L841.7 100.4Q841.7 100.8 841.8 101.1Q842.0 101.4 842.5 101.4ZM849.7 108.2L849.7 108.2Q849.0 108.2 848.5 107.9Q848.0 107.6 847.7 107.0Q847.5 106.5 847.5 105.9L847.5 105.9L847.5 105.4Q847.5 104.8 847.7 104.3Q848.0 103.8 848.5 103.5Q849.0 103.2 849.7 103.2L849.7 103.2Q850.4 103.2 850.9 103.5Q851.4 103.8 851.7 104.3Q851.9 104.8 851.9 105.4L851.9 105.4L851.9 105.9Q851.9 106.5 851.7 107.1Q851.4 107.6 850.9 107.9Q850.4 108.2 849.7 108.2ZM849.7 106.9L849.7 106.9Q850.1 106.9 850.3 106.6Q850.5 106.3 850.5 105.9L850.5 105.9L850.5 105.4Q850.5 105.0 850.3 104.7Q850.2 104.4 849.7 104.4L849.7 104.4Q849.2 104.4 849.1 104.7Q848.9 105.0 848.9 105.4L848.9 105.4L848.9 105.9Q848.9 106.3 849.1 106.6Q849.2 106.9 849.7 106.9ZM843.2 108L841.8 108L848.8 97.8L850.2 97.8L843.2 108Z "/></clipPath><defs><pattern id="satori_pattern_id-1-2-1_0" x="0" y="0" width="1" height="1" patternUnits="objectBoundingBox"><linearGradient id="satori_biid-1-2-1_0" x1="0" y1="0" x2="1" y2="0" spreadMethod="pad"><stop offset="0%" stop-color="#22d3ee"/><stop offset="100%" stop-color="#a78bfa"/></linearGradient><rect x="0" y="0" width="32" height="17" fill="url(#satori_biid-1-2-1_0)"/></pattern></defs><mask id="satori_om-id-1-2-1"><rect x="822" y="94" width="32" height="17" fill="#fff" mask="url(#satori_om-id)"/></mask><rect x="822" y="94" width="32" height="17" fill="url(#satori_pattern_id-1-2-1_0)" clip-path="url(#satori_bct-id-1-2-1)" mask="url(#satori_om-id)"/><mask id="satori_om-id-1-3"><rect x="28" y="123" width="844" height="19" fill="#fff" mask="url(#satori_om-id)"/></mask><mask id="satori_om-id-1-3-0"><rect x="28" y="123" width="62" height="19" fill="#fff" mask="url(#satori_om-id)"/></mask><path x="28" y="123" width="62" height="19" fill="#1e2330" d="M34,123 h50 a6,6 0 0 1 6,6 v7 a6,6 0 0 1 -6,6 h-50 a6,6 0 0 1 -6,-6 v-7 a6,6 0 0 1 6,-6" clip-path="url(#satori_cp-id)" mask="url(#satori_om-id)"/><g mask="url(#satori_om-id)" clip-path="url(#satori_cp-id)"><path fill="#cbd5e1" d="M39.0 137L38.0 137L38.0 129.0L40.7 129.0Q41.6 129.0 42.2 129.3Q42.8 129.6 43.1 130.2Q43.4 130.8 43.4 131.5Q43.4 132.2 43.1 132.7Q42.8 133.3 42.2 133.6L42.2 133.6Q42.1 133.7 42.0 133.7L42.0 133.7L43.7 137L42.6 137L40.9 133.9Q40.8 133.9 40.7 133.9L40.7 133.9L39.0 133.9L39.0 137ZM39.0 129.9L39.0 133.0L40.7 133.0Q41.3 133.0 41.7 132.8Q42.1 132.6 42.2 132.3Q42.4 131.9 42.4 131.5L42.4 131.5Q42.4 131.0 42.2 130.6Q42.1 130.3 41.7 130.1Q41.3 129.9 40.7 129.9L40.7 129.9L39.0 129.9ZM47.5 137.1L47.5 137.1Q46.6 137.1 46.0 136.7Q45.3 136.4 45.0 135.7Q44.6 135.0 44.6 134.0Q44.6 133.1 45.0 132.4Q45.3 131.7 45.9 131.3Q46.5 130.9 47.3 130.9L47.3 130.9Q47.8 130.9 48.3 131.1Q48.7 131.2 49.1 131.6Q49.5 131.9 49.7 132.5Q50.0 133.1 50.0 133.9L50.0 133.9L50.0 134.3L45.6 134.3Q45.6 134.9 45.8 135.3L45.8 135.3Q46.1 135.8 46.5 136.0Q46.9 136.3 47.5 136.3L47.5 136.3Q47.8 136.3 48.1 136.2Q48.4 136.1 48.6 135.9Q48.8 135.7 48.9 135.3L48.9 135.3L49.9 135.6Q49.7 136.1 49.4 136.4Q49.1 136.7 48.6 136.9Q48.1 137.1 47.5 137.1ZM45.6 133.5L45.6 133.5L49.0 133.5Q48.9 133.1 48.8 132.8L48.8 132.8Q48.6 132.3 48.2 132.0Q47.9 131.8 47.3 131.8Q46.8 131.8 46.4 132.0Q46.0 132.3 45.8 132.7L45.8 132.7Q45.6 133.1 45.6 133.5ZM53.0 137.1L53.0 137.1Q52.5 137.1 52.0 136.9Q51.5 136.7 51.2 136.3Q51.0 135.9 51.0 135.3L51.0 135.3Q51.0 134.8 51.2 134.5Q51.4 134.1 51.7 133.9Q52.1 133.8 52.5 133.7Q52.9 133.6 53.3 133.5L53.3 133.5Q53.8 133.5 54.2 133.4Q54.5 133.4 54.7 133.3Q54.9 133.2 54.9 133.0L54.9 133.0L54.9 132.9Q54.9 132.6 54.7 132.3Q54.6 132.0 54.3 131.9Q54.0 131.8 53.6 131.8L53.6 131.8Q53.2 131.8 52.9 131.9Q52.6 132.0 52.4 132.2Q52.2 132.4 52.1 132.6L52.1 132.6L51.1 132.3Q51.4 131.8 51.8 131.5Q52.2 131.2 52.6 131.0Q53.1 130.9 53.6 130.9L53.6 130.9Q53.9 130.9 54.3 131.0Q54.6 131.1 55.0 131.3Q55.4 131.5 55.6 131.9Q55.8 132.3 55.8 133.0L55.8 133.0L55.8 137L54.9 137L54.9 136.2L54.8 136.2Q54.7 136.4 54.5 136.6Q54.3 136.8 53.9 137.0Q53.5 137.1 53.0 137.1ZM53.2 136.3L53.2 136.3Q53.7 136.3 54.1 136.1Q54.5 135.9 54.7 135.5Q54.9 135.2 54.9 134.8L54.9 134.8L54.9 134.0Q54.8 134.1 54.6 134.1Q54.4 134.2 54.1 134.2Q53.9 134.3 53.6 134.3Q53.4 134.3 53.3 134.3L53.3 134.3Q52.9 134.4 52.6 134.5Q52.3 134.6 52.1 134.8Q51.9 135.0 51.9 135.3L51.9 135.3Q51.9 135.7 52.1 135.9Q52.3 136.1 52.5 136.2Q52.8 136.3 53.2 136.3ZM60.0 137.1L60.0 137.1Q59.1 137.1 58.5 136.7Q57.9 136.4 57.6 135.7Q57.2 135.0 57.2 134.0L57.2 134.0Q57.2 133.1 57.6 132.4Q57.9 131.7 58.5 131.3Q59.1 130.9 60.0 130.9L60.0 130.9Q60.4 130.9 60.8 131.0Q61.2 131.1 61.5 131.4Q61.8 131.6 62.0 131.9Q62.3 132.2 62.4 132.6L62.4 132.6L61.5 132.8Q61.4 132.6 61.3 132.4Q61.1 132.2 60.9 132.1Q60.8 131.9 60.5 131.9Q60.3 131.8 60.0 131.8L60.0 131.8Q59.4 131.8 59.0 132.1Q58.6 132.4 58.4 132.9Q58.2 133.4 58.2 134.0L58.2 134.0Q58.2 134.6 58.4 135.1Q58.6 135.6 59.0 136.0Q59.4 136.3 60.0 136.3L60.0 136.3Q60.3 136.3 60.5 136.2Q60.8 136.1 61.0 136.0Q61.2 135.8 61.3 135.6Q61.4 135.4 61.5 135.2L61.5 135.2L62.4 135.4Q62.3 135.8 62.1 136.1Q61.8 136.5 61.5 136.7Q61.2 136.9 60.8 137.0Q60.4 137.1 60.0 137.1ZM64.9 131.0L66.2 131.0L66.2 131.8L64.9 131.8L64.9 135.4Q64.9 135.8 65.1 136.0Q65.3 136.2 65.6 136.2L65.6 136.2Q65.7 136.2 65.9 136.2Q66.0 136.2 66.1 136.2L66.1 136.2L66.3 137.0Q66.2 137.0 66.0 137.0Q65.8 137.1 65.6 137.1L65.6 137.1Q64.8 137.1 64.4 136.7Q64.0 136.3 64.0 135.5L64.0 135.5L64.0 131.8L63.1 131.8L63.1 131.0L64.0 131.0L64.0 129.6L64.9 129.6L64.9 131.0Z M71.9 129.0L73.2 129.0L73.2 137L72.1 137L72.1 129.9L72.1 129.9L70.2 131.4L70.2 130.3L71.9 129.0ZM77.4 137.1L77.4 137.1Q76.7 137.1 76.1 136.8Q75.6 136.6 75.3 136.1Q74.9 135.6 74.8 135.0L74.8 135.0L75.8 135.0Q76.0 135.5 76.3 135.9Q76.7 136.2 77.4 136.2L77.4 136.2Q78.0 136.2 78.4 135.8Q78.9 135.5 79.1 134.8Q79.3 134.1 79.3 133.2L79.3 133.2L79.3 133.2Q79.1 133.5 78.7 133.7Q78.4 134.0 78.1 134.1Q77.7 134.2 77.3 134.2L77.3 134.2Q76.6 134.2 76.0 133.9Q75.5 133.5 75.1 132.9Q74.8 132.3 74.8 131.6L74.8 131.6Q74.8 130.8 75.1 130.2Q75.5 129.6 76.1 129.2Q76.7 128.9 77.5 128.9L77.5 128.9Q78.0 128.9 78.5 129.1Q79.0 129.3 79.4 129.7Q79.8 130.1 80.0 130.8Q80.3 131.6 80.3 132.7L80.3 132.7Q80.3 133.7 80.1 134.6Q79.9 135.4 79.5 136.0Q79.1 136.5 78.6 136.8Q78.0 137.1 77.4 137.1ZM77.4 133.3L77.4 133.3Q77.8 133.3 78.1 133.2Q78.4 133.0 78.7 132.8Q78.9 132.5 79.1 132.2Q79.2 131.9 79.2 131.5L79.2 131.5Q79.2 131.1 79.0 130.7Q78.7 130.3 78.4 130.0Q78.0 129.8 77.5 129.8L77.5 129.8Q77.0 129.8 76.6 130.0Q76.2 130.3 76.0 130.7Q75.8 131.1 75.8 131.6L75.8 131.6Q75.8 132.1 76.0 132.5Q76.2 132.9 76.6 133.1Q77.0 133.3 77.4 133.3Z "/></g><mask id="satori_om-id-1-3-1"><rect x="97" y="123" width="75" height="19" fill="#fff" mask="url(#satori_om-id)"/></mask><path x="97" y="123" width="75" height="19" fill="#1e2330" d="M103,123 h63 a6,6 0 0 1 6,6 v7 a6,6 0 0 1 -6,6 h-63 a6,6 0 0 1 -6,-6 v-7 a6,6 0 0 1 6,-6" clip-path="url(#satori_cp-id)" mask="url(#satori_om-id)"/><g mask="url(#satori_om-id)" clip-path="url(#satori_cp-id)"><path fill="#cbd5e1" d="M109.0 129.9L106.5 129.9L106.5 129.0L112.6 129.0L112.6 129.9L110.1 129.9L110.1 137L109.0 137L109.0 129.9ZM113.9 139.2L113.9 139.2L114.1 138.3L114.2 138.4Q114.5 138.4 114.7 138.4Q115.0 138.4 115.2 138.2Q115.4 138.0 115.5 137.5L115.5 137.5L115.7 137.0L113.4 131.0L114.4 131.0L115.7 134.6Q115.9 135.1 116.1 135.7L116.1 135.7Q116.1 135.9 116.2 136.1L116.2 136.1Q116.2 135.9 116.3 135.7L116.3 135.7Q116.5 135.1 116.7 134.6L116.7 134.6L117.9 131.0L119.0 131.0L116.4 137.9Q116.2 138.4 115.9 138.7Q115.7 139.0 115.3 139.1Q115.0 139.3 114.6 139.3L114.6 139.3Q114.3 139.3 114.1 139.3Q113.9 139.2 113.9 139.2ZM121.1 139.2L120.1 139.2L120.1 131.0L121.1 131.0L121.1 132.0L121.2 132.0Q121.3 131.8 121.5 131.6Q121.6 131.3 122.0 131.1Q122.3 130.9 122.9 130.9L122.9 130.9Q123.7 130.9 124.2 131.3Q124.8 131.7 125.1 132.4Q125.5 133.1 125.5 134.0L125.5 134.0Q125.5 135.0 125.1 135.7Q124.8 136.4 124.2 136.7Q123.7 137.1 122.9 137.1L122.9 137.1Q122.3 137.1 122.0 136.9Q121.7 136.7 121.5 136.5Q121.3 136.2 121.2 136.1L121.2 136.1L121.1 136.1L121.1 139.2ZM122.8 136.3L122.8 136.3Q123.3 136.3 123.7 136.0Q124.1 135.7 124.3 135.1Q124.5 134.6 124.5 134.0L124.5 134.0Q124.5 133.4 124.3 132.9Q124.1 132.4 123.7 132.1Q123.3 131.8 122.8 131.8L122.8 131.8Q122.2 131.8 121.8 132.1Q121.5 132.3 121.3 132.8Q121.1 133.3 121.1 134.0L121.1 134.0Q121.1 134.7 121.3 135.2Q121.5 135.7 121.9 136.0Q122.2 136.3 122.8 136.3ZM129.4 137.1L129.4 137.1Q128.5 137.1 127.9 136.7Q127.3 136.4 126.9 135.7Q126.6 135.0 126.6 134.0Q126.6 133.1 126.9 132.4Q127.2 131.7 127.9 131.3Q128.5 130.9 129.3 130.9L129.3 130.9Q129.8 130.9 130.2 131.1Q130.7 131.2 131.1 131.6Q131.4 131.9 131.7 132.5Q131.9 133.1 131.9 133.9L131.9 133.9L131.9 134.3L127.6 134.3Q127.6 134.9 127.8 135.3L127.8 135.3Q128.0 135.8 128.4 136.0Q128.8 136.3 129.4 136.3L129.4 136.3Q129.8 136.3 130.0 136.2Q130.3 136.1 130.5 135.9Q130.8 135.7 130.9 135.3L130.9 135.3L131.8 135.6Q131.7 136.1 131.3 136.4Q131.0 136.7 130.5 136.9Q130.0 137.1 129.4 137.1ZM127.6 133.5L127.6 133.5L130.9 133.5Q130.9 133.1 130.7 132.8L130.7 132.8Q130.6 132.3 130.2 132.0Q129.8 131.8 129.3 131.8Q128.7 131.8 128.3 132.0Q128.0 132.3 127.8 132.7L127.8 132.7Q127.6 133.1 127.6 133.5ZM136.0 137.1L136.0 137.1Q135.1 137.1 134.5 136.9Q133.8 136.6 133.5 136.1Q133.1 135.6 133.1 134.9L133.1 134.9L134.1 134.9Q134.1 135.4 134.4 135.6Q134.7 135.9 135.1 136.1Q135.5 136.2 136.0 136.2L136.0 136.2Q136.5 136.2 136.9 136.0Q137.4 135.9 137.6 135.5Q137.9 135.2 137.9 134.8L137.9 134.8Q137.9 134.4 137.7 134.2Q137.4 133.9 137.1 133.8Q136.7 133.6 136.3 133.5L136.3 133.5L135.3 133.2Q134.4 133.0 133.8 132.4Q133.3 131.9 133.3 131.1L133.3 131.1Q133.3 130.5 133.6 130.0Q134.0 129.4 134.6 129.2Q135.3 128.9 136.0 128.9L136.0 128.9Q136.8 128.9 137.4 129.2Q138.0 129.4 138.4 129.9Q138.7 130.4 138.8 131.0L138.8 131.0L137.8 131.0Q137.7 130.4 137.2 130.1Q136.7 129.8 136.0 129.8L136.0 129.8Q135.5 129.8 135.1 130.0Q134.7 130.1 134.5 130.4Q134.3 130.7 134.3 131.1L134.3 131.1Q134.3 131.5 134.5 131.8Q134.8 132.0 135.2 132.2Q135.5 132.3 135.8 132.4L135.8 132.4L136.6 132.6Q136.9 132.7 137.3 132.8Q137.7 133.0 138.1 133.2Q138.4 133.5 138.6 133.9Q138.9 134.3 138.9 134.8L138.9 134.8Q138.9 135.5 138.5 136.0Q138.2 136.5 137.5 136.8Q136.9 137.1 136.0 137.1ZM142.8 137.1L142.8 137.1Q142.0 137.1 141.3 136.7Q140.7 136.4 140.4 135.7Q140.0 135.0 140.0 134.0L140.0 134.0Q140.0 133.1 140.4 132.4Q140.7 131.7 141.3 131.3Q142.0 130.9 142.8 130.9L142.8 130.9Q143.2 130.9 143.6 131.0Q144.0 131.1 144.3 131.4Q144.6 131.6 144.9 131.9Q145.1 132.2 145.2 132.6L145.2 132.6L144.3 132.8Q144.2 132.6 144.1 132.4Q144.0 132.2 143.8 132.1Q143.6 131.9 143.3 131.9Q143.1 131.8 142.8 131.8L142.8 131.8Q142.2 131.8 141.8 132.1Q141.4 132.4 141.2 132.9Q141.0 133.4 141.0 134.0L141.0 134.0Q141.0 134.6 141.2 135.1Q141.4 135.6 141.8 136.0Q142.2 136.3 142.8 136.3L142.8 136.3Q143.1 136.3 143.3 136.2Q143.6 136.1 143.8 136.0Q144.0 135.8 144.1 135.6Q144.2 135.4 144.3 135.2L144.3 135.2L145.2 135.4Q145.1 135.8 144.9 136.1Q144.7 136.5 144.3 136.7Q144.0 136.9 143.6 137.0Q143.2 137.1 142.8 137.1ZM147.6 137L146.6 137L146.6 131.0L147.6 131.0L147.6 131.9L147.6 131.9Q147.8 131.5 148.2 131.2Q148.6 130.9 149.2 130.9L149.2 130.9Q149.3 130.9 149.4 130.9Q149.6 130.9 149.7 130.9L149.7 130.9L149.7 131.9Q149.6 131.9 149.5 131.9Q149.3 131.8 149.1 131.8L149.1 131.8Q148.7 131.8 148.3 132.0Q148.0 132.2 147.8 132.5Q147.6 132.8 147.6 133.2L147.6 133.2L147.6 137ZM151.7 137L150.8 137L150.8 131.0L151.7 131.0L151.7 137ZM151.3 130.0L151.3 130.0Q151.0 130.0 150.8 129.8Q150.6 129.6 150.6 129.4L150.6 129.4Q150.6 129.1 150.8 128.9Q151.0 128.7 151.3 128.7L151.3 128.7Q151.5 128.7 151.7 128.9Q151.9 129.1 151.9 129.4L151.9 129.4Q151.9 129.6 151.7 129.8Q151.5 130.0 151.3 130.0ZM154.4 139.2L153.4 139.2L153.4 131.0L154.4 131.0L154.4 132.0L154.5 132.0Q154.6 131.8 154.8 131.6Q154.9 131.3 155.3 131.1Q155.6 130.9 156.2 130.9L156.2 130.9Q157.0 130.9 157.5 131.3Q158.1 131.7 158.4 132.4Q158.8 133.1 158.8 134.0L158.8 134.0Q158.8 135.0 158.4 135.7Q158.1 136.4 157.5 136.7Q157.0 137.1 156.2 137.1L156.2 137.1Q155.6 137.1 155.3 136.9Q154.9 136.7 154.8 136.5Q154.6 136.2 154.5 136.1L154.5 136.1L154.4 136.1L154.4 139.2ZM156.1 136.3L156.1 136.3Q156.6 136.3 157.0 136.0Q157.4 135.7 157.6 135.1Q157.8 134.6 157.8 134.0L157.8 134.0Q157.8 133.4 157.6 132.9Q157.4 132.4 157.0 132.1Q156.6 131.8 156.1 131.8L156.1 131.8Q155.5 131.8 155.1 132.1Q154.8 132.3 154.6 132.8Q154.4 133.3 154.4 134.0L154.4 134.0Q154.4 134.7 154.6 135.2Q154.8 135.7 155.1 136.0Q155.5 136.3 156.1 136.3ZM161.3 131.0L162.5 131.0L162.5 131.8L161.3 131.8L161.3 135.4Q161.3 135.8 161.5 136.0Q161.6 136.2 162.0 136.2L162.0 136.2Q162.1 136.2 162.2 136.2Q162.4 136.2 162.5 136.2L162.5 136.2L162.7 137.0Q162.5 137.0 162.4 137.0Q162.2 137.1 162.0 137.1L162.0 137.1Q161.2 137.1 160.8 136.7Q160.3 136.3 160.3 135.5L160.3 135.5L160.3 131.8L159.4 131.8L159.4 131.0L160.3 131.0L160.3 129.6L161.3 129.6L161.3 131.0Z "/></g><mask id="satori_om-id-1-3-2"><rect x="179" y="123" width="60" height="19" fill="#fff" mask="url(#satori_om-id)"/></mask><path x="179" y="123" width="60" height="19" fill="#1e2330" d="M185,123 h48 a6,6 0 0 1 6,6 v7 a6,6 0 0 1 -6,6 h-48 a6,6 0 0 1 -6,-6 v-7 a6,6 0 0 1 6,-6" clip-path="url(#satori_cp-id)" mask="url(#satori_om-id)"/><g mask="url(#satori_om-id)" clip-path="url(#satori_cp-id)"><path fill="#cbd5e1" d="M193.9 137L189.0 137L189.0 129.0L193.8 129.0L193.8 129.9L190.0 129.9L190.0 132.5L193.6 132.5L193.6 133.4L190.0 133.4L190.0 136.1L193.9 136.1L193.9 137ZM196.1 137L195.0 137L197.1 133.9L195.1 131.0L196.2 131.0L197.0 132.2Q197.2 132.6 197.5 133.0L197.5 133.0Q197.5 133.2 197.6 133.3L197.6 133.3Q197.7 133.2 197.8 133.0L197.8 133.0Q198.0 132.6 198.3 132.2L198.3 132.2L199.1 131.0L200.2 131.0L198.2 134.0L200.3 137L199.1 137L198.3 135.7Q198.0 135.2 197.8 134.8L197.8 134.8Q197.7 134.7 197.6 134.5L197.6 134.5Q197.5 134.7 197.4 134.8L197.4 134.8Q197.3 135.2 197.0 135.7L197.0 135.7L196.1 137ZM202.4 139.2L201.5 139.2L201.5 131.0L202.4 131.0L202.4 132.0L202.5 132.0Q202.6 131.8 202.8 131.6Q203.0 131.3 203.3 131.1Q203.7 130.9 204.2 130.9L204.2 130.9Q205.0 130.9 205.6 131.3Q206.1 131.7 206.5 132.4Q206.8 133.1 206.8 134.0L206.8 134.0Q206.8 135.0 206.5 135.7Q206.1 136.4 205.6 136.7Q205.0 137.1 204.3 137.1L204.3 137.1Q203.7 137.1 203.3 136.9Q203.0 136.7 202.8 136.5Q202.6 136.2 202.5 136.1L202.5 136.1L202.4 136.1L202.4 139.2ZM204.1 136.3L204.1 136.3Q204.7 136.3 205.1 136.0Q205.4 135.7 205.6 135.1Q205.8 134.6 205.8 134.0L205.8 134.0Q205.8 133.4 205.6 132.9Q205.4 132.4 205.1 132.1Q204.7 131.8 204.1 131.8L204.1 131.8Q203.6 131.8 203.2 132.1Q202.8 132.3 202.6 132.8Q202.4 133.3 202.4 134.0L202.4 134.0Q202.4 134.7 202.6 135.2Q202.8 135.7 203.2 136.0Q203.6 136.3 204.1 136.3ZM209.2 137L208.2 137L208.2 131.0L209.1 131.0L209.1 131.9L209.2 131.9Q209.4 131.5 209.8 131.2Q210.2 130.9 210.8 130.9L210.8 130.9Q210.9 130.9 211.0 130.9Q211.2 130.9 211.2 130.9L211.2 130.9L211.2 131.9Q211.2 131.9 211.0 131.9Q210.9 131.8 210.7 131.8L210.7 131.8Q210.2 131.8 209.9 132.0Q209.6 132.2 209.4 132.5Q209.2 132.8 209.2 133.2L209.2 133.2L209.2 137ZM214.9 137.1L214.9 137.1Q214.0 137.1 213.4 136.7Q212.7 136.4 212.4 135.7Q212.1 135.0 212.1 134.0Q212.1 133.1 212.4 132.4Q212.7 131.7 213.3 131.3Q213.9 130.9 214.8 130.9L214.8 130.9Q215.2 130.9 215.7 131.1Q216.2 131.2 216.5 131.6Q216.9 131.9 217.1 132.5Q217.4 133.1 217.4 133.9L217.4 133.9L217.4 134.3L213.0 134.3Q213.1 134.9 213.3 135.3L213.3 135.3Q213.5 135.8 213.9 136.0Q214.3 136.3 214.9 136.3L214.9 136.3Q215.2 136.3 215.5 136.2Q215.8 136.1 216.0 135.9Q216.2 135.7 216.3 135.3L216.3 135.3L217.3 135.6Q217.1 136.1 216.8 136.4Q216.5 136.7 216.0 136.9Q215.5 137.1 214.9 137.1ZM213.0 133.5L213.0 133.5L216.4 133.5Q216.3 133.1 216.2 132.8L216.2 132.8Q216.0 132.3 215.7 132.0Q215.3 131.8 214.8 131.8Q214.2 131.8 213.8 132.0Q213.4 132.3 213.2 132.7L213.2 132.7Q213.1 133.1 213.0 133.5ZM220.8 137.1L220.8 137.1Q220.2 137.1 219.7 136.9Q219.2 136.8 218.9 136.4Q218.6 136.1 218.5 135.5L218.5 135.5L219.4 135.3Q219.5 135.8 219.9 136.0Q220.2 136.3 220.8 136.3L220.8 136.3Q221.4 136.3 221.8 136.0Q222.2 135.7 222.2 135.4L222.2 135.4Q222.2 135.1 221.9 134.9Q221.7 134.6 221.3 134.5L221.3 134.5L220.3 134.3Q219.5 134.1 219.1 133.7Q218.7 133.3 218.7 132.7L218.7 132.7Q218.7 132.2 219.0 131.8Q219.2 131.4 219.8 131.1Q220.3 130.9 220.9 130.9L220.9 130.9Q221.5 130.9 221.9 131.1Q222.4 131.3 222.6 131.6Q222.9 131.9 223.1 132.4L223.1 132.4L222.2 132.6Q222.1 132.3 221.8 132.0Q221.5 131.7 220.9 131.7L220.9 131.7Q220.4 131.7 220.0 132.0Q219.6 132.2 219.6 132.6L219.6 132.6Q219.6 132.9 219.9 133.1Q220.1 133.3 220.7 133.5L220.7 133.5L221.6 133.7Q222.4 133.9 222.8 134.3Q223.2 134.7 223.2 135.3L223.2 135.3Q223.2 135.8 222.9 136.2Q222.6 136.7 222.0 136.9Q221.5 137.1 220.8 137.1ZM226.6 137.1L226.6 137.1Q226.0 137.1 225.5 136.9Q225.0 136.8 224.7 136.4Q224.4 136.1 224.3 135.5L224.3 135.5L225.2 135.3Q225.3 135.8 225.7 136.0Q226.1 136.3 226.6 136.3L226.6 136.3Q227.2 136.3 227.6 136.0Q228.0 135.7 228.0 135.4L228.0 135.4Q228.0 135.1 227.7 134.9Q227.5 134.6 227.1 134.5L227.1 134.5L226.1 134.3Q225.3 134.1 224.9 133.7Q224.5 133.3 224.5 132.7L224.5 132.7Q224.5 132.2 224.8 131.8Q225.1 131.4 225.6 131.1Q226.1 130.9 226.7 130.9L226.7 130.9Q227.3 130.9 227.7 131.1Q228.2 131.3 228.5 131.6Q228.7 131.9 228.9 132.4L228.9 132.4L228.0 132.6Q227.9 132.3 227.6 132.0Q227.3 131.7 226.7 131.7L226.7 131.7Q226.2 131.7 225.8 132.0Q225.5 132.2 225.5 132.6L225.5 132.6Q225.5 132.9 225.7 133.1Q225.9 133.3 226.5 133.5L226.5 133.5L227.4 133.7Q228.2 133.9 228.6 134.3Q229.0 134.7 229.0 135.3L229.0 135.3Q229.0 135.8 228.7 136.2Q228.4 136.7 227.8 136.9Q227.3 137.1 226.6 137.1Z "/></g><mask id="satori_om-id-1-3-3"><rect x="246" y="123" width="116" height="19" fill="#fff" mask="url(#satori_om-id)"/></mask><path x="246" y="123" width="116" height="19" fill="#1e2330" d="M252,123 h104 a6,6 0 0 1 6,6 v7 a6,6 0 0 1 -6,6 h-104 a6,6 0 0 1 -6,-6 v-7 a6,6 0 0 1 6,-6" clip-path="url(#satori_cp-id)" mask="url(#satori_om-id)"/><g mask="url(#satori_om-id)" clip-path="url(#satori_cp-id)"><path fill="#cbd5e1" d="M256.9 137L256.0 137L256.0 129.0L257.4 129.0L259.4 134.0Q259.5 134.2 259.5 134.5Q259.6 134.8 259.7 135.1Q259.8 135.4 259.9 135.7L259.9 135.7Q260.0 135.8 260.0 135.9L260.0 135.9Q260.0 135.8 260.0 135.7L260.0 135.7Q260.1 135.4 260.2 135.1Q260.3 134.8 260.4 134.5Q260.5 134.2 260.6 134.0L260.6 134.0L262.5 129.0L264.0 129.0L264.0 137L263.0 137L263.0 132.4Q263.0 132.2 263.0 131.9Q263.0 131.5 263.0 131.2Q263.0 130.9 263.0 130.5L263.0 130.5Q263.0 130.3 263.0 130.1L263.0 130.1Q262.9 130.3 262.9 130.5L262.9 130.5Q262.7 130.9 262.6 131.3Q262.5 131.6 262.4 131.9Q262.3 132.2 262.2 132.4L262.2 132.4L260.4 137L259.5 137L257.7 132.4Q257.6 132.2 257.5 132.0Q257.4 131.7 257.3 131.3Q257.2 131.0 257.1 130.6L257.1 130.6Q257.0 130.3 256.9 130.1L256.9 130.1Q256.9 130.3 256.9 130.4L256.9 130.4Q256.9 130.8 256.9 131.1Q256.9 131.5 256.9 131.8Q256.9 132.2 256.9 132.4L256.9 132.4L256.9 137ZM268.2 137.1L268.2 137.1Q267.4 137.1 266.8 136.7Q266.2 136.4 265.8 135.7Q265.5 135.0 265.5 134.0L265.5 134.0Q265.5 133.1 265.8 132.4Q266.2 131.7 266.8 131.3Q267.4 130.9 268.2 130.9L268.2 130.9Q269.1 130.9 269.7 131.3Q270.3 131.7 270.6 132.4Q271.0 133.1 271.0 134.0L271.0 134.0Q271.0 135.0 270.6 135.7Q270.3 136.4 269.7 136.7Q269.1 137.1 268.2 137.1ZM268.2 136.3L268.2 136.3Q268.8 136.3 269.2 136.0Q269.6 135.6 269.8 135.1Q270.0 134.6 270.0 134.0L270.0 134.0Q270.0 133.4 269.8 132.9Q269.6 132.4 269.2 132.1Q268.8 131.8 268.2 131.8L268.2 131.8Q267.6 131.8 267.2 132.1Q266.9 132.4 266.7 132.9Q266.5 133.4 266.5 134.0L266.5 134.0Q266.5 134.6 266.7 135.1Q266.9 135.6 267.2 136.0Q267.6 136.3 268.2 136.3ZM274.6 137.1L274.6 137.1Q273.9 137.1 273.3 136.7Q272.7 136.4 272.4 135.7Q272.1 135.0 272.1 134.0L272.1 134.0Q272.1 133.1 272.4 132.4Q272.7 131.7 273.3 131.3Q273.9 130.9 274.6 130.9L274.6 130.9Q275.2 130.9 275.6 131.1Q275.9 131.3 276.1 131.6Q276.3 131.8 276.4 132.0L276.4 132.0L276.5 132.0L276.5 129.0L277.4 129.0L277.4 137L276.5 137L276.5 136.1L276.4 136.1Q276.3 136.2 276.1 136.5Q275.9 136.7 275.6 136.9Q275.2 137.1 274.6 137.1ZM274.8 136.3L274.8 136.3Q275.3 136.3 275.7 136.0Q276.1 135.7 276.3 135.2Q276.5 134.7 276.5 134.0L276.5 134.0Q276.5 133.3 276.3 132.8Q276.1 132.3 275.7 132.1Q275.3 131.8 274.8 131.8L274.8 131.8Q274.2 131.8 273.8 132.1Q273.4 132.4 273.3 132.9Q273.1 133.4 273.1 134.0L273.1 134.0Q273.1 134.6 273.3 135.1Q273.5 135.7 273.8 136.0Q274.2 136.3 274.8 136.3ZM281.2 137.1L281.2 137.1Q280.5 137.1 280.1 136.8Q279.6 136.6 279.4 136.1Q279.1 135.6 279.1 134.8L279.1 134.8L279.1 131.0L280.1 131.0L280.1 134.7Q280.1 135.4 280.4 135.8Q280.8 136.2 281.4 136.2L281.4 136.2Q281.9 136.2 282.2 136.0Q282.6 135.8 282.8 135.5Q283.0 135.1 283.0 134.6L283.0 134.6L283.0 131.0L283.9 131.0L283.9 137L283.0 137L283.0 135.9Q282.7 136.5 282.3 136.7L282.3 136.7Q281.8 137.1 281.2 137.1ZM285.6 129.0L286.6 129.0L286.6 137L285.6 137L285.6 129.0ZM290.8 137.1L290.8 137.1Q289.9 137.1 289.3 136.7Q288.7 136.4 288.3 135.7Q288.0 135.0 288.0 134.0Q288.0 133.1 288.3 132.4Q288.7 131.7 289.3 131.3Q289.9 130.9 290.7 130.9L290.7 130.9Q291.2 130.9 291.6 131.1Q292.1 131.2 292.5 131.6Q292.9 131.9 293.1 132.5Q293.3 133.1 293.3 133.9L293.3 133.9L293.3 134.3L289.0 134.3Q289.0 134.9 289.2 135.3L289.2 135.3Q289.4 135.8 289.9 136.0Q290.3 136.3 290.8 136.3L290.8 136.3Q291.2 136.3 291.5 136.2Q291.7 136.1 292.0 135.9Q292.2 135.7 292.3 135.3L292.3 135.3L293.2 135.6Q293.1 136.1 292.7 136.4Q292.4 136.7 291.9 136.9Q291.4 137.1 290.8 137.1ZM289.0 133.5L289.0 133.5L292.3 133.5Q292.3 133.1 292.2 132.8L292.2 132.8Q292.0 132.3 291.6 132.0Q291.2 131.8 290.7 131.8Q290.2 131.8 289.8 132.0Q289.4 132.3 289.2 132.7L289.2 132.7Q289.0 133.1 289.0 133.5Z M298.9 137L297.9 137L297.9 129.0L302.7 129.0L302.7 129.9L298.9 129.9L298.9 132.6L302.4 132.6L302.4 133.5L298.9 133.5L298.9 137ZM306.8 137.1L306.8 137.1Q305.9 137.1 305.3 136.7Q304.7 136.4 304.3 135.7Q304.0 135.0 304.0 134.0Q304.0 133.1 304.3 132.4Q304.7 131.7 305.3 131.3Q305.9 130.9 306.7 130.9L306.7 130.9Q307.2 130.9 307.6 131.1Q308.1 131.2 308.5 131.6Q308.9 131.9 309.1 132.5Q309.3 133.1 309.3 133.9L309.3 133.9L309.3 134.3L305.0 134.3Q305.0 134.9 305.2 135.3L305.2 135.3Q305.4 135.8 305.9 136.0Q306.3 136.3 306.8 136.3L306.8 136.3Q307.2 136.3 307.5 136.2Q307.7 136.1 308.0 135.9Q308.2 135.7 308.3 135.3L308.3 135.3L309.2 135.6Q309.1 136.1 308.7 136.4Q308.4 136.7 307.9 136.9Q307.4 137.1 306.8 137.1ZM305.0 133.5L305.0 133.5L308.3 133.5Q308.3 133.1 308.2 132.8L308.2 132.8Q308.0 132.3 307.6 132.0Q307.2 131.8 306.7 131.8Q306.2 131.8 305.8 132.0Q305.4 132.3 305.2 132.7L305.2 132.7Q305.0 133.1 305.0 133.5ZM312.9 137.1L312.9 137.1Q312.2 137.1 311.6 136.7Q311.1 136.4 310.7 135.7Q310.4 135.0 310.4 134.0L310.4 134.0Q310.4 133.1 310.7 132.4Q311.1 131.7 311.6 131.3Q312.2 130.9 313.0 130.9L313.0 130.9Q313.5 130.9 313.9 131.1Q314.2 131.3 314.4 131.6Q314.6 131.8 314.7 132.0L314.7 132.0L314.8 132.0L314.8 129.0L315.7 129.0L315.7 137L314.8 137L314.8 136.1L314.7 136.1Q314.6 136.2 314.4 136.5Q314.2 136.7 313.9 136.9Q313.5 137.1 312.9 137.1ZM313.1 136.3L313.1 136.3Q313.6 136.3 314.0 136.0Q314.4 135.7 314.6 135.2Q314.8 134.7 314.8 134.0L314.8 134.0Q314.8 133.3 314.6 132.8Q314.4 132.3 314.0 132.1Q313.6 131.8 313.1 131.8L313.1 131.8Q312.5 131.8 312.1 132.1Q311.8 132.4 311.6 132.9Q311.4 133.4 311.4 134.0L311.4 134.0Q311.4 134.6 311.6 135.1Q311.8 135.7 312.2 136.0Q312.5 136.3 313.1 136.3ZM320.0 137.1L320.0 137.1Q319.1 137.1 318.5 136.7Q317.8 136.4 317.5 135.7Q317.1 135.0 317.1 134.0Q317.1 133.1 317.5 132.4Q317.8 131.7 318.4 131.3Q319.0 130.9 319.8 130.9L319.8 130.9Q320.3 130.9 320.8 131.1Q321.3 131.2 321.6 131.6Q322.0 131.9 322.2 132.5Q322.5 133.1 322.5 133.9L322.5 133.9L322.5 134.3L318.1 134.3Q318.1 134.9 318.4 135.3L318.4 135.3Q318.6 135.8 319.0 136.0Q319.4 136.3 320.0 136.3L320.0 136.3Q320.3 136.3 320.6 136.2Q320.9 136.1 321.1 135.9Q321.3 135.7 321.4 135.3L321.4 135.3L322.4 135.6Q322.2 136.1 321.9 136.4Q321.6 136.7 321.1 136.9Q320.6 137.1 320.0 137.1ZM318.1 133.5L318.1 133.5L321.5 133.5Q321.4 133.1 321.3 132.8L321.3 132.8Q321.1 132.3 320.8 132.0Q320.4 131.8 319.8 131.8Q319.3 131.8 318.9 132.0Q318.5 132.3 318.3 132.7L318.3 132.7Q318.2 133.1 318.1 133.5ZM324.8 137L323.8 137L323.8 131.0L324.8 131.0L324.8 131.9L324.8 131.9Q325.0 131.5 325.4 131.2Q325.9 130.9 326.4 130.9L326.4 130.9Q326.5 130.9 326.7 130.9Q326.8 130.9 326.9 130.9L326.9 130.9L326.9 131.9Q326.8 131.9 326.7 131.9Q326.5 131.8 326.3 131.8L326.3 131.8Q325.9 131.8 325.5 132.0Q325.2 132.2 325.0 132.5Q324.8 132.8 324.8 133.2L324.8 133.2L324.8 137ZM329.7 137.1L329.7 137.1Q329.1 137.1 328.6 136.9Q328.2 136.7 327.9 136.3Q327.6 135.9 327.6 135.3L327.6 135.3Q327.6 134.8 327.8 134.5Q328.0 134.1 328.4 133.9Q328.7 133.8 329.1 133.7Q329.5 133.6 330.0 133.5L330.0 133.5Q330.5 133.5 330.8 133.4Q331.2 133.4 331.3 133.3Q331.5 133.2 331.5 133.0L331.5 133.0L331.5 132.9Q331.5 132.6 331.4 132.3Q331.2 132.0 330.9 131.9Q330.7 131.8 330.2 131.8L330.2 131.8Q329.8 131.8 329.5 131.9Q329.2 132.0 329.0 132.2Q328.8 132.4 328.7 132.6L328.7 132.6L327.8 132.3Q328.0 131.8 328.4 131.5Q328.8 131.2 329.3 131.0Q329.8 130.9 330.2 130.9L330.2 130.9Q330.5 130.9 330.9 131.0Q331.3 131.1 331.6 131.3Q332 131.5 332.2 131.9Q332.5 132.3 332.5 133.0L332.5 133.0L332.5 137L331.5 137L331.5 136.2L331.5 136.2Q331.4 136.4 331.1 136.6Q330.9 136.8 330.5 137.0Q330.2 137.1 329.7 137.1ZM329.8 136.3L329.8 136.3Q330.4 136.3 330.7 136.1Q331.1 135.9 331.3 135.5Q331.5 135.2 331.5 134.8L331.5 134.8L331.5 134.0Q331.4 134.1 331.2 134.1Q331.0 134.2 330.8 134.2Q330.5 134.3 330.3 134.3Q330.1 134.3 329.9 134.3L329.9 134.3Q329.6 134.4 329.3 134.5Q329.0 134.6 328.8 134.8Q328.6 135.0 328.6 135.3L328.6 135.3Q328.6 135.7 328.8 135.9Q328.9 136.1 329.2 136.2Q329.5 136.3 329.8 136.3ZM335.3 131.0L336.5 131.0L336.5 131.8L335.3 131.8L335.3 135.4Q335.3 135.8 335.5 136.0Q335.6 136.2 336.0 136.2L336.0 136.2Q336.1 136.2 336.2 136.2Q336.4 136.2 336.5 136.2L336.5 136.2L336.7 137.0Q336.5 137.0 336.4 137.0Q336.2 137.1 336.0 137.1L336.0 137.1Q335.2 137.1 334.8 136.7Q334.3 136.3 334.3 135.5L334.3 135.5L334.3 131.8L333.4 131.8L333.4 131.0L334.3 131.0L334.3 129.6L335.3 129.6L335.3 131.0ZM338.7 137L337.8 137L337.8 131.0L338.7 131.0L338.7 137ZM338.3 130.0L338.3 130.0Q338.0 130.0 337.8 129.8Q337.6 129.6 337.6 129.4L337.6 129.4Q337.6 129.1 337.8 128.9Q338.0 128.7 338.3 128.7L338.3 128.7Q338.5 128.7 338.7 128.9Q338.9 129.1 338.9 129.4L338.9 129.4Q338.9 129.6 338.7 129.8Q338.5 130.0 338.3 130.0ZM342.9 137.1L342.9 137.1Q342.1 137.1 341.4 136.7Q340.8 136.4 340.5 135.7Q340.1 135.0 340.1 134.0L340.1 134.0Q340.1 133.1 340.5 132.4Q340.8 131.7 341.4 131.3Q342.1 130.9 342.9 130.9L342.9 130.9Q343.7 130.9 344.3 131.3Q344.9 131.7 345.3 132.4Q345.6 133.1 345.6 134.0L345.6 134.0Q345.6 135.0 345.3 135.7Q344.9 136.4 344.3 136.7Q343.7 137.1 342.9 137.1ZM342.9 136.3L342.9 136.3Q343.5 136.3 343.9 136.0Q344.3 135.6 344.5 135.1Q344.6 134.6 344.6 134.0L344.6 134.0Q344.6 133.4 344.5 132.9Q344.3 132.4 343.9 132.1Q343.5 131.8 342.9 131.8L342.9 131.8Q342.3 131.8 341.9 132.1Q341.5 132.4 341.3 132.9Q341.1 133.4 341.1 134.0L341.1 134.0Q341.1 134.6 341.3 135.1Q341.5 135.6 341.9 136.0Q342.3 136.3 342.9 136.3ZM348.0 133.4L348.0 133.4L348.0 137L347.0 137L347.0 131.0L348.0 131.0L348.0 132.1Q348.2 131.5 348.6 131.3L348.6 131.3Q349.1 130.9 349.8 130.9L349.8 130.9Q350.4 130.9 350.9 131.2Q351.3 131.4 351.6 131.9Q351.8 132.4 351.8 133.2L351.8 133.2L351.8 137L350.9 137L350.9 133.3Q350.9 132.6 350.5 132.2Q350.1 131.8 349.5 131.8L349.5 131.8Q349.1 131.8 348.7 132.0Q348.4 132.2 348.2 132.5Q348.0 132.9 348.0 133.4Z "/></g><mask id="satori_om-id-1-3-4"><rect x="369" y="123" width="49" height="19" fill="#fff" mask="url(#satori_om-id)"/></mask><path x="369" y="123" width="49" height="19" fill="#1e2330" d="M375,123 h37 a6,6 0 0 1 6,6 v7 a6,6 0 0 1 -6,6 h-37 a6,6 0 0 1 -6,-6 v-7 a6,6 0 0 1 6,-6" clip-path="url(#satori_cp-id)" mask="url(#satori_om-id)"/><g mask="url(#satori_om-id)" clip-path="url(#satori_cp-id)"><path fill="#cbd5e1" d="M381.5 137.1L381.5 137.1Q380.7 137.1 380.0 136.9Q379.4 136.6 379.0 136.1Q378.7 135.6 378.6 134.9L378.6 134.9L379.7 134.9Q379.7 135.4 380.0 135.6Q380.2 135.9 380.7 136.1Q381.1 136.2 381.5 136.2L381.5 136.2Q382.1 136.2 382.5 136.0Q382.9 135.9 383.2 135.5Q383.4 135.2 383.4 134.8L383.4 134.8Q383.4 134.4 383.2 134.2Q383.0 133.9 382.6 133.8Q382.3 133.6 381.9 133.5L381.9 133.5L380.9 133.2Q379.9 133.0 379.4 132.4Q378.8 131.9 378.8 131.1L378.8 131.1Q378.8 130.5 379.2 130.0Q379.6 129.4 380.2 129.2Q380.8 128.9 381.6 128.9L381.6 128.9Q382.4 128.9 383.0 129.2Q383.6 129.4 384.0 129.9Q384.3 130.4 384.3 131.0L384.3 131.0L383.3 131.0Q383.3 130.4 382.8 130.1Q382.3 129.8 381.6 129.8L381.6 129.8Q381.1 129.8 380.7 130.0Q380.3 130.1 380.1 130.4Q379.8 130.7 379.8 131.1L379.8 131.1Q379.8 131.5 380.1 131.8Q380.4 132.0 380.7 132.2Q381.1 132.3 381.4 132.4L381.4 132.4L382.2 132.6Q382.5 132.7 382.9 132.8Q383.3 133.0 383.6 133.2Q384.0 133.5 384.2 133.9Q384.4 134.3 384.4 134.8L384.4 134.8Q384.4 135.5 384.1 136.0Q383.8 136.5 383.1 136.8Q382.5 137.1 381.5 137.1ZM387.0 131.0L388.3 131.0L388.3 131.8L387.0 131.8L387.0 135.4Q387.0 135.8 387.2 136.0Q387.4 136.2 387.7 136.2L387.7 136.2Q387.8 136.2 388.0 136.2Q388.1 136.2 388.2 136.2L388.2 136.2L388.4 137.0Q388.3 137.0 388.1 137.0Q387.9 137.1 387.7 137.1L387.7 137.1Q386.9 137.1 386.5 136.7Q386.1 136.3 386.1 135.5L386.1 135.5L386.1 131.8L385.2 131.8L385.2 131.0L386.1 131.0L386.1 129.6L387.0 129.6L387.0 131.0ZM390.5 137L389.5 137L389.5 131.0L390.4 131.0L390.4 131.9L390.5 131.9Q390.7 131.5 391.1 131.2Q391.5 130.9 392.1 130.9L392.1 130.9Q392.2 130.9 392.3 130.9Q392.5 130.9 392.6 130.9L392.6 130.9L392.6 131.9Q392.5 131.9 392.3 131.9Q392.2 131.8 392.0 131.8L392.0 131.8Q391.5 131.8 391.2 132.0Q390.9 132.2 390.7 132.5Q390.5 132.8 390.5 133.2L390.5 133.2L390.5 137ZM394.6 137L393.6 137L393.6 131.0L394.6 131.0L394.6 137ZM394.1 130.0L394.1 130.0Q393.9 130.0 393.7 129.8Q393.5 129.6 393.5 129.4L393.5 129.4Q393.5 129.1 393.7 128.9Q393.9 128.7 394.1 128.7L394.1 128.7Q394.4 128.7 394.6 128.9Q394.8 129.1 394.8 129.4L394.8 129.4Q394.8 129.6 394.6 129.8Q394.4 130.0 394.1 130.0ZM397.3 139.2L396.3 139.2L396.3 131.0L397.2 131.0L397.2 132.0L397.4 132.0Q397.5 131.8 397.6 131.6Q397.8 131.3 398.2 131.1Q398.5 130.9 399.1 130.9L399.1 130.9Q399.8 130.9 400.4 131.3Q401.0 131.7 401.3 132.4Q401.6 133.1 401.6 134.0L401.6 134.0Q401.6 135.0 401.3 135.7Q401.0 136.4 400.4 136.7Q399.8 137.1 399.1 137.1L399.1 137.1Q398.5 137.1 398.2 136.9Q397.8 136.7 397.6 136.5Q397.5 136.2 397.4 136.1L397.4 136.1L397.3 136.1L397.3 139.2ZM399.0 136.3L399.0 136.3Q399.5 136.3 399.9 136.0Q400.3 135.7 400.5 135.1Q400.7 134.6 400.7 134.0L400.7 134.0Q400.7 133.4 400.5 132.9Q400.3 132.4 399.9 132.1Q399.5 131.8 399.0 131.8L399.0 131.8Q398.4 131.8 398.0 132.1Q397.6 132.3 397.5 132.8Q397.3 133.3 397.3 134.0L397.3 134.0Q397.3 134.7 397.5 135.2Q397.7 135.7 398.0 136.0Q398.4 136.3 399.0 136.3ZM405.6 137.1L405.6 137.1Q404.7 137.1 404.1 136.7Q403.4 136.4 403.1 135.7Q402.8 135.0 402.8 134.0Q402.8 133.1 403.1 132.4Q403.4 131.7 404.0 131.3Q404.6 130.9 405.5 130.9L405.5 130.9Q405.9 130.9 406.4 131.1Q406.9 131.2 407.2 131.6Q407.6 131.9 407.8 132.5Q408.1 133.1 408.1 133.9L408.1 133.9L408.1 134.3L403.7 134.3Q403.8 134.9 404.0 135.3L404.0 135.3Q404.2 135.8 404.6 136.0Q405.0 136.3 405.6 136.3L405.6 136.3Q405.9 136.3 406.2 136.2Q406.5 136.1 406.7 135.9Q406.9 135.7 407.0 135.3L407.0 135.3L408.0 135.6Q407.8 136.1 407.5 136.4Q407.2 136.7 406.7 136.9Q406.2 137.1 405.6 137.1ZM403.7 133.5L403.7 133.5L407.1 133.5Q407.1 133.1 406.9 132.8L406.9 132.8Q406.7 132.3 406.4 132.0Q406.0 131.8 405.5 131.8Q404.9 131.8 404.5 132.0Q404.1 132.3 403.9 132.7L403.9 132.7Q403.8 133.1 403.7 133.5Z "/></g><mask id="satori_om-id-1-3-5"><rect x="425" y="123" width="63" height="19" fill="#fff" mask="url(#satori_om-id)"/></mask><path x="425" y="123" width="63" height="19" fill="#1e2330" d="M431,123 h51 a6,6 0 0 1 6,6 v7 a6,6 0 0 1 -6,6 h-51 a6,6 0 0 1 -6,-6 v-7 a6,6 0 0 1 6,-6" clip-path="url(#satori_cp-id)" mask="url(#satori_om-id)"/><g mask="url(#satori_om-id)" clip-path="url(#satori_cp-id)"><path fill="#cbd5e1" d="M436.0 137L435.0 137L435.0 129.0L439.8 129.0L439.8 129.9L436.0 129.9L436.0 132.6L439.4 132.6L439.4 133.5L436.0 133.5L436.0 137ZM442.3 137L441.3 137L441.3 131.0L442.3 131.0L442.3 137ZM441.8 130.0L441.8 130.0Q441.6 130.0 441.4 129.8Q441.2 129.6 441.2 129.4L441.2 129.4Q441.2 129.1 441.4 128.9Q441.6 128.7 441.8 128.7L441.8 128.7Q442.1 128.7 442.3 128.9Q442.5 129.1 442.5 129.4L442.5 129.4Q442.5 129.6 442.3 129.8Q442.1 130.0 441.8 130.0ZM445.0 137L444.0 137L444.0 131.0L444.9 131.0L444.9 131.9L445.0 131.9Q445.2 131.5 445.6 131.2Q446.0 130.9 446.6 130.9L446.6 130.9Q446.7 130.9 446.8 130.9Q447.0 130.9 447.1 130.9L447.1 130.9L447.1 131.9Q447.0 131.9 446.8 131.9Q446.7 131.8 446.5 131.8L446.5 131.8Q446.0 131.8 445.7 132.0Q445.4 132.2 445.2 132.5Q445.0 132.8 445.0 133.2L445.0 133.2L445.0 137ZM450.7 137.1L450.7 137.1Q449.8 137.1 449.2 136.7Q448.5 136.4 448.2 135.7Q447.9 135.0 447.9 134.0Q447.9 133.1 448.2 132.4Q448.5 131.7 449.1 131.3Q449.7 130.9 450.6 130.9L450.6 130.9Q451.0 130.9 451.5 131.1Q452.0 131.2 452.3 131.6Q452.7 131.9 452.9 132.5Q453.2 133.1 453.2 133.9L453.2 133.9L453.2 134.3L448.8 134.3Q448.9 134.9 449.1 135.3L449.1 135.3Q449.3 135.8 449.7 136.0Q450.1 136.3 450.7 136.3L450.7 136.3Q451.0 136.3 451.3 136.2Q451.6 136.1 451.8 135.9Q452.0 135.7 452.1 135.3L452.1 135.3L453.1 135.6Q452.9 136.1 452.6 136.4Q452.3 136.7 451.8 136.9Q451.3 137.1 450.7 137.1ZM448.8 133.5L448.8 133.5L452.2 133.5Q452.2 133.1 452.0 132.8L452.0 132.8Q451.8 132.3 451.5 132.0Q451.1 131.8 450.6 131.8Q450.0 131.8 449.6 132.0Q449.2 132.3 449.0 132.7L449.0 132.7Q448.9 133.1 448.8 133.5ZM457.3 137.1L457.3 137.1Q456.8 137.1 456.4 136.9Q456.1 136.7 455.9 136.5Q455.7 136.2 455.6 136.1L455.6 136.1L455.5 136.1L455.5 137L454.6 137L454.6 129.0L455.5 129.0L455.5 132.0L455.6 132.0Q455.7 131.8 455.9 131.6Q456.1 131.3 456.4 131.1Q456.8 130.9 457.3 130.9L457.3 130.9Q458.1 130.9 458.7 131.3Q459.2 131.7 459.6 132.4Q459.9 133.1 459.9 134.0L459.9 134.0Q459.9 135.0 459.6 135.7Q459.2 136.4 458.7 136.7Q458.1 137.1 457.3 137.1ZM457.2 136.3L457.2 136.3Q457.8 136.3 458.1 136.0Q458.5 135.7 458.7 135.1Q458.9 134.6 458.9 134.0L458.9 134.0Q458.9 133.4 458.7 132.9Q458.5 132.4 458.2 132.1Q457.8 131.8 457.2 131.8L457.2 131.8Q456.6 131.8 456.3 132.1Q455.9 132.3 455.7 132.8Q455.5 133.3 455.5 134.0L455.5 134.0Q455.5 134.7 455.7 135.2Q455.9 135.7 456.3 136.0Q456.7 136.3 457.2 136.3ZM463.0 137.1L463.0 137.1Q462.4 137.1 461.9 136.9Q461.5 136.7 461.2 136.3Q460.9 135.9 460.9 135.3L460.9 135.3Q460.9 134.8 461.1 134.5Q461.3 134.1 461.7 133.9Q462.0 133.8 462.4 133.7Q462.8 133.6 463.3 133.5L463.3 133.5Q463.8 133.5 464.1 133.4Q464.5 133.4 464.6 133.3Q464.8 133.2 464.8 133.0L464.8 133.0L464.8 132.9Q464.8 132.6 464.7 132.3Q464.5 132.0 464.3 131.9Q464.0 131.8 463.6 131.8L463.6 131.8Q463.1 131.8 462.8 131.9Q462.5 132.0 462.3 132.2Q462.1 132.4 462.0 132.6L462.0 132.6L461.1 132.3Q461.3 131.8 461.7 131.5Q462.1 131.2 462.6 131.0Q463.1 130.9 463.5 130.9L463.5 130.9Q463.8 130.9 464.2 131.0Q464.6 131.1 465.0 131.3Q465.3 131.5 465.5 131.9Q465.8 132.3 465.8 133.0L465.8 133.0L465.8 137L464.8 137L464.8 136.2L464.8 136.2Q464.7 136.4 464.4 136.6Q464.2 136.8 463.8 137.0Q463.5 137.1 463.0 137.1ZM463.1 136.3L463.1 136.3Q463.7 136.3 464.1 136.1Q464.4 135.9 464.6 135.5Q464.8 135.2 464.8 134.8L464.8 134.8L464.8 134.0Q464.7 134.1 464.6 134.1Q464.4 134.2 464.1 134.2Q463.8 134.3 463.6 134.3Q463.4 134.3 463.2 134.3L463.2 134.3Q462.9 134.4 462.6 134.5Q462.3 134.6 462.1 134.8Q461.9 135.0 461.9 135.3L461.9 135.3Q461.9 135.7 462.1 135.9Q462.2 136.1 462.5 136.2Q462.8 136.3 463.1 136.3ZM469.5 137.1L469.5 137.1Q468.9 137.1 468.4 136.9Q467.9 136.8 467.6 136.4Q467.3 136.1 467.2 135.5L467.2 135.5L468.1 135.3Q468.3 135.8 468.6 136.0Q469.0 136.3 469.5 136.3L469.5 136.3Q470.1 136.3 470.5 136.0Q470.9 135.7 470.9 135.4L470.9 135.4Q470.9 135.1 470.7 134.9Q470.4 134.6 470.0 134.5L470.0 134.5L469.0 134.3Q468.2 134.1 467.8 133.7Q467.4 133.3 467.4 132.7L467.4 132.7Q467.4 132.2 467.7 131.8Q468.0 131.4 468.5 131.1Q469.0 130.9 469.6 130.9L469.6 130.9Q470.2 130.9 470.7 131.1Q471.1 131.3 471.4 131.6Q471.6 131.9 471.8 132.4L471.8 132.4L470.9 132.6Q470.8 132.3 470.5 132.0Q470.2 131.7 469.6 131.7L469.6 131.7Q469.1 131.7 468.7 132.0Q468.4 132.2 468.4 132.6L468.4 132.6Q468.4 132.9 468.6 133.1Q468.8 133.3 469.4 133.5L469.4 133.5L470.3 133.7Q471.1 133.9 471.5 134.3Q471.9 134.7 471.9 135.3L471.9 135.3Q471.9 135.8 471.6 136.2Q471.3 136.7 470.8 136.9Q470.2 137.1 469.5 137.1ZM475.8 137.1L475.8 137.1Q474.9 137.1 474.3 136.7Q473.7 136.4 473.3 135.7Q473.0 135.0 473.0 134.0Q473.0 133.1 473.3 132.4Q473.7 131.7 474.3 131.3Q474.9 130.9 475.7 130.9L475.7 130.9Q476.2 130.9 476.6 131.1Q477.1 131.2 477.5 131.6Q477.9 131.9 478.1 132.5Q478.3 133.1 478.3 133.9L478.3 133.9L478.3 134.3L474.0 134.3Q474.0 134.9 474.2 135.3L474.2 135.3Q474.4 135.8 474.8 136.0Q475.3 136.3 475.8 136.3L475.8 136.3Q476.2 136.3 476.5 136.2Q476.7 136.1 477.0 135.9Q477.2 135.7 477.3 135.3L477.3 135.3L478.2 135.6Q478.1 136.1 477.7 136.4Q477.4 136.7 476.9 136.9Q476.4 137.1 475.8 137.1ZM474.0 133.5L474.0 133.5L477.3 133.5Q477.3 133.1 477.2 132.8L477.2 132.8Q477.0 132.3 476.6 132.0Q476.2 131.8 475.7 131.8Q475.1 131.8 474.8 132.0Q474.4 132.3 474.2 132.7L474.2 132.7Q474.0 133.1 474.0 133.5Z "/></g></svg>