<!-- Generated by readme-aura https://github.com/collectioneur/readme-aura -->
<svg width="900" height="130" viewBox="0 0 900 130" xmlns="http://www.w3.org/2000/svg"><defs><pattern id="satori_pattern_id_0" x="0" y="0" width="1" height="1" patternUnits="objectBoundingBox"><linearGradient id="satori_biid_0" x1="0" y1="0" x2="1" y2="0" spreadMethod="pad"><stop offset="0%" stop-color="#0a0c14"/><stop offset="100%" stop-color="#11141d"/></linearGradient><rect x="0" y="0" width="900" height="130" fill="url(#satori_biid_0)"/></pattern></defs><mask id="satori_om-id"><rect x="0" y="0" width="900" height="130" fill="#fff"/></mask><path x="0" y="0" width="900" height="130" fill="url(#satori_pattern_id_0)" d="M16,0 h868 a16,16 0 0 1 16,16 v98 a16,16 0 0 1 -16,16 h-868 a16,16 0 0 1 -16,-16 v-98 a16,16 0 0 1 16,-16"/><mask id="satori_om-id-0"><rect x="36" y="44" width="247" height="42" fill="#fff"/></mask><mask id="satori_om-id-0-0"><rect x="36" y="44" width="247" height="22" fill="#fff"/></mask><g  ><path fill="#f1f5f9" d="M45.5 61L37.2 61L37.2 47.9L39.9 47.9L39.9 58.8L45.5 58.8L45.5 61ZM51.7 61.2L51.7 61.2Q50.2 61.2 49.1 60.6Q48.1 60.0 47.5 58.8Q46.9 57.7 46.9 56.1L46.9 56.1Q46.9 54.6 47.5 53.5Q48.0 52.3 49.1 51.7Q50.2 51.1 51.6 51.1L51.6 51.1Q52.6 51.1 53.4 51.4Q54.2 51.7 54.9 52.3Q55.5 52.9 55.9 53.8Q56.2 54.8 56.2 56.0L56.2 56.0L56.2 56.8L49.5 56.8Q49.5 57.5 49.8 58.0L49.8 58.0Q50.1 58.6 50.6 58.9Q51.1 59.2 51.8 59.2L51.8 59.2Q52.3 59.2 52.6 59.1Q53.0 58.9 53.3 58.7Q53.5 58.4 53.7 58.0L53.7 58.0L56.1 58.5Q55.8 59.3 55.2 59.9Q54.7 60.5 53.8 60.9Q52.9 61.2 51.7 61.2ZM49.5 55.1L49.5 55.1L53.7 55.1Q53.6 54.6 53.5 54.2L53.5 54.2Q53.2 53.7 52.8 53.3Q52.3 53.0 51.6 53.0L51.6 53.0Q51.0 53.0 50.5 53.4Q50.0 53.7 49.7 54.2L49.7 54.2Q49.6 54.6 49.5 55.1ZM61.1 51.2L62.9 51.2L62.9 53.2L61.1 53.2L61.1 58.1Q61.1 58.6 61.3 58.8Q61.5 59.0 62.0 59.0L62.0 59.0Q62.1 59.0 62.4 59.0Q62.7 59.0 62.8 58.9L62.8 58.9L63.2 60.9Q62.7 61.0 62.3 61.1Q61.9 61.1 61.5 61.1L61.5 61.1Q60.0 61.1 59.2 60.4Q58.4 59.7 58.4 58.4L58.4 58.4L58.4 53.2L57.1 53.2L57.1 51.2L58.4 51.2L58.4 48.8L61.1 48.8L61.1 51.2ZM67.5 53.4L65.5 53.4L65.3 47.9L67.8 47.9L67.5 53.4ZM74.6 61.2L74.6 61.2Q73.4 61.2 72.5 60.9Q71.6 60.5 71.0 59.9Q70.4 59.2 70.3 58.3L70.3 58.3L72.7 57.9Q72.9 58.6 73.4 58.9Q73.9 59.3 74.7 59.3L74.7 59.3Q75.5 59.3 75.9 59.0Q76.3 58.7 76.3 58.2L76.3 58.2Q76.3 57.9 76.0 57.6Q75.7 57.4 75.1 57.2L75.1 57.2L73.4 56.9Q71.9 56.6 71.2 55.9Q70.5 55.2 70.5 54.1L70.5 54.1Q70.5 53.2 71.1 52.5Q71.6 51.8 72.5 51.4Q73.4 51.1 74.7 51.1L74.7 51.1Q75.8 51.1 76.7 51.4Q77.5 51.7 78.1 52.3Q78.6 52.9 78.8 53.7L78.8 53.7L76.4 54.1Q76.3 53.6 75.8 53.3Q75.4 52.9 74.7 52.9L74.7 52.9Q74.0 52.9 73.6 53.2Q73.2 53.5 73.2 53.9L73.2 53.9Q73.2 54.3 73.5 54.6Q73.7 54.8 74.4 55.0L74.4 55.0L76.2 55.3Q77.6 55.6 78.3 56.3Q79.0 56.9 79.0 58.0L79.0 58.0Q79.0 58.9 78.5 59.7Q77.9 60.4 76.9 60.8Q75.9 61.2 74.6 61.2Z M90.6 61.2L90.6 61.2Q89.8 61.2 89.2 60.9Q88.7 60.6 88.3 60.2Q88.0 59.8 87.8 59.4L87.8 59.4L87.7 59.4L87.7 61L85.1 61L85.1 47.9L87.7 47.9L87.7 52.8L87.8 52.8Q88.0 52.4 88.3 52.0Q88.6 51.6 89.2 51.3Q89.7 51.1 90.6 51.1L90.6 51.1Q91.7 51.1 92.6 51.6Q93.5 52.2 94.0 53.3Q94.6 54.4 94.6 56.1L94.6 56.1Q94.6 57.7 94.0 58.9Q93.5 60.0 92.6 60.6Q91.7 61.2 90.6 61.2ZM89.8 59.0L89.8 59.0Q90.4 59.0 90.9 58.7Q91.4 58.3 91.6 57.6Q91.9 57.0 91.9 56.1L91.9 56.1Q91.9 55.2 91.6 54.6Q91.4 53.9 90.9 53.5Q90.4 53.2 89.8 53.2L89.8 53.2Q89.1 53.2 88.6 53.5Q88.1 53.9 87.9 54.5Q87.6 55.2 87.6 56.1L87.6 56.1Q87.6 57.0 87.9 57.6Q88.1 58.3 88.6 58.7Q89.1 59.0 89.8 59.0ZM99.8 61.1L99.8 61.1Q98.8 61.1 98.0 60.7Q97.2 60.2 96.8 59.4Q96.4 58.6 96.4 57.4L96.4 57.4L96.4 51.2L99.0 51.2L99.0 57.0Q99.0 57.9 99.5 58.4Q100.0 58.9 100.8 58.9L100.8 58.9Q101.4 58.9 101.8 58.7Q102.2 58.4 102.5 58.0Q102.7 57.5 102.7 56.9L102.7 56.9L102.7 51.2L105.4 51.2L105.4 61L102.9 61L102.8 59.0Q102.5 59.9 101.8 60.5L101.8 60.5Q101.0 61.1 99.8 61.1ZM110.3 61L107.6 61L107.6 51.2L110.3 51.2L110.3 61ZM108.9 49.9L108.9 49.9Q108.3 49.9 107.9 49.5Q107.5 49.1 107.5 48.5L107.5 48.5Q107.5 48.0 107.9 47.6Q108.3 47.2 108.9 47.2L108.9 47.2Q109.5 47.2 110.0 47.6Q110.4 48.0 110.4 48.5L110.4 48.5Q110.4 49.1 110.0 49.5Q109.5 49.9 108.9 49.9ZM112.5 47.9L115.1 47.9L115.1 61L112.5 61L112.5 47.9ZM121.0 61.2L121.0 61.2Q119.8 61.2 118.9 60.6Q118.0 60.0 117.5 58.9Q117.0 57.7 117.0 56.1L117.0 56.1Q117.0 54.4 117.5 53.3Q118.0 52.2 119.0 51.6Q119.9 51.1 120.9 51.1L120.9 51.1Q121.8 51.1 122.3 51.3Q122.9 51.6 123.2 52.0Q123.6 52.4 123.7 52.8L123.7 52.8L123.8 52.8L123.8 47.9L126.5 47.9L126.5 61L123.9 61L123.9 59.4L123.7 59.4Q123.6 59.8 123.2 60.2Q122.9 60.6 122.3 60.9Q121.8 61.2 121.0 61.2ZM121.8 59.0L121.8 59.0Q122.4 59.0 122.9 58.7Q123.4 58.3 123.6 57.6Q123.9 57.0 123.9 56.1L123.9 56.1Q123.9 55.2 123.6 54.5Q123.4 53.9 122.9 53.5Q122.4 53.2 121.8 53.2L121.8 53.2Q121.1 53.2 120.6 53.5Q120.1 53.9 119.9 54.6Q119.7 55.2 119.7 56.1L119.7 56.1Q119.7 57.0 119.9 57.6Q120.1 58.3 120.6 58.7Q121.1 59.0 121.8 59.0Z M136.9 61.2L136.9 61.2Q135.7 61.2 134.8 60.9Q133.9 60.5 133.3 59.9Q132.7 59.2 132.5 58.3L132.5 58.3L135.0 57.9Q135.2 58.6 135.7 58.9Q136.2 59.3 137.0 59.3L137.0 59.3Q137.7 59.3 138.2 59.0Q138.6 58.7 138.6 58.2L138.6 58.2Q138.6 57.9 138.3 57.6Q138.0 57.4 137.3 57.2L137.3 57.2L135.6 56.9Q134.2 56.6 133.5 55.9Q132.8 55.2 132.8 54.1L132.8 54.1Q132.8 53.2 133.3 52.5Q133.8 51.8 134.8 51.4Q135.7 51.1 136.9 51.1L136.9 51.1Q138.1 51.1 138.9 51.4Q139.8 51.7 140.3 52.3Q140.8 52.9 141.0 53.7L141.0 53.7L138.7 54.1Q138.5 53.6 138.1 53.3Q137.7 52.9 137.0 52.9L137.0 52.9Q136.3 52.9 135.9 53.2Q135.4 53.5 135.4 53.9L135.4 53.9Q135.4 54.3 135.7 54.6Q136.0 54.8 136.7 55.0L136.7 55.0L138.5 55.3Q139.9 55.6 140.6 56.3Q141.3 56.9 141.3 58.0L141.3 58.0Q141.3 58.9 140.7 59.7Q140.2 60.4 139.2 60.8Q138.2 61.2 136.9 61.2ZM147.5 61.2L147.5 61.2Q146.0 61.2 144.9 60.6Q143.8 59.9 143.2 58.8Q142.6 57.6 142.6 56.1L142.6 56.1Q142.6 54.6 143.2 53.5Q143.8 52.3 144.9 51.7Q146.0 51.1 147.5 51.1L147.5 51.1Q148.9 51.1 150.0 51.7Q151.1 52.3 151.7 53.5Q152.3 54.6 152.3 56.1L152.3 56.1Q152.3 57.6 151.7 58.8Q151.1 59.9 150.0 60.6Q148.9 61.2 147.5 61.2ZM147.5 59.1L147.5 59.1Q148.2 59.1 148.6 58.7Q149.1 58.3 149.3 57.7Q149.6 57.0 149.6 56.1L149.6 56.1Q149.6 55.3 149.3 54.6Q149.1 53.9 148.6 53.5Q148.2 53.1 147.5 53.1L147.5 53.1Q146.8 53.1 146.3 53.5Q145.8 53.9 145.6 54.6Q145.3 55.3 145.3 56.1L145.3 56.1Q145.3 57.0 145.6 57.7Q145.8 58.3 146.3 58.7Q146.8 59.1 147.5 59.1ZM156.7 61L154.1 61L154.1 51.2L156.5 51.2L156.6 53.1Q156.8 52.5 157.2 52.1L157.2 52.1Q157.6 51.6 158.2 51.3Q158.8 51.0 159.5 51.0L159.5 51.0Q160.5 51.0 161.2 51.7L161.2 51.7Q161.7 52.2 162.0 53.2L162.0 53.2Q162.2 52.6 162.5 52.2L162.5 52.2Q163.0 51.6 163.7 51.3Q164.4 51.0 165.1 51.0L165.1 51.0Q166.0 51.0 166.8 51.4Q167.5 51.8 167.9 52.6Q168.3 53.3 168.3 54.4L168.3 54.4L168.3 61L165.6 61L165.6 54.9Q165.6 54.0 165.2 53.6Q164.7 53.2 164.1 53.2L164.1 53.2Q163.6 53.2 163.2 53.4Q162.9 53.7 162.7 54.0Q162.5 54.4 162.5 55.0L162.5 55.0L162.5 61L159.9 61L159.9 54.8Q159.9 54.1 159.5 53.7Q159.1 53.2 158.4 53.2L158.4 53.2Q157.9 53.2 157.5 53.4Q157.2 53.7 157.0 54.1Q156.7 54.5 156.7 55.1L156.7 55.1L156.7 61ZM175.0 61.2L175.0 61.2Q173.5 61.2 172.4 60.6Q171.3 60.0 170.7 58.8Q170.1 57.7 170.1 56.1L170.1 56.1Q170.1 54.6 170.7 53.5Q171.3 52.3 172.3 51.7Q173.4 51.1 174.8 51.1L174.8 51.1Q175.8 51.1 176.6 51.4Q177.5 51.7 178.1 52.3Q178.7 52.9 179.1 53.8Q179.4 54.8 179.4 56.0L179.4 56.0L179.4 56.8L172.7 56.8Q172.7 57.5 173.0 58.0L173.0 58.0Q173.3 58.6 173.8 58.9Q174.3 59.2 175.0 59.2L175.0 59.2Q175.5 59.2 175.9 59.1Q176.2 58.9 176.5 58.7Q176.8 58.4 176.9 58.0L176.9 58.0L179.3 58.5Q179.1 59.3 178.5 59.9Q177.9 60.5 177.0 60.9Q176.1 61.2 175.0 61.2ZM172.7 55.1L172.7 55.1L176.9 55.1Q176.9 54.6 176.7 54.2L176.7 54.2Q176.5 53.7 176.0 53.3Q175.5 53.0 174.9 53.0L174.9 53.0Q174.2 53.0 173.7 53.4Q173.2 53.7 173.0 54.2L173.0 54.2Q172.8 54.6 172.7 55.1ZM184.3 51.2L186.1 51.2L186.1 53.2L184.3 53.2L184.3 58.1Q184.3 58.6 184.5 58.8Q184.7 59.0 185.2 59.0L185.2 59.0Q185.3 59.0 185.6 59.0Q185.9 59.0 186.0 58.9L186.0 58.9L186.4 60.9Q186.0 61.0 185.5 61.1Q185.1 61.1 184.7 61.1L184.7 61.1Q183.2 61.1 182.4 60.4Q181.7 59.7 181.7 58.4L181.7 58.4L181.7 53.2L180.3 53.2L180.3 51.2L181.7 51.2L181.7 48.8L184.3 48.8L184.3 51.2ZM190.5 55.3L190.5 55.3L190.5 61L187.8 61L187.8 47.9L190.4 47.9L190.4 53.1Q190.8 52.2 191.4 51.7L191.4 51.7Q192.2 51.1 193.4 51.1L193.4 51.1Q194.4 51.1 195.2 51.5Q196.0 51.9 196.4 52.8Q196.8 53.6 196.8 54.8L196.8 54.8L196.8 61L194.2 61L194.2 55.2Q194.2 54.3 193.7 53.8Q193.2 53.3 192.4 53.3L192.4 53.3Q191.8 53.3 191.4 53.5Q191.0 53.7 190.7 54.2Q190.5 54.7 190.5 55.3ZM201.7 61L199.0 61L199.0 51.2L201.7 51.2L201.7 61ZM200.4 49.9L200.4 49.9Q199.8 49.9 199.3 49.5Q198.9 49.1 198.9 48.5L198.9 48.5Q198.9 48.0 199.3 47.6Q199.8 47.2 200.4 47.2L200.4 47.2Q201.0 47.2 201.4 47.6Q201.8 48.0 201.8 48.5L201.8 48.5Q201.8 49.1 201.4 49.5Q201.0 49.9 200.4 49.9ZM206.6 55.3L206.6 55.3L206.6 61L203.9 61L203.9 51.2L206.4 51.2L206.4 53.2Q206.8 52.3 207.5 51.7L207.5 51.7Q208.3 51.1 209.5 51.1L209.5 51.1Q210.5 51.1 211.3 51.5Q212.0 51.9 212.5 52.8Q212.9 53.6 212.9 54.8L212.9 54.8L212.9 61L210.2 61L210.2 55.2Q210.2 54.3 209.8 53.8Q209.3 53.3 208.5 53.3L208.5 53.3Q207.9 53.3 207.5 53.5Q207.0 53.7 206.8 54.2Q206.6 54.7 206.6 55.3ZM219.5 64.9L219.5 64.9Q218.3 64.9 217.4 64.6Q216.4 64.3 215.9 63.7Q215.3 63.2 215.1 62.5L215.1 62.5L217.3 61.8Q217.5 62.1 217.7 62.4Q218.0 62.6 218.4 62.8Q218.8 63.0 219.5 63.0L219.5 63.0Q220.5 63.0 221.1 62.5Q221.6 62.0 221.6 61.1L221.6 61.1L221.6 59.3L221.4 59.3Q221.3 59.7 220.9 60.0Q220.6 60.4 220.1 60.6Q219.5 60.9 218.7 60.9L218.7 60.9Q217.6 60.9 216.7 60.3Q215.8 59.8 215.3 58.8Q214.7 57.7 214.7 56.1L214.7 56.1Q214.7 54.4 215.3 53.3Q215.8 52.2 216.7 51.6Q217.6 51.1 218.7 51.1L218.7 51.1Q219.6 51.1 220.1 51.3Q220.7 51.6 221.0 52.0Q221.4 52.4 221.5 52.8L221.5 52.8L221.7 52.8L221.7 51.2L224.3 51.2L224.3 60.9Q224.3 62.2 223.6 63.1Q223.0 64.0 222.0 64.4Q220.9 64.9 219.5 64.9ZM219.5 58.9L219.5 58.9Q220.2 58.9 220.7 58.5Q221.2 58.2 221.4 57.6Q221.7 56.9 221.7 56.1L221.7 56.1Q221.7 55.2 221.4 54.5Q221.2 53.9 220.7 53.5Q220.2 53.2 219.5 53.2L219.5 53.2Q218.8 53.2 218.4 53.5Q217.9 53.9 217.7 54.6Q217.4 55.2 217.4 56.1L217.4 56.1Q217.4 56.9 217.7 57.5Q217.9 58.2 218.4 58.5Q218.9 58.9 219.5 58.9Z M235.1 64.9L235.1 64.9Q233.9 64.9 233.0 64.6Q232.1 64.3 231.5 63.7Q230.9 63.2 230.7 62.5L230.7 62.5L233.0 61.8Q233.1 62.1 233.4 62.4Q233.6 62.6 234.1 62.8Q234.5 63.0 235.1 63.0L235.1 63.0Q236.1 63.0 236.7 62.5Q237.3 62.0 237.3 61.1L237.3 61.1L237.3 59.3L237.1 59.3Q236.9 59.7 236.6 60.0Q236.2 60.4 235.7 60.6Q235.2 60.9 234.4 60.9L234.4 60.9Q233.2 60.9 232.3 60.3Q231.4 59.8 230.9 58.8Q230.4 57.7 230.4 56.1L230.4 56.1Q230.4 54.4 230.9 53.3Q231.5 52.2 232.4 51.6Q233.3 51.1 234.4 51.1L234.4 51.1Q235.2 51.1 235.7 51.3Q236.3 51.6 236.7 52.0Q237.0 52.4 237.2 52.8L237.2 52.8L237.3 52.8L237.3 51.2L239.9 51.2L239.9 60.9Q239.9 62.2 239.3 63.1Q238.7 64.0 237.6 64.4Q236.5 64.9 235.1 64.9ZM235.2 58.9L235.2 58.9Q235.9 58.9 236.3 58.5Q236.8 58.2 237.0 57.6Q237.3 56.9 237.3 56.1L237.3 56.1Q237.3 55.2 237.0 54.5Q236.8 53.9 236.3 53.5Q235.9 53.2 235.2 53.2L235.2 53.2Q234.5 53.2 234.0 53.5Q233.5 53.9 233.3 54.6Q233.1 55.2 233.1 56.1L233.1 56.1Q233.1 56.9 233.3 57.5Q233.5 58.2 234.0 58.5Q234.5 58.9 235.2 58.9ZM244.8 61L242.1 61L242.1 51.2L244.7 51.2L244.7 52.9L244.8 52.9Q245.1 52.0 245.7 51.5Q246.3 51.0 247.2 51.0L247.2 51.0Q247.4 51.0 247.6 51.1Q247.8 51.1 248.0 51.1L248.0 51.1L248.0 53.5Q247.8 53.4 247.5 53.4Q247.2 53.4 246.9 53.4L246.9 53.4Q246.3 53.4 245.8 53.6Q245.3 53.9 245.0 54.3Q244.8 54.8 244.8 55.4L244.8 55.4L244.8 61ZM253.9 61.2L253.9 61.2Q252.4 61.2 251.3 60.6Q250.2 60.0 249.6 58.8Q249.1 57.7 249.1 56.1L249.1 56.1Q249.1 54.6 249.6 53.5Q250.2 52.3 251.3 51.7Q252.3 51.1 253.8 51.1L253.8 51.1Q254.7 51.1 255.6 51.4Q256.4 51.7 257.0 52.3Q257.7 52.9 258.0 53.8Q258.4 54.8 258.4 56.0L258.4 56.0L258.4 56.8L251.7 56.8Q251.7 57.5 252.0 58.0L252.0 58.0Q252.2 58.6 252.8 58.9Q253.3 59.2 254.0 59.2L254.0 59.2Q254.4 59.2 254.8 59.1Q255.2 58.9 255.4 58.7Q255.7 58.4 255.8 58.0L255.8 58.0L258.2 58.5Q258.0 59.3 257.4 59.9Q256.8 60.5 255.9 60.9Q255.1 61.2 253.9 61.2ZM251.7 55.1L251.7 55.1L255.8 55.1Q255.8 54.6 255.6 54.2L255.6 54.2Q255.4 53.7 254.9 53.3Q254.5 53.0 253.8 53.0L253.8 53.0Q253.1 53.0 252.6 53.4Q252.2 53.7 251.9 54.2L251.9 54.2Q251.7 54.6 251.7 55.1ZM262.9 61.2L262.9 61.2Q262.0 61.2 261.3 60.9Q260.5 60.5 260.1 59.9Q259.7 59.2 259.7 58.2L259.7 58.2Q259.7 57.4 260.0 56.9Q260.3 56.3 260.8 56.0Q261.3 55.7 262.0 55.5Q262.6 55.3 263.4 55.2L263.4 55.2Q264.2 55.1 264.7 55.1Q265.3 55.0 265.5 54.8Q265.8 54.7 265.8 54.4L265.8 54.4L265.8 54.3Q265.8 53.9 265.6 53.6Q265.4 53.3 265.1 53.2Q264.7 53.0 264.2 53.0L264.2 53.0Q263.7 53.0 263.3 53.2Q263.0 53.3 262.7 53.6Q262.5 53.8 262.4 54.1L262.4 54.1L259.9 53.7Q260.2 52.9 260.8 52.3Q261.4 51.7 262.3 51.4Q263.1 51.1 264.2 51.1L264.2 51.1Q265.0 51.1 265.8 51.2Q266.5 51.4 267.1 51.8Q267.7 52.2 268.0 52.9Q268.4 53.5 268.4 54.4L268.4 54.4L268.4 61L265.9 61L265.9 59.6L265.8 59.6Q265.6 60.1 265.2 60.4Q264.8 60.8 264.2 61.0Q263.7 61.2 262.9 61.2ZM263.7 59.3L263.7 59.3Q264.3 59.3 264.8 59.1Q265.2 58.8 265.5 58.4Q265.8 58.0 265.8 57.5L265.8 57.5L265.8 56.4Q265.7 56.5 265.4 56.6Q265.2 56.6 264.9 56.7Q264.6 56.8 264.3 56.8Q264.0 56.8 263.8 56.9L263.8 56.9Q263.3 56.9 263.0 57.1Q262.6 57.3 262.4 57.5Q262.2 57.8 262.2 58.2L262.2 58.2Q262.2 58.6 262.4 58.8Q262.6 59.1 262.9 59.2Q263.3 59.3 263.7 59.3ZM273.7 51.2L275.5 51.2L275.5 53.2L273.7 53.2L273.7 58.1Q273.7 58.6 273.9 58.8Q274.1 59.0 274.6 59.0L274.6 59.0Q274.7 59.0 275.0 59.0Q275.3 59.0 275.4 58.9L275.4 58.9L275.8 60.9Q275.4 61.0 274.9 61.1Q274.5 61.1 274.1 61.1L274.1 61.1Q272.6 61.1 271.8 60.4Q271.0 59.7 271.0 58.4L271.0 58.4L271.0 53.2L269.7 53.2L269.7 51.2L271.0 51.2L271.0 48.8L273.7 48.8L273.7 51.2ZM279.1 61.2L279.1 61.2Q278.5 61.2 278.0 60.7Q277.6 60.3 277.6 59.7L277.6 59.7Q277.6 59.0 278.0 58.6Q278.5 58.1 279.1 58.1L279.1 58.1Q279.8 58.1 280.2 58.6Q280.6 59.0 280.6 59.7L280.6 59.7Q280.6 60.3 280.2 60.7Q279.8 61.2 279.1 61.2Z "/></g><mask id="satori_om-id-0-1"><rect x="36" y="70" width="247" height="16" fill="#fff"/></mask><g  ><path fill="#64748b" d="M38.3 83L37.1 83L37.1 73.5L38.3 73.5L38.3 77.6L43.3 77.6L43.3 73.5L44.5 73.5L44.5 83L43.3 83L43.3 78.7L38.3 78.7L38.3 83ZM52.6 83L46.8 83L46.8 73.5L52.6 73.5L52.6 74.6L48.0 74.6L48.0 77.7L52.3 77.7L52.3 78.8L48.0 78.8L48.0 81.9L52.6 81.9L52.6 83ZM57.1 74.6L54.1 74.6L54.1 73.5L61.2 73.5L61.2 74.6L58.3 74.6L58.3 83L57.1 83L57.1 74.6ZM63.0 73.5L64.2 73.5L64.2 83L63.0 83L63.0 73.5ZM70.3 83.1L70.3 83.1Q69.1 83.1 68.2 82.5Q67.2 82.0 66.7 80.9Q66.1 79.8 66.1 78.3L66.1 78.3Q66.1 76.8 66.7 75.7Q67.2 74.6 68.2 74.0Q69.1 73.4 70.3 73.4L70.3 73.4Q71.0 73.4 71.7 73.6Q72.3 73.8 72.8 74.2Q73.3 74.6 73.7 75.2Q74.0 75.8 74.1 76.5L74.1 76.5L72.9 76.5Q72.8 76.0 72.6 75.7Q72.3 75.3 72.0 75.0Q71.6 74.8 71.2 74.7Q70.8 74.5 70.3 74.5L70.3 74.5Q69.5 74.5 68.8 75.0Q68.1 75.4 67.7 76.2Q67.3 77.1 67.3 78.3L67.3 78.3Q67.3 79.5 67.7 80.3Q68.1 81.2 68.8 81.6Q69.5 82.0 70.3 82.0L70.3 82.0Q70.8 82.0 71.2 81.9Q71.6 81.7 72.0 81.5Q72.3 81.2 72.6 80.9Q72.8 80.5 72.9 80.0L72.9 80.0L74.1 80.0Q74.0 80.7 73.7 81.3Q73.3 81.9 72.8 82.3Q72.3 82.7 71.7 82.9Q71.1 83.1 70.3 83.1Z M80.4 79.4L80.4 79.4Q80.0 79.4 79.8 79.1Q79.5 78.9 79.5 78.5L79.5 78.5Q79.5 78.2 79.8 77.9Q80.0 77.6 80.4 77.6L80.4 77.6Q80.7 77.6 81.0 77.9Q81.2 78.2 81.2 78.5L81.2 78.5Q81.2 78.9 81.0 79.1Q80.7 79.4 80.4 79.4Z M88.2 83L87.1 83L87.1 73.5L88.8 73.5L91.1 79.5Q91.2 79.7 91.3 80.0Q91.4 80.3 91.5 80.7Q91.6 81.1 91.7 81.4L91.7 81.4Q91.8 81.6 91.8 81.7L91.8 81.7Q91.8 81.6 91.9 81.5L91.9 81.5Q92.0 81.1 92.1 80.7Q92.2 80.4 92.3 80.0Q92.4 79.7 92.5 79.5L92.5 79.5L94.8 73.5L96.5 73.5L96.5 83L95.3 83L95.3 77.6Q95.3 77.3 95.3 76.9Q95.3 76.6 95.3 76.1Q95.4 75.7 95.4 75.3L95.4 75.3Q95.4 75.1 95.4 74.8L95.4 74.8Q95.3 75.1 95.2 75.4L95.2 75.4Q95.0 75.8 94.9 76.2Q94.8 76.7 94.6 77.0Q94.5 77.4 94.4 77.6L94.4 77.6L92.3 83L91.3 83L89.1 77.6Q89.0 77.4 88.9 77.0Q88.8 76.7 88.6 76.3Q88.5 75.9 88.3 75.4L88.3 75.4Q88.3 75.1 88.2 74.8L88.2 74.8Q88.2 75.0 88.2 75.2L88.2 75.2Q88.2 75.7 88.2 76.1Q88.2 76.5 88.2 76.9Q88.2 77.3 88.2 77.6L88.2 77.6L88.2 83ZM100.6 83.2L100.6 83.2Q100.0 83.2 99.4 82.9Q98.9 82.7 98.5 82.2Q98.2 81.7 98.2 81.0L98.2 81.0Q98.2 80.4 98.5 80.0Q98.7 79.6 99.1 79.4Q99.5 79.2 100.0 79.1Q100.5 79.0 101.0 78.9L101.0 78.9Q101.6 78.8 102.0 78.8Q102.4 78.7 102.6 78.6Q102.8 78.5 102.8 78.2L102.8 78.2L102.8 78.2Q102.8 77.8 102.6 77.5Q102.5 77.1 102.1 77.0Q101.8 76.8 101.3 76.8L101.3 76.8Q100.8 76.8 100.5 77.0Q100.1 77.1 99.9 77.4Q99.6 77.6 99.5 77.9L99.5 77.9L98.4 77.5Q98.7 76.8 99.2 76.5Q99.6 76.1 100.2 76.0Q100.7 75.8 101.3 75.8L101.3 75.8Q101.6 75.8 102.1 75.9Q102.6 76.0 103.0 76.2Q103.4 76.5 103.7 77.0Q104.0 77.5 104.0 78.3L104.0 78.3L104.0 83L102.8 83L102.8 82.0L102.8 82.0Q102.6 82.3 102.4 82.5Q102.1 82.8 101.7 83.0Q101.2 83.2 100.6 83.2ZM100.8 82.2L100.8 82.2Q101.5 82.2 101.9 81.9Q102.4 81.7 102.6 81.3Q102.8 80.9 102.8 80.4L102.8 80.4L102.8 79.5Q102.7 79.5 102.5 79.6Q102.3 79.7 102.0 79.7Q101.7 79.8 101.4 79.8Q101.1 79.8 100.9 79.9L100.9 79.9Q100.5 79.9 100.2 80.0Q99.8 80.2 99.6 80.4Q99.4 80.6 99.4 81.0L99.4 81.0Q99.4 81.4 99.6 81.7Q99.8 81.9 100.1 82.0Q100.4 82.2 100.8 82.2ZM108.4 83.2L108.4 83.2Q107.6 83.2 107.1 82.9Q106.5 82.7 106.1 82.3Q105.8 81.9 105.6 81.3L105.6 81.3L106.7 81.0Q106.9 81.6 107.3 81.9Q107.7 82.1 108.4 82.1L108.4 82.1Q109.1 82.1 109.5 81.8Q110.0 81.5 110.0 81.1L110.0 81.1Q110.0 80.7 109.7 80.5Q109.5 80.2 108.9 80.1L108.9 80.1L107.8 79.8Q106.8 79.6 106.3 79.1Q105.9 78.6 105.9 77.9L105.9 77.9Q105.9 77.3 106.2 76.8Q106.5 76.3 107.1 76.1Q107.7 75.8 108.5 75.8L108.5 75.8Q109.2 75.8 109.7 76.0Q110.2 76.3 110.6 76.6Q110.9 77.0 111.0 77.5L111.0 77.5L110.0 77.8Q109.9 77.4 109.5 77.1Q109.2 76.8 108.5 76.8L108.5 76.8Q107.9 76.8 107.4 77.1Q107.0 77.4 107.0 77.8L107.0 77.8Q107.0 78.2 107.3 78.4Q107.6 78.7 108.2 78.8L108.2 78.8L109.3 79.1Q110.2 79.3 110.7 79.8Q111.2 80.3 111.2 81.0L111.2 81.0Q111.2 81.6 110.8 82.1Q110.5 82.6 109.8 82.9Q109.2 83.2 108.4 83.2ZM114.2 75.9L115.6 75.9L115.6 76.9L114.2 76.9L114.2 81.2Q114.2 81.6 114.3 81.9Q114.5 82.1 115.0 82.1L115.0 82.1Q115.1 82.1 115.3 82.0Q115.4 82.0 115.6 82.0L115.6 82.0L115.8 83.0Q115.6 83.0 115.4 83.1Q115.2 83.1 115.0 83.1L115.0 83.1Q114.0 83.1 113.5 82.6Q113.0 82.1 113.0 81.2L113.0 81.2L113.0 76.9L111.9 76.9L111.9 75.9L113.0 75.9L113.0 74.2L114.2 74.2L114.2 75.9ZM120.1 83.2L120.1 83.2Q119.0 83.2 118.3 82.7Q117.5 82.2 117.1 81.4Q116.7 80.6 116.7 79.5Q116.7 78.4 117.1 77.6Q117.5 76.8 118.2 76.3Q119.0 75.8 119.9 75.8L119.9 75.8Q120.5 75.8 121.0 76.0Q121.6 76.2 122.0 76.6Q122.5 77.0 122.7 77.7Q123.0 78.4 123.0 79.4L123.0 79.4L123.0 79.8L117.9 79.8Q117.9 80.5 118.2 81.0L118.2 81.0Q118.4 81.6 118.9 81.9Q119.4 82.1 120.1 82.1L120.1 82.1Q120.5 82.1 120.8 82.0Q121.2 81.9 121.4 81.7Q121.7 81.4 121.8 81.0L121.8 81.0L122.9 81.3Q122.7 81.9 122.3 82.3Q121.9 82.7 121.4 82.9Q120.8 83.2 120.1 83.2ZM117.9 78.9L117.9 78.9L121.9 78.9Q121.8 78.4 121.6 78.0L121.6 78.0Q121.4 77.4 121.0 77.1Q120.6 76.8 119.9 76.8Q119.3 76.8 118.8 77.1Q118.4 77.5 118.1 78.0L118.1 78.0Q117.9 78.4 117.9 78.9ZM120.4 75.0L119.4 75.0L118.2 73.1L119.5 73.1L120.4 75.0ZM125.8 83L124.7 83L124.7 75.9L125.8 75.9L125.8 77.0L125.8 77.0Q126.0 76.5 126.5 76.1Q127.0 75.8 127.7 75.8L127.7 75.8Q127.8 75.8 128.0 75.8Q128.1 75.8 128.3 75.8L128.3 75.8L128.3 77.0Q128.2 77.0 128.0 76.9Q127.8 76.9 127.6 76.9L127.6 76.9Q127.1 76.9 126.7 77.1Q126.3 77.3 126.0 77.7Q125.8 78.1 125.8 78.6L125.8 78.6L125.8 83ZM132.5 83.2L132.5 83.2Q131.5 83.2 130.8 82.7Q130.0 82.2 129.6 81.4Q129.2 80.6 129.2 79.5Q129.2 78.4 129.6 77.6Q130.0 76.8 130.7 76.3Q131.4 75.8 132.4 75.8L132.4 75.8Q133.0 75.8 133.5 76.0Q134.1 76.2 134.5 76.6Q135.0 77.0 135.2 77.7Q135.5 78.4 135.5 79.4L135.5 79.4L135.5 79.8L130.4 79.8Q130.4 80.5 130.6 81.0L130.6 81.0Q130.9 81.6 131.4 81.9Q131.9 82.1 132.5 82.1L132.5 82.1Q133.0 82.1 133.3 82.0Q133.6 81.9 133.9 81.7Q134.1 81.4 134.3 81.0L134.3 81.0L135.4 81.3Q135.2 81.9 134.8 82.3Q134.4 82.7 133.8 82.9Q133.3 83.2 132.5 83.2ZM130.4 78.9L130.4 78.9L134.3 78.9Q134.3 78.4 134.1 78.0L134.1 78.0Q133.9 77.4 133.5 77.1Q133.0 76.8 132.4 76.8Q131.8 76.8 131.3 77.1Q130.8 77.5 130.6 78.0L130.6 78.0Q130.4 78.4 130.4 78.9Z M144.7 83.1L144.7 83.1Q143.5 83.1 142.6 82.5Q141.6 82.0 141.1 80.9Q140.6 79.8 140.6 78.3L140.6 78.3Q140.6 76.8 141.1 75.7Q141.6 74.6 142.6 74.0Q143.5 73.4 144.7 73.4L144.7 73.4Q145.5 73.4 146.1 73.6Q146.7 73.8 147.2 74.2Q147.8 74.6 148.1 75.2Q148.4 75.8 148.6 76.5L148.6 76.5L147.4 76.5Q147.3 76.0 147.0 75.7Q146.8 75.3 146.4 75.0Q146.1 74.8 145.6 74.7Q145.2 74.5 144.7 74.5L144.7 74.5Q143.9 74.5 143.2 75.0Q142.5 75.4 142.1 76.2Q141.7 77.1 141.7 78.3L141.7 78.3Q141.7 79.5 142.1 80.3Q142.5 81.2 143.2 81.6Q143.9 82.0 144.7 82.0L144.7 82.0Q145.2 82.0 145.6 81.9Q146.1 81.7 146.4 81.5Q146.8 81.2 147.0 80.9Q147.3 80.5 147.4 80.0L147.4 80.0L148.6 80.0Q148.4 80.7 148.1 81.3Q147.8 81.9 147.3 82.3Q146.7 82.7 146.1 82.9Q145.5 83.1 144.7 83.1ZM152.9 74.6L149.9 74.6L149.9 73.5L157.0 73.5L157.0 74.6L154.1 74.6L154.1 83L152.9 83L152.9 74.6ZM162.6 83.1L162.6 83.1Q161.4 83.1 160.5 82.5Q159.5 82.0 159.0 80.9Q158.4 79.8 158.4 78.3L158.4 78.3Q158.4 76.8 159.0 75.7Q159.5 74.6 160.5 74.0Q161.4 73.4 162.6 73.4L162.6 73.4Q163.9 73.4 164.8 74.0Q165.7 74.6 166.3 75.7Q166.8 76.8 166.8 78.3L166.8 78.3Q166.8 79.8 166.3 80.9Q165.7 82.0 164.8 82.5Q163.9 83.1 162.6 83.1ZM162.6 82.0L162.6 82.0Q163.5 82.0 164.2 81.6Q164.9 81.2 165.3 80.3Q165.7 79.5 165.7 78.3L165.7 78.3Q165.7 77.1 165.3 76.2Q164.9 75.4 164.2 75.0Q163.5 74.5 162.6 74.5L162.6 74.5Q161.8 74.5 161.1 75.0Q160.4 75.4 160.0 76.2Q159.6 77.1 159.6 78.3L159.6 78.3Q159.6 79.5 160.0 80.3Q160.4 81.1 161.1 81.6Q161.8 82.0 162.6 82.0Z M174.9 83.1L174.9 83.1Q174.0 83.1 173.3 82.8Q172.7 82.4 172.3 81.8Q171.9 81.3 171.9 80.5L171.9 80.5Q171.9 79.9 172.2 79.5Q172.4 79.0 172.9 78.6L172.9 78.6Q173.3 78.3 173.8 77.9L173.8 77.9Q173.7 77.7 173.6 77.6L173.6 77.6Q173.2 77.1 172.9 76.6Q172.7 76.2 172.7 75.6L172.7 75.6Q172.7 75.0 173.0 74.5Q173.3 74.0 173.8 73.7Q174.3 73.5 175.0 73.5L175.0 73.5Q175.7 73.5 176.2 73.7Q176.7 74.0 177.0 74.5Q177.3 74.9 177.3 75.5L177.3 75.5Q177.3 75.9 177.1 76.3Q177.0 76.7 176.7 77.0Q176.4 77.3 176.0 77.6L176.0 77.6L175.4 78.1L177.4 80.5Q177.5 80.4 177.5 80.2L177.5 80.2Q177.8 79.6 177.8 78.8L177.8 78.8L178.9 78.8Q178.9 79.8 178.7 80.4Q178.4 81.0 178.2 81.3L178.2 81.3Q178.1 81.4 178.1 81.4L178.1 81.4L179.4 83L178.1 83L177.4 82.2Q177.0 82.7 176.3 82.9L176.3 82.9Q175.6 83.1 174.9 83.1ZM176.7 81.4L174.5 78.7L174.2 79.0Q173.6 79.4 173.3 79.8Q173.1 80.1 173.1 80.6L173.1 80.6Q173.1 81.0 173.3 81.4Q173.5 81.7 173.9 81.9Q174.3 82.1 174.9 82.1L174.9 82.1Q175.4 82.1 175.9 81.9L175.9 81.9Q176.4 81.7 176.7 81.4L176.7 81.4ZM174.7 77.2L174.7 77.2L175.3 76.8Q175.5 76.7 175.7 76.5Q175.9 76.3 176.0 76.0Q176.2 75.8 176.2 75.5L176.2 75.5Q176.2 75.0 175.9 74.7Q175.6 74.4 175.0 74.4L175.0 74.4Q174.7 74.4 174.4 74.6Q174.1 74.7 174.0 75.0Q173.8 75.2 173.8 75.6L173.8 75.6Q173.8 75.9 174.0 76.3Q174.2 76.6 174.4 76.9L174.4 76.9Q174.6 77.1 174.7 77.2Z M186.9 74.6L183.9 74.6L183.9 73.5L191.1 73.5L191.1 74.6L188.1 74.6L188.1 83L186.9 83L186.9 74.6ZM195.7 83.2L195.7 83.2Q194.6 83.2 193.9 82.7Q193.1 82.2 192.7 81.4Q192.3 80.6 192.3 79.5Q192.3 78.4 192.7 77.6Q193.1 76.8 193.9 76.3Q194.6 75.8 195.5 75.8L195.5 75.8Q196.1 75.8 196.6 76.0Q197.2 76.2 197.6 76.6Q198.1 77.0 198.4 77.7Q198.6 78.4 198.6 79.4L198.6 79.4L198.6 79.8L193.5 79.8Q193.5 80.5 193.8 81.0L193.8 81.0Q194.0 81.6 194.5 81.9Q195.0 82.1 195.7 82.1L195.7 82.1Q196.1 82.1 196.4 82.0Q196.8 81.9 197.0 81.7Q197.3 81.4 197.4 81.0L197.4 81.0L198.5 81.3Q198.3 81.9 198.0 82.3Q197.6 82.7 197.0 82.9Q196.4 83.2 195.7 83.2ZM193.5 78.9L193.5 78.9L197.5 78.9Q197.4 78.4 197.3 78.0L197.3 78.0Q197.0 77.4 196.6 77.1Q196.2 76.8 195.5 76.8Q194.9 76.8 194.4 77.1Q194.0 77.5 193.7 78.0L193.7 78.0Q193.5 78.4 193.5 78.9ZM203.2 83.2L203.2 83.2Q202.2 83.2 201.5 82.7Q200.7 82.2 200.3 81.4Q199.9 80.6 199.9 79.5L199.9 79.5Q199.9 78.4 200.3 77.6Q200.7 76.7 201.5 76.3Q202.2 75.8 203.2 75.8L203.2 75.8Q203.7 75.8 204.1 75.9Q204.6 76.1 205.0 76.3Q205.3 76.6 205.6 76.9Q205.9 77.3 206.0 77.8L206.0 77.8L204.9 78.1Q204.9 77.8 204.7 77.6Q204.5 77.4 204.3 77.2Q204.1 77.0 203.8 76.9Q203.5 76.8 203.2 76.8L203.2 76.8Q202.4 76.8 202.0 77.2Q201.5 77.6 201.3 78.2Q201.1 78.8 201.1 79.5L201.1 79.5Q201.1 80.2 201.3 80.8Q201.5 81.4 202.0 81.8Q202.4 82.1 203.2 82.1L203.2 82.1Q203.5 82.1 203.8 82.0Q204.1 81.9 204.3 81.8Q204.6 81.6 204.7 81.3Q204.9 81.1 205.0 80.8L205.0 80.8L206.1 81.1Q205.9 81.6 205.6 82.0Q205.4 82.4 205.0 82.6Q204.6 82.9 204.1 83.0Q203.7 83.2 203.2 83.2ZM208.8 78.7L208.8 78.7L208.8 83L207.7 83L207.7 73.5L208.8 73.5L208.8 77.1Q209.1 76.5 209.6 76.2L209.6 76.2Q210.2 75.8 211.0 75.8L211.0 75.8Q211.7 75.8 212.2 76.1Q212.8 76.4 213.1 77.0Q213.4 77.6 213.4 78.5L213.4 78.5L213.4 83L212.2 83L212.2 78.6Q212.2 77.8 211.8 77.3Q211.4 76.8 210.6 76.8L210.6 76.8Q210.1 76.8 209.7 77.1Q209.3 77.3 209.1 77.7Q208.8 78.1 208.8 78.7Z M224.8 83L219.2 83L219.2 73.5L220.4 73.5L220.4 81.9L224.8 81.9L224.8 83ZM229.4 83.2L229.4 83.2Q228.3 83.2 227.6 82.7Q226.8 82.2 226.4 81.4Q226.0 80.6 226.0 79.5Q226.0 78.4 226.4 77.6Q226.8 76.8 227.6 76.3Q228.3 75.8 229.2 75.8L229.2 75.8Q229.8 75.8 230.3 76.0Q230.9 76.2 231.3 76.6Q231.8 77.0 232.1 77.7Q232.3 78.4 232.3 79.4L232.3 79.4L232.3 79.8L227.2 79.8Q227.2 80.5 227.5 81.0L227.5 81.0Q227.7 81.6 228.2 81.9Q228.7 82.1 229.4 82.1L229.4 82.1Q229.8 82.1 230.1 82.0Q230.5 81.9 230.7 81.7Q231.0 81.4 231.1 81.0L231.1 81.0L232.2 81.3Q232.0 81.9 231.7 82.3Q231.3 82.7 230.7 82.9Q230.1 83.2 229.4 83.2ZM227.2 78.9L227.2 78.9L231.2 78.9Q231.1 78.4 231.0 78.0L231.0 78.0Q230.7 77.4 230.3 77.1Q229.9 76.8 229.2 76.8Q228.6 76.8 228.1 77.1Q227.7 77.5 227.4 78.0L227.4 78.0Q227.2 78.4 227.2 78.9ZM236.0 83.2L236.0 83.2Q235.3 83.2 234.7 82.9Q234.2 82.7 233.9 82.2Q233.5 81.7 233.5 81.0L233.5 81.0Q233.5 80.4 233.8 80.0Q234.0 79.6 234.4 79.4Q234.8 79.2 235.3 79.1Q235.8 79.0 236.3 78.9L236.3 78.9Q236.9 78.8 237.3 78.8Q237.7 78.7 237.9 78.6Q238.1 78.5 238.1 78.2L238.1 78.2L238.1 78.2Q238.1 77.8 238.0 77.5Q237.8 77.1 237.5 77.0Q237.1 76.8 236.6 76.8L236.6 76.8Q236.1 76.8 235.8 77.0Q235.4 77.1 235.2 77.4Q234.9 77.6 234.8 77.9L234.8 77.9L233.7 77.5Q234.0 76.8 234.5 76.5Q234.9 76.1 235.5 76.0Q236.1 75.8 236.6 75.8L236.6 75.8Q237.0 75.8 237.4 75.9Q237.9 76.0 238.3 76.2Q238.7 76.5 239.0 77.0Q239.3 77.5 239.3 78.3L239.3 78.3L239.3 83L238.1 83L238.1 82.0L238.1 82.0Q237.9 82.3 237.7 82.5Q237.4 82.8 237.0 83.0Q236.6 83.2 236.0 83.2ZM236.1 82.2L236.1 82.2Q236.8 82.2 237.2 81.9Q237.7 81.7 237.9 81.3Q238.1 80.9 238.1 80.4L238.1 80.4L238.1 79.5Q238.0 79.5 237.8 79.6Q237.6 79.7 237.3 79.7Q237.0 79.8 236.7 79.8Q236.4 79.8 236.2 79.9L236.2 79.9Q235.8 79.9 235.5 80.0Q235.1 80.2 234.9 80.4Q234.7 80.6 234.7 81.0L234.7 81.0Q234.7 81.4 234.9 81.7Q235.1 81.9 235.4 82.0Q235.7 82.2 236.1 82.2ZM243.9 83.2L243.9 83.2Q243.0 83.2 242.4 82.7Q241.7 82.3 241.3 81.4Q240.9 80.6 240.9 79.5L240.9 79.5Q240.9 78.3 241.3 77.5Q241.7 76.7 242.4 76.3Q243.0 75.8 243.9 75.8L243.9 75.8Q244.6 75.8 245.0 76.0Q245.4 76.3 245.7 76.6Q245.9 76.8 246.0 77.0L246.0 77.0L246.1 77.0L246.1 73.5L247.2 73.5L247.2 83L246.1 83L246.1 81.9L246.0 81.9Q245.9 82.1 245.6 82.4Q245.4 82.7 245.0 82.9Q244.6 83.2 243.9 83.2ZM244.1 82.1L244.1 82.1Q244.7 82.1 245.2 81.8Q245.6 81.5 245.9 80.8Q246.1 80.2 246.1 79.5L246.1 79.5Q246.1 78.7 245.9 78.1Q245.6 77.5 245.2 77.2Q244.7 76.8 244.1 76.8L244.1 76.8Q243.4 76.8 243.0 77.2Q242.5 77.5 242.3 78.1Q242.1 78.7 242.1 79.5L242.1 79.5Q242.1 80.2 242.3 80.8Q242.5 81.4 243.0 81.8Q243.4 82.1 244.1 82.1Z "/></g><mask id="satori_om-id-1"><rect x="591" y="48" width="273" height="34" fill="#fff"/></mask><defs><clipPath id="satori_bc-id-1-0"><path x="601" y="48" width="140" height="34" d="M611,48 h120 a10,10 0 0 1 10,10 v14 a10,10 0 0 1 -10,10 h-120 a10,10 0 0 1 -10,-10 v-14 a10,10 0 0 1 10,-10"/></clipPath></defs><mask id="satori_om-id-1-0"><rect x="602" y="49" width="138" height="32" fill="#fff"/><path width="140" height="34" fill="none" stroke="#000" stroke-width="2" d="M603.929,50.929 A10,10 0 0 1 611,48 h120 a10,10 0 0 1 10,10 v14 a10,10 0 0 1 -10,10 h-120 a10,10 0 0 1 -10,-10 v-14 A10,10 0 0 1 603.929,50.929"/></mask><path x="601" y="48" width="140" height="34" fill="#22d3ee14" d="M611,48 h120 a10,10 0 0 1 10,10 v14 a10,10 0 0 1 -10,10 h-120 a10,10 0 0 1 -10,-10 v-14 a10,10 0 0 1 10,-10"/><path width="140" height="34" clip-path="url(#satori_bc-id-1-0)" fill="none" stroke="#22d3ee44" stroke-width="2" d="M603.929,50.929 A10,10 0 0 1 611,48 h120 a10,10 0 0 1 10,10 v14 a10,10 0 0 1 -10,10 h-120 a10,10 0 0 1 -10,-10 v-14 A10,10 0 0 1 603.929,50.929"/><g  ><path fill="#a5f3fc" d="M620.1 70L619.0 70L619.0 62.9L620.1 62.9L620.1 70ZM619.6 61.7L619.6 61.7Q619.3 61.7 619.0 61.5Q618.8 61.3 618.8 61.0L618.8 61.0Q618.8 60.7 619.0 60.4Q619.3 60.2 619.6 60.2L619.6 60.2Q619.9 60.2 620.1 60.4Q620.4 60.7 620.4 61.0L620.4 61.0Q620.4 61.3 620.1 61.5Q619.9 61.7 619.6 61.7ZM623.3 65.7L623.3 65.7L623.3 70L622.2 70L622.2 62.9L623.2 62.9L623.3 64.2Q623.6 63.6 624.0 63.2L624.0 63.2Q624.6 62.8 625.4 62.8L625.4 62.8Q626.1 62.8 626.7 63.1Q627.2 63.4 627.5 64.0Q627.8 64.6 627.8 65.5L627.8 65.5L627.8 70L626.7 70L626.7 65.6Q626.7 64.8 626.3 64.3Q625.8 63.8 625.1 63.8L625.1 63.8Q624.6 63.8 624.2 64.1Q623.8 64.3 623.5 64.7Q623.3 65.1 623.3 65.7ZM632.2 60.1L633.2 60.1L630.2 71.4L629.1 71.4L632.2 60.1ZM635.9 70L634.7 70L634.7 60.5L635.9 60.5L635.9 64.6L640.8 64.6L640.8 60.5L642.0 60.5L642.0 70L640.8 70L640.8 65.7L635.9 65.7L635.9 70ZM646.2 70.2L646.2 70.2Q645.5 70.2 644.9 69.9Q644.4 69.7 644.1 69.2Q643.7 68.7 643.7 68.0L643.7 68.0Q643.7 67.4 644.0 67.0Q644.2 66.6 644.6 66.4Q645.0 66.2 645.5 66.1Q646.0 66.0 646.5 65.9L646.5 65.9Q647.1 65.8 647.5 65.8Q647.9 65.7 648.1 65.6Q648.3 65.5 648.3 65.2L648.3 65.2L648.3 65.2Q648.3 64.8 648.2 64.5Q648.0 64.1 647.7 64.0Q647.3 63.8 646.8 63.8L646.8 63.8Q646.3 63.8 646.0 64.0Q645.6 64.1 645.4 64.4Q645.2 64.6 645.0 64.9L645.0 64.9L643.9 64.5Q644.2 63.8 644.7 63.5Q645.1 63.1 645.7 63.0Q646.3 62.8 646.8 62.8L646.8 62.8Q647.2 62.8 647.6 62.9Q648.1 63.0 648.5 63.2Q648.9 63.5 649.2 64.0Q649.5 64.5 649.5 65.3L649.5 65.3L649.5 70L648.3 70L648.3 69.0L648.3 69.0Q648.2 69.3 647.9 69.5Q647.6 69.8 647.2 70.0Q646.8 70.2 646.2 70.2ZM646.4 69.2L646.4 69.2Q647.0 69.2 647.4 68.9Q647.9 68.7 648.1 68.3Q648.3 67.9 648.3 67.4L648.3 67.4L648.3 66.5Q648.3 66.5 648.0 66.6Q647.8 66.7 647.5 66.7Q647.2 66.8 646.9 66.8Q646.6 66.8 646.5 66.9L646.5 66.9Q646.0 66.9 645.7 67.0Q645.3 67.2 645.1 67.4Q644.9 67.6 644.9 68.0L644.9 68.0Q644.9 68.4 645.1 68.7Q645.3 68.9 645.6 69.0Q645.9 69.2 646.4 69.2ZM653.9 70.2L653.9 70.2Q653.2 70.2 652.6 69.9Q652.0 69.7 651.7 69.3Q651.3 68.9 651.2 68.3L651.2 68.3L652.2 68.0Q652.4 68.6 652.8 68.9Q653.2 69.1 653.9 69.1L653.9 69.1Q654.6 69.1 655.1 68.8Q655.5 68.5 655.5 68.1L655.5 68.1Q655.5 67.7 655.2 67.5Q655.0 67.2 654.5 67.1L654.5 67.1L653.3 66.8Q652.3 66.6 651.8 66.1Q651.4 65.6 651.4 64.9L651.4 64.9Q651.4 64.3 651.7 63.8Q652.1 63.3 652.7 63.1Q653.2 62.8 654.0 62.8L654.0 62.8Q654.7 62.8 655.2 63.0Q655.8 63.3 656.1 63.6Q656.4 64.0 656.6 64.5L656.6 64.5L655.5 64.8Q655.4 64.4 655.0 64.1Q654.7 63.8 654.0 63.8L654.0 63.8Q653.4 63.8 653.0 64.1Q652.5 64.4 652.5 64.8L652.5 64.8Q652.5 65.2 652.8 65.4Q653.1 65.7 653.7 65.8L653.7 65.8L654.8 66.1Q655.8 66.3 656.2 66.8Q656.7 67.3 656.7 68.0L656.7 68.0Q656.7 68.6 656.3 69.1Q656.0 69.6 655.4 69.9Q654.7 70.2 653.9 70.2ZM660.8 70.2L660.8 70.2Q660.0 70.2 659.5 69.9Q658.9 69.7 658.5 69.3Q658.1 68.9 658.0 68.3L658.0 68.3L659.1 68.0Q659.3 68.6 659.7 68.9Q660.1 69.1 660.7 69.1L660.7 69.1Q661.5 69.1 661.9 68.8Q662.4 68.5 662.4 68.1L662.4 68.1Q662.4 67.7 662.1 67.5Q661.8 67.2 661.3 67.1L661.3 67.1L660.1 66.8Q659.2 66.6 658.7 66.1Q658.2 65.6 658.2 64.9L658.2 64.9Q658.2 64.3 658.6 63.8Q658.9 63.3 659.5 63.1Q660.1 62.8 660.9 62.8L660.9 62.8Q661.6 62.8 662.1 63.0Q662.6 63.3 662.9 63.6Q663.3 64.0 663.4 64.5L663.4 64.5L662.4 64.8Q662.2 64.4 661.9 64.1Q661.6 63.8 660.9 63.8L660.9 63.8Q660.2 63.8 659.8 64.1Q659.4 64.4 659.4 64.8L659.4 64.8Q659.4 65.2 659.7 65.4Q660.0 65.7 660.6 65.8L660.6 65.8L661.7 66.1Q662.6 66.3 663.1 66.8Q663.6 67.3 663.6 68.0L663.6 68.0Q663.6 68.6 663.2 69.1Q662.8 69.6 662.2 69.9Q661.6 70.2 660.8 70.2ZM667.2 70.2L667.2 70.2Q666.5 70.2 666.0 69.9Q665.4 69.7 665.1 69.2Q664.8 68.7 664.8 68.0L664.8 68.0Q664.8 67.4 665.0 67.0Q665.3 66.6 665.7 66.4Q666.1 66.2 666.5 66.1Q667.0 66.0 667.5 65.9L667.5 65.9Q668.2 65.8 668.6 65.8Q669.0 65.7 669.2 65.6Q669.4 65.5 669.4 65.2L669.4 65.2L669.4 65.2Q669.4 64.8 669.2 64.5Q669.0 64.1 668.7 64.0Q668.4 63.8 667.9 63.8L667.9 63.8Q667.4 63.8 667.0 64.0Q666.6 64.1 666.4 64.4Q666.2 64.6 666.1 64.9L666.1 64.9L665.0 64.5Q665.2 63.8 665.7 63.5Q666.2 63.1 666.7 63.0Q667.3 62.8 667.8 62.8L667.8 62.8Q668.2 62.8 668.6 62.9Q669.1 63.0 669.5 63.2Q669.9 63.5 670.2 64.0Q670.5 64.5 670.5 65.3L670.5 65.3L670.5 70L669.4 70L669.4 69.0L669.3 69.0Q669.2 69.3 668.9 69.5Q668.6 69.8 668.2 70.0Q667.8 70.2 667.2 70.2ZM667.4 69.2L667.4 69.2Q668.0 69.2 668.5 68.9Q668.9 68.7 669.1 68.3Q669.4 67.9 669.4 67.4L669.4 67.4L669.4 66.5Q669.3 66.5 669.0 66.6Q668.8 66.7 668.5 66.7Q668.2 66.8 667.9 66.8Q667.6 66.8 667.5 66.9L667.5 66.9Q667.1 66.9 666.7 67.0Q666.4 67.2 666.1 67.4Q665.9 67.6 665.9 68.0L665.9 68.0Q665.9 68.4 666.1 68.7Q666.3 68.9 666.6 69.0Q667.0 69.2 667.4 69.2ZM673.6 65.7L673.6 65.7L673.6 70L672.5 70L672.5 62.9L673.6 62.9L673.6 64.2Q673.9 63.6 674.4 63.2L674.4 63.2Q675.0 62.8 675.8 62.8L675.8 62.8Q676.5 62.8 677.0 63.1Q677.6 63.4 677.9 64.0Q678.2 64.6 678.2 65.5L678.2 65.5L678.2 70L677.0 70L677.0 65.6Q677.0 64.8 676.6 64.3Q676.2 63.8 675.4 63.8L675.4 63.8Q674.9 63.8 674.5 64.1Q674.1 64.3 673.9 64.7Q673.6 65.1 673.6 65.7ZM680.1 65.4L684.2 65.4L684.2 66.5L680.1 66.5L680.1 65.4ZM686.8 70L685.5 70L688.9 60.5L690.3 60.5L693.8 70L692.5 70L691.6 67.4L687.7 67.4L686.8 70ZM688.1 66.3L691.2 66.3L690.5 64.4Q690.3 63.9 690.1 63.1L690.1 63.1Q689.9 62.4 689.6 61.5L689.6 61.5Q689.3 62.5 689.1 63.1L689.1 63.1Q688.9 63.9 688.7 64.4L688.7 64.4L688.1 66.3ZM696.3 70L695.1 70L695.1 62.9L696.3 62.9L696.3 70ZM695.7 61.7L695.7 61.7Q695.4 61.7 695.1 61.5Q694.9 61.3 694.9 61.0L694.9 61.0Q694.9 60.7 695.1 60.4Q695.4 60.2 695.7 60.2L695.7 60.2Q696.0 60.2 696.3 60.4Q696.5 60.7 696.5 61.0L696.5 61.0Q696.5 61.3 696.3 61.5Q696.0 61.7 695.7 61.7ZM700.9 70.2L700.9 70.2Q700.1 70.2 699.4 69.7Q698.7 69.3 698.3 68.4Q697.9 67.6 697.9 66.5L697.9 66.5Q697.9 65.3 698.3 64.5Q698.7 63.7 699.4 63.3Q700.1 62.8 700.9 62.8L700.9 62.8Q701.6 62.8 702.0 63.0Q702.4 63.3 702.7 63.6Q702.9 63.8 703.0 64.0L703.0 64.0L703.1 64.0L703.1 60.5L704.2 60.5L704.2 70L703.1 70L703.1 68.9L703.0 68.9Q702.9 69.1 702.7 69.4Q702.4 69.7 702.0 69.9Q701.6 70.2 700.9 70.2ZM701.1 69.1L701.1 69.1Q701.8 69.1 702.2 68.8Q702.6 68.5 702.9 67.8Q703.1 67.2 703.1 66.5L703.1 66.5Q703.1 65.7 702.9 65.1Q702.7 64.5 702.2 64.2Q701.8 63.8 701.1 63.8L701.1 63.8Q700.4 63.8 700.0 64.2Q699.5 64.5 699.3 65.1Q699.1 65.7 699.1 66.5L699.1 66.5Q699.1 67.2 699.3 67.8Q699.5 68.4 700.0 68.8Q700.4 69.1 701.1 69.1ZM707.4 70L706.2 70L706.2 62.9L707.4 62.9L707.4 70ZM706.8 61.7L706.8 61.7Q706.5 61.7 706.3 61.5Q706.0 61.3 706.0 61.0L706.0 61.0Q706.0 60.7 706.3 60.4Q706.5 60.2 706.8 60.2L706.8 60.2Q707.1 60.2 707.4 60.4Q707.6 60.7 707.6 61.0L707.6 61.0Q707.6 61.3 707.4 61.5Q707.1 61.7 706.8 61.7ZM712.7 70.2L712.7 70.2Q712.0 70.2 711.6 69.9Q711.2 69.7 711.0 69.4Q710.7 69.1 710.6 68.9L710.6 68.9L710.5 68.9L710.5 70L709.4 70L709.4 60.5L710.5 60.5L710.5 64.0L710.6 64.0Q710.7 63.8 711.0 63.6Q711.2 63.3 711.6 63.0Q712.0 62.8 712.7 62.8L712.7 62.8Q713.6 62.8 714.2 63.3Q714.9 63.7 715.3 64.5Q715.7 65.3 715.7 66.5L715.7 66.5Q715.7 67.6 715.3 68.4Q714.9 69.3 714.2 69.7Q713.6 70.2 712.7 70.2ZM712.5 69.1L712.5 69.1Q713.2 69.1 713.6 68.8Q714.1 68.4 714.3 67.8Q714.5 67.2 714.5 66.5L714.5 66.5Q714.5 65.7 714.3 65.1Q714.1 64.5 713.6 64.2Q713.2 63.8 712.5 63.8L712.5 63.8Q711.9 63.8 711.4 64.2Q711.0 64.5 710.7 65.1Q710.5 65.7 710.5 66.5L710.5 66.5Q710.5 67.2 710.7 67.8Q711.0 68.5 711.4 68.8Q711.9 69.1 712.5 69.1ZM720.3 70.2L720.3 70.2Q719.3 70.2 718.6 69.7Q717.8 69.2 717.4 68.4Q717.0 67.6 717.0 66.5Q717.0 65.4 717.4 64.6Q717.8 63.8 718.5 63.3Q719.2 62.8 720.2 62.8L720.2 62.8Q720.8 62.8 721.3 63.0Q721.9 63.2 722.3 63.6Q722.8 64.0 723.0 64.7Q723.3 65.4 723.3 66.4L723.3 66.4L723.3 66.8L718.2 66.8Q718.2 67.5 718.4 68.0L718.4 68.0Q718.7 68.6 719.2 68.9Q719.7 69.1 720.3 69.1L720.3 69.1Q720.8 69.1 721.1 69.0Q721.4 68.9 721.7 68.7Q721.9 68.4 722.1 68.0L722.1 68.0L723.2 68.3Q723.0 68.9 722.6 69.3Q722.2 69.7 721.6 69.9Q721.1 70.2 720.3 70.2ZM718.2 65.9L718.2 65.9L722.1 65.9Q722.1 65.4 721.9 65.0L721.9 65.0Q721.7 64.4 721.3 64.1Q720.8 63.8 720.2 63.8Q719.6 63.8 719.1 64.1Q718.6 64.5 718.4 65.0L718.4 65.0Q718.2 65.4 718.2 65.9Z "/></g><defs><clipPath id="satori_bc-id-1-1"><path x="751" y="48" width="113" height="34" d="M761,48 h93 a10,10 0 0 1 10,10 v14 a10,10 0 0 1 -10,10 h-93 a10,10 0 0 1 -10,-10 v-14 a10,10 0 0 1 10,-10"/></clipPath></defs><mask id="satori_om-id-1-1"><rect x="752" y="49" width="111" height="32" fill="#fff"/><path width="113" height="34" fill="none" stroke="#000" stroke-width="2" d="M753.929,50.929 A10,10 0 0 1 761,48 h93 a10,10 0 0 1 10,10 v14 a10,10 0 0 1 -10,10 h-93 a10,10 0 0 1 -10,-10 v-14 A10,10 0 0 1 753.929,50.929"/></mask><path x="751" y="48" width="113" height="34" fill="#f472b614" d="M761,48 h93 a10,10 0 0 1 10,10 v14 a10,10 0 0 1 -10,10 h-93 a10,10 0 0 1 -10,-10 v-14 a10,10 0 0 1 10,-10"/><path width="113" height="34" clip-path="url(#satori_bc-id-1-1)" fill="none" stroke="#f472b644" stroke-width="2" d="M753.929,50.929 A10,10 0 0 1 761,48 h93 a10,10 0 0 1 10,10 v14 a10,10 0 0 1 -10,10 h-93 a10,10 0 0 1 -10,-10 v-14 A10,10 0 0 1 753.929,50.929"/><g  ><path fill="#fbcfe8" d="M774.6 72.5L774.6 72.5Q773.2 72.5 772.1 72.1Q771.0 71.7 770.3 71.0Q769.5 70.2 769.2 69.2Q768.8 68.1 768.8 66.7L768.8 66.7Q768.8 65.3 769.2 64.2Q769.5 63.2 770.3 62.4Q771.0 61.7 772.1 61.3Q773.1 60.9 774.5 60.9L774.5 60.9Q775.8 60.9 776.8 61.3Q777.8 61.7 778.4 62.4Q779.1 63.2 779.4 64.1Q779.8 65.0 779.8 65.9L779.8 65.9Q779.8 66.6 779.7 67.3Q779.6 68.0 779.4 68.5Q779.2 69.1 778.8 69.5Q778.3 69.8 777.6 69.8L777.6 69.8Q777.3 69.8 776.9 69.7Q776.5 69.6 776.2 69.4Q775.9 69.1 775.8 68.7L775.8 68.7L775.8 68.7Q775.6 69.1 775.2 69.5Q774.8 69.8 774.1 69.8L774.1 69.8Q773.2 69.8 772.6 69.3Q772.1 68.9 771.8 68.2Q771.5 67.5 771.5 66.6L771.5 66.6Q771.5 65.8 771.8 65.1Q772.2 64.4 772.8 64.0Q773.4 63.6 774.1 63.6L774.1 63.6Q774.7 63.6 775.1 63.8Q775.6 64.1 775.7 64.3L775.7 64.3L775.8 64.3L775.8 63.8L776.8 63.8L776.8 68.0Q776.8 68.3 777.0 68.6Q777.2 68.9 777.6 68.9L777.6 68.9Q778.1 68.9 778.3 68.6Q778.6 68.3 778.7 67.6Q778.8 67.0 778.8 65.9L778.8 65.9Q778.8 65.1 778.5 64.4Q778.2 63.7 777.7 63.1Q777.2 62.5 776.4 62.1Q775.6 61.8 774.5 61.8L774.5 61.8Q773.4 61.8 772.5 62.1Q771.6 62.5 771.1 63.1Q770.5 63.7 770.1 64.6Q769.8 65.5 769.8 66.7L769.8 66.7Q769.8 67.9 770.1 68.8Q770.5 69.7 771.1 70.3Q771.7 70.9 772.6 71.3Q773.5 71.6 774.7 71.6L774.7 71.6Q775.2 71.6 775.7 71.5Q776.2 71.4 776.5 71.3Q776.9 71.2 777.1 71.1L777.1 71.1L777.4 72.0Q777.1 72.1 776.6 72.2Q776.2 72.3 775.6 72.4Q775.1 72.5 774.6 72.5ZM774.1 68.8L774.1 68.8Q774.7 68.8 775.1 68.5Q775.5 68.3 775.7 67.8Q775.8 67.3 775.8 66.6L775.8 66.6Q775.8 65.8 775.6 65.4Q775.4 64.9 775.1 64.8Q774.7 64.6 774.1 64.6L774.1 64.6Q773.6 64.6 773.2 64.9Q772.9 65.1 772.7 65.6Q772.5 66.0 772.5 66.6L772.5 66.6Q772.5 67.1 772.6 67.7Q772.8 68.2 773.2 68.5Q773.5 68.8 774.1 68.8ZM782.9 70L781.7 70L781.7 60.5L782.9 60.5L782.9 64.6L787.9 64.6L787.9 60.5L789.1 60.5L789.1 70L787.9 70L787.9 65.7L782.9 65.7L782.9 70ZM793.2 70.2L793.2 70.2Q792.5 70.2 792.0 69.9Q791.4 69.7 791.1 69.2Q790.8 68.7 790.8 68.0L790.8 68.0Q790.8 67.4 791.0 67.0Q791.3 66.6 791.7 66.4Q792.1 66.2 792.6 66.1Q793.1 66.0 793.5 65.9L793.5 65.9Q794.2 65.8 794.6 65.8Q795.0 65.7 795.2 65.6Q795.4 65.5 795.4 65.2L795.4 65.2L795.4 65.2Q795.4 64.8 795.2 64.5Q795.0 64.1 794.7 64.0Q794.4 63.8 793.9 63.8L793.9 63.8Q793.4 63.8 793.0 64.0Q792.7 64.1 792.4 64.4Q792.2 64.6 792.1 64.9L792.1 64.9L791.0 64.5Q791.3 63.8 791.7 63.5Q792.2 63.1 792.7 63.0Q793.3 62.8 793.9 62.8L793.9 62.8Q794.2 62.8 794.7 62.9Q795.1 63.0 795.5 63.2Q796.0 63.5 796.2 64.0Q796.5 64.5 796.5 65.3L796.5 65.3L796.5 70L795.4 70L795.4 69.0L795.3 69.0Q795.2 69.3 794.9 69.5Q794.7 69.8 794.2 70.0Q793.8 70.2 793.2 70.2ZM793.4 69.2L793.4 69.2Q794.0 69.2 794.5 68.9Q794.9 68.7 795.1 68.3Q795.4 67.9 795.4 67.4L795.4 67.4L795.4 66.5Q795.3 66.5 795.1 66.6Q794.8 66.7 794.5 66.7Q794.2 66.8 793.9 66.8Q793.7 66.8 793.5 66.9L793.5 66.9Q793.1 66.9 792.7 67.0Q792.4 67.2 792.2 67.4Q791.9 67.6 791.9 68.0L791.9 68.0Q791.9 68.4 792.1 68.7Q792.3 68.9 792.6 69.0Q793.0 69.2 793.4 69.2ZM800.9 70.2L800.9 70.2Q800.2 70.2 799.6 69.9Q799.1 69.7 798.7 69.3Q798.3 68.9 798.2 68.3L798.2 68.3L799.3 68.0Q799.4 68.6 799.9 68.9Q800.3 69.1 800.9 69.1L800.9 69.1Q801.7 69.1 802.1 68.8Q802.5 68.5 802.5 68.1L802.5 68.1Q802.5 67.7 802.3 67.5Q802.0 67.2 801.5 67.1L801.5 67.1L800.3 66.8Q799.4 66.6 798.9 66.1Q798.4 65.6 798.4 64.9L798.4 64.9Q798.4 64.3 798.8 63.8Q799.1 63.3 799.7 63.1Q800.3 62.8 801.0 62.8L801.0 62.8Q801.8 62.8 802.3 63.0Q802.8 63.3 803.1 63.6Q803.4 64.0 803.6 64.5L803.6 64.5L802.6 64.8Q802.4 64.4 802.1 64.1Q801.7 63.8 801.1 63.8L801.1 63.8Q800.4 63.8 800.0 64.1Q799.6 64.4 799.6 64.8L799.6 64.8Q799.6 65.2 799.9 65.4Q800.1 65.7 800.8 65.8L800.8 65.8L801.8 66.1Q802.8 66.3 803.3 66.8Q803.7 67.3 803.7 68.0L803.7 68.0Q803.7 68.6 803.4 69.1Q803.0 69.6 802.4 69.9Q801.8 70.2 800.9 70.2ZM808.3 70.2L808.3 70.2Q807.3 70.2 806.6 69.7Q805.9 69.2 805.4 68.4Q805.0 67.6 805.0 66.5L805.0 66.5Q805.0 65.4 805.4 64.6Q805.9 63.7 806.6 63.3Q807.3 62.8 808.3 62.8L808.3 62.8Q808.8 62.8 809.2 62.9Q809.7 63.1 810.1 63.3Q810.5 63.6 810.7 63.9Q811.0 64.3 811.1 64.8L811.1 64.8L810.0 65.1Q810.0 64.8 809.8 64.6Q809.7 64.4 809.4 64.2Q809.2 64.0 808.9 63.9Q808.6 63.8 808.3 63.8L808.3 63.8Q807.6 63.8 807.1 64.2Q806.6 64.6 806.4 65.2Q806.2 65.8 806.2 66.5L806.2 66.5Q806.2 67.2 806.4 67.8Q806.6 68.4 807.1 68.8Q807.6 69.1 808.3 69.1L808.3 69.1Q808.6 69.1 808.9 69.0Q809.2 68.9 809.5 68.8Q809.7 68.6 809.8 68.3Q810.0 68.1 810.1 67.8L810.1 67.8L811.2 68.1Q811.0 68.6 810.8 69.0Q810.5 69.4 810.1 69.6Q809.7 69.9 809.3 70.0Q808.8 70.2 808.3 70.2ZM815.7 70.2L815.7 70.2Q814.7 70.2 814.0 69.7Q813.3 69.2 812.9 68.4Q812.5 67.6 812.5 66.5L812.5 66.5Q812.5 65.4 812.9 64.6Q813.3 63.7 814.0 63.3Q814.7 62.8 815.7 62.8L815.7 62.8Q816.7 62.8 817.4 63.3Q818.1 63.7 818.5 64.6Q818.9 65.4 818.9 66.5L818.9 66.5Q818.9 67.6 818.5 68.4Q818.1 69.2 817.4 69.7Q816.7 70.2 815.7 70.2ZM815.7 69.1L815.7 69.1Q816.4 69.1 816.9 68.8Q817.3 68.4 817.6 67.8Q817.8 67.2 817.8 66.5L817.8 66.5Q817.8 65.8 817.6 65.2Q817.3 64.6 816.9 64.2Q816.4 63.8 815.7 63.8L815.7 63.8Q815.0 63.8 814.5 64.2Q814.1 64.6 813.8 65.2Q813.6 65.8 813.6 66.5L813.6 66.5Q813.6 67.2 813.8 67.8Q814.1 68.4 814.5 68.8Q815.0 69.1 815.7 69.1ZM824.8 70L823.4 70L819.9 60.5L821.2 60.5L823.2 66.2Q823.4 66.6 823.6 67.4L823.6 67.4Q823.8 68.1 824.1 69.0L824.1 69.0Q824.4 68.1 824.6 67.4L824.6 67.4Q824.8 66.6 825.0 66.2L825.0 66.2L827.0 60.5L828.2 60.5L824.8 70ZM830.7 70L829.6 70L829.6 62.9L830.7 62.9L830.7 70ZM830.1 61.7L830.1 61.7Q829.8 61.7 829.6 61.5Q829.4 61.3 829.4 61.0L829.4 61.0Q829.4 60.7 829.6 60.4Q829.8 60.2 830.1 60.2L830.1 60.2Q830.5 60.2 830.7 60.4Q830.9 60.7 830.9 61.0L830.9 61.0Q830.9 61.3 830.7 61.5Q830.5 61.7 830.1 61.7ZM835.6 70.2L835.6 70.2Q834.6 70.2 833.9 69.7Q833.2 69.2 832.8 68.4Q832.4 67.6 832.4 66.5L832.4 66.5Q832.4 65.4 832.8 64.6Q833.2 63.7 833.9 63.3Q834.6 62.8 835.6 62.8L835.6 62.8Q836.1 62.8 836.6 62.9Q837.0 63.1 837.4 63.3Q837.8 63.6 838.1 63.9Q838.3 64.3 838.5 64.8L838.5 64.8L837.4 65.1Q837.3 64.8 837.2 64.6Q837.0 64.4 836.8 64.2Q836.5 64.0 836.3 63.9Q836.0 63.8 835.6 63.8L835.6 63.8Q834.9 63.8 834.4 64.2Q834.0 64.6 833.8 65.2Q833.5 65.8 833.5 66.5L833.5 66.5Q833.5 67.2 833.8 67.8Q834.0 68.4 834.4 68.8Q834.9 69.1 835.6 69.1L835.6 69.1Q836.0 69.1 836.3 69.0Q836.6 68.9 836.8 68.8Q837.0 68.6 837.2 68.3Q837.3 68.1 837.4 67.8L837.4 67.8L838.5 68.1Q838.4 68.6 838.1 69.0Q837.8 69.4 837.4 69.6Q837.1 69.9 836.6 70.0Q836.1 70.2 835.6 70.2ZM843.1 70.2L843.1 70.2Q842.1 70.2 841.4 69.7Q840.6 69.2 840.2 68.4Q839.8 67.6 839.8 66.5Q839.8 65.4 840.2 64.6Q840.6 63.8 841.3 63.3Q842.0 62.8 843.0 62.8L843.0 62.8Q843.6 62.8 844.1 63.0Q844.7 63.2 845.1 63.6Q845.6 64.0 845.8 64.7Q846.1 65.4 846.1 66.4L846.1 66.4L846.1 66.8L841.0 66.8Q841.0 67.5 841.2 68.0L841.2 68.0Q841.5 68.6 842.0 68.9Q842.5 69.1 843.1 69.1L843.1 69.1Q843.6 69.1 843.9 69.0Q844.2 68.9 844.5 68.7Q844.7 68.4 844.9 68.0L844.9 68.0L846.0 68.3Q845.8 68.9 845.4 69.3Q845.0 69.7 844.4 69.9Q843.9 70.2 843.1 70.2ZM841.0 65.9L841.0 65.9L844.9 65.9Q844.9 65.4 844.7 65.0L844.7 65.0Q844.5 64.4 844.1 64.1Q843.6 63.8 843.0 63.8Q842.4 63.8 841.9 64.1Q841.4 64.5 841.2 65.0L841.2 65.0Q841.0 65.4 841.0 65.9Z "/></g></svg>