<!-- Generated by readme-aura https://github.com/collectioneur/readme-aura -->
<svg width="900" height="300" viewBox="0 0 900 300" xmlns="http://www.w3.org/2000/svg"><clipPath id="satori_cp-id"><path x="0" y="0" width="900" height="300" d="M16,0 h868 a16,16 0 0 1 16,16 v268 a16,16 0 0 1 -16,16 h-868 a16,16 0 0 1 -16,-16 v-268 a16,16 0 0 1 16,-16"/></clipPath><mask id="satori_om-id"><rect x="0" y="0" width="900" height="300" fill="#fff"/></mask><path x="0" y="0" width="900" height="300" fill="#04050a" d="M16,0 h868 a16,16 0 0 1 16,16 v268 a16,16 0 0 1 -16,16 h-868 a16,16 0 0 1 -16,-16 v-268 a16,16 0 0 1 16,-16"/><clipPath id="satori_cp-id-0" clip-path="url(#satori_cp-id)"><rect x="0" y="0" width="900" height="300"/></clipPath><mask id="satori_om-id-0"><rect x="0" y="0" width="900" height="300" fill="#fff" mask="url(#satori_om-id)"/></mask><svg x="0" y="0" width="900" height="300" preserveAspectRatio="none" clip-path="url(#satori_cp-id-0)" mask="url(#satori_om-id-0)"><defs><radialGradient id="g1" cx="26%" cy="32%" r="60%"><stop offset="0%" stop-color="#7c3aed" stop-opacity="0.95"></stop><stop offset="100%" stop-color="#04050a" stop-opacity="0"></stop></radialGradient><radialGradient id="g2" cx="76%" cy="70%" r="55%"><stop offset="0%" stop-color="#06b6d4" stop-opacity="0.9"></stop><stop offset="100%" stop-color="#04050a" stop-opacity="0"></stop></radialGradient><radialGradient id="g3" cx="55%" cy="48%" r="45%"><stop offset="0%" stop-color="#f472b6" stop-opacity="0.45"></stop><stop offset="100%" stop-color="#04050a" stop-opacity="0"></stop></radialGradient></defs><rect x="0" y="0" width="900" height="300" fill="#04050a"></rect><ellipse cx="240" cy="90" rx="340" ry="200" fill="url(#g1)"><animate attributeName="opacity" values="0.5;0.95;0.5" dur="5s" repeatCount="indefinite"></animate><animateTransform attributeName="transform" type="translate" values="-60 0;60 0;-60 0" dur="11s" repeatCount="indefinite"></animateTransform></ellipse><ellipse cx="670" cy="190" rx="320" ry="190" fill="url(#g2)"><animate attributeName="opacity" values="0.95;0.5;0.95" dur="7s" repeatCount="indefinite"></animate><animateTransform attributeName="transform" type="translate" values="60 0;-60 0;60 0" dur="14s" repeatCount="indefinite"></animateTransform></ellipse><ellipse cx="450" cy="140" rx="260" ry="160" fill="url(#g3)"><animate attributeName="opacity" values="0.3;0.7;0.3" dur="6s" repeatCount="indefinite"></animate></ellipse><circle cx="150" cy="60" r="2" fill="#22d3ee"><animate attributeName="opacity" values="0.2;1;0.2" dur="3s" repeatCount="indefinite"></animate><animate attributeName="r" values="1.5;3;1.5" dur="3s" repeatCount="indefinite"></animate></circle><circle cx="780" cy="80" r="2" fill="#a78bfa"><animate attributeName="opacity" values="1;0.2;1" dur="4s" repeatCount="indefinite"></animate></circle><circle cx="820" cy="230" r="2" fill="#f472b6"><animate attributeName="opacity" values="0.3;1;0.3" dur="3.5s" repeatCount="indefinite"></animate><animate attributeName="r" values="1.5;3;1.5" dur="3.5s" repeatCount="indefinite"></animate></circle><circle cx="120" cy="250" r="2" fill="#34d399"><animate attributeName="opacity" values="1;0.3;1" dur="4.5s" repeatCount="indefinite"></animate></circle><circle cx="700" cy="250" r="1.5" fill="#67e8f9"><animate attributeName="opacity" values="0.2;0.9;0.2" dur="5s" repeatCount="indefinite"></animate></circle><circle cx="200" cy="140" r="1.5" fill="#c4b5fd"><animate attributeName="opacity" values="0.9;0.2;0.9" dur="4.2s" repeatCount="indefinite"></animate></circle></svg><mask id="satori_om-id-0-0"><rect x="0" y="0" width="0" height="300" fill="#fff" mask="url(#satori_om-id)"/></mask><mask id="satori_om-id-0-0-0"><rect x="0" y="0" width="0" height="300" fill="#fff" mask="url(#satori_om-id)"/></mask><mask id="satori_om-id-0-0-0-0"><rect x="0" y="0" width="0" height="300" fill="#fff" mask="url(#satori_om-id)"/></mask><mask id="satori_om-id-0-0-0-1"><rect x="0" y="0" width="0" height="300" fill="#fff" mask="url(#satori_om-id)"/></mask><mask id="satori_om-id-0-0-1"><rect x="0" y="0" width="0" height="300" fill="#fff" mask="url(#satori_om-id)"/></mask><mask id="satori_om-id-0-0-1-0"><rect x="0" y="0" width="0" height="300" fill="#fff" mask="url(#satori_om-id)"/></mask><mask id="satori_om-id-0-0-1-1"><rect x="0" y="0" width="0" height="300" fill="#fff" mask="url(#satori_om-id)"/></mask><mask id="satori_om-id-0-0-2"><rect x="0" y="0" width="0" height="300" fill="#fff" mask="url(#satori_om-id)"/></mask><mask id="satori_om-id-0-0-2-0"><rect x="0" y="0" width="0" height="300" fill="#fff" mask="url(#satori_om-id)"/></mask><mask id="satori_om-id-0-0-2-1"><rect x="0" y="0" width="0" height="300" fill="#fff" mask="url(#satori_om-id)"/></mask><mask id="satori_om-id-0-1"><rect x="0" y="0" width="0" height="300" fill="#fff" mask="url(#satori_om-id)"/></mask><mask id="satori_om-id-0-2"><rect x="0" y="0" width="0" height="300" fill="#fff" mask="url(#satori_om-id)"/></mask><mask id="satori_om-id-0-2-0"><rect x="0" y="0" width="0" height="300" fill="#fff" mask="url(#satori_om-id)"/></mask><mask id="satori_om-id-0-2-1"><rect x="0" y="0" width="0" height="300" fill="#fff" mask="url(#satori_om-id)"/></mask><mask id="satori_om-id-0-3"><rect x="0" y="0" width="0" height="300" fill="#fff" mask="url(#satori_om-id)"/></mask><mask id="satori_om-id-0-3-0"><rect x="0" y="0" width="0" height="300" fill="#fff" mask="url(#satori_om-id)"/></mask><mask id="satori_om-id-0-3-1"><rect x="0" y="0" width="0" height="300" fill="#fff" mask="url(#satori_om-id)"/></mask><mask id="satori_om-id-0-4"><rect x="0" y="0" width="0" height="300" fill="#fff" mask="url(#satori_om-id)"/></mask><mask id="satori_om-id-0-4-0"><rect x="0" y="0" width="0" height="300" fill="#fff" mask="url(#satori_om-id)"/></mask><mask id="satori_om-id-0-5"><rect x="0" y="0" width="0" height="300" fill="#fff" mask="url(#satori_om-id)"/></mask><mask id="satori_om-id-0-5-0"><rect x="0" y="0" width="0" height="300" fill="#fff" mask="url(#satori_om-id)"/></mask><mask id="satori_om-id-0-5-1"><rect x="0" y="0" width="0" height="300" fill="#fff" mask="url(#satori_om-id)"/></mask><mask id="satori_om-id-0-6"><rect x="0" y="0" width="0" height="300" fill="#fff" mask="url(#satori_om-id)"/></mask><mask id="satori_om-id-0-6-0"><rect x="0" y="0" width="0" height="300" fill="#fff" mask="url(#satori_om-id)"/></mask><mask id="satori_om-id-0-7"><rect x="0" y="0" width="0" height="300" fill="#fff" mask="url(#satori_om-id)"/></mask><mask id="satori_om-id-0-7-0"><rect x="0" y="0" width="0" height="300" fill="#fff" mask="url(#satori_om-id)"/></mask><mask id="satori_om-id-0-7-1"><rect x="0" y="0" width="0" height="300" fill="#fff" mask="url(#satori_om-id)"/></mask><mask id="satori_om-id-0-8"><rect x="0" y="0" width="0" height="300" fill="#fff" mask="url(#satori_om-id)"/></mask><mask id="satori_om-id-0-8-0"><rect x="0" y="0" width="0" height="300" fill="#fff" mask="url(#satori_om-id)"/></mask><mask id="satori_om-id-0-9"><rect x="0" y="0" width="0" height="300" fill="#fff" mask="url(#satori_om-id)"/></mask><mask id="satori_om-id-0-9-0"><rect x="0" y="0" width="0" height="300" fill="#fff" mask="url(#satori_om-id)"/></mask><mask id="satori_om-id-0-10"><rect x="0" y="0" width="0" height="300" fill="#fff" mask="url(#satori_om-id)"/></mask><mask id="satori_om-id-0-10-0"><rect x="0" y="0" width="0" height="300" fill="#fff" mask="url(#satori_om-id)"/></mask><mask id="satori_om-id-1"><rect x="124" y="55" width="652" height="190" fill="#fff" mask="url(#satori_om-id)"/></mask><clipPath id="satori_bct-id-1-0" clip-path="url(#satori_cp-id)"><path d="M140.8 131L129.1 131L129.1 74.3L140.8 74.3L140.8 97.2L165.5 97.2L165.5 74.3L177.1 74.3L177.1 131L165.5 131L165.5 106.8L140.8 106.8L140.8 131ZM200.0 131L187.1 131L206.5 74.3L221.8 74.3L241.6 131L228.7 131L224.3 117.8L204.2 117.8L200.0 131ZM207.1 108.7L221.3 108.7L219.6 103.6Q218.0 98.3 216.3 92L216.3 92Q215.2 87.9 214.0 83.4L214.0 83.4Q212.9 88.0 211.9 92.1L211.9 92.1Q210.3 98.4 208.7 103.6L208.7 103.6L207.1 108.7ZM272.4 131.8L272.4 131.8Q265.6 131.8 260.6 129.7Q255.5 127.6 252.7 123.5Q249.9 119.4 249.7 113.4L249.7 113.4L261.1 113.4Q261.3 116.3 262.8 118.2Q264.3 120.1 266.7 121.1Q269.2 122.0 272.3 122.0L272.3 122.0Q275.5 122.0 277.8 121.1Q280.1 120.2 281.4 118.6Q282.6 116.9 282.6 114.8L282.6 114.8Q282.6 112.8 281.5 111.5Q280.3 110.2 278.2 109.3Q276.0 108.3 272.9 107.6L272.9 107.6L266.6 106.0Q259.4 104.3 255.3 100.5Q251.3 96.8 251.3 90.6L251.3 90.6Q251.3 85.4 254.0 81.6Q256.8 77.8 261.6 75.6Q266.4 73.5 272.6 73.5L272.6 73.5Q278.9 73.5 283.6 75.6Q288.2 77.8 290.9 81.6Q293.5 85.4 293.6 90.4L293.6 90.4L282.3 90.4Q282.0 87.0 279.4 85.1Q276.8 83.3 272.5 83.3L272.5 83.3Q269.5 83.3 267.5 84.1Q265.4 85.0 264.3 86.4Q263.2 87.9 263.2 89.8L263.2 89.8Q263.2 91.9 264.4 93.3Q265.7 94.7 267.8 95.6Q269.9 96.4 272.3 97.0L272.3 97.0L277.4 98.2Q281.0 99.0 284.1 100.4Q287.1 101.8 289.5 103.8Q291.8 105.8 293.1 108.5Q294.3 111.3 294.3 114.9L294.3 114.9Q294.3 120.0 291.8 123.8Q289.2 127.6 284.2 129.7Q279.3 131.8 272.4 131.8ZM326.5 131.8L326.5 131.8Q319.7 131.8 314.7 129.7Q309.6 127.6 306.8 123.5Q304.0 119.4 303.8 113.4L303.8 113.4L315.1 113.4Q315.4 116.3 316.8 118.2Q318.3 120.1 320.8 121.1Q323.3 122.0 326.4 122.0L326.4 122.0Q329.5 122.0 331.8 121.1Q334.1 120.2 335.4 118.6Q336.7 116.9 336.7 114.8L336.7 114.8Q336.7 112.8 335.6 111.5Q334.4 110.2 332.2 109.3Q330.1 108.3 326.9 107.6L326.9 107.6L320.7 106.0Q313.5 104.3 309.4 100.5Q305.3 96.8 305.3 90.6L305.3 90.6Q305.3 85.4 308.1 81.6Q310.9 77.8 315.7 75.6Q320.5 73.5 326.7 73.5L326.7 73.5Q333.0 73.5 337.6 75.6Q342.3 77.8 344.9 81.6Q347.6 85.4 347.7 90.4L347.7 90.4L336.4 90.4Q336.1 87.0 333.5 85.1Q330.9 83.3 326.6 83.3L326.6 83.3Q323.6 83.3 321.5 84.1Q319.4 85.0 318.3 86.4Q317.3 87.9 317.3 89.8L317.3 89.8Q317.3 91.9 318.5 93.3Q319.8 94.7 321.9 95.6Q324.0 96.4 326.3 97.0L326.3 97.0L331.5 98.2Q335.0 99.0 338.1 100.4Q341.2 101.8 343.5 103.8Q345.9 105.8 347.1 108.5Q348.4 111.3 348.4 114.9L348.4 114.9Q348.4 120.0 345.8 123.8Q343.2 127.6 338.3 129.7Q333.4 131.8 326.5 131.8ZM369.4 131L356.5 131L375.9 74.3L391.1 74.3L411.0 131L398.1 131L393.7 117.8L373.6 117.8L369.4 131ZM376.5 108.7L390.7 108.7L389.0 103.6Q387.4 98.3 385.7 92L385.7 92Q384.6 87.9 383.4 83.4L383.4 83.4Q382.3 88.0 381.3 92.1L381.3 92.1Q379.7 98.4 378.1 103.6L378.1 103.6L376.5 108.7ZM432.9 131L421.0 131L421.0 74.3L434.0 74.3L451.9 103.0Q453.3 105.2 454.7 107.8Q456.1 110.4 457.6 113.5L457.6 113.5Q458.3 115.1 459.0 116.8L459.0 116.8Q458.9 115.4 458.8 113.9L458.8 113.9Q458.6 110.3 458.5 107.0Q458.3 103.8 458.3 101.5L458.3 101.5L458.3 74.3L470.2 74.3L470.2 131L457.2 131L440.9 104.9Q439.1 102.0 437.6 99.3Q436.1 96.5 434.4 93.1L434.4 93.1Q433.4 91.1 432.1 88.6L432.1 88.6Q432.3 90.9 432.4 93.1L432.4 93.1Q432.6 96.8 432.8 99.9Q432.9 103.0 432.9 104.9L432.9 104.9L432.9 131Z M514.5 131L501.7 131L521.1 74.3L536.3 74.3L556.2 131L543.3 131L538.9 117.8L518.7 117.8L514.5 131ZM521.6 108.7L535.9 108.7L534.2 103.6Q532.5 98.3 530.8 92L530.8 92Q529.7 87.9 528.6 83.4L528.6 83.4Q527.4 88.0 526.4 92.1L526.4 92.1Q524.8 98.4 523.3 103.6L523.3 103.6L521.6 108.7ZM566.2 74.3L577.8 74.3L577.8 131L566.2 131L566.2 74.3ZM611.0 131L611.0 131L591.1 131L591.1 74.3L611.2 74.3Q619.8 74.3 625.9 77.7Q632.1 81.1 635.4 87.4Q638.7 93.8 638.7 102.6L638.7 102.6Q638.7 111.5 635.4 117.8Q632.1 124.2 625.9 127.6Q619.7 131 611.0 131ZM602.7 84.3L602.7 121.0L610.5 121.0Q616.0 121.0 619.7 119.0Q623.4 117.1 625.2 113.0Q627.1 108.9 627.1 102.6L627.1 102.6Q627.1 96.3 625.2 92.2Q623.3 88.2 619.7 86.2Q616.0 84.3 610.5 84.3L610.5 84.3L602.7 84.3ZM650.4 74.3L662.0 74.3L662.0 131L650.4 131L650.4 74.3ZM699.3 131L675.3 131L675.3 74.3L697.8 74.3Q704.1 74.3 708.2 76.1Q712.4 78.0 714.5 81.3Q716.6 84.6 716.6 88.8L716.6 88.8Q716.6 92.2 715.2 94.7Q713.9 97.2 711.6 98.8Q709.3 100.3 706.4 101.0L706.4 101.0L706.4 101.6Q709.6 101.7 712.4 103.4Q715.2 105.1 717.0 108.1Q718.8 111.2 718.8 115.3L718.8 115.3Q718.8 119.8 716.6 123.4Q714.3 126.9 710.0 129.0Q705.7 131 699.3 131L699.3 131ZM686.9 106.1L686.9 121.4L697.0 121.4Q702.1 121.4 704.4 119.5Q706.8 117.5 706.8 114.2L706.8 114.2Q706.8 111.8 705.6 110.0Q704.5 108.1 702.4 107.1Q700.2 106.1 697.3 106.1L697.3 106.1L686.9 106.1ZM686.9 83.7L686.9 98.1L696.1 98.1Q698.6 98.1 700.6 97.2Q702.5 96.3 703.7 94.6Q704.8 93.0 704.8 90.7L704.8 90.7Q704.8 87.6 702.6 85.7Q700.4 83.7 696.3 83.7L696.3 83.7L686.9 83.7ZM768.0 131L729.9 131L729.9 74.3L767.9 74.3L767.9 83.9L741.5 83.9L741.5 97.6L765.9 97.6L765.9 107.1L741.5 107.1L741.5 121.4L768.0 121.4L768.0 131Z "/></clipPath><defs><pattern id="satori_pattern_id-1-0_0" x="0" y="0" width="1" height="1" patternUnits="objectBoundingBox"><linearGradient id="satori_biid-1-0_0" x1="0" y1="0" x2="1" y2="0" spreadMethod="pad"><stop offset="0%" stop-color="#22d3ee"/><stop offset="50%" stop-color="#a78bfa"/><stop offset="100%" stop-color="#f472b6"/></linearGradient><rect x="0" y="0" width="652" height="94" fill="url(#satori_biid-1-0_0)"/></pattern></defs><mask id="satori_om-id-1-0"><rect x="124" y="55" width="652" height="94" fill="#fff" mask="url(#satori_om-id)"/></mask><rect x="124" y="55" width="652" height="94" fill="url(#satori_pattern_id-1-0_0)" clip-path="url(#satori_bct-id-1-0)" mask="url(#satori_om-id)"/><defs><clipPath id="satori_bc-id-1-1" clip-path="url(#satori_cp-id)"><path x="306" y="163" width="288" height="36" d="M316,163 h268 a10,10 0 0 1 10,10 v16 a10,10 0 0 1 -10,10 h-268 a10,10 0 0 1 -10,-10 v-16 a10,10 0 0 1 10,-10"/></clipPath></defs><mask id="satori_om-id-1-1"><rect x="307" y="164" width="286" height="34" fill="#fff" mask="url(#satori_om-id)"/><path width="288" height="36" fill="none" stroke="#000" stroke-width="2" d="M308.929,165.929 A10,10 0 0 1 316,163 h268 a10,10 0 0 1 10,10 v16 a10,10 0 0 1 -10,10 h-268 a10,10 0 0 1 -10,-10 v-16 A10,10 0 0 1 308.929,165.929"/></mask><path x="306" y="163" width="288" height="36" fill="#0a0c1490" d="M316,163 h268 a10,10 0 0 1 10,10 v16 a10,10 0 0 1 -10,10 h-268 a10,10 0 0 1 -10,-10 v-16 a10,10 0 0 1 10,-10" clip-path="url(#satori_cp-id)" mask="url(#satori_om-id)"/><path width="288" height="36" clip-path="url(#satori_bc-id-1-1)" fill="none" stroke="#1e293b" stroke-width="2" d="M308.929,165.929 A10,10 0 0 1 316,163 h268 a10,10 0 0 1 10,10 v16 a10,10 0 0 1 -10,10 h-268 a10,10 0 0 1 -10,-10 v-16 A10,10 0 0 1 308.929,165.929"/><mask id="satori_om-id-1-1-0"><rect x="323" y="177" width="9" height="9" fill="#fff" mask="url(#satori_om-id)"/></mask><path x="323" y="177" width="9" height="9" fill="#34d399" d="M327.5,177 h0 a4.5,4.5 0 0 1 4.5,4.5 v0 a4.5,4.5 0 0 1 -4.5,4.5 h0 a4.5,4.5 0 0 1 -4.5,-4.5 v0 a4.5,4.5 0 0 1 4.5,-4.5" clip-path="url(#satori_cp-id)" mask="url(#satori_om-id)"/><mask id="satori_om-id-1-1-0-0"><rect x="323" y="177" width="0" height="9" fill="#fff" mask="url(#satori_om-id)"/></mask><mask id="satori_om-id-1-1-1"><rect x="340" y="172" width="56" height="18" fill="#fff" mask="url(#satori_om-id)"/></mask><g mask="url(#satori_om-id)" clip-path="url(#satori_cp-id)"><path fill="#94a3b8" d="M342.4 183.8L341.2 183.8Q341.2 182.9 341.5 182.3Q341.8 181.8 342.3 181.5Q342.8 181.3 343.4 181.3L343.4 181.3Q343.9 181.3 344.3 181.5Q344.8 181.7 345.4 182.3L345.4 182.3Q345.8 182.6 346.0 182.7Q346.2 182.9 346.5 182.9L346.5 182.9Q347.0 182.9 347.2 182.5Q347.5 182.2 347.5 181.6L347.5 181.6L348.7 181.6Q348.7 182.5 348.4 183.0Q348.1 183.6 347.6 183.8Q347.1 184.1 346.6 184.1L346.6 184.1Q346.0 184.1 345.6 183.8Q345.1 183.6 344.5 183.1L344.5 183.1Q344.1 182.8 343.9 182.6Q343.7 182.5 343.4 182.5L343.4 182.5Q343.0 182.5 342.7 182.8Q342.4 183.1 342.4 183.8L342.4 183.8ZM353.8 175.6L355.0 175.6L351.5 188.6L350.3 188.6L353.8 175.6ZM359.6 187.2L359.6 187.2Q358.5 187.2 357.8 186.7Q357.0 186.1 356.5 185.2Q356.1 184.2 356.1 182.9L356.1 182.9Q356.1 181.6 356.5 180.7Q357.0 179.7 357.8 179.2Q358.5 178.7 359.6 178.7L359.6 178.7Q360.4 178.7 360.8 179.0Q361.3 179.2 361.6 179.6Q361.8 179.9 361.9 180.1L361.9 180.1L362.0 180.1L362.0 176.1L363.4 176.1L363.4 187L362.1 187L362.1 185.7L361.9 185.7Q361.8 186.0 361.5 186.3Q361.3 186.6 360.8 186.9Q360.3 187.2 359.6 187.2ZM359.8 186.0L359.8 186.0Q360.5 186.0 361.0 185.6Q361.5 185.2 361.8 184.5Q362.1 183.8 362.1 182.9L362.1 182.9Q362.1 182.0 361.8 181.3Q361.5 180.6 361.0 180.3Q360.5 179.9 359.8 179.9L359.8 179.9Q359.0 179.9 358.5 180.3Q357.9 180.7 357.7 181.4Q357.4 182.1 357.4 182.9L357.4 182.9Q357.4 183.8 357.7 184.5Q358.0 185.2 358.5 185.6Q359.0 186.0 359.8 186.0ZM369.1 187.2L369.1 187.2Q367.9 187.2 367.1 186.6Q366.2 186.1 365.7 185.2Q365.3 184.2 365.3 183.0Q365.3 181.7 365.7 180.8Q366.2 179.8 367.0 179.3Q367.8 178.7 369.0 178.7L369.0 178.7Q369.6 178.7 370.2 178.9Q370.9 179.1 371.4 179.6Q371.9 180.1 372.2 180.9Q372.5 181.7 372.5 182.8L372.5 182.8L372.5 183.4L366.6 183.4Q366.6 184.1 366.9 184.7L366.9 184.7Q367.2 185.4 367.8 185.7Q368.4 186.0 369.1 186.0L369.1 186.0Q369.6 186.0 370 185.9Q370.4 185.7 370.7 185.4Q371.0 185.2 371.1 184.7L371.1 184.7L372.4 185.1Q372.2 185.7 371.8 186.2Q371.3 186.6 370.6 186.9Q370.0 187.2 369.1 187.2ZM366.6 182.2L366.6 182.2L371.2 182.2Q371.1 181.7 371.0 181.2L371.0 181.2Q370.7 180.6 370.2 180.2Q369.7 179.9 369.0 179.9Q368.2 179.9 367.7 180.2Q367.2 180.6 366.9 181.2L366.9 181.2Q366.7 181.7 366.6 182.2ZM378.2 187L376.8 187L373.7 178.8L375.1 178.8L376.8 183.7Q377.1 184.4 377.3 185.2L377.3 185.2Q377.4 185.5 377.5 185.8L377.5 185.8Q377.6 185.5 377.6 185.2L377.6 185.2Q377.8 184.4 378.1 183.7L378.1 183.7L379.9 178.8L381.3 178.8L378.2 187Z M391.2 188.6L390.3 188.6L390.3 187.2Q389.4 187.1 388.7 186.8L388.7 186.8Q387.8 186.4 387.3 185.7Q386.8 185.1 386.8 184.1L386.8 184.1L388.2 184.1Q388.2 184.8 388.6 185.2Q389.0 185.6 389.5 185.7L389.5 185.7Q389.9 185.9 390.3 185.9L390.3 185.9L390.3 182.0L389.8 181.9Q388.5 181.5 387.8 180.8Q387.1 180.1 387.1 179.0L387.1 179.0Q387.1 178.1 387.6 177.4Q388.1 176.7 388.9 176.3L388.9 176.3Q389.5 176.0 390.3 176.0L390.3 176.0L390.3 174.5L391.2 174.5L391.2 175.9Q392.0 176.0 392.7 176.3L392.7 176.3Q393.5 176.7 394.0 177.4Q394.5 178.0 394.5 178.8L394.5 178.8L393.2 178.8Q393.1 178.0 392.4 177.6L392.4 177.6Q391.9 177.3 391.2 177.2L391.2 177.2L391.2 180.9L391.6 181.0Q392.0 181.1 392.6 181.3Q393.1 181.5 393.6 181.9Q394.1 182.2 394.4 182.7Q394.7 183.3 394.7 184.0L394.7 184.0Q394.7 184.9 394.2 185.6Q393.8 186.4 392.9 186.8L392.9 186.8Q392.1 187.1 391.2 187.2L391.2 187.2L391.2 188.6ZM391.2 182.2L391.2 185.9Q391.6 185.9 392.1 185.7L392.1 185.7Q392.6 185.5 393.0 185.0Q393.3 184.6 393.3 184.0L393.3 184.0Q393.3 183.5 393.0 183.1Q392.7 182.8 392.2 182.6Q391.8 182.4 391.2 182.2L391.2 182.2L391.2 182.2ZM390.3 180.6L390.3 180.6L390.3 177.2Q389.9 177.3 389.5 177.4L389.5 177.4Q389.0 177.6 388.7 178.0Q388.4 178.4 388.4 178.9L388.4 178.9Q388.4 179.5 388.8 179.9Q389.1 180.2 389.6 180.4L389.6 180.4Q390.0 180.5 390.3 180.6Z "/></g><mask id="satori_om-id-1-1-2"><rect x="402" y="172" width="170" height="18" fill="#fff" mask="url(#satori_om-id)"/></mask><g mask="url(#satori_om-id)" clip-path="url(#satori_cp-id)"><path fill="#e2e8f0" d="M407.5 187.1L407.5 187.1Q406.9 187.1 406.4 186.9Q405.9 186.7 405.6 186.4Q405.4 186.0 405.2 185.7L405.2 185.7L405.1 185.7L405.1 187L402.9 187L402.9 176.1L405.1 176.1L405.1 180.2L405.2 180.2Q405.4 179.9 405.6 179.5Q405.9 179.2 406.4 178.9Q406.8 178.7 407.5 178.7L407.5 178.7Q408.4 178.7 409.2 179.2Q410.0 179.6 410.4 180.6Q410.9 181.5 410.9 182.9L410.9 182.9Q410.9 184.3 410.4 185.2Q410.0 186.2 409.2 186.7Q408.5 187.1 407.5 187.1ZM406.8 185.4L406.8 185.4Q407.4 185.4 407.8 185.1Q408.2 184.7 408.4 184.2Q408.6 183.6 408.6 182.9L408.6 182.9Q408.6 182.2 408.4 181.6Q408.2 181.1 407.8 180.8Q407.4 180.5 406.8 180.5L406.8 180.5Q406.3 180.5 405.9 180.8Q405.5 181.1 405.3 181.6Q405.1 182.2 405.1 182.9L405.1 182.9Q405.1 183.7 405.3 184.2Q405.5 184.8 405.9 185.1Q406.3 185.4 406.8 185.4ZM415.2 187.1L415.2 187.1Q414.4 187.1 413.7 186.7Q413.1 186.4 412.7 185.7Q412.4 185.0 412.4 184.0L412.4 184.0L412.4 178.8L414.6 178.8L414.6 183.6Q414.6 184.4 415.0 184.8Q415.4 185.3 416.1 185.3L416.1 185.3Q416.5 185.3 416.9 185.1Q417.3 184.9 417.5 184.5Q417.7 184.1 417.7 183.6L417.7 183.6L417.7 178.8L419.9 178.8L419.9 187L417.8 187L417.8 185.3Q417.4 186.1 416.9 186.5L416.9 186.5Q416.2 187.1 415.2 187.1ZM423.9 187L421.7 187L421.7 178.8L423.9 178.8L423.9 187ZM422.8 177.7L422.8 177.7Q422.3 177.7 422.0 177.4Q421.6 177.1 421.6 176.6L421.6 176.6Q421.6 176.1 422.0 175.8Q422.3 175.5 422.8 175.5L422.8 175.5Q423.3 175.5 423.7 175.8Q424.0 176.1 424.0 176.6L424.0 176.6Q424.0 177.1 423.7 177.4Q423.3 177.7 422.8 177.7ZM425.8 176.1L428.0 176.1L428.0 187L425.8 187L425.8 176.1ZM432.8 187.1L432.8 187.1Q431.9 187.1 431.2 186.7Q430.4 186.2 430.0 185.2Q429.5 184.3 429.5 182.9L429.5 182.9Q429.5 181.5 430.0 180.6Q430.4 179.6 431.2 179.2Q431.9 178.7 432.8 178.7L432.8 178.7Q433.5 178.7 434.0 178.9Q434.5 179.2 434.7 179.5Q435.0 179.9 435.2 180.2L435.2 180.2L435.2 180.2L435.2 176.1L437.4 176.1L437.4 187L435.3 187L435.3 185.7L435.2 185.7Q435.0 186.0 434.7 186.4Q434.4 186.7 434.0 186.9Q433.5 187.1 432.8 187.1ZM433.5 185.4L433.5 185.4Q434.1 185.4 434.5 185.1Q434.9 184.8 435.1 184.2Q435.3 183.7 435.3 182.9L435.3 182.9Q435.3 182.2 435.1 181.6Q434.9 181.1 434.5 180.8Q434.1 180.5 433.5 180.5L433.5 180.5Q433.0 180.5 432.6 180.8Q432.2 181.1 432.0 181.6Q431.8 182.2 431.8 182.9L431.8 182.9Q431.8 183.6 432.0 184.2Q432.2 184.7 432.6 185.1Q433.0 185.4 433.5 185.4ZM441.5 187L439.3 187L439.3 178.8L441.5 178.8L441.5 187ZM440.4 177.7L440.4 177.7Q439.9 177.7 439.6 177.4Q439.2 177.1 439.2 176.6L439.2 176.6Q439.2 176.1 439.6 175.8Q439.9 175.5 440.4 175.5L440.4 175.5Q440.9 175.5 441.3 175.8Q441.6 176.1 441.6 176.6L441.6 176.6Q441.6 177.1 441.3 177.4Q440.9 177.7 440.4 177.7ZM445.6 182.3L445.6 182.3L445.6 187L443.4 187L443.4 178.8L445.5 178.8L445.5 180.5Q445.8 179.7 446.3 179.3L446.3 179.3Q447.0 178.7 448.0 178.7L448.0 178.7Q448.9 178.7 449.5 179.1Q450.1 179.4 450.5 180.1Q450.8 180.8 450.8 181.8L450.8 181.8L450.8 187L448.6 187L448.6 182.2Q448.6 181.4 448.3 181.0Q447.9 180.5 447.2 180.5L447.2 180.5Q446.7 180.5 446.3 180.7Q446.0 181.0 445.8 181.3Q445.6 181.7 445.6 182.3ZM456.4 190.2L456.4 190.2Q455.3 190.2 454.6 190.0Q453.8 189.7 453.3 189.3Q452.9 188.8 452.7 188.2L452.7 188.2L454.6 187.7Q454.7 187.9 454.9 188.1Q455.1 188.4 455.5 188.5Q455.8 188.6 456.3 188.6L456.3 188.6Q457.2 188.6 457.7 188.3Q458.1 187.9 458.1 187.1L458.1 187.1L458.1 185.5L458.0 185.5Q457.8 185.9 457.6 186.2Q457.3 186.5 456.8 186.7Q456.4 186.9 455.7 186.9L455.7 186.9Q454.8 186.9 454.0 186.5Q453.3 186.0 452.8 185.1Q452.4 184.2 452.4 182.9L452.4 182.9Q452.4 181.5 452.8 180.6Q453.3 179.6 454.0 179.2Q454.8 178.7 455.7 178.7L455.7 178.7Q456.4 178.7 456.9 178.9Q457.3 179.2 457.6 179.5Q457.9 179.9 458.1 180.2L458.1 180.2L458.2 180.2L458.2 178.8L460.3 178.8L460.3 186.9Q460.3 188.0 459.8 188.8Q459.3 189.5 458.4 189.9Q457.5 190.2 456.4 190.2ZM456.4 185.2L456.4 185.2Q457.0 185.2 457.4 184.9Q457.7 184.7 457.9 184.1Q458.2 183.6 458.2 182.9L458.2 182.9Q458.2 182.2 457.9 181.6Q457.7 181.1 457.4 180.8Q457.0 180.5 456.4 180.5L456.4 180.5Q455.8 180.5 455.4 180.8Q455.0 181.1 454.8 181.6Q454.6 182.2 454.6 182.9L454.6 182.9Q454.6 183.6 454.8 184.1Q455.0 184.6 455.4 184.9Q455.8 185.2 456.4 185.2Z M469.8 187.2L469.8 187.2Q468.5 187.2 467.5 186.8Q466.5 186.4 466.0 185.6Q465.5 184.8 465.4 183.6L465.4 183.6L467.6 183.6Q467.7 184.2 467.9 184.5Q468.2 184.9 468.7 185.1Q469.2 185.3 469.8 185.3L469.8 185.3Q470.4 185.3 470.8 185.1Q471.3 184.9 471.5 184.6Q471.8 184.3 471.8 183.9L471.8 183.9Q471.8 183.5 471.5 183.3Q471.3 183.0 470.9 182.8Q470.5 182.6 469.9 182.5L469.9 182.5L468.7 182.2Q467.3 181.9 466.5 181.1Q465.7 180.4 465.7 179.2L465.7 179.2Q465.7 178.2 466.3 177.5Q466.8 176.8 467.7 176.4Q468.6 175.9 469.8 175.9L469.8 175.9Q471.0 175.9 471.9 176.4Q472.8 176.8 473.3 177.5Q473.9 178.2 473.9 179.2L473.9 179.2L471.7 179.2Q471.6 178.5 471.1 178.2Q470.6 177.8 469.8 177.8L469.8 177.8Q469.2 177.8 468.8 178.0Q468.4 178.1 468.2 178.4Q468.0 178.7 468.0 179.1L468.0 179.1Q468.0 179.5 468.3 179.8Q468.5 180.0 468.9 180.2Q469.3 180.3 469.8 180.5L469.8 180.5L470.8 180.7Q471.4 180.9 472.0 181.1Q472.6 181.4 473.1 181.8Q473.5 182.2 473.8 182.7Q474.0 183.2 474.0 183.9L474.0 183.9Q474.0 184.9 473.5 185.6Q473.0 186.4 472.1 186.8Q471.1 187.2 469.8 187.2ZM477.9 187.2L477.9 187.2Q477.1 187.2 476.5 186.9Q475.8 186.6 475.5 186.1Q475.1 185.5 475.1 184.7L475.1 184.7Q475.1 184.0 475.4 183.6Q475.6 183.1 476.1 182.8Q476.5 182.5 477.1 182.4Q477.6 182.3 478.2 182.2L478.2 182.2Q478.9 182.1 479.4 182.1Q479.8 182.0 480.0 181.9Q480.2 181.7 480.2 181.5L480.2 181.5L480.2 181.4Q480.2 181.1 480.1 180.8Q479.9 180.6 479.6 180.5Q479.3 180.3 478.9 180.3L478.9 180.3Q478.5 180.3 478.2 180.5Q477.9 180.6 477.7 180.8Q477.5 181.0 477.4 181.3L477.4 181.3L475.4 181.0Q475.6 180.2 476.1 179.7Q476.6 179.2 477.3 179.0Q478.0 178.7 478.9 178.7L478.9 178.7Q479.6 178.7 480.2 178.9Q480.8 179.0 481.3 179.4Q481.8 179.7 482.1 180.2Q482.4 180.7 482.4 181.5L482.4 181.5L482.4 187L480.3 187L480.3 185.9L480.3 185.9Q480.1 186.2 479.7 186.5Q479.4 186.8 478.9 187.0Q478.5 187.2 477.9 187.2ZM478.5 185.6L478.5 185.6Q479.0 185.6 479.4 185.4Q479.8 185.2 480.0 184.9Q480.2 184.5 480.2 184.1L480.2 184.1L480.2 183.2Q480.1 183.3 479.9 183.3Q479.7 183.4 479.5 183.4Q479.2 183.5 479.0 183.5Q478.8 183.5 478.6 183.6L478.6 183.6Q478.2 183.6 477.9 183.7Q477.6 183.9 477.4 184.1Q477.2 184.3 477.2 184.6L477.2 184.6Q477.2 185.0 477.4 185.2Q477.6 185.4 477.8 185.5Q478.1 185.6 478.5 185.6ZM486.6 187.2L486.6 187.2Q485.8 187.2 485.2 186.9Q484.6 186.6 484.2 186.1Q483.8 185.5 483.8 184.7L483.8 184.7Q483.8 184.0 484.1 183.6Q484.3 183.1 484.8 182.8Q485.2 182.5 485.8 182.4Q486.3 182.3 486.9 182.2L486.9 182.2Q487.6 182.1 488.1 182.1Q488.5 182.0 488.7 181.9Q488.9 181.7 488.9 181.5L488.9 181.5L488.9 181.4Q488.9 181.1 488.8 180.8Q488.6 180.6 488.3 180.5Q488.0 180.3 487.6 180.3L487.6 180.3Q487.2 180.3 486.9 180.5Q486.6 180.6 486.4 180.8Q486.2 181.0 486.1 181.3L486.1 181.3L484.1 181.0Q484.3 180.2 484.8 179.7Q485.3 179.2 486.0 179.0Q486.7 178.7 487.6 178.7L487.6 178.7Q488.3 178.7 488.9 178.9Q489.5 179.0 490.0 179.4Q490.5 179.7 490.8 180.2Q491.1 180.7 491.1 181.5L491.1 181.5L491.1 187L489.0 187L489.0 185.9L489.0 185.9Q488.8 186.2 488.4 186.5Q488.1 186.8 487.6 187.0Q487.2 187.2 486.6 187.2ZM487.2 185.6L487.2 185.6Q487.7 185.6 488.1 185.4Q488.5 185.2 488.7 184.9Q488.9 184.5 488.9 184.1L488.9 184.1L488.9 183.2Q488.8 183.3 488.6 183.3Q488.4 183.4 488.2 183.4Q488.0 183.5 487.7 183.5Q487.5 183.5 487.3 183.6L487.3 183.6Q486.9 183.6 486.6 183.7Q486.3 183.9 486.1 184.1Q486.0 184.3 486.0 184.6L486.0 184.6Q486.0 185.0 486.1 185.2Q486.3 185.4 486.6 185.5Q486.8 185.6 487.2 185.6ZM497.0 187.2L497.0 187.2Q495.7 187.2 494.8 186.8Q493.8 186.4 493.2 185.6Q492.7 184.8 492.7 183.6L492.7 183.6L494.8 183.6Q494.9 184.2 495.2 184.5Q495.5 184.9 495.9 185.1Q496.4 185.3 497.0 185.3L497.0 185.3Q497.6 185.3 498.1 185.1Q498.5 184.9 498.8 184.6Q499.0 184.3 499.0 183.9L499.0 183.9Q499.0 183.5 498.8 183.3Q498.6 183.0 498.1 182.8Q497.7 182.6 497.1 182.5L497.1 182.5L495.9 182.2Q494.5 181.9 493.8 181.1Q493.0 180.4 493.0 179.2L493.0 179.2Q493.0 178.2 493.5 177.5Q494.0 176.8 495.0 176.4Q495.9 175.9 497.1 175.9L497.1 175.9Q498.3 175.9 499.2 176.4Q500.1 176.8 500.6 177.5Q501.1 178.2 501.1 179.2L501.1 179.2L498.9 179.2Q498.9 178.5 498.4 178.2Q497.9 177.8 497.0 177.8L497.0 177.8Q496.5 177.8 496.1 178.0Q495.7 178.1 495.5 178.4Q495.3 178.7 495.3 179.1L495.3 179.1Q495.3 179.5 495.5 179.8Q495.7 180.0 496.1 180.2Q496.5 180.3 497.0 180.5L497.0 180.5L498.0 180.7Q498.7 180.9 499.3 181.1Q499.9 181.4 500.3 181.8Q500.8 182.2 501.0 182.7Q501.3 183.2 501.3 183.9L501.3 183.9Q501.3 184.9 500.8 185.6Q500.3 186.4 499.3 186.8Q498.4 187.2 497.0 187.2Z M508.6 190.1L506.4 190.1L506.4 178.8L508.5 178.8L508.5 180.2L508.6 180.2Q508.8 179.9 509.1 179.5Q509.3 179.2 509.8 178.9Q510.3 178.7 511.0 178.7L511.0 178.7Q511.9 178.7 512.6 179.2Q513.4 179.6 513.8 180.6Q514.3 181.5 514.3 182.9L514.3 182.9Q514.3 184.3 513.8 185.2Q513.4 186.2 512.6 186.7Q511.9 187.1 510.9 187.1L510.9 187.1Q510.3 187.1 509.8 186.9Q509.4 186.7 509.1 186.4Q508.8 186.0 508.6 185.7L508.6 185.7L508.6 185.7L508.6 190.1ZM510.3 185.4L510.3 185.4Q510.8 185.4 511.2 185.1Q511.6 184.7 511.8 184.2Q512.0 183.6 512.0 182.9L512.0 182.9Q512.0 182.2 511.8 181.6Q511.6 181.1 511.2 180.8Q510.9 180.5 510.3 180.5L510.3 180.5Q509.7 180.5 509.3 180.8Q508.9 181.1 508.7 181.6Q508.5 182.2 508.5 182.9L508.5 182.9Q508.5 183.7 508.7 184.2Q508.9 184.8 509.3 185.1Q509.7 185.4 510.3 185.4ZM518.0 187L515.8 187L515.8 178.8L517.9 178.8L517.9 180.2L518.0 180.2Q518.3 179.5 518.8 179.1Q519.3 178.7 520.0 178.7L520.0 178.7Q520.2 178.7 520.4 178.7Q520.6 178.7 520.7 178.8L520.7 178.8L520.7 180.7Q520.6 180.7 520.3 180.7Q520.0 180.6 519.8 180.6L519.8 180.6Q519.3 180.6 518.9 180.8Q518.5 181.1 518.2 181.4Q518.0 181.8 518.0 182.3L518.0 182.3L518.0 187ZM525.6 187.2L525.6 187.2Q524.4 187.2 523.5 186.6Q522.6 186.1 522.1 185.2Q521.6 184.2 521.6 182.9L521.6 182.9Q521.6 181.7 522.1 180.7Q522.6 179.8 523.5 179.2Q524.4 178.7 525.6 178.7L525.6 178.7Q526.8 178.7 527.7 179.2Q528.6 179.8 529.1 180.7Q529.6 181.7 529.6 182.9L529.6 182.9Q529.6 184.2 529.1 185.2Q528.6 186.1 527.7 186.6Q526.8 187.2 525.6 187.2ZM525.6 185.4L525.6 185.4Q526.2 185.4 526.6 185.1Q527.0 184.8 527.2 184.2Q527.4 183.6 527.4 182.9L527.4 182.9Q527.4 182.2 527.2 181.6Q527.0 181.1 526.6 180.8Q526.2 180.4 525.6 180.4L525.6 180.4Q525.0 180.4 524.6 180.8Q524.2 181.1 524.0 181.6Q523.8 182.2 523.8 182.9L523.8 182.9Q523.8 183.6 524.0 184.2Q524.2 184.8 524.6 185.1Q525.0 185.4 525.6 185.4ZM534.1 187.1L534.1 187.1Q533.2 187.1 532.4 186.7Q531.7 186.2 531.2 185.2Q530.8 184.3 530.8 182.9L530.8 182.9Q530.8 181.5 531.2 180.6Q531.7 179.6 532.4 179.2Q533.2 178.7 534.1 178.7L534.1 178.7Q534.8 178.7 535.3 178.9Q535.7 179.2 536.0 179.5Q536.3 179.9 536.4 180.2L536.4 180.2L536.5 180.2L536.5 176.1L538.7 176.1L538.7 187L536.5 187L536.5 185.7L536.4 185.7Q536.3 186.0 536.0 186.4Q535.7 186.7 535.2 186.9Q534.8 187.1 534.1 187.1ZM534.8 185.4L534.8 185.4Q535.4 185.4 535.7 185.1Q536.1 184.8 536.3 184.2Q536.6 183.7 536.6 182.9L536.6 182.9Q536.6 182.2 536.4 181.6Q536.2 181.1 535.8 180.8Q535.4 180.5 534.8 180.5L534.8 180.5Q534.2 180.5 533.8 180.8Q533.4 181.1 533.2 181.6Q533.0 182.2 533.0 182.9L533.0 182.9Q533.0 183.6 533.2 184.2Q533.4 184.7 533.8 185.1Q534.2 185.4 534.8 185.4ZM543.4 187.1L543.4 187.1Q542.6 187.1 541.9 186.7Q541.3 186.4 540.9 185.7Q540.6 185.0 540.6 184.0L540.6 184.0L540.6 178.8L542.8 178.8L542.8 183.6Q542.8 184.4 543.2 184.8Q543.6 185.3 544.3 185.3L544.3 185.3Q544.7 185.3 545.1 185.1Q545.4 184.9 545.6 184.5Q545.8 184.1 545.8 183.6L545.8 183.6L545.8 178.8L548.1 178.8L548.1 187L546.0 187L546.0 185.3Q545.6 186.1 545.1 186.5L545.1 186.5Q544.4 187.1 543.4 187.1ZM553.6 187.2L553.6 187.2Q552.3 187.2 551.4 186.6Q550.5 186.1 550.1 185.2Q549.6 184.2 549.6 182.9L549.6 182.9Q549.6 181.7 550.1 180.7Q550.5 179.8 551.4 179.2Q552.3 178.7 553.6 178.7L553.6 178.7Q554.3 178.7 554.9 178.9Q555.5 179.1 556.0 179.4Q556.5 179.8 556.8 180.3Q557.1 180.8 557.2 181.4L557.2 181.4L555.2 181.8Q555.1 181.5 555.0 181.2Q554.8 181.0 554.6 180.8Q554.4 180.6 554.2 180.5Q553.9 180.4 553.6 180.4L553.6 180.4Q553.0 180.4 552.6 180.8Q552.2 181.1 552.0 181.6Q551.8 182.2 551.8 182.9L551.8 182.9Q551.8 183.7 552.0 184.2Q552.2 184.8 552.6 185.1Q553.0 185.4 553.6 185.4L553.6 185.4Q553.9 185.4 554.2 185.3Q554.4 185.2 554.7 185.0Q554.9 184.9 555.0 184.6Q555.1 184.3 555.2 184.0L555.2 184.0L557.2 184.4Q557.1 185.0 556.8 185.5Q556.5 186.0 556.0 186.4Q555.6 186.8 554.9 187.0Q554.3 187.2 553.6 187.2ZM561.3 178.8L562.8 178.8L562.8 180.5L561.3 180.5L561.3 184.6Q561.3 185.0 561.5 185.2Q561.6 185.4 562.0 185.4L562.0 185.4Q562.2 185.4 562.4 185.3Q562.6 185.3 562.7 185.3L562.7 185.3L563.0 186.9Q562.7 187.0 562.3 187.1Q561.9 187.1 561.6 187.1L561.6 187.1Q560.4 187.1 559.7 186.5Q559.1 185.9 559.1 184.8L559.1 184.8L559.1 180.5L558.0 180.5L558.0 178.8L559.1 178.8L559.1 176.9L561.3 176.9L561.3 178.8ZM567.5 187.2L567.5 187.2Q566.5 187.2 565.7 186.9Q565.0 186.6 564.5 186.1Q564.0 185.5 563.9 184.8L563.9 184.8L565.9 184.4Q566.1 185.0 566.5 185.3Q566.9 185.5 567.6 185.5L567.6 185.5Q568.2 185.5 568.5 185.3Q568.9 185.1 568.9 184.7L568.9 184.7Q568.9 184.4 568.7 184.2Q568.4 184.0 567.9 183.9L567.9 183.9L566.4 183.6Q565.3 183.3 564.7 182.7Q564.1 182.2 564.1 181.3L564.1 181.3Q564.1 180.5 564.5 179.9Q564.9 179.3 565.7 179.0Q566.5 178.7 567.5 178.7L567.5 178.7Q568.5 178.7 569.2 179.0Q569.9 179.2 570.4 179.7Q570.8 180.2 570.9 180.9L570.9 180.9L569.0 181.2Q568.9 180.8 568.5 180.6Q568.2 180.3 567.6 180.3L567.6 180.3Q567.0 180.3 566.6 180.5Q566.3 180.7 566.3 181.1L566.3 181.1Q566.3 181.4 566.5 181.6Q566.8 181.9 567.3 182.0L567.3 182.0L568.8 182.3Q570.0 182.5 570.6 183.0Q571.2 183.6 571.2 184.5L571.2 184.5Q571.2 185.3 570.7 185.9Q570.2 186.5 569.4 186.8Q568.6 187.2 567.5 187.2Z "/></g><mask id="satori_om-id-1-1-3"><rect x="575" y="173" width="2" height="17" fill="#fff" mask="url(#satori_om-id)"/></mask><rect x="575" y="173" width="2" height="17" fill="#22d3ee" clip-path="url(#satori_cp-id)" mask="url(#satori_om-id)"/><mask id="satori_om-id-1-1-3-0"><rect x="575" y="173" width="0" height="17" fill="#fff" mask="url(#satori_om-id)"/></mask><mask id="satori_om-id-1-2"><rect x="259" y="217" width="382" height="28" fill="#fff" mask="url(#satori_om-id)"/></mask><defs><clipPath id="satori_bc-id-1-2-0" clip-path="url(#satori_cp-id)"><path x="259" y="217" width="133" height="28" d="M273,217 h105 a14,14 0 0 1 14,14 v0 a14,14 0 0 1 -14,14 h-105 a14,14 0 0 1 -14,-14 v0 a14,14 0 0 1 14,-14"/></clipPath></defs><mask id="satori_om-id-1-2-0"><rect x="260" y="218" width="131" height="26" fill="#fff" mask="url(#satori_om-id)"/><path width="133" height="28" fill="none" stroke="#000" stroke-width="2" d="M263.101,221.101 A14,14 0 0 1 273,217 h105 a14,14 0 0 1 14,14 v0 a14,14 0 0 1 -14,14 h-105 a14,14 0 0 1 -14,-14 v0 A14,14 0 0 1 263.101,221.101"/></mask><path width="133" height="28" clip-path="url(#satori_bc-id-1-2-0)" fill="none" stroke="#22d3ee55" stroke-width="2" d="M263.101,221.101 A14,14 0 0 1 273,217 h105 a14,14 0 0 1 14,14 v0 a14,14 0 0 1 -14,14 h-105 a14,14 0 0 1 -14,-14 v0 A14,14 0 0 1 263.101,221.101"/><g mask="url(#satori_om-id)" clip-path="url(#satori_cp-id)"><path fill="#22d3ee" d="M279.2 234.1L274.8 234.1L274.8 233.1L278.9 226.5L280.4 226.5L280.4 233.0L281.6 233.0L281.6 234.1L280.4 234.1L280.4 236L279.2 236L279.2 234.1ZM276.1 233.0L279.2 233.0L279.2 228.1L279.1 228.1L276.1 232.9L276.1 233.0Z M289.0 236.2L289.0 236.2Q288.4 236.2 287.8 235.9Q287.3 235.7 286.9 235.2Q286.6 234.7 286.6 234.0L286.6 234.0Q286.6 233.4 286.9 233.0Q287.1 232.6 287.5 232.4Q287.9 232.2 288.4 232.1Q288.9 232.0 289.4 231.9L289.4 231.9Q290.0 231.8 290.4 231.8Q290.8 231.7 291.0 231.6Q291.2 231.5 291.2 231.2L291.2 231.2L291.2 231.2Q291.2 230.8 291.0 230.5Q290.9 230.1 290.5 230.0Q290.2 229.8 289.7 229.8L289.7 229.8Q289.2 229.8 288.9 230.0Q288.5 230.1 288.3 230.4Q288.0 230.6 287.9 230.9L287.9 230.9L286.8 230.5Q287.1 229.8 287.6 229.5Q288.0 229.1 288.6 229.0Q289.1 228.8 289.7 228.8L289.7 228.8Q290.0 228.8 290.5 228.9Q291.0 229.0 291.4 229.2Q291.8 229.5 292.1 230.0Q292.4 230.5 292.4 231.3L292.4 231.3L292.4 236L291.2 236L291.2 235.0L291.2 235.0Q291.0 235.3 290.8 235.5Q290.5 235.8 290.1 236.0Q289.6 236.2 289.0 236.2ZM289.2 235.2L289.2 235.2Q289.9 235.2 290.3 234.9Q290.8 234.7 291.0 234.3Q291.2 233.9 291.2 233.4L291.2 233.4L291.2 232.5Q291.1 232.5 290.9 232.6Q290.7 232.7 290.4 232.7Q290.1 232.8 289.8 232.8Q289.5 232.8 289.3 232.9L289.3 232.9Q288.9 232.9 288.6 233.0Q288.2 233.2 288.0 233.4Q287.8 233.6 287.8 234.0L287.8 234.0Q287.8 234.4 288.0 234.7Q288.2 234.9 288.5 235.0Q288.8 235.2 289.2 235.2ZM295.5 231.7L295.5 231.7L295.5 236L294.4 236L294.4 228.9L295.5 228.9L295.5 230.2Q295.8 229.6 296.2 229.2L296.2 229.2Q296.8 228.8 297.6 228.8L297.6 228.8Q298.3 228.8 298.9 229.1Q299.4 229.4 299.7 230.0Q300.0 230.6 300.0 231.5L300.0 231.5L300.0 236L298.9 236L298.9 231.6Q298.9 230.8 298.5 230.3Q298.0 229.8 297.3 229.8L297.3 229.8Q296.8 229.8 296.4 230.1Q296.0 230.3 295.7 230.7Q295.5 231.1 295.5 231.7ZM304.4 236.2L304.4 236.2Q303.7 236.2 303.2 235.9Q302.6 235.7 302.2 235.3Q301.8 234.9 301.7 234.3L301.7 234.3L302.8 234.0Q303.0 234.6 303.4 234.9Q303.8 235.1 304.4 235.1L304.4 235.1Q305.2 235.1 305.6 234.8Q306.1 234.5 306.1 234.1L306.1 234.1Q306.1 233.7 305.8 233.5Q305.5 233.2 305.0 233.1L305.0 233.1L303.8 232.8Q302.9 232.6 302.4 232.1Q301.9 231.6 301.9 230.9L301.9 230.9Q301.9 230.3 302.3 229.8Q302.6 229.3 303.2 229.1Q303.8 228.8 304.6 228.8L304.6 228.8Q305.3 228.8 305.8 229.0Q306.3 229.3 306.6 229.6Q307.0 230.0 307.1 230.5L307.1 230.5L306.1 230.8Q305.9 230.4 305.6 230.1Q305.3 229.8 304.6 229.8L304.6 229.8Q303.9 229.8 303.5 230.1Q303.1 230.4 303.1 230.8L303.1 230.8Q303.1 231.2 303.4 231.4Q303.7 231.7 304.3 231.8L304.3 231.8L305.4 232.1Q306.3 232.3 306.8 232.8Q307.2 233.3 307.2 234.0L307.2 234.0Q307.2 234.6 306.9 235.1Q306.5 235.6 305.9 235.9Q305.3 236.2 304.4 236.2Z M314.5 236.2L314.5 236.2Q313.9 236.2 313.3 235.9Q312.8 235.7 312.4 235.2Q312.1 234.7 312.1 234.0L312.1 234.0Q312.1 233.4 312.4 233.0Q312.6 232.6 313.0 232.4Q313.4 232.2 313.9 232.1Q314.4 232.0 314.9 231.9L314.9 231.9Q315.5 231.8 315.9 231.8Q316.3 231.7 316.5 231.6Q316.7 231.5 316.7 231.2L316.7 231.2L316.7 231.2Q316.7 230.8 316.5 230.5Q316.4 230.1 316.0 230.0Q315.7 229.8 315.2 229.8L315.2 229.8Q314.7 229.8 314.4 230.0Q314.0 230.1 313.8 230.4Q313.5 230.6 313.4 230.9L313.4 230.9L312.3 230.5Q312.6 229.8 313.1 229.5Q313.5 229.1 314.1 229.0Q314.6 228.8 315.2 228.8L315.2 228.8Q315.5 228.8 316.0 228.9Q316.5 229.0 316.9 229.2Q317.3 229.5 317.6 230.0Q317.8 230.5 317.8 231.3L317.8 231.3L317.8 236L316.7 236L316.7 235.0L316.6 235.0Q316.5 235.3 316.3 235.5Q316.0 235.8 315.6 236.0Q315.1 236.2 314.5 236.2ZM314.7 235.2L314.7 235.2Q315.4 235.2 315.8 234.9Q316.3 234.7 316.5 234.3Q316.7 233.9 316.7 233.4L316.7 233.4L316.7 232.5Q316.6 232.5 316.4 232.6Q316.2 232.7 315.9 232.7Q315.6 232.8 315.3 232.8Q315.0 232.8 314.8 232.9L314.8 232.9Q314.4 232.9 314.1 233.0Q313.7 233.2 313.5 233.4Q313.3 233.6 313.3 234.0L313.3 234.0Q313.3 234.4 313.5 234.7Q313.7 234.9 314.0 235.0Q314.3 235.2 314.7 235.2ZM319.9 226.5L321.0 226.5L321.0 236L319.9 236L319.9 226.5ZM324.3 228.9L325.8 228.9L325.8 229.9L324.3 229.9L324.3 234.2Q324.3 234.6 324.5 234.9Q324.7 235.1 325.2 235.1L325.2 235.1Q325.3 235.1 325.5 235.0Q325.6 235.0 325.8 235.0L325.8 235.0L326.0 236.0Q325.8 236.0 325.6 236.1Q325.4 236.1 325.1 236.1L325.1 236.1Q324.2 236.1 323.7 235.6Q323.2 235.1 323.2 234.2L323.2 234.2L323.2 229.9L322.1 229.9L322.1 228.9L323.2 228.9L323.2 227.2L324.3 227.2L324.3 228.9ZM330.2 236.2L330.2 236.2Q329.2 236.2 328.5 235.7Q327.7 235.2 327.3 234.4Q326.9 233.6 326.9 232.5Q326.9 231.4 327.3 230.6Q327.7 229.8 328.4 229.3Q329.1 228.8 330.1 228.8L330.1 228.8Q330.7 228.8 331.2 229.0Q331.8 229.2 332.2 229.6Q332.7 230.0 332.9 230.7Q333.2 231.4 333.2 232.4L333.2 232.4L333.2 232.8L328.1 232.8Q328.1 233.5 328.3 234.0L328.3 234.0Q328.6 234.6 329.1 234.9Q329.6 235.1 330.2 235.1L330.2 235.1Q330.7 235.1 331.0 235.0Q331.4 234.9 331.6 234.7Q331.8 234.4 332.0 234.0L332.0 234.0L333.1 234.3Q332.9 234.9 332.5 235.3Q332.1 235.7 331.6 235.9Q331.0 236.2 330.2 236.2ZM328.1 231.9L328.1 231.9L332.0 231.9Q332.0 231.4 331.8 231.0L331.8 231.0Q331.6 230.4 331.2 230.1Q330.7 229.8 330.1 229.8Q329.5 229.8 329.0 230.1Q328.6 230.5 328.3 231.0L328.3 231.0Q328.1 231.4 328.1 231.9ZM336.0 236L334.8 236L334.8 228.9L335.9 228.9L335.9 230.0L336.0 230.0Q336.2 229.5 336.7 229.1Q337.2 228.8 337.9 228.8L337.9 228.8Q338.0 228.8 338.2 228.8Q338.3 228.8 338.4 228.8L338.4 228.8L338.4 230.0Q338.4 230.0 338.2 229.9Q338.0 229.9 337.7 229.9L337.7 229.9Q337.2 229.9 336.8 230.1Q336.4 230.3 336.2 230.7Q336.0 231.1 336.0 231.6L336.0 231.6L336.0 236ZM340.9 231.7L340.9 231.7L340.9 236L339.7 236L339.7 228.9L340.8 228.9L340.8 230.2Q341.1 229.6 341.6 229.2L341.6 229.2Q342.2 228.8 343.0 228.8L343.0 228.8Q343.7 228.8 344.3 229.1Q344.8 229.4 345.1 230.0Q345.4 230.6 345.4 231.5L345.4 231.5L345.4 236L344.3 236L344.3 231.6Q344.3 230.8 343.8 230.3Q343.4 229.8 342.7 229.8L342.7 229.8Q342.2 229.8 341.7 230.1Q341.3 230.3 341.1 230.7Q340.9 231.1 340.9 231.7ZM349.4 236.2L349.4 236.2Q348.7 236.2 348.2 235.9Q347.6 235.7 347.3 235.2Q347.0 234.7 347.0 234.0L347.0 234.0Q347.0 233.4 347.2 233.0Q347.5 232.6 347.9 232.4Q348.3 232.2 348.8 232.1Q349.2 232.0 349.7 231.9L349.7 231.9Q350.4 231.8 350.8 231.8Q351.2 231.7 351.4 231.6Q351.6 231.5 351.6 231.2L351.6 231.2L351.6 231.2Q351.6 230.8 351.4 230.5Q351.2 230.1 350.9 230.0Q350.6 229.8 350.1 229.8L350.1 229.8Q349.6 229.8 349.2 230.0Q348.8 230.1 348.6 230.4Q348.4 230.6 348.3 230.9L348.3 230.9L347.2 230.5Q347.5 229.8 347.9 229.5Q348.4 229.1 348.9 229.0Q349.5 228.8 350.0 228.8L350.0 228.8Q350.4 228.8 350.9 228.9Q351.3 229.0 351.7 229.2Q352.2 229.5 352.4 230.0Q352.7 230.5 352.7 231.3L352.7 231.3L352.7 236L351.6 236L351.6 235.0L351.5 235.0Q351.4 235.3 351.1 235.5Q350.9 235.8 350.4 236.0Q350.0 236.2 349.4 236.2ZM349.6 235.2L349.6 235.2Q350.2 235.2 350.7 234.9Q351.1 234.7 351.3 234.3Q351.6 233.9 351.6 233.4L351.6 233.4L351.6 232.5Q351.5 232.5 351.3 232.6Q351.0 232.7 350.7 232.7Q350.4 232.8 350.1 232.8Q349.9 232.8 349.7 232.9L349.7 232.9Q349.3 232.9 348.9 233.0Q348.6 233.2 348.3 233.4Q348.1 233.6 348.1 234.0L348.1 234.0Q348.1 234.4 348.3 234.7Q348.5 234.9 348.8 235.0Q349.2 235.2 349.6 235.2ZM355.9 231.7L355.9 231.7L355.9 236L354.7 236L354.7 228.9L355.8 228.9L355.8 230.2Q356.1 229.6 356.6 229.2L356.6 229.2Q357.2 228.8 358.0 228.8L358.0 228.8Q358.7 228.8 359.2 229.1Q359.8 229.4 360.1 230.0Q360.4 230.6 360.4 231.5L360.4 231.5L360.4 236L359.2 236L359.2 231.6Q359.2 230.8 358.8 230.3Q358.4 229.8 357.6 229.8L357.6 229.8Q357.1 229.8 356.7 230.1Q356.3 230.3 356.1 230.7Q355.9 231.1 355.9 231.7ZM365.3 236.2L365.3 236.2Q364.3 236.2 363.6 235.7Q362.9 235.2 362.5 234.4Q362.0 233.6 362.0 232.5L362.0 232.5Q362.0 231.4 362.5 230.6Q362.9 229.7 363.6 229.3Q364.3 228.8 365.3 228.8L365.3 228.8Q365.8 228.8 366.3 228.9Q366.7 229.1 367.1 229.3Q367.5 229.6 367.7 229.9Q368.0 230.3 368.2 230.8L368.2 230.8L367.1 231.1Q367.0 230.8 366.8 230.6Q366.7 230.4 366.4 230.2Q366.2 230.0 365.9 229.9Q365.6 229.8 365.3 229.8L365.3 229.8Q364.6 229.8 364.1 230.2Q363.7 230.6 363.4 231.2Q363.2 231.8 363.2 232.5L363.2 232.5Q363.2 233.2 363.4 233.8Q363.7 234.4 364.1 234.8Q364.6 235.1 365.3 235.1L365.3 235.1Q365.6 235.1 365.9 235.0Q366.2 234.9 366.5 234.8Q366.7 234.6 366.9 234.3Q367.0 234.1 367.1 233.8L367.1 233.8L368.2 234.1Q368.0 234.6 367.8 235.0Q367.5 235.4 367.1 235.6Q366.7 235.9 366.3 236.0Q365.8 236.2 365.3 236.2ZM372.8 236.2L372.8 236.2Q371.8 236.2 371.0 235.7Q370.3 235.2 369.9 234.4Q369.5 233.6 369.5 232.5Q369.5 231.4 369.9 230.6Q370.3 229.8 371.0 229.3Q371.7 228.8 372.7 228.8L372.7 228.8Q373.2 228.8 373.8 229.0Q374.3 229.2 374.8 229.6Q375.2 230.0 375.5 230.7Q375.8 231.4 375.8 232.4L375.8 232.4L375.8 232.8L370.6 232.8Q370.7 233.5 370.9 234.0L370.9 234.0Q371.2 234.6 371.7 234.9Q372.2 235.1 372.8 235.1L372.8 235.1Q373.2 235.1 373.6 235.0Q373.9 234.9 374.2 234.7Q374.4 234.4 374.5 234.0L374.5 234.0L375.6 234.3Q375.5 234.9 375.1 235.3Q374.7 235.7 374.1 235.9Q373.5 236.2 372.8 236.2ZM370.6 231.9L370.6 231.9L374.6 231.9Q374.6 231.4 374.4 231.0L374.4 231.0Q374.2 230.4 373.7 230.1Q373.3 229.8 372.7 229.8Q372.0 229.8 371.6 230.1Q371.1 230.5 370.9 231.0L370.9 231.0Q370.7 231.4 370.6 231.9Z "/></g><defs><clipPath id="satori_bc-id-1-2-1" clip-path="url(#satori_cp-id)"><path x="402" y="217" width="126" height="28" d="M416,217 h98 a14,14 0 0 1 14,14 v0 a14,14 0 0 1 -14,14 h-98 a14,14 0 0 1 -14,-14 v0 a14,14 0 0 1 14,-14"/></clipPath></defs><mask id="satori_om-id-1-2-1"><rect x="403" y="218" width="124" height="26" fill="#fff" mask="url(#satori_om-id)"/><path width="126" height="28" fill="none" stroke="#000" stroke-width="2" d="M406.101,221.101 A14,14 0 0 1 416,217 h98 a14,14 0 0 1 14,14 v0 a14,14 0 0 1 -14,14 h-98 a14,14 0 0 1 -14,-14 v0 A14,14 0 0 1 406.101,221.101"/></mask><path width="126" height="28" clip-path="url(#satori_bc-id-1-2-1)" fill="none" stroke="#a78bfa55" stroke-width="2" d="M406.101,221.101 A14,14 0 0 1 416,217 h98 a14,14 0 0 1 14,14 v0 a14,14 0 0 1 -14,14 h-98 a14,14 0 0 1 -14,-14 v0 A14,14 0 0 1 406.101,221.101"/><g mask="url(#satori_om-id)" clip-path="url(#satori_cp-id)"><path fill="#a78bfa" d="M424.0 236L418.0 236L418.0 235.1L421.1 231.7Q421.6 231.2 422.0 230.7Q422.3 230.3 422.5 229.9Q422.7 229.5 422.7 229.1L422.7 229.1Q422.7 228.6 422.5 228.2Q422.2 227.8 421.8 227.7Q421.4 227.5 420.9 227.5L420.9 227.5Q420.4 227.5 420.0 227.7Q419.6 227.9 419.4 228.3Q419.2 228.7 419.2 229.2L419.2 229.2L418.0 229.2Q418.0 228.4 418.4 227.8Q418.8 227.1 419.4 226.8Q420.1 226.4 421.0 226.4L421.0 226.4Q421.8 226.4 422.4 226.8Q423.1 227.1 423.5 227.7Q423.8 228.3 423.8 229.1L423.8 229.1Q423.8 229.6 423.7 230.1Q423.5 230.5 423.0 231.2Q422.5 231.8 421.7 232.7L421.7 232.7L419.6 234.9L419.6 234.9L424.0 234.9L424.0 236Z M431.6 236.2L431.6 236.2Q430.9 236.2 430.4 235.9Q429.8 235.7 429.5 235.2Q429.2 234.7 429.2 234.0L429.2 234.0Q429.2 233.4 429.4 233.0Q429.6 232.6 430.0 232.4Q430.4 232.2 430.9 232.1Q431.4 232.0 431.9 231.9L431.9 231.9Q432.6 231.8 433.0 231.8Q433.4 231.7 433.5 231.6Q433.7 231.5 433.7 231.2L433.7 231.2L433.7 231.2Q433.7 230.8 433.6 230.5Q433.4 230.1 433.1 230.0Q432.7 229.8 432.3 229.8L432.3 229.8Q431.7 229.8 431.4 230.0Q431.0 230.1 430.8 230.4Q430.6 230.6 430.5 230.9L430.5 230.9L429.4 230.5Q429.6 229.8 430.1 229.5Q430.6 229.1 431.1 229.0Q431.7 228.8 432.2 228.8L432.2 228.8Q432.6 228.8 433.0 228.9Q433.5 229.0 433.9 229.2Q434.3 229.5 434.6 230.0Q434.9 230.5 434.9 231.3L434.9 231.3L434.9 236L433.8 236L433.8 235.0L433.7 235.0Q433.6 235.3 433.3 235.5Q433.0 235.8 432.6 236.0Q432.2 236.2 431.6 236.2ZM431.8 235.2L431.8 235.2Q432.4 235.2 432.8 234.9Q433.3 234.7 433.5 234.3Q433.7 233.9 433.7 233.4L433.7 233.4L433.7 232.5Q433.7 232.5 433.4 232.6Q433.2 232.7 432.9 232.7Q432.6 232.8 432.3 232.8Q432.0 232.8 431.9 232.9L431.9 232.9Q431.5 232.9 431.1 233.0Q430.7 233.2 430.5 233.4Q430.3 233.6 430.3 234.0L430.3 234.0Q430.3 234.4 430.5 234.7Q430.7 234.9 431.0 235.0Q431.3 235.2 431.8 235.2ZM438.0 231.7L438.0 231.7L438.0 236L436.9 236L436.9 228.9L438.0 228.9L438.0 230.2Q438.3 229.6 438.8 229.2L438.8 229.2Q439.4 228.8 440.2 228.8L440.2 228.8Q440.9 228.8 441.4 229.1Q442.0 229.4 442.3 230.0Q442.6 230.6 442.6 231.5L442.6 231.5L442.6 236L441.4 236L441.4 231.6Q441.4 230.8 441.0 230.3Q440.6 229.8 439.8 229.8L439.8 229.8Q439.3 229.8 438.9 230.1Q438.5 230.3 438.3 230.7Q438.0 231.1 438.0 231.7ZM447.0 236.2L447.0 236.2Q446.3 236.2 445.7 235.9Q445.1 235.7 444.7 235.3Q444.4 234.9 444.3 234.3L444.3 234.3L445.3 234.0Q445.5 234.6 445.9 234.9Q446.3 235.1 447.0 235.1L447.0 235.1Q447.7 235.1 448.2 234.8Q448.6 234.5 448.6 234.1L448.6 234.1Q448.6 233.7 448.3 233.5Q448.1 233.2 447.6 233.1L447.6 233.1L446.4 232.8Q445.4 232.6 444.9 232.1Q444.5 231.6 444.5 230.9L444.5 230.9Q444.5 230.3 444.8 229.8Q445.2 229.3 445.7 229.1Q446.3 228.8 447.1 228.8L447.1 228.8Q447.8 228.8 448.3 229.0Q448.8 229.3 449.2 229.6Q449.5 230.0 449.6 230.5L449.6 230.5L448.6 230.8Q448.5 230.4 448.1 230.1Q447.8 229.8 447.1 229.8L447.1 229.8Q446.5 229.8 446.0 230.1Q445.6 230.4 445.6 230.8L445.6 230.8Q445.6 231.2 445.9 231.4Q446.2 231.7 446.8 231.8L446.8 231.8L447.9 232.1Q448.9 232.3 449.3 232.8Q449.8 233.3 449.8 234.0L449.8 234.0Q449.8 234.6 449.4 235.1Q449.1 235.6 448.4 235.9Q447.8 236.2 447.0 236.2Z M456.7 228.9L458.4 228.9L458.4 229.9L456.7 229.9L456.7 236L455.6 236L455.6 229.9L454.2 229.9L454.2 228.9L455.6 228.9L455.6 228.0Q455.6 227.3 455.9 226.9Q456.2 226.5 456.6 226.3Q457.1 226.1 457.6 226.1L457.6 226.1Q458.0 226.1 458.3 226.2Q458.6 226.2 458.7 226.3L458.7 226.3L458.4 227.3Q458.3 227.2 458.1 227.2Q458.0 227.2 457.8 227.2L457.8 227.2Q457.2 227.2 457.0 227.4Q456.7 227.7 456.7 228.2L456.7 228.2L456.7 228.9ZM461.0 236L459.9 236L459.9 228.9L461.0 228.9L461.0 230.0L461.1 230.0Q461.3 229.5 461.8 229.1Q462.3 228.8 462.9 228.8L462.9 228.8Q463.0 228.8 463.2 228.8Q463.4 228.8 463.5 228.8L463.5 228.8L463.5 230.0Q463.4 230.0 463.2 229.9Q463.0 229.9 462.8 229.9L462.8 229.9Q462.3 229.9 461.9 230.1Q461.5 230.3 461.3 230.7Q461.0 231.1 461.0 231.6L461.0 231.6L461.0 236ZM467.8 236.2L467.8 236.2Q466.7 236.2 466.0 235.7Q465.3 235.2 464.9 234.4Q464.4 233.6 464.4 232.5Q464.4 231.4 464.8 230.6Q465.2 229.8 466.0 229.3Q466.7 228.8 467.6 228.8L467.6 228.8Q468.2 228.8 468.8 229.0Q469.3 229.2 469.8 229.6Q470.2 230.0 470.5 230.7Q470.7 231.4 470.7 232.4L470.7 232.4L470.7 232.8L465.6 232.8Q465.6 233.5 465.9 234.0L465.9 234.0Q466.1 234.6 466.6 234.9Q467.1 235.1 467.8 235.1L467.8 235.1Q468.2 235.1 468.5 235.0Q468.9 234.9 469.1 234.7Q469.4 234.4 469.5 234.0L469.5 234.0L470.6 234.3Q470.5 234.9 470.1 235.3Q469.7 235.7 469.1 235.9Q468.5 236.2 467.8 236.2ZM465.6 231.9L465.6 231.9L469.6 231.9Q469.5 231.4 469.4 231.0L469.4 231.0Q469.1 230.4 468.7 230.1Q468.3 229.8 467.6 229.8Q467.0 229.8 466.5 230.1Q466.1 230.5 465.8 231.0L465.8 231.0Q465.6 231.4 465.6 231.9ZM475.4 236.2L475.4 236.2Q474.3 236.2 473.6 235.7Q472.8 235.2 472.4 234.4Q472.0 233.6 472.0 232.5Q472.0 231.4 472.4 230.6Q472.8 229.8 473.5 229.3Q474.3 228.8 475.2 228.8L475.2 228.8Q475.8 228.8 476.3 229.0Q476.9 229.2 477.3 229.6Q477.8 230.0 478.0 230.7Q478.3 231.4 478.3 232.4L478.3 232.4L478.3 232.8L473.2 232.8Q473.2 233.5 473.5 234.0L473.5 234.0Q473.7 234.6 474.2 234.9Q474.7 235.1 475.4 235.1L475.4 235.1Q475.8 235.1 476.1 235.0Q476.5 234.9 476.7 234.7Q477.0 234.4 477.1 234.0L477.1 234.0L478.2 234.3Q478.0 234.9 477.6 235.3Q477.2 235.7 476.7 235.9Q476.1 236.2 475.4 236.2ZM473.2 231.9L473.2 231.9L477.2 231.9Q477.1 231.4 476.9 231.0L476.9 231.0Q476.7 230.4 476.3 230.1Q475.9 229.8 475.2 229.8Q474.6 229.8 474.1 230.1Q473.7 230.5 473.4 231.0L473.4 231.0Q473.2 231.4 473.2 231.9ZM479.9 226.5L481.1 226.5L481.1 236L479.9 236L479.9 226.5ZM485.1 236.2L485.1 236.2Q484.4 236.2 483.9 235.9Q483.3 235.7 483.0 235.2Q482.7 234.7 482.7 234.0L482.7 234.0Q482.7 233.4 482.9 233.0Q483.1 232.6 483.6 232.4Q484.0 232.2 484.4 232.1Q484.9 232.0 485.4 231.9L485.4 231.9Q486.1 231.8 486.5 231.8Q486.9 231.7 487.1 231.6Q487.2 231.5 487.2 231.2L487.2 231.2L487.2 231.2Q487.2 230.8 487.1 230.5Q486.9 230.1 486.6 230.0Q486.3 229.8 485.8 229.8L485.8 229.8Q485.3 229.8 484.9 230.0Q484.5 230.1 484.3 230.4Q484.1 230.6 484.0 230.9L484.0 230.9L482.9 230.5Q483.1 229.8 483.6 229.5Q484.1 229.1 484.6 229.0Q485.2 228.8 485.7 228.8L485.7 228.8Q486.1 228.8 486.5 228.9Q487.0 229.0 487.4 229.2Q487.8 229.5 488.1 230.0Q488.4 230.5 488.4 231.3L488.4 231.3L488.4 236L487.3 236L487.3 235.0L487.2 235.0Q487.1 235.3 486.8 235.5Q486.5 235.8 486.1 236.0Q485.7 236.2 485.1 236.2ZM485.3 235.2L485.3 235.2Q485.9 235.2 486.4 234.9Q486.8 234.7 487.0 234.3Q487.2 233.9 487.2 233.4L487.2 233.4L487.2 232.5Q487.2 232.5 486.9 232.6Q486.7 232.7 486.4 232.7Q486.1 232.8 485.8 232.8Q485.5 232.8 485.4 232.9L485.4 232.9Q485.0 232.9 484.6 233.0Q484.2 233.2 484.0 233.4Q483.8 233.6 483.8 234.0L483.8 234.0Q483.8 234.4 484.0 234.7Q484.2 234.9 484.5 235.0Q484.9 235.2 485.3 235.2ZM491.5 231.7L491.5 231.7L491.5 236L490.4 236L490.4 228.9L491.5 228.9L491.5 230.2Q491.8 229.6 492.3 229.2L492.3 229.2Q492.9 228.8 493.7 228.8L493.7 228.8Q494.4 228.8 494.9 229.1Q495.5 229.4 495.8 230.0Q496.1 230.6 496.1 231.5L496.1 231.5L496.1 236L494.9 236L494.9 231.6Q494.9 230.8 494.5 230.3Q494.1 229.8 493.3 229.8L493.3 229.8Q492.8 229.8 492.4 230.1Q492.0 230.3 491.8 230.7Q491.5 231.1 491.5 231.7ZM501.0 236.2L501.0 236.2Q500.0 236.2 499.3 235.7Q498.5 235.2 498.1 234.4Q497.7 233.6 497.7 232.5L497.7 232.5Q497.7 231.4 498.1 230.6Q498.5 229.7 499.3 229.3Q500.0 228.8 501.0 228.8L501.0 228.8Q501.5 228.8 501.9 228.9Q502.4 229.1 502.8 229.3Q503.2 229.6 503.4 229.9Q503.7 230.3 503.8 230.8L503.8 230.8L502.7 231.1Q502.7 230.8 502.5 230.6Q502.4 230.4 502.1 230.2Q501.9 230.0 501.6 229.9Q501.3 229.8 501.0 229.8L501.0 229.8Q500.3 229.8 499.8 230.2Q499.3 230.6 499.1 231.2Q498.9 231.8 498.9 232.5L498.9 232.5Q498.9 233.2 499.1 233.8Q499.3 234.4 499.8 234.8Q500.3 235.1 501.0 235.1L501.0 235.1Q501.3 235.1 501.6 235.0Q501.9 234.9 502.2 234.8Q502.4 234.6 502.5 234.3Q502.7 234.1 502.8 233.8L502.8 233.8L503.9 234.1Q503.7 234.6 503.5 235.0Q503.2 235.4 502.8 235.6Q502.4 235.9 502.0 236.0Q501.5 236.2 501.0 236.2ZM508.5 236.2L508.5 236.2Q507.5 236.2 506.7 235.7Q506.0 235.2 505.6 234.4Q505.2 233.6 505.2 232.5Q505.2 231.4 505.6 230.6Q505.9 229.8 506.7 229.3Q507.4 228.8 508.4 228.8L508.4 228.8Q508.9 228.8 509.5 229.0Q510.0 229.2 510.5 229.6Q510.9 230.0 511.2 230.7Q511.4 231.4 511.4 232.4L511.4 232.4L511.4 232.8L506.3 232.8Q506.3 233.5 506.6 234.0L506.6 234.0Q506.9 234.6 507.4 234.9Q507.8 235.1 508.5 235.1L508.5 235.1Q508.9 235.1 509.3 235.0Q509.6 234.9 509.8 234.7Q510.1 234.4 510.2 234.0L510.2 234.0L511.3 234.3Q511.2 234.9 510.8 235.3Q510.4 235.7 509.8 235.9Q509.2 236.2 508.5 236.2ZM506.3 231.9L506.3 231.9L510.3 231.9Q510.2 231.4 510.1 231.0L510.1 231.0Q509.9 230.4 509.4 230.1Q509.0 229.8 508.4 229.8Q507.7 229.8 507.3 230.1Q506.8 230.5 506.6 231.0L506.6 231.0Q506.4 231.4 506.3 231.9Z "/></g><defs><clipPath id="satori_bc-id-1-2-2" clip-path="url(#satori_cp-id)"><path x="538" y="217" width="103" height="28" d="M552,217 h75 a14,14 0 0 1 14,14 v0 a14,14 0 0 1 -14,14 h-75 a14,14 0 0 1 -14,-14 v0 a14,14 0 0 1 14,-14"/></clipPath></defs><mask id="satori_om-id-1-2-2"><rect x="539" y="218" width="101" height="26" fill="#fff" mask="url(#satori_om-id)"/><path width="103" height="28" fill="none" stroke="#000" stroke-width="2" d="M542.101,221.101 A14,14 0 0 1 552,217 h75 a14,14 0 0 1 14,14 v0 a14,14 0 0 1 -14,14 h-75 a14,14 0 0 1 -14,-14 v0 A14,14 0 0 1 542.101,221.101"/></mask><path width="103" height="28" clip-path="url(#satori_bc-id-1-2-2)" fill="none" stroke="#f472b655" stroke-width="2" d="M542.101,221.101 A14,14 0 0 1 552,217 h75 a14,14 0 0 1 14,14 v0 a14,14 0 0 1 -14,14 h-75 a14,14 0 0 1 -14,-14 v0 A14,14 0 0 1 542.101,221.101"/><g mask="url(#satori_om-id)" clip-path="url(#satori_cp-id)"><path fill="#f472b6" d="M556.9 236.2L556.9 236.2Q555.9 236.2 555.2 235.7Q554.5 235.2 554.1 234.4Q553.7 233.6 553.7 232.5L553.7 232.5Q553.7 231.4 554.1 230.6Q554.5 229.7 555.2 229.3Q555.9 228.8 556.9 228.8L556.9 228.8Q557.9 228.8 558.6 229.3Q559.3 229.7 559.7 230.6Q560.1 231.4 560.1 232.5L560.1 232.5Q560.1 233.6 559.7 234.4Q559.3 235.2 558.6 235.7Q557.9 236.2 556.9 236.2ZM556.9 235.1L556.9 235.1Q557.6 235.1 558.1 234.8Q558.5 234.4 558.8 233.8Q559.0 233.2 559.0 232.5L559.0 232.5Q559.0 231.8 558.8 231.2Q558.5 230.6 558.1 230.2Q557.6 229.8 556.9 229.8L556.9 229.8Q556.2 229.8 555.7 230.2Q555.3 230.6 555.0 231.2Q554.8 231.8 554.8 232.5L554.8 232.5Q554.8 233.2 555.0 233.8Q555.3 234.4 555.7 234.8Q556.2 235.1 556.9 235.1ZM562.9 238.7L561.8 238.7L561.8 228.9L562.9 228.9L562.9 230.0L563.0 230.0Q563.1 229.8 563.4 229.6Q563.6 229.3 564.0 229.0Q564.4 228.8 565.1 228.8L565.1 228.8Q566.0 228.8 566.7 229.3Q567.3 229.7 567.7 230.5Q568.1 231.3 568.1 232.5L568.1 232.5Q568.1 233.6 567.7 234.4Q567.3 235.3 566.7 235.7Q566.0 236.2 565.1 236.2L565.1 236.2Q564.4 236.2 564.0 235.9Q563.6 235.7 563.4 235.4Q563.1 235.1 563.0 234.9L563.0 234.9L562.9 234.9L562.9 238.7ZM564.9 235.1L564.9 235.1Q565.6 235.1 566.0 234.8Q566.5 234.4 566.7 233.8Q566.9 233.2 566.9 232.5L566.9 232.5Q566.9 231.7 566.7 231.1Q566.5 230.5 566.0 230.2Q565.6 229.8 564.9 229.8L564.9 229.8Q564.3 229.8 563.8 230.2Q563.4 230.5 563.2 231.1Q562.9 231.7 562.9 232.5L562.9 232.5Q562.9 233.2 563.2 233.8Q563.4 234.5 563.8 234.8Q564.3 235.1 564.9 235.1ZM572.7 236.2L572.7 236.2Q571.7 236.2 571.0 235.7Q570.2 235.2 569.8 234.4Q569.4 233.6 569.4 232.5Q569.4 231.4 569.8 230.6Q570.2 229.8 570.9 229.3Q571.6 228.8 572.6 228.8L572.6 228.8Q573.2 228.8 573.7 229.0Q574.3 229.2 574.7 229.6Q575.2 230.0 575.4 230.7Q575.7 231.4 575.7 232.4L575.7 232.4L575.7 232.8L570.6 232.8Q570.6 233.5 570.8 234.0L570.8 234.0Q571.1 234.6 571.6 234.9Q572.1 235.1 572.7 235.1L572.7 235.1Q573.2 235.1 573.5 235.0Q573.9 234.9 574.1 234.7Q574.3 234.4 574.5 234.0L574.5 234.0L575.6 234.3Q575.4 234.9 575.0 235.3Q574.6 235.7 574.1 235.9Q573.5 236.2 572.7 236.2ZM570.6 231.9L570.6 231.9L574.5 231.9Q574.5 231.4 574.3 231.0L574.3 231.0Q574.1 230.4 573.7 230.1Q573.2 229.8 572.6 229.8Q572.0 229.8 571.5 230.1Q571.1 230.5 570.8 231.0L570.8 231.0Q570.6 231.4 570.6 231.9ZM578.5 231.7L578.5 231.7L578.5 236L577.3 236L577.3 228.9L578.4 228.9L578.4 230.2Q578.7 229.6 579.2 229.2L579.2 229.2Q579.8 228.8 580.6 228.8L580.6 228.8Q581.3 228.8 581.9 229.1Q582.4 229.4 582.7 230.0Q583.0 230.6 583.0 231.5L583.0 231.5L583.0 236L581.9 236L581.9 231.6Q581.9 230.8 581.4 230.3Q581.0 229.8 580.3 229.8L580.3 229.8Q579.8 229.8 579.4 230.1Q578.9 230.3 578.7 230.7Q578.5 231.1 578.5 231.7Z M590.0 228.9L591.5 228.9L591.5 229.9L590.0 229.9L590.0 234.2Q590.0 234.6 590.2 234.9Q590.4 235.1 590.8 235.1L590.8 235.1Q591.0 235.1 591.1 235.0Q591.3 235.0 591.4 235.0L591.4 235.0L591.7 236.0Q591.5 236.0 591.3 236.1Q591.0 236.1 590.8 236.1L590.8 236.1Q589.9 236.1 589.4 235.6Q588.9 235.1 588.9 234.2L588.9 234.2L588.9 229.9L587.8 229.9L587.8 228.9L588.9 228.9L588.9 227.2L590.0 227.2L590.0 228.9ZM595.8 236.2L595.8 236.2Q594.9 236.2 594.1 235.7Q593.4 235.2 593.0 234.4Q592.6 233.6 592.6 232.5L592.6 232.5Q592.6 231.4 593.0 230.6Q593.4 229.7 594.1 229.3Q594.9 228.8 595.8 228.8L595.8 228.8Q596.8 228.8 597.5 229.3Q598.2 229.7 598.7 230.6Q599.1 231.4 599.1 232.5L599.1 232.5Q599.1 233.6 598.7 234.4Q598.2 235.2 597.5 235.7Q596.8 236.2 595.8 236.2ZM595.8 235.1L595.8 235.1Q596.5 235.1 597.0 234.8Q597.5 234.4 597.7 233.8Q597.9 233.2 597.9 232.5L597.9 232.5Q597.9 231.8 597.7 231.2Q597.5 230.6 597.0 230.2Q596.5 229.8 595.8 229.8L595.8 229.8Q595.1 229.8 594.6 230.2Q594.2 230.6 594.0 231.2Q593.7 231.8 593.7 232.5L593.7 232.5Q593.7 233.2 594.0 233.8Q594.2 234.4 594.6 234.8Q595.1 235.1 595.8 235.1Z M608.3 236.1L608.3 236.1Q607.1 236.1 606.2 235.5Q605.2 235.0 604.7 233.9Q604.1 232.8 604.1 231.3L604.1 231.3Q604.1 229.8 604.7 228.7Q605.2 227.6 606.2 227.0Q607.1 226.4 608.3 226.4L608.3 226.4Q609.1 226.4 609.7 226.6Q610.3 226.8 610.8 227.2Q611.4 227.6 611.7 228.2Q612.0 228.8 612.2 229.5L612.2 229.5L611.0 229.5Q610.9 229.0 610.6 228.7Q610.4 228.3 610.0 228.0Q609.7 227.8 609.2 227.7Q608.8 227.5 608.3 227.5L608.3 227.5Q607.5 227.5 606.8 228.0Q606.1 228.4 605.7 229.2Q605.3 230.1 605.3 231.3L605.3 231.3Q605.3 232.5 605.7 233.3Q606.1 234.2 606.8 234.6Q607.5 235.0 608.3 235.0L608.3 235.0Q608.8 235.0 609.2 234.9Q609.7 234.7 610.0 234.5Q610.4 234.2 610.6 233.9Q610.9 233.5 611.0 233.0L611.0 233.0L612.2 233.0Q612.0 233.7 611.7 234.3Q611.4 234.9 610.9 235.3Q610.3 235.7 609.7 235.9Q609.1 236.1 608.3 236.1ZM617.0 236L617.0 236L614.0 236L614.0 226.5L617.1 226.5Q618.5 226.5 619.5 227.1Q620.4 227.7 621.0 228.7Q621.5 229.8 621.5 231.3L621.5 231.3Q621.5 232.7 621.0 233.8Q620.4 234.9 619.4 235.4Q618.4 236 617.0 236ZM615.2 227.6L615.2 234.9L616.9 234.9Q618.0 234.9 618.8 234.5Q619.6 234.1 619.9 233.2Q620.3 232.4 620.3 231.3L620.3 231.3Q620.3 230.1 619.9 229.3Q619.6 228.5 618.8 228.0Q618.1 227.6 617.0 227.6L617.0 227.6L615.2 227.6ZM623.4 226.5L624.6 226.5L624.6 236L623.4 236L623.4 226.5Z "/></g></svg>