<!-- Generated by readme-aura https://github.com/collectioneur/readme-aura -->
<svg width="900" height="90" viewBox="0 0 900 90" xmlns="http://www.w3.org/2000/svg"><defs><pattern id="satori_pattern_id_0" x="0" y="0" width="1" height="1" patternUnits="objectBoundingBox"><linearGradient id="satori_biid_0" x1="0" y1="0" x2="1" y2="0" spreadMethod="pad"><stop offset="0%" stop-color="#0a0c14"/><stop offset="100%" stop-color="#11141d"/></linearGradient><rect x="0" y="0" width="900" height="90" fill="url(#satori_biid_0)"/></pattern></defs><clipPath id="satori_cp-id"><path x="0" y="0" width="900" height="90" d="M16,0 h868 a16,16 0 0 1 16,16 v58 a16,16 0 0 1 -16,16 h-868 a16,16 0 0 1 -16,-16 v-58 a16,16 0 0 1 16,-16"/></clipPath><mask id="satori_om-id"><rect x="0" y="0" width="900" height="90" fill="#fff"/></mask><path x="0" y="0" width="900" height="90" fill="url(#satori_pattern_id_0)" d="M16,0 h868 a16,16 0 0 1 16,16 v58 a16,16 0 0 1 -16,16 h-868 a16,16 0 0 1 -16,-16 v-58 a16,16 0 0 1 16,-16"/><clipPath id="satori_bct-id-0" clip-path="url(#satori_cp-id)"><path d="M330.0 41L321.3 41L321.3 27.2L324.1 27.2L324.1 38.7L330.0 38.7L330.0 41ZM336.6 41.2L336.6 41.2Q335.0 41.2 333.9 40.6Q332.7 39.9 332.1 38.7Q331.5 37.5 331.5 35.9L331.5 35.9Q331.5 34.3 332.1 33.1Q332.7 31.9 333.8 31.2Q335.0 30.5 336.5 30.5L336.5 30.5Q337.5 30.5 338.4 30.8Q339.3 31.1 339.9 31.8Q340.6 32.5 341.0 33.4Q341.3 34.4 341.3 35.8L341.3 35.8L341.3 36.5L334.3 36.5Q334.3 37.3 334.6 37.9L334.6 37.9Q334.9 38.5 335.4 38.8Q335.9 39.1 336.7 39.1L336.7 39.1Q337.2 39.1 337.6 39.0Q338.0 38.8 338.2 38.6Q338.5 38.3 338.7 37.9L338.7 37.9L341.2 38.4Q340.9 39.2 340.3 39.9Q339.7 40.5 338.8 40.9Q337.8 41.2 336.6 41.2ZM334.3 34.8L334.3 34.8L338.7 34.8Q338.6 34.3 338.4 33.8L338.4 33.8Q338.2 33.3 337.7 32.9Q337.2 32.6 336.5 32.6L336.5 32.6Q335.8 32.6 335.3 32.9Q334.8 33.3 334.5 33.8L334.5 33.8Q334.3 34.3 334.3 34.8ZM346.5 30.6L348.4 30.6L348.4 32.8L346.5 32.8L346.5 38.0Q346.5 38.5 346.7 38.7Q346.9 38.9 347.4 38.9L347.4 38.9Q347.6 38.9 347.9 38.9Q348.1 38.8 348.3 38.8L348.3 38.8L348.7 40.9Q348.2 41.0 347.8 41.1Q347.3 41.1 346.9 41.1L346.9 41.1Q345.3 41.1 344.5 40.4Q343.7 39.6 343.7 38.2L343.7 38.2L343.7 32.8L342.2 32.8L342.2 30.6L343.7 30.6L343.7 28.2L346.5 28.2L346.5 30.6ZM353.3 32.9L351.2 32.9L350.9 27.2L353.6 27.2L353.3 32.9ZM360.8 41.2L360.8 41.2Q359.5 41.2 358.5 40.8Q357.6 40.5 357.0 39.8Q356.4 39.1 356.2 38.2L356.2 38.2L358.8 37.7Q359.0 38.4 359.5 38.8Q360.0 39.2 360.8 39.2L360.8 39.2Q361.6 39.2 362.1 38.9Q362.6 38.6 362.6 38.1L362.6 38.1Q362.6 37.7 362.2 37.4Q361.9 37.2 361.2 37.0L361.2 37.0L359.4 36.7Q357.9 36.4 357.2 35.6Q356.5 34.9 356.5 33.7L356.5 33.7Q356.5 32.7 357.0 32.0Q357.5 31.3 358.5 30.9Q359.5 30.5 360.8 30.5L360.8 30.5Q362.0 30.5 362.9 30.8Q363.8 31.2 364.4 31.8Q364.9 32.4 365.1 33.3L365.1 33.3L362.7 33.7Q362.5 33.2 362.1 32.8Q361.6 32.5 360.8 32.5L360.8 32.5Q360.2 32.5 359.7 32.8Q359.2 33.1 359.2 33.6L359.2 33.6Q359.2 33.9 359.5 34.2Q359.8 34.5 360.6 34.6L360.6 34.6L362.4 35.0Q363.9 35.3 364.7 36.0Q365.4 36.7 365.4 37.8L365.4 37.8Q365.4 38.8 364.8 39.6Q364.2 40.4 363.2 40.8Q362.1 41.2 360.8 41.2Z M377.6 41.2L377.6 41.2Q376.7 41.2 376.2 40.9Q375.6 40.6 375.2 40.2Q374.8 39.8 374.7 39.3L374.7 39.3L374.5 39.3L374.5 41L371.8 41L371.8 27.2L374.6 27.2L374.6 32.4L374.7 32.4Q374.8 32.0 375.2 31.5Q375.6 31.1 376.1 30.8Q376.7 30.5 377.6 30.5L377.6 30.5Q378.8 30.5 379.7 31.1Q380.7 31.7 381.2 32.9Q381.8 34.1 381.8 35.8L381.8 35.8Q381.8 37.6 381.3 38.8Q380.7 39.9 379.7 40.6Q378.8 41.2 377.6 41.2ZM376.7 38.9L376.7 38.9Q377.5 38.9 378.0 38.5Q378.5 38.1 378.7 37.4Q379.0 36.7 379.0 35.8L379.0 35.8Q379.0 34.9 378.7 34.2Q378.5 33.5 378.0 33.1Q377.5 32.7 376.7 32.7L376.7 32.7Q376.0 32.7 375.5 33.1Q375.0 33.5 374.8 34.2Q374.5 34.9 374.5 35.8L374.5 35.8Q374.5 36.8 374.8 37.5Q375.0 38.2 375.5 38.6Q376.0 38.9 376.7 38.9ZM387.3 41.1L387.3 41.1Q386.3 41.1 385.5 40.7Q384.6 40.2 384.2 39.3Q383.8 38.4 383.8 37.2L383.8 37.2L383.8 30.6L386.5 30.6L386.5 36.7Q386.5 37.7 387.0 38.3Q387.5 38.8 388.4 38.8L388.4 38.8Q389.0 38.8 389.5 38.5Q389.9 38.3 390.2 37.8Q390.4 37.3 390.4 36.6L390.4 36.6L390.4 30.6L393.2 30.6L393.2 41L390.6 41L390.6 38.8Q390.2 39.8 389.5 40.4L389.5 40.4Q388.6 41.1 387.3 41.1ZM398.4 41L395.6 41L395.6 30.6L398.4 30.6L398.4 41ZM397.0 29.3L397.0 29.3Q396.4 29.3 395.9 28.9Q395.5 28.4 395.5 27.8L395.5 27.8Q395.5 27.3 395.9 26.8Q396.4 26.4 397.0 26.4L397.0 26.4Q397.6 26.4 398.1 26.8Q398.5 27.2 398.5 27.8L398.5 27.8Q398.5 28.4 398.1 28.9Q397.6 29.3 397.0 29.3ZM400.7 27.2L403.5 27.2L403.5 41L400.7 41L400.7 27.2ZM409.7 41.2L409.7 41.2Q408.5 41.2 407.5 40.6Q406.6 39.9 406.0 38.8Q405.5 37.6 405.5 35.8L405.5 35.8Q405.5 34.1 406.0 32.9Q406.6 31.7 407.6 31.1Q408.5 30.5 409.7 30.5L409.7 30.5Q410.5 30.5 411.1 30.8Q411.7 31.1 412.1 31.5Q412.4 32.0 412.6 32.4L412.6 32.4L412.7 32.4L412.7 27.2L415.5 27.2L415.5 41L412.8 41L412.8 39.3L412.6 39.3Q412.4 39.8 412.1 40.2Q411.7 40.6 411.1 40.9Q410.5 41.2 409.7 41.2ZM410.5 38.9L410.5 38.9Q411.2 38.9 411.7 38.6Q412.2 38.2 412.5 37.5Q412.8 36.8 412.8 35.8L412.8 35.8Q412.8 34.9 412.5 34.2Q412.3 33.5 411.8 33.1Q411.3 32.7 410.5 32.7L410.5 32.7Q409.8 32.7 409.3 33.1Q408.8 33.5 408.6 34.2Q408.3 34.9 408.3 35.8L408.3 35.8Q408.3 36.7 408.6 37.4Q408.8 38.1 409.3 38.5Q409.8 38.9 410.5 38.9Z M426.5 41.2L426.5 41.2Q425.2 41.2 424.3 40.8Q423.3 40.5 422.7 39.8Q422.1 39.1 421.9 38.2L421.9 38.2L424.5 37.7Q424.7 38.4 425.2 38.8Q425.7 39.2 426.6 39.2L426.6 39.2Q427.4 39.2 427.8 38.9Q428.3 38.6 428.3 38.1L428.3 38.1Q428.3 37.7 428.0 37.4Q427.6 37.2 426.9 37.0L426.9 37.0L425.2 36.7Q423.7 36.4 422.9 35.6Q422.2 34.9 422.2 33.7L422.2 33.7Q422.2 32.7 422.7 32.0Q423.3 31.3 424.2 30.9Q425.2 30.5 426.5 30.5L426.5 30.5Q427.8 30.5 428.7 30.8Q429.6 31.2 430.1 31.8Q430.7 32.4 430.9 33.3L430.9 33.3L428.4 33.7Q428.2 33.2 427.8 32.8Q427.3 32.5 426.6 32.5L426.6 32.5Q425.9 32.5 425.4 32.8Q425.0 33.1 425.0 33.6L425.0 33.6Q425.0 33.9 425.3 34.2Q425.6 34.5 426.3 34.6L426.3 34.6L428.2 35.0Q429.7 35.3 430.4 36.0Q431.1 36.7 431.1 37.8L431.1 37.8Q431.1 38.8 430.5 39.6Q429.9 40.4 428.9 40.8Q427.8 41.2 426.5 41.2ZM437.6 41.2L437.6 41.2Q436.1 41.2 434.9 40.5Q433.8 39.9 433.2 38.7Q432.6 37.5 432.6 35.9L432.6 35.9Q432.6 34.2 433.2 33.0Q433.8 31.8 434.9 31.2Q436.1 30.5 437.6 30.5L437.6 30.5Q439.2 30.5 440.4 31.2Q441.5 31.8 442.1 33.0Q442.7 34.2 442.7 35.9L442.7 35.9Q442.7 37.5 442.1 38.7Q441.5 39.9 440.4 40.5Q439.2 41.2 437.6 41.2ZM437.6 39.0L437.6 39.0Q438.4 39.0 438.9 38.6Q439.4 38.2 439.6 37.5Q439.9 36.8 439.9 35.9L439.9 35.9Q439.9 34.9 439.6 34.2Q439.4 33.5 438.9 33.1Q438.4 32.7 437.6 32.7L437.6 32.7Q436.9 32.7 436.4 33.1Q435.9 33.5 435.7 34.2Q435.4 34.9 435.4 35.9L435.4 35.9Q435.4 36.8 435.7 37.5Q435.9 38.2 436.4 38.6Q436.9 39.0 437.6 39.0ZM447.4 41L444.7 41L444.7 30.6L447.2 30.6L447.4 32.6Q447.6 32.1 447.9 31.6L447.9 31.6Q448.4 31.0 449.0 30.8Q449.6 30.5 450.3 30.5L450.3 30.5Q451.4 30.5 452.1 31.2L452.1 31.2Q452.7 31.7 453.0 32.8L453.0 32.8Q453.2 32.2 453.6 31.7L453.6 31.7Q454.1 31.1 454.8 30.8Q455.5 30.5 456.3 30.5L456.3 30.5Q457.3 30.5 458.0 30.9Q458.8 31.3 459.2 32.1Q459.6 32.9 459.6 34.0L459.6 34.0L459.6 41L456.8 41L456.8 34.5Q456.8 33.7 456.4 33.2Q455.9 32.8 455.2 32.8L455.2 32.8Q454.7 32.8 454.3 33.0Q453.9 33.3 453.7 33.7Q453.5 34.1 453.5 34.6L453.5 34.6L453.5 41L450.8 41L450.8 34.5Q450.8 33.7 450.3 33.2Q449.9 32.8 449.2 32.8L449.2 32.8Q448.7 32.8 448.3 33.0Q447.9 33.2 447.7 33.7Q447.4 34.1 447.4 34.7L447.4 34.7L447.4 41ZM466.7 41.2L466.7 41.2Q465.1 41.2 463.9 40.6Q462.8 39.9 462.2 38.7Q461.6 37.5 461.6 35.9L461.6 35.9Q461.6 34.3 462.2 33.1Q462.8 31.9 463.9 31.2Q465.0 30.5 466.5 30.5L466.5 30.5Q467.6 30.5 468.4 30.8Q469.3 31.1 470.0 31.8Q470.7 32.5 471.0 33.4Q471.4 34.4 471.4 35.8L471.4 35.8L471.4 36.5L464.3 36.5Q464.3 37.3 464.6 37.9L464.6 37.9Q464.9 38.5 465.5 38.8Q466.0 39.1 466.7 39.1L466.7 39.1Q467.2 39.1 467.6 39.0Q468.0 38.8 468.3 38.6Q468.6 38.3 468.7 37.9L468.7 37.9L471.3 38.4Q471.0 39.2 470.4 39.9Q469.8 40.5 468.8 40.9Q467.9 41.2 466.7 41.2ZM464.3 34.8L464.3 34.8L468.7 34.8Q468.7 34.3 468.5 33.8L468.5 33.8Q468.3 33.3 467.8 32.9Q467.3 32.6 466.6 32.6L466.6 32.6Q465.8 32.6 465.3 32.9Q464.8 33.3 464.6 33.8L464.6 33.8Q464.4 34.3 464.3 34.8ZM476.5 30.6L478.5 30.6L478.5 32.8L476.5 32.8L476.5 38.0Q476.5 38.5 476.7 38.7Q477.0 38.9 477.5 38.9L477.5 38.9Q477.6 38.9 477.9 38.9Q478.2 38.8 478.4 38.8L478.4 38.8L478.8 40.9Q478.3 41.0 477.8 41.1Q477.4 41.1 477.0 41.1L477.0 41.1Q475.4 41.1 474.6 40.4Q473.7 39.6 473.7 38.2L473.7 38.2L473.7 32.8L472.3 32.8L472.3 30.6L473.7 30.6L473.7 28.2L476.5 28.2L476.5 30.6ZM483.1 35.0L483.1 35.0L483.1 41L480.3 41L480.3 27.2L483.0 27.2L483.0 32.6Q483.4 31.7 484.0 31.2L484.0 31.2Q484.8 30.5 486.2 30.5L486.2 30.5Q487.2 30.5 488.0 31.0Q488.8 31.4 489.3 32.3Q489.7 33.2 489.7 34.4L489.7 34.4L489.7 41L486.9 41L486.9 34.9Q486.9 33.9 486.4 33.4Q486.0 32.8 485.1 32.8L485.1 32.8Q484.5 32.8 484.0 33.1Q483.6 33.3 483.3 33.8Q483.1 34.3 483.1 35.0ZM494.9 41L492.1 41L492.1 30.6L494.9 30.6L494.9 41ZM493.5 29.3L493.5 29.3Q492.9 29.3 492.4 28.9Q492.0 28.4 492.0 27.8L492.0 27.8Q492.0 27.3 492.4 26.8Q492.9 26.4 493.5 26.4L493.5 26.4Q494.1 26.4 494.6 26.8Q495.0 27.2 495.0 27.8L495.0 27.8Q495.0 28.4 494.6 28.9Q494.1 29.3 493.5 29.3ZM500.0 35.0L500.0 35.0L500.0 41L497.3 41L497.3 30.6L499.9 30.6L499.9 32.8Q500.3 31.8 501.0 31.2L501.0 31.2Q501.8 30.5 503.1 30.5L503.1 30.5Q504.2 30.5 505.0 31.0Q505.8 31.4 506.3 32.3Q506.7 33.2 506.7 34.4L506.7 34.4L506.7 41L503.9 41L503.9 34.9Q503.9 33.9 503.4 33.4Q502.9 32.8 502.0 32.8L502.0 32.8Q501.5 32.8 501.0 33.1Q500.5 33.3 500.3 33.8Q500.0 34.3 500.0 35.0ZM513.7 45.1L513.7 45.1Q512.4 45.1 511.4 44.8Q510.5 44.4 509.9 43.9Q509.3 43.3 509.0 42.6L509.0 42.6L511.4 41.9Q511.5 42.2 511.8 42.5Q512.1 42.7 512.6 42.9Q513.0 43.1 513.7 43.1L513.7 43.1Q514.7 43.1 515.3 42.6Q516.0 42.1 516.0 41.1L516.0 41.1L516.0 39.2L515.7 39.2Q515.6 39.6 515.2 40.0Q514.9 40.4 514.3 40.6Q513.7 40.9 512.9 40.9L512.9 40.9Q511.7 40.9 510.7 40.3Q509.8 39.8 509.2 38.6Q508.6 37.5 508.6 35.8L508.6 35.8Q508.6 34.0 509.2 32.9Q509.8 31.7 510.8 31.1Q511.7 30.5 512.9 30.5L512.9 30.5Q513.7 30.5 514.3 30.8Q514.9 31.1 515.3 31.5Q515.7 32.0 515.9 32.4L515.9 32.4L516.0 32.4L516.0 30.6L518.7 30.6L518.7 40.9Q518.7 42.3 518.1 43.2Q517.4 44.2 516.3 44.6Q515.2 45.1 513.7 45.1ZM513.7 38.7L513.7 38.7Q514.5 38.7 514.9 38.4Q515.4 38.0 515.7 37.4Q516.0 36.7 516.0 35.8L516.0 35.8Q516.0 34.9 515.7 34.2Q515.4 33.5 514.9 33.1Q514.5 32.7 513.7 32.7L513.7 32.7Q513.0 32.7 512.5 33.1Q512.0 33.5 511.8 34.2Q511.5 34.9 511.5 35.8L511.5 35.8Q511.5 36.7 511.8 37.3Q512.0 38.0 512.5 38.4Q513.0 38.7 513.7 38.7Z M530.2 45.1L530.2 45.1Q528.9 45.1 527.9 44.8Q527.0 44.4 526.4 43.9Q525.8 43.3 525.5 42.6L525.5 42.6L527.9 41.9Q528.1 42.2 528.3 42.5Q528.6 42.7 529.1 42.9Q529.5 43.1 530.2 43.1L530.2 43.1Q531.2 43.1 531.9 42.6Q532.5 42.1 532.5 41.1L532.5 41.1L532.5 39.2L532.2 39.2Q532.1 39.6 531.7 40.0Q531.4 40.4 530.8 40.6Q530.2 40.9 529.4 40.9L529.4 40.9Q528.2 40.9 527.2 40.3Q526.3 39.8 525.7 38.6Q525.1 37.5 525.1 35.8L525.1 35.8Q525.1 34.0 525.7 32.9Q526.3 31.7 527.3 31.1Q528.2 30.5 529.4 30.5L529.4 30.5Q530.3 30.5 530.8 30.8Q531.4 31.1 531.8 31.5Q532.2 32.0 532.4 32.4L532.4 32.4L532.5 32.4L532.5 30.6L535.2 30.6L535.2 40.9Q535.2 42.3 534.6 43.2Q533.9 44.2 532.8 44.6Q531.7 45.1 530.2 45.1ZM530.2 38.7L530.2 38.7Q531.0 38.7 531.5 38.4Q532.0 38.0 532.2 37.4Q532.5 36.7 532.5 35.8L532.5 35.8Q532.5 34.9 532.2 34.2Q532.0 33.5 531.5 33.1Q531.0 32.7 530.2 32.7L530.2 32.7Q529.5 32.7 529.0 33.1Q528.5 33.5 528.3 34.2Q528.0 34.9 528.0 35.8L528.0 35.8Q528.0 36.7 528.3 37.3Q528.5 38.0 529.0 38.4Q529.5 38.7 530.2 38.7ZM540.4 41L537.6 41L537.6 30.6L540.3 30.6L540.3 32.4L540.4 32.4Q540.7 31.5 541.4 31.0Q542.0 30.5 542.9 30.5L542.9 30.5Q543.1 30.5 543.4 30.5Q543.6 30.5 543.8 30.6L543.8 30.6L543.8 33.1Q543.6 33.0 543.3 33.0Q542.9 32.9 542.6 32.9L542.6 32.9Q542.0 32.9 541.5 33.2Q540.9 33.5 540.7 34.0Q540.4 34.5 540.4 35.1L540.4 35.1L540.4 41ZM550.0 41.2L550.0 41.2Q548.4 41.2 547.3 40.6Q546.1 39.9 545.5 38.7Q544.9 37.5 544.9 35.9L544.9 35.9Q544.9 34.3 545.5 33.1Q546.1 31.9 547.2 31.2Q548.4 30.5 549.9 30.5L549.9 30.5Q550.9 30.5 551.8 30.8Q552.7 31.1 553.3 31.8Q554.0 32.5 554.4 33.4Q554.7 34.4 554.7 35.8L554.7 35.8L554.7 36.5L547.6 36.5Q547.7 37.3 548.0 37.9L548.0 37.9Q548.3 38.5 548.8 38.8Q549.3 39.1 550.1 39.1L550.1 39.1Q550.6 39.1 551.0 39.0Q551.3 38.8 551.6 38.6Q551.9 38.3 552.1 37.9L552.1 37.9L554.6 38.4Q554.3 39.2 553.7 39.9Q553.1 40.5 552.2 40.9Q551.2 41.2 550.0 41.2ZM547.7 34.8L547.7 34.8L552.1 34.8Q552.0 34.3 551.8 33.8L551.8 33.8Q551.6 33.3 551.1 32.9Q550.6 32.6 549.9 32.6L549.9 32.6Q549.2 32.6 548.7 32.9Q548.2 33.3 547.9 33.8L547.9 33.8Q547.7 34.3 547.7 34.8ZM559.5 41.2L559.5 41.2Q558.6 41.2 557.8 40.9Q557.0 40.5 556.5 39.8Q556.1 39.1 556.1 38.1L556.1 38.1Q556.1 37.2 556.4 36.6Q556.7 36.1 557.3 35.7Q557.8 35.4 558.5 35.2Q559.2 35.0 560.0 34.9L560.0 34.9Q560.9 34.8 561.5 34.7Q562.0 34.7 562.3 34.5Q562.5 34.3 562.5 34.0L562.5 34.0L562.5 33.9Q562.5 33.5 562.3 33.2Q562.1 32.9 561.8 32.7Q561.4 32.6 560.9 32.6L560.9 32.6Q560.4 32.6 560.0 32.7Q559.6 32.9 559.3 33.2Q559.1 33.4 558.9 33.8L558.9 33.8L556.4 33.3Q556.7 32.4 557.3 31.8Q557.9 31.2 558.8 30.8Q559.7 30.5 560.9 30.5L560.9 30.5Q561.7 30.5 562.5 30.7Q563.3 30.9 563.9 31.3Q564.6 31.7 564.9 32.4Q565.3 33.1 565.3 34.0L565.3 34.0L565.3 41L562.7 41L562.7 39.6L562.6 39.6Q562.3 40.0 561.9 40.4Q561.5 40.8 560.9 41.0Q560.3 41.2 559.5 41.2ZM560.3 39.2L560.3 39.2Q561.0 39.2 561.5 39.0Q562.0 38.7 562.3 38.3Q562.5 37.8 562.5 37.3L562.5 37.3L562.5 36.2Q562.4 36.3 562.2 36.3Q561.9 36.4 561.6 36.5Q561.3 36.5 561.0 36.6Q560.7 36.6 560.5 36.6L560.5 36.6Q560.0 36.7 559.6 36.9Q559.2 37.0 559.0 37.3Q558.8 37.6 558.8 38.0L558.8 38.0Q558.8 38.4 559.0 38.7Q559.2 39.0 559.5 39.1Q559.9 39.2 560.3 39.2ZM570.9 30.6L572.8 30.6L572.8 32.8L570.9 32.8L570.9 38.0Q570.9 38.5 571.1 38.7Q571.3 38.9 571.8 38.9L571.8 38.9Q572.0 38.9 572.3 38.9Q572.6 38.8 572.7 38.8L572.7 38.8L573.1 40.9Q572.6 41.0 572.2 41.1Q571.7 41.1 571.3 41.1L571.3 41.1Q569.8 41.1 568.9 40.4Q568.1 39.6 568.1 38.2L568.1 38.2L568.1 32.8L566.7 32.8L566.7 30.6L568.1 30.6L568.1 28.2L570.9 28.2L570.9 30.6ZM576.6 41.2L576.6 41.2Q575.9 41.2 575.5 40.7Q575.0 40.3 575.0 39.6L575.0 39.6Q575.0 38.9 575.5 38.4Q575.9 38.0 576.6 38.0L576.6 38.0Q577.3 38.0 577.8 38.4Q578.2 38.9 578.2 39.6L578.2 39.6Q578.2 40.3 577.8 40.7Q577.3 41.2 576.6 41.2Z "/></clipPath><defs><pattern id="satori_pattern_id-0_0" x="0" y="0" width="1" height="1" patternUnits="objectBoundingBox"><linearGradient id="satori_biid-0_0" x1="0" y1="0" x2="1" y2="0" spreadMethod="pad"><stop offset="0%" stop-color="#22d3ee"/><stop offset="50%" stop-color="#a78bfa"/><stop offset="100%" stop-color="#f472b6"/></linearGradient><rect x="0" y="0" width="260" height="23" fill="url(#satori_biid-0_0)"/></pattern></defs><mask id="satori_om-id-0"><rect x="320" y="23" width="260" height="23" fill="#fff" mask="url(#satori_om-id)"/></mask><rect x="320" y="23" width="260" height="23" fill="url(#satori_pattern_id-0_0)" clip-path="url(#satori_bct-id-0)" mask="url(#satori_om-id)"/><mask id="satori_om-id-1"><rect x="280" y="52" width="341" height="16" fill="#fff" mask="url(#satori_om-id)"/></mask><g mask="url(#satori_om-id)" clip-path="url(#satori_cp-id)"><path fill="#64748b" d="M282.3 65L281.1 65L281.1 55.5L282.3 55.5L282.3 59.6L287.3 59.6L287.3 55.5L288.5 55.5L288.5 65L287.3 65L287.3 60.7L282.3 60.7L282.3 65ZM296.6 65L290.8 65L290.8 55.5L296.6 55.5L296.6 56.6L292.0 56.6L292.0 59.7L296.3 59.7L296.3 60.8L292.0 60.8L292.0 63.9L296.6 63.9L296.6 65ZM301.1 56.6L298.1 56.6L298.1 55.5L305.2 55.5L305.2 56.6L302.3 56.6L302.3 65L301.1 65L301.1 56.6ZM307.0 55.5L308.2 55.5L308.2 65L307.0 65L307.0 55.5ZM314.3 65.1L314.3 65.1Q313.1 65.1 312.2 64.5Q311.2 64.0 310.7 62.9Q310.1 61.8 310.1 60.3L310.1 60.3Q310.1 58.8 310.7 57.7Q311.2 56.6 312.2 56.0Q313.1 55.4 314.3 55.4L314.3 55.4Q315.0 55.4 315.7 55.6Q316.3 55.8 316.8 56.2Q317.3 56.6 317.7 57.2Q318.0 57.8 318.1 58.5L318.1 58.5L316.9 58.5Q316.8 58.0 316.6 57.7Q316.3 57.3 316.0 57.0Q315.6 56.8 315.2 56.7Q314.8 56.5 314.3 56.5L314.3 56.5Q313.5 56.5 312.8 57.0Q312.1 57.4 311.7 58.2Q311.3 59.1 311.3 60.3L311.3 60.3Q311.3 61.5 311.7 62.3Q312.1 63.2 312.8 63.6Q313.5 64.0 314.3 64.0L314.3 64.0Q314.8 64.0 315.2 63.9Q315.6 63.7 316.0 63.5Q316.3 63.2 316.6 62.9Q316.8 62.5 316.9 62.0L316.9 62.0L318.1 62.0Q318.0 62.7 317.7 63.3Q317.3 63.9 316.8 64.3Q316.3 64.7 315.7 64.9Q315.1 65.1 314.3 65.1Z M324.4 61.4L324.4 61.4Q324.0 61.4 323.8 61.1Q323.5 60.9 323.5 60.5L323.5 60.5Q323.5 60.2 323.8 59.9Q324.0 59.6 324.4 59.6L324.4 59.6Q324.7 59.6 325.0 59.9Q325.2 60.2 325.2 60.5L325.2 60.5Q325.2 60.9 325.0 61.1Q324.7 61.4 324.4 61.4Z M332.2 65L331.1 65L331.1 55.5L332.8 55.5L335.1 61.5Q335.2 61.7 335.3 62.0Q335.4 62.3 335.5 62.7Q335.6 63.1 335.7 63.4L335.7 63.4Q335.8 63.6 335.8 63.7L335.8 63.7Q335.8 63.6 335.9 63.5L335.9 63.5Q336.0 63.1 336.1 62.7Q336.2 62.4 336.3 62.0Q336.4 61.7 336.5 61.5L336.5 61.5L338.8 55.5L340.5 55.5L340.5 65L339.3 65L339.3 59.6Q339.3 59.3 339.3 58.9Q339.3 58.6 339.3 58.1Q339.4 57.7 339.4 57.3L339.4 57.3Q339.4 57.1 339.4 56.8L339.4 56.8Q339.3 57.1 339.2 57.4L339.2 57.4Q339.0 57.8 338.9 58.2Q338.8 58.7 338.6 59.0Q338.5 59.4 338.4 59.6L338.4 59.6L336.3 65L335.3 65L333.1 59.6Q333.0 59.4 332.9 59.0Q332.8 58.7 332.6 58.3Q332.5 57.9 332.3 57.4L332.3 57.4Q332.3 57.1 332.2 56.8L332.2 56.8Q332.2 57.0 332.2 57.2L332.2 57.2Q332.2 57.7 332.2 58.1Q332.2 58.5 332.2 58.9Q332.2 59.3 332.2 59.6L332.2 59.6L332.2 65ZM344.6 65.2L344.6 65.2Q344.0 65.2 343.4 64.9Q342.9 64.7 342.5 64.2Q342.2 63.7 342.2 63.0L342.2 63.0Q342.2 62.4 342.5 62.0Q342.7 61.6 343.1 61.4Q343.5 61.2 344.0 61.1Q344.5 61.0 345.0 60.9L345.0 60.9Q345.6 60.8 346.0 60.8Q346.4 60.7 346.6 60.6Q346.8 60.5 346.8 60.2L346.8 60.2L346.8 60.2Q346.8 59.8 346.6 59.5Q346.5 59.1 346.1 59.0Q345.8 58.8 345.3 58.8L345.3 58.8Q344.8 58.8 344.5 59.0Q344.1 59.1 343.9 59.4Q343.6 59.6 343.5 59.9L343.5 59.9L342.4 59.5Q342.7 58.8 343.2 58.5Q343.6 58.1 344.2 58.0Q344.7 57.8 345.3 57.8L345.3 57.8Q345.6 57.8 346.1 57.9Q346.6 58.0 347.0 58.2Q347.4 58.5 347.7 59.0Q348.0 59.5 348.0 60.3L348.0 60.3L348.0 65L346.8 65L346.8 64.0L346.8 64.0Q346.6 64.3 346.4 64.5Q346.1 64.8 345.7 65.0Q345.2 65.2 344.6 65.2ZM344.8 64.2L344.8 64.2Q345.5 64.2 345.9 63.9Q346.4 63.7 346.6 63.3Q346.8 62.9 346.8 62.4L346.8 62.4L346.8 61.5Q346.7 61.5 346.5 61.6Q346.3 61.7 346.0 61.7Q345.7 61.8 345.4 61.8Q345.1 61.8 344.9 61.9L344.9 61.9Q344.5 61.9 344.2 62.0Q343.8 62.2 343.6 62.4Q343.4 62.6 343.4 63.0L343.4 63.0Q343.4 63.4 343.6 63.7Q343.8 63.9 344.1 64.0Q344.4 64.2 344.8 64.2ZM352.4 65.2L352.4 65.2Q351.6 65.2 351.1 64.9Q350.5 64.7 350.1 64.3Q349.8 63.9 349.6 63.3L349.6 63.3L350.7 63.0Q350.9 63.6 351.3 63.9Q351.7 64.1 352.4 64.1L352.4 64.1Q353.1 64.1 353.5 63.8Q354.0 63.5 354.0 63.1L354.0 63.1Q354.0 62.7 353.7 62.5Q353.5 62.2 352.9 62.1L352.9 62.1L351.8 61.8Q350.8 61.6 350.3 61.1Q349.9 60.6 349.9 59.9L349.9 59.9Q349.9 59.3 350.2 58.8Q350.5 58.3 351.1 58.1Q351.7 57.8 352.5 57.8L352.5 57.8Q353.2 57.8 353.7 58.0Q354.2 58.3 354.6 58.6Q354.9 59.0 355.0 59.5L355.0 59.5L354.0 59.8Q353.9 59.4 353.5 59.1Q353.2 58.8 352.5 58.8L352.5 58.8Q351.9 58.8 351.4 59.1Q351.0 59.4 351.0 59.8L351.0 59.8Q351.0 60.2 351.3 60.4Q351.6 60.7 352.2 60.8L352.2 60.8L353.3 61.1Q354.2 61.3 354.7 61.8Q355.2 62.3 355.2 63.0L355.2 63.0Q355.2 63.6 354.8 64.1Q354.5 64.6 353.8 64.9Q353.2 65.2 352.4 65.2ZM358.2 57.9L359.6 57.9L359.6 58.9L358.2 58.9L358.2 63.2Q358.2 63.6 358.3 63.9Q358.5 64.1 359.0 64.1L359.0 64.1Q359.1 64.1 359.3 64.0Q359.4 64.0 359.6 64.0L359.6 64.0L359.8 65.0Q359.6 65.0 359.4 65.1Q359.2 65.1 359.0 65.1L359.0 65.1Q358.0 65.1 357.5 64.6Q357.0 64.1 357.0 63.2L357.0 63.2L357.0 58.9L355.9 58.9L355.9 57.9L357.0 57.9L357.0 56.2L358.2 56.2L358.2 57.9ZM364.1 65.2L364.1 65.2Q363.0 65.2 362.3 64.7Q361.5 64.2 361.1 63.4Q360.7 62.6 360.7 61.5Q360.7 60.4 361.1 59.6Q361.5 58.8 362.2 58.3Q363.0 57.8 363.9 57.8L363.9 57.8Q364.5 57.8 365.0 58.0Q365.6 58.2 366.0 58.6Q366.5 59.0 366.7 59.7Q367.0 60.4 367.0 61.4L367.0 61.4L367.0 61.8L361.9 61.8Q361.9 62.5 362.2 63.0L362.2 63.0Q362.4 63.6 362.9 63.9Q363.4 64.1 364.1 64.1L364.1 64.1Q364.5 64.1 364.8 64.0Q365.2 63.9 365.4 63.7Q365.7 63.4 365.8 63.0L365.8 63.0L366.9 63.3Q366.7 63.9 366.3 64.3Q365.9 64.7 365.4 64.9Q364.8 65.2 364.1 65.2ZM361.9 60.9L361.9 60.9L365.9 60.9Q365.8 60.4 365.6 60.0L365.6 60.0Q365.4 59.4 365.0 59.1Q364.6 58.8 363.9 58.8Q363.3 58.8 362.8 59.1Q362.4 59.5 362.1 60.0L362.1 60.0Q361.9 60.4 361.9 60.9ZM364.4 57.0L363.4 57.0L362.2 55.1L363.5 55.1L364.4 57.0ZM369.8 65L368.7 65L368.7 57.9L369.8 57.9L369.8 59.0L369.8 59.0Q370.0 58.5 370.5 58.1Q371.0 57.8 371.7 57.8L371.7 57.8Q371.8 57.8 372.0 57.8Q372.1 57.8 372.3 57.8L372.3 57.8L372.3 59.0Q372.2 59.0 372.0 58.9Q371.8 58.9 371.6 58.9L371.6 58.9Q371.1 58.9 370.7 59.1Q370.3 59.3 370.0 59.7Q369.8 60.1 369.8 60.6L369.8 60.6L369.8 65ZM376.5 65.2L376.5 65.2Q375.5 65.2 374.8 64.7Q374.0 64.2 373.6 63.4Q373.2 62.6 373.2 61.5Q373.2 60.4 373.6 59.6Q374.0 58.8 374.7 58.3Q375.4 57.8 376.4 57.8L376.4 57.8Q377.0 57.8 377.5 58.0Q378.1 58.2 378.5 58.6Q379.0 59.0 379.2 59.7Q379.5 60.4 379.5 61.4L379.5 61.4L379.5 61.8L374.4 61.8Q374.4 62.5 374.6 63.0L374.6 63.0Q374.9 63.6 375.4 63.9Q375.9 64.1 376.5 64.1L376.5 64.1Q377.0 64.1 377.3 64.0Q377.6 63.9 377.9 63.7Q378.1 63.4 378.3 63.0L378.3 63.0L379.4 63.3Q379.2 63.9 378.8 64.3Q378.4 64.7 377.8 64.9Q377.3 65.2 376.5 65.2ZM374.4 60.9L374.4 60.9L378.3 60.9Q378.3 60.4 378.1 60.0L378.1 60.0Q377.9 59.4 377.5 59.1Q377.0 58.8 376.4 58.8Q375.8 58.8 375.3 59.1Q374.8 59.5 374.6 60.0L374.6 60.0Q374.4 60.4 374.4 60.9Z M388.7 65.1L388.7 65.1Q387.5 65.1 386.6 64.5Q385.6 64.0 385.1 62.9Q384.6 61.8 384.6 60.3L384.6 60.3Q384.6 58.8 385.1 57.7Q385.6 56.6 386.6 56.0Q387.5 55.4 388.7 55.4L388.7 55.4Q389.5 55.4 390.1 55.6Q390.7 55.8 391.2 56.2Q391.8 56.6 392.1 57.2Q392.4 57.8 392.6 58.5L392.6 58.5L391.4 58.5Q391.3 58.0 391.0 57.7Q390.8 57.3 390.4 57.0Q390.1 56.8 389.6 56.7Q389.2 56.5 388.7 56.5L388.7 56.5Q387.9 56.5 387.2 57.0Q386.5 57.4 386.1 58.2Q385.7 59.1 385.7 60.3L385.7 60.3Q385.7 61.5 386.1 62.3Q386.5 63.2 387.2 63.6Q387.9 64.0 388.7 64.0L388.7 64.0Q389.2 64.0 389.6 63.9Q390.1 63.7 390.4 63.5Q390.8 63.2 391.0 62.9Q391.3 62.5 391.4 62.0L391.4 62.0L392.6 62.0Q392.4 62.7 392.1 63.3Q391.8 63.9 391.3 64.3Q390.7 64.7 390.1 64.9Q389.5 65.1 388.7 65.1ZM396.9 56.6L393.9 56.6L393.9 55.5L401.0 55.5L401.0 56.6L398.1 56.6L398.1 65L396.9 65L396.9 56.6ZM406.6 65.1L406.6 65.1Q405.4 65.1 404.5 64.5Q403.5 64.0 403.0 62.9Q402.4 61.8 402.4 60.3L402.4 60.3Q402.4 58.8 403.0 57.7Q403.5 56.6 404.5 56.0Q405.4 55.4 406.6 55.4L406.6 55.4Q407.9 55.4 408.8 56.0Q409.7 56.6 410.3 57.7Q410.8 58.8 410.8 60.3L410.8 60.3Q410.8 61.8 410.3 62.9Q409.7 64.0 408.8 64.5Q407.9 65.1 406.6 65.1ZM406.6 64.0L406.6 64.0Q407.5 64.0 408.2 63.6Q408.9 63.2 409.3 62.3Q409.7 61.5 409.7 60.3L409.7 60.3Q409.7 59.1 409.3 58.2Q408.9 57.4 408.2 57.0Q407.5 56.5 406.6 56.5L406.6 56.5Q405.8 56.5 405.1 57.0Q404.4 57.4 404.0 58.2Q403.6 59.1 403.6 60.3L403.6 60.3Q403.6 61.5 404.0 62.3Q404.4 63.1 405.1 63.6Q405.8 64.0 406.6 64.0Z M418.9 65.1L418.9 65.1Q418.0 65.1 417.3 64.8Q416.7 64.4 416.3 63.8Q415.9 63.3 415.9 62.5L415.9 62.5Q415.9 61.9 416.2 61.5Q416.4 61.0 416.9 60.6L416.9 60.6Q417.3 60.3 417.8 59.9L417.8 59.9Q417.7 59.7 417.6 59.6L417.6 59.6Q417.2 59.1 416.9 58.6Q416.7 58.2 416.7 57.6L416.7 57.6Q416.7 57.0 417.0 56.5Q417.3 56.0 417.8 55.7Q418.3 55.5 419.0 55.5L419.0 55.5Q419.7 55.5 420.2 55.7Q420.7 56.0 421.0 56.5Q421.3 56.9 421.3 57.5L421.3 57.5Q421.3 57.9 421.1 58.3Q421.0 58.7 420.7 59.0Q420.4 59.3 420.0 59.6L420.0 59.6L419.4 60.1L421.4 62.5Q421.5 62.4 421.5 62.2L421.5 62.2Q421.8 61.6 421.8 60.8L421.8 60.8L422.9 60.8Q422.9 61.8 422.7 62.4Q422.4 63.0 422.2 63.3L422.2 63.3Q422.1 63.4 422.1 63.4L422.1 63.4L423.4 65L422.1 65L421.4 64.2Q421.0 64.7 420.3 64.9L420.3 64.9Q419.6 65.1 418.9 65.1ZM420.7 63.4L418.5 60.7L418.2 61.0Q417.6 61.4 417.3 61.8Q417.1 62.1 417.1 62.6L417.1 62.6Q417.1 63.0 417.3 63.4Q417.5 63.7 417.9 63.9Q418.3 64.1 418.9 64.1L418.9 64.1Q419.4 64.1 419.9 63.9L419.9 63.9Q420.4 63.7 420.7 63.4L420.7 63.4ZM418.7 59.2L418.7 59.2L419.3 58.8Q419.5 58.7 419.7 58.5Q419.9 58.3 420.0 58.0Q420.2 57.8 420.2 57.5L420.2 57.5Q420.2 57.0 419.9 56.7Q419.6 56.4 419.0 56.4L419.0 56.4Q418.7 56.4 418.4 56.6Q418.1 56.7 418.0 57.0Q417.8 57.2 417.8 57.6L417.8 57.6Q417.8 57.9 418.0 58.3Q418.2 58.6 418.4 58.9L418.4 58.9Q418.6 59.1 418.7 59.2Z M430.9 56.6L427.9 56.6L427.9 55.5L435.1 55.5L435.1 56.6L432.1 56.6L432.1 65L430.9 65L430.9 56.6ZM439.7 65.2L439.7 65.2Q438.6 65.2 437.9 64.7Q437.1 64.2 436.7 63.4Q436.3 62.6 436.3 61.5Q436.3 60.4 436.7 59.6Q437.1 58.8 437.9 58.3Q438.6 57.8 439.5 57.8L439.5 57.8Q440.1 57.8 440.6 58.0Q441.2 58.2 441.6 58.6Q442.1 59.0 442.4 59.7Q442.6 60.4 442.6 61.4L442.6 61.4L442.6 61.8L437.5 61.8Q437.5 62.5 437.8 63.0L437.8 63.0Q438.0 63.6 438.5 63.9Q439.0 64.1 439.7 64.1L439.7 64.1Q440.1 64.1 440.4 64.0Q440.8 63.9 441.0 63.7Q441.3 63.4 441.4 63.0L441.4 63.0L442.5 63.3Q442.3 63.9 442.0 64.3Q441.6 64.7 441.0 64.9Q440.4 65.2 439.7 65.2ZM437.5 60.9L437.5 60.9L441.5 60.9Q441.4 60.4 441.3 60.0L441.3 60.0Q441.0 59.4 440.6 59.1Q440.2 58.8 439.5 58.8Q438.9 58.8 438.4 59.1Q438.0 59.5 437.7 60.0L437.7 60.0Q437.5 60.4 437.5 60.9ZM447.2 65.2L447.2 65.2Q446.2 65.2 445.5 64.7Q444.7 64.2 444.3 63.4Q443.9 62.6 443.9 61.5L443.9 61.5Q443.9 60.4 444.3 59.6Q444.7 58.7 445.5 58.3Q446.2 57.8 447.2 57.8L447.2 57.8Q447.7 57.8 448.1 57.9Q448.6 58.1 449.0 58.3Q449.3 58.6 449.6 58.9Q449.9 59.3 450.0 59.8L450.0 59.8L448.9 60.1Q448.9 59.8 448.7 59.6Q448.5 59.4 448.3 59.2Q448.1 59.0 447.8 58.9Q447.5 58.8 447.2 58.8L447.2 58.8Q446.4 58.8 446.0 59.2Q445.5 59.6 445.3 60.2Q445.1 60.8 445.1 61.5L445.1 61.5Q445.1 62.2 445.3 62.8Q445.5 63.4 446.0 63.8Q446.4 64.1 447.2 64.1L447.2 64.1Q447.5 64.1 447.8 64.0Q448.1 63.9 448.3 63.8Q448.6 63.6 448.7 63.3Q448.9 63.1 449.0 62.8L449.0 62.8L450.1 63.1Q449.9 63.6 449.6 64.0Q449.4 64.4 449.0 64.6Q448.6 64.9 448.1 65.0Q447.7 65.2 447.2 65.2ZM452.8 60.7L452.8 60.7L452.8 65L451.7 65L451.7 55.5L452.8 55.5L452.8 59.1Q453.1 58.5 453.6 58.2L453.6 58.2Q454.2 57.8 455.0 57.8L455.0 57.8Q455.7 57.8 456.2 58.1Q456.8 58.4 457.1 59.0Q457.4 59.6 457.4 60.5L457.4 60.5L457.4 65L456.2 65L456.2 60.6Q456.2 59.8 455.8 59.3Q455.4 58.8 454.6 58.8L454.6 58.8Q454.1 58.8 453.7 59.1Q453.3 59.3 453.1 59.7Q452.8 60.1 452.8 60.7Z M468.8 65L463.2 65L463.2 55.5L464.4 55.5L464.4 63.9L468.8 63.9L468.8 65ZM473.4 65.2L473.4 65.2Q472.3 65.2 471.6 64.7Q470.8 64.2 470.4 63.4Q470.0 62.6 470.0 61.5Q470.0 60.4 470.4 59.6Q470.8 58.8 471.6 58.3Q472.3 57.8 473.2 57.8L473.2 57.8Q473.8 57.8 474.3 58.0Q474.9 58.2 475.3 58.6Q475.8 59.0 476.1 59.7Q476.3 60.4 476.3 61.4L476.3 61.4L476.3 61.8L471.2 61.8Q471.2 62.5 471.5 63.0L471.5 63.0Q471.7 63.6 472.2 63.9Q472.7 64.1 473.4 64.1L473.4 64.1Q473.8 64.1 474.1 64.0Q474.5 63.9 474.7 63.7Q475.0 63.4 475.1 63.0L475.1 63.0L476.2 63.3Q476.0 63.9 475.7 64.3Q475.3 64.7 474.7 64.9Q474.1 65.2 473.4 65.2ZM471.2 60.9L471.2 60.9L475.2 60.9Q475.1 60.4 475.0 60.0L475.0 60.0Q474.7 59.4 474.3 59.1Q473.9 58.8 473.2 58.8Q472.6 58.8 472.1 59.1Q471.7 59.5 471.4 60.0L471.4 60.0Q471.2 60.4 471.2 60.9ZM480.0 65.2L480.0 65.2Q479.3 65.2 478.7 64.9Q478.2 64.7 477.9 64.2Q477.5 63.7 477.5 63.0L477.5 63.0Q477.5 62.4 477.8 62.0Q478.0 61.6 478.4 61.4Q478.8 61.2 479.3 61.1Q479.8 61.0 480.3 60.9L480.3 60.9Q480.9 60.8 481.3 60.8Q481.7 60.7 481.9 60.6Q482.1 60.5 482.1 60.2L482.1 60.2L482.1 60.2Q482.1 59.8 482.0 59.5Q481.8 59.1 481.5 59.0Q481.1 58.8 480.6 58.8L480.6 58.8Q480.1 58.8 479.8 59.0Q479.4 59.1 479.2 59.4Q478.9 59.6 478.8 59.9L478.8 59.9L477.7 59.5Q478.0 58.8 478.5 58.5Q478.9 58.1 479.5 58.0Q480.1 57.8 480.6 57.8L480.6 57.8Q481.0 57.8 481.4 57.9Q481.9 58.0 482.3 58.2Q482.7 58.5 483.0 59.0Q483.3 59.5 483.3 60.3L483.3 60.3L483.3 65L482.1 65L482.1 64.0L482.1 64.0Q481.9 64.3 481.7 64.5Q481.4 64.8 481.0 65.0Q480.6 65.2 480.0 65.2ZM480.1 64.2L480.1 64.2Q480.8 64.2 481.2 63.9Q481.7 63.7 481.9 63.3Q482.1 62.9 482.1 62.4L482.1 62.4L482.1 61.5Q482.0 61.5 481.8 61.6Q481.6 61.7 481.3 61.7Q481.0 61.8 480.7 61.8Q480.4 61.8 480.2 61.9L480.2 61.9Q479.8 61.9 479.5 62.0Q479.1 62.2 478.9 62.4Q478.7 62.6 478.7 63.0L478.7 63.0Q478.7 63.4 478.9 63.7Q479.1 63.9 479.4 64.0Q479.7 64.2 480.1 64.2ZM487.9 65.2L487.9 65.2Q487.0 65.2 486.4 64.7Q485.7 64.3 485.3 63.4Q484.9 62.6 484.9 61.5L484.9 61.5Q484.9 60.3 485.3 59.5Q485.7 58.7 486.4 58.3Q487.0 57.8 487.9 57.8L487.9 57.8Q488.6 57.8 489.0 58.0Q489.4 58.3 489.7 58.6Q489.9 58.8 490.0 59.0L490.0 59.0L490.1 59.0L490.1 55.5L491.2 55.5L491.2 65L490.1 65L490.1 63.9L490.0 63.9Q489.9 64.1 489.6 64.4Q489.4 64.7 489.0 64.9Q488.6 65.2 487.9 65.2ZM488.1 64.1L488.1 64.1Q488.7 64.1 489.2 63.8Q489.6 63.5 489.9 62.8Q490.1 62.2 490.1 61.5L490.1 61.5Q490.1 60.7 489.9 60.1Q489.6 59.5 489.2 59.2Q488.7 58.8 488.1 58.8L488.1 58.8Q487.4 58.8 487.0 59.2Q486.5 59.5 486.3 60.1Q486.1 60.7 486.1 61.5L486.1 61.5Q486.1 62.2 486.3 62.8Q486.5 63.4 487.0 63.8Q487.4 64.1 488.1 64.1Z M495.9 60.4L508.9 60.4L508.9 61.5L495.9 61.5L495.9 60.4Z M516.2 65.2L516.2 65.2Q515.3 65.2 514.6 64.7Q514.0 64.3 513.6 63.4Q513.2 62.6 513.2 61.5L513.2 61.5Q513.2 60.3 513.6 59.5Q514.0 58.7 514.6 58.3Q515.3 57.8 516.2 57.8L516.2 57.8Q516.9 57.8 517.3 58.0Q517.7 58.3 517.9 58.6Q518.1 58.8 518.3 59.0L518.3 59.0L518.3 59.0L518.3 55.5L519.5 55.5L519.5 65L518.4 65L518.4 63.9L518.3 63.9Q518.1 64.1 517.9 64.4Q517.7 64.7 517.3 64.9Q516.9 65.2 516.2 65.2ZM516.4 64.1L516.4 64.1Q517.0 64.1 517.5 63.8Q517.9 63.5 518.1 62.8Q518.4 62.2 518.4 61.5L518.4 61.5Q518.4 60.7 518.1 60.1Q517.9 59.5 517.5 59.2Q517.0 58.8 516.4 58.8L516.4 58.8Q515.7 58.8 515.2 59.2Q514.8 59.5 514.6 60.1Q514.4 60.7 514.4 61.5L514.4 61.5Q514.4 62.2 514.6 62.8Q514.8 63.4 515.3 63.8Q515.7 64.1 516.4 64.1ZM522.6 65L521.5 65L521.5 57.9L522.6 57.9L522.6 65ZM522.1 56.7L522.1 56.7Q521.8 56.7 521.5 56.5Q521.3 56.3 521.3 56.0L521.3 56.0Q521.3 55.7 521.5 55.4Q521.8 55.2 522.1 55.2L522.1 55.2Q522.4 55.2 522.6 55.4Q522.9 55.7 522.9 56.0L522.9 56.0Q522.9 56.3 522.6 56.5Q522.4 56.7 522.1 56.7ZM527.1 65.2L527.1 65.2Q526.3 65.2 525.8 64.9Q525.2 64.7 524.8 64.3Q524.5 63.9 524.3 63.3L524.3 63.3L525.4 63.0Q525.6 63.6 526.0 63.9Q526.4 64.1 527.0 64.1L527.0 64.1Q527.8 64.1 528.2 63.8Q528.7 63.5 528.7 63.1L528.7 63.1Q528.7 62.7 528.4 62.5Q528.2 62.2 527.6 62.1L527.6 62.1L526.4 61.8Q525.5 61.6 525.0 61.1Q524.5 60.6 524.5 59.9L524.5 59.9Q524.5 59.3 524.9 58.8Q525.2 58.3 525.8 58.1Q526.4 57.8 527.2 57.8L527.2 57.8Q527.9 57.8 528.4 58.0Q528.9 58.3 529.2 58.6Q529.6 59.0 529.7 59.5L529.7 59.5L528.7 59.8Q528.5 59.4 528.2 59.1Q527.9 58.8 527.2 58.8L527.2 58.8Q526.5 58.8 526.1 59.1Q525.7 59.4 525.7 59.8L525.7 59.8Q525.7 60.2 526.0 60.4Q526.3 60.7 526.9 60.8L526.9 60.8L528.0 61.1Q528.9 61.3 529.4 61.8Q529.9 62.3 529.9 63.0L529.9 63.0Q529.9 63.6 529.5 64.1Q529.2 64.6 528.5 64.9Q527.9 65.2 527.1 65.2ZM532.6 67.7L531.5 67.7L531.5 57.9L532.6 57.9L532.6 59.0L532.7 59.0Q532.9 58.8 533.1 58.6Q533.3 58.3 533.7 58.0Q534.1 57.8 534.8 57.8L534.8 57.8Q535.7 57.8 536.4 58.3Q537.0 58.7 537.4 59.5Q537.8 60.3 537.8 61.5L537.8 61.5Q537.8 62.6 537.4 63.4Q537.0 64.3 536.4 64.7Q535.7 65.2 534.8 65.2L534.8 65.2Q534.1 65.2 533.7 64.9Q533.3 64.7 533.1 64.4Q532.9 64.1 532.7 63.9L532.7 63.9L532.6 63.9L532.6 67.7ZM534.6 64.1L534.6 64.1Q535.3 64.1 535.7 63.8Q536.2 63.4 536.4 62.8Q536.6 62.2 536.6 61.5L536.6 61.5Q536.6 60.7 536.4 60.1Q536.2 59.5 535.8 59.2Q535.3 58.8 534.6 58.8L534.6 58.8Q534.0 58.8 533.5 59.2Q533.1 59.5 532.9 60.1Q532.6 60.7 532.6 61.5L532.6 61.5Q532.6 62.2 532.9 62.8Q533.1 63.5 533.5 63.8Q534.0 64.1 534.6 64.1ZM542.4 65.2L542.4 65.2Q541.4 65.2 540.7 64.7Q539.9 64.2 539.5 63.4Q539.1 62.6 539.1 61.5L539.1 61.5Q539.1 60.4 539.5 59.6Q539.9 58.7 540.7 58.3Q541.4 57.8 542.4 57.8L542.4 57.8Q543.3 57.8 544.1 58.3Q544.8 58.7 545.2 59.6Q545.6 60.4 545.6 61.5L545.6 61.5Q545.6 62.6 545.2 63.4Q544.8 64.2 544.1 64.7Q543.3 65.2 542.4 65.2ZM542.4 64.1L542.4 64.1Q543.1 64.1 543.5 63.8Q544.0 63.4 544.2 62.8Q544.4 62.2 544.4 61.5L544.4 61.5Q544.4 60.8 544.2 60.2Q544.0 59.6 543.5 59.2Q543.1 58.8 542.4 58.8L542.4 58.8Q541.6 58.8 541.2 59.2Q540.7 59.6 540.5 60.2Q540.3 60.8 540.3 61.5L540.3 61.5Q540.3 62.2 540.5 62.8Q540.7 63.4 541.2 63.8Q541.6 64.1 542.4 64.1ZM548.4 60.7L548.4 60.7L548.4 65L547.3 65L547.3 57.9L548.4 57.9L548.4 59.2Q548.7 58.6 549.1 58.2L549.1 58.2Q549.7 57.8 550.5 57.8L550.5 57.8Q551.3 57.8 551.8 58.1Q552.3 58.4 552.6 59.0Q552.9 59.6 552.9 60.5L552.9 60.5L552.9 65L551.8 65L551.8 60.6Q551.8 59.8 551.4 59.3Q550.9 58.8 550.2 58.8L550.2 58.8Q549.7 58.8 549.3 59.1Q548.9 59.3 548.6 59.7Q548.4 60.1 548.4 60.7ZM556.1 65L554.9 65L554.9 57.9L556.1 57.9L556.1 65ZM555.5 56.7L555.5 56.7Q555.2 56.7 555.0 56.5Q554.7 56.3 554.7 56.0L554.7 56.0Q554.7 55.7 555.0 55.4Q555.2 55.2 555.5 55.2L555.5 55.2Q555.9 55.2 556.1 55.4Q556.3 55.7 556.3 56.0L556.3 56.0Q556.3 56.3 556.1 56.5Q555.9 56.7 555.5 56.7ZM561.4 65.2L561.4 65.2Q560.7 65.2 560.3 64.9Q559.9 64.7 559.7 64.4Q559.4 64.1 559.3 63.9L559.3 63.9L559.2 63.9L559.2 65L558.1 65L558.1 55.5L559.2 55.5L559.2 59.0L559.3 59.0Q559.4 58.8 559.7 58.6Q559.9 58.3 560.3 58.0Q560.7 57.8 561.4 57.8L561.4 57.8Q562.3 57.8 562.9 58.3Q563.6 58.7 564.0 59.5Q564.4 60.3 564.4 61.5L564.4 61.5Q564.4 62.6 564.0 63.4Q563.6 64.3 562.9 64.7Q562.3 65.2 561.4 65.2ZM561.2 64.1L561.2 64.1Q561.9 64.1 562.3 63.8Q562.8 63.4 563.0 62.8Q563.2 62.2 563.2 61.5L563.2 61.5Q563.2 60.7 563.0 60.1Q562.8 59.5 562.3 59.2Q561.9 58.8 561.2 58.8L561.2 58.8Q560.6 58.8 560.1 59.2Q559.7 59.5 559.4 60.1Q559.2 60.7 559.2 61.5L559.2 61.5Q559.2 62.2 559.4 62.8Q559.7 63.5 560.1 63.8Q560.6 64.1 561.2 64.1ZM566.1 55.5L567.2 55.5L567.2 65L566.1 65L566.1 55.5ZM572.2 65.2L572.2 65.2Q571.2 65.2 570.4 64.7Q569.7 64.2 569.3 63.4Q568.9 62.6 568.9 61.5Q568.9 60.4 569.3 59.6Q569.6 58.8 570.4 58.3Q571.1 57.8 572.0 57.8L572.0 57.8Q572.6 57.8 573.2 58.0Q573.7 58.2 574.2 58.6Q574.6 59.0 574.9 59.7Q575.1 60.4 575.1 61.4L575.1 61.4L575.1 61.8L570.0 61.8Q570.0 62.5 570.3 63.0L570.3 63.0Q570.6 63.6 571.0 63.9Q571.5 64.1 572.2 64.1L572.2 64.1Q572.6 64.1 573.0 64.0Q573.3 63.9 573.5 63.7Q573.8 63.4 573.9 63.0L573.9 63.0L575.0 63.3Q574.9 63.9 574.5 64.3Q574.1 64.7 573.5 64.9Q572.9 65.2 572.2 65.2ZM570.0 60.9L570.0 60.9L574.0 60.9Q573.9 60.4 573.8 60.0L573.8 60.0Q573.6 59.4 573.1 59.1Q572.7 58.8 572.0 58.8Q571.4 58.8 571.0 59.1Q570.5 59.5 570.3 60.0L570.3 60.0Q570.0 60.4 570.0 60.9Z M583.4 65.2L583.4 65.2Q582.4 65.2 581.6 64.7Q580.9 64.2 580.5 63.4Q580.1 62.6 580.1 61.5Q580.1 60.4 580.5 59.6Q580.9 58.8 581.6 58.3Q582.3 57.8 583.3 57.8L583.3 57.8Q583.8 57.8 584.4 58.0Q584.9 58.2 585.4 58.6Q585.8 59.0 586.1 59.7Q586.4 60.4 586.4 61.4L586.4 61.4L586.4 61.8L581.2 61.8Q581.3 62.5 581.5 63.0L581.5 63.0Q581.8 63.6 582.3 63.9Q582.8 64.1 583.4 64.1L583.4 64.1Q583.8 64.1 584.2 64.0Q584.5 63.9 584.8 63.7Q585.0 63.4 585.2 63.0L585.2 63.0L586.3 63.3Q586.1 63.9 585.7 64.3Q585.3 64.7 584.7 64.9Q584.1 65.2 583.4 65.2ZM581.3 60.9L581.3 60.9L585.2 60.9Q585.2 60.4 585.0 60.0L585.0 60.0Q584.8 59.4 584.4 59.1Q583.9 58.8 583.3 58.8Q582.6 58.8 582.2 59.1Q581.7 59.5 581.5 60.0L581.5 60.0Q581.3 60.4 581.3 60.9ZM589.2 60.7L589.2 60.7L589.2 65L588.0 65L588.0 57.9L589.1 57.9L589.1 59.2Q589.4 58.6 589.9 58.2L589.9 58.2Q590.5 57.8 591.3 57.8L591.3 57.8Q592.0 57.8 592.5 58.1Q593.1 58.4 593.4 59.0Q593.7 59.6 593.7 60.5L593.7 60.5L593.7 65L592.5 65L592.5 60.6Q592.5 59.8 592.1 59.3Q591.7 58.8 590.9 58.8L590.9 58.8Q590.4 58.8 590.0 59.1Q589.6 59.3 589.4 59.7Q589.2 60.1 589.2 60.7Z M603.3 65.1L603.3 65.1Q602.1 65.1 601.2 64.5Q600.2 64.0 599.7 62.9Q599.1 61.8 599.1 60.3L599.1 60.3Q599.1 58.8 599.7 57.7Q600.2 56.6 601.2 56.0Q602.1 55.4 603.3 55.4L603.3 55.4Q604.0 55.4 604.7 55.6Q605.3 55.8 605.8 56.2Q606.3 56.6 606.7 57.2Q607.0 57.8 607.1 58.5L607.1 58.5L605.9 58.5Q605.8 58.0 605.6 57.7Q605.3 57.3 605.0 57.0Q604.6 56.8 604.2 56.7Q603.8 56.5 603.3 56.5L603.3 56.5Q602.5 56.5 601.8 57.0Q601.1 57.4 600.7 58.2Q600.3 59.1 600.3 60.3L600.3 60.3Q600.3 61.5 600.7 62.3Q601.1 63.2 601.8 63.6Q602.5 64.0 603.3 64.0L603.3 64.0Q603.8 64.0 604.2 63.9Q604.6 63.7 605.0 63.5Q605.3 63.2 605.6 62.9Q605.8 62.5 605.9 62.0L605.9 62.0L607.1 62.0Q607.0 62.7 606.7 63.3Q606.3 63.9 605.8 64.3Q605.3 64.7 604.7 64.9Q604.0 65.1 603.3 65.1ZM611.9 65L611.9 65L609.0 65L609.0 55.5L612.1 55.5Q613.4 55.5 614.4 56.1Q615.4 56.7 615.9 57.7Q616.5 58.8 616.5 60.3L616.5 60.3Q616.5 61.7 615.9 62.8Q615.4 63.9 614.4 64.4Q613.4 65 611.9 65ZM610.2 56.6L610.2 63.9L611.9 63.9Q613.0 63.9 613.8 63.5Q614.5 63.1 614.9 62.2Q615.3 61.4 615.3 60.3L615.3 60.3Q615.3 59.1 614.9 58.3Q614.5 57.5 613.8 57.0Q613.1 56.6 612.0 56.6L612.0 56.6L610.2 56.6ZM618.4 55.5L619.6 55.5L619.6 65L618.4 65L618.4 55.5Z "/></g></svg>