<!-- Generated by readme-aura https://github.com/collectioneur/readme-aura -->
<svg width="900" height="120" viewBox="0 0 900 120" xmlns="http://www.w3.org/2000/svg"><mask id="satori_om-id"><rect x="0" y="0" width="900" height="120" fill="#fff"/></mask><path x="0" y="0" width="900" height="120" fill="#0a0c14" d="M16,0 h868 a16,16 0 0 1 16,16 v88 a16,16 0 0 1 -16,16 h-868 a16,16 0 0 1 -16,-16 v-88 a16,16 0 0 1 16,-16"/><mask id="satori_om-id-0"><rect x="20" y="32" width="210" height="57" fill="#fff"/></mask><mask id="satori_om-id-0-0"><rect x="107" y="32" width="37" height="41" fill="#fff"/></mask><mask id="satori_om-id-0-0-0"><rect x="107" y="50" width="6" height="6" fill="#fff"/></mask><path x="107" y="50" width="6" height="6" fill="#22d3ee" d="M110,50 h0 a3,3 0 0 1 3,3 v0 a3,3 0 0 1 -3,3 h0 a3,3 0 0 1 -3,-3 v0 a3,3 0 0 1 3,-3"/><mask id="satori_om-id-0-0-0-0"><rect x="107" y="50" width="0" height="6" fill="#fff"/></mask><clipPath id="satori_bct-id-0-0-1"><path d="M134.5 60.6L122.7 60.6L122.7 56.6L133.0 40.3L139.4 40.3L139.4 56.5L142.5 56.5L142.5 60.6L139.4 60.6L139.4 65L134.5 65L134.5 60.6ZM127.8 56.5L134.6 56.5L134.6 45.8L134.4 45.8L127.8 56.3L127.8 56.5Z "/></clipPath><defs><pattern id="satori_pattern_id-0-0-1_0" x="0" y="0" width="1" height="1" patternUnits="objectBoundingBox"><linearGradient id="satori_biid-0-0-1_0" x1="0" y1="0" x2="1" y2="0" spreadMethod="pad"><stop offset="0%" stop-color="#22d3ee"/><stop offset="100%" stop-color="#67e8f9"/></linearGradient><rect x="0" y="0" width="23" height="41" fill="url(#satori_biid-0-0-1_0)"/></pattern></defs><mask id="satori_om-id-0-0-1"><rect x="121" y="32" width="23" height="41" fill="#fff"/></mask><rect x="121" y="32" width="23" height="41" fill="url(#satori_pattern_id-0-0-1_0)" clip-path="url(#satori_bct-id-0-0-1)"/><mask id="satori_om-id-0-1"><rect x="68" y="76" width="114" height="13" fill="#fff"/></mask><g  ><path fill="#94a3b8" d="M69.4 87L68.3 87L71.2 79.0L72.4 79.0L75.3 87L74.2 87L73.4 84.8L70.1 84.8L69.4 87ZM70.4 83.9L73.1 83.9L72.5 82.3Q72.4 81.8 72.2 81.2L72.2 81.2Q72.0 80.6 71.8 79.8L71.8 79.8Q71.5 80.6 71.4 81.2L71.4 81.2Q71.2 81.8 71.0 82.3L71.0 82.3L70.4 83.9ZM78.6 87L77.6 87L77.6 79.0L78.8 79.0L82.0 84.1Q82.1 84.3 82.3 84.6Q82.5 84.9 82.7 85.3L82.7 85.3Q82.8 85.5 83.0 85.8L83.0 85.8Q82.9 85.5 82.9 85.3L82.9 85.3Q82.9 84.9 82.9 84.5Q82.9 84.2 82.9 83.9L82.9 83.9L82.9 79.0L83.9 79.0L83.9 87L82.7 87L79.8 82.4Q79.6 82.1 79.4 81.8Q79.2 81.5 78.9 81.0L78.9 81.0Q78.7 80.7 78.5 80.2L78.5 80.2Q78.5 80.6 78.5 81.0L78.5 81.0Q78.6 81.5 78.6 81.8Q78.6 82.2 78.6 82.4L78.6 82.4L78.6 87ZM89.4 87.1L89.4 87.1Q88.5 87.1 87.9 86.9Q87.3 86.6 86.9 86.1Q86.5 85.6 86.5 84.9L86.5 84.9L87.5 84.9Q87.6 85.4 87.9 85.6Q88.1 85.9 88.5 86.1Q88.9 86.2 89.4 86.2L89.4 86.2Q89.9 86.2 90.4 86.0Q90.8 85.9 91.1 85.5Q91.3 85.2 91.3 84.8L91.3 84.8Q91.3 84.4 91.1 84.2Q90.9 83.9 90.5 83.8Q90.2 83.6 89.7 83.5L89.7 83.5L88.8 83.2Q87.8 83.0 87.3 82.4Q86.7 81.9 86.7 81.1L86.7 81.1Q86.7 80.5 87.1 80.0Q87.5 79.4 88.1 79.2Q88.7 78.9 89.5 78.9L89.5 78.9Q90.3 78.9 90.9 79.2Q91.5 79.4 91.8 79.9Q92.2 80.4 92.2 81.0L92.2 81.0L91.2 81.0Q91.1 80.4 90.6 80.1Q90.2 79.8 89.4 79.8L89.4 79.8Q88.9 79.8 88.5 80.0Q88.1 80.1 87.9 80.4Q87.7 80.7 87.7 81.1L87.7 81.1Q87.7 81.5 88.0 81.8Q88.2 82.0 88.6 82.2Q89.0 82.3 89.2 82.4L89.2 82.4L90.0 82.6Q90.4 82.7 90.8 82.8Q91.1 83.0 91.5 83.2Q91.9 83.5 92.1 83.9Q92.3 84.3 92.3 84.8L92.3 84.8Q92.3 85.5 92.0 86.0Q91.6 86.5 91.0 86.8Q90.3 87.1 89.4 87.1Z M99.4 87L98.3 87L101.2 79.0L102.4 79.0L105.3 87L104.3 87L103.5 84.8L100.2 84.8L99.4 87ZM100.5 83.9L103.1 83.9L102.6 82.3Q102.4 81.8 102.2 81.2L102.2 81.2Q102.0 80.6 101.8 79.8L101.8 79.8Q101.6 80.6 101.4 81.2L101.4 81.2Q101.2 81.8 101.0 82.3L101.0 82.3L100.5 83.9ZM112.3 87L107.6 87L107.6 79.0L108.6 79.0L108.6 86.1L112.3 86.1L112.3 87ZM116.9 79.9L114.4 79.9L114.4 79.0L120.4 79.0L120.4 79.9L117.9 79.9L117.9 87L116.9 87L116.9 79.9ZM127.8 87L122.9 87L122.9 79.0L127.8 79.0L127.8 79.9L123.9 79.9L123.9 82.5L127.5 82.5L127.5 83.4L123.9 83.4L123.9 86.1L127.8 86.1L127.8 87ZM131.5 87L130.5 87L130.5 79.0L133.3 79.0Q134.2 79.0 134.8 79.3Q135.4 79.6 135.7 80.2Q136.0 80.8 136.0 81.5Q136.0 82.2 135.7 82.7Q135.4 83.3 134.8 83.6L134.8 83.6Q134.7 83.7 134.5 83.7L134.5 83.7L136.3 87L135.1 87L133.4 83.9Q133.4 83.9 133.3 83.9L133.3 83.9L131.5 83.9L131.5 87ZM131.5 79.9L131.5 83.0L133.2 83.0Q133.8 83.0 134.2 82.8Q134.6 82.6 134.8 82.3Q135.0 81.9 135.0 81.5L135.0 81.5Q135.0 81.0 134.8 80.6Q134.6 80.3 134.2 80.1Q133.8 79.9 133.2 79.9L133.2 79.9L131.5 79.9ZM139.6 87L138.6 87L138.6 79.0L139.8 79.0L143.1 84.1Q143.2 84.3 143.4 84.6Q143.5 84.9 143.8 85.3L143.8 85.3Q143.9 85.5 144.0 85.8L144.0 85.8Q144.0 85.5 144.0 85.3L144.0 85.3Q143.9 84.9 143.9 84.5Q143.9 84.2 143.9 83.9L143.9 83.9L143.9 79.0L144.9 79.0L144.9 87L143.7 87L140.8 82.4Q140.6 82.1 140.4 81.8Q140.2 81.5 140.0 81.0L140.0 81.0Q139.8 80.7 139.5 80.2L139.5 80.2Q139.6 80.6 139.6 81.0L139.6 81.0Q139.6 81.5 139.6 81.8Q139.6 82.2 139.6 82.4L139.6 82.4L139.6 87ZM148.3 87L147.2 87L150.1 79.0L151.3 79.0L154.2 87L153.2 87L152.4 84.8L149.1 84.8L148.3 87ZM149.4 83.9L152.0 83.9L151.5 82.3Q151.3 81.8 151.1 81.2L151.1 81.2Q150.9 80.6 150.7 79.8L150.7 79.8Q150.5 80.6 150.3 81.2L150.3 81.2Q150.1 81.8 149.9 82.3L149.9 82.3L149.4 83.9ZM157.5 87L156.5 87L156.5 79.0L157.7 79.0L160.9 84.1Q161.1 84.3 161.2 84.6Q161.4 84.9 161.6 85.3L161.6 85.3Q161.8 85.5 161.9 85.8L161.9 85.8Q161.8 85.5 161.8 85.3L161.8 85.3Q161.8 84.9 161.8 84.5Q161.8 84.2 161.8 83.9L161.8 83.9L161.8 79.0L162.8 79.0L162.8 87L161.6 87L158.7 82.4Q158.5 82.1 158.3 81.8Q158.1 81.5 157.9 81.0L157.9 81.0Q157.7 80.7 157.4 80.2L157.4 80.2Q157.4 80.6 157.5 81.0L157.5 81.0Q157.5 81.5 157.5 81.8Q157.5 82.2 157.5 82.4L157.5 82.4L157.5 87ZM169.0 87.1L169.0 87.1Q168.0 87.1 167.2 86.6Q166.4 86.1 165.9 85.2Q165.4 84.3 165.4 83.0L165.4 83.0Q165.4 81.7 165.9 80.8Q166.4 79.9 167.2 79.4Q168.0 78.9 169.0 78.9L169.0 78.9Q169.6 78.9 170.1 79.1Q170.7 79.2 171.1 79.6Q171.5 79.9 171.8 80.4Q172.1 80.9 172.2 81.5L172.2 81.5L171.2 81.5Q171.1 81.1 170.9 80.8Q170.7 80.5 170.4 80.3Q170.1 80.0 169.8 79.9Q169.4 79.8 169.0 79.8L169.0 79.8Q168.3 79.8 167.7 80.2Q167.1 80.6 166.8 81.3Q166.4 82.0 166.4 83.0L166.4 83.0Q166.4 84.0 166.8 84.7Q167.1 85.4 167.7 85.8Q168.3 86.2 169.0 86.2L169.0 86.2Q169.4 86.2 169.8 86.1Q170.1 85.9 170.4 85.7Q170.7 85.5 170.9 85.2Q171.1 84.9 171.2 84.5L171.2 84.5L172.2 84.5Q172.1 85.1 171.8 85.6Q171.6 86.1 171.1 86.4Q170.7 86.7 170.2 86.9Q169.6 87.1 169.0 87.1ZM179.7 87L174.8 87L174.8 79.0L179.7 79.0L179.7 79.9L175.8 79.9L175.8 82.5L179.4 82.5L179.4 83.4L175.8 83.4L175.8 86.1L179.7 86.1L179.7 87Z "/></g><mask id="satori_om-id-1"><rect x="233" y="37" width="1" height="46" fill="#fff"/></mask><rect x="233" y="37" width="1" height="46" fill="#1e293b"/><mask id="satori_om-id-2"><rect x="237" y="32" width="210" height="57" fill="#fff"/></mask><mask id="satori_om-id-2-0"><rect x="324" y="32" width="36" height="41" fill="#fff"/></mask><mask id="satori_om-id-2-0-0"><rect x="324" y="50" width="6" height="6" fill="#fff"/></mask><path x="324" y="50" width="6" height="6" fill="#a78bfa" d="M327,50 h0 a3,3 0 0 1 3,3 v0 a3,3 0 0 1 -3,3 h0 a3,3 0 0 1 -3,-3 v0 a3,3 0 0 1 3,-3"/><mask id="satori_om-id-2-0-0-0"><rect x="324" y="50" width="0" height="6" fill="#fff"/></mask><clipPath id="satori_bct-id-2-0-1"><path d="M357.6 65L340.1 65L340.1 61.3L348.8 53.1Q350.0 52.0 350.7 51.1Q351.5 50.3 351.9 49.4Q352.3 48.5 352.3 47.6L352.3 47.6Q352.3 46.4 351.8 45.6Q351.3 44.8 350.5 44.4Q349.6 44.0 348.5 44.0L348.5 44.0Q347.3 44.0 346.5 44.4Q345.6 44.9 345.1 45.8Q344.7 46.6 344.7 47.9L344.7 47.9L339.8 47.9Q339.8 45.4 340.9 43.7Q342.0 41.9 344.0 40.9Q346.0 39.9 348.5 39.9L348.5 39.9Q351.1 39.9 353.1 40.9Q355.0 41.8 356.1 43.5Q357.2 45.1 357.2 47.2L357.2 47.2Q357.2 48.6 356.7 50.0Q356.1 51.3 354.8 53.0Q353.4 54.6 350.8 57.0L350.8 57.0L347.1 60.7L347.1 60.8L357.6 60.8L357.6 65Z "/></clipPath><defs><pattern id="satori_pattern_id-2-0-1_0" x="0" y="0" width="1" height="1" patternUnits="objectBoundingBox"><linearGradient id="satori_biid-2-0-1_0" x1="0" y1="0" x2="1" y2="0" spreadMethod="pad"><stop offset="0%" stop-color="#a78bfa"/><stop offset="100%" stop-color="#c4b5fd"/></linearGradient><rect x="0" y="0" width="22" height="41" fill="url(#satori_biid-2-0-1_0)"/></pattern></defs><mask id="satori_om-id-2-0-1"><rect x="338" y="32" width="22" height="41" fill="#fff"/></mask><rect x="338" y="32" width="22" height="41" fill="url(#satori_pattern_id-2-0-1_0)" clip-path="url(#satori_bct-id-2-0-1)"/><mask id="satori_om-id-2-1"><rect x="291" y="76" width="103" height="13" fill="#fff"/></mask><g  ><path fill="#94a3b8" d="M292.4 87L291.3 87L294.2 79.0L295.4 79.0L298.3 87L297.2 87L296.4 84.8L293.1 84.8L292.4 87ZM293.4 83.9L296.1 83.9L295.5 82.3Q295.4 81.8 295.2 81.2L295.2 81.2Q295.0 80.6 294.8 79.8L294.8 79.8Q294.5 80.6 294.4 81.2L294.4 81.2Q294.2 81.8 294.0 82.3L294.0 82.3L293.4 83.9ZM301.6 87L300.6 87L300.6 79.0L301.8 79.0L305.0 84.1Q305.1 84.3 305.3 84.6Q305.5 84.9 305.7 85.3L305.7 85.3Q305.8 85.5 306.0 85.8L306.0 85.8Q305.9 85.5 305.9 85.3L305.9 85.3Q305.9 84.9 305.9 84.5Q305.9 84.2 305.9 83.9L305.9 83.9L305.9 79.0L306.9 79.0L306.9 87L305.7 87L302.8 82.4Q302.6 82.1 302.4 81.8Q302.2 81.5 301.9 81.0L301.9 81.0Q301.7 80.7 301.5 80.2L301.5 80.2Q301.5 80.6 301.5 81.0L301.5 81.0Q301.6 81.5 301.6 81.8Q301.6 82.2 301.6 82.4L301.6 82.4L301.6 87ZM312.4 87.1L312.4 87.1Q311.5 87.1 310.9 86.9Q310.3 86.6 309.9 86.1Q309.5 85.6 309.5 84.9L309.5 84.9L310.5 84.9Q310.6 85.4 310.9 85.6Q311.1 85.9 311.5 86.1Q311.9 86.2 312.4 86.2L312.4 86.2Q312.9 86.2 313.4 86.0Q313.8 85.9 314.1 85.5Q314.3 85.2 314.3 84.8L314.3 84.8Q314.3 84.4 314.1 84.2Q313.9 83.9 313.5 83.8Q313.2 83.6 312.7 83.5L312.7 83.5L311.8 83.2Q310.8 83.0 310.3 82.4Q309.7 81.9 309.7 81.1L309.7 81.1Q309.7 80.5 310.1 80.0Q310.5 79.4 311.1 79.2Q311.7 78.9 312.5 78.9L312.5 78.9Q313.3 78.9 313.9 79.2Q314.5 79.4 314.8 79.9Q315.2 80.4 315.2 81.0L315.2 81.0L314.2 81.0Q314.1 80.4 313.6 80.1Q313.2 79.8 312.4 79.8L312.4 79.8Q311.9 79.8 311.5 80.0Q311.1 80.1 310.9 80.4Q310.7 80.7 310.7 81.1L310.7 81.1Q310.7 81.5 311.0 81.8Q311.2 82.0 311.6 82.2Q312.0 82.3 312.2 82.4L312.2 82.4L313.0 82.6Q313.4 82.7 313.8 82.8Q314.1 83.0 314.5 83.2Q314.9 83.5 315.1 83.9Q315.3 84.3 315.3 84.8L315.3 84.8Q315.3 85.5 315.0 86.0Q314.6 86.5 314.0 86.8Q313.3 87.1 312.4 87.1Z M323.0 87L322.0 87L322.0 79.0L326.8 79.0L326.8 79.9L323.0 79.9L323.0 82.6L326.5 82.6L326.5 83.5L323.0 83.5L323.0 87ZM330.5 87L329.5 87L329.5 79.0L332.2 79.0Q333.2 79.0 333.8 79.3Q334.4 79.6 334.7 80.2Q335.0 80.8 335.0 81.5Q335.0 82.2 334.7 82.7Q334.4 83.3 333.8 83.6L333.8 83.6Q333.6 83.7 333.5 83.7L333.5 83.7L335.3 87L334.1 87L332.4 83.9Q332.3 83.9 332.2 83.9L332.2 83.9L330.5 83.9L330.5 87ZM330.5 79.9L330.5 83.0L332.2 83.0Q332.8 83.0 333.2 82.8Q333.6 82.6 333.8 82.3Q333.9 81.9 333.9 81.5L333.9 81.5Q333.9 81.0 333.8 80.6Q333.6 80.3 333.2 80.1Q332.8 79.9 332.2 79.9L332.2 79.9L330.5 79.9ZM342.5 87L337.6 87L337.6 79.0L342.4 79.0L342.4 79.9L338.6 79.9L338.6 82.5L342.2 82.5L342.2 83.4L338.6 83.4L338.6 86.1L342.5 86.1L342.5 87ZM350.1 87L345.2 87L345.2 79.0L350.1 79.0L350.1 79.9L346.2 79.9L346.2 82.5L349.8 82.5L349.8 83.4L346.2 83.4L346.2 86.1L350.1 86.1L350.1 87ZM357.5 87L352.8 87L352.8 79.0L353.8 79.0L353.8 86.1L357.5 86.1L357.5 87ZM360.4 87L359.3 87L362.2 79.0L363.4 79.0L366.4 87L365.3 87L364.5 84.8L361.2 84.8L360.4 87ZM361.5 83.9L364.2 83.9L363.6 82.3Q363.4 81.8 363.2 81.2L363.2 81.2Q363.1 80.6 362.8 79.8L362.8 79.8Q362.6 80.6 362.4 81.2L362.4 81.2Q362.2 81.8 362.1 82.3L362.1 82.3L361.5 83.9ZM369.6 87L368.6 87L368.6 79.0L369.8 79.0L373.1 84.1Q373.2 84.3 373.4 84.6Q373.6 84.9 373.8 85.3L373.8 85.3Q373.9 85.5 374.0 85.8L374.0 85.8Q374.0 85.5 374.0 85.3L374.0 85.3Q373.9 84.9 373.9 84.5Q373.9 84.2 373.9 83.9L373.9 83.9L373.9 79.0L375.0 79.0L375.0 87L373.7 87L370.8 82.4Q370.6 82.1 370.4 81.8Q370.2 81.5 370.0 81.0L370.0 81.0Q369.8 80.7 369.5 80.2L369.5 80.2Q369.6 80.6 369.6 81.0L369.6 81.0Q369.6 81.5 369.6 81.8Q369.6 82.2 369.6 82.4L369.6 82.4L369.6 87ZM381.1 87.1L381.1 87.1Q380.1 87.1 379.3 86.6Q378.5 86.1 378.0 85.2Q377.6 84.3 377.6 83.0L377.6 83.0Q377.6 81.7 378.0 80.8Q378.5 79.9 379.3 79.4Q380.1 78.9 381.1 78.9L381.1 78.9Q381.7 78.9 382.3 79.1Q382.8 79.2 383.2 79.6Q383.7 79.9 384.0 80.4Q384.2 80.9 384.4 81.5L384.4 81.5L383.3 81.5Q383.2 81.1 383.0 80.8Q382.8 80.5 382.5 80.3Q382.2 80.0 381.9 79.9Q381.5 79.8 381.1 79.8L381.1 79.8Q380.4 79.8 379.8 80.2Q379.2 80.6 378.9 81.3Q378.6 82.0 378.6 83.0L378.6 83.0Q378.6 84.0 378.9 84.7Q379.3 85.4 379.8 85.8Q380.4 86.2 381.1 86.2L381.1 86.2Q381.5 86.2 381.9 86.1Q382.2 85.9 382.5 85.7Q382.8 85.5 383.0 85.2Q383.2 84.9 383.3 84.5L383.3 84.5L384.4 84.5Q384.3 85.1 384.0 85.6Q383.7 86.1 383.2 86.4Q382.8 86.7 382.3 86.9Q381.7 87.1 381.1 87.1ZM391.8 87L386.9 87L386.9 79.0L391.8 79.0L391.8 79.9L387.9 79.9L387.9 82.5L391.5 82.5L391.5 83.4L387.9 83.4L387.9 86.1L391.8 86.1L391.8 87Z "/></g><mask id="satori_om-id-3"><rect x="450" y="37" width="1" height="46" fill="#fff"/></mask><rect x="450" y="37" width="1" height="46" fill="#1e293b"/><mask id="satori_om-id-4"><rect x="453" y="32" width="210" height="57" fill="#fff"/></mask><mask id="satori_om-id-4-0"><rect x="540" y="32" width="36" height="41" fill="#fff"/></mask><mask id="satori_om-id-4-0-0"><rect x="540" y="50" width="6" height="6" fill="#fff"/></mask><path x="540" y="50" width="6" height="6" fill="#f472b6" d="M543,50 h0 a3,3 0 0 1 3,3 v0 a3,3 0 0 1 -3,3 h0 a3,3 0 0 1 -3,-3 v0 a3,3 0 0 1 3,-3"/><mask id="satori_om-id-4-0-0-0"><rect x="540" y="50" width="0" height="6" fill="#fff"/></mask><clipPath id="satori_bct-id-4-0-1"><path d="M564.9 65.3L564.9 65.3Q562.3 65.3 560.2 64.4Q558.1 63.5 556.9 61.8Q555.7 60.2 555.6 58.1L555.6 58.1L560.7 58.1Q560.8 59.0 561.3 59.7Q561.9 60.4 562.8 60.8Q563.8 61.1 565.0 61.1L565.0 61.1Q566.2 61.1 567.1 60.7Q568.0 60.3 568.6 59.5Q569.1 58.8 569.1 57.7L569.1 57.7Q569.1 56.7 568.6 55.9Q568.0 55.2 567.0 54.7Q565.9 54.3 564.5 54.3L564.5 54.3L562.2 54.3L562.2 50.5L564.5 50.5Q565.7 50.5 566.6 50.1Q567.5 49.7 568.1 48.9Q568.6 48.2 568.6 47.2L568.6 47.2Q568.6 46.2 568.1 45.5Q567.7 44.8 566.9 44.4Q566.1 44.0 565.0 44.0L565.0 44.0Q563.9 44.0 563.0 44.4Q562.1 44.8 561.6 45.5Q561.0 46.2 561.0 47.1L561.0 47.1L556.1 47.1Q556.2 45.0 557.3 43.4Q558.5 41.8 560.5 40.8Q562.5 39.9 565.0 39.9L565.0 39.9Q567.6 39.9 569.5 40.9Q571.4 41.8 572.4 43.4Q573.5 44.9 573.5 46.9L573.5 46.9Q573.5 48.9 572.2 50.3Q570.9 51.7 568.9 52.1L568.9 52.1L568.9 52.3Q570.7 52.5 571.9 53.3Q573.1 54.1 573.8 55.3Q574.4 56.5 574.4 58.1L574.4 58.1Q574.4 60.2 573.2 61.8Q572.0 63.5 569.8 64.4Q567.7 65.3 564.9 65.3Z "/></clipPath><defs><pattern id="satori_pattern_id-4-0-1_0" x="0" y="0" width="1" height="1" patternUnits="objectBoundingBox"><linearGradient id="satori_biid-4-0-1_0" x1="0" y1="0" x2="1" y2="0" spreadMethod="pad"><stop offset="0%" stop-color="#f472b6"/><stop offset="100%" stop-color="#f9a8d4"/></linearGradient><rect x="0" y="0" width="22" height="41" fill="url(#satori_biid-4-0-1_0)"/></pattern></defs><mask id="satori_om-id-4-0-1"><rect x="554" y="32" width="22" height="41" fill="#fff"/></mask><rect x="554" y="32" width="22" height="41" fill="url(#satori_pattern_id-4-0-1_0)" clip-path="url(#satori_bct-id-4-0-1)"/><mask id="satori_om-id-4-1"><rect x="518" y="76" width="81" height="13" fill="#fff"/></mask><g  ><path fill="#94a3b8" d="M521.5 87.1L521.5 87.1Q520.7 87.1 520.0 86.9Q519.4 86.6 519.0 86.1Q518.7 85.6 518.6 84.9L518.6 84.9L519.7 84.9Q519.7 85.4 520.0 85.6Q520.2 85.9 520.7 86.1Q521.1 86.2 521.5 86.2L521.5 86.2Q522.1 86.2 522.5 86.0Q522.9 85.9 523.2 85.5Q523.4 85.2 523.4 84.8L523.4 84.8Q523.4 84.4 523.2 84.2Q523.0 83.9 522.6 83.8Q522.3 83.6 521.9 83.5L521.9 83.5L520.9 83.2Q519.9 83.0 519.4 82.4Q518.8 81.9 518.8 81.1L518.8 81.1Q518.8 80.5 519.2 80.0Q519.6 79.4 520.2 79.2Q520.8 78.9 521.6 78.9L521.6 78.9Q522.4 78.9 523.0 79.2Q523.6 79.4 524.0 79.9Q524.3 80.4 524.3 81.0L524.3 81.0L523.3 81.0Q523.3 80.4 522.8 80.1Q522.3 79.8 521.6 79.8L521.6 79.8Q521.1 79.8 520.7 80.0Q520.3 80.1 520.1 80.4Q519.8 80.7 519.8 81.1L519.8 81.1Q519.8 81.5 520.1 81.8Q520.4 82.0 520.7 82.2Q521.1 82.3 521.4 82.4L521.4 82.4L522.2 82.6Q522.5 82.7 522.9 82.8Q523.3 83.0 523.6 83.2Q524.0 83.5 524.2 83.9Q524.4 84.3 524.4 84.8L524.4 84.8Q524.4 85.5 524.1 86.0Q523.8 86.5 523.1 86.8Q522.5 87.1 521.5 87.1ZM527.4 87L526.3 87L529.2 79.0L530.4 79.0L533.4 87L532.3 87L531.5 84.8L528.2 84.8L527.4 87ZM528.5 83.9L531.2 83.9L530.6 82.3Q530.4 81.8 530.2 81.2L530.2 81.2Q530.1 80.6 529.8 79.8L529.8 79.8Q529.6 80.6 529.4 81.2L529.4 81.2Q529.2 81.8 529.1 82.3L529.1 82.3L528.5 83.9ZM536.0 87L534.9 87L537.8 79.0L539.0 79.0L542.0 87L540.9 87L540.1 84.8L536.8 84.8L536.0 87ZM537.1 83.9L539.8 83.9L539.2 82.3Q539.0 81.8 538.8 81.2L538.8 81.2Q538.7 80.6 538.4 79.8L538.4 79.8Q538.2 80.6 538.0 81.2L538.0 81.2Q537.8 81.8 537.7 82.3L537.7 82.3L537.1 83.9ZM546.8 87.1L546.8 87.1Q545.9 87.1 545.3 86.9Q544.6 86.6 544.3 86.1Q543.9 85.6 543.9 84.9L543.9 84.9L544.9 84.9Q544.9 85.4 545.2 85.6Q545.5 85.9 545.9 86.1Q546.3 86.2 546.8 86.2L546.8 86.2Q547.3 86.2 547.7 86.0Q548.2 85.9 548.4 85.5Q548.7 85.2 548.7 84.8L548.7 84.8Q548.7 84.4 548.5 84.2Q548.2 83.9 547.9 83.8Q547.5 83.6 547.1 83.5L547.1 83.5L546.1 83.2Q545.2 83.0 544.6 82.4Q544.1 81.9 544.1 81.1L544.1 81.1Q544.1 80.5 544.5 80.0Q544.8 79.4 545.4 79.2Q546.1 78.9 546.8 78.9L546.8 78.9Q547.6 78.9 548.2 79.2Q548.8 79.4 549.2 79.9Q549.5 80.4 549.6 81.0L549.6 81.0L548.6 81.0Q548.5 80.4 548.0 80.1Q547.5 79.8 546.8 79.8L546.8 79.8Q546.3 79.8 545.9 80.0Q545.5 80.1 545.3 80.4Q545.1 80.7 545.1 81.1L545.1 81.1Q545.1 81.5 545.3 81.8Q545.6 82.0 546.0 82.2Q546.3 82.3 546.6 82.4L546.6 82.4L547.4 82.6Q547.7 82.7 548.1 82.8Q548.5 83.0 548.9 83.2Q549.2 83.5 549.4 83.9Q549.7 84.3 549.7 84.8L549.7 84.8Q549.7 85.5 549.3 86.0Q549.0 86.5 548.3 86.8Q547.7 87.1 546.8 87.1Z M561.1 87L556.4 87L556.4 79.0L557.4 79.0L557.4 86.1L561.1 86.1L561.1 87ZM563.6 79.0L564.6 79.0L564.6 87L563.6 87L563.6 79.0ZM571.0 87L569.8 87L566.8 79.0L567.9 79.0L569.6 83.7Q569.8 84.2 570.0 84.8L570.0 84.8Q570.1 85.4 570.4 86.2L570.4 86.2Q570.6 85.4 570.8 84.8L570.8 84.8Q571.0 84.2 571.1 83.7L571.1 83.7L572.8 79.0L573.9 79.0L571.0 87ZM577.1 87L576.1 87L576.1 79.0L578.9 79.0Q579.8 79.0 580.4 79.3Q581 79.6 581.3 80.2Q581.6 80.8 581.6 81.5Q581.6 82.2 581.3 82.7Q581 83.3 580.4 83.6L580.4 83.6Q580.3 83.7 580.1 83.7L580.1 83.7L581.9 87L580.7 87L579.1 83.9Q579.0 83.9 578.9 83.9L578.9 83.9L577.1 83.9L577.1 87ZM577.1 79.9L577.1 83.0L578.8 83.0Q579.4 83.0 579.8 82.8Q580.2 82.6 580.4 82.3Q580.6 81.9 580.6 81.5L580.6 81.5Q580.6 81.0 580.4 80.6Q580.2 80.3 579.8 80.1Q579.4 79.9 578.8 79.9L578.8 79.9L577.1 79.9ZM589.1 87L584.2 87L584.2 79.0L589.1 79.0L589.1 79.9L585.2 79.9L585.2 82.5L588.8 82.5L588.8 83.4L585.2 83.4L585.2 86.1L589.1 86.1L589.1 87ZM587.0 78.2L586.2 78.2L587.0 76.6L588.1 76.6L587.0 78.2ZM594.4 87.1L594.4 87.1Q593.5 87.1 592.9 86.9Q592.2 86.6 591.9 86.1Q591.5 85.6 591.5 84.9L591.5 84.9L592.5 84.9Q592.6 85.4 592.8 85.6Q593.1 85.9 593.5 86.1Q593.9 86.2 594.4 86.2L594.4 86.2Q594.9 86.2 595.3 86.0Q595.8 85.9 596.0 85.5Q596.3 85.2 596.3 84.8L596.3 84.8Q596.3 84.4 596.1 84.2Q595.8 83.9 595.5 83.8Q595.1 83.6 594.7 83.5L594.7 83.5L593.7 83.2Q592.8 83.0 592.2 82.4Q591.7 81.9 591.7 81.1L591.7 81.1Q591.7 80.5 592.1 80.0Q592.4 79.4 593.0 79.2Q593.7 78.9 594.4 78.9L594.4 78.9Q595.2 78.9 595.8 79.2Q596.4 79.4 596.8 79.9Q597.1 80.4 597.2 81.0L597.2 81.0L596.2 81.0Q596.1 80.4 595.6 80.1Q595.1 79.8 594.4 79.8L594.4 79.8Q593.9 79.8 593.5 80.0Q593.1 80.1 592.9 80.4Q592.7 80.7 592.7 81.1L592.7 81.1Q592.7 81.5 592.9 81.8Q593.2 82.0 593.6 82.2Q593.9 82.3 594.2 82.4L594.2 82.4L595.0 82.6Q595.3 82.7 595.7 82.8Q596.1 83.0 596.5 83.2Q596.8 83.5 597.0 83.9Q597.3 84.3 597.3 84.8L597.3 84.8Q597.3 85.5 596.9 86.0Q596.6 86.5 595.9 86.8Q595.3 87.1 594.4 87.1Z "/></g><mask id="satori_om-id-5"><rect x="666" y="37" width="1" height="46" fill="#fff"/></mask><rect x="666" y="37" width="1" height="46" fill="#1e293b"/><mask id="satori_om-id-6"><rect x="670" y="32" width="210" height="57" fill="#fff"/></mask><mask id="satori_om-id-6-0"><rect x="750" y="32" width="51" height="41" fill="#fff"/></mask><mask id="satori_om-id-6-0-0"><rect x="750" y="50" width="6" height="6" fill="#fff"/></mask><path x="750" y="50" width="6" height="6" fill="#34d399" d="M753,50 h0 a3,3 0 0 1 3,3 v0 a3,3 0 0 1 -3,3 h0 a3,3 0 0 1 -3,-3 v0 a3,3 0 0 1 3,-3"/><mask id="satori_om-id-6-0-0-0"><rect x="750" y="50" width="0" height="6" fill="#fff"/></mask><clipPath id="satori_bct-id-6-0-1"><path d="M771.0 40.3L776.4 40.3L776.4 65L771.4 65L771.4 44.7L771.2 44.7L765.5 48.7L765.5 44.1L771.0 40.3ZM798.2 65L780.7 65L780.7 61.3L789.5 53.1Q790.6 52.0 791.4 51.1Q792.2 50.3 792.6 49.4Q793.0 48.5 793.0 47.6L793.0 47.6Q793.0 46.4 792.5 45.6Q792.0 44.8 791.1 44.4Q790.2 44.0 789.1 44.0L789.1 44.0Q788.0 44.0 787.1 44.4Q786.3 44.9 785.8 45.8Q785.3 46.6 785.3 47.9L785.3 47.9L780.5 47.9Q780.5 45.4 781.6 43.7Q782.7 41.9 784.7 40.9Q786.6 39.9 789.2 39.9L789.2 39.9Q791.8 39.9 793.8 40.9Q795.7 41.8 796.8 43.5Q797.9 45.1 797.9 47.2L797.9 47.2Q797.9 48.6 797.3 50.0Q796.8 51.3 795.4 53.0Q794.0 54.6 791.5 57.0L791.5 57.0L787.8 60.7L787.8 60.8L798.2 60.8L798.2 65Z "/></clipPath><defs><pattern id="satori_pattern_id-6-0-1_0" x="0" y="0" width="1" height="1" patternUnits="objectBoundingBox"><linearGradient id="satori_biid-6-0-1_0" x1="0" y1="0" x2="1" y2="0" spreadMethod="pad"><stop offset="0%" stop-color="#34d399"/><stop offset="100%" stop-color="#6ee7b7"/></linearGradient><rect x="0" y="0" width="37" height="41" fill="url(#satori_biid-6-0-1_0)"/></pattern></defs><mask id="satori_om-id-6-0-1"><rect x="764" y="32" width="37" height="41" fill="#fff"/></mask><rect x="764" y="32" width="37" height="41" fill="url(#satori_pattern_id-6-0-1_0)" clip-path="url(#satori_bct-id-6-0-1)"/><mask id="satori_om-id-6-1"><rect x="719" y="76" width="112" height="13" fill="#fff"/></mask><g  ><path fill="#94a3b8" d="M720.9 87L720.0 87L720.0 79.0L721.4 79.0L723.4 84.0Q723.5 84.2 723.5 84.5Q723.6 84.8 723.7 85.1Q723.8 85.4 723.9 85.7L723.9 85.7Q724.0 85.8 724.0 85.9L724.0 85.9Q724.0 85.8 724.0 85.7L724.0 85.7Q724.1 85.4 724.2 85.1Q724.3 84.8 724.4 84.5Q724.5 84.2 724.6 84.0L724.6 84.0L726.5 79.0L728.0 79.0L728.0 87L727.0 87L727.0 82.4Q727.0 82.2 727.0 81.9Q727.0 81.5 727.0 81.2Q727.0 80.9 727.0 80.5L727.0 80.5Q727.0 80.3 727.0 80.1L727.0 80.1Q726.9 80.3 726.9 80.5L726.9 80.5Q726.7 80.9 726.6 81.3Q726.5 81.6 726.4 81.9Q726.3 82.2 726.2 82.4L726.2 82.4L724.4 87L723.5 87L721.7 82.4Q721.6 82.2 721.5 82.0Q721.4 81.7 721.3 81.3Q721.2 81.0 721.1 80.6L721.1 80.6Q721.0 80.3 720.9 80.1L720.9 80.1Q720.9 80.3 720.9 80.4L720.9 80.4Q720.9 80.8 720.9 81.1Q720.9 81.5 720.9 81.8Q720.9 82.2 720.9 82.4L720.9 82.4L720.9 87ZM734.1 87.1L734.1 87.1Q733.1 87.1 732.3 86.6Q731.5 86.1 731.1 85.2Q730.6 84.3 730.6 83.0L730.6 83.0Q730.6 81.7 731.1 80.8Q731.5 79.9 732.3 79.4Q733.1 78.9 734.1 78.9L734.1 78.9Q735.2 78.9 736.0 79.4Q736.8 79.9 737.2 80.8Q737.7 81.7 737.7 83.0L737.7 83.0Q737.7 84.3 737.2 85.2Q736.8 86.1 736.0 86.6Q735.2 87.1 734.1 87.1ZM734.1 86.2L734.1 86.2Q734.9 86.2 735.4 85.8Q736.0 85.4 736.4 84.7Q736.7 84.0 736.7 83.0L736.7 83.0Q736.7 82.0 736.4 81.3Q736.0 80.6 735.4 80.2Q734.9 79.8 734.1 79.8L734.1 79.8Q733.4 79.8 732.8 80.2Q732.3 80.6 731.9 81.3Q731.6 82.0 731.6 83.0L731.6 83.0Q731.6 84.0 731.9 84.7Q732.3 85.4 732.8 85.8Q733.4 86.2 734.1 86.2ZM742.8 87L742.8 87L740.3 87L740.3 79.0L742.9 79.0Q744.1 79.0 744.9 79.5Q745.7 80.0 746.2 80.8Q746.6 81.7 746.6 83.0L746.6 83.0Q746.6 84.2 746.2 85.1Q745.7 86.0 744.9 86.5Q744.0 87 742.8 87ZM741.3 79.9L741.3 86.1L742.7 86.1Q743.7 86.1 744.4 85.7Q745.0 85.4 745.3 84.7Q745.6 84.0 745.6 83.0L745.6 83.0Q745.6 82.0 745.3 81.3Q745.0 80.6 744.4 80.3Q743.8 79.9 742.8 79.9L742.8 79.9L741.3 79.9ZM752.4 87.1L752.4 87.1Q751.4 87.1 750.7 86.8Q750.0 86.4 749.6 85.7Q749.3 85.1 749.3 84.3L749.3 84.3L749.3 79.0L750.3 79.0L750.3 84.2Q750.3 84.8 750.5 85.2Q750.8 85.7 751.3 85.9Q751.7 86.2 752.4 86.2L752.4 86.2Q753.0 86.2 753.5 85.9Q754.0 85.7 754.2 85.2Q754.5 84.8 754.5 84.2L754.5 84.2L754.5 79.0L755.5 79.0L755.5 84.3Q755.5 85.1 755.1 85.7Q754.7 86.4 754.0 86.8Q753.3 87.1 752.4 87.1ZM763.2 87L758.4 87L758.4 79.0L759.5 79.0L759.5 86.1L763.2 86.1L763.2 87ZM770.6 87L765.7 87L765.7 79.0L770.5 79.0L770.5 79.9L766.7 79.9L766.7 82.5L770.3 82.5L770.3 83.4L766.7 83.4L766.7 86.1L770.6 86.1L770.6 87ZM775.8 87.1L775.8 87.1Q775.0 87.1 774.3 86.9Q773.7 86.6 773.3 86.1Q773.0 85.6 772.9 84.9L772.9 84.9L774.0 84.9Q774.0 85.4 774.3 85.6Q774.5 85.9 775.0 86.1Q775.4 86.2 775.8 86.2L775.8 86.2Q776.4 86.2 776.8 86.0Q777.2 85.9 777.5 85.5Q777.7 85.2 777.7 84.8L777.7 84.8Q777.7 84.4 777.5 84.2Q777.3 83.9 776.9 83.8Q776.6 83.6 776.2 83.5L776.2 83.5L775.2 83.2Q774.2 83.0 773.7 82.4Q773.2 81.9 773.2 81.1L773.2 81.1Q773.2 80.5 773.5 80.0Q773.9 79.4 774.5 79.2Q775.1 78.9 775.9 78.9L775.9 78.9Q776.7 78.9 777.3 79.2Q777.9 79.4 778.3 79.9Q778.6 80.4 778.6 81.0L778.6 81.0L777.6 81.0Q777.6 80.4 777.1 80.1Q776.6 79.8 775.9 79.8L775.9 79.8Q775.4 79.8 775.0 80.0Q774.6 80.1 774.4 80.4Q774.1 80.7 774.1 81.1L774.1 81.1Q774.1 81.5 774.4 81.8Q774.7 82.0 775.0 82.2Q775.4 82.3 775.7 82.4L775.7 82.4L776.5 82.6Q776.8 82.7 777.2 82.8Q777.6 83.0 777.9 83.2Q778.3 83.5 778.5 83.9Q778.7 84.3 778.7 84.8L778.7 84.8Q778.7 85.5 778.4 86.0Q778.1 86.5 777.4 86.8Q776.8 87.1 775.8 87.1Z M786.4 87L785.4 87L785.4 79.0L786.9 79.0L788.8 84.0Q788.9 84.2 789.0 84.5Q789.1 84.8 789.2 85.1Q789.3 85.4 789.4 85.7L789.4 85.7Q789.4 85.8 789.4 85.9L789.4 85.9Q789.5 85.8 789.5 85.7L789.5 85.7Q789.6 85.4 789.7 85.1Q789.8 84.8 789.9 84.5Q790.0 84.2 790.0 84.0L790.0 84.0L792.0 79.0L793.4 79.0L793.4 87L792.4 87L792.4 82.4Q792.4 82.2 792.4 81.9Q792.4 81.5 792.4 81.2Q792.4 80.9 792.5 80.5L792.5 80.5Q792.5 80.3 792.5 80.1L792.5 80.1Q792.4 80.3 792.3 80.5L792.3 80.5Q792.2 80.9 792.1 81.3Q791.9 81.6 791.8 81.9Q791.7 82.2 791.7 82.4L791.7 82.4L789.9 87L789.0 87L787.2 82.4Q787.1 82.2 787.0 82.0Q786.9 81.7 786.8 81.3Q786.6 81.0 786.5 80.6L786.5 80.6Q786.4 80.3 786.4 80.1L786.4 80.1Q786.4 80.3 786.4 80.4L786.4 80.4Q786.4 80.8 786.4 81.1Q786.4 81.5 786.4 81.8Q786.4 82.2 786.4 82.4L786.4 82.4L786.4 87ZM801.3 87L796.4 87L796.4 79.0L801.2 79.0L801.2 79.9L797.4 79.9L797.4 82.5L801.0 82.5L801.0 83.4L797.4 83.4L797.4 86.1L801.3 86.1L801.3 87ZM799.2 78.2L798.4 78.2L799.2 76.6L800.2 76.6L799.2 78.2ZM806.0 79.9L803.5 79.9L803.5 79.0L809.6 79.0L809.6 79.9L807.1 79.9L807.1 87L806.0 87L806.0 79.9ZM812.1 79.0L813.1 79.0L813.1 87L812.1 87L812.1 79.0ZM820.9 87L816.0 87L816.0 79.0L820.9 79.0L820.9 79.9L817.0 79.9L817.0 82.5L820.6 82.5L820.6 83.4L817.0 83.4L817.0 86.1L820.9 86.1L820.9 87ZM824.7 87L823.6 87L823.6 79.0L826.4 79.0Q827.3 79.0 827.9 79.3Q828.5 79.6 828.8 80.2Q829.1 80.8 829.1 81.5Q829.1 82.2 828.8 82.7Q828.5 83.3 827.9 83.6L827.9 83.6Q827.8 83.7 827.6 83.7L827.6 83.7L829.4 87L828.2 87L826.6 83.9Q826.5 83.9 826.4 83.9L826.4 83.9L824.7 83.9L824.7 87ZM824.7 79.9L824.7 83.0L826.3 83.0Q827.0 83.0 827.4 82.8Q827.7 82.6 827.9 82.3Q828.1 81.9 828.1 81.5L828.1 81.5Q828.1 81.0 827.9 80.6Q827.7 80.3 827.3 80.1Q827.0 79.9 826.3 79.9L826.3 79.9L824.7 79.9Z "/></g></svg>