<!-- Generated by readme-aura https://github.com/collectioneur/readme-aura -->
<svg width="900" height="300" viewBox="0 0 900 300" xmlns="http://www.w3.org/2000/svg"><clipPath id="satori_cp-id"><path x="0" y="0" width="900" height="300" d="M16,0 h868 a16,16 0 0 1 16,16 v268 a16,16 0 0 1 -16,16 h-868 a16,16 0 0 1 -16,-16 v-268 a16,16 0 0 1 16,-16"/></clipPath><mask id="satori_om-id"><rect x="0" y="0" width="900" height="300" fill="#fff"/></mask><path x="0" y="0" width="900" height="300" fill="#04050a" d="M16,0 h868 a16,16 0 0 1 16,16 v268 a16,16 0 0 1 -16,16 h-868 a16,16 0 0 1 -16,-16 v-268 a16,16 0 0 1 16,-16"/><clipPath id="satori_cp-id-0" clip-path="url(#satori_cp-id)"><rect x="0" y="0" width="900" height="300"/></clipPath><mask id="satori_om-id-0"><rect x="0" y="0" width="900" height="300" fill="#fff" mask="url(#satori_om-id)"/></mask><svg x="0" y="0" width="900" height="300" preserveAspectRatio="none" clip-path="url(#satori_cp-id-0)" mask="url(#satori_om-id-0)"><defs><radialGradient id="g1" cx="26%" cy="32%" r="60%"><stop offset="0%" stop-color="#7c3aed" stop-opacity="0.95"></stop><stop offset="100%" stop-color="#04050a" stop-opacity="0"></stop></radialGradient><radialGradient id="g2" cx="76%" cy="70%" r="55%"><stop offset="0%" stop-color="#06b6d4" stop-opacity="0.9"></stop><stop offset="100%" stop-color="#04050a" stop-opacity="0"></stop></radialGradient><radialGradient id="g3" cx="55%" cy="48%" r="45%"><stop offset="0%" stop-color="#f472b6" stop-opacity="0.45"></stop><stop offset="100%" stop-color="#04050a" stop-opacity="0"></stop></radialGradient></defs><rect x="0" y="0" width="900" height="300" fill="#04050a"></rect><ellipse cx="240" cy="90" rx="340" ry="200" fill="url(#g1)"><animate attributeName="opacity" values="0.5;0.95;0.5" dur="5s" repeatCount="indefinite"></animate><animateTransform attributeName="transform" type="translate" values="-60 0;60 0;-60 0" dur="11s" repeatCount="indefinite"></animateTransform></ellipse><ellipse cx="670" cy="190" rx="320" ry="190" fill="url(#g2)"><animate attributeName="opacity" values="0.95;0.5;0.95" dur="7s" repeatCount="indefinite"></animate><animateTransform attributeName="transform" type="translate" values="60 0;-60 0;60 0" dur="14s" repeatCount="indefinite"></animateTransform></ellipse><ellipse cx="450" cy="140" rx="260" ry="160" fill="url(#g3)"><animate attributeName="opacity" values="0.3;0.7;0.3" dur="6s" repeatCount="indefinite"></animate></ellipse><line x1="0" y1="0" x2="900" y2="0" stroke="#22d3ee" stroke-width="1.5" opacity="0.22"><animate attributeName="y1" values="0;300;0" dur="8s" repeatCount="indefinite"></animate><animate attributeName="y2" values="0;300;0" dur="8s" repeatCount="indefinite"></animate></line><circle cx="150" cy="60" r="2" fill="#22d3ee"><animate attributeName="opacity" values="0.2;1;0.2" dur="3s" repeatCount="indefinite"></animate><animate attributeName="r" values="1.5;3;1.5" dur="3s" repeatCount="indefinite"></animate></circle><circle cx="780" cy="80" r="2" fill="#a78bfa"><animate attributeName="opacity" values="1;0.2;1" dur="4s" repeatCount="indefinite"></animate></circle><circle cx="820" cy="230" r="2" fill="#f472b6"><animate attributeName="opacity" values="0.3;1;0.3" dur="3.5s" repeatCount="indefinite"></animate><animate attributeName="r" values="1.5;3;1.5" dur="3.5s" repeatCount="indefinite"></animate></circle><circle cx="120" cy="250" r="2" fill="#34d399"><animate attributeName="opacity" values="1;0.3;1" dur="4.5s" repeatCount="indefinite"></animate></circle><circle cx="700" cy="250" r="1.5" fill="#67e8f9"><animate attributeName="opacity" values="0.2;0.9;0.2" dur="5s" repeatCount="indefinite"></animate></circle><circle cx="200" cy="140" r="1.5" fill="#c4b5fd"><animate attributeName="opacity" values="0.9;0.2;0.9" dur="4.2s" repeatCount="indefinite"></animate></circle><circle cx="500" cy="55" r="1.5" fill="#f9a8d4"><animate attributeName="opacity" values="0.2;1;0.2" dur="3.8s" repeatCount="indefinite"></animate></circle><circle cx="350" cy="245" r="1.5" fill="#6ee7b7"><animate attributeName="opacity" values="1;0.2;1" dur="5.5s" repeatCount="indefinite"></animate></circle></svg><mask id="satori_om-id-0-0"><rect x="0" y="0" width="0" height="300" fill="#fff" mask="url(#satori_om-id)"/></mask><mask id="satori_om-id-0-0-0"><rect x="0" y="0" width="0" height="300" fill="#fff" mask="url(#satori_om-id)"/></mask><mask id="satori_om-id-0-0-0-0"><rect x="0" y="0" width="0" height="300" fill="#fff" mask="url(#satori_om-id)"/></mask><mask id="satori_om-id-0-0-0-1"><rect x="0" y="0" width="0" height="300" fill="#fff" mask="url(#satori_om-id)"/></mask><mask id="satori_om-id-0-0-1"><rect x="0" y="0" width="0" height="300" fill="#fff" mask="url(#satori_om-id)"/></mask><mask id="satori_om-id-0-0-1-0"><rect x="0" y="0" width="0" height="300" fill="#fff" mask="url(#satori_om-id)"/></mask><mask id="satori_om-id-0-0-1-1"><rect x="0" y="0" width="0" height="300" fill="#fff" mask="url(#satori_om-id)"/></mask><mask id="satori_om-id-0-0-2"><rect x="0" y="0" width="0" height="300" fill="#fff" mask="url(#satori_om-id)"/></mask><mask id="satori_om-id-0-0-2-0"><rect x="0" y="0" width="0" height="300" fill="#fff" mask="url(#satori_om-id)"/></mask><mask id="satori_om-id-0-0-2-1"><rect x="0" y="0" width="0" height="300" fill="#fff" mask="url(#satori_om-id)"/></mask><mask id="satori_om-id-0-1"><rect x="0" y="0" width="0" height="300" fill="#fff" mask="url(#satori_om-id)"/></mask><mask id="satori_om-id-0-2"><rect x="0" y="0" width="0" height="300" fill="#fff" mask="url(#satori_om-id)"/></mask><mask id="satori_om-id-0-2-0"><rect x="0" y="0" width="0" height="300" fill="#fff" mask="url(#satori_om-id)"/></mask><mask id="satori_om-id-0-2-1"><rect x="0" y="0" width="0" height="300" fill="#fff" mask="url(#satori_om-id)"/></mask><mask id="satori_om-id-0-3"><rect x="0" y="0" width="0" height="300" fill="#fff" mask="url(#satori_om-id)"/></mask><mask id="satori_om-id-0-3-0"><rect x="0" y="0" width="0" height="300" fill="#fff" mask="url(#satori_om-id)"/></mask><mask id="satori_om-id-0-3-1"><rect x="0" y="0" width="0" height="300" fill="#fff" mask="url(#satori_om-id)"/></mask><mask id="satori_om-id-0-4"><rect x="0" y="0" width="0" height="300" fill="#fff" mask="url(#satori_om-id)"/></mask><mask id="satori_om-id-0-4-0"><rect x="0" y="0" width="0" height="300" fill="#fff" mask="url(#satori_om-id)"/></mask><mask id="satori_om-id-0-5"><rect x="0" y="0" width="0" height="300" fill="#fff" mask="url(#satori_om-id)"/></mask><mask id="satori_om-id-0-5-0"><rect x="0" y="0" width="0" height="300" fill="#fff" mask="url(#satori_om-id)"/></mask><mask id="satori_om-id-0-5-1"><rect x="0" y="0" width="0" height="300" fill="#fff" mask="url(#satori_om-id)"/></mask><mask id="satori_om-id-0-6"><rect x="0" y="0" width="0" height="300" fill="#fff" mask="url(#satori_om-id)"/></mask><mask id="satori_om-id-0-6-0"><rect x="0" y="0" width="0" height="300" fill="#fff" mask="url(#satori_om-id)"/></mask><mask id="satori_om-id-0-6-1"><rect x="0" y="0" width="0" height="300" fill="#fff" mask="url(#satori_om-id)"/></mask><mask id="satori_om-id-0-7"><rect x="0" y="0" width="0" height="300" fill="#fff" mask="url(#satori_om-id)"/></mask><mask id="satori_om-id-0-7-0"><rect x="0" y="0" width="0" height="300" fill="#fff" mask="url(#satori_om-id)"/></mask><mask id="satori_om-id-0-8"><rect x="0" y="0" width="0" height="300" fill="#fff" mask="url(#satori_om-id)"/></mask><mask id="satori_om-id-0-8-0"><rect x="0" y="0" width="0" height="300" fill="#fff" mask="url(#satori_om-id)"/></mask><mask id="satori_om-id-0-8-1"><rect x="0" y="0" width="0" height="300" fill="#fff" mask="url(#satori_om-id)"/></mask><mask id="satori_om-id-0-9"><rect x="0" y="0" width="0" height="300" fill="#fff" mask="url(#satori_om-id)"/></mask><mask id="satori_om-id-0-9-0"><rect x="0" y="0" width="0" height="300" fill="#fff" mask="url(#satori_om-id)"/></mask><mask id="satori_om-id-0-10"><rect x="0" y="0" width="0" height="300" fill="#fff" mask="url(#satori_om-id)"/></mask><mask id="satori_om-id-0-10-0"><rect x="0" y="0" width="0" height="300" fill="#fff" mask="url(#satori_om-id)"/></mask><mask id="satori_om-id-0-11"><rect x="0" y="0" width="0" height="300" fill="#fff" mask="url(#satori_om-id)"/></mask><mask id="satori_om-id-0-11-0"><rect x="0" y="0" width="0" height="300" fill="#fff" mask="url(#satori_om-id)"/></mask><mask id="satori_om-id-0-12"><rect x="0" y="0" width="0" height="300" fill="#fff" mask="url(#satori_om-id)"/></mask><mask id="satori_om-id-0-12-0"><rect x="0" y="0" width="0" height="300" fill="#fff" mask="url(#satori_om-id)"/></mask><mask id="satori_om-id-0-13"><rect x="0" y="0" width="0" height="300" fill="#fff" mask="url(#satori_om-id)"/></mask><mask id="satori_om-id-0-13-0"><rect x="0" y="0" width="0" height="300" fill="#fff" mask="url(#satori_om-id)"/></mask><mask id="satori_om-id-1"><rect x="124" y="54" width="652" height="192" fill="#fff" mask="url(#satori_om-id)"/></mask><clipPath id="satori_bct-id-1-0" clip-path="url(#satori_cp-id)"><path d="M140.8 130L129.1 130L129.1 73.3L140.8 73.3L140.8 96.2L165.5 96.2L165.5 73.3L177.1 73.3L177.1 130L165.5 130L165.5 105.8L140.8 105.8L140.8 130ZM200.0 130L187.1 130L206.5 73.3L221.8 73.3L241.6 130L228.7 130L224.3 116.8L204.2 116.8L200.0 130ZM207.1 107.7L221.3 107.7L219.6 102.6Q218.0 97.3 216.3 91L216.3 91Q215.2 86.9 214.0 82.4L214.0 82.4Q212.9 87.0 211.9 91.1L211.9 91.1Q210.3 97.4 208.7 102.6L208.7 102.6L207.1 107.7ZM272.4 130.8L272.4 130.8Q265.6 130.8 260.6 128.7Q255.5 126.6 252.7 122.5Q249.9 118.4 249.7 112.4L249.7 112.4L261.1 112.4Q261.3 115.3 262.8 117.2Q264.3 119.1 266.7 120.1Q269.2 121.0 272.3 121.0L272.3 121.0Q275.5 121.0 277.8 120.1Q280.1 119.2 281.4 117.6Q282.6 115.9 282.6 113.8L282.6 113.8Q282.6 111.8 281.5 110.5Q280.3 109.2 278.2 108.3Q276.0 107.3 272.9 106.6L272.9 106.6L266.6 105.0Q259.4 103.3 255.3 99.5Q251.3 95.8 251.3 89.6L251.3 89.6Q251.3 84.4 254.0 80.6Q256.8 76.8 261.6 74.6Q266.4 72.5 272.6 72.5L272.6 72.5Q278.9 72.5 283.6 74.6Q288.2 76.8 290.9 80.6Q293.5 84.4 293.6 89.4L293.6 89.4L282.3 89.4Q282.0 86.0 279.4 84.1Q276.8 82.3 272.5 82.3L272.5 82.3Q269.5 82.3 267.5 83.1Q265.4 84.0 264.3 85.4Q263.2 86.9 263.2 88.8L263.2 88.8Q263.2 90.9 264.4 92.3Q265.7 93.7 267.8 94.6Q269.9 95.4 272.3 96.0L272.3 96.0L277.4 97.2Q281.0 98.0 284.1 99.4Q287.1 100.8 289.5 102.8Q291.8 104.8 293.1 107.5Q294.3 110.3 294.3 113.9L294.3 113.9Q294.3 119.0 291.8 122.8Q289.2 126.6 284.2 128.7Q279.3 130.8 272.4 130.8ZM326.5 130.8L326.5 130.8Q319.7 130.8 314.7 128.7Q309.6 126.6 306.8 122.5Q304.0 118.4 303.8 112.4L303.8 112.4L315.1 112.4Q315.4 115.3 316.8 117.2Q318.3 119.1 320.8 120.1Q323.3 121.0 326.4 121.0L326.4 121.0Q329.5 121.0 331.8 120.1Q334.1 119.2 335.4 117.6Q336.7 115.9 336.7 113.8L336.7 113.8Q336.7 111.8 335.6 110.5Q334.4 109.2 332.2 108.3Q330.1 107.3 326.9 106.6L326.9 106.6L320.7 105.0Q313.5 103.3 309.4 99.5Q305.3 95.8 305.3 89.6L305.3 89.6Q305.3 84.4 308.1 80.6Q310.9 76.8 315.7 74.6Q320.5 72.5 326.7 72.5L326.7 72.5Q333.0 72.5 337.6 74.6Q342.3 76.8 344.9 80.6Q347.6 84.4 347.7 89.4L347.7 89.4L336.4 89.4Q336.1 86.0 333.5 84.1Q330.9 82.3 326.6 82.3L326.6 82.3Q323.6 82.3 321.5 83.1Q319.4 84.0 318.3 85.4Q317.3 86.9 317.3 88.8L317.3 88.8Q317.3 90.9 318.5 92.3Q319.8 93.7 321.9 94.6Q324.0 95.4 326.3 96.0L326.3 96.0L331.5 97.2Q335.0 98.0 338.1 99.4Q341.2 100.8 343.5 102.8Q345.9 104.8 347.1 107.5Q348.4 110.3 348.4 113.9L348.4 113.9Q348.4 119.0 345.8 122.8Q343.2 126.6 338.3 128.7Q333.4 130.8 326.5 130.8ZM369.4 130L356.5 130L375.9 73.3L391.1 73.3L411.0 130L398.1 130L393.7 116.8L373.6 116.8L369.4 130ZM376.5 107.7L390.7 107.7L389.0 102.6Q387.4 97.3 385.7 91L385.7 91Q384.6 86.9 383.4 82.4L383.4 82.4Q382.3 87.0 381.3 91.1L381.3 91.1Q379.7 97.4 378.1 102.6L378.1 102.6L376.5 107.7ZM432.9 130L421.0 130L421.0 73.3L434.0 73.3L451.9 102.0Q453.3 104.2 454.7 106.8Q456.1 109.4 457.6 112.5L457.6 112.5Q458.3 114.1 459.0 115.8L459.0 115.8Q458.9 114.4 458.8 112.9L458.8 112.9Q458.6 109.3 458.5 106.0Q458.3 102.8 458.3 100.5L458.3 100.5L458.3 73.3L470.2 73.3L470.2 130L457.2 130L440.9 103.9Q439.1 101.0 437.6 98.3Q436.1 95.5 434.4 92.1L434.4 92.1Q433.4 90.1 432.1 87.6L432.1 87.6Q432.3 89.9 432.4 92.1L432.4 92.1Q432.6 95.8 432.8 98.9Q432.9 102.0 432.9 103.9L432.9 103.9L432.9 130Z M514.5 130L501.7 130L521.1 73.3L536.3 73.3L556.2 130L543.3 130L538.9 116.8L518.7 116.8L514.5 130ZM521.6 107.7L535.9 107.7L534.2 102.6Q532.5 97.3 530.8 91L530.8 91Q529.7 86.9 528.6 82.4L528.6 82.4Q527.4 87.0 526.4 91.1L526.4 91.1Q524.8 97.4 523.3 102.6L523.3 102.6L521.6 107.7ZM566.2 73.3L577.8 73.3L577.8 130L566.2 130L566.2 73.3ZM611.0 130L611.0 130L591.1 130L591.1 73.3L611.2 73.3Q619.8 73.3 625.9 76.7Q632.1 80.1 635.4 86.4Q638.7 92.8 638.7 101.6L638.7 101.6Q638.7 110.5 635.4 116.8Q632.1 123.2 625.9 126.6Q619.7 130 611.0 130ZM602.7 83.3L602.7 120.0L610.5 120.0Q616.0 120.0 619.7 118.0Q623.4 116.1 625.2 112.0Q627.1 107.9 627.1 101.6L627.1 101.6Q627.1 95.3 625.2 91.2Q623.3 87.2 619.7 85.2Q616.0 83.3 610.5 83.3L610.5 83.3L602.7 83.3ZM650.4 73.3L662.0 73.3L662.0 130L650.4 130L650.4 73.3ZM699.3 130L675.3 130L675.3 73.3L697.8 73.3Q704.1 73.3 708.2 75.1Q712.4 77.0 714.5 80.3Q716.6 83.6 716.6 87.8L716.6 87.8Q716.6 91.2 715.2 93.7Q713.9 96.2 711.6 97.8Q709.3 99.3 706.4 100.0L706.4 100.0L706.4 100.6Q709.6 100.7 712.4 102.4Q715.2 104.1 717.0 107.1Q718.8 110.2 718.8 114.3L718.8 114.3Q718.8 118.8 716.6 122.4Q714.3 125.9 710.0 128.0Q705.7 130 699.3 130L699.3 130ZM686.9 105.1L686.9 120.4L697.0 120.4Q702.1 120.4 704.4 118.5Q706.8 116.5 706.8 113.2L706.8 113.2Q706.8 110.8 705.6 109.0Q704.5 107.1 702.4 106.1Q700.2 105.1 697.3 105.1L697.3 105.1L686.9 105.1ZM686.9 82.7L686.9 97.1L696.1 97.1Q698.6 97.1 700.6 96.2Q702.5 95.3 703.7 93.6Q704.8 92.0 704.8 89.7L704.8 89.7Q704.8 86.6 702.6 84.7Q700.4 82.7 696.3 82.7L696.3 82.7L686.9 82.7ZM768.0 130L729.9 130L729.9 73.3L767.9 73.3L767.9 82.9L741.5 82.9L741.5 96.6L765.9 96.6L765.9 106.1L741.5 106.1L741.5 120.4L768.0 120.4L768.0 130Z "/></clipPath><defs><pattern id="satori_pattern_id-1-0_0" x="0" y="0" width="1" height="1" patternUnits="objectBoundingBox"><linearGradient id="satori_biid-1-0_0" x1="0" y1="0" x2="1" y2="0" spreadMethod="pad"><stop offset="0%" stop-color="#22d3ee"/><stop offset="50%" stop-color="#a78bfa"/><stop offset="100%" stop-color="#f472b6"/></linearGradient><rect x="0" y="0" width="652" height="94" fill="url(#satori_biid-1-0_0)"/></pattern></defs><mask id="satori_om-id-1-0"><rect x="124" y="54" width="652" height="94" fill="#fff" mask="url(#satori_om-id)"/></mask><rect x="124" y="54" width="652" height="94" fill="url(#satori_pattern_id-1-0_0)" clip-path="url(#satori_bct-id-1-0)" mask="url(#satori_om-id)"/><defs><clipPath id="satori_bc-id-1-1" clip-path="url(#satori_cp-id)"><path x="291" y="162" width="318" height="38" d="M301,162 h298 a10,10 0 0 1 10,10 v18 a10,10 0 0 1 -10,10 h-298 a10,10 0 0 1 -10,-10 v-18 a10,10 0 0 1 10,-10"/></clipPath></defs><mask id="satori_om-id-1-1"><rect x="292" y="163" width="316" height="36" fill="#fff" mask="url(#satori_om-id)"/><path width="318" height="38" fill="none" stroke="#000" stroke-width="2" d="M293.929,164.929 A10,10 0 0 1 301,162 h298 a10,10 0 0 1 10,10 v18 a10,10 0 0 1 -10,10 h-298 a10,10 0 0 1 -10,-10 v-18 A10,10 0 0 1 293.929,164.929"/></mask><path x="291" y="162" width="318" height="38" fill="#0a0c1490" d="M301,162 h298 a10,10 0 0 1 10,10 v18 a10,10 0 0 1 -10,10 h-298 a10,10 0 0 1 -10,-10 v-18 a10,10 0 0 1 10,-10" clip-path="url(#satori_cp-id)" mask="url(#satori_om-id)"/><path width="318" height="38" clip-path="url(#satori_bc-id-1-1)" fill="none" stroke="#1e293b" stroke-width="2" d="M293.929,164.929 A10,10 0 0 1 301,162 h298 a10,10 0 0 1 10,10 v18 a10,10 0 0 1 -10,10 h-298 a10,10 0 0 1 -10,-10 v-18 A10,10 0 0 1 293.929,164.929"/><mask id="satori_om-id-1-1-0"><rect x="308" y="177" width="9" height="9" fill="#fff" mask="url(#satori_om-id)"/></mask><path x="308" y="177" width="9" height="9" fill="#34d399" d="M312.5,177 h0 a4.5,4.5 0 0 1 4.5,4.5 v0 a4.5,4.5 0 0 1 -4.5,4.5 h0 a4.5,4.5 0 0 1 -4.5,-4.5 v0 a4.5,4.5 0 0 1 4.5,-4.5" clip-path="url(#satori_cp-id)" mask="url(#satori_om-id)"/><mask id="satori_om-id-1-1-0-0"><rect x="308" y="177" width="0" height="9" fill="#fff" mask="url(#satori_om-id)"/></mask><mask id="satori_om-id-1-1-1"><rect x="325" y="172" width="56" height="18" fill="#fff" mask="url(#satori_om-id)"/></mask><g mask="url(#satori_om-id)" clip-path="url(#satori_cp-id)"><path fill="#94a3b8" d="M327.4 183.8L326.2 183.8Q326.2 182.9 326.5 182.3Q326.8 181.8 327.3 181.5Q327.8 181.3 328.4 181.3L328.4 181.3Q328.9 181.3 329.3 181.5Q329.8 181.7 330.4 182.3L330.4 182.3Q330.8 182.6 331.0 182.7Q331.2 182.9 331.5 182.9L331.5 182.9Q332.0 182.9 332.2 182.5Q332.5 182.2 332.5 181.6L332.5 181.6L333.7 181.6Q333.7 182.5 333.4 183.0Q333.1 183.6 332.6 183.8Q332.1 184.1 331.6 184.1L331.6 184.1Q331.0 184.1 330.6 183.8Q330.1 183.6 329.5 183.1L329.5 183.1Q329.1 182.8 328.9 182.6Q328.7 182.5 328.4 182.5L328.4 182.5Q328.0 182.5 327.7 182.8Q327.4 183.1 327.4 183.8L327.4 183.8ZM338.8 175.6L340.0 175.6L336.5 188.6L335.3 188.6L338.8 175.6ZM344.6 187.2L344.6 187.2Q343.5 187.2 342.8 186.7Q342.0 186.1 341.5 185.2Q341.1 184.2 341.1 182.9L341.1 182.9Q341.1 181.6 341.5 180.7Q342.0 179.7 342.8 179.2Q343.5 178.7 344.6 178.7L344.6 178.7Q345.4 178.7 345.8 179.0Q346.3 179.2 346.6 179.6Q346.8 179.9 346.9 180.1L346.9 180.1L347.0 180.1L347.0 176.1L348.4 176.1L348.4 187L347.1 187L347.1 185.7L346.9 185.7Q346.8 186.0 346.5 186.3Q346.3 186.6 345.8 186.9Q345.3 187.2 344.6 187.2ZM344.8 186.0L344.8 186.0Q345.5 186.0 346.0 185.6Q346.5 185.2 346.8 184.5Q347.1 183.8 347.1 182.9L347.1 182.9Q347.1 182.0 346.8 181.3Q346.5 180.6 346.0 180.3Q345.5 179.9 344.8 179.9L344.8 179.9Q344.0 179.9 343.5 180.3Q342.9 180.7 342.7 181.4Q342.4 182.1 342.4 182.9L342.4 182.9Q342.4 183.8 342.7 184.5Q343.0 185.2 343.5 185.6Q344.0 186.0 344.8 186.0ZM354.1 187.2L354.1 187.2Q352.9 187.2 352.1 186.6Q351.2 186.1 350.7 185.2Q350.3 184.2 350.3 183.0Q350.3 181.7 350.7 180.8Q351.2 179.8 352.0 179.3Q352.8 178.7 354.0 178.7L354.0 178.7Q354.6 178.7 355.2 178.9Q355.9 179.1 356.4 179.6Q356.9 180.1 357.2 180.9Q357.5 181.7 357.5 182.8L357.5 182.8L357.5 183.4L351.6 183.4Q351.6 184.1 351.9 184.7L351.9 184.7Q352.2 185.4 352.8 185.7Q353.4 186.0 354.1 186.0L354.1 186.0Q354.6 186.0 355 185.9Q355.4 185.7 355.7 185.4Q356.0 185.2 356.1 184.7L356.1 184.7L357.4 185.1Q357.2 185.7 356.8 186.2Q356.3 186.6 355.6 186.9Q355.0 187.2 354.1 187.2ZM351.6 182.2L351.6 182.2L356.2 182.2Q356.1 181.7 356.0 181.2L356.0 181.2Q355.7 180.6 355.2 180.2Q354.7 179.9 354.0 179.9Q353.2 179.9 352.7 180.2Q352.2 180.6 351.9 181.2L351.9 181.2Q351.7 181.7 351.6 182.2ZM363.2 187L361.8 187L358.7 178.8L360.1 178.8L361.8 183.7Q362.1 184.4 362.3 185.2L362.3 185.2Q362.4 185.5 362.5 185.8L362.5 185.8Q362.6 185.5 362.6 185.2L362.6 185.2Q362.8 184.4 363.1 183.7L363.1 183.7L364.9 178.8L366.3 178.8L363.2 187Z M376.2 188.6L375.3 188.6L375.3 187.2Q374.4 187.1 373.7 186.8L373.7 186.8Q372.8 186.4 372.3 185.7Q371.8 185.1 371.8 184.1L371.8 184.1L373.2 184.1Q373.2 184.8 373.6 185.2Q374.0 185.6 374.5 185.7L374.5 185.7Q374.9 185.9 375.3 185.9L375.3 185.9L375.3 182.0L374.8 181.9Q373.5 181.5 372.8 180.8Q372.1 180.1 372.1 179.0L372.1 179.0Q372.1 178.1 372.6 177.4Q373.1 176.7 373.9 176.3L373.9 176.3Q374.5 176.0 375.3 176.0L375.3 176.0L375.3 174.5L376.2 174.5L376.2 175.9Q377.0 176.0 377.7 176.3L377.7 176.3Q378.5 176.7 379.0 177.4Q379.5 178.0 379.5 178.8L379.5 178.8L378.2 178.8Q378.1 178.0 377.4 177.6L377.4 177.6Q376.9 177.3 376.2 177.2L376.2 177.2L376.2 180.9L376.6 181.0Q377.0 181.1 377.6 181.3Q378.1 181.5 378.6 181.9Q379.1 182.2 379.4 182.7Q379.7 183.3 379.7 184.0L379.7 184.0Q379.7 184.9 379.2 185.6Q378.8 186.4 377.9 186.8L377.9 186.8Q377.1 187.1 376.2 187.2L376.2 187.2L376.2 188.6ZM376.2 182.2L376.2 185.9Q376.6 185.9 377.1 185.7L377.1 185.7Q377.6 185.5 378.0 185.0Q378.3 184.6 378.3 184.0L378.3 184.0Q378.3 183.5 378.0 183.1Q377.7 182.8 377.2 182.6Q376.8 182.4 376.2 182.2L376.2 182.2L376.2 182.2ZM375.3 180.6L375.3 180.6L375.3 177.2Q374.9 177.3 374.5 177.4L374.5 177.4Q374.0 177.6 373.7 178.0Q373.4 178.4 373.4 178.9L373.4 178.9Q373.4 179.5 373.8 179.9Q374.1 180.2 374.6 180.4L374.6 180.4Q375.0 180.5 375.3 180.6Z "/></g><mask id="satori_om-id-1-1-2"><rect x="389" y="171" width="200" height="20" fill="#fff" mask="url(#satori_om-id)"/></mask><mask id="satori_om-id-1-1-2-0"><rect x="389" y="171" width="170" height="18" fill="#fff" mask="url(#satori_om-id)"/></mask><g mask="url(#satori_om-id)" clip-path="url(#satori_cp-id)"><path fill="#e2e8f0" d="M394.5 186.1L394.5 186.1Q393.9 186.1 393.4 185.9Q392.9 185.7 392.6 185.4Q392.4 185.0 392.2 184.7L392.2 184.7L392.1 184.7L392.1 186L389.9 186L389.9 175.1L392.1 175.1L392.1 179.2L392.2 179.2Q392.4 178.9 392.6 178.5Q392.9 178.2 393.4 177.9Q393.8 177.7 394.5 177.7L394.5 177.7Q395.4 177.7 396.2 178.2Q397.0 178.6 397.4 179.6Q397.9 180.5 397.9 181.9L397.9 181.9Q397.9 183.3 397.4 184.2Q397.0 185.2 396.2 185.7Q395.5 186.1 394.5 186.1ZM393.8 184.4L393.8 184.4Q394.4 184.4 394.8 184.1Q395.2 183.7 395.4 183.2Q395.6 182.6 395.6 181.9L395.6 181.9Q395.6 181.2 395.4 180.6Q395.2 180.1 394.8 179.8Q394.4 179.5 393.8 179.5L393.8 179.5Q393.3 179.5 392.9 179.8Q392.5 180.1 392.3 180.6Q392.1 181.2 392.1 181.9L392.1 181.9Q392.1 182.7 392.3 183.2Q392.5 183.8 392.9 184.1Q393.3 184.4 393.8 184.4ZM402.2 186.1L402.2 186.1Q401.4 186.1 400.7 185.7Q400.1 185.4 399.7 184.7Q399.4 184.0 399.4 183.0L399.4 183.0L399.4 177.8L401.6 177.8L401.6 182.6Q401.6 183.4 402.0 183.8Q402.4 184.3 403.1 184.3L403.1 184.3Q403.5 184.3 403.9 184.1Q404.3 183.9 404.5 183.5Q404.7 183.1 404.7 182.6L404.7 182.6L404.7 177.8L406.9 177.8L406.9 186L404.8 186L404.8 184.3Q404.4 185.1 403.9 185.5L403.9 185.5Q403.2 186.1 402.2 186.1ZM410.9 186L408.7 186L408.7 177.8L410.9 177.8L410.9 186ZM409.8 176.7L409.8 176.7Q409.3 176.7 409.0 176.4Q408.6 176.1 408.6 175.6L408.6 175.6Q408.6 175.1 409.0 174.8Q409.3 174.5 409.8 174.5L409.8 174.5Q410.3 174.5 410.7 174.8Q411.0 175.1 411.0 175.6L411.0 175.6Q411.0 176.1 410.7 176.4Q410.3 176.7 409.8 176.7ZM412.8 175.1L415.0 175.1L415.0 186L412.8 186L412.8 175.1ZM419.8 186.1L419.8 186.1Q418.9 186.1 418.2 185.7Q417.4 185.2 417.0 184.2Q416.5 183.3 416.5 181.9L416.5 181.9Q416.5 180.5 417.0 179.6Q417.4 178.6 418.2 178.2Q418.9 177.7 419.8 177.7L419.8 177.7Q420.5 177.7 421.0 177.9Q421.5 178.2 421.7 178.5Q422.0 178.9 422.2 179.2L422.2 179.2L422.2 179.2L422.2 175.1L424.4 175.1L424.4 186L422.3 186L422.3 184.7L422.2 184.7Q422.0 185.0 421.7 185.4Q421.4 185.7 421.0 185.9Q420.5 186.1 419.8 186.1ZM420.5 184.4L420.5 184.4Q421.1 184.4 421.5 184.1Q421.9 183.8 422.1 183.2Q422.3 182.7 422.3 181.9L422.3 181.9Q422.3 181.2 422.1 180.6Q421.9 180.1 421.5 179.8Q421.1 179.5 420.5 179.5L420.5 179.5Q420.0 179.5 419.6 179.8Q419.2 180.1 419.0 180.6Q418.8 181.2 418.8 181.9L418.8 181.9Q418.8 182.6 419.0 183.2Q419.2 183.7 419.6 184.1Q420.0 184.4 420.5 184.4ZM428.5 186L426.3 186L426.3 177.8L428.5 177.8L428.5 186ZM427.4 176.7L427.4 176.7Q426.9 176.7 426.6 176.4Q426.2 176.1 426.2 175.6L426.2 175.6Q426.2 175.1 426.6 174.8Q426.9 174.5 427.4 174.5L427.4 174.5Q427.9 174.5 428.3 174.8Q428.6 175.1 428.6 175.6L428.6 175.6Q428.6 176.1 428.3 176.4Q427.9 176.7 427.4 176.7ZM432.6 181.3L432.6 181.3L432.6 186L430.4 186L430.4 177.8L432.5 177.8L432.5 179.5Q432.8 178.7 433.3 178.3L433.3 178.3Q434.0 177.7 435.0 177.7L435.0 177.7Q435.9 177.7 436.5 178.1Q437.1 178.4 437.5 179.1Q437.8 179.8 437.8 180.8L437.8 180.8L437.8 186L435.6 186L435.6 181.2Q435.6 180.4 435.3 180.0Q434.9 179.5 434.2 179.5L434.2 179.5Q433.7 179.5 433.3 179.7Q433.0 180.0 432.8 180.3Q432.6 180.7 432.6 181.3ZM443.4 189.2L443.4 189.2Q442.3 189.2 441.6 189.0Q440.8 188.7 440.3 188.3Q439.9 187.8 439.7 187.2L439.7 187.2L441.6 186.7Q441.7 186.9 441.9 187.1Q442.1 187.4 442.5 187.5Q442.8 187.6 443.3 187.6L443.3 187.6Q444.2 187.6 444.7 187.3Q445.1 186.9 445.1 186.1L445.1 186.1L445.1 184.5L445.0 184.5Q444.8 184.9 444.6 185.2Q444.3 185.5 443.8 185.7Q443.4 185.9 442.7 185.9L442.7 185.9Q441.8 185.9 441.0 185.5Q440.3 185.0 439.8 184.1Q439.4 183.2 439.4 181.9L439.4 181.9Q439.4 180.5 439.8 179.6Q440.3 178.6 441.0 178.2Q441.8 177.7 442.7 177.7L442.7 177.7Q443.4 177.7 443.9 177.9Q444.3 178.2 444.6 178.5Q444.9 178.9 445.1 179.2L445.1 179.2L445.2 179.2L445.2 177.8L447.3 177.8L447.3 185.9Q447.3 187.0 446.8 187.8Q446.3 188.5 445.4 188.9Q444.5 189.2 443.4 189.2ZM443.4 184.2L443.4 184.2Q444.0 184.2 444.4 183.9Q444.7 183.7 444.9 183.1Q445.2 182.6 445.2 181.9L445.2 181.9Q445.2 181.2 444.9 180.6Q444.7 180.1 444.4 179.8Q444.0 179.5 443.4 179.5L443.4 179.5Q442.8 179.5 442.4 179.8Q442.0 180.1 441.8 180.6Q441.6 181.2 441.6 181.9L441.6 181.9Q441.6 182.6 441.8 183.1Q442.0 183.6 442.4 183.9Q442.8 184.2 443.4 184.2Z M456.8 186.2L456.8 186.2Q455.5 186.2 454.5 185.8Q453.5 185.4 453.0 184.6Q452.5 183.8 452.4 182.6L452.4 182.6L454.6 182.6Q454.7 183.2 454.9 183.5Q455.2 183.9 455.7 184.1Q456.2 184.3 456.8 184.3L456.8 184.3Q457.4 184.3 457.8 184.1Q458.3 183.9 458.5 183.6Q458.8 183.3 458.8 182.9L458.8 182.9Q458.8 182.5 458.5 182.3Q458.3 182.0 457.9 181.8Q457.5 181.6 456.9 181.5L456.9 181.5L455.7 181.2Q454.3 180.9 453.5 180.1Q452.7 179.4 452.7 178.2L452.7 178.2Q452.7 177.2 453.3 176.5Q453.8 175.8 454.7 175.4Q455.6 174.9 456.8 174.9L456.8 174.9Q458.0 174.9 458.9 175.4Q459.8 175.8 460.3 176.5Q460.9 177.2 460.9 178.2L460.9 178.2L458.7 178.2Q458.6 177.5 458.1 177.2Q457.6 176.8 456.8 176.8L456.8 176.8Q456.2 176.8 455.8 177.0Q455.4 177.1 455.2 177.4Q455.0 177.7 455.0 178.1L455.0 178.1Q455.0 178.5 455.3 178.8Q455.5 179.0 455.9 179.2Q456.3 179.3 456.8 179.5L456.8 179.5L457.8 179.7Q458.4 179.9 459.0 180.1Q459.6 180.4 460.1 180.8Q460.5 181.2 460.8 181.7Q461.0 182.2 461.0 182.9L461.0 182.9Q461.0 183.9 460.5 184.6Q460.0 185.4 459.1 185.8Q458.1 186.2 456.8 186.2ZM464.9 186.2L464.9 186.2Q464.1 186.2 463.5 185.9Q462.8 185.6 462.5 185.1Q462.1 184.5 462.1 183.7L462.1 183.7Q462.1 183.0 462.4 182.6Q462.6 182.1 463.1 181.8Q463.5 181.5 464.1 181.4Q464.6 181.3 465.2 181.2L465.2 181.2Q465.9 181.1 466.4 181.1Q466.8 181.0 467.0 180.9Q467.2 180.7 467.2 180.5L467.2 180.5L467.2 180.4Q467.2 180.1 467.1 179.8Q466.9 179.6 466.6 179.5Q466.3 179.3 465.9 179.3L465.9 179.3Q465.5 179.3 465.2 179.5Q464.9 179.6 464.7 179.8Q464.5 180.0 464.4 180.3L464.4 180.3L462.4 180.0Q462.6 179.2 463.1 178.7Q463.6 178.2 464.3 178.0Q465.0 177.7 465.9 177.7L465.9 177.7Q466.6 177.7 467.2 177.9Q467.8 178.0 468.3 178.4Q468.8 178.7 469.1 179.2Q469.4 179.7 469.4 180.5L469.4 180.5L469.4 186L467.3 186L467.3 184.9L467.3 184.9Q467.1 185.2 466.7 185.5Q466.4 185.8 465.9 186.0Q465.5 186.2 464.9 186.2ZM465.5 184.6L465.5 184.6Q466.0 184.6 466.4 184.4Q466.8 184.2 467.0 183.9Q467.2 183.5 467.2 183.1L467.2 183.1L467.2 182.2Q467.1 182.3 466.9 182.3Q466.7 182.4 466.5 182.4Q466.2 182.5 466.0 182.5Q465.8 182.5 465.6 182.6L465.6 182.6Q465.2 182.6 464.9 182.7Q464.6 182.9 464.4 183.1Q464.2 183.3 464.2 183.6L464.2 183.6Q464.2 184.0 464.4 184.2Q464.6 184.4 464.8 184.5Q465.1 184.6 465.5 184.6ZM473.6 186.2L473.6 186.2Q472.8 186.2 472.2 185.9Q471.6 185.6 471.2 185.1Q470.8 184.5 470.8 183.7L470.8 183.7Q470.8 183.0 471.1 182.6Q471.3 182.1 471.8 181.8Q472.2 181.5 472.8 181.4Q473.3 181.3 473.9 181.2L473.9 181.2Q474.6 181.1 475.1 181.1Q475.5 181.0 475.7 180.9Q475.9 180.7 475.9 180.5L475.9 180.5L475.9 180.4Q475.9 180.1 475.8 179.8Q475.6 179.6 475.3 179.5Q475.0 179.3 474.6 179.3L474.6 179.3Q474.2 179.3 473.9 179.5Q473.6 179.6 473.4 179.8Q473.2 180.0 473.1 180.3L473.1 180.3L471.1 180.0Q471.3 179.2 471.8 178.7Q472.3 178.2 473.0 178.0Q473.7 177.7 474.6 177.7L474.6 177.7Q475.3 177.7 475.9 177.9Q476.5 178.0 477.0 178.4Q477.5 178.7 477.8 179.2Q478.1 179.7 478.1 180.5L478.1 180.5L478.1 186L476.0 186L476.0 184.9L476.0 184.9Q475.8 185.2 475.4 185.5Q475.1 185.8 474.6 186.0Q474.2 186.2 473.6 186.2ZM474.2 184.6L474.2 184.6Q474.7 184.6 475.1 184.4Q475.5 184.2 475.7 183.9Q475.9 183.5 475.9 183.1L475.9 183.1L475.9 182.2Q475.8 182.3 475.6 182.3Q475.4 182.4 475.2 182.4Q475.0 182.5 474.7 182.5Q474.5 182.5 474.3 182.6L474.3 182.6Q473.9 182.6 473.6 182.7Q473.3 182.9 473.1 183.1Q473.0 183.3 473.0 183.6L473.0 183.6Q473.0 184.0 473.1 184.2Q473.3 184.4 473.6 184.5Q473.8 184.6 474.2 184.6ZM484.0 186.2L484.0 186.2Q482.7 186.2 481.8 185.8Q480.8 185.4 480.2 184.6Q479.7 183.8 479.7 182.6L479.7 182.6L481.8 182.6Q481.9 183.2 482.2 183.5Q482.5 183.9 482.9 184.1Q483.4 184.3 484.0 184.3L484.0 184.3Q484.6 184.3 485.1 184.1Q485.5 183.9 485.8 183.6Q486.0 183.3 486.0 182.9L486.0 182.9Q486.0 182.5 485.8 182.3Q485.6 182.0 485.1 181.8Q484.7 181.6 484.1 181.5L484.1 181.5L482.9 181.2Q481.5 180.9 480.8 180.1Q480.0 179.4 480.0 178.2L480.0 178.2Q480.0 177.2 480.5 176.5Q481.0 175.8 482.0 175.4Q482.9 174.9 484.1 174.9L484.1 174.9Q485.3 174.9 486.2 175.4Q487.1 175.8 487.6 176.5Q488.1 177.2 488.1 178.2L488.1 178.2L485.9 178.2Q485.9 177.5 485.4 177.2Q484.9 176.8 484.0 176.8L484.0 176.8Q483.5 176.8 483.1 177.0Q482.7 177.1 482.5 177.4Q482.3 177.7 482.3 178.1L482.3 178.1Q482.3 178.5 482.5 178.8Q482.7 179.0 483.1 179.2Q483.5 179.3 484.0 179.5L484.0 179.5L485.0 179.7Q485.7 179.9 486.3 180.1Q486.9 180.4 487.3 180.8Q487.8 181.2 488.0 181.7Q488.3 182.2 488.3 182.9L488.3 182.9Q488.3 183.9 487.8 184.6Q487.3 185.4 486.3 185.8Q485.4 186.2 484.0 186.2Z M495.6 189.1L493.4 189.1L493.4 177.8L495.5 177.8L495.5 179.2L495.6 179.2Q495.8 178.9 496.1 178.5Q496.3 178.2 496.8 177.9Q497.3 177.7 498.0 177.7L498.0 177.7Q498.9 177.7 499.6 178.2Q500.4 178.6 500.8 179.6Q501.3 180.5 501.3 181.9L501.3 181.9Q501.3 183.3 500.8 184.2Q500.4 185.2 499.6 185.7Q498.9 186.1 497.9 186.1L497.9 186.1Q497.3 186.1 496.8 185.9Q496.4 185.7 496.1 185.4Q495.8 185.0 495.6 184.7L495.6 184.7L495.6 184.7L495.6 189.1ZM497.3 184.4L497.3 184.4Q497.8 184.4 498.2 184.1Q498.6 183.7 498.8 183.2Q499.0 182.6 499.0 181.9L499.0 181.9Q499.0 181.2 498.8 180.6Q498.6 180.1 498.2 179.8Q497.9 179.5 497.3 179.5L497.3 179.5Q496.7 179.5 496.3 179.8Q495.9 180.1 495.7 180.6Q495.5 181.2 495.5 181.9L495.5 181.9Q495.5 182.7 495.7 183.2Q495.9 183.8 496.3 184.1Q496.7 184.4 497.3 184.4ZM505.0 186L502.8 186L502.8 177.8L504.9 177.8L504.9 179.2L505.0 179.2Q505.3 178.5 505.8 178.1Q506.3 177.7 507.0 177.7L507.0 177.7Q507.2 177.7 507.4 177.7Q507.6 177.7 507.7 177.8L507.7 177.8L507.7 179.7Q507.6 179.7 507.3 179.7Q507.0 179.6 506.8 179.6L506.8 179.6Q506.3 179.6 505.9 179.8Q505.5 180.1 505.2 180.4Q505.0 180.8 505.0 181.3L505.0 181.3L505.0 186ZM512.6 186.2L512.6 186.2Q511.4 186.2 510.5 185.6Q509.6 185.1 509.1 184.2Q508.6 183.2 508.6 181.9L508.6 181.9Q508.6 180.7 509.1 179.7Q509.6 178.8 510.5 178.2Q511.4 177.7 512.6 177.7L512.6 177.7Q513.8 177.7 514.7 178.2Q515.6 178.8 516.1 179.7Q516.6 180.7 516.6 181.9L516.6 181.9Q516.6 183.2 516.1 184.2Q515.6 185.1 514.7 185.6Q513.8 186.2 512.6 186.2ZM512.6 184.4L512.6 184.4Q513.2 184.4 513.6 184.1Q514.0 183.8 514.2 183.2Q514.4 182.6 514.4 181.9L514.4 181.9Q514.4 181.2 514.2 180.6Q514.0 180.1 513.6 179.8Q513.2 179.4 512.6 179.4L512.6 179.4Q512.0 179.4 511.6 179.8Q511.2 180.1 511.0 180.6Q510.8 181.2 510.8 181.9L510.8 181.9Q510.8 182.6 511.0 183.2Q511.2 183.8 511.6 184.1Q512.0 184.4 512.6 184.4ZM521.1 186.1L521.1 186.1Q520.2 186.1 519.4 185.7Q518.7 185.2 518.2 184.2Q517.8 183.3 517.8 181.9L517.8 181.9Q517.8 180.5 518.2 179.6Q518.7 178.6 519.4 178.2Q520.2 177.7 521.1 177.7L521.1 177.7Q521.8 177.7 522.3 177.9Q522.7 178.2 523.0 178.5Q523.3 178.9 523.4 179.2L523.4 179.2L523.5 179.2L523.5 175.1L525.7 175.1L525.7 186L523.5 186L523.5 184.7L523.4 184.7Q523.3 185.0 523.0 185.4Q522.7 185.7 522.2 185.9Q521.8 186.1 521.1 186.1ZM521.8 184.4L521.8 184.4Q522.4 184.4 522.7 184.1Q523.1 183.8 523.3 183.2Q523.6 182.7 523.6 181.9L523.6 181.9Q523.6 181.2 523.4 180.6Q523.2 180.1 522.8 179.8Q522.4 179.5 521.8 179.5L521.8 179.5Q521.2 179.5 520.8 179.8Q520.4 180.1 520.2 180.6Q520.0 181.2 520.0 181.9L520.0 181.9Q520.0 182.6 520.2 183.2Q520.4 183.7 520.8 184.1Q521.2 184.4 521.8 184.4ZM530.4 186.1L530.4 186.1Q529.6 186.1 528.9 185.7Q528.3 185.4 527.9 184.7Q527.6 184.0 527.6 183.0L527.6 183.0L527.6 177.8L529.8 177.8L529.8 182.6Q529.8 183.4 530.2 183.8Q530.6 184.3 531.3 184.3L531.3 184.3Q531.7 184.3 532.1 184.1Q532.4 183.9 532.6 183.5Q532.8 183.1 532.8 182.6L532.8 182.6L532.8 177.8L535.1 177.8L535.1 186L533.0 186L533.0 184.3Q532.6 185.1 532.1 185.5L532.1 185.5Q531.4 186.1 530.4 186.1ZM540.6 186.2L540.6 186.2Q539.3 186.2 538.4 185.6Q537.5 185.1 537.1 184.2Q536.6 183.2 536.6 181.9L536.6 181.9Q536.6 180.7 537.1 179.7Q537.5 178.8 538.4 178.2Q539.3 177.7 540.6 177.7L540.6 177.7Q541.3 177.7 541.9 177.9Q542.5 178.1 543.0 178.4Q543.5 178.8 543.8 179.3Q544.1 179.8 544.2 180.4L544.2 180.4L542.2 180.8Q542.1 180.5 542.0 180.2Q541.8 180.0 541.6 179.8Q541.4 179.6 541.2 179.5Q540.9 179.4 540.6 179.4L540.6 179.4Q540.0 179.4 539.6 179.8Q539.2 180.1 539.0 180.6Q538.8 181.2 538.8 181.9L538.8 181.9Q538.8 182.7 539.0 183.2Q539.2 183.8 539.6 184.1Q540.0 184.4 540.6 184.4L540.6 184.4Q540.9 184.4 541.2 184.3Q541.4 184.2 541.7 184.0Q541.9 183.9 542.0 183.6Q542.1 183.3 542.2 183.0L542.2 183.0L544.2 183.4Q544.1 184.0 543.8 184.5Q543.5 185.0 543.0 185.4Q542.6 185.8 541.9 186.0Q541.3 186.2 540.6 186.2ZM548.3 177.8L549.8 177.8L549.8 179.5L548.3 179.5L548.3 183.6Q548.3 184.0 548.5 184.2Q548.6 184.4 549.0 184.4L549.0 184.4Q549.2 184.4 549.4 184.3Q549.6 184.3 549.7 184.3L549.7 184.3L550.0 185.9Q549.7 186.0 549.3 186.1Q548.9 186.1 548.6 186.1L548.6 186.1Q547.4 186.1 546.7 185.5Q546.1 184.9 546.1 183.8L546.1 183.8L546.1 179.5L545.0 179.5L545.0 177.8L546.1 177.8L546.1 175.9L548.3 175.9L548.3 177.8ZM554.5 186.2L554.5 186.2Q553.5 186.2 552.7 185.9Q552.0 185.6 551.5 185.1Q551.0 184.5 550.9 183.8L550.9 183.8L552.9 183.4Q553.1 184.0 553.5 184.3Q553.9 184.5 554.6 184.5L554.6 184.5Q555.2 184.5 555.5 184.3Q555.9 184.1 555.9 183.7L555.9 183.7Q555.9 183.4 555.7 183.2Q555.4 183.0 554.9 182.9L554.9 182.9L553.4 182.6Q552.3 182.3 551.7 181.7Q551.1 181.2 551.1 180.3L551.1 180.3Q551.1 179.5 551.5 178.9Q551.9 178.3 552.7 178.0Q553.5 177.7 554.5 177.7L554.5 177.7Q555.5 177.7 556.2 178.0Q556.9 178.2 557.4 178.7Q557.8 179.2 557.9 179.9L557.9 179.9L556.0 180.2Q555.9 179.8 555.5 179.6Q555.2 179.3 554.6 179.3L554.6 179.3Q554.0 179.3 553.6 179.5Q553.3 179.7 553.3 180.1L553.3 180.1Q553.3 180.4 553.5 180.6Q553.8 180.9 554.3 181.0L554.3 181.0L555.8 181.3Q557.0 181.5 557.6 182.0Q558.2 182.6 558.2 183.5L558.2 183.5Q558.2 184.3 557.7 184.9Q557.2 185.5 556.4 185.8Q555.6 186.2 554.5 186.2Z "/></g><mask id="satori_om-id-1-1-2-0-1"><rect x="559" y="171" width="0" height="18" fill="#fff" mask="url(#satori_om-id)"/></mask><mask id="satori_om-id-1-1-2-1"><rect x="389" y="171" width="149" height="18" fill="#fff" mask="url(#satori_om-id)"/></mask><g mask="url(#satori_om-id)" clip-path="url(#satori_cp-id)"><path fill="#a5f3fc" d="M393.2 186.2L393.2 186.2Q392.2 186.2 391.4 185.9Q390.7 185.6 390.2 185.1Q389.7 184.5 389.6 183.8L389.6 183.8L391.6 183.4Q391.8 184.0 392.2 184.3Q392.6 184.5 393.3 184.5L393.3 184.5Q393.9 184.5 394.2 184.3Q394.6 184.1 394.6 183.7L394.6 183.7Q394.6 183.4 394.4 183.2Q394.1 183.0 393.6 182.9L393.6 182.9L392.1 182.6Q391.0 182.3 390.4 181.7Q389.8 181.2 389.8 180.3L389.8 180.3Q389.8 179.5 390.2 178.9Q390.6 178.3 391.4 178.0Q392.2 177.7 393.2 177.7L393.2 177.7Q394.2 177.7 394.9 178.0Q395.6 178.2 396.1 178.7Q396.5 179.2 396.6 179.9L396.6 179.9L394.7 180.2Q394.6 179.8 394.2 179.6Q393.9 179.3 393.3 179.3L393.3 179.3Q392.7 179.3 392.3 179.5Q392.0 179.7 392.0 180.1L392.0 180.1Q392.0 180.4 392.2 180.6Q392.5 180.9 393.0 181.0L393.0 181.0L394.5 181.3Q395.7 181.5 396.3 182.0Q396.9 182.6 396.9 183.5L396.9 183.5Q396.9 184.3 396.4 184.9Q395.9 185.5 395.1 185.8Q394.3 186.2 393.2 186.2ZM400.5 181.3L400.5 181.3L400.5 186L398.3 186L398.3 175.1L400.5 175.1L400.5 179.4Q400.8 178.7 401.3 178.3L401.3 178.3Q401.9 177.7 403.0 177.7L403.0 177.7Q403.8 177.7 404.5 178.1Q405.1 178.4 405.5 179.1Q405.8 179.8 405.8 180.8L405.8 180.8L405.8 186L403.6 186L403.6 181.2Q403.6 180.4 403.2 180.0Q402.8 179.5 402.1 179.5L402.1 179.5Q401.7 179.5 401.3 179.7Q400.9 180.0 400.7 180.3Q400.5 180.7 400.5 181.3ZM409.9 186L407.7 186L407.7 177.8L409.9 177.8L409.9 186ZM408.8 176.7L408.8 176.7Q408.3 176.7 407.9 176.4Q407.6 176.1 407.6 175.6L407.6 175.6Q407.6 175.1 407.9 174.8Q408.3 174.5 408.8 174.5L408.8 174.5Q409.3 174.5 409.6 174.8Q410.0 175.1 410.0 175.6L410.0 175.6Q410.0 176.1 409.6 176.4Q409.3 176.7 408.8 176.7ZM413.9 189.1L411.7 189.1L411.7 177.8L413.9 177.8L413.9 179.2L414.0 179.2Q414.2 178.9 414.4 178.5Q414.7 178.2 415.2 177.9Q415.6 177.7 416.3 177.7L416.3 177.7Q417.2 177.7 418.0 178.2Q418.8 178.6 419.2 179.6Q419.7 180.5 419.7 181.9L419.7 181.9Q419.7 183.3 419.2 184.2Q418.8 185.2 418.0 185.7Q417.3 186.1 416.3 186.1L416.3 186.1Q415.7 186.1 415.2 185.9Q414.7 185.7 414.4 185.4Q414.2 185.0 414.0 184.7L414.0 184.7L413.9 184.7L413.9 189.1ZM415.7 184.4L415.7 184.4Q416.2 184.4 416.6 184.1Q417.0 183.7 417.2 183.2Q417.4 182.6 417.4 181.9L417.4 181.9Q417.4 181.2 417.2 180.6Q417.0 180.1 416.6 179.8Q416.2 179.5 415.7 179.5L415.7 179.5Q415.1 179.5 414.7 179.8Q414.3 180.1 414.1 180.6Q413.9 181.2 413.9 181.9L413.9 181.9Q413.9 182.7 414.1 183.2Q414.3 183.8 414.7 184.1Q415.1 184.4 415.7 184.4ZM423.4 189.1L421.2 189.1L421.2 177.8L423.4 177.8L423.4 179.2L423.5 179.2Q423.6 178.9 423.9 178.5Q424.2 178.2 424.6 177.9Q425.1 177.7 425.8 177.7L425.8 177.7Q426.7 177.7 427.5 178.2Q428.2 178.6 428.7 179.6Q429.1 180.5 429.1 181.9L429.1 181.9Q429.1 183.3 428.7 184.2Q428.2 185.2 427.5 185.7Q426.7 186.1 425.8 186.1L425.8 186.1Q425.1 186.1 424.7 185.9Q424.2 185.7 423.9 185.4Q423.6 185.0 423.5 184.7L423.5 184.7L423.4 184.7L423.4 189.1ZM425.1 184.4L425.1 184.4Q425.7 184.4 426.1 184.1Q426.5 183.7 426.7 183.2Q426.9 182.6 426.9 181.9L426.9 181.9Q426.9 181.2 426.7 180.6Q426.5 180.1 426.1 179.8Q425.7 179.5 425.1 179.5L425.1 179.5Q424.5 179.5 424.1 179.8Q423.8 180.1 423.5 180.6Q423.3 181.2 423.3 181.9L423.3 181.9Q423.3 182.7 423.6 183.2Q423.8 183.8 424.2 184.1Q424.6 184.4 425.1 184.4ZM432.9 186L430.7 186L430.7 177.8L432.9 177.8L432.9 186ZM431.8 176.7L431.8 176.7Q431.3 176.7 430.9 176.4Q430.6 176.1 430.6 175.6L430.6 175.6Q430.6 175.1 430.9 174.8Q431.3 174.5 431.8 174.5L431.8 174.5Q432.2 174.5 432.6 174.8Q433.0 175.1 433.0 175.6L433.0 175.6Q433.0 176.1 432.6 176.4Q432.2 176.7 431.8 176.7ZM436.9 181.3L436.9 181.3L436.9 186L434.7 186L434.7 177.8L436.8 177.8L436.8 179.5Q437.1 178.7 437.7 178.3L437.7 178.3Q438.3 177.7 439.4 177.7L439.4 177.7Q440.2 177.7 440.9 178.1Q441.5 178.4 441.8 179.1Q442.2 179.8 442.2 180.8L442.2 180.8L442.2 186L440.0 186L440.0 181.2Q440.0 180.4 439.6 180.0Q439.2 179.5 438.5 179.5L438.5 179.5Q438.0 179.5 437.7 179.7Q437.3 180.0 437.1 180.3Q436.9 180.7 436.9 181.3ZM447.7 189.2L447.7 189.2Q446.7 189.2 445.9 189.0Q445.1 188.7 444.7 188.3Q444.2 187.8 444.0 187.2L444.0 187.2L445.9 186.7Q446.0 186.9 446.2 187.1Q446.4 187.4 446.8 187.5Q447.2 187.6 447.7 187.6L447.7 187.6Q448.5 187.6 449.0 187.3Q449.5 186.9 449.5 186.1L449.5 186.1L449.5 184.5L449.3 184.5Q449.2 184.9 448.9 185.2Q448.6 185.5 448.2 185.7Q447.7 185.9 447.0 185.9L447.0 185.9Q446.1 185.9 445.4 185.5Q444.6 185.0 444.2 184.1Q443.7 183.2 443.7 181.9L443.7 181.9Q443.7 180.5 444.2 179.6Q444.6 178.6 445.4 178.2Q446.1 177.7 447.1 177.7L447.1 177.7Q447.7 177.7 448.2 177.9Q448.7 178.2 449.0 178.5Q449.3 178.9 449.4 179.2L449.4 179.2L449.5 179.2L449.5 177.8L451.7 177.8L451.7 185.9Q451.7 187.0 451.1 187.8Q450.6 188.5 449.7 188.9Q448.9 189.2 447.7 189.2ZM447.7 184.2L447.7 184.2Q448.3 184.2 448.7 183.9Q449.1 183.7 449.3 183.1Q449.5 182.6 449.5 181.9L449.5 181.9Q449.5 181.2 449.3 180.6Q449.1 180.1 448.7 179.8Q448.3 179.5 447.7 179.5L447.7 179.5Q447.2 179.5 446.8 179.8Q446.4 180.1 446.2 180.6Q446.0 181.2 446.0 181.9L446.0 181.9Q446.0 182.6 446.2 183.1Q446.4 183.6 446.8 183.9Q447.2 184.2 447.7 184.2Z M459.0 186L456.5 186L460.2 175.1L463.2 175.1L467.0 186L464.5 186L463.7 183.5L459.8 183.5L459.0 186ZM460.3 181.7L463.1 181.7L462.8 180.7Q462.4 179.7 462.1 178.5L462.1 178.5Q461.9 177.7 461.7 176.8L461.7 176.8Q461.5 177.7 461.3 178.5L461.3 178.5Q461.0 179.7 460.7 180.7L460.7 180.7L460.3 181.7ZM468.3 175.1L470.6 175.1L470.6 186L468.3 186L468.3 175.1Z M478.9 177.8L480.6 177.8L480.6 179.5L478.9 179.5L478.9 186L476.7 186L476.7 179.5L475.3 179.5L475.3 177.8L476.7 177.8L476.7 177.2Q476.7 176.3 477.0 175.7Q477.4 175.2 478.0 174.9Q478.6 174.6 479.4 174.6L479.4 174.6Q479.9 174.6 480.3 174.7Q480.7 174.7 480.9 174.8L480.9 174.8L480.5 176.5Q480.4 176.4 480.2 176.4Q480.0 176.3 479.8 176.3L479.8 176.3Q479.3 176.3 479.1 176.6Q478.9 176.8 478.9 177.3L478.9 177.3L478.9 177.8ZM485.7 186.2L485.7 186.2Q484.5 186.2 483.6 185.6Q482.6 185.1 482.2 184.2Q481.7 183.2 481.7 181.9L481.7 181.9Q481.7 180.7 482.2 179.7Q482.6 178.8 483.5 178.2Q484.4 177.7 485.6 177.7L485.6 177.7Q486.4 177.7 487.1 178.0Q487.8 178.2 488.3 178.7Q488.9 179.3 489.2 180.0Q489.5 180.8 489.5 181.9L489.5 181.9L489.5 182.5L483.8 182.5Q483.9 183.1 484.1 183.5L484.1 183.5Q484.3 184.0 484.8 184.3Q485.2 184.5 485.8 184.5L485.8 184.5Q486.1 184.5 486.5 184.4Q486.8 184.3 487.0 184.1Q487.2 183.9 487.3 183.5L487.3 183.5L489.3 183.9Q489.1 184.6 488.6 185.1Q488.1 185.6 487.4 185.9Q486.7 186.2 485.7 186.2ZM483.9 181.1L483.9 181.1L487.3 181.1Q487.3 180.7 487.2 180.4L487.2 180.4Q487.0 179.9 486.6 179.6Q486.2 179.4 485.6 179.4L485.6 179.4Q485.1 179.4 484.7 179.6Q484.3 179.9 484.1 180.3L484.1 180.3Q483.9 180.7 483.9 181.1ZM493.2 186.2L493.2 186.2Q492.5 186.2 491.8 185.9Q491.2 185.6 490.9 185.1Q490.5 184.5 490.5 183.7L490.5 183.7Q490.5 183.0 490.8 182.6Q491.0 182.1 491.5 181.8Q491.9 181.5 492.4 181.4Q493.0 181.3 493.6 181.2L493.6 181.2Q494.3 181.1 494.8 181.1Q495.2 181.0 495.4 180.9Q495.6 180.7 495.6 180.5L495.6 180.5L495.6 180.4Q495.6 180.1 495.4 179.8Q495.3 179.6 495.0 179.5Q494.7 179.3 494.3 179.3L494.3 179.3Q493.9 179.3 493.6 179.5Q493.3 179.6 493.1 179.8Q492.9 180.0 492.8 180.3L492.8 180.3L490.7 180.0Q491.0 179.2 491.5 178.7Q491.9 178.2 492.7 178.0Q493.4 177.7 494.3 177.7L494.3 177.7Q495.0 177.7 495.6 177.9Q496.2 178.0 496.7 178.4Q497.2 178.7 497.5 179.2Q497.8 179.7 497.8 180.5L497.8 180.5L497.8 186L495.7 186L495.7 184.9L495.6 184.9Q495.4 185.2 495.1 185.5Q494.8 185.8 494.3 186.0Q493.8 186.2 493.2 186.2ZM493.9 184.6L493.9 184.6Q494.4 184.6 494.8 184.4Q495.2 184.2 495.4 183.9Q495.6 183.5 495.6 183.1L495.6 183.1L495.6 182.2Q495.5 182.3 495.3 182.3Q495.1 182.4 494.9 182.4Q494.6 182.5 494.4 182.5Q494.2 182.5 494.0 182.6L494.0 182.6Q493.6 182.6 493.3 182.7Q493.0 182.9 492.8 183.1Q492.6 183.3 492.6 183.6L492.6 183.6Q492.6 184.0 492.8 184.2Q492.9 184.4 493.2 184.5Q493.5 184.6 493.9 184.6ZM502.2 177.8L503.7 177.8L503.7 179.5L502.2 179.5L502.2 183.6Q502.2 184.0 502.4 184.2Q502.5 184.4 502.9 184.4L502.9 184.4Q503.1 184.4 503.3 184.3Q503.5 184.3 503.6 184.3L503.6 184.3L504.0 185.9Q503.6 186.0 503.2 186.1Q502.9 186.1 502.5 186.1L502.5 186.1Q501.3 186.1 500.7 185.5Q500.0 184.9 500.0 183.8L500.0 183.8L500.0 179.5L498.9 179.5L498.9 177.8L500.0 177.8L500.0 175.9L502.2 175.9L502.2 177.8ZM508.0 186.1L508.0 186.1Q507.1 186.1 506.5 185.7Q505.9 185.4 505.5 184.7Q505.2 184.0 505.2 183.0L505.2 183.0L505.2 177.8L507.4 177.8L507.4 182.6Q507.4 183.4 507.7 183.8Q508.1 184.3 508.8 184.3L508.8 184.3Q509.3 184.3 509.7 184.1Q510.0 183.9 510.2 183.5Q510.4 183.1 510.4 182.6L510.4 182.6L510.4 177.8L512.6 177.8L512.6 186L510.5 186L510.5 184.3Q510.2 185.1 509.7 185.5L509.7 185.5Q509.0 186.1 508.0 186.1ZM516.7 186L514.5 186L514.5 177.8L516.6 177.8L516.6 179.2L516.7 179.2Q516.9 178.5 517.5 178.1Q518.0 177.7 518.7 177.7L518.7 177.7Q518.9 177.7 519.0 177.7Q519.2 177.7 519.4 177.8L519.4 177.8L519.4 179.7Q519.2 179.7 519.0 179.7Q518.7 179.6 518.4 179.6L518.4 179.6Q517.9 179.6 517.5 179.8Q517.1 180.1 516.9 180.4Q516.7 180.8 516.7 181.3L516.7 181.3L516.7 186ZM524.3 186.2L524.3 186.2Q523.0 186.2 522.1 185.6Q521.2 185.1 520.7 184.2Q520.3 183.2 520.3 181.9L520.3 181.9Q520.3 180.7 520.7 179.7Q521.2 178.8 522.1 178.2Q523.0 177.7 524.2 177.7L524.2 177.7Q525.0 177.7 525.7 178.0Q526.4 178.2 526.9 178.7Q527.4 179.3 527.7 180.0Q528.0 180.8 528.0 181.9L528.0 181.9L528.0 182.5L522.4 182.5Q522.5 183.1 522.7 183.5L522.7 183.5Q522.9 184.0 523.3 184.3Q523.8 184.5 524.3 184.5L524.3 184.5Q524.7 184.5 525.0 184.4Q525.4 184.3 525.6 184.1Q525.8 183.9 525.9 183.5L525.9 183.5L527.9 183.9Q527.7 184.6 527.2 185.1Q526.7 185.6 526.0 185.9Q525.3 186.2 524.3 186.2ZM522.4 181.1L522.4 181.1L525.9 181.1Q525.9 180.7 525.7 180.4L525.7 180.4Q525.5 179.9 525.2 179.6Q524.8 179.4 524.2 179.4L524.2 179.4Q523.6 179.4 523.2 179.6Q522.8 179.9 522.6 180.3L522.6 180.3Q522.5 180.7 522.4 181.1ZM532.8 186.2L532.8 186.2Q531.8 186.2 531.0 185.9Q530.3 185.6 529.8 185.1Q529.3 184.5 529.2 183.8L529.2 183.8L531.2 183.4Q531.4 184.0 531.8 184.3Q532.2 184.5 532.9 184.5L532.9 184.5Q533.5 184.5 533.8 184.3Q534.2 184.1 534.2 183.7L534.2 183.7Q534.2 183.4 533.9 183.2Q533.7 183.0 533.2 182.9L533.2 182.9L531.7 182.6Q530.6 182.3 530.0 181.7Q529.4 181.2 529.4 180.3L529.4 180.3Q529.4 179.5 529.8 178.9Q530.2 178.3 531.0 178.0Q531.8 177.7 532.8 177.7L532.8 177.7Q533.8 177.7 534.5 178.0Q535.2 178.2 535.7 178.7Q536.1 179.2 536.2 179.9L536.2 179.9L534.3 180.2Q534.2 179.8 533.8 179.6Q533.5 179.3 532.9 179.3L532.9 179.3Q532.3 179.3 531.9 179.5Q531.6 179.7 531.6 180.1L531.6 180.1Q531.6 180.4 531.8 180.6Q532.1 180.9 532.6 181.0L532.6 181.0L534.1 181.3Q535.3 181.5 535.9 182.0Q536.5 182.6 536.5 183.5L536.5 183.5Q536.5 184.3 536.0 184.9Q535.5 185.5 534.7 185.8Q533.9 186.2 532.8 186.2Z "/></g><mask id="satori_om-id-1-1-2-1-1"><rect x="538" y="171" width="0" height="18" fill="#fff" mask="url(#satori_om-id)"/></mask><mask id="satori_om-id-1-1-2-2"><rect x="389" y="171" width="85" height="18" fill="#fff" mask="url(#satori_om-id)"/></mask><g mask="url(#satori_om-id)" clip-path="url(#satori_cp-id)"><path fill="#fbcfe8" d="M393.6 186.2L393.6 186.2Q392.4 186.2 391.5 185.6Q390.6 185.1 390.1 184.2Q389.6 183.2 389.6 181.9L389.6 181.9Q389.6 180.7 390.1 179.7Q390.6 178.8 391.5 178.2Q392.4 177.7 393.6 177.7L393.6 177.7Q394.8 177.7 395.7 178.2Q396.6 178.8 397.1 179.7Q397.6 180.7 397.6 181.9L397.6 181.9Q397.6 183.2 397.1 184.2Q396.6 185.1 395.7 185.6Q394.8 186.2 393.6 186.2ZM393.6 184.4L393.6 184.4Q394.2 184.4 394.6 184.1Q395.0 183.8 395.2 183.2Q395.4 182.6 395.4 181.9L395.4 181.9Q395.4 181.2 395.2 180.6Q395.0 180.1 394.6 179.8Q394.2 179.4 393.6 179.4L393.6 179.4Q393.0 179.4 392.6 179.8Q392.2 180.1 392.0 180.6Q391.8 181.2 391.8 181.9L391.8 181.9Q391.8 182.6 392.0 183.2Q392.2 183.8 392.6 184.1Q393.0 184.4 393.6 184.4ZM401.3 189.1L399.1 189.1L399.1 177.8L401.3 177.8L401.3 179.2L401.4 179.2Q401.6 178.9 401.8 178.5Q402.1 178.2 402.6 177.9Q403.0 177.7 403.7 177.7L403.7 177.7Q404.6 177.7 405.4 178.2Q406.2 178.6 406.6 179.6Q407.1 180.5 407.1 181.9L407.1 181.9Q407.1 183.3 406.6 184.2Q406.2 185.2 405.4 185.7Q404.7 186.1 403.7 186.1L403.7 186.1Q403.1 186.1 402.6 185.9Q402.1 185.7 401.8 185.4Q401.6 185.0 401.4 184.7L401.4 184.7L401.3 184.7L401.3 189.1ZM403.0 184.4L403.0 184.4Q403.6 184.4 404.0 184.1Q404.4 183.7 404.6 183.2Q404.8 182.6 404.8 181.9L404.8 181.9Q404.8 181.2 404.6 180.6Q404.4 180.1 404.0 179.8Q403.6 179.5 403.0 179.5L403.0 179.5Q402.5 179.5 402.1 179.8Q401.7 180.1 401.5 180.6Q401.3 181.2 401.3 181.9L401.3 181.9Q401.3 182.7 401.5 183.2Q401.7 183.8 402.1 184.1Q402.5 184.4 403.0 184.4ZM412.3 186.2L412.3 186.2Q411.0 186.2 410.1 185.6Q409.2 185.1 408.7 184.2Q408.2 183.2 408.2 181.9L408.2 181.9Q408.2 180.7 408.7 179.7Q409.2 178.8 410.1 178.2Q411.0 177.7 412.2 177.7L412.2 177.7Q413.0 177.7 413.7 178.0Q414.4 178.2 414.9 178.7Q415.4 179.3 415.7 180.0Q416.0 180.8 416.0 181.9L416.0 181.9L416.0 182.5L410.4 182.5Q410.4 183.1 410.7 183.5L410.7 183.5Q410.9 184.0 411.3 184.3Q411.8 184.5 412.3 184.5L412.3 184.5Q412.7 184.5 413.0 184.4Q413.3 184.3 413.6 184.1Q413.8 183.9 413.9 183.5L413.9 183.5L415.9 183.9Q415.7 184.6 415.2 185.1Q414.7 185.6 414.0 185.9Q413.3 186.2 412.3 186.2ZM410.4 181.1L410.4 181.1L413.9 181.1Q413.9 180.7 413.7 180.4L413.7 180.4Q413.5 179.9 413.2 179.6Q412.8 179.4 412.2 179.4L412.2 179.4Q411.6 179.4 411.2 179.6Q410.8 179.9 410.6 180.3L410.6 180.3Q410.5 180.7 410.4 181.1ZM419.7 181.3L419.7 181.3L419.7 186L417.5 186L417.5 177.8L419.6 177.8L419.6 179.5Q419.9 178.7 420.5 178.3L420.5 178.3Q421.1 177.7 422.2 177.7L422.2 177.7Q423.0 177.7 423.7 178.1Q424.3 178.4 424.6 179.1Q425.0 179.8 425.0 180.8L425.0 180.8L425.0 186L422.8 186L422.8 181.2Q422.8 180.4 422.4 180.0Q422.0 179.5 421.3 179.5L421.3 179.5Q420.9 179.5 420.5 179.7Q420.1 180.0 419.9 180.3Q419.7 180.7 419.7 181.3Z M433.0 177.8L434.5 177.8L434.5 179.5L433.0 179.5L433.0 183.6Q433.0 184.0 433.1 184.2Q433.3 184.4 433.7 184.4L433.7 184.4Q433.8 184.4 434.1 184.3Q434.3 184.3 434.4 184.3L434.4 184.3L434.7 185.9Q434.3 186.0 434.0 186.1Q433.6 186.1 433.3 186.1L433.3 186.1Q432.1 186.1 431.4 185.5Q430.8 184.9 430.8 183.8L430.8 183.8L430.8 179.5L429.6 179.5L429.6 177.8L430.8 177.8L430.8 175.9L433.0 175.9L433.0 177.8ZM439.6 186.2L439.6 186.2Q438.3 186.2 437.4 185.6Q436.5 185.1 436.1 184.2Q435.6 183.2 435.6 181.9L435.6 181.9Q435.6 180.7 436.1 179.7Q436.5 178.8 437.4 178.2Q438.3 177.7 439.6 177.7L439.6 177.7Q440.8 177.7 441.7 178.2Q442.6 178.8 443.1 179.7Q443.6 180.7 443.6 181.9L443.6 181.9Q443.6 183.2 443.1 184.2Q442.6 185.1 441.7 185.6Q440.8 186.2 439.6 186.2ZM439.6 184.4L439.6 184.4Q440.2 184.4 440.6 184.1Q441.0 183.8 441.1 183.2Q441.3 182.6 441.3 181.9L441.3 181.9Q441.3 181.2 441.1 180.6Q441.0 180.1 440.6 179.8Q440.2 179.4 439.6 179.4L439.6 179.4Q439.0 179.4 438.6 179.8Q438.2 180.1 438.0 180.6Q437.8 181.2 437.8 181.9L437.8 181.9Q437.8 182.6 438.0 183.2Q438.2 183.8 438.6 184.1Q439.0 184.4 439.6 184.4Z M453.5 186.1L453.5 186.1Q452.0 186.1 450.9 185.5Q449.7 184.8 449.1 183.6Q448.4 182.3 448.4 180.6L448.4 180.6Q448.4 178.8 449.1 177.5Q449.7 176.3 450.9 175.6Q452.0 174.9 453.5 174.9L453.5 174.9Q454.4 174.9 455.2 175.2Q456.0 175.5 456.6 176.0Q457.3 176.5 457.7 177.2Q458.1 177.9 458.2 178.8L458.2 178.8L455.9 178.8Q455.8 178.4 455.6 178.0Q455.4 177.7 455.1 177.4Q454.8 177.2 454.4 177.1Q454.0 176.9 453.5 176.9L453.5 176.9Q452.7 176.9 452.0 177.4Q451.4 177.8 451.0 178.6Q450.7 179.4 450.7 180.6L450.7 180.6Q450.7 181.7 451.0 182.5Q451.4 183.3 452.0 183.8Q452.7 184.2 453.5 184.2L453.5 184.2Q454.0 184.2 454.4 184.0Q454.8 183.9 455.1 183.7Q455.4 183.4 455.6 183.1Q455.8 182.7 455.9 182.3L455.9 182.3L458.2 182.3Q458.1 183.0 457.7 183.7Q457.4 184.4 456.8 185.0Q456.2 185.5 455.3 185.8Q454.5 186.1 453.5 186.1ZM463.6 186L463.6 186L459.8 186L459.8 175.1L463.7 175.1Q465.3 175.1 466.5 175.7Q467.7 176.4 468.3 177.6Q469.0 178.8 469.0 180.5L469.0 180.5Q469.0 182.2 468.3 183.5Q467.7 184.7 466.5 185.3Q465.3 186 463.6 186ZM462.0 177.0L462.0 184.1L463.5 184.1Q464.6 184.1 465.3 183.7Q466.0 183.3 466.4 182.5Q466.7 181.8 466.7 180.5L466.7 180.5Q466.7 179.3 466.4 178.5Q466.0 177.8 465.3 177.4Q464.6 177.0 463.6 177.0L463.6 177.0L462.0 177.0ZM470.6 175.1L472.9 175.1L472.9 186L470.6 186L470.6 175.1Z "/></g><mask id="satori_om-id-1-1-2-2-1"><rect x="474" y="171" width="0" height="18" fill="#fff" mask="url(#satori_om-id)"/></mask><mask id="satori_om-id-1-1-3"><rect x="590" y="173" width="2" height="17" fill="#fff" mask="url(#satori_om-id)"/></mask><rect x="590" y="173" width="2" height="17" fill="#22d3ee" clip-path="url(#satori_cp-id)" mask="url(#satori_om-id)"/><mask id="satori_om-id-1-1-3-0"><rect x="590" y="173" width="0" height="17" fill="#fff" mask="url(#satori_om-id)"/></mask><mask id="satori_om-id-1-2"><rect x="259" y="218" width="382" height="28" fill="#fff" mask="url(#satori_om-id)"/></mask><defs><clipPath id="satori_bc-id-1-2-0" clip-path="url(#satori_cp-id)"><path x="259" y="218" width="133" height="28" d="M273,218 h105 a14,14 0 0 1 14,14 v0 a14,14 0 0 1 -14,14 h-105 a14,14 0 0 1 -14,-14 v0 a14,14 0 0 1 14,-14"/></clipPath></defs><mask id="satori_om-id-1-2-0"><rect x="260" y="219" width="131" height="26" fill="#fff" mask="url(#satori_om-id)"/><path width="133" height="28" fill="none" stroke="#000" stroke-width="2" d="M263.101,222.101 A14,14 0 0 1 273,218 h105 a14,14 0 0 1 14,14 v0 a14,14 0 0 1 -14,14 h-105 a14,14 0 0 1 -14,-14 v0 A14,14 0 0 1 263.101,222.101"/></mask><path width="133" height="28" clip-path="url(#satori_bc-id-1-2-0)" fill="none" stroke="#22d3ee55" stroke-width="2" d="M263.101,222.101 A14,14 0 0 1 273,218 h105 a14,14 0 0 1 14,14 v0 a14,14 0 0 1 -14,14 h-105 a14,14 0 0 1 -14,-14 v0 A14,14 0 0 1 263.101,222.101"/><g mask="url(#satori_om-id)" clip-path="url(#satori_cp-id)"><path fill="#22d3ee" d="M279.2 235.1L274.8 235.1L274.8 234.1L278.9 227.5L280.4 227.5L280.4 234.0L281.6 234.0L281.6 235.1L280.4 235.1L280.4 237L279.2 237L279.2 235.1ZM276.1 234.0L279.2 234.0L279.2 229.1L279.1 229.1L276.1 233.9L276.1 234.0Z M289.0 237.2L289.0 237.2Q288.4 237.2 287.8 236.9Q287.3 236.7 286.9 236.2Q286.6 235.7 286.6 235.0L286.6 235.0Q286.6 234.4 286.9 234.0Q287.1 233.6 287.5 233.4Q287.9 233.2 288.4 233.1Q288.9 233.0 289.4 232.9L289.4 232.9Q290.0 232.8 290.4 232.8Q290.8 232.7 291.0 232.6Q291.2 232.5 291.2 232.2L291.2 232.2L291.2 232.2Q291.2 231.8 291.0 231.5Q290.9 231.1 290.5 231.0Q290.2 230.8 289.7 230.8L289.7 230.8Q289.2 230.8 288.9 231.0Q288.5 231.1 288.3 231.4Q288.0 231.6 287.9 231.9L287.9 231.9L286.8 231.5Q287.1 230.8 287.6 230.5Q288.0 230.1 288.6 230.0Q289.1 229.8 289.7 229.8L289.7 229.8Q290.0 229.8 290.5 229.9Q291.0 230.0 291.4 230.2Q291.8 230.5 292.1 231.0Q292.4 231.5 292.4 232.3L292.4 232.3L292.4 237L291.2 237L291.2 236.0L291.2 236.0Q291.0 236.3 290.8 236.5Q290.5 236.8 290.1 237.0Q289.6 237.2 289.0 237.2ZM289.2 236.2L289.2 236.2Q289.9 236.2 290.3 235.9Q290.8 235.7 291.0 235.3Q291.2 234.9 291.2 234.4L291.2 234.4L291.2 233.5Q291.1 233.5 290.9 233.6Q290.7 233.7 290.4 233.7Q290.1 233.8 289.8 233.8Q289.5 233.8 289.3 233.9L289.3 233.9Q288.9 233.9 288.6 234.0Q288.2 234.2 288.0 234.4Q287.8 234.6 287.8 235.0L287.8 235.0Q287.8 235.4 288.0 235.7Q288.2 235.9 288.5 236.0Q288.8 236.2 289.2 236.2ZM295.5 232.7L295.5 232.7L295.5 237L294.4 237L294.4 229.9L295.5 229.9L295.5 231.2Q295.8 230.6 296.2 230.2L296.2 230.2Q296.8 229.8 297.6 229.8L297.6 229.8Q298.3 229.8 298.9 230.1Q299.4 230.4 299.7 231.0Q300.0 231.6 300.0 232.5L300.0 232.5L300.0 237L298.9 237L298.9 232.6Q298.9 231.8 298.5 231.3Q298.0 230.8 297.3 230.8L297.3 230.8Q296.8 230.8 296.4 231.1Q296.0 231.3 295.7 231.7Q295.5 232.1 295.5 232.7ZM304.4 237.2L304.4 237.2Q303.7 237.2 303.2 236.9Q302.6 236.7 302.2 236.3Q301.8 235.9 301.7 235.3L301.7 235.3L302.8 235.0Q303.0 235.6 303.4 235.9Q303.8 236.1 304.4 236.1L304.4 236.1Q305.2 236.1 305.6 235.8Q306.1 235.5 306.1 235.1L306.1 235.1Q306.1 234.7 305.8 234.5Q305.5 234.2 305.0 234.1L305.0 234.1L303.8 233.8Q302.9 233.6 302.4 233.1Q301.9 232.6 301.9 231.9L301.9 231.9Q301.9 231.3 302.3 230.8Q302.6 230.3 303.2 230.1Q303.8 229.8 304.6 229.8L304.6 229.8Q305.3 229.8 305.8 230.0Q306.3 230.3 306.6 230.6Q307.0 231.0 307.1 231.5L307.1 231.5L306.1 231.8Q305.9 231.4 305.6 231.1Q305.3 230.8 304.6 230.8L304.6 230.8Q303.9 230.8 303.5 231.1Q303.1 231.4 303.1 231.8L303.1 231.8Q303.1 232.2 303.4 232.4Q303.7 232.7 304.3 232.8L304.3 232.8L305.4 233.1Q306.3 233.3 306.8 233.8Q307.2 234.3 307.2 235.0L307.2 235.0Q307.2 235.6 306.9 236.1Q306.5 236.6 305.9 236.9Q305.3 237.2 304.4 237.2Z M314.5 237.2L314.5 237.2Q313.9 237.2 313.3 236.9Q312.8 236.7 312.4 236.2Q312.1 235.7 312.1 235.0L312.1 235.0Q312.1 234.4 312.4 234.0Q312.6 233.6 313.0 233.4Q313.4 233.2 313.9 233.1Q314.4 233.0 314.9 232.9L314.9 232.9Q315.5 232.8 315.9 232.8Q316.3 232.7 316.5 232.6Q316.7 232.5 316.7 232.2L316.7 232.2L316.7 232.2Q316.7 231.8 316.5 231.5Q316.4 231.1 316.0 231.0Q315.7 230.8 315.2 230.8L315.2 230.8Q314.7 230.8 314.4 231.0Q314.0 231.1 313.8 231.4Q313.5 231.6 313.4 231.9L313.4 231.9L312.3 231.5Q312.6 230.8 313.1 230.5Q313.5 230.1 314.1 230.0Q314.6 229.8 315.2 229.8L315.2 229.8Q315.5 229.8 316.0 229.9Q316.5 230.0 316.9 230.2Q317.3 230.5 317.6 231.0Q317.8 231.5 317.8 232.3L317.8 232.3L317.8 237L316.7 237L316.7 236.0L316.6 236.0Q316.5 236.3 316.3 236.5Q316.0 236.8 315.6 237.0Q315.1 237.2 314.5 237.2ZM314.7 236.2L314.7 236.2Q315.4 236.2 315.8 235.9Q316.3 235.7 316.5 235.3Q316.7 234.9 316.7 234.4L316.7 234.4L316.7 233.5Q316.6 233.5 316.4 233.6Q316.2 233.7 315.9 233.7Q315.6 233.8 315.3 233.8Q315.0 233.8 314.8 233.9L314.8 233.9Q314.4 233.9 314.1 234.0Q313.7 234.2 313.5 234.4Q313.3 234.6 313.3 235.0L313.3 235.0Q313.3 235.4 313.5 235.7Q313.7 235.9 314.0 236.0Q314.3 236.2 314.7 236.2ZM319.9 227.5L321.0 227.5L321.0 237L319.9 237L319.9 227.5ZM324.3 229.9L325.8 229.9L325.8 230.9L324.3 230.9L324.3 235.2Q324.3 235.6 324.5 235.9Q324.7 236.1 325.2 236.1L325.2 236.1Q325.3 236.1 325.5 236.0Q325.6 236.0 325.8 236.0L325.8 236.0L326.0 237.0Q325.8 237.0 325.6 237.1Q325.4 237.1 325.1 237.1L325.1 237.1Q324.2 237.1 323.7 236.6Q323.2 236.1 323.2 235.2L323.2 235.2L323.2 230.9L322.1 230.9L322.1 229.9L323.2 229.9L323.2 228.2L324.3 228.2L324.3 229.9ZM330.2 237.2L330.2 237.2Q329.2 237.2 328.5 236.7Q327.7 236.2 327.3 235.4Q326.9 234.6 326.9 233.5Q326.9 232.4 327.3 231.6Q327.7 230.8 328.4 230.3Q329.1 229.8 330.1 229.8L330.1 229.8Q330.7 229.8 331.2 230.0Q331.8 230.2 332.2 230.6Q332.7 231.0 332.9 231.7Q333.2 232.4 333.2 233.4L333.2 233.4L333.2 233.8L328.1 233.8Q328.1 234.5 328.3 235.0L328.3 235.0Q328.6 235.6 329.1 235.9Q329.6 236.1 330.2 236.1L330.2 236.1Q330.7 236.1 331.0 236.0Q331.4 235.9 331.6 235.7Q331.8 235.4 332.0 235.0L332.0 235.0L333.1 235.3Q332.9 235.9 332.5 236.3Q332.1 236.7 331.6 236.9Q331.0 237.2 330.2 237.2ZM328.1 232.9L328.1 232.9L332.0 232.9Q332.0 232.4 331.8 232.0L331.8 232.0Q331.6 231.4 331.2 231.1Q330.7 230.8 330.1 230.8Q329.5 230.8 329.0 231.1Q328.6 231.5 328.3 232.0L328.3 232.0Q328.1 232.4 328.1 232.9ZM336.0 237L334.8 237L334.8 229.9L335.9 229.9L335.9 231.0L336.0 231.0Q336.2 230.5 336.7 230.1Q337.2 229.8 337.9 229.8L337.9 229.8Q338.0 229.8 338.2 229.8Q338.3 229.8 338.4 229.8L338.4 229.8L338.4 231.0Q338.4 231.0 338.2 230.9Q338.0 230.9 337.7 230.9L337.7 230.9Q337.2 230.9 336.8 231.1Q336.4 231.3 336.2 231.7Q336.0 232.1 336.0 232.6L336.0 232.6L336.0 237ZM340.9 232.7L340.9 232.7L340.9 237L339.7 237L339.7 229.9L340.8 229.9L340.8 231.2Q341.1 230.6 341.6 230.2L341.6 230.2Q342.2 229.8 343.0 229.8L343.0 229.8Q343.7 229.8 344.3 230.1Q344.8 230.4 345.1 231.0Q345.4 231.6 345.4 232.5L345.4 232.5L345.4 237L344.3 237L344.3 232.6Q344.3 231.8 343.8 231.3Q343.4 230.8 342.7 230.8L342.7 230.8Q342.2 230.8 341.7 231.1Q341.3 231.3 341.1 231.7Q340.9 232.1 340.9 232.7ZM349.4 237.2L349.4 237.2Q348.7 237.2 348.2 236.9Q347.6 236.7 347.3 236.2Q347.0 235.7 347.0 235.0L347.0 235.0Q347.0 234.4 347.2 234.0Q347.5 233.6 347.9 233.4Q348.3 233.2 348.8 233.1Q349.2 233.0 349.7 232.9L349.7 232.9Q350.4 232.8 350.8 232.8Q351.2 232.7 351.4 232.6Q351.6 232.5 351.6 232.2L351.6 232.2L351.6 232.2Q351.6 231.8 351.4 231.5Q351.2 231.1 350.9 231.0Q350.6 230.8 350.1 230.8L350.1 230.8Q349.6 230.8 349.2 231.0Q348.8 231.1 348.6 231.4Q348.4 231.6 348.3 231.9L348.3 231.9L347.2 231.5Q347.5 230.8 347.9 230.5Q348.4 230.1 348.9 230.0Q349.5 229.8 350.0 229.8L350.0 229.8Q350.4 229.8 350.9 229.9Q351.3 230.0 351.7 230.2Q352.2 230.5 352.4 231.0Q352.7 231.5 352.7 232.3L352.7 232.3L352.7 237L351.6 237L351.6 236.0L351.5 236.0Q351.4 236.3 351.1 236.5Q350.9 236.8 350.4 237.0Q350.0 237.2 349.4 237.2ZM349.6 236.2L349.6 236.2Q350.2 236.2 350.7 235.9Q351.1 235.7 351.3 235.3Q351.6 234.9 351.6 234.4L351.6 234.4L351.6 233.5Q351.5 233.5 351.3 233.6Q351.0 233.7 350.7 233.7Q350.4 233.8 350.1 233.8Q349.9 233.8 349.7 233.9L349.7 233.9Q349.3 233.9 348.9 234.0Q348.6 234.2 348.3 234.4Q348.1 234.6 348.1 235.0L348.1 235.0Q348.1 235.4 348.3 235.7Q348.5 235.9 348.8 236.0Q349.2 236.2 349.6 236.2ZM355.9 232.7L355.9 232.7L355.9 237L354.7 237L354.7 229.9L355.8 229.9L355.8 231.2Q356.1 230.6 356.6 230.2L356.6 230.2Q357.2 229.8 358.0 229.8L358.0 229.8Q358.7 229.8 359.2 230.1Q359.8 230.4 360.1 231.0Q360.4 231.6 360.4 232.5L360.4 232.5L360.4 237L359.2 237L359.2 232.6Q359.2 231.8 358.8 231.3Q358.4 230.8 357.6 230.8L357.6 230.8Q357.1 230.8 356.7 231.1Q356.3 231.3 356.1 231.7Q355.9 232.1 355.9 232.7ZM365.3 237.2L365.3 237.2Q364.3 237.2 363.6 236.7Q362.9 236.2 362.5 235.4Q362.0 234.6 362.0 233.5L362.0 233.5Q362.0 232.4 362.5 231.6Q362.9 230.7 363.6 230.3Q364.3 229.8 365.3 229.8L365.3 229.8Q365.8 229.8 366.3 229.9Q366.7 230.1 367.1 230.3Q367.5 230.6 367.7 230.9Q368.0 231.3 368.2 231.8L368.2 231.8L367.1 232.1Q367.0 231.8 366.8 231.6Q366.7 231.4 366.4 231.2Q366.2 231.0 365.9 230.9Q365.6 230.8 365.3 230.8L365.3 230.8Q364.6 230.8 364.1 231.2Q363.7 231.6 363.4 232.2Q363.2 232.8 363.2 233.5L363.2 233.5Q363.2 234.2 363.4 234.8Q363.7 235.4 364.1 235.8Q364.6 236.1 365.3 236.1L365.3 236.1Q365.6 236.1 365.9 236.0Q366.2 235.9 366.5 235.8Q366.7 235.6 366.9 235.3Q367.0 235.1 367.1 234.8L367.1 234.8L368.2 235.1Q368.0 235.6 367.8 236.0Q367.5 236.4 367.1 236.6Q366.7 236.9 366.3 237.0Q365.8 237.2 365.3 237.2ZM372.8 237.2L372.8 237.2Q371.8 237.2 371.0 236.7Q370.3 236.2 369.9 235.4Q369.5 234.6 369.5 233.5Q369.5 232.4 369.9 231.6Q370.3 230.8 371.0 230.3Q371.7 229.8 372.7 229.8L372.7 229.8Q373.2 229.8 373.8 230.0Q374.3 230.2 374.8 230.6Q375.2 231.0 375.5 231.7Q375.8 232.4 375.8 233.4L375.8 233.4L375.8 233.8L370.6 233.8Q370.7 234.5 370.9 235.0L370.9 235.0Q371.2 235.6 371.7 235.9Q372.2 236.1 372.8 236.1L372.8 236.1Q373.2 236.1 373.6 236.0Q373.9 235.9 374.2 235.7Q374.4 235.4 374.5 235.0L374.5 235.0L375.6 235.3Q375.5 235.9 375.1 236.3Q374.7 236.7 374.1 236.9Q373.5 237.2 372.8 237.2ZM370.6 232.9L370.6 232.9L374.6 232.9Q374.6 232.4 374.4 232.0L374.4 232.0Q374.2 231.4 373.7 231.1Q373.3 230.8 372.7 230.8Q372.0 230.8 371.6 231.1Q371.1 231.5 370.9 232.0L370.9 232.0Q370.7 232.4 370.6 232.9Z "/></g><defs><clipPath id="satori_bc-id-1-2-1" clip-path="url(#satori_cp-id)"><path x="402" y="218" width="126" height="28" d="M416,218 h98 a14,14 0 0 1 14,14 v0 a14,14 0 0 1 -14,14 h-98 a14,14 0 0 1 -14,-14 v0 a14,14 0 0 1 14,-14"/></clipPath></defs><mask id="satori_om-id-1-2-1"><rect x="403" y="219" width="124" height="26" fill="#fff" mask="url(#satori_om-id)"/><path width="126" height="28" fill="none" stroke="#000" stroke-width="2" d="M406.101,222.101 A14,14 0 0 1 416,218 h98 a14,14 0 0 1 14,14 v0 a14,14 0 0 1 -14,14 h-98 a14,14 0 0 1 -14,-14 v0 A14,14 0 0 1 406.101,222.101"/></mask><path width="126" height="28" clip-path="url(#satori_bc-id-1-2-1)" fill="none" stroke="#a78bfa55" stroke-width="2" d="M406.101,222.101 A14,14 0 0 1 416,218 h98 a14,14 0 0 1 14,14 v0 a14,14 0 0 1 -14,14 h-98 a14,14 0 0 1 -14,-14 v0 A14,14 0 0 1 406.101,222.101"/><g mask="url(#satori_om-id)" clip-path="url(#satori_cp-id)"><path fill="#a78bfa" d="M424.0 237L418.0 237L418.0 236.1L421.1 232.7Q421.6 232.2 422.0 231.7Q422.3 231.3 422.5 230.9Q422.7 230.5 422.7 230.1L422.7 230.1Q422.7 229.6 422.5 229.2Q422.2 228.8 421.8 228.7Q421.4 228.5 420.9 228.5L420.9 228.5Q420.4 228.5 420.0 228.7Q419.6 228.9 419.4 229.3Q419.2 229.7 419.2 230.2L419.2 230.2L418.0 230.2Q418.0 229.4 418.4 228.8Q418.8 228.1 419.4 227.8Q420.1 227.4 421.0 227.4L421.0 227.4Q421.8 227.4 422.4 227.8Q423.1 228.1 423.5 228.7Q423.8 229.3 423.8 230.1L423.8 230.1Q423.8 230.6 423.7 231.1Q423.5 231.5 423.0 232.2Q422.5 232.8 421.7 233.7L421.7 233.7L419.6 235.9L419.6 235.9L424.0 235.9L424.0 237Z M431.6 237.2L431.6 237.2Q430.9 237.2 430.4 236.9Q429.8 236.7 429.5 236.2Q429.2 235.7 429.2 235.0L429.2 235.0Q429.2 234.4 429.4 234.0Q429.6 233.6 430.0 233.4Q430.4 233.2 430.9 233.1Q431.4 233.0 431.9 232.9L431.9 232.9Q432.6 232.8 433.0 232.8Q433.4 232.7 433.5 232.6Q433.7 232.5 433.7 232.2L433.7 232.2L433.7 232.2Q433.7 231.8 433.6 231.5Q433.4 231.1 433.1 231.0Q432.7 230.8 432.3 230.8L432.3 230.8Q431.7 230.8 431.4 231.0Q431.0 231.1 430.8 231.4Q430.6 231.6 430.5 231.9L430.5 231.9L429.4 231.5Q429.6 230.8 430.1 230.5Q430.6 230.1 431.1 230.0Q431.7 229.8 432.2 229.8L432.2 229.8Q432.6 229.8 433.0 229.9Q433.5 230.0 433.9 230.2Q434.3 230.5 434.6 231.0Q434.9 231.5 434.9 232.3L434.9 232.3L434.9 237L433.8 237L433.8 236.0L433.7 236.0Q433.6 236.3 433.3 236.5Q433.0 236.8 432.6 237.0Q432.2 237.2 431.6 237.2ZM431.8 236.2L431.8 236.2Q432.4 236.2 432.8 235.9Q433.3 235.7 433.5 235.3Q433.7 234.9 433.7 234.4L433.7 234.4L433.7 233.5Q433.7 233.5 433.4 233.6Q433.2 233.7 432.9 233.7Q432.6 233.8 432.3 233.8Q432.0 233.8 431.9 233.9L431.9 233.9Q431.5 233.9 431.1 234.0Q430.7 234.2 430.5 234.4Q430.3 234.6 430.3 235.0L430.3 235.0Q430.3 235.4 430.5 235.7Q430.7 235.9 431.0 236.0Q431.3 236.2 431.8 236.2ZM438.0 232.7L438.0 232.7L438.0 237L436.9 237L436.9 229.9L438.0 229.9L438.0 231.2Q438.3 230.6 438.8 230.2L438.8 230.2Q439.4 229.8 440.2 229.8L440.2 229.8Q440.9 229.8 441.4 230.1Q442.0 230.4 442.3 231.0Q442.6 231.6 442.6 232.5L442.6 232.5L442.6 237L441.4 237L441.4 232.6Q441.4 231.8 441.0 231.3Q440.6 230.8 439.8 230.8L439.8 230.8Q439.3 230.8 438.9 231.1Q438.5 231.3 438.3 231.7Q438.0 232.1 438.0 232.7ZM447.0 237.2L447.0 237.2Q446.3 237.2 445.7 236.9Q445.1 236.7 444.7 236.3Q444.4 235.9 444.3 235.3L444.3 235.3L445.3 235.0Q445.5 235.6 445.9 235.9Q446.3 236.1 447.0 236.1L447.0 236.1Q447.7 236.1 448.2 235.8Q448.6 235.5 448.6 235.1L448.6 235.1Q448.6 234.7 448.3 234.5Q448.1 234.2 447.6 234.1L447.6 234.1L446.4 233.8Q445.4 233.6 444.9 233.1Q444.5 232.6 444.5 231.9L444.5 231.9Q444.5 231.3 444.8 230.8Q445.2 230.3 445.7 230.1Q446.3 229.8 447.1 229.8L447.1 229.8Q447.8 229.8 448.3 230.0Q448.8 230.3 449.2 230.6Q449.5 231.0 449.6 231.5L449.6 231.5L448.6 231.8Q448.5 231.4 448.1 231.1Q447.8 230.8 447.1 230.8L447.1 230.8Q446.5 230.8 446.0 231.1Q445.6 231.4 445.6 231.8L445.6 231.8Q445.6 232.2 445.9 232.4Q446.2 232.7 446.8 232.8L446.8 232.8L447.9 233.1Q448.9 233.3 449.3 233.8Q449.8 234.3 449.8 235.0L449.8 235.0Q449.8 235.6 449.4 236.1Q449.1 236.6 448.4 236.9Q447.8 237.2 447.0 237.2Z M456.7 229.9L458.4 229.9L458.4 230.9L456.7 230.9L456.7 237L455.6 237L455.6 230.9L454.2 230.9L454.2 229.9L455.6 229.9L455.6 229.0Q455.6 228.3 455.9 227.9Q456.2 227.5 456.6 227.3Q457.1 227.1 457.6 227.1L457.6 227.1Q458.0 227.1 458.3 227.2Q458.6 227.2 458.7 227.3L458.7 227.3L458.4 228.3Q458.3 228.2 458.1 228.2Q458.0 228.2 457.8 228.2L457.8 228.2Q457.2 228.2 457.0 228.4Q456.7 228.7 456.7 229.2L456.7 229.2L456.7 229.9ZM461.0 237L459.9 237L459.9 229.9L461.0 229.9L461.0 231.0L461.1 231.0Q461.3 230.5 461.8 230.1Q462.3 229.8 462.9 229.8L462.9 229.8Q463.0 229.8 463.2 229.8Q463.4 229.8 463.5 229.8L463.5 229.8L463.5 231.0Q463.4 231.0 463.2 230.9Q463.0 230.9 462.8 230.9L462.8 230.9Q462.3 230.9 461.9 231.1Q461.5 231.3 461.3 231.7Q461.0 232.1 461.0 232.6L461.0 232.6L461.0 237ZM467.8 237.2L467.8 237.2Q466.7 237.2 466.0 236.7Q465.3 236.2 464.9 235.4Q464.4 234.6 464.4 233.5Q464.4 232.4 464.8 231.6Q465.2 230.8 466.0 230.3Q466.7 229.8 467.6 229.8L467.6 229.8Q468.2 229.8 468.8 230.0Q469.3 230.2 469.8 230.6Q470.2 231.0 470.5 231.7Q470.7 232.4 470.7 233.4L470.7 233.4L470.7 233.8L465.6 233.8Q465.6 234.5 465.9 235.0L465.9 235.0Q466.1 235.6 466.6 235.9Q467.1 236.1 467.8 236.1L467.8 236.1Q468.2 236.1 468.5 236.0Q468.9 235.9 469.1 235.7Q469.4 235.4 469.5 235.0L469.5 235.0L470.6 235.3Q470.5 235.9 470.1 236.3Q469.7 236.7 469.1 236.9Q468.5 237.2 467.8 237.2ZM465.6 232.9L465.6 232.9L469.6 232.9Q469.5 232.4 469.4 232.0L469.4 232.0Q469.1 231.4 468.7 231.1Q468.3 230.8 467.6 230.8Q467.0 230.8 466.5 231.1Q466.1 231.5 465.8 232.0L465.8 232.0Q465.6 232.4 465.6 232.9ZM475.4 237.2L475.4 237.2Q474.3 237.2 473.6 236.7Q472.8 236.2 472.4 235.4Q472.0 234.6 472.0 233.5Q472.0 232.4 472.4 231.6Q472.8 230.8 473.5 230.3Q474.3 229.8 475.2 229.8L475.2 229.8Q475.8 229.8 476.3 230.0Q476.9 230.2 477.3 230.6Q477.8 231.0 478.0 231.7Q478.3 232.4 478.3 233.4L478.3 233.4L478.3 233.8L473.2 233.8Q473.2 234.5 473.5 235.0L473.5 235.0Q473.7 235.6 474.2 235.9Q474.7 236.1 475.4 236.1L475.4 236.1Q475.8 236.1 476.1 236.0Q476.5 235.9 476.7 235.7Q477.0 235.4 477.1 235.0L477.1 235.0L478.2 235.3Q478.0 235.9 477.6 236.3Q477.2 236.7 476.7 236.9Q476.1 237.2 475.4 237.2ZM473.2 232.9L473.2 232.9L477.2 232.9Q477.1 232.4 476.9 232.0L476.9 232.0Q476.7 231.4 476.3 231.1Q475.9 230.8 475.2 230.8Q474.6 230.8 474.1 231.1Q473.7 231.5 473.4 232.0L473.4 232.0Q473.2 232.4 473.2 232.9ZM479.9 227.5L481.1 227.5L481.1 237L479.9 237L479.9 227.5ZM485.1 237.2L485.1 237.2Q484.4 237.2 483.9 236.9Q483.3 236.7 483.0 236.2Q482.7 235.7 482.7 235.0L482.7 235.0Q482.7 234.4 482.9 234.0Q483.1 233.6 483.6 233.4Q484.0 233.2 484.4 233.1Q484.9 233.0 485.4 232.9L485.4 232.9Q486.1 232.8 486.5 232.8Q486.9 232.7 487.1 232.6Q487.2 232.5 487.2 232.2L487.2 232.2L487.2 232.2Q487.2 231.8 487.1 231.5Q486.9 231.1 486.6 231.0Q486.3 230.8 485.8 230.8L485.8 230.8Q485.3 230.8 484.9 231.0Q484.5 231.1 484.3 231.4Q484.1 231.6 484.0 231.9L484.0 231.9L482.9 231.5Q483.1 230.8 483.6 230.5Q484.1 230.1 484.6 230.0Q485.2 229.8 485.7 229.8L485.7 229.8Q486.1 229.8 486.5 229.9Q487.0 230.0 487.4 230.2Q487.8 230.5 488.1 231.0Q488.4 231.5 488.4 232.3L488.4 232.3L488.4 237L487.3 237L487.3 236.0L487.2 236.0Q487.1 236.3 486.8 236.5Q486.5 236.8 486.1 237.0Q485.7 237.2 485.1 237.2ZM485.3 236.2L485.3 236.2Q485.9 236.2 486.4 235.9Q486.8 235.7 487.0 235.3Q487.2 234.9 487.2 234.4L487.2 234.4L487.2 233.5Q487.2 233.5 486.9 233.6Q486.7 233.7 486.4 233.7Q486.1 233.8 485.8 233.8Q485.5 233.8 485.4 233.9L485.4 233.9Q485.0 233.9 484.6 234.0Q484.2 234.2 484.0 234.4Q483.8 234.6 483.8 235.0L483.8 235.0Q483.8 235.4 484.0 235.7Q484.2 235.9 484.5 236.0Q484.9 236.2 485.3 236.2ZM491.5 232.7L491.5 232.7L491.5 237L490.4 237L490.4 229.9L491.5 229.9L491.5 231.2Q491.8 230.6 492.3 230.2L492.3 230.2Q492.9 229.8 493.7 229.8L493.7 229.8Q494.4 229.8 494.9 230.1Q495.5 230.4 495.8 231.0Q496.1 231.6 496.1 232.5L496.1 232.5L496.1 237L494.9 237L494.9 232.6Q494.9 231.8 494.5 231.3Q494.1 230.8 493.3 230.8L493.3 230.8Q492.8 230.8 492.4 231.1Q492.0 231.3 491.8 231.7Q491.5 232.1 491.5 232.7ZM501.0 237.2L501.0 237.2Q500.0 237.2 499.3 236.7Q498.5 236.2 498.1 235.4Q497.7 234.6 497.7 233.5L497.7 233.5Q497.7 232.4 498.1 231.6Q498.5 230.7 499.3 230.3Q500.0 229.8 501.0 229.8L501.0 229.8Q501.5 229.8 501.9 229.9Q502.4 230.1 502.8 230.3Q503.2 230.6 503.4 230.9Q503.7 231.3 503.8 231.8L503.8 231.8L502.7 232.1Q502.7 231.8 502.5 231.6Q502.4 231.4 502.1 231.2Q501.9 231.0 501.6 230.9Q501.3 230.8 501.0 230.8L501.0 230.8Q500.3 230.8 499.8 231.2Q499.3 231.6 499.1 232.2Q498.9 232.8 498.9 233.5L498.9 233.5Q498.9 234.2 499.1 234.8Q499.3 235.4 499.8 235.8Q500.3 236.1 501.0 236.1L501.0 236.1Q501.3 236.1 501.6 236.0Q501.9 235.9 502.2 235.8Q502.4 235.6 502.5 235.3Q502.7 235.1 502.8 234.8L502.8 234.8L503.9 235.1Q503.7 235.6 503.5 236.0Q503.2 236.4 502.8 236.6Q502.4 236.9 502.0 237.0Q501.5 237.2 501.0 237.2ZM508.5 237.2L508.5 237.2Q507.5 237.2 506.7 236.7Q506.0 236.2 505.6 235.4Q505.2 234.6 505.2 233.5Q505.2 232.4 505.6 231.6Q505.9 230.8 506.7 230.3Q507.4 229.8 508.4 229.8L508.4 229.8Q508.9 229.8 509.5 230.0Q510.0 230.2 510.5 230.6Q510.9 231.0 511.2 231.7Q511.4 232.4 511.4 233.4L511.4 233.4L511.4 233.8L506.3 233.8Q506.3 234.5 506.6 235.0L506.6 235.0Q506.9 235.6 507.4 235.9Q507.8 236.1 508.5 236.1L508.5 236.1Q508.9 236.1 509.3 236.0Q509.6 235.9 509.8 235.7Q510.1 235.4 510.2 235.0L510.2 235.0L511.3 235.3Q511.2 235.9 510.8 236.3Q510.4 236.7 509.8 236.9Q509.2 237.2 508.5 237.2ZM506.3 232.9L506.3 232.9L510.3 232.9Q510.2 232.4 510.1 232.0L510.1 232.0Q509.9 231.4 509.4 231.1Q509.0 230.8 508.4 230.8Q507.7 230.8 507.3 231.1Q506.8 231.5 506.6 232.0L506.6 232.0Q506.4 232.4 506.3 232.9Z "/></g><defs><clipPath id="satori_bc-id-1-2-2" clip-path="url(#satori_cp-id)"><path x="538" y="218" width="103" height="28" d="M552,218 h75 a14,14 0 0 1 14,14 v0 a14,14 0 0 1 -14,14 h-75 a14,14 0 0 1 -14,-14 v0 a14,14 0 0 1 14,-14"/></clipPath></defs><mask id="satori_om-id-1-2-2"><rect x="539" y="219" width="101" height="26" fill="#fff" mask="url(#satori_om-id)"/><path width="103" height="28" fill="none" stroke="#000" stroke-width="2" d="M542.101,222.101 A14,14 0 0 1 552,218 h75 a14,14 0 0 1 14,14 v0 a14,14 0 0 1 -14,14 h-75 a14,14 0 0 1 -14,-14 v0 A14,14 0 0 1 542.101,222.101"/></mask><path width="103" height="28" clip-path="url(#satori_bc-id-1-2-2)" fill="none" stroke="#f472b655" stroke-width="2" d="M542.101,222.101 A14,14 0 0 1 552,218 h75 a14,14 0 0 1 14,14 v0 a14,14 0 0 1 -14,14 h-75 a14,14 0 0 1 -14,-14 v0 A14,14 0 0 1 542.101,222.101"/><g mask="url(#satori_om-id)" clip-path="url(#satori_cp-id)"><path fill="#f472b6" d="M556.9 237.2L556.9 237.2Q555.9 237.2 555.2 236.7Q554.5 236.2 554.1 235.4Q553.7 234.6 553.7 233.5L553.7 233.5Q553.7 232.4 554.1 231.6Q554.5 230.7 555.2 230.3Q555.9 229.8 556.9 229.8L556.9 229.8Q557.9 229.8 558.6 230.3Q559.3 230.7 559.7 231.6Q560.1 232.4 560.1 233.5L560.1 233.5Q560.1 234.6 559.7 235.4Q559.3 236.2 558.6 236.7Q557.9 237.2 556.9 237.2ZM556.9 236.1L556.9 236.1Q557.6 236.1 558.1 235.8Q558.5 235.4 558.8 234.8Q559.0 234.2 559.0 233.5L559.0 233.5Q559.0 232.8 558.8 232.2Q558.5 231.6 558.1 231.2Q557.6 230.8 556.9 230.8L556.9 230.8Q556.2 230.8 555.7 231.2Q555.3 231.6 555.0 232.2Q554.8 232.8 554.8 233.5L554.8 233.5Q554.8 234.2 555.0 234.8Q555.3 235.4 555.7 235.8Q556.2 236.1 556.9 236.1ZM562.9 239.7L561.8 239.7L561.8 229.9L562.9 229.9L562.9 231.0L563.0 231.0Q563.1 230.8 563.4 230.6Q563.6 230.3 564.0 230.0Q564.4 229.8 565.1 229.8L565.1 229.8Q566.0 229.8 566.7 230.3Q567.3 230.7 567.7 231.5Q568.1 232.3 568.1 233.5L568.1 233.5Q568.1 234.6 567.7 235.4Q567.3 236.3 566.7 236.7Q566.0 237.2 565.1 237.2L565.1 237.2Q564.4 237.2 564.0 236.9Q563.6 236.7 563.4 236.4Q563.1 236.1 563.0 235.9L563.0 235.9L562.9 235.9L562.9 239.7ZM564.9 236.1L564.9 236.1Q565.6 236.1 566.0 235.8Q566.5 235.4 566.7 234.8Q566.9 234.2 566.9 233.5L566.9 233.5Q566.9 232.7 566.7 232.1Q566.5 231.5 566.0 231.2Q565.6 230.8 564.9 230.8L564.9 230.8Q564.3 230.8 563.8 231.2Q563.4 231.5 563.2 232.1Q562.9 232.7 562.9 233.5L562.9 233.5Q562.9 234.2 563.2 234.8Q563.4 235.5 563.8 235.8Q564.3 236.1 564.9 236.1ZM572.7 237.2L572.7 237.2Q571.7 237.2 571.0 236.7Q570.2 236.2 569.8 235.4Q569.4 234.6 569.4 233.5Q569.4 232.4 569.8 231.6Q570.2 230.8 570.9 230.3Q571.6 229.8 572.6 229.8L572.6 229.8Q573.2 229.8 573.7 230.0Q574.3 230.2 574.7 230.6Q575.2 231.0 575.4 231.7Q575.7 232.4 575.7 233.4L575.7 233.4L575.7 233.8L570.6 233.8Q570.6 234.5 570.8 235.0L570.8 235.0Q571.1 235.6 571.6 235.9Q572.1 236.1 572.7 236.1L572.7 236.1Q573.2 236.1 573.5 236.0Q573.9 235.9 574.1 235.7Q574.3 235.4 574.5 235.0L574.5 235.0L575.6 235.3Q575.4 235.9 575.0 236.3Q574.6 236.7 574.1 236.9Q573.5 237.2 572.7 237.2ZM570.6 232.9L570.6 232.9L574.5 232.9Q574.5 232.4 574.3 232.0L574.3 232.0Q574.1 231.4 573.7 231.1Q573.2 230.8 572.6 230.8Q572.0 230.8 571.5 231.1Q571.1 231.5 570.8 232.0L570.8 232.0Q570.6 232.4 570.6 232.9ZM578.5 232.7L578.5 232.7L578.5 237L577.3 237L577.3 229.9L578.4 229.9L578.4 231.2Q578.7 230.6 579.2 230.2L579.2 230.2Q579.8 229.8 580.6 229.8L580.6 229.8Q581.3 229.8 581.9 230.1Q582.4 230.4 582.7 231.0Q583.0 231.6 583.0 232.5L583.0 232.5L583.0 237L581.9 237L581.9 232.6Q581.9 231.8 581.4 231.3Q581.0 230.8 580.3 230.8L580.3 230.8Q579.8 230.8 579.4 231.1Q578.9 231.3 578.7 231.7Q578.5 232.1 578.5 232.7Z M590.0 229.9L591.5 229.9L591.5 230.9L590.0 230.9L590.0 235.2Q590.0 235.6 590.2 235.9Q590.4 236.1 590.8 236.1L590.8 236.1Q591.0 236.1 591.1 236.0Q591.3 236.0 591.4 236.0L591.4 236.0L591.7 237.0Q591.5 237.0 591.3 237.1Q591.0 237.1 590.8 237.1L590.8 237.1Q589.9 237.1 589.4 236.6Q588.9 236.1 588.9 235.2L588.9 235.2L588.9 230.9L587.8 230.9L587.8 229.9L588.9 229.9L588.9 228.2L590.0 228.2L590.0 229.9ZM595.8 237.2L595.8 237.2Q594.9 237.2 594.1 236.7Q593.4 236.2 593.0 235.4Q592.6 234.6 592.6 233.5L592.6 233.5Q592.6 232.4 593.0 231.6Q593.4 230.7 594.1 230.3Q594.9 229.8 595.8 229.8L595.8 229.8Q596.8 229.8 597.5 230.3Q598.2 230.7 598.7 231.6Q599.1 232.4 599.1 233.5L599.1 233.5Q599.1 234.6 598.7 235.4Q598.2 236.2 597.5 236.7Q596.8 237.2 595.8 237.2ZM595.8 236.1L595.8 236.1Q596.5 236.1 597.0 235.8Q597.5 235.4 597.7 234.8Q597.9 234.2 597.9 233.5L597.9 233.5Q597.9 232.8 597.7 232.2Q597.5 231.6 597.0 231.2Q596.5 230.8 595.8 230.8L595.8 230.8Q595.1 230.8 594.6 231.2Q594.2 231.6 594.0 232.2Q593.7 232.8 593.7 233.5L593.7 233.5Q593.7 234.2 594.0 234.8Q594.2 235.4 594.6 235.8Q595.1 236.1 595.8 236.1Z M608.3 237.1L608.3 237.1Q607.1 237.1 606.2 236.5Q605.2 236.0 604.7 234.9Q604.1 233.8 604.1 232.3L604.1 232.3Q604.1 230.8 604.7 229.7Q605.2 228.6 606.2 228.0Q607.1 227.4 608.3 227.4L608.3 227.4Q609.1 227.4 609.7 227.6Q610.3 227.8 610.8 228.2Q611.4 228.6 611.7 229.2Q612.0 229.8 612.2 230.5L612.2 230.5L611.0 230.5Q610.9 230.0 610.6 229.7Q610.4 229.3 610.0 229.0Q609.7 228.8 609.2 228.7Q608.8 228.5 608.3 228.5L608.3 228.5Q607.5 228.5 606.8 229.0Q606.1 229.4 605.7 230.2Q605.3 231.1 605.3 232.3L605.3 232.3Q605.3 233.5 605.7 234.3Q606.1 235.2 606.8 235.6Q607.5 236.0 608.3 236.0L608.3 236.0Q608.8 236.0 609.2 235.9Q609.7 235.7 610.0 235.5Q610.4 235.2 610.6 234.9Q610.9 234.5 611.0 234.0L611.0 234.0L612.2 234.0Q612.0 234.7 611.7 235.3Q611.4 235.9 610.9 236.3Q610.3 236.7 609.7 236.9Q609.1 237.1 608.3 237.1ZM617.0 237L617.0 237L614.0 237L614.0 227.5L617.1 227.5Q618.5 227.5 619.5 228.1Q620.4 228.7 621.0 229.7Q621.5 230.8 621.5 232.3L621.5 232.3Q621.5 233.7 621.0 234.8Q620.4 235.9 619.4 236.4Q618.4 237 617.0 237ZM615.2 228.6L615.2 235.9L616.9 235.9Q618.0 235.9 618.8 235.5Q619.6 235.1 619.9 234.2Q620.3 233.4 620.3 232.3L620.3 232.3Q620.3 231.1 619.9 230.3Q619.6 229.5 618.8 229.0Q618.1 228.6 617.0 228.6L617.0 228.6L615.2 228.6ZM623.4 227.5L624.6 227.5L624.6 237L623.4 237L623.4 227.5Z "/></g></svg>