<!-- Generated by readme-aura https://github.com/collectioneur/readme-aura -->
<svg width="900" height="150" viewBox="0 0 900 150" xmlns="http://www.w3.org/2000/svg"><clipPath id="satori_cp-id"><path x="0" y="0" width="900" height="150" d="M16,0 h868 a16,16 0 0 1 16,16 v118 a16,16 0 0 1 -16,16 h-868 a16,16 0 0 1 -16,-16 v-118 a16,16 0 0 1 16,-16"/></clipPath><mask id="satori_om-id"><rect x="0" y="0" width="900" height="150" fill="#fff"/></mask><path x="0" y="0" width="900" height="150" fill="#0a0c14" d="M16,0 h868 a16,16 0 0 1 16,16 v118 a16,16 0 0 1 -16,16 h-868 a16,16 0 0 1 -16,-16 v-118 a16,16 0 0 1 16,-16"/><clipPath id="satori_cp-id-0" clip-path="url(#satori_cp-id)"><rect x="0" y="0" width="900" height="150"/></clipPath><mask id="satori_om-id-0"><rect x="0" y="0" width="900" height="150" fill="#fff" mask="url(#satori_om-id)"/></mask><svg x="0" y="0" width="900" height="150" preserveAspectRatio="none" clip-path="url(#satori_cp-id-0)" mask="url(#satori_om-id-0)"><radialGradient id="ng" cx="85%" cy="50%" r="60%"><stop offset="0%" stop-color="#22d3ee" stop-opacity="0.18"></stop><stop offset="100%" stop-color="#0a0c14" stop-opacity="0"></stop></radialGradient><rect x="0" y="0" width="900" height="150" fill="url(#ng)"><animate attributeName="opacity" values="0.6;1;0.6" dur="4s" repeatCount="indefinite"></animate></rect></svg><mask id="satori_om-id-0-0"><rect x="0" y="0" width="0" height="150" fill="#fff" mask="url(#satori_om-id)"/></mask><mask id="satori_om-id-0-0-0"><rect x="0" y="0" width="0" height="150" fill="#fff" mask="url(#satori_om-id)"/></mask><mask id="satori_om-id-0-0-1"><rect x="0" y="0" width="0" height="150" fill="#fff" mask="url(#satori_om-id)"/></mask><mask id="satori_om-id-0-1"><rect x="0" y="0" width="0" height="150" fill="#fff" mask="url(#satori_om-id)"/></mask><mask id="satori_om-id-0-1-0"><rect x="0" y="0" width="0" height="150" fill="#fff" mask="url(#satori_om-id)"/></mask><mask id="satori_om-id-1"><rect x="28" y="22" width="844" height="106" fill="#fff" mask="url(#satori_om-id)"/></mask><mask id="satori_om-id-1-0"><rect x="28" y="22" width="844" height="18" fill="#fff" mask="url(#satori_om-id)"/></mask><mask id="satori_om-id-1-0-0"><rect x="28" y="27" width="9" height="9" fill="#fff" mask="url(#satori_om-id)"/></mask><path x="28" y="27" width="9" height="9" fill="#34d399" d="M32.5,27 h0 a4.5,4.5 0 0 1 4.5,4.5 v0 a4.5,4.5 0 0 1 -4.5,4.5 h0 a4.5,4.5 0 0 1 -4.5,-4.5 v0 a4.5,4.5 0 0 1 4.5,-4.5" clip-path="url(#satori_cp-id)" mask="url(#satori_om-id)"/><mask id="satori_om-id-1-0-0-0"><rect x="28" y="27" width="0" height="9" fill="#fff" mask="url(#satori_om-id)"/></mask><mask id="satori_om-id-1-0-1"><rect x="47" y="23" width="181" height="16" fill="#fff" mask="url(#satori_om-id)"/></mask><g mask="url(#satori_om-id)" clip-path="url(#satori_cp-id)"><path fill="#34d399" d="M52.0 36.1L52.0 36.1Q50.7 36.1 49.7 35.6Q48.7 35.0 48.2 33.9Q47.6 32.8 47.6 31.3L47.6 31.3Q47.6 29.7 48.2 28.6Q48.8 27.6 49.7 27.0Q50.7 26.4 52.0 26.4L52.0 26.4Q52.8 26.4 53.5 26.6Q54.2 26.9 54.7 27.3Q55.3 27.7 55.6 28.4Q56.0 29.0 56.1 29.8L56.1 29.8L54.1 29.8Q54.0 29.4 53.9 29.1Q53.7 28.8 53.4 28.6Q53.1 28.4 52.8 28.2Q52.4 28.1 52.0 28.1L52.0 28.1Q51.3 28.1 50.7 28.5Q50.2 28.9 49.9 29.6Q49.6 30.3 49.6 31.3L49.6 31.3Q49.6 32.3 49.9 33.0Q50.2 33.7 50.7 34.1Q51.3 34.4 52.0 34.4L52.0 34.4Q52.4 34.4 52.8 34.3Q53.1 34.2 53.4 34.0Q53.7 33.8 53.9 33.5Q54.0 33.1 54.1 32.8L54.1 32.8L56.1 32.8Q56.0 33.4 55.7 34.0Q55.4 34.6 54.8 35.1Q54.3 35.6 53.6 35.9Q52.9 36.1 52.0 36.1ZM63.4 36.1L63.4 36.1Q62.2 36.1 61.3 35.7Q60.4 35.3 60.0 34.5Q59.5 33.7 59.5 32.7L59.5 32.7L59.5 26.5L61.4 26.5L61.4 32.5Q61.4 33.1 61.7 33.5Q61.9 33.9 62.3 34.2Q62.8 34.4 63.4 34.4L63.4 34.4Q64.0 34.4 64.4 34.2Q64.9 33.9 65.1 33.5Q65.3 33.1 65.3 32.5L65.3 32.5L65.3 26.5L67.3 26.5L67.3 32.7Q67.3 33.7 66.8 34.5Q66.3 35.3 65.4 35.7Q64.5 36.1 63.4 36.1ZM72.9 36L71.0 36L71.0 26.5L74.7 26.5Q75.8 26.5 76.5 26.9Q77.3 27.3 77.7 28.0Q78.1 28.7 78.1 29.6Q78.1 30.6 77.7 31.2Q77.3 31.9 76.5 32.3L76.5 32.3Q76.4 32.3 76.4 32.3L76.4 32.3L78.4 36L76.3 36L74.4 32.6L72.9 32.6L72.9 36ZM72.9 28.1L72.9 31.1L74.3 31.1Q74.9 31.1 75.3 30.9Q75.7 30.7 75.9 30.4Q76.1 30.1 76.1 29.6L76.1 29.6Q76.1 29.1 75.9 28.8Q75.7 28.5 75.3 28.3Q74.9 28.1 74.3 28.1L74.3 28.1L72.9 28.1ZM83.5 36L81.5 36L81.5 26.5L85.2 26.5Q86.3 26.5 87.0 26.9Q87.8 27.3 88.2 28.0Q88.6 28.7 88.6 29.6Q88.6 30.6 88.2 31.2Q87.8 31.9 87.0 32.3L87.0 32.3Q87.0 32.3 86.9 32.3L86.9 32.3L88.9 36L86.8 36L85.0 32.6L83.5 32.6L83.5 36ZM83.5 28.1L83.5 31.1L84.9 31.1Q85.5 31.1 85.8 30.9Q86.2 30.7 86.4 30.4Q86.6 30.1 86.6 29.6L86.6 29.6Q86.6 29.1 86.4 28.8Q86.2 28.5 85.8 28.3Q85.4 28.1 84.9 28.1L84.9 28.1L83.5 28.1ZM98.4 36L92.1 36L92.1 26.5L98.4 26.5L98.4 28.1L94 28.1L94 30.4L98.1 30.4L98.1 32.0L94 32.0L94 34.4L98.4 34.4L98.4 36ZM103.9 36L102.0 36L102.0 26.5L104.1 26.5L107.1 31.3Q107.3 31.7 107.6 32.1Q107.8 32.6 108.1 33.1L108.1 33.1Q108.2 33.3 108.3 33.6L108.3 33.6Q108.3 33.4 108.3 33.1L108.3 33.1Q108.2 32.6 108.2 32.0Q108.2 31.5 108.2 31.1L108.2 31.1L108.2 26.5L110.2 26.5L110.2 36L108.0 36L105.3 31.7Q105.0 31.2 104.7 30.7Q104.5 30.2 104.2 29.7L104.2 29.7Q104.0 29.4 103.8 28.9L103.8 28.9Q103.8 29.3 103.9 29.7L103.9 29.7Q103.9 30.3 103.9 30.8Q103.9 31.3 103.9 31.7L103.9 31.7L103.9 36ZM116.4 28.1L113.5 28.1L113.5 26.5L121.2 26.5L121.2 28.1L118.3 28.1L118.3 36L116.4 36L116.4 28.1ZM130.6 36L124.5 36L124.5 26.5L126.5 26.5L126.5 34.4L130.6 34.4L130.6 36ZM138.8 36L136.9 36L136.9 32.4L133.4 26.5L135.6 26.5L137.2 29.5Q137.5 29.9 137.7 30.4L137.7 30.4Q137.7 30.6 137.8 30.8L137.8 30.8Q137.9 30.6 138.0 30.4L138.0 30.4Q138.2 29.9 138.4 29.5L138.4 29.5L140.0 26.5L142.2 26.5L138.8 32.4L138.8 36Z M154.5 36L150.5 36L150.5 26.5L154.2 26.5Q155.3 26.5 156.0 26.9Q156.7 27.2 157.0 27.7Q157.4 28.3 157.4 29.0L157.4 29.0Q157.4 29.5 157.1 29.9Q156.9 30.4 156.5 30.6Q156.1 30.9 155.7 31.0L155.7 31.0L155.7 31.1Q156.2 31.1 156.7 31.4Q157.1 31.7 157.4 32.2Q157.7 32.7 157.7 33.4L157.7 33.4Q157.7 34.1 157.4 34.7Q157.0 35.3 156.3 35.7Q155.5 36 154.5 36L154.5 36ZM152.4 31.8L152.4 34.4L154.1 34.4Q154.9 34.4 155.3 34.1Q155.7 33.7 155.7 33.2L155.7 33.2Q155.7 32.8 155.5 32.5Q155.3 32.2 155.0 32.0Q154.6 31.8 154.1 31.8L154.1 31.8L152.4 31.8ZM152.4 28.1L152.4 30.5L153.9 30.5Q154.4 30.5 154.7 30.4Q155.0 30.2 155.2 29.9Q155.4 29.7 155.4 29.3L155.4 29.3Q155.4 28.8 155.0 28.4Q154.7 28.1 154.0 28.1L154.0 28.1L152.4 28.1ZM165.0 36.1L165.0 36.1Q163.8 36.1 162.9 35.7Q162.1 35.3 161.6 34.5Q161.1 33.7 161.1 32.7L161.1 32.7L161.1 26.5L163.0 26.5L163.0 32.5Q163.0 33.1 163.3 33.5Q163.5 33.9 163.9 34.2Q164.4 34.4 165.0 34.4L165.0 34.4Q165.6 34.4 166.0 34.2Q166.5 33.9 166.7 33.5Q166.9 33.1 166.9 32.5L166.9 32.5L166.9 26.5L168.9 26.5L168.9 32.7Q168.9 33.7 168.4 34.5Q167.9 35.3 167.0 35.7Q166.2 36.1 165.0 36.1ZM172.6 26.5L174.5 26.5L174.5 36L172.6 36L172.6 26.5ZM184.3 36L178.2 36L178.2 26.5L180.2 26.5L180.2 34.4L184.3 34.4L184.3 36ZM190.9 36L190.9 36L187.6 36L187.6 26.5L191.0 26.5Q192.4 26.5 193.4 27.1Q194.4 27.7 195.0 28.7Q195.5 29.8 195.5 31.3L195.5 31.3Q195.5 32.7 195.0 33.8Q194.4 34.9 193.4 35.4Q192.4 36 190.9 36ZM189.5 28.2L189.5 34.3L190.8 34.3Q191.7 34.3 192.4 34.0Q193.0 33.7 193.3 33.0Q193.6 32.3 193.6 31.3L193.6 31.3Q193.6 30.2 193.3 29.5Q193.0 28.9 192.4 28.5Q191.7 28.2 190.8 28.2L190.8 28.2L189.5 28.2ZM199.0 26.5L200.9 26.5L200.9 36L199.0 36L199.0 26.5ZM206.6 36L204.6 36L204.6 26.5L206.8 26.5L209.8 31.3Q210.0 31.7 210.2 32.1Q210.5 32.6 210.7 33.1L210.7 33.1Q210.8 33.3 211.0 33.6L211.0 33.6Q210.9 33.4 210.9 33.1L210.9 33.1Q210.9 32.6 210.9 32.0Q210.8 31.5 210.8 31.1L210.8 31.1L210.8 26.5L212.8 26.5L212.8 36L210.7 36L207.9 31.7Q207.6 31.2 207.4 30.7Q207.1 30.2 206.9 29.7L206.9 29.7Q206.7 29.4 206.5 28.9L206.5 28.9Q206.5 29.3 206.5 29.7L206.5 29.7Q206.6 30.3 206.6 30.8Q206.6 31.3 206.6 31.7L206.6 31.7L206.6 36ZM220.7 36.1L220.7 36.1Q219.4 36.1 218.4 35.5Q217.4 35.0 216.8 33.9Q216.3 32.8 216.3 31.3L216.3 31.3Q216.3 29.7 216.9 28.7Q217.4 27.6 218.4 27.0Q219.4 26.4 220.7 26.4L220.7 26.4Q221.5 26.4 222.2 26.6Q222.9 26.9 223.4 27.3Q223.9 27.7 224.3 28.3Q224.6 28.9 224.7 29.6L224.7 29.6L222.7 29.6Q222.6 29.3 222.5 29.0Q222.3 28.7 222.0 28.5Q221.8 28.3 221.4 28.2Q221.1 28.1 220.7 28.1L220.7 28.1Q220.0 28.1 219.4 28.5Q218.9 28.9 218.6 29.6Q218.2 30.3 218.2 31.3Q218.2 32.3 218.6 33.0Q218.9 33.7 219.4 34.0Q220.0 34.4 220.7 34.4L220.7 34.4Q221.4 34.4 221.9 34.2Q222.4 33.9 222.7 33.4L222.7 33.4Q222.9 33.0 222.9 32.4L222.9 32.4L220.9 32.4L220.9 31.0L224.8 31.0L224.8 32.1Q224.8 33.4 224.3 34.3Q223.8 35.2 222.8 35.6Q221.9 36.1 220.7 36.1Z "/></g><mask id="satori_om-id-1-0-2"><rect x="238" y="22" width="39" height="18" fill="#fff" mask="url(#satori_om-id)"/></mask><g mask="url(#satori_om-id)" clip-path="url(#satori_cp-id)"><path fill="#f1f5f9" d="M241.2 37L239.0 37L239.0 26.1L241.2 26.1L241.2 29.1L241.2 31.5Q241.2 31.5 241.3 31.4L241.3 31.4Q241.6 30.9 242.0 30.3Q242.4 29.8 242.9 29.2L242.9 29.2L245.6 26.1L248.3 26.1L244.2 30.8L248.4 37L245.8 37L242.7 32.3L241.2 33.9L241.2 37ZM249.7 26.1L251.9 26.1L251.9 37L249.7 37L249.7 26.1ZM256.1 37.2L256.1 37.2Q255.3 37.2 254.7 36.9Q254.1 36.6 253.7 36.1Q253.4 35.5 253.4 34.7L253.4 34.7Q253.4 34.0 253.6 33.6Q253.9 33.1 254.3 32.8Q254.7 32.5 255.3 32.4Q255.8 32.3 256.4 32.2L256.4 32.2Q257.2 32.1 257.6 32.1Q258.0 32.0 258.2 31.9Q258.4 31.7 258.4 31.5L258.4 31.5L258.4 31.4Q258.4 31.1 258.3 30.8Q258.1 30.6 257.8 30.5Q257.6 30.3 257.1 30.3L257.1 30.3Q256.7 30.3 256.4 30.5Q256.1 30.6 255.9 30.8Q255.7 31.0 255.6 31.3L255.6 31.3L253.6 31.0Q253.8 30.2 254.3 29.7Q254.8 29.2 255.5 29.0Q256.2 28.7 257.2 28.7L257.2 28.7Q257.8 28.7 258.4 28.9Q259.1 29.0 259.6 29.4Q260.0 29.7 260.3 30.2Q260.6 30.7 260.6 31.5L260.6 31.5L260.6 37L258.5 37L258.5 35.9L258.5 35.9Q258.3 36.2 257.9 36.5Q257.6 36.8 257.1 37.0Q256.7 37.2 256.1 37.2ZM256.7 35.6L256.7 35.6Q257.2 35.6 257.6 35.4Q258.0 35.2 258.2 34.9Q258.4 34.5 258.4 34.1L258.4 34.1L258.4 33.2Q258.3 33.3 258.1 33.3Q258.0 33.4 257.7 33.4Q257.5 33.5 257.2 33.5Q257.0 33.5 256.8 33.6L256.8 33.6Q256.4 33.6 256.1 33.7Q255.8 33.9 255.6 34.1Q255.5 34.3 255.5 34.6L255.5 34.6Q255.5 35.0 255.6 35.2Q255.8 35.4 256.1 35.5Q256.3 35.6 256.7 35.6ZM264.7 37L262.5 37L262.5 28.8L264.6 28.8L264.6 30.2L264.7 30.2Q264.9 29.5 265.5 29.1Q266.0 28.7 266.7 28.7L266.7 28.7Q266.9 28.7 267.1 28.7Q267.3 28.7 267.4 28.8L267.4 28.8L267.4 30.7Q267.3 30.7 267.0 30.7Q266.7 30.6 266.4 30.6L266.4 30.6Q265.9 30.6 265.5 30.8Q265.1 31.1 264.9 31.4Q264.7 31.8 264.7 32.3L264.7 32.3L264.7 37ZM270.8 37L268.6 37L268.6 26.1L270.8 26.1L270.8 32.0L270.9 32.0L273.6 28.8L276.2 28.8L273.1 32.4L276.3 37L273.7 37L271.4 33.7L270.8 34.4L270.8 37Z "/></g><mask id="satori_om-id-1-0-3"><rect x="285" y="23" width="340" height="16" fill="#fff" mask="url(#satori_om-id)"/></mask><g mask="url(#satori_om-id)" clip-path="url(#satori_cp-id)"><path fill="#64748b" d="M285 31.4L298 31.4L298 32.5L285 32.5L285 31.4Z M305.8 36.2L305.8 36.2Q304.8 36.2 304.1 35.8Q303.3 35.5 302.9 34.9Q302.4 34.3 302.4 33.5L302.4 33.5L303.6 33.5Q303.7 34.1 304.0 34.4Q304.3 34.7 304.8 34.9Q305.3 35.1 305.8 35.1L305.8 35.1Q306.5 35.1 307.0 34.9Q307.5 34.7 307.8 34.3Q308.1 33.9 308.1 33.4L308.1 33.4Q308.1 32.9 307.8 32.7Q307.6 32.4 307.1 32.2Q306.7 32.0 306.2 31.9L306.2 31.9L305.1 31.5Q303.9 31.2 303.3 30.6Q302.7 30.0 302.7 29.1L302.7 29.1Q302.7 28.3 303.1 27.7Q303.5 27.1 304.3 26.7Q305.0 26.4 305.9 26.4L305.9 26.4Q306.8 26.4 307.6 26.7Q308.3 27.1 308.7 27.6Q309.1 28.2 309.1 28.9L309.1 28.9L308.0 28.9Q307.9 28.2 307.3 27.9Q306.7 27.5 305.9 27.5L305.9 27.5Q305.3 27.5 304.8 27.7Q304.3 27.9 304.1 28.2Q303.8 28.6 303.8 29.0L303.8 29.0Q303.8 29.5 304.1 29.8Q304.4 30.1 304.9 30.3Q305.3 30.5 305.6 30.5L305.6 30.5L306.6 30.8Q307.0 30.9 307.4 31.1Q307.9 31.3 308.3 31.6Q308.7 31.9 309.0 32.3Q309.3 32.8 309.3 33.4L309.3 33.4Q309.3 34.2 308.9 34.8Q308.5 35.4 307.7 35.8Q306.9 36.2 305.8 36.2ZM313.0 36.2L313.0 36.2Q312.3 36.2 311.8 35.9Q311.2 35.7 310.9 35.2Q310.6 34.7 310.6 34.0L310.6 34.0Q310.6 33.4 310.8 33.0Q311.1 32.6 311.5 32.4Q311.9 32.2 312.3 32.1Q312.8 32.0 313.3 31.9L313.3 31.9Q314.0 31.8 314.4 31.8Q314.8 31.7 315.0 31.6Q315.2 31.5 315.2 31.2L315.2 31.2L315.2 31.2Q315.2 30.8 315.0 30.5Q314.8 30.1 314.5 30.0Q314.2 29.8 313.7 29.8L313.7 29.8Q313.2 29.8 312.8 30.0Q312.4 30.1 312.2 30.4Q312.0 30.6 311.9 30.9L311.9 30.9L310.8 30.5Q311.0 29.8 311.5 29.5Q312.0 29.1 312.5 29.0Q313.1 28.8 313.6 28.8L313.6 28.8Q314.0 28.8 314.4 28.9Q314.9 29.0 315.3 29.2Q315.7 29.5 316.0 30.0Q316.3 30.5 316.3 31.3L316.3 31.3L316.3 36L315.2 36L315.2 35.0L315.1 35.0Q315.0 35.3 314.7 35.5Q314.4 35.8 314.0 36.0Q313.6 36.2 313.0 36.2ZM313.2 35.2L313.2 35.2Q313.8 35.2 314.3 34.9Q314.7 34.7 314.9 34.3Q315.2 33.9 315.2 33.4L315.2 33.4L315.2 32.5Q315.1 32.5 314.8 32.6Q314.6 32.7 314.3 32.7Q314.0 32.8 313.7 32.8Q313.4 32.8 313.3 32.9L313.3 32.9Q312.9 32.9 312.5 33.0Q312.1 33.2 311.9 33.4Q311.7 33.6 311.7 34.0L311.7 34.0Q311.7 34.4 311.9 34.7Q312.1 34.9 312.4 35.0Q312.8 35.2 313.2 35.2ZM320.3 36.2L320.3 36.2Q319.6 36.2 319.1 35.9Q318.5 35.7 318.2 35.2Q317.9 34.7 317.9 34.0L317.9 34.0Q317.9 33.4 318.1 33.0Q318.4 32.6 318.8 32.4Q319.2 32.2 319.6 32.1Q320.1 32.0 320.6 31.9L320.6 31.9Q321.3 31.8 321.7 31.8Q322.1 31.7 322.3 31.6Q322.5 31.5 322.5 31.2L322.5 31.2L322.5 31.2Q322.5 30.8 322.3 30.5Q322.1 30.1 321.8 30.0Q321.5 29.8 321.0 29.8L321.0 29.8Q320.5 29.8 320.1 30.0Q319.7 30.1 319.5 30.4Q319.3 30.6 319.2 30.9L319.2 30.9L318.1 30.5Q318.3 29.8 318.8 29.5Q319.3 29.1 319.8 29.0Q320.4 28.8 320.9 28.8L320.9 28.8Q321.3 28.8 321.7 28.9Q322.2 29.0 322.6 29.2Q323.0 29.5 323.3 30.0Q323.6 30.5 323.6 31.3L323.6 31.3L323.6 36L322.5 36L322.5 35.0L322.4 35.0Q322.3 35.3 322.0 35.5Q321.7 35.8 321.3 36.0Q320.9 36.2 320.3 36.2ZM320.5 35.2L320.5 35.2Q321.1 35.2 321.6 34.9Q322.0 34.7 322.2 34.3Q322.5 33.9 322.5 33.4L322.5 33.4L322.5 32.5Q322.4 32.5 322.1 32.6Q321.9 32.7 321.6 32.7Q321.3 32.8 321.0 32.8Q320.7 32.8 320.6 32.9L320.6 32.9Q320.2 32.9 319.8 33.0Q319.4 33.2 319.2 33.4Q319.0 33.6 319.0 34.0L319.0 34.0Q319.0 34.4 319.2 34.7Q319.4 34.9 319.7 35.0Q320.1 35.2 320.5 35.2ZM328.8 36.2L328.8 36.2Q327.7 36.2 327.0 35.8Q326.2 35.5 325.8 34.9Q325.4 34.3 325.3 33.5L325.3 33.5L326.6 33.5Q326.6 34.1 326.9 34.4Q327.2 34.7 327.7 34.9Q328.2 35.1 328.8 35.1L328.8 35.1Q329.4 35.1 329.9 34.9Q330.4 34.7 330.7 34.3Q331.0 33.9 331.0 33.4L331.0 33.4Q331.0 32.9 330.8 32.7Q330.5 32.4 330.1 32.2Q329.7 32.0 329.2 31.9L329.2 31.9L328.0 31.5Q326.9 31.2 326.2 30.6Q325.6 30.0 325.6 29.1L325.6 29.1Q325.6 28.3 326.0 27.7Q326.5 27.1 327.2 26.7Q327.9 26.4 328.8 26.4L328.8 26.4Q329.8 26.4 330.5 26.7Q331.2 27.1 331.6 27.6Q332.0 28.2 332.1 28.9L332.1 28.9L330.9 28.9Q330.8 28.2 330.2 27.9Q329.7 27.5 328.8 27.5L328.8 27.5Q328.2 27.5 327.7 27.7Q327.3 27.9 327.0 28.2Q326.8 28.6 326.8 29.0L326.8 29.0Q326.8 29.5 327.1 29.8Q327.4 30.1 327.8 30.3Q328.2 30.5 328.6 30.5L328.6 30.5L329.5 30.8Q329.9 30.9 330.4 31.1Q330.8 31.3 331.2 31.6Q331.7 31.9 331.9 32.3Q332.2 32.8 332.2 33.4L332.2 33.4Q332.2 34.2 331.8 34.8Q331.4 35.4 330.6 35.8Q329.9 36.2 328.8 36.2Z M341.2 36L337.7 36L337.7 26.5L341.1 26.5Q342.1 26.5 342.7 26.9Q343.4 27.2 343.7 27.8Q344.0 28.4 344.0 29.0L344.0 29.0Q344.0 29.7 343.8 30.1Q343.6 30.5 343.2 30.7Q342.9 30.9 342.4 31.0L342.4 31.0L342.4 31.1Q342.9 31.2 343.3 31.4Q343.8 31.7 344.1 32.2Q344.4 32.7 344.4 33.5L344.4 33.5Q344.4 34.2 344.0 34.8Q343.7 35.3 343.0 35.7Q342.3 36 341.2 36L341.2 36ZM338.9 31.7L338.9 34.9L341.2 34.9Q342.3 34.9 342.7 34.5Q343.2 34.1 343.2 33.5L343.2 33.5Q343.2 33.0 343.0 32.6Q342.7 32.2 342.3 32.0Q341.8 31.7 341.2 31.7L341.2 31.7L338.9 31.7ZM338.9 27.6L338.9 30.7L341.0 30.7Q341.5 30.7 341.9 30.5Q342.4 30.3 342.6 29.9Q342.8 29.6 342.8 29.1L342.8 29.1Q342.8 28.5 342.4 28.0Q342.0 27.6 341.1 27.6L341.1 27.6L338.9 27.6ZM352.1 36L346.1 36L346.1 35.1L349.2 31.7Q349.7 31.2 350.1 30.7Q350.4 30.3 350.6 29.9Q350.8 29.5 350.8 29.1L350.8 29.1Q350.8 28.6 350.6 28.2Q350.3 27.8 349.9 27.7Q349.5 27.5 349.0 27.5L349.0 27.5Q348.5 27.5 348.1 27.7Q347.7 27.9 347.5 28.3Q347.3 28.7 347.3 29.2L347.3 29.2L346.1 29.2Q346.1 28.4 346.5 27.8Q346.9 27.1 347.5 26.8Q348.2 26.4 349.1 26.4L349.1 26.4Q349.9 26.4 350.5 26.8Q351.2 27.1 351.6 27.7Q351.9 28.3 351.9 29.1L351.9 29.1Q351.9 29.6 351.8 30.1Q351.6 30.5 351.1 31.2Q350.6 31.8 349.8 32.7L349.8 32.7L347.7 34.9L347.7 34.9L352.1 34.9L352.1 36ZM357.6 36L354.2 36L354.2 26.5L357.5 26.5Q358.5 26.5 359.2 26.9Q359.8 27.2 360.1 27.8Q360.4 28.4 360.4 29.0L360.4 29.0Q360.4 29.7 360.2 30.1Q360.0 30.5 359.6 30.7Q359.3 30.9 358.9 31.0L358.9 31.0L358.9 31.1Q359.3 31.2 359.8 31.4Q360.2 31.7 360.5 32.2Q360.8 32.7 360.8 33.5L360.8 33.5Q360.8 34.2 360.5 34.8Q360.1 35.3 359.4 35.7Q358.7 36 357.6 36L357.6 36ZM355.4 31.7L355.4 34.9L357.6 34.9Q358.7 34.9 359.2 34.5Q359.6 34.1 359.6 33.5L359.6 33.5Q359.6 33.0 359.4 32.6Q359.2 32.2 358.7 32.0Q358.3 31.7 357.7 31.7L357.7 31.7L355.4 31.7ZM355.4 27.6L355.4 30.7L357.5 30.7Q358.0 30.7 358.4 30.5Q358.8 30.3 359.0 29.9Q359.3 29.6 359.3 29.1L359.3 29.1Q359.3 28.5 358.8 28.0Q358.4 27.6 357.5 27.6L357.5 27.6L355.4 27.6Z M368.2 36.2L368.2 36.2Q367.5 36.2 367.0 35.9Q366.4 35.7 366.1 35.2Q365.8 34.7 365.8 34.0L365.8 34.0Q365.8 33.4 366.0 33.0Q366.2 32.6 366.6 32.4Q367.0 32.2 367.5 32.1Q368.0 32.0 368.5 31.9L368.5 31.9Q369.2 31.8 369.6 31.8Q370.0 31.7 370.2 31.6Q370.3 31.5 370.3 31.2L370.3 31.2L370.3 31.2Q370.3 30.8 370.2 30.5Q370.0 30.1 369.7 30.0Q369.4 29.8 368.9 29.8L368.9 29.8Q368.4 29.8 368.0 30.0Q367.6 30.1 367.4 30.4Q367.2 30.6 367.1 30.9L367.1 30.9L366.0 30.5Q366.2 29.8 366.7 29.5Q367.2 29.1 367.7 29.0Q368.3 28.8 368.8 28.8L368.8 28.8Q369.2 28.8 369.6 28.9Q370.1 29.0 370.5 29.2Q370.9 29.5 371.2 30.0Q371.5 30.5 371.5 31.3L371.5 31.3L371.5 36L370.4 36L370.4 35.0L370.3 35.0Q370.2 35.3 369.9 35.5Q369.6 35.8 369.2 36.0Q368.8 36.2 368.2 36.2ZM368.4 35.2L368.4 35.2Q369.0 35.2 369.4 34.9Q369.9 34.7 370.1 34.3Q370.3 33.9 370.3 33.4L370.3 33.4L370.3 32.5Q370.3 32.5 370.0 32.6Q369.8 32.7 369.5 32.7Q369.2 32.8 368.9 32.8Q368.6 32.8 368.5 32.9L368.5 32.9Q368.1 32.9 367.7 33.0Q367.3 33.2 367.1 33.4Q366.9 33.6 366.9 34.0L366.9 34.0Q366.9 34.4 367.1 34.7Q367.3 34.9 367.6 35.0Q368.0 35.2 368.4 35.2ZM373.5 26.5L374.6 26.5L374.6 36L373.5 36L373.5 26.5ZM376.6 26.5L377.8 26.5L377.8 36L376.6 36L376.6 26.5ZM379.7 31.4L383.9 31.4L383.9 32.5L379.7 32.5L379.7 31.4ZM386.9 36L385.8 36L385.8 28.9L386.9 28.9L386.9 36ZM386.3 27.7L386.3 27.7Q386.0 27.7 385.8 27.5Q385.6 27.3 385.6 27.0L385.6 27.0Q385.6 26.7 385.8 26.4Q386.0 26.2 386.3 26.2L386.3 26.2Q386.7 26.2 386.9 26.4Q387.1 26.7 387.1 27.0L387.1 27.0Q387.1 27.3 386.9 27.5Q386.7 27.7 386.3 27.7ZM390.1 31.7L390.1 31.7L390.1 36L388.9 36L388.9 28.9L390.0 28.9L390.0 30.2Q390.3 29.6 390.8 29.2L390.8 29.2Q391.4 28.8 392.2 28.8L392.2 28.8Q392.9 28.8 393.4 29.1Q394.0 29.4 394.3 30.0Q394.6 30.6 394.6 31.5L394.6 31.5L394.6 36L393.4 36L393.4 31.6Q393.4 30.8 393.0 30.3Q392.6 29.8 391.9 29.8L391.9 29.8Q391.3 29.8 390.9 30.1Q390.5 30.3 390.3 30.7Q390.1 31.1 390.1 31.7ZM396.5 31.4L400.7 31.4L400.7 32.5L396.5 32.5L396.5 31.4ZM405.5 36.2L405.5 36.2Q404.5 36.2 403.8 35.7Q403.0 35.2 402.6 34.4Q402.2 33.6 402.2 32.5L402.2 32.5Q402.2 31.4 402.6 30.6Q403.0 29.7 403.8 29.3Q404.5 28.8 405.5 28.8L405.5 28.8Q406.4 28.8 407.2 29.3Q407.9 29.7 408.3 30.6Q408.7 31.4 408.7 32.5L408.7 32.5Q408.7 33.6 408.3 34.4Q407.9 35.2 407.2 35.7Q406.4 36.2 405.5 36.2ZM405.5 35.1L405.5 35.1Q406.2 35.1 406.6 34.8Q407.1 34.4 407.3 33.8Q407.6 33.2 407.6 32.5L407.6 32.5Q407.6 31.8 407.3 31.2Q407.1 30.6 406.6 30.2Q406.2 29.8 405.5 29.8L405.5 29.8Q404.8 29.8 404.3 30.2Q403.8 30.6 403.6 31.2Q403.4 31.8 403.4 32.5L403.4 32.5Q403.4 33.2 403.6 33.8Q403.8 34.4 404.3 34.8Q404.8 35.1 405.5 35.1ZM411.5 31.7L411.5 31.7L411.5 36L410.4 36L410.4 28.9L411.5 28.9L411.5 30.2Q411.8 29.6 412.2 29.2L412.2 29.2Q412.8 28.8 413.6 28.8L413.6 28.8Q414.4 28.8 414.9 29.1Q415.4 29.4 415.7 30.0Q416.0 30.6 416.0 31.5L416.0 31.5L416.0 36L414.9 36L414.9 31.6Q414.9 30.8 414.5 30.3Q414.0 29.8 413.3 29.8L413.3 29.8Q412.8 29.8 412.4 30.1Q412.0 30.3 411.8 30.7Q411.5 31.1 411.5 31.7ZM421.0 36.2L421.0 36.2Q420.0 36.2 419.3 35.7Q418.5 35.2 418.1 34.4Q417.7 33.6 417.7 32.5Q417.7 31.4 418.1 30.6Q418.5 29.8 419.2 29.3Q419.9 28.8 420.9 28.8L420.9 28.8Q421.5 28.8 422.0 29.0Q422.6 29.2 423.0 29.6Q423.5 30.0 423.7 30.7Q424.0 31.4 424.0 32.4L424.0 32.4L424.0 32.8L418.9 32.8Q418.9 33.5 419.1 34.0L419.1 34.0Q419.4 34.6 419.9 34.9Q420.4 35.1 421.0 35.1L421.0 35.1Q421.5 35.1 421.8 35.0Q422.1 34.9 422.4 34.7Q422.6 34.4 422.8 34.0L422.8 34.0L423.9 34.3Q423.7 34.9 423.3 35.3Q422.9 35.7 422.3 35.9Q421.8 36.2 421.0 36.2ZM418.9 31.9L418.9 31.9L422.8 31.9Q422.8 31.4 422.6 31.0L422.6 31.0Q422.4 30.4 422.0 30.1Q421.5 29.8 420.9 29.8Q420.3 29.8 419.8 30.1Q419.3 30.5 419.1 31.0L419.1 31.0Q418.9 31.4 418.9 31.9ZM426.3 38.3L425.4 38.3L426.0 34.7L427.3 34.7L426.3 38.3Z M434.7 26.5L436.2 26.5L436.2 36L435.0 36L435.0 27.7L434.9 27.7L432.6 29.4L432.6 28.1L434.7 26.5ZM444.3 36L438.3 36L438.3 35.1L441.4 31.7Q442.0 31.2 442.3 30.7Q442.7 30.3 442.8 29.9Q443.0 29.5 443.0 29.1L443.0 29.1Q443.0 28.6 442.8 28.2Q442.5 27.8 442.1 27.7Q441.7 27.5 441.2 27.5L441.2 27.5Q440.7 27.5 440.3 27.7Q439.9 27.9 439.7 28.3Q439.5 28.7 439.5 29.2L439.5 29.2L438.3 29.2Q438.3 28.4 438.7 27.8Q439.1 27.1 439.8 26.8Q440.4 26.4 441.3 26.4L441.3 26.4Q442.1 26.4 442.8 26.8Q443.4 27.1 443.8 27.7Q444.2 28.3 444.2 29.1L444.2 29.1Q444.2 29.6 444.0 30.1Q443.8 30.5 443.3 31.2Q442.9 31.8 442.0 32.7L442.0 32.7L440.0 34.9L440.0 34.9L444.3 34.9L444.3 36Z M451.0 36L449.9 36L449.9 28.9L451.0 28.9L451.0 30.2Q451.2 29.8 451.4 29.5L451.4 29.5Q451.7 29.2 452.1 29.0Q452.6 28.8 453.0 28.8L453.0 28.8Q453.8 28.8 454.3 29.3L454.3 29.3Q454.7 29.6 454.8 30.2L454.8 30.2Q455.0 29.9 455.2 29.6L455.2 29.6Q455.5 29.2 456.0 29.0Q456.5 28.8 457.1 28.8L457.1 28.8Q457.7 28.8 458.2 29.0Q458.7 29.3 459.0 29.8Q459.3 30.4 459.3 31.2L459.3 31.2L459.3 36L458.1 36L458.1 31.2Q458.1 30.5 457.7 30.1Q457.3 29.8 456.7 29.8L456.7 29.8Q456.2 29.8 455.9 30.0Q455.5 30.2 455.4 30.6Q455.2 30.9 455.2 31.4L455.2 31.4L455.2 36L454.0 36L454.0 31.1Q454.0 30.5 453.6 30.2Q453.2 29.8 452.6 29.8L452.6 29.8Q452.2 29.8 451.9 30.0Q451.5 30.2 451.3 30.6Q451.0 31.0 451.0 31.5L451.0 31.5L451.0 36ZM464.2 36.2L464.2 36.2Q463.2 36.2 462.5 35.7Q461.8 35.2 461.4 34.4Q461.0 33.6 461.0 32.5L461.0 32.5Q461.0 31.4 461.4 30.6Q461.8 29.7 462.5 29.3Q463.2 28.8 464.2 28.8L464.2 28.8Q465.2 28.8 465.9 29.3Q466.6 29.7 467.0 30.6Q467.4 31.4 467.4 32.5L467.4 32.5Q467.4 33.6 467.0 34.4Q466.6 35.2 465.9 35.7Q465.2 36.2 464.2 36.2ZM464.2 35.1L464.2 35.1Q464.9 35.1 465.4 34.8Q465.8 34.4 466.0 33.8Q466.3 33.2 466.3 32.5L466.3 32.5Q466.3 31.8 466.0 31.2Q465.8 30.6 465.4 30.2Q464.9 29.8 464.2 29.8L464.2 29.8Q463.5 29.8 463.0 30.2Q462.6 30.6 462.3 31.2Q462.1 31.8 462.1 32.5L462.1 32.5Q462.1 33.2 462.3 33.8Q462.6 34.4 463.0 34.8Q463.5 35.1 464.2 35.1ZM471.7 36.2L471.7 36.2Q470.9 36.2 470.2 35.7Q469.5 35.3 469.1 34.4Q468.7 33.6 468.7 32.5L468.7 32.5Q468.7 31.3 469.1 30.5Q469.5 29.7 470.2 29.3Q470.9 28.8 471.8 28.8L471.8 28.8Q472.4 28.8 472.9 29.0Q473.3 29.3 473.5 29.6Q473.7 29.8 473.8 30.0L473.8 30.0L473.9 30.0L473.9 26.5L475.0 26.5L475.0 36L473.9 36L473.9 34.9L473.8 34.9Q473.7 35.1 473.5 35.4Q473.2 35.7 472.8 35.9Q472.4 36.2 471.7 36.2ZM471.9 35.1L471.9 35.1Q472.6 35.1 473.0 34.8Q473.5 34.5 473.7 33.8Q473.9 33.2 473.9 32.5L473.9 32.5Q473.9 31.7 473.7 31.1Q473.5 30.5 473.0 30.2Q472.6 29.8 471.9 29.8L471.9 29.8Q471.2 29.8 470.8 30.2Q470.4 30.5 470.1 31.1Q469.9 31.7 469.9 32.5L469.9 32.5Q469.9 33.2 470.1 33.8Q470.4 34.4 470.8 34.8Q471.3 35.1 471.9 35.1ZM479.5 36.1L479.5 36.1Q478.7 36.1 478.2 35.8Q477.7 35.5 477.3 34.9Q477.0 34.3 477.0 33.4L477.0 33.4L477.0 28.9L478.2 28.9L478.2 33.3Q478.2 34.1 478.6 34.6Q479.1 35.1 479.8 35.1L479.8 35.1Q480.3 35.1 480.7 34.8Q481.1 34.6 481.3 34.2Q481.6 33.8 481.6 33.2L481.6 33.2L481.6 28.9L482.7 28.9L482.7 36L481.6 36L481.6 34.7Q481.3 35.4 480.8 35.7L480.8 35.7Q480.2 36.1 479.5 36.1ZM484.7 26.5L485.9 26.5L485.9 36L484.7 36L484.7 26.5ZM490.9 36.2L490.9 36.2Q489.8 36.2 489.1 35.7Q488.3 35.2 487.9 34.4Q487.5 33.6 487.5 32.5Q487.5 31.4 487.9 30.6Q488.3 29.8 489.0 29.3Q489.8 28.8 490.7 28.8L490.7 28.8Q491.3 28.8 491.8 29.0Q492.4 29.2 492.8 29.6Q493.3 30.0 493.6 30.7Q493.8 31.4 493.8 32.4L493.8 32.4L493.8 32.8L488.7 32.8Q488.7 33.5 489.0 34.0L489.0 34.0Q489.2 34.6 489.7 34.9Q490.2 35.1 490.9 35.1L490.9 35.1Q491.3 35.1 491.6 35.0Q492.0 34.9 492.2 34.7Q492.5 34.4 492.6 34.0L492.6 34.0L493.7 34.3Q493.5 34.9 493.2 35.3Q492.8 35.7 492.2 35.9Q491.6 36.2 490.9 36.2ZM488.7 31.9L488.7 31.9L492.7 31.9Q492.6 31.4 492.5 31.0L492.5 31.0Q492.2 30.4 491.8 30.1Q491.4 29.8 490.7 29.8Q490.1 29.8 489.6 30.1Q489.2 30.5 488.9 31.0L488.9 31.0Q488.7 31.4 488.7 31.9ZM497.9 36.2L497.9 36.2Q497.1 36.2 496.6 35.9Q496.0 35.7 495.6 35.3Q495.3 34.9 495.1 34.3L495.1 34.3L496.2 34.0Q496.4 34.6 496.8 34.9Q497.2 35.1 497.9 35.1L497.9 35.1Q498.6 35.1 499.0 34.8Q499.5 34.5 499.5 34.1L499.5 34.1Q499.5 33.7 499.2 33.5Q499.0 33.2 498.4 33.1L498.4 33.1L497.3 32.8Q496.3 32.6 495.8 32.1Q495.4 31.6 495.4 30.9L495.4 30.9Q495.4 30.3 495.7 29.8Q496.0 29.3 496.6 29.1Q497.2 28.8 498.0 28.8L498.0 28.8Q498.7 28.8 499.2 29.0Q499.7 29.3 500.1 29.6Q500.4 30.0 500.5 30.5L500.5 30.5L499.5 30.8Q499.4 30.4 499.0 30.1Q498.7 29.8 498.0 29.8L498.0 29.8Q497.4 29.8 496.9 30.1Q496.5 30.4 496.5 30.8L496.5 30.8Q496.5 31.2 496.8 31.4Q497.1 31.7 497.7 31.8L497.7 31.8L498.8 32.1Q499.7 32.3 500.2 32.8Q500.7 33.3 500.7 34.0L500.7 34.0Q500.7 34.6 500.3 35.1Q500.0 35.6 499.3 35.9Q498.7 36.2 497.9 36.2Z M509.0 36.2L509.0 36.2Q507.9 36.2 507.2 35.7Q506.4 35.2 506.0 34.4Q505.6 33.6 505.6 32.5Q505.6 31.4 506.0 30.6Q506.4 29.8 507.1 29.3Q507.9 28.8 508.8 28.8L508.8 28.8Q509.4 28.8 509.9 29.0Q510.5 29.2 510.9 29.6Q511.4 30.0 511.7 30.7Q511.9 31.4 511.9 32.4L511.9 32.4L511.9 32.8L506.8 32.8Q506.8 33.5 507.1 34.0L507.1 34.0Q507.3 34.6 507.8 34.9Q508.3 35.1 509.0 35.1L509.0 35.1Q509.4 35.1 509.7 35.0Q510.1 34.9 510.3 34.7Q510.6 34.4 510.7 34.0L510.7 34.0L511.8 34.3Q511.6 34.9 511.2 35.3Q510.9 35.7 510.3 35.9Q509.7 36.2 509.0 36.2ZM506.8 31.9L506.8 31.9L510.8 31.9Q510.7 31.4 510.6 31.0L510.6 31.0Q510.3 30.4 509.9 30.1Q509.5 29.8 508.8 29.8Q508.2 29.8 507.7 30.1Q507.3 30.5 507.0 31.0L507.0 31.0Q506.8 31.4 506.8 31.9ZM514.7 31.7L514.7 31.7L514.7 36L513.6 36L513.6 28.9L514.7 28.9L514.7 30.2Q515.0 29.6 515.4 29.2L515.4 29.2Q516.0 28.8 516.8 28.8L516.8 28.8Q517.6 28.8 518.1 29.1Q518.6 29.4 518.9 30.0Q519.2 30.6 519.2 31.5L519.2 31.5L519.2 36L518.1 36L518.1 31.6Q518.1 30.8 517.7 30.3Q517.2 29.8 516.5 29.8L516.5 29.8Q516.0 29.8 515.6 30.1Q515.2 30.3 514.9 30.7Q514.7 31.1 514.7 31.7Z M526.0 36L524.9 36L524.9 28.9L526.0 28.9L526.0 30.2Q526.2 29.8 526.4 29.5L526.4 29.5Q526.7 29.2 527.1 29.0Q527.5 28.8 528.0 28.8L528.0 28.8Q528.8 28.8 529.3 29.3L529.3 29.3Q529.6 29.6 529.8 30.2L529.8 30.2Q529.9 29.9 530.2 29.6L530.2 29.6Q530.5 29.2 531.0 29.0Q531.5 28.8 532.0 28.8L532.0 28.8Q532.7 28.8 533.2 29.0Q533.7 29.3 534.0 29.8Q534.3 30.4 534.3 31.2L534.3 31.2L534.3 36L533.1 36L533.1 31.2Q533.1 30.5 532.7 30.1Q532.3 29.8 531.7 29.8L531.7 29.8Q531.2 29.8 530.9 30.0Q530.5 30.2 530.3 30.6Q530.2 30.9 530.2 31.4L530.2 31.4L530.2 36L529.0 36L529.0 31.1Q529.0 30.5 528.6 30.2Q528.2 29.8 527.6 29.8L527.6 29.8Q527.2 29.8 526.8 30.0Q526.5 30.2 526.3 30.6Q526.0 31.0 526.0 31.5L526.0 31.5L526.0 36ZM537.4 36L536.3 36L536.3 28.9L537.4 28.9L537.4 36ZM536.9 27.7L536.9 27.7Q536.5 27.7 536.3 27.5Q536.1 27.3 536.1 27.0L536.1 27.0Q536.1 26.7 536.3 26.4Q536.5 26.2 536.9 26.2L536.9 26.2Q537.2 26.2 537.4 26.4Q537.7 26.7 537.7 27.0L537.7 27.0Q537.7 27.3 537.4 27.5Q537.2 27.7 536.9 27.7ZM542.3 36.2L542.3 36.2Q541.4 36.2 540.6 35.7Q539.9 35.2 539.5 34.4Q539.1 33.6 539.1 32.5L539.1 32.5Q539.1 31.4 539.5 30.6Q539.9 29.7 540.6 29.3Q541.4 28.8 542.3 28.8L542.3 28.8Q542.8 28.8 543.3 28.9Q543.7 29.1 544.1 29.3Q544.5 29.6 544.8 29.9Q545.1 30.3 545.2 30.8L545.2 30.8L544.1 31.1Q544.0 30.8 543.9 30.6Q543.7 30.4 543.5 30.2Q543.3 30.0 543.0 29.9Q542.7 29.8 542.3 29.8L542.3 29.8Q541.6 29.8 541.2 30.2Q540.7 30.6 540.5 31.2Q540.3 31.8 540.3 32.5L540.3 32.5Q540.3 33.2 540.5 33.8Q540.7 34.4 541.2 34.8Q541.6 35.1 542.3 35.1L542.3 35.1Q542.7 35.1 543.0 35.0Q543.3 34.9 543.5 34.8Q543.7 34.6 543.9 34.3Q544.1 34.1 544.1 33.8L544.1 33.8L545.2 34.1Q545.1 34.6 544.8 35.0Q544.5 35.4 544.1 35.6Q543.8 35.9 543.3 36.0Q542.8 36.2 542.3 36.2ZM548.0 36L546.9 36L546.9 28.9L548.0 28.9L548.0 30.0L548.0 30.0Q548.2 29.5 548.7 29.1Q549.2 28.8 549.9 28.8L549.9 28.8Q550.0 28.8 550.2 28.8Q550.4 28.8 550.5 28.8L550.5 28.8L550.5 30.0Q550.4 30.0 550.2 29.9Q550.0 29.9 549.8 29.9L549.8 29.9Q549.3 29.9 548.9 30.1Q548.5 30.3 548.2 30.7Q548.0 31.1 548.0 31.6L548.0 31.6L548.0 36ZM554.6 36.2L554.6 36.2Q553.7 36.2 553.0 35.7Q552.2 35.2 551.8 34.4Q551.4 33.6 551.4 32.5L551.4 32.5Q551.4 31.4 551.8 30.6Q552.2 29.7 553.0 29.3Q553.7 28.8 554.6 28.8L554.6 28.8Q555.6 28.8 556.3 29.3Q557.1 29.7 557.5 30.6Q557.9 31.4 557.9 32.5L557.9 32.5Q557.9 33.6 557.5 34.4Q557.1 35.2 556.3 35.7Q555.6 36.2 554.6 36.2ZM554.6 35.1L554.6 35.1Q555.4 35.1 555.8 34.8Q556.3 34.4 556.5 33.8Q556.7 33.2 556.7 32.5L556.7 32.5Q556.7 31.8 556.5 31.2Q556.3 30.6 555.8 30.2Q555.4 29.8 554.6 29.8L554.6 29.8Q553.9 29.8 553.5 30.2Q553.0 30.6 552.8 31.2Q552.6 31.8 552.6 32.5L552.6 32.5Q552.6 33.2 552.8 33.8Q553.0 34.4 553.5 34.8Q553.9 35.1 554.6 35.1ZM559.5 31.4L563.6 31.4L563.6 32.5L559.5 32.5L559.5 31.4ZM567.2 28.9L568.8 28.9L568.8 29.9L567.2 29.9L567.2 36L566.0 36L566.0 29.9L564.7 29.9L564.7 28.9L566.0 28.9L566.0 28.0Q566.0 27.3 566.3 26.9Q566.6 26.5 567.1 26.3Q567.6 26.1 568.1 26.1L568.1 26.1Q568.5 26.1 568.7 26.2Q569.0 26.2 569.1 26.3L569.1 26.3L568.8 27.3Q568.7 27.2 568.6 27.2Q568.4 27.2 568.2 27.2L568.2 27.2Q567.7 27.2 567.4 27.4Q567.2 27.7 567.2 28.2L567.2 28.2L567.2 28.9ZM571.5 36L570.3 36L570.3 28.9L571.4 28.9L571.4 30.0L571.5 30.0Q571.7 29.5 572.2 29.1Q572.7 28.8 573.4 28.8L573.4 28.8Q573.5 28.8 573.7 28.8Q573.8 28.8 573.9 28.8L573.9 28.8L573.9 30.0Q573.9 30.0 573.7 29.9Q573.5 29.9 573.3 29.9L573.3 29.9Q572.7 29.9 572.3 30.1Q571.9 30.3 571.7 30.7Q571.5 31.1 571.5 31.6L571.5 31.6L571.5 36ZM578.1 36.2L578.1 36.2Q577.2 36.2 576.4 35.7Q575.7 35.2 575.3 34.4Q574.9 33.6 574.9 32.5L574.9 32.5Q574.9 31.4 575.3 30.6Q575.7 29.7 576.4 29.3Q577.2 28.8 578.1 28.8L578.1 28.8Q579.1 28.8 579.8 29.3Q580.6 29.7 581.0 30.6Q581.4 31.4 581.4 32.5L581.4 32.5Q581.4 33.6 581.0 34.4Q580.6 35.2 579.8 35.7Q579.1 36.2 578.1 36.2ZM578.1 35.1L578.1 35.1Q578.8 35.1 579.3 34.8Q579.8 34.4 580.0 33.8Q580.2 33.2 580.2 32.5L580.2 32.5Q580.2 31.8 580.0 31.2Q579.8 30.6 579.3 30.2Q578.8 29.8 578.1 29.8L578.1 29.8Q577.4 29.8 577.0 30.2Q576.5 30.6 576.3 31.2Q576.1 31.8 576.1 32.5L576.1 32.5Q576.1 33.2 576.3 33.8Q576.5 34.4 577.0 34.8Q577.4 35.1 578.1 35.1ZM584.2 31.7L584.2 31.7L584.2 36L583.0 36L583.0 28.9L584.1 28.9L584.1 30.2Q584.4 29.6 584.9 29.2L584.9 29.2Q585.5 28.8 586.3 28.8L586.3 28.8Q587.0 28.8 587.6 29.1Q588.1 29.4 588.4 30.0Q588.7 30.6 588.7 31.5L588.7 31.5L588.7 36L587.6 36L587.6 31.6Q587.6 30.8 587.1 30.3Q586.7 29.8 586.0 29.8L586.0 29.8Q585.5 29.8 585.0 30.1Q584.6 30.3 584.4 30.7Q584.2 31.1 584.2 31.7ZM592.0 28.9L593.5 28.9L593.5 29.9L592.0 29.9L592.0 34.2Q592.0 34.6 592.2 34.9Q592.4 35.1 592.9 35.1L592.9 35.1Q593.0 35.1 593.2 35.0Q593.3 35.0 593.5 35.0L593.5 35.0L593.7 36.0Q593.5 36.0 593.3 36.1Q593.1 36.1 592.8 36.1L592.8 36.1Q591.9 36.1 591.4 35.6Q590.9 35.1 590.9 34.2L590.9 34.2L590.9 29.9L589.8 29.9L589.8 28.9L590.9 28.9L590.9 27.2L592.0 27.2L592.0 28.9ZM597.9 36.2L597.9 36.2Q596.9 36.2 596.2 35.7Q595.4 35.2 595.0 34.4Q594.6 33.6 594.6 32.5Q594.6 31.4 595.0 30.6Q595.4 29.8 596.1 29.3Q596.8 28.8 597.8 28.8L597.8 28.8Q598.4 28.8 598.9 29.0Q599.5 29.2 599.9 29.6Q600.4 30.0 600.6 30.7Q600.9 31.4 600.9 32.4L600.9 32.4L600.9 32.8L595.8 32.8Q595.8 33.5 596.0 34.0L596.0 34.0Q596.3 34.6 596.8 34.9Q597.3 35.1 598.0 35.1L598.0 35.1Q598.4 35.1 598.7 35.0Q599.1 34.9 599.3 34.7Q599.6 34.4 599.7 34.0L599.7 34.0L600.8 34.3Q600.6 34.9 600.2 35.3Q599.8 35.7 599.3 35.9Q598.7 36.2 597.9 36.2ZM595.8 31.9L595.8 31.9L599.7 31.9Q599.7 31.4 599.5 31.0L599.5 31.0Q599.3 30.4 598.9 30.1Q598.5 29.8 597.8 29.8Q597.2 29.8 596.7 30.1Q596.3 30.5 596.0 31.0L596.0 31.0Q595.8 31.4 595.8 31.9ZM603.7 31.7L603.7 31.7L603.7 36L602.5 36L602.5 28.9L603.6 28.9L603.6 30.2Q603.9 29.6 604.4 29.2L604.4 29.2Q605.0 28.8 605.8 28.8L605.8 28.8Q606.5 28.8 607.1 29.1Q607.6 29.4 607.9 30.0Q608.2 30.6 608.2 31.5L608.2 31.5L608.2 36L607.1 36L607.1 31.6Q607.1 30.8 606.6 30.3Q606.2 29.8 605.5 29.8L605.5 29.8Q605.0 29.8 604.6 30.1Q604.2 30.3 603.9 30.7Q603.7 31.1 603.7 31.7ZM612.9 36.2L612.9 36.2Q612.0 36.2 611.3 35.7Q610.6 35.3 610.3 34.4Q609.9 33.6 609.9 32.5L609.9 32.5Q609.9 31.3 610.3 30.5Q610.6 29.7 611.3 29.3Q612.0 28.8 612.9 28.8L612.9 28.8Q613.6 28.8 614.0 29.0Q614.4 29.3 614.6 29.6Q614.8 29.8 614.9 30.0L614.9 30.0L615.0 30.0L615.0 26.5L616.2 26.5L616.2 36L615.1 36L615.1 34.9L614.9 34.9Q614.8 35.1 614.6 35.4Q614.4 35.7 614.0 35.9Q613.6 36.2 612.9 36.2ZM613.1 35.1L613.1 35.1Q613.7 35.1 614.1 34.8Q614.6 34.5 614.8 33.8Q615.0 33.2 615.0 32.5L615.0 32.5Q615.0 31.7 614.8 31.1Q614.6 30.5 614.2 30.2Q613.7 29.8 613.1 29.8L613.1 29.8Q612.4 29.8 611.9 30.2Q611.5 30.5 611.3 31.1Q611.0 31.7 611.0 32.5L611.0 32.5Q611.0 33.2 611.3 33.8Q611.5 34.4 611.9 34.8Q612.4 35.1 613.1 35.1ZM620.6 36.2L620.6 36.2Q619.9 36.2 619.3 35.9Q618.7 35.7 618.4 35.3Q618.0 34.9 617.9 34.3L617.9 34.3L619.0 34.0Q619.1 34.6 619.5 34.9Q619.9 35.1 620.6 35.1L620.6 35.1Q621.3 35.1 621.8 34.8Q622.2 34.5 622.2 34.1L622.2 34.1Q622.2 33.7 621.9 33.5Q621.7 33.2 621.2 33.1L621.2 33.1L620.0 32.8Q619.0 32.6 618.6 32.1Q618.1 31.6 618.1 30.9L618.1 30.9Q618.1 30.3 618.4 29.8Q618.8 29.3 619.4 29.1Q620.0 28.8 620.7 28.8L620.7 28.8Q621.4 28.8 621.9 29.0Q622.5 29.3 622.8 29.6Q623.1 30.0 623.3 30.5L623.3 30.5L622.2 30.8Q622.1 30.4 621.7 30.1Q621.4 29.8 620.7 29.8L620.7 29.8Q620.1 29.8 619.7 30.1Q619.2 30.4 619.2 30.8L619.2 30.8Q619.2 31.2 619.5 31.4Q619.8 31.7 620.4 31.8L620.4 31.8L621.5 32.1Q622.5 32.3 622.9 32.8Q623.4 33.3 623.4 34.0L623.4 34.0Q623.4 34.6 623.0 35.1Q622.7 35.6 622.1 35.9Q621.4 36.2 620.6 36.2Z "/></g><clipPath id="satori_cp-id-1-1" clip-path="url(#satori_cp-id)"><path x="28" y="54" width="844" height="8" d="M32,54 h836 a4,4 0 0 1 4,4 v0 a4,4 0 0 1 -4,4 h-836 a4,4 0 0 1 -4,-4 v0 a4,4 0 0 1 4,-4"/></clipPath><mask id="satori_om-id-1-1"><rect x="28" y="54" width="844" height="8" fill="#fff" mask="url(#satori_om-id)"/></mask><path x="28" y="54" width="844" height="8" fill="#1e2330" d="M32,54 h836 a4,4 0 0 1 4,4 v0 a4,4 0 0 1 -4,4 h-836 a4,4 0 0 1 -4,-4 v0 a4,4 0 0 1 4,-4" clip-path="url(#satori_cp-id)" mask="url(#satori_om-id)"/><defs><pattern id="satori_pattern_id-1-1-0_0" x="0" y="0" width="1" height="1" patternUnits="objectBoundingBox"><linearGradient id="satori_biid-1-1-0_0" x1="0" y1="0" x2="1" y2="0" spreadMethod="pad"><stop offset="0%" stop-color="#22d3ee"/><stop offset="100%" stop-color="#a78bfa"/></linearGradient><rect x="0" y="0" width="608" height="8" fill="url(#satori_biid-1-1-0_0)"/></pattern></defs><mask id="satori_om-id-1-1-0"><rect x="28" y="54" width="608" height="8" fill="#fff" mask="url(#satori_om-id-1-1)"/></mask><path x="28" y="54" width="608" height="8" fill="url(#satori_pattern_id-1-1-0_0)" d="M32,54 h600 a4,4 0 0 1 4,4 v0 a4,4 0 0 1 -4,4 h-600 a4,4 0 0 1 -4,-4 v0 a4,4 0 0 1 4,-4" clip-path="url(#satori_cp-id-1-1)" mask="url(#satori_om-id-1-1)"/><mask id="satori_om-id-1-1-0-0"><rect x="28" y="54" width="0" height="8" fill="#fff" mask="url(#satori_om-id-1-1)"/></mask><mask id="satori_om-id-1-2"><rect x="28" y="70" width="844" height="15" fill="#fff" mask="url(#satori_om-id)"/></mask><mask id="satori_om-id-1-2-0"><rect x="28" y="70" width="396" height="15" fill="#fff" mask="url(#satori_om-id)"/></mask><g mask="url(#satori_om-id)" clip-path="url(#satori_cp-id)"><path fill="#94a3b8" d="M30.2 82L29.1 82L29.1 73.3L32.0 73.3Q33.1 73.3 33.7 73.6Q34.4 74.0 34.7 74.6Q35.0 75.2 35.0 76.0Q35.0 76.7 34.7 77.3Q34.4 77.9 33.7 78.3L33.7 78.3Q33.6 78.4 33.4 78.4L33.4 78.4L35.4 82L34.1 82L32.3 78.6Q32.2 78.6 32.0 78.6L32.0 78.6L30.2 78.6L30.2 82ZM30.2 74.2L30.2 77.6L32.0 77.6Q32.7 77.6 33.1 77.4Q33.5 77.2 33.7 76.8Q33.9 76.5 33.9 76.0L33.9 76.0Q33.9 75.4 33.7 75.1Q33.5 74.7 33.1 74.5Q32.7 74.2 32.0 74.2L32.0 74.2L30.2 74.2ZM39.4 82.1L39.4 82.1Q38.5 82.1 37.8 81.7Q37.1 81.3 36.7 80.5Q36.3 79.8 36.3 78.8Q36.3 77.8 36.7 77.0Q37.1 76.2 37.7 75.8Q38.4 75.4 39.3 75.4L39.3 75.4Q39.8 75.4 40.3 75.5Q40.8 75.7 41.2 76.1Q41.6 76.5 41.9 77.1Q42.1 77.7 42.1 78.6L42.1 78.6L42.1 79.1L37.4 79.1Q37.4 79.7 37.7 80.2L37.7 80.2Q37.9 80.7 38.4 80.9Q38.8 81.2 39.4 81.2L39.4 81.2Q39.8 81.2 40.1 81.1Q40.4 81.0 40.7 80.8Q40.9 80.5 41.0 80.2L41.0 80.2L42.0 80.5Q41.9 81.0 41.5 81.3Q41.1 81.7 40.6 81.9Q40.1 82.1 39.4 82.1ZM37.4 78.2L37.4 78.2L41.1 78.2Q41.0 77.7 40.9 77.4L40.9 77.4Q40.7 76.9 40.3 76.6Q39.9 76.3 39.3 76.3Q38.7 76.3 38.3 76.6Q37.8 76.9 37.6 77.3L37.6 77.3Q37.4 77.7 37.4 78.2ZM45.5 82.2L45.5 82.2Q44.9 82.2 44.4 81.9Q43.8 81.7 43.5 81.2Q43.2 80.8 43.2 80.1L43.2 80.1Q43.2 79.6 43.5 79.2Q43.7 78.9 44.1 78.7Q44.4 78.5 44.9 78.4Q45.3 78.3 45.8 78.2L45.8 78.2Q46.4 78.1 46.8 78.1Q47.1 78.1 47.3 78.0Q47.5 77.9 47.5 77.6L47.5 77.6L47.5 77.6Q47.5 77.2 47.3 76.9Q47.2 76.6 46.9 76.4Q46.6 76.3 46.1 76.3L46.1 76.3Q45.6 76.3 45.3 76.4Q45.0 76.6 44.8 76.8Q44.6 77.0 44.4 77.3L44.4 77.3L43.4 76.9Q43.7 76.3 44.1 76.0Q44.5 75.6 45.1 75.5Q45.6 75.4 46.1 75.4L46.1 75.4Q46.4 75.4 46.8 75.4Q47.2 75.5 47.6 75.8Q48.0 76.0 48.3 76.5Q48.5 76.9 48.5 77.7L48.5 77.7L48.5 82L47.5 82L47.5 81.1L47.4 81.1Q47.3 81.3 47.1 81.6Q46.8 81.8 46.4 82.0Q46.0 82.2 45.5 82.2ZM45.7 81.2L45.7 81.2Q46.2 81.2 46.7 81.0Q47.1 80.8 47.3 80.4Q47.5 80.0 47.5 79.6L47.5 79.6L47.5 78.7Q47.4 78.8 47.2 78.9Q47.0 78.9 46.7 79.0Q46.4 79.0 46.2 79.0Q45.9 79.1 45.7 79.1L45.7 79.1Q45.4 79.1 45.0 79.3Q44.7 79.4 44.5 79.6Q44.3 79.8 44.3 80.2L44.3 80.2Q44.3 80.5 44.5 80.8Q44.7 81.0 45.0 81.1Q45.3 81.2 45.7 81.2ZM53.0 82.1L53.0 82.1Q52.2 82.1 51.5 81.7Q50.8 81.3 50.4 80.5Q50.1 79.8 50.1 78.8L50.1 78.8Q50.1 77.7 50.4 77.0Q50.8 76.2 51.5 75.8Q52.2 75.4 53.0 75.4L53.0 75.4Q53.5 75.4 53.9 75.5Q54.4 75.6 54.7 75.8Q55.1 76.1 55.3 76.4Q55.6 76.8 55.7 77.2L55.7 77.2L54.7 77.5Q54.6 77.2 54.5 77.0Q54.3 76.8 54.1 76.6Q53.9 76.5 53.6 76.4Q53.4 76.3 53.0 76.3L53.0 76.3Q52.4 76.3 52.0 76.7Q51.5 77.0 51.3 77.6Q51.1 78.1 51.1 78.8L51.1 78.8Q51.1 79.4 51.3 80.0Q51.5 80.5 52.0 80.9Q52.4 81.2 53.0 81.2L53.0 81.2Q53.4 81.2 53.7 81.1Q53.9 81.0 54.1 80.9Q54.4 80.7 54.5 80.5Q54.6 80.3 54.7 80.0L54.7 80.0L55.7 80.3Q55.6 80.7 55.3 81.1Q55.1 81.4 54.7 81.6Q54.4 81.9 54.0 82.0Q53.5 82.1 53.0 82.1ZM58.5 75.4L59.8 75.4L59.8 76.4L58.5 76.4L58.5 80.3Q58.5 80.7 58.6 80.9Q58.8 81.1 59.2 81.1L59.2 81.1Q59.3 81.1 59.5 81.1Q59.7 81.1 59.8 81.1L59.8 81.1L60.0 82.0Q59.8 82.0 59.6 82.1Q59.4 82.1 59.2 82.1L59.2 82.1Q58.4 82.1 57.9 81.6Q57.4 81.2 57.4 80.4L57.4 80.4L57.4 76.4L56.4 76.4L56.4 75.4L57.4 75.4L57.4 73.9L58.5 73.9L58.5 75.4Z M66.1 73.3L67.4 73.3L67.4 82L66.3 82L66.3 74.3L66.3 74.3L64.2 75.9L64.2 74.7L66.1 73.3ZM72.0 82.1L72.0 82.1Q71.3 82.1 70.7 81.8Q70.1 81.5 69.8 81.0Q69.4 80.5 69.3 79.8L69.3 79.8L70.4 79.8Q70.5 80.4 70.9 80.7Q71.3 81.1 72.0 81.1L72.0 81.1Q72.7 81.1 73.2 80.7Q73.7 80.3 73.9 79.6Q74.2 78.9 74.2 77.8L74.2 77.8L74.1 77.8Q73.9 78.2 73.5 78.4Q73.2 78.7 72.8 78.8Q72.4 79.0 72.0 79.0L72.0 79.0Q71.2 79.0 70.6 78.6Q70.0 78.2 69.6 77.6Q69.2 76.9 69.2 76.1L69.2 76.1Q69.2 75.3 69.6 74.6Q69.9 73.9 70.6 73.5Q71.3 73.1 72.2 73.2L72.2 73.2Q72.7 73.2 73.3 73.4Q73.8 73.6 74.2 74.0Q74.7 74.5 75.0 75.3Q75.2 76.1 75.2 77.3L75.2 77.3Q75.2 78.4 75.0 79.3Q74.8 80.2 74.4 80.9Q73.9 81.5 73.4 81.8Q72.8 82.1 72.0 82.1ZM72.1 78.0L72.1 78.0Q72.5 78.0 72.9 77.8Q73.2 77.7 73.5 77.4Q73.7 77.1 73.9 76.8Q74.0 76.4 74.0 76.1L74.0 76.1Q74.0 75.5 73.8 75.1Q73.5 74.7 73.1 74.4Q72.7 74.1 72.2 74.1L72.2 74.1Q71.6 74.1 71.2 74.4Q70.8 74.7 70.5 75.1Q70.3 75.5 70.3 76.1L70.3 76.1Q70.3 76.6 70.5 77.0Q70.8 77.5 71.2 77.7Q71.6 78.0 72.1 78.0Z M81.0 78.6L81.0 78.6Q80.7 78.6 80.5 78.4Q80.2 78.2 80.2 77.9L80.2 77.9Q80.2 77.5 80.5 77.3Q80.7 77.1 81.0 77.1L81.0 77.1Q81.4 77.1 81.6 77.3Q81.8 77.5 81.8 77.9L81.8 77.9Q81.8 78.2 81.6 78.4Q81.4 78.6 81.0 78.6Z M89.5 74.3L86.7 74.3L86.7 73.3L93.3 73.3L93.3 74.3L90.6 74.3L90.6 82L89.5 82L89.5 74.3ZM94.7 84.4L94.7 84.4L95.0 83.5L95.1 83.5Q95.4 83.6 95.7 83.5Q95.9 83.5 96.2 83.3Q96.4 83.0 96.5 82.6L96.5 82.6L96.7 82.0L94.2 75.4L95.4 75.4L96.8 79.3Q97.0 79.9 97.1 80.5L97.1 80.5Q97.2 80.8 97.3 81.0L97.3 81.0Q97.3 80.8 97.4 80.5L97.4 80.5Q97.5 79.9 97.8 79.3L97.8 79.3L99.2 75.4L100.3 75.4L97.4 83.0Q97.2 83.5 97.0 83.8Q96.7 84.2 96.3 84.3Q95.9 84.5 95.5 84.5L95.5 84.5Q95.2 84.5 95.0 84.5Q94.8 84.4 94.7 84.4ZM102.6 84.4L101.6 84.4L101.6 75.4L102.6 75.4L102.6 76.5L102.7 76.5Q102.8 76.3 103.0 76.1Q103.2 75.8 103.6 75.6Q104.0 75.4 104.6 75.4L104.6 75.4Q105.4 75.4 106.0 75.8Q106.7 76.2 107.0 76.9Q107.4 77.7 107.4 78.7L107.4 78.7Q107.4 79.8 107.0 80.5Q106.7 81.3 106.0 81.7Q105.4 82.1 104.6 82.1L104.6 82.1Q104.0 82.1 103.6 81.9Q103.2 81.7 103.0 81.4Q102.8 81.2 102.7 81.0L102.7 81.0L102.6 81.0L102.6 84.4ZM104.4 81.2L104.4 81.2Q105.1 81.2 105.5 80.9Q105.9 80.5 106.1 80.0Q106.3 79.4 106.3 78.7L106.3 78.7Q106.3 78.1 106.1 77.5Q105.9 77.0 105.5 76.6Q105.1 76.3 104.4 76.3L104.4 76.3Q103.8 76.3 103.4 76.6Q103.0 76.9 102.8 77.5Q102.6 78.0 102.6 78.7L102.6 78.7Q102.6 79.5 102.8 80.0Q103.0 80.6 103.4 80.9Q103.8 81.2 104.4 81.2ZM111.7 82.1L111.7 82.1Q110.7 82.1 110.0 81.7Q109.3 81.3 109.0 80.5Q108.6 79.8 108.6 78.8Q108.6 77.8 109.0 77.0Q109.3 76.2 110.0 75.8Q110.6 75.4 111.5 75.4L111.5 75.4Q112.1 75.4 112.6 75.5Q113.1 75.7 113.5 76.1Q113.9 76.5 114.1 77.1Q114.4 77.7 114.4 78.6L114.4 78.6L114.4 79.1L109.7 79.1Q109.7 79.7 109.9 80.2L109.9 80.2Q110.2 80.7 110.6 80.9Q111.1 81.2 111.7 81.2L111.7 81.2Q112.1 81.2 112.4 81.1Q112.7 81.0 112.9 80.8Q113.1 80.5 113.3 80.2L113.3 80.2L114.3 80.5Q114.1 81.0 113.8 81.3Q113.4 81.7 112.9 81.9Q112.3 82.1 111.7 82.1ZM109.7 78.2L109.7 78.2L113.3 78.2Q113.3 77.7 113.1 77.4L113.1 77.4Q112.9 76.9 112.5 76.6Q112.1 76.3 111.5 76.3Q110.9 76.3 110.5 76.6Q110.1 76.9 109.9 77.3L109.9 77.3Q109.7 77.7 109.7 78.2ZM118.8 82.2L118.8 82.2Q117.9 82.2 117.2 81.8Q116.5 81.5 116.1 81.0Q115.7 80.4 115.7 79.7L115.7 79.7L116.8 79.7Q116.8 80.2 117.1 80.5Q117.4 80.8 117.9 81.0Q118.3 81.2 118.8 81.2L118.8 81.2Q119.4 81.2 119.9 81.0Q120.4 80.8 120.6 80.4Q120.9 80.1 120.9 79.6L120.9 79.6Q120.9 79.2 120.7 78.9Q120.4 78.7 120.0 78.5Q119.7 78.3 119.2 78.2L119.2 78.2L118.1 77.9Q117.1 77.6 116.5 77.0Q115.9 76.5 115.9 75.6L115.9 75.6Q115.9 74.9 116.3 74.3Q116.7 73.8 117.4 73.5Q118.1 73.2 118.9 73.2L118.9 73.2Q119.8 73.2 120.4 73.5Q121.1 73.8 121.5 74.3Q121.9 74.8 121.9 75.5L121.9 75.5L120.8 75.5Q120.7 74.8 120.2 74.5Q119.6 74.1 118.9 74.1L118.9 74.1Q118.3 74.1 117.9 74.3Q117.5 74.5 117.2 74.8Q117.0 75.1 117.0 75.6L117.0 75.6Q117.0 76.0 117.3 76.3Q117.6 76.6 117.9 76.7Q118.3 76.9 118.7 77.0L118.7 77.0L119.5 77.2Q119.9 77.3 120.3 77.5Q120.7 77.6 121.1 77.9Q121.5 78.2 121.7 78.6Q122.0 79.0 122.0 79.6L122.0 79.6Q122.0 80.3 121.6 80.9Q121.3 81.5 120.5 81.8Q119.8 82.2 118.8 82.2ZM126.3 82.1L126.3 82.1Q125.4 82.1 124.7 81.7Q124.0 81.3 123.7 80.5Q123.3 79.8 123.3 78.8L123.3 78.8Q123.3 77.7 123.7 77.0Q124.0 76.2 124.7 75.8Q125.4 75.4 126.3 75.4L126.3 75.4Q126.7 75.4 127.2 75.5Q127.6 75.6 127.9 75.8Q128.3 76.1 128.5 76.4Q128.8 76.8 128.9 77.2L128.9 77.2L127.9 77.5Q127.8 77.2 127.7 77.0Q127.5 76.8 127.3 76.6Q127.1 76.5 126.9 76.4Q126.6 76.3 126.3 76.3L126.3 76.3Q125.6 76.3 125.2 76.7Q124.8 77.0 124.6 77.6Q124.4 78.1 124.4 78.8L124.4 78.8Q124.4 79.4 124.6 80.0Q124.8 80.5 125.2 80.9Q125.6 81.2 126.3 81.2L126.3 81.2Q126.6 81.2 126.9 81.1Q127.1 81.0 127.4 80.9Q127.6 80.7 127.7 80.5Q127.9 80.3 127.9 80.0L127.9 80.0L128.9 80.3Q128.8 80.7 128.6 81.1Q128.3 81.4 128.0 81.6Q127.6 81.9 127.2 82.0Q126.7 82.1 126.3 82.1ZM131.5 82L130.5 82L130.5 75.4L131.5 75.4L131.5 76.5L131.5 76.5Q131.7 76.0 132.2 75.7Q132.7 75.4 133.2 75.4L133.2 75.4Q133.4 75.4 133.5 75.4Q133.7 75.4 133.8 75.4L133.8 75.4L133.8 76.4Q133.7 76.4 133.5 76.4Q133.4 76.4 133.1 76.4L133.1 76.4Q132.7 76.4 132.3 76.6Q131.9 76.8 131.7 77.1Q131.5 77.5 131.5 77.9L131.5 77.9L131.5 82ZM136.0 82L135.0 82L135.0 75.4L136.0 75.4L136.0 82ZM135.5 74.4L135.5 74.4Q135.2 74.4 135.0 74.2Q134.8 74.0 134.8 73.7L134.8 73.7Q134.8 73.4 135.0 73.2Q135.2 73.0 135.5 73.0L135.5 73.0Q135.8 73.0 136.0 73.2Q136.2 73.4 136.2 73.7L136.2 73.7Q136.2 74.0 136.0 74.2Q135.8 74.4 135.5 74.4ZM138.9 84.4L137.9 84.4L137.9 75.4L138.9 75.4L138.9 76.5L139.0 76.5Q139.1 76.3 139.3 76.1Q139.5 75.8 139.9 75.6Q140.3 75.4 140.9 75.4L140.9 75.4Q141.7 75.4 142.4 75.8Q143.0 76.2 143.3 76.9Q143.7 77.7 143.7 78.7L143.7 78.7Q143.7 79.8 143.3 80.5Q143.0 81.3 142.4 81.7Q141.7 82.1 140.9 82.1L140.9 82.1Q140.3 82.1 139.9 81.9Q139.5 81.7 139.3 81.4Q139.1 81.2 139.0 81.0L139.0 81.0L138.9 81.0L138.9 84.4ZM140.8 81.2L140.8 81.2Q141.4 81.2 141.8 80.9Q142.2 80.5 142.4 80.0Q142.6 79.4 142.6 78.7L142.6 78.7Q142.6 78.1 142.4 77.5Q142.2 77.0 141.8 76.6Q141.4 76.3 140.8 76.3L140.8 76.3Q140.2 76.3 139.8 76.6Q139.3 76.9 139.1 77.5Q138.9 78.0 138.9 78.7L138.9 78.7Q138.9 79.5 139.1 80.0Q139.3 80.6 139.8 80.9Q140.2 81.2 140.8 81.2ZM146.5 75.4L147.8 75.4L147.8 76.4L146.5 76.4L146.5 80.3Q146.5 80.7 146.6 80.9Q146.8 81.1 147.2 81.1L147.2 81.1Q147.3 81.1 147.5 81.1Q147.6 81.1 147.8 81.1L147.8 81.1L148.0 82.0Q147.8 82.0 147.6 82.1Q147.4 82.1 147.2 82.1L147.2 82.1Q146.4 82.1 145.9 81.6Q145.4 81.2 145.4 80.4L145.4 80.4L145.4 76.4L144.4 76.4L144.4 75.4L145.4 75.4L145.4 73.9L146.5 73.9L146.5 75.4Z M153.3 78.6L153.3 78.6Q153.0 78.6 152.8 78.4Q152.5 78.2 152.5 77.9L152.5 77.9Q152.5 77.5 152.8 77.3Q153.0 77.1 153.3 77.1L153.3 77.1Q153.7 77.1 153.9 77.3Q154.1 77.5 154.1 77.9L154.1 77.9Q154.1 78.2 153.9 78.4Q153.7 78.6 153.3 78.6Z M164.9 82L159.5 82L159.5 73.3L164.8 73.3L164.8 74.3L160.6 74.3L160.6 77.1L164.5 77.1L164.5 78.1L160.6 78.1L160.6 81.0L164.9 81.0L164.9 82ZM167.2 82L166.0 82L168.3 78.6L166.2 75.4L167.4 75.4L168.2 76.7Q168.5 77.2 168.8 77.6L168.8 77.6Q168.9 77.8 169.0 78.0L169.0 78.0Q169.1 77.8 169.1 77.6L169.1 77.6Q169.4 77.2 169.7 76.7L169.7 76.7L170.5 75.4L171.7 75.4L169.5 78.7L171.8 82L170.6 82L169.6 80.5Q169.3 80.0 169.1 79.6L169.1 79.6Q169.0 79.5 168.9 79.3L168.9 79.3Q168.8 79.5 168.7 79.6L168.7 79.6Q168.5 80.0 168.2 80.5L168.2 80.5L167.2 82ZM174.2 84.4L173.1 84.4L173.1 75.4L174.1 75.4L174.1 76.5L174.3 76.5Q174.4 76.3 174.6 76.1Q174.8 75.8 175.1 75.6Q175.5 75.4 176.2 75.4L176.2 75.4Q177.0 75.4 177.6 75.8Q178.2 76.2 178.6 76.9Q178.9 77.7 178.9 78.7L178.9 78.7Q178.9 79.8 178.6 80.5Q178.2 81.3 177.6 81.7Q177.0 82.1 176.2 82.1L176.2 82.1Q175.5 82.1 175.2 81.9Q174.8 81.7 174.6 81.4Q174.4 81.2 174.3 81.0L174.3 81.0L174.2 81.0L174.2 84.4ZM176.0 81.2L176.0 81.2Q176.6 81.2 177.0 80.9Q177.4 80.5 177.7 80.0Q177.9 79.4 177.9 78.7L177.9 78.7Q177.9 78.1 177.7 77.5Q177.5 77.0 177.0 76.6Q176.6 76.3 176.0 76.3L176.0 76.3Q175.4 76.3 175.0 76.6Q174.6 76.9 174.4 77.5Q174.2 78.0 174.2 78.7L174.2 78.7Q174.2 79.5 174.4 80.0Q174.6 80.6 175.0 80.9Q175.4 81.2 176.0 81.2ZM181.5 82L180.5 82L180.5 75.4L181.5 75.4L181.5 76.5L181.6 76.5Q181.7 76.0 182.2 75.7Q182.7 75.4 183.3 75.4L183.3 75.4Q183.4 75.4 183.5 75.4Q183.7 75.4 183.8 75.4L183.8 75.4L183.8 76.4Q183.7 76.4 183.6 76.4Q183.4 76.4 183.2 76.4L183.2 76.4Q182.7 76.4 182.3 76.6Q181.9 76.8 181.7 77.1Q181.5 77.5 181.5 77.9L181.5 77.9L181.5 82ZM187.7 82.1L187.7 82.1Q186.8 82.1 186.1 81.7Q185.4 81.3 185.0 80.5Q184.7 79.8 184.7 78.8Q184.7 77.8 185.0 77.0Q185.4 76.2 186.1 75.8Q186.7 75.4 187.6 75.4L187.6 75.4Q188.1 75.4 188.6 75.5Q189.2 75.7 189.6 76.1Q190.0 76.5 190.2 77.1Q190.5 77.7 190.5 78.6L190.5 78.6L190.5 79.1L185.7 79.1Q185.8 79.7 186.0 80.2L186.0 80.2Q186.2 80.7 186.7 80.9Q187.2 81.2 187.8 81.2L187.8 81.2Q188.1 81.2 188.5 81.1Q188.8 81.0 189.0 80.8Q189.2 80.5 189.3 80.2L189.3 80.2L190.4 80.5Q190.2 81.0 189.9 81.3Q189.5 81.7 189.0 81.9Q188.4 82.1 187.7 82.1ZM185.7 78.2L185.7 78.2L189.4 78.2Q189.4 77.7 189.2 77.4L189.2 77.4Q189.0 76.9 188.6 76.6Q188.2 76.3 187.6 76.3Q187.0 76.3 186.6 76.6Q186.2 76.9 186.0 77.3L186.0 77.3Q185.8 77.7 185.7 78.2ZM194.2 82.1L194.2 82.1Q193.5 82.1 193.0 81.9Q192.5 81.7 192.2 81.4Q191.8 81.0 191.7 80.4L191.7 80.4L192.7 80.2Q192.8 80.7 193.2 81.0Q193.6 81.2 194.2 81.2L194.2 81.2Q194.9 81.2 195.3 80.9Q195.7 80.6 195.7 80.2L195.7 80.2Q195.7 79.9 195.5 79.7Q195.2 79.4 194.7 79.3L194.7 79.3L193.7 79.1Q192.8 78.9 192.3 78.4Q191.9 78.0 191.9 77.3L191.9 77.3Q191.9 76.7 192.2 76.3Q192.5 75.9 193.1 75.6Q193.6 75.4 194.3 75.4L194.3 75.4Q195.0 75.4 195.5 75.6Q195.9 75.8 196.2 76.1Q196.5 76.5 196.7 76.9L196.7 76.9L195.7 77.2Q195.6 76.8 195.3 76.6Q195.0 76.3 194.3 76.3L194.3 76.3Q193.7 76.3 193.3 76.5Q193.0 76.8 193.0 77.2L193.0 77.2Q193.0 77.6 193.2 77.8Q193.5 78.0 194.1 78.2L194.1 78.2L195.1 78.4Q195.9 78.6 196.4 79.0Q196.8 79.5 196.8 80.2L196.8 80.2Q196.8 80.7 196.5 81.2Q196.1 81.6 195.6 81.9Q195.0 82.1 194.2 82.1ZM200.5 82.1L200.5 82.1Q199.9 82.1 199.3 81.9Q198.8 81.7 198.5 81.4Q198.1 81.0 198.0 80.4L198.0 80.4L199.0 80.2Q199.2 80.7 199.6 81.0Q199.9 81.2 200.5 81.2L200.5 81.2Q201.2 81.2 201.6 80.9Q202.0 80.6 202.0 80.2L202.0 80.2Q202.0 79.9 201.8 79.7Q201.6 79.4 201.1 79.3L201.1 79.3L200.0 79.1Q199.1 78.9 198.7 78.4Q198.2 78.0 198.2 77.3L198.2 77.3Q198.2 76.7 198.5 76.3Q198.9 75.9 199.4 75.6Q200.0 75.4 200.7 75.4L200.7 75.4Q201.3 75.4 201.8 75.6Q202.3 75.8 202.6 76.1Q202.9 76.5 203.0 76.9L203.0 76.9L202.1 77.2Q201.9 76.8 201.6 76.6Q201.3 76.3 200.7 76.3L200.7 76.3Q200.1 76.3 199.7 76.5Q199.3 76.8 199.3 77.2L199.3 77.2Q199.3 77.6 199.6 77.8Q199.8 78.0 200.4 78.2L200.4 78.2L201.4 78.4Q202.3 78.6 202.7 79.0Q203.1 79.5 203.1 80.2L203.1 80.2Q203.1 80.7 202.8 81.2Q202.5 81.6 201.9 81.9Q201.3 82.1 200.5 82.1Z M208.8 78.6L208.8 78.6Q208.5 78.6 208.3 78.4Q208.0 78.2 208.0 77.9L208.0 77.9Q208.0 77.5 208.3 77.3Q208.5 77.1 208.8 77.1L208.8 77.1Q209.2 77.1 209.4 77.3Q209.6 77.5 209.6 77.9L209.6 77.9Q209.6 78.2 209.4 78.4Q209.2 78.6 208.8 78.6Z M216.1 82L215.0 82L215.0 73.3L216.6 73.3L218.7 78.8Q218.8 79.0 218.9 79.3Q219.0 79.6 219.1 79.9Q219.2 80.2 219.3 80.6L219.3 80.6Q219.3 80.7 219.4 80.8L219.4 80.8Q219.4 80.7 219.4 80.6L219.4 80.6Q219.5 80.3 219.6 79.9Q219.7 79.6 219.8 79.3Q219.9 79.0 220.0 78.8L220.0 78.8L222.1 73.3L223.7 73.3L223.7 82L222.6 82L222.6 77.0Q222.6 76.7 222.6 76.4Q222.6 76.1 222.6 75.7Q222.6 75.3 222.7 74.9L222.7 74.9Q222.7 74.7 222.7 74.5L222.7 74.5Q222.6 74.7 222.5 75.0L222.5 75.0Q222.4 75.4 222.2 75.8Q222.1 76.2 222.0 76.5Q221.9 76.8 221.8 77.0L221.8 77.0L219.8 82L218.9 82L216.9 77.0Q216.8 76.8 216.7 76.5Q216.6 76.2 216.5 75.8Q216.3 75.4 216.2 75.0L216.2 75.0Q216.1 74.7 216.0 74.5L216.0 74.5Q216.0 74.7 216.0 74.8L216.0 74.8Q216.0 75.2 216.0 75.6Q216.0 76.0 216.0 76.4Q216.1 76.7 216.1 77.0L216.1 77.0L216.1 82ZM228.4 82.1L228.4 82.1Q227.5 82.1 226.8 81.7Q226.1 81.3 225.8 80.5Q225.4 79.8 225.4 78.8L225.4 78.8Q225.4 77.7 225.8 77.0Q226.1 76.2 226.8 75.8Q227.5 75.4 228.4 75.4L228.4 75.4Q229.3 75.4 229.9 75.8Q230.6 76.2 231.0 77.0Q231.4 77.7 231.4 78.8L231.4 78.8Q231.4 79.8 231.0 80.5Q230.6 81.3 229.9 81.7Q229.3 82.1 228.4 82.1ZM228.4 81.2L228.4 81.2Q229.0 81.2 229.5 80.9Q229.9 80.5 230.1 80.0Q230.3 79.4 230.3 78.8L230.3 78.8Q230.3 78.1 230.1 77.6Q229.9 77.0 229.5 76.7Q229.0 76.3 228.4 76.3L228.4 76.3Q227.7 76.3 227.3 76.7Q226.9 77.0 226.7 77.6Q226.5 78.1 226.5 78.8L226.5 78.8Q226.5 79.4 226.7 80.0Q226.9 80.5 227.3 80.9Q227.7 81.2 228.4 81.2ZM235.4 82.1L235.4 82.1Q234.5 82.1 233.9 81.7Q233.3 81.3 232.9 80.5Q232.6 79.8 232.6 78.7L232.6 78.7Q232.6 77.7 232.9 76.9Q233.3 76.2 233.9 75.8Q234.5 75.4 235.4 75.4L235.4 75.4Q236.0 75.4 236.4 75.6Q236.7 75.8 236.9 76.1Q237.2 76.3 237.3 76.5L237.3 76.5L237.3 76.5L237.3 73.3L238.4 73.3L238.4 82L237.4 82L237.4 81.0L237.3 81.0Q237.2 81.2 236.9 81.4Q236.7 81.7 236.4 81.9Q236.0 82.1 235.4 82.1ZM235.5 81.2L235.5 81.2Q236.1 81.2 236.5 80.9Q236.9 80.6 237.1 80.0Q237.3 79.5 237.3 78.7L237.3 78.7Q237.3 78.0 237.1 77.5Q236.9 76.9 236.5 76.6Q236.1 76.3 235.5 76.3L235.5 76.3Q234.9 76.3 234.5 76.6Q234.1 77.0 233.9 77.5Q233.7 78.1 233.7 78.7L233.7 78.7Q233.7 79.4 233.9 80.0Q234.1 80.5 234.5 80.9Q234.9 81.2 235.5 81.2ZM242.5 82.1L242.5 82.1Q241.8 82.1 241.3 81.8Q240.8 81.5 240.5 81.0Q240.2 80.4 240.2 79.6L240.2 79.6L240.2 75.4L241.3 75.4L241.3 79.5Q241.3 80.3 241.7 80.7Q242.1 81.1 242.8 81.1L242.8 81.1Q243.3 81.1 243.6 80.9Q244.0 80.7 244.2 80.3Q244.4 79.9 244.4 79.4L244.4 79.4L244.4 75.4L245.5 75.4L245.5 82L244.5 82L244.5 80.8Q244.2 81.4 243.7 81.7L243.7 81.7Q243.2 82.1 242.5 82.1ZM247.3 73.3L248.4 73.3L248.4 82L247.3 82L247.3 73.3ZM253 82.1L253 82.1Q252.1 82.1 251.4 81.7Q250.7 81.3 250.3 80.5Q249.9 79.8 249.9 78.8Q249.9 77.8 250.3 77.0Q250.7 76.2 251.3 75.8Q252.0 75.4 252.9 75.4L252.9 75.4Q253.4 75.4 253.9 75.5Q254.4 75.7 254.8 76.1Q255.2 76.5 255.5 77.1Q255.7 77.7 255.7 78.6L255.7 78.6L255.7 79.1L251.0 79.1Q251.0 79.7 251.2 80.2L251.2 80.2Q251.5 80.7 252.0 80.9Q252.4 81.2 253.0 81.2L253.0 81.2Q253.4 81.2 253.7 81.1Q254.0 81.0 254.3 80.8Q254.5 80.5 254.6 80.2L254.6 80.2L255.6 80.5Q255.5 81.0 255.1 81.3Q254.7 81.7 254.2 81.9Q253.7 82.1 253 82.1ZM251.0 78.2L251.0 78.2L254.7 78.2Q254.6 77.7 254.5 77.4L254.5 77.4Q254.3 76.9 253.9 76.6Q253.5 76.3 252.9 76.3Q252.3 76.3 251.9 76.6Q251.4 76.9 251.2 77.3L251.2 77.3Q251.0 77.7 251.0 78.2Z M261.9 82L260.7 82L260.7 73.3L266.0 73.3L266.0 74.3L261.9 74.3L261.9 77.2L265.6 77.2L265.6 78.2L261.9 78.2L261.9 82ZM270.5 82.1L270.5 82.1Q269.5 82.1 268.8 81.7Q268.1 81.3 267.8 80.5Q267.4 79.8 267.4 78.8Q267.4 77.8 267.7 77.0Q268.1 76.2 268.8 75.8Q269.4 75.4 270.3 75.4L270.3 75.4Q270.9 75.4 271.4 75.5Q271.9 75.7 272.3 76.1Q272.7 76.5 272.9 77.1Q273.2 77.7 273.2 78.6L273.2 78.6L273.2 79.1L268.5 79.1Q268.5 79.7 268.7 80.2L268.7 80.2Q269.0 80.7 269.4 80.9Q269.9 81.2 270.5 81.2L270.5 81.2Q270.8 81.2 271.2 81.1Q271.5 81.0 271.7 80.8Q271.9 80.5 272.1 80.2L272.1 80.2L273.1 80.5Q272.9 81.0 272.6 81.3Q272.2 81.7 271.7 81.9Q271.1 82.1 270.5 82.1ZM268.5 78.2L268.5 78.2L272.1 78.2Q272.1 77.7 271.9 77.4L271.9 77.4Q271.7 76.9 271.3 76.6Q270.9 76.3 270.3 76.3Q269.7 76.3 269.3 76.6Q268.9 76.9 268.7 77.3L268.7 77.3Q268.5 77.7 268.5 78.2ZM277.2 82.1L277.2 82.1Q276.3 82.1 275.7 81.7Q275.1 81.3 274.7 80.5Q274.4 79.8 274.4 78.7L274.4 78.7Q274.4 77.7 274.7 76.9Q275.1 76.2 275.7 75.8Q276.3 75.4 277.2 75.4L277.2 75.4Q277.8 75.4 278.2 75.6Q278.5 75.8 278.7 76.1Q279.0 76.3 279.1 76.5L279.1 76.5L279.1 76.5L279.1 73.3L280.2 73.3L280.2 82L279.2 82L279.2 81.0L279.1 81.0Q279.0 81.2 278.7 81.4Q278.5 81.7 278.2 81.9Q277.8 82.1 277.2 82.1ZM277.3 81.2L277.3 81.2Q277.9 81.2 278.3 80.9Q278.7 80.6 278.9 80.0Q279.2 79.5 279.2 78.7L279.2 78.7Q279.2 78.0 278.9 77.5Q278.7 76.9 278.3 76.6Q277.9 76.3 277.3 76.3L277.3 76.3Q276.7 76.3 276.3 76.6Q275.9 77.0 275.7 77.5Q275.5 78.1 275.5 78.7L275.5 78.7Q275.5 79.4 275.7 80.0Q275.9 80.5 276.3 80.9Q276.7 81.2 277.3 81.2ZM284.8 82.1L284.8 82.1Q283.8 82.1 283.2 81.7Q282.5 81.3 282.1 80.5Q281.7 79.8 281.7 78.8Q281.7 77.8 282.1 77.0Q282.5 76.2 283.1 75.8Q283.8 75.4 284.7 75.4L284.7 75.4Q285.2 75.4 285.7 75.5Q286.2 75.7 286.6 76.1Q287.0 76.5 287.3 77.1Q287.5 77.7 287.5 78.6L287.5 78.6L287.5 79.1L282.8 79.1Q282.8 79.7 283.0 80.2L283.0 80.2Q283.3 80.7 283.8 80.9Q284.2 81.2 284.8 81.2L284.8 81.2Q285.2 81.2 285.5 81.1Q285.8 81.0 286.1 80.8Q286.3 80.5 286.4 80.2L286.4 80.2L287.4 80.5Q287.3 81.0 286.9 81.3Q286.5 81.7 286.0 81.9Q285.5 82.1 284.8 82.1ZM282.8 78.2L282.8 78.2L286.5 78.2Q286.4 77.7 286.3 77.4L286.3 77.4Q286.1 76.9 285.7 76.6Q285.3 76.3 284.7 76.3Q284.1 76.3 283.7 76.6Q283.2 76.9 283.0 77.3L283.0 77.3Q282.8 77.7 282.8 78.2ZM290.1 82L289.0 82L289.0 75.4L290.1 75.4L290.1 76.5L290.1 76.5Q290.3 76.0 290.8 75.7Q291.2 75.4 291.8 75.4L291.8 75.4Q291.9 75.4 292.1 75.4Q292.3 75.4 292.4 75.4L292.4 75.4L292.4 76.4Q292.3 76.4 292.1 76.4Q291.9 76.4 291.7 76.4L291.7 76.4Q291.3 76.4 290.9 76.6Q290.5 76.8 290.3 77.1Q290.1 77.5 290.1 77.9L290.1 77.9L290.1 82ZM295.4 82.2L295.4 82.2Q294.8 82.2 294.3 81.9Q293.8 81.7 293.5 81.2Q293.2 80.8 293.2 80.1L293.2 80.1Q293.2 79.6 293.4 79.2Q293.6 78.9 294.0 78.7Q294.3 78.5 294.8 78.4Q295.3 78.3 295.7 78.2L295.7 78.2Q296.3 78.1 296.7 78.1Q297.0 78.1 297.2 78.0Q297.4 77.9 297.4 77.6L297.4 77.6L297.4 77.6Q297.4 77.2 297.2 76.9Q297.1 76.6 296.8 76.4Q296.5 76.3 296.0 76.3L296.0 76.3Q295.6 76.3 295.2 76.4Q294.9 76.6 294.7 76.8Q294.5 77.0 294.4 77.3L294.4 77.3L293.3 76.9Q293.6 76.3 294.0 76.0Q294.5 75.6 295.0 75.5Q295.5 75.4 296.0 75.4L296.0 75.4Q296.3 75.4 296.7 75.4Q297.2 75.5 297.5 75.8Q297.9 76.0 298.2 76.5Q298.4 76.9 298.4 77.7L298.4 77.7L298.4 82L297.4 82L297.4 81.1L297.3 81.1Q297.2 81.3 297.0 81.6Q296.7 81.8 296.3 82.0Q295.9 82.2 295.4 82.2ZM295.6 81.2L295.6 81.2Q296.2 81.2 296.6 81.0Q297.0 80.8 297.2 80.4Q297.4 80.0 297.4 79.6L297.4 79.6L297.4 78.7Q297.3 78.8 297.1 78.9Q296.9 78.9 296.6 79.0Q296.3 79.0 296.1 79.0Q295.8 79.1 295.7 79.1L295.7 79.1Q295.3 79.1 295.0 79.3Q294.6 79.4 294.4 79.6Q294.2 79.8 294.2 80.2L294.2 80.2Q294.2 80.5 294.4 80.8Q294.6 81.0 294.9 81.1Q295.2 81.2 295.6 81.2ZM301.5 75.4L302.9 75.4L302.9 76.4L301.5 76.4L301.5 80.3Q301.5 80.7 301.7 80.9Q301.9 81.1 302.3 81.1L302.3 81.1Q302.4 81.1 302.6 81.1Q302.7 81.1 302.8 81.1L302.8 81.1L303.1 82.0Q302.9 82.0 302.7 82.1Q302.5 82.1 302.3 82.1L302.3 82.1Q301.4 82.1 300.9 81.6Q300.5 81.2 300.5 80.4L300.5 80.4L300.5 76.4L299.5 76.4L299.5 75.4L300.5 75.4L300.5 73.9L301.5 73.9L301.5 75.4ZM305.3 82L304.2 82L304.2 75.4L305.3 75.4L305.3 82ZM304.8 74.4L304.8 74.4Q304.5 74.4 304.2 74.2Q304.0 74.0 304.0 73.7L304.0 73.7Q304.0 73.4 304.2 73.2Q304.5 73.0 304.8 73.0L304.8 73.0Q305.1 73.0 305.3 73.2Q305.5 73.4 305.5 73.7L305.5 73.7Q305.5 74.0 305.3 74.2Q305.1 74.4 304.8 74.4ZM309.8 82.1L309.8 82.1Q308.9 82.1 308.2 81.7Q307.6 81.3 307.2 80.5Q306.8 79.8 306.8 78.8L306.8 78.8Q306.8 77.7 307.2 77.0Q307.6 76.2 308.2 75.8Q308.9 75.4 309.8 75.4L309.8 75.4Q310.7 75.4 311.4 75.8Q312.0 76.2 312.4 77.0Q312.8 77.7 312.8 78.8L312.8 78.8Q312.8 79.8 312.4 80.5Q312.0 81.3 311.4 81.7Q310.7 82.1 309.8 82.1ZM309.8 81.2L309.8 81.2Q310.5 81.2 310.9 80.9Q311.3 80.5 311.5 80.0Q311.7 79.4 311.7 78.8L311.7 78.8Q311.7 78.1 311.5 77.6Q311.3 77.0 310.9 76.7Q310.5 76.3 309.8 76.3L309.8 76.3Q309.1 76.3 308.7 76.7Q308.3 77.0 308.1 77.6Q307.9 78.1 307.9 78.8L307.9 78.8Q307.9 79.4 308.1 80.0Q308.3 80.5 308.7 80.9Q309.1 81.2 309.8 81.2ZM315.4 78.1L315.4 78.1L315.4 82L314.3 82L314.3 75.4L315.3 75.4L315.3 76.7Q315.6 76.0 316.1 75.7L316.1 75.7Q316.6 75.4 317.3 75.4L317.3 75.4Q318.0 75.4 318.5 75.6Q319.0 75.9 319.3 76.5Q319.6 77.0 319.6 77.8L319.6 77.8L319.6 82L318.5 82L318.5 77.9Q318.5 77.2 318.1 76.7Q317.7 76.3 317.0 76.3L317.0 76.3Q316.6 76.3 316.2 76.5Q315.8 76.7 315.6 77.1Q315.4 77.5 315.4 78.1Z M325.6 78.6L325.6 78.6Q325.3 78.6 325.0 78.4Q324.8 78.2 324.8 77.9L324.8 77.9Q324.8 77.5 325.0 77.3Q325.3 77.1 325.6 77.1L325.6 77.1Q325.9 77.1 326.2 77.3Q326.4 77.5 326.4 77.9L326.4 77.9Q326.4 78.2 326.2 78.4Q325.9 78.6 325.6 78.6Z M334.5 82.2L334.5 82.2Q333.6 82.2 332.9 81.8Q332.2 81.5 331.8 81.0Q331.4 80.4 331.4 79.7L331.4 79.7L332.5 79.7Q332.6 80.2 332.9 80.5Q333.1 80.8 333.6 81.0Q334.0 81.2 334.5 81.2L334.5 81.2Q335.1 81.2 335.6 81.0Q336.1 80.8 336.4 80.4Q336.6 80.1 336.6 79.6L336.6 79.6Q336.6 79.2 336.4 78.9Q336.2 78.7 335.8 78.5Q335.4 78.3 334.9 78.2L334.9 78.2L333.8 77.9Q332.8 77.6 332.2 77.0Q331.6 76.5 331.6 75.6L331.6 75.6Q331.6 74.9 332.0 74.3Q332.4 73.8 333.1 73.5Q333.8 73.2 334.6 73.2L334.6 73.2Q335.5 73.2 336.1 73.5Q336.8 73.8 337.2 74.3Q337.6 74.8 337.6 75.5L337.6 75.5L336.5 75.5Q336.4 74.8 335.9 74.5Q335.4 74.1 334.6 74.1L334.6 74.1Q334.0 74.1 333.6 74.3Q333.2 74.5 332.9 74.8Q332.7 75.1 332.7 75.6L332.7 75.6Q332.7 76.0 333.0 76.3Q333.3 76.6 333.7 76.7Q334.1 76.9 334.4 77.0L334.4 77.0L335.2 77.2Q335.6 77.3 336.0 77.5Q336.4 77.6 336.8 77.9Q337.2 78.2 337.5 78.6Q337.7 79.0 337.7 79.6L337.7 79.6Q337.7 80.3 337.3 80.9Q337.0 81.5 336.3 81.8Q335.6 82.2 334.5 82.2ZM340.6 75.4L341.9 75.4L341.9 76.4L340.6 76.4L340.6 80.3Q340.6 80.7 340.7 80.9Q340.9 81.1 341.3 81.1L341.3 81.1Q341.4 81.1 341.6 81.1Q341.7 81.1 341.9 81.1L341.9 81.1L342.1 82.0Q341.9 82.0 341.7 82.1Q341.5 82.1 341.3 82.1L341.3 82.1Q340.4 82.1 340.0 81.6Q339.5 81.2 339.5 80.4L339.5 80.4L339.5 76.4L338.5 76.4L338.5 75.4L339.5 75.4L339.5 73.9L340.6 73.9L340.6 75.4ZM344.3 82L343.2 82L343.2 75.4L344.3 75.4L344.3 76.5L344.3 76.5Q344.5 76.0 345.0 75.7Q345.4 75.4 346.0 75.4L346.0 75.4Q346.2 75.4 346.3 75.4Q346.5 75.4 346.6 75.4L346.6 75.4L346.6 76.4Q346.5 76.4 346.3 76.4Q346.1 76.4 345.9 76.4L345.9 76.4Q345.5 76.4 345.1 76.6Q344.7 76.8 344.5 77.1Q344.3 77.5 344.3 77.9L344.3 77.9L344.3 82ZM348.8 82L347.8 82L347.8 75.4L348.8 75.4L348.8 82ZM348.3 74.4L348.3 74.4Q348.0 74.4 347.8 74.2Q347.6 74.0 347.6 73.7L347.6 73.7Q347.6 73.4 347.8 73.2Q348.0 73.0 348.3 73.0L348.3 73.0Q348.6 73.0 348.8 73.2Q349.0 73.4 349.0 73.7L349.0 73.7Q349.0 74.0 348.8 74.2Q348.6 74.4 348.3 74.4ZM351.7 84.4L350.7 84.4L350.7 75.4L351.7 75.4L351.7 76.5L351.8 76.5Q351.9 76.3 352.1 76.1Q352.3 75.8 352.7 75.6Q353.1 75.4 353.7 75.4L353.7 75.4Q354.5 75.4 355.1 75.8Q355.8 76.2 356.1 76.9Q356.5 77.7 356.5 78.7L356.5 78.7Q356.5 79.8 356.1 80.5Q355.8 81.3 355.2 81.7Q354.5 82.1 353.7 82.1L353.7 82.1Q353.1 82.1 352.7 81.9Q352.3 81.7 352.1 81.4Q351.9 81.2 351.8 81.0L351.8 81.0L351.7 81.0L351.7 84.4ZM353.6 81.2L353.6 81.2Q354.2 81.2 354.6 80.9Q355.0 80.5 355.2 80.0Q355.4 79.4 355.4 78.7L355.4 78.7Q355.4 78.1 355.2 77.5Q355 77.0 354.6 76.6Q354.2 76.3 353.6 76.3L353.6 76.3Q352.9 76.3 352.5 76.6Q352.1 76.9 351.9 77.5Q351.7 78.0 351.7 78.7L351.7 78.7Q351.7 79.5 351.9 80.0Q352.1 80.6 352.5 80.9Q353.0 81.2 353.6 81.2ZM360.8 82.1L360.8 82.1Q359.8 82.1 359.1 81.7Q358.4 81.3 358.1 80.5Q357.7 79.8 357.7 78.8Q357.7 77.8 358.1 77.0Q358.4 76.2 359.1 75.8Q359.8 75.4 360.6 75.4L360.6 75.4Q361.2 75.4 361.7 75.5Q362.2 75.7 362.6 76.1Q363.0 76.5 363.3 77.1Q363.5 77.7 363.5 78.6L363.5 78.6L363.5 79.1L358.8 79.1Q358.8 79.7 359.0 80.2L359.0 80.2Q359.3 80.7 359.7 80.9Q360.2 81.2 360.8 81.2L360.8 81.2Q361.2 81.2 361.5 81.1Q361.8 81.0 362.0 80.8Q362.3 80.5 362.4 80.2L362.4 80.2L363.4 80.5Q363.2 81.0 362.9 81.3Q362.5 81.7 362.0 81.9Q361.4 82.1 360.8 82.1ZM358.8 78.2L358.8 78.2L362.4 78.2Q362.4 77.7 362.2 77.4L362.2 77.4Q362.0 76.9 361.6 76.6Q361.2 76.3 360.6 76.3Q360.1 76.3 359.6 76.6Q359.2 76.9 359.0 77.3L359.0 77.3Q358.8 77.7 358.8 78.2Z M369.2 78.6L369.2 78.6Q368.9 78.6 368.6 78.4Q368.4 78.2 368.4 77.9L368.4 77.9Q368.4 77.5 368.6 77.3Q368.9 77.1 369.2 77.1L369.2 77.1Q369.5 77.1 369.8 77.3Q370.0 77.5 370.0 77.9L370.0 77.9Q370.0 78.2 369.8 78.4Q369.5 78.6 369.2 78.6Z M376.5 82L375.3 82L375.3 73.3L380.6 73.3L380.6 74.3L376.5 74.3L376.5 77.2L380.2 77.2L380.2 78.2L376.5 78.2L376.5 82ZM383.4 82L382.3 82L382.3 75.4L383.4 75.4L383.4 82ZM382.8 74.4L382.8 74.4Q382.5 74.4 382.3 74.2Q382.1 74.0 382.1 73.7L382.1 73.7Q382.1 73.4 382.3 73.2Q382.5 73.0 382.8 73.0L382.8 73.0Q383.1 73.0 383.4 73.2Q383.6 73.4 383.6 73.7L383.6 73.7Q383.6 74.0 383.4 74.2Q383.1 74.4 382.8 74.4ZM386.3 82L385.2 82L385.2 75.4L386.2 75.4L386.2 76.5L386.3 76.5Q386.5 76.0 386.9 75.7Q387.4 75.4 388 75.4L388 75.4Q388.1 75.4 388.3 75.4Q388.4 75.4 388.5 75.4L388.5 75.4L388.5 76.4Q388.5 76.4 388.3 76.4Q388.1 76.4 387.9 76.4L387.9 76.4Q387.4 76.4 387.1 76.6Q386.7 76.8 386.5 77.1Q386.3 77.5 386.3 77.9L386.3 77.9L386.3 82ZM392.5 82.1L392.5 82.1Q391.5 82.1 390.8 81.7Q390.2 81.3 389.8 80.5Q389.4 79.8 389.4 78.8Q389.4 77.8 389.8 77.0Q390.1 76.2 390.8 75.8Q391.5 75.4 392.4 75.4L392.4 75.4Q392.9 75.4 393.4 75.5Q393.9 75.7 394.3 76.1Q394.7 76.5 395.0 77.1Q395.2 77.7 395.2 78.6L395.2 78.6L395.2 79.1L390.5 79.1Q390.5 79.7 390.7 80.2L390.7 80.2Q391.0 80.7 391.4 80.9Q391.9 81.2 392.5 81.2L392.5 81.2Q392.9 81.2 393.2 81.1Q393.5 81.0 393.7 80.8Q394.0 80.5 394.1 80.2L394.1 80.2L395.1 80.5Q395.0 81.0 394.6 81.3Q394.2 81.7 393.7 81.9Q393.2 82.1 392.5 82.1ZM390.5 78.2L390.5 78.2L394.1 78.2Q394.1 77.7 394.0 77.4L394.0 77.4Q393.7 76.9 393.3 76.6Q393.0 76.3 392.4 76.3Q391.8 76.3 391.3 76.6Q390.9 76.9 390.7 77.3L390.7 77.3Q390.5 77.7 390.5 78.2ZM399.8 82.1L399.8 82.1Q399.1 82.1 398.8 81.9Q398.4 81.7 398.2 81.4Q398.0 81.2 397.9 81.0L397.9 81.0L397.7 81.0L397.7 82L396.7 82L396.7 73.3L397.8 73.3L397.8 76.5L397.9 76.5Q398.0 76.3 398.2 76.1Q398.4 75.8 398.7 75.6Q399.1 75.4 399.8 75.4L399.8 75.4Q400.6 75.4 401.2 75.8Q401.8 76.2 402.2 76.9Q402.5 77.7 402.5 78.7L402.5 78.7Q402.5 79.8 402.2 80.5Q401.8 81.3 401.2 81.7Q400.6 82.1 399.8 82.1ZM399.6 81.2L399.6 81.2Q400.2 81.2 400.6 80.9Q401.0 80.5 401.3 80.0Q401.5 79.4 401.5 78.7L401.5 78.7Q401.5 78.1 401.3 77.5Q401.1 77.0 400.6 76.6Q400.2 76.3 399.6 76.3L399.6 76.3Q399.0 76.3 398.6 76.6Q398.2 76.9 398.0 77.5Q397.8 78.0 397.8 78.7L397.8 78.7Q397.8 79.5 398.0 80.0Q398.2 80.6 398.6 80.9Q399.0 81.2 399.6 81.2ZM405.9 82.2L405.9 82.2Q405.3 82.2 404.8 81.9Q404.3 81.7 404.0 81.2Q403.7 80.8 403.7 80.1L403.7 80.1Q403.7 79.6 403.9 79.2Q404.1 78.9 404.5 78.7Q404.9 78.5 405.3 78.4Q405.8 78.3 406.2 78.2L406.2 78.2Q406.8 78.1 407.2 78.1Q407.5 78.1 407.7 78.0Q407.9 77.9 407.9 77.6L407.9 77.6L407.9 77.6Q407.9 77.2 407.8 76.9Q407.6 76.6 407.3 76.4Q407.0 76.3 406.5 76.3L406.5 76.3Q406.1 76.3 405.7 76.4Q405.4 76.6 405.2 76.8Q405.0 77.0 404.9 77.3L404.9 77.3L403.9 76.9Q404.1 76.3 404.5 76.0Q405.0 75.6 405.5 75.5Q406 75.4 406.5 75.4L406.5 75.4Q406.8 75.4 407.3 75.4Q407.7 75.5 408.1 75.8Q408.4 76.0 408.7 76.5Q409.0 76.9 409.0 77.7L409.0 77.7L409.0 82L407.9 82L407.9 81.1L407.9 81.1Q407.7 81.3 407.5 81.6Q407.2 81.8 406.9 82.0Q406.5 82.2 405.9 82.2ZM406.1 81.2L406.1 81.2Q406.7 81.2 407.1 81.0Q407.5 80.8 407.7 80.4Q407.9 80.0 407.9 79.6L407.9 79.6L407.9 78.7Q407.8 78.8 407.6 78.9Q407.4 78.9 407.1 79.0Q406.8 79.0 406.6 79.0Q406.3 79.1 406.2 79.1L406.2 79.1Q405.8 79.1 405.5 79.3Q405.1 79.4 404.9 79.6Q404.7 79.8 404.7 80.2L404.7 80.2Q404.7 80.5 404.9 80.8Q405.1 81.0 405.4 81.1Q405.7 81.2 406.1 81.2ZM413.0 82.1L413.0 82.1Q412.4 82.1 411.8 81.9Q411.3 81.7 411.0 81.4Q410.6 81.0 410.5 80.4L410.5 80.4L411.5 80.2Q411.7 80.7 412.0 81.0Q412.4 81.2 413.0 81.2L413.0 81.2Q413.7 81.2 414.1 80.9Q414.5 80.6 414.5 80.2L414.5 80.2Q414.5 79.9 414.3 79.7Q414.1 79.4 413.6 79.3L413.6 79.3L412.5 79.1Q411.6 78.9 411.2 78.4Q410.7 78.0 410.7 77.3L410.7 77.3Q410.7 76.7 411.0 76.3Q411.3 75.9 411.9 75.6Q412.4 75.4 413.1 75.4L413.1 75.4Q413.8 75.4 414.3 75.6Q414.8 75.8 415.1 76.1Q415.4 76.5 415.5 76.9L415.5 76.9L414.5 77.2Q414.4 76.8 414.1 76.6Q413.8 76.3 413.1 76.3L413.1 76.3Q412.6 76.3 412.2 76.5Q411.8 76.8 411.8 77.2L411.8 77.2Q411.8 77.6 412.0 77.8Q412.3 78.0 412.9 78.2L412.9 78.2L413.9 78.4Q414.8 78.6 415.2 79.0Q415.6 79.5 415.6 80.2L415.6 80.2Q415.6 80.7 415.3 81.2Q415.0 81.6 414.4 81.9Q413.8 82.1 413.0 82.1ZM419.9 82.1L419.9 82.1Q418.9 82.1 418.3 81.7Q417.6 81.3 417.2 80.5Q416.8 79.8 416.8 78.8Q416.8 77.8 417.2 77.0Q417.6 76.2 418.2 75.8Q418.9 75.4 419.8 75.4L419.8 75.4Q420.3 75.4 420.8 75.5Q421.3 75.7 421.7 76.1Q422.1 76.5 422.4 77.1Q422.6 77.7 422.6 78.6L422.6 78.6L422.6 79.1L417.9 79.1Q417.9 79.7 418.1 80.2L418.1 80.2Q418.4 80.7 418.9 80.9Q419.3 81.2 419.9 81.2L419.9 81.2Q420.3 81.2 420.6 81.1Q420.9 81.0 421.2 80.8Q421.4 80.5 421.5 80.2L421.5 80.2L422.5 80.5Q422.4 81.0 422.0 81.3Q421.6 81.7 421.1 81.9Q420.6 82.1 419.9 82.1ZM417.9 78.2L417.9 78.2L421.6 78.2Q421.5 77.7 421.4 77.4L421.4 77.4Q421.2 76.9 420.8 76.6Q420.4 76.3 419.8 76.3Q419.2 76.3 418.8 76.6Q418.3 76.9 418.1 77.3L418.1 77.3Q417.9 77.7 417.9 78.2Z "/></g><mask id="satori_om-id-1-2-1"><rect x="790" y="70" width="82" height="15" fill="#fff" mask="url(#satori_om-id)"/></mask><g mask="url(#satori_om-id)" clip-path="url(#satori_cp-id)"><path fill="#22d3ee" d="M793.7 82.1L793.7 82.1Q792.7 82.1 792.0 81.7Q791.3 81.3 790.9 80.6Q790.5 79.8 790.5 78.8L790.5 78.8Q790.5 77.7 790.9 77.0Q791.2 76.2 792.0 75.8Q792.7 75.4 793.6 75.4L793.6 75.4Q794.3 75.4 794.8 75.6Q795.4 75.8 795.8 76.2Q796.2 76.6 796.5 77.2Q796.7 77.8 796.7 78.7L796.7 78.7L796.7 79.2L792.2 79.2Q792.2 79.7 792.4 80.0L792.4 80.0Q792.6 80.4 792.9 80.6Q793.3 80.8 793.7 80.8L793.7 80.8Q794.0 80.8 794.3 80.7Q794.6 80.6 794.7 80.5Q794.9 80.3 795.0 80.0L795.0 80.0L796.6 80.3Q796.4 80.9 796.0 81.3Q795.7 81.7 795.1 81.9Q794.5 82.1 793.7 82.1ZM792.2 78.1L792.2 78.1L795.0 78.1Q795.0 77.8 794.9 77.5L794.9 77.5Q794.7 77.1 794.4 76.9Q794.1 76.7 793.6 76.7L793.6 76.7Q793.2 76.7 792.9 76.9Q792.5 77.1 792.4 77.5L792.4 77.5Q792.3 77.7 792.2 78.1ZM799.7 78.2L799.7 78.2L799.7 82L797.9 82L797.9 75.4L799.6 75.4L799.6 76.8Q799.8 76.2 800.3 75.8L800.3 75.8Q800.8 75.4 801.6 75.4L801.6 75.4Q802.3 75.4 802.8 75.7Q803.3 76.0 803.6 76.5Q803.9 77.1 803.9 77.8L803.9 77.8L803.9 82L802.1 82L802.1 78.1Q802.1 77.5 801.8 77.2Q801.5 76.8 800.9 76.8L800.9 76.8Q800.6 76.8 800.3 77.0Q800.0 77.2 799.8 77.5Q799.7 77.8 799.7 78.2Z M810.0 84.4L808.2 84.4L808.2 75.4L809.9 75.4L809.9 76.6L810.0 76.6Q810.1 76.3 810.4 76.0Q810.6 75.7 811.0 75.6Q811.3 75.4 811.9 75.4L811.9 75.4Q812.6 75.4 813.2 75.7Q813.8 76.1 814.2 76.9Q814.5 77.6 814.5 78.7L814.5 78.7Q814.5 79.8 814.2 80.6Q813.8 81.3 813.2 81.7Q812.6 82.1 811.9 82.1L811.9 82.1Q811.3 82.1 811.0 81.9Q810.6 81.7 810.4 81.5Q810.1 81.2 810.0 81.0L810.0 81.0L810.0 81.0L810.0 84.4ZM811.3 80.7L811.3 80.7Q811.8 80.7 812.1 80.4Q812.4 80.2 812.6 79.8Q812.7 79.3 812.7 78.7L812.7 78.7Q812.7 78.2 812.6 77.7Q812.4 77.3 812.1 77.0Q811.8 76.8 811.3 76.8L811.3 76.8Q810.9 76.8 810.6 77.0Q810.3 77.3 810.1 77.7Q809.9 78.1 809.9 78.7L809.9 78.7Q809.9 79.3 810.1 79.8Q810.3 80.2 810.6 80.5Q810.9 80.7 811.3 80.7ZM817.5 82L815.8 82L815.8 75.4L817.5 75.4L817.5 76.6L817.5 76.6Q817.7 76.0 818.2 75.7Q818.6 75.4 819.1 75.4L819.1 75.4Q819.3 75.4 819.4 75.4Q819.6 75.4 819.7 75.4L819.7 75.4L819.7 77.0Q819.6 76.9 819.4 76.9Q819.1 76.9 818.9 76.9L818.9 76.9Q818.5 76.9 818.2 77.1Q817.9 77.2 817.7 77.6Q817.5 77.9 817.5 78.3L817.5 78.3L817.5 82ZM823.6 82.1L823.6 82.1Q822.6 82.1 821.9 81.7Q821.2 81.3 820.8 80.5Q820.4 79.8 820.4 78.8L820.4 78.8Q820.4 77.7 820.8 77.0Q821.2 76.2 821.9 75.8Q822.6 75.4 823.6 75.4L823.6 75.4Q824.6 75.4 825.3 75.8Q826.0 76.2 826.4 77.0Q826.8 77.7 826.8 78.8L826.8 78.8Q826.8 79.8 826.4 80.5Q826.0 81.3 825.3 81.7Q824.6 82.1 823.6 82.1ZM823.6 80.7L823.6 80.7Q824.1 80.7 824.4 80.5Q824.7 80.2 824.9 79.8Q825.0 79.3 825.0 78.7L825.0 78.7Q825.0 78.2 824.9 77.7Q824.7 77.3 824.4 77.0Q824.1 76.8 823.6 76.8L823.6 76.8Q823.1 76.8 822.8 77.0Q822.5 77.3 822.3 77.7Q822.2 78.2 822.2 78.7L822.2 78.7Q822.2 79.3 822.3 79.8Q822.5 80.2 822.8 80.5Q823.1 80.7 823.6 80.7ZM830.4 82.1L830.4 82.1Q829.7 82.1 829.1 81.7Q828.4 81.3 828.1 80.6Q827.7 79.8 827.7 78.7L827.7 78.7Q827.7 77.6 828.1 76.9Q828.5 76.1 829.1 75.7Q829.7 75.4 830.4 75.4L830.4 75.4Q831.0 75.4 831.3 75.6Q831.7 75.7 831.9 76.0Q832.2 76.3 832.3 76.6L832.3 76.6L832.3 76.6L832.3 73.3L834.1 73.3L834.1 82L832.4 82L832.4 81.0L832.3 81.0Q832.2 81.2 831.9 81.5Q831.7 81.7 831.3 81.9Q831.0 82.1 830.4 82.1ZM831.0 80.7L831.0 80.7Q831.4 80.7 831.7 80.5Q832.0 80.2 832.2 79.8Q832.4 79.3 832.4 78.7L832.4 78.7Q832.4 78.1 832.2 77.7Q832.0 77.3 831.7 77.0Q831.4 76.8 831.0 76.8L831.0 76.8Q830.5 76.8 830.2 77.0Q829.9 77.3 829.7 77.7Q829.6 78.2 829.6 78.7L829.6 78.7Q829.6 79.3 829.7 79.8Q829.9 80.2 830.2 80.4Q830.5 80.7 831.0 80.7ZM837.8 82.1L837.8 82.1Q837.2 82.1 836.7 81.8Q836.1 81.5 835.9 80.9Q835.6 80.4 835.6 79.6L835.6 79.6L835.6 75.4L837.3 75.4L837.3 79.3Q837.3 79.9 837.7 80.3Q838.0 80.6 838.5 80.6L838.5 80.6Q838.9 80.6 839.2 80.5Q839.5 80.3 839.6 80.0Q839.8 79.7 839.8 79.2L839.8 79.2L839.8 75.4L841.6 75.4L841.6 82L839.9 82L839.9 80.6Q839.6 81.3 839.2 81.6L839.2 81.6Q838.7 82.1 837.8 82.1ZM846.0 82.1L846.0 82.1Q845.0 82.1 844.3 81.7Q843.6 81.3 843.2 80.5Q842.8 79.8 842.8 78.8L842.8 78.8Q842.8 77.7 843.2 77.0Q843.6 76.2 844.3 75.8Q845.0 75.4 846.0 75.4L846.0 75.4Q846.6 75.4 847.1 75.5Q847.6 75.7 847.9 76.0Q848.3 76.2 848.6 76.6Q848.8 77.0 848.9 77.5L848.9 77.5L847.3 77.9Q847.2 77.6 847.1 77.4Q847.0 77.2 846.8 77.0Q846.7 76.9 846.5 76.8Q846.3 76.8 846.0 76.8L846.0 76.8Q845.5 76.8 845.2 77.0Q844.9 77.3 844.7 77.7Q844.6 78.2 844.6 78.7L844.6 78.7Q844.6 79.3 844.7 79.8Q844.9 80.2 845.2 80.5Q845.5 80.7 846.0 80.7L846.0 80.7Q846.3 80.7 846.5 80.7Q846.7 80.6 846.8 80.4Q847.0 80.3 847.1 80.1Q847.2 79.9 847.3 79.6L847.3 79.6L848.9 79.9Q848.8 80.4 848.6 80.8Q848.3 81.2 847.9 81.5Q847.6 81.8 847.1 82.0Q846.6 82.1 846.0 82.1ZM852.1 75.4L853.4 75.4L853.4 76.8L852.1 76.8L852.1 80.1Q852.1 80.4 852.3 80.5Q852.4 80.7 852.7 80.7L852.7 80.7Q852.8 80.7 853.0 80.7Q853.2 80.6 853.3 80.6L853.3 80.6L853.6 81.9Q853.3 82.0 853.0 82.1Q852.7 82.1 852.4 82.1L852.4 82.1Q851.4 82.1 850.9 81.6Q850.4 81.1 850.4 80.2L850.4 80.2L850.4 76.8L849.5 76.8L849.5 75.4L850.4 75.4L850.4 73.9L852.1 73.9L852.1 75.4ZM856.3 82L854.5 82L854.5 75.4L856.3 75.4L856.3 82ZM855.4 74.6L855.4 74.6Q855.0 74.6 854.7 74.3Q854.4 74.1 854.4 73.7L854.4 73.7Q854.4 73.3 854.7 73.1Q855.0 72.8 855.4 72.8L855.4 72.8Q855.8 72.8 856.1 73.0Q856.4 73.3 856.4 73.7L856.4 73.7Q856.4 74.1 856.1 74.3Q855.8 74.6 855.4 74.6ZM860.7 82.1L860.7 82.1Q859.7 82.1 859.0 81.7Q858.3 81.3 857.9 80.5Q857.5 79.8 857.5 78.8L857.5 78.8Q857.5 77.7 857.9 77.0Q858.3 76.2 859.0 75.8Q859.7 75.4 860.7 75.4L860.7 75.4Q861.7 75.4 862.4 75.8Q863.1 76.2 863.5 77.0Q863.9 77.7 863.9 78.8L863.9 78.8Q863.9 79.8 863.5 80.5Q863.1 81.3 862.4 81.7Q861.7 82.1 860.7 82.1ZM860.7 80.7L860.7 80.7Q861.2 80.7 861.5 80.5Q861.8 80.2 862.0 79.8Q862.1 79.3 862.1 78.7L862.1 78.7Q862.1 78.2 862.0 77.7Q861.8 77.3 861.5 77.0Q861.2 76.8 860.7 76.8L860.7 76.8Q860.2 76.8 859.9 77.0Q859.6 77.3 859.4 77.7Q859.3 78.2 859.3 78.7L859.3 78.7Q859.3 79.3 859.4 79.8Q859.6 80.2 859.9 80.5Q860.2 80.7 860.7 80.7ZM866.9 78.2L866.9 78.2L866.9 82L865.1 82L865.1 75.4L866.8 75.4L866.8 76.8Q867.1 76.2 867.5 75.8L867.5 75.8Q868.0 75.4 868.8 75.4L868.8 75.4Q869.5 75.4 870.0 75.7Q870.5 76.0 870.8 76.5Q871.1 77.1 871.1 77.8L871.1 77.8L871.1 82L869.3 82L869.3 78.1Q869.3 77.5 869.0 77.2Q868.7 76.8 868.2 76.8L868.2 76.8Q867.8 76.8 867.5 77.0Q867.2 77.2 867.0 77.5Q866.9 77.8 866.9 78.2Z "/></g></svg>