<!-- Generated by readme-aura https://github.com/collectioneur/readme-aura -->
<svg width="900" height="300" viewBox="0 0 900 300" xmlns="http://www.w3.org/2000/svg"><clipPath id="satori_cp-id"><path x="0" y="0" width="900" height="300" d="M16,0 h868 a16,16 0 0 1 16,16 v268 a16,16 0 0 1 -16,16 h-868 a16,16 0 0 1 -16,-16 v-268 a16,16 0 0 1 16,-16"/></clipPath><mask id="satori_om-id"><rect x="0" y="0" width="900" height="300" fill="#fff"/></mask><path x="0" y="0" width="900" height="300" fill="#04050a" d="M16,0 h868 a16,16 0 0 1 16,16 v268 a16,16 0 0 1 -16,16 h-868 a16,16 0 0 1 -16,-16 v-268 a16,16 0 0 1 16,-16"/><clipPath id="satori_cp-id-0" clip-path="url(#satori_cp-id)"><rect x="0" y="0" width="900" height="300"/></clipPath><mask id="satori_om-id-0"><rect x="0" y="0" width="900" height="300" fill="#fff" mask="url(#satori_om-id)"/></mask><svg x="0" y="0" width="900" height="300" preserveAspectRatio="none" clip-path="url(#satori_cp-id-0)" mask="url(#satori_om-id-0)"><defs><radialGradient id="g1" cx="26%" cy="32%" r="60%"><stop offset="0%" stop-color="#7c3aed" stop-opacity="0.95"></stop><stop offset="100%" stop-color="#04050a" stop-opacity="0"></stop></radialGradient><radialGradient id="g2" cx="76%" cy="70%" r="55%"><stop offset="0%" stop-color="#06b6d4" stop-opacity="0.9"></stop><stop offset="100%" stop-color="#04050a" stop-opacity="0"></stop></radialGradient><radialGradient id="g3" cx="55%" cy="48%" r="45%"><stop offset="0%" stop-color="#f472b6" stop-opacity="0.45"></stop><stop offset="100%" stop-color="#04050a" stop-opacity="0"></stop></radialGradient><linearGradient id="ln" x1="0" y1="0" x2="1" y2="0"><stop offset="0%" stop-color="#22d3ee"></stop><stop offset="50%" stop-color="#a78bfa"></stop><stop offset="100%" stop-color="#f472b6"></stop></linearGradient></defs><rect x="0" y="0" width="900" height="300" fill="#04050a"></rect><ellipse cx="240" cy="90" rx="340" ry="200" fill="url(#g1)"><animate attributeName="opacity" values="0.5;0.95;0.5" dur="5s" repeatCount="indefinite"></animate><animateTransform attributeName="transform" type="translate" values="-60 0;60 0;-60 0" dur="11s" repeatCount="indefinite"></animateTransform></ellipse><ellipse cx="670" cy="190" rx="320" ry="190" fill="url(#g2)"><animate attributeName="opacity" values="0.95;0.5;0.95" dur="7s" repeatCount="indefinite"></animate><animateTransform attributeName="transform" type="translate" values="60 0;-60 0;60 0" dur="14s" repeatCount="indefinite"></animateTransform></ellipse><ellipse cx="450" cy="140" rx="260" ry="160" fill="url(#g3)"><animate attributeName="opacity" values="0.3;0.7;0.3" dur="6s" repeatCount="indefinite"></animate></ellipse><circle cx="150" cy="60" r="2" fill="#22d3ee"><animate attributeName="opacity" values="0.2;1;0.2" dur="3s" repeatCount="indefinite"></animate></circle><circle cx="780" cy="80" r="2" fill="#a78bfa"><animate attributeName="opacity" values="1;0.2;1" dur="4s" repeatCount="indefinite"></animate></circle><circle cx="820" cy="230" r="2" fill="#f472b6"><animate attributeName="opacity" values="0.3;1;0.3" dur="3.5s" repeatCount="indefinite"></animate></circle><circle cx="120" cy="250" r="2" fill="#34d399"><animate attributeName="opacity" values="1;0.3;1" dur="4.5s" repeatCount="indefinite"></animate></circle></svg><mask id="satori_om-id-0-0"><rect x="0" y="0" width="0" height="300" fill="#fff" mask="url(#satori_om-id)"/></mask><mask id="satori_om-id-0-0-0"><rect x="0" y="0" width="0" height="300" fill="#fff" mask="url(#satori_om-id)"/></mask><mask id="satori_om-id-0-0-0-0"><rect x="0" y="0" width="0" height="300" fill="#fff" mask="url(#satori_om-id)"/></mask><mask id="satori_om-id-0-0-0-1"><rect x="0" y="0" width="0" height="300" fill="#fff" mask="url(#satori_om-id)"/></mask><mask id="satori_om-id-0-0-1"><rect x="0" y="0" width="0" height="300" fill="#fff" mask="url(#satori_om-id)"/></mask><mask id="satori_om-id-0-0-1-0"><rect x="0" y="0" width="0" height="300" fill="#fff" mask="url(#satori_om-id)"/></mask><mask id="satori_om-id-0-0-1-1"><rect x="0" y="0" width="0" height="300" fill="#fff" mask="url(#satori_om-id)"/></mask><mask id="satori_om-id-0-0-2"><rect x="0" y="0" width="0" height="300" fill="#fff" mask="url(#satori_om-id)"/></mask><mask id="satori_om-id-0-0-2-0"><rect x="0" y="0" width="0" height="300" fill="#fff" mask="url(#satori_om-id)"/></mask><mask id="satori_om-id-0-0-2-1"><rect x="0" y="0" width="0" height="300" fill="#fff" mask="url(#satori_om-id)"/></mask><mask id="satori_om-id-0-0-3"><rect x="0" y="0" width="0" height="300" fill="#fff" mask="url(#satori_om-id)"/></mask><mask id="satori_om-id-0-0-3-0"><rect x="0" y="0" width="0" height="300" fill="#fff" mask="url(#satori_om-id)"/></mask><mask id="satori_om-id-0-0-3-1"><rect x="0" y="0" width="0" height="300" fill="#fff" mask="url(#satori_om-id)"/></mask><mask id="satori_om-id-0-0-3-2"><rect x="0" y="0" width="0" height="300" fill="#fff" mask="url(#satori_om-id)"/></mask><mask id="satori_om-id-0-1"><rect x="0" y="0" width="0" height="300" fill="#fff" mask="url(#satori_om-id)"/></mask><mask id="satori_om-id-0-2"><rect x="0" y="0" width="0" height="300" fill="#fff" mask="url(#satori_om-id)"/></mask><mask id="satori_om-id-0-2-0"><rect x="0" y="0" width="0" height="300" fill="#fff" mask="url(#satori_om-id)"/></mask><mask id="satori_om-id-0-2-1"><rect x="0" y="0" width="0" height="300" fill="#fff" mask="url(#satori_om-id)"/></mask><mask id="satori_om-id-0-3"><rect x="0" y="0" width="0" height="300" fill="#fff" mask="url(#satori_om-id)"/></mask><mask id="satori_om-id-0-3-0"><rect x="0" y="0" width="0" height="300" fill="#fff" mask="url(#satori_om-id)"/></mask><mask id="satori_om-id-0-3-1"><rect x="0" y="0" width="0" height="300" fill="#fff" mask="url(#satori_om-id)"/></mask><mask id="satori_om-id-0-4"><rect x="0" y="0" width="0" height="300" fill="#fff" mask="url(#satori_om-id)"/></mask><mask id="satori_om-id-0-4-0"><rect x="0" y="0" width="0" height="300" fill="#fff" mask="url(#satori_om-id)"/></mask><mask id="satori_om-id-0-5"><rect x="0" y="0" width="0" height="300" fill="#fff" mask="url(#satori_om-id)"/></mask><mask id="satori_om-id-0-5-0"><rect x="0" y="0" width="0" height="300" fill="#fff" mask="url(#satori_om-id)"/></mask><mask id="satori_om-id-0-6"><rect x="0" y="0" width="0" height="300" fill="#fff" mask="url(#satori_om-id)"/></mask><mask id="satori_om-id-0-6-0"><rect x="0" y="0" width="0" height="300" fill="#fff" mask="url(#satori_om-id)"/></mask><mask id="satori_om-id-0-7"><rect x="0" y="0" width="0" height="300" fill="#fff" mask="url(#satori_om-id)"/></mask><mask id="satori_om-id-0-7-0"><rect x="0" y="0" width="0" height="300" fill="#fff" mask="url(#satori_om-id)"/></mask><mask id="satori_om-id-0-8"><rect x="0" y="0" width="0" height="300" fill="#fff" mask="url(#satori_om-id)"/></mask><mask id="satori_om-id-0-8-0"><rect x="0" y="0" width="0" height="300" fill="#fff" mask="url(#satori_om-id)"/></mask><mask id="satori_om-id-1"><rect x="124" y="55" width="652" height="190" fill="#fff" mask="url(#satori_om-id)"/></mask><clipPath id="satori_bct-id-1-0" clip-path="url(#satori_cp-id)"><path d="M140.8 131L129.1 131L129.1 74.3L140.8 74.3L140.8 97.2L165.5 97.2L165.5 74.3L177.1 74.3L177.1 131L165.5 131L165.5 106.8L140.8 106.8L140.8 131ZM200.0 131L187.1 131L206.5 74.3L221.8 74.3L241.6 131L228.7 131L224.3 117.8L204.2 117.8L200.0 131ZM207.1 108.7L221.3 108.7L219.6 103.6Q218.0 98.3 216.3 92L216.3 92Q215.2 87.9 214.0 83.4L214.0 83.4Q212.9 88.0 211.9 92.1L211.9 92.1Q210.3 98.4 208.7 103.6L208.7 103.6L207.1 108.7ZM272.4 131.8L272.4 131.8Q265.6 131.8 260.6 129.7Q255.5 127.6 252.7 123.5Q249.9 119.4 249.7 113.4L249.7 113.4L261.1 113.4Q261.3 116.3 262.8 118.2Q264.3 120.1 266.7 121.1Q269.2 122.0 272.3 122.0L272.3 122.0Q275.5 122.0 277.8 121.1Q280.1 120.2 281.4 118.6Q282.6 116.9 282.6 114.8L282.6 114.8Q282.6 112.8 281.5 111.5Q280.3 110.2 278.2 109.3Q276.0 108.3 272.9 107.6L272.9 107.6L266.6 106.0Q259.4 104.3 255.3 100.5Q251.3 96.8 251.3 90.6L251.3 90.6Q251.3 85.4 254.0 81.6Q256.8 77.8 261.6 75.6Q266.4 73.5 272.6 73.5L272.6 73.5Q278.9 73.5 283.6 75.6Q288.2 77.8 290.9 81.6Q293.5 85.4 293.6 90.4L293.6 90.4L282.3 90.4Q282.0 87.0 279.4 85.1Q276.8 83.3 272.5 83.3L272.5 83.3Q269.5 83.3 267.5 84.1Q265.4 85.0 264.3 86.4Q263.2 87.9 263.2 89.8L263.2 89.8Q263.2 91.9 264.4 93.3Q265.7 94.7 267.8 95.6Q269.9 96.4 272.3 97.0L272.3 97.0L277.4 98.2Q281.0 99.0 284.1 100.4Q287.1 101.8 289.5 103.8Q291.8 105.8 293.1 108.5Q294.3 111.3 294.3 114.9L294.3 114.9Q294.3 120.0 291.8 123.8Q289.2 127.6 284.2 129.7Q279.3 131.8 272.4 131.8ZM326.5 131.8L326.5 131.8Q319.7 131.8 314.7 129.7Q309.6 127.6 306.8 123.5Q304.0 119.4 303.8 113.4L303.8 113.4L315.1 113.4Q315.4 116.3 316.8 118.2Q318.3 120.1 320.8 121.1Q323.3 122.0 326.4 122.0L326.4 122.0Q329.5 122.0 331.8 121.1Q334.1 120.2 335.4 118.6Q336.7 116.9 336.7 114.8L336.7 114.8Q336.7 112.8 335.6 111.5Q334.4 110.2 332.2 109.3Q330.1 108.3 326.9 107.6L326.9 107.6L320.7 106.0Q313.5 104.3 309.4 100.5Q305.3 96.8 305.3 90.6L305.3 90.6Q305.3 85.4 308.1 81.6Q310.9 77.8 315.7 75.6Q320.5 73.5 326.7 73.5L326.7 73.5Q333.0 73.5 337.6 75.6Q342.3 77.8 344.9 81.6Q347.6 85.4 347.7 90.4L347.7 90.4L336.4 90.4Q336.1 87.0 333.5 85.1Q330.9 83.3 326.6 83.3L326.6 83.3Q323.6 83.3 321.5 84.1Q319.4 85.0 318.3 86.4Q317.3 87.9 317.3 89.8L317.3 89.8Q317.3 91.9 318.5 93.3Q319.8 94.7 321.9 95.6Q324.0 96.4 326.3 97.0L326.3 97.0L331.5 98.2Q335.0 99.0 338.1 100.4Q341.2 101.8 343.5 103.8Q345.9 105.8 347.1 108.5Q348.4 111.3 348.4 114.9L348.4 114.9Q348.4 120.0 345.8 123.8Q343.2 127.6 338.3 129.7Q333.4 131.8 326.5 131.8ZM369.4 131L356.5 131L375.9 74.3L391.1 74.3L411.0 131L398.1 131L393.7 117.8L373.6 117.8L369.4 131ZM376.5 108.7L390.7 108.7L389.0 103.6Q387.4 98.3 385.7 92L385.7 92Q384.6 87.9 383.4 83.4L383.4 83.4Q382.3 88.0 381.3 92.1L381.3 92.1Q379.7 98.4 378.1 103.6L378.1 103.6L376.5 108.7ZM432.9 131L421.0 131L421.0 74.3L434.0 74.3L451.9 103.0Q453.3 105.2 454.7 107.8Q456.1 110.4 457.6 113.5L457.6 113.5Q458.3 115.1 459.0 116.8L459.0 116.8Q458.9 115.4 458.8 113.9L458.8 113.9Q458.6 110.3 458.5 107.0Q458.3 103.8 458.3 101.5L458.3 101.5L458.3 74.3L470.2 74.3L470.2 131L457.2 131L440.9 104.9Q439.1 102.0 437.6 99.3Q436.1 96.5 434.4 93.1L434.4 93.1Q433.4 91.1 432.1 88.6L432.1 88.6Q432.3 90.9 432.4 93.1L432.4 93.1Q432.6 96.8 432.8 99.9Q432.9 103.0 432.9 104.9L432.9 104.9L432.9 131Z M514.5 131L501.7 131L521.1 74.3L536.3 74.3L556.2 131L543.3 131L538.9 117.8L518.7 117.8L514.5 131ZM521.6 108.7L535.9 108.7L534.2 103.6Q532.5 98.3 530.8 92L530.8 92Q529.7 87.9 528.6 83.4L528.6 83.4Q527.4 88.0 526.4 92.1L526.4 92.1Q524.8 98.4 523.3 103.6L523.3 103.6L521.6 108.7ZM566.2 74.3L577.8 74.3L577.8 131L566.2 131L566.2 74.3ZM611.0 131L611.0 131L591.1 131L591.1 74.3L611.2 74.3Q619.8 74.3 625.9 77.7Q632.1 81.1 635.4 87.4Q638.7 93.8 638.7 102.6L638.7 102.6Q638.7 111.5 635.4 117.8Q632.1 124.2 625.9 127.6Q619.7 131 611.0 131ZM602.7 84.3L602.7 121.0L610.5 121.0Q616.0 121.0 619.7 119.0Q623.4 117.1 625.2 113.0Q627.1 108.9 627.1 102.6L627.1 102.6Q627.1 96.3 625.2 92.2Q623.3 88.2 619.7 86.2Q616.0 84.3 610.5 84.3L610.5 84.3L602.7 84.3ZM650.4 74.3L662.0 74.3L662.0 131L650.4 131L650.4 74.3ZM699.3 131L675.3 131L675.3 74.3L697.8 74.3Q704.1 74.3 708.2 76.1Q712.4 78.0 714.5 81.3Q716.6 84.6 716.6 88.8L716.6 88.8Q716.6 92.2 715.2 94.7Q713.9 97.2 711.6 98.8Q709.3 100.3 706.4 101.0L706.4 101.0L706.4 101.6Q709.6 101.7 712.4 103.4Q715.2 105.1 717.0 108.1Q718.8 111.2 718.8 115.3L718.8 115.3Q718.8 119.8 716.6 123.4Q714.3 126.9 710.0 129.0Q705.7 131 699.3 131L699.3 131ZM686.9 106.1L686.9 121.4L697.0 121.4Q702.1 121.4 704.4 119.5Q706.8 117.5 706.8 114.2L706.8 114.2Q706.8 111.8 705.6 110.0Q704.5 108.1 702.4 107.1Q700.2 106.1 697.3 106.1L697.3 106.1L686.9 106.1ZM686.9 83.7L686.9 98.1L696.1 98.1Q698.6 98.1 700.6 97.2Q702.5 96.3 703.7 94.6Q704.8 93.0 704.8 90.7L704.8 90.7Q704.8 87.6 702.6 85.7Q700.4 83.7 696.3 83.7L696.3 83.7L686.9 83.7ZM768.0 131L729.9 131L729.9 74.3L767.9 74.3L767.9 83.9L741.5 83.9L741.5 97.6L765.9 97.6L765.9 107.1L741.5 107.1L741.5 121.4L768.0 121.4L768.0 131Z "/></clipPath><defs><pattern id="satori_pattern_id-1-0_0" x="0" y="0" width="1" height="1" patternUnits="objectBoundingBox"><linearGradient id="satori_biid-1-0_0" x1="0" y1="0" x2="1" y2="0" spreadMethod="pad"><stop offset="0%" stop-color="#22d3ee"/><stop offset="50%" stop-color="#a78bfa"/><stop offset="100%" stop-color="#f472b6"/></linearGradient><rect x="0" y="0" width="652" height="94" fill="url(#satori_biid-1-0_0)"/></pattern></defs><mask id="satori_om-id-1-0"><rect x="124" y="55" width="652" height="94" fill="#fff" mask="url(#satori_om-id)"/></mask><rect x="124" y="55" width="652" height="94" fill="url(#satori_pattern_id-1-0_0)" clip-path="url(#satori_bct-id-1-0)" mask="url(#satori_om-id)"/><defs><clipPath id="satori_bc-id-1-1" clip-path="url(#satori_cp-id)"><path x="306" y="163" width="288" height="36" d="M316,163 h268 a10,10 0 0 1 10,10 v16 a10,10 0 0 1 -10,10 h-268 a10,10 0 0 1 -10,-10 v-16 a10,10 0 0 1 10,-10"/></clipPath></defs><mask id="satori_om-id-1-1"><rect x="307" y="164" width="286" height="34" fill="#fff" mask="url(#satori_om-id)"/><path width="288" height="36" fill="none" stroke="#000" stroke-width="2" d="M308.929,165.929 A10,10 0 0 1 316,163 h268 a10,10 0 0 1 10,10 v16 a10,10 0 0 1 -10,10 h-268 a10,10 0 0 1 -10,-10 v-16 A10,10 0 0 1 308.929,165.929"/></mask><path x="306" y="163" width="288" height="36" fill="#0a0c1490" d="M316,163 h268 a10,10 0 0 1 10,10 v16 a10,10 0 0 1 -10,10 h-268 a10,10 0 0 1 -10,-10 v-16 a10,10 0 0 1 10,-10" clip-path="url(#satori_cp-id)" mask="url(#satori_om-id)"/><path width="288" height="36" clip-path="url(#satori_bc-id-1-1)" fill="none" stroke="#1e293b" stroke-width="2" d="M308.929,165.929 A10,10 0 0 1 316,163 h268 a10,10 0 0 1 10,10 v16 a10,10 0 0 1 -10,10 h-268 a10,10 0 0 1 -10,-10 v-16 A10,10 0 0 1 308.929,165.929"/><mask id="satori_om-id-1-1-0"><rect x="323" y="177" width="9" height="9" fill="#fff" mask="url(#satori_om-id)"/></mask><path x="323" y="177" width="9" height="9" fill="#34d399" d="M327.5,177 h0 a4.5,4.5 0 0 1 4.5,4.5 v0 a4.5,4.5 0 0 1 -4.5,4.5 h0 a4.5,4.5 0 0 1 -4.5,-4.5 v0 a4.5,4.5 0 0 1 4.5,-4.5" clip-path="url(#satori_cp-id)" mask="url(#satori_om-id)"/><mask id="satori_om-id-1-1-0-0"><rect x="323" y="177" width="0" height="9" fill="#fff" mask="url(#satori_om-id)"/></mask><mask id="satori_om-id-1-1-1"><rect x="340" y="172" width="56" height="18" fill="#fff" mask="url(#satori_om-id)"/></mask><g mask="url(#satori_om-id)" clip-path="url(#satori_cp-id)"><path fill="#94a3b8" d="M342.4 183.8L341.2 183.8Q341.2 182.9 341.5 182.3Q341.8 181.8 342.3 181.5Q342.8 181.3 343.4 181.3L343.4 181.3Q343.9 181.3 344.3 181.5Q344.8 181.7 345.4 182.3L345.4 182.3Q345.8 182.6 346.0 182.7Q346.2 182.9 346.5 182.9L346.5 182.9Q347.0 182.9 347.2 182.5Q347.5 182.2 347.5 181.6L347.5 181.6L348.7 181.6Q348.7 182.5 348.4 183.0Q348.1 183.6 347.6 183.8Q347.1 184.1 346.6 184.1L346.6 184.1Q346.0 184.1 345.6 183.8Q345.1 183.6 344.5 183.1L344.5 183.1Q344.1 182.8 343.9 182.6Q343.7 182.5 343.4 182.5L343.4 182.5Q343.0 182.5 342.7 182.8Q342.4 183.1 342.4 183.8L342.4 183.8ZM353.8 175.6L355.0 175.6L351.5 188.6L350.3 188.6L353.8 175.6ZM359.6 187.2L359.6 187.2Q358.5 187.2 357.8 186.7Q357.0 186.1 356.5 185.2Q356.1 184.2 356.1 182.9L356.1 182.9Q356.1 181.6 356.5 180.7Q357.0 179.7 357.8 179.2Q358.5 178.7 359.6 178.7L359.6 178.7Q360.4 178.7 360.8 179.0Q361.3 179.2 361.6 179.6Q361.8 179.9 361.9 180.1L361.9 180.1L362.0 180.1L362.0 176.1L363.4 176.1L363.4 187L362.1 187L362.1 185.7L361.9 185.7Q361.8 186.0 361.5 186.3Q361.3 186.6 360.8 186.9Q360.3 187.2 359.6 187.2ZM359.8 186.0L359.8 186.0Q360.5 186.0 361.0 185.6Q361.5 185.2 361.8 184.5Q362.1 183.8 362.1 182.9L362.1 182.9Q362.1 182.0 361.8 181.3Q361.5 180.6 361.0 180.3Q360.5 179.9 359.8 179.9L359.8 179.9Q359.0 179.9 358.5 180.3Q357.9 180.7 357.7 181.4Q357.4 182.1 357.4 182.9L357.4 182.9Q357.4 183.8 357.7 184.5Q358.0 185.2 358.5 185.6Q359.0 186.0 359.8 186.0ZM369.1 187.2L369.1 187.2Q367.9 187.2 367.1 186.6Q366.2 186.1 365.7 185.2Q365.3 184.2 365.3 183.0Q365.3 181.7 365.7 180.8Q366.2 179.8 367.0 179.3Q367.8 178.7 369.0 178.7L369.0 178.7Q369.6 178.7 370.2 178.9Q370.9 179.1 371.4 179.6Q371.9 180.1 372.2 180.9Q372.5 181.7 372.5 182.8L372.5 182.8L372.5 183.4L366.6 183.4Q366.6 184.1 366.9 184.7L366.9 184.7Q367.2 185.4 367.8 185.7Q368.4 186.0 369.1 186.0L369.1 186.0Q369.6 186.0 370 185.9Q370.4 185.7 370.7 185.4Q371.0 185.2 371.1 184.7L371.1 184.7L372.4 185.1Q372.2 185.7 371.8 186.2Q371.3 186.6 370.6 186.9Q370.0 187.2 369.1 187.2ZM366.6 182.2L366.6 182.2L371.2 182.2Q371.1 181.7 371.0 181.2L371.0 181.2Q370.7 180.6 370.2 180.2Q369.7 179.9 369.0 179.9Q368.2 179.9 367.7 180.2Q367.2 180.6 366.9 181.2L366.9 181.2Q366.7 181.7 366.6 182.2ZM378.2 187L376.8 187L373.7 178.8L375.1 178.8L376.8 183.7Q377.1 184.4 377.3 185.2L377.3 185.2Q377.4 185.5 377.5 185.8L377.5 185.8Q377.6 185.5 377.6 185.2L377.6 185.2Q377.8 184.4 378.1 183.7L378.1 183.7L379.9 178.8L381.3 178.8L378.2 187Z M391.2 188.6L390.3 188.6L390.3 187.2Q389.4 187.1 388.7 186.8L388.7 186.8Q387.8 186.4 387.3 185.7Q386.8 185.1 386.8 184.1L386.8 184.1L388.2 184.1Q388.2 184.8 388.6 185.2Q389.0 185.6 389.5 185.7L389.5 185.7Q389.9 185.9 390.3 185.9L390.3 185.9L390.3 182.0L389.8 181.9Q388.5 181.5 387.8 180.8Q387.1 180.1 387.1 179.0L387.1 179.0Q387.1 178.1 387.6 177.4Q388.1 176.7 388.9 176.3L388.9 176.3Q389.5 176.0 390.3 176.0L390.3 176.0L390.3 174.5L391.2 174.5L391.2 175.9Q392.0 176.0 392.7 176.3L392.7 176.3Q393.5 176.7 394.0 177.4Q394.5 178.0 394.5 178.8L394.5 178.8L393.2 178.8Q393.1 178.0 392.4 177.6L392.4 177.6Q391.9 177.3 391.2 177.2L391.2 177.2L391.2 180.9L391.6 181.0Q392.0 181.1 392.6 181.3Q393.1 181.5 393.6 181.9Q394.1 182.2 394.4 182.7Q394.7 183.3 394.7 184.0L394.7 184.0Q394.7 184.9 394.2 185.6Q393.8 186.4 392.9 186.8L392.9 186.8Q392.1 187.1 391.2 187.2L391.2 187.2L391.2 188.6ZM391.2 182.2L391.2 185.9Q391.6 185.9 392.1 185.7L392.1 185.7Q392.6 185.5 393.0 185.0Q393.3 184.6 393.3 184.0L393.3 184.0Q393.3 183.5 393.0 183.1Q392.7 182.8 392.2 182.6Q391.8 182.4 391.2 182.2L391.2 182.2L391.2 182.2ZM390.3 180.6L390.3 180.6L390.3 177.2Q389.9 177.3 389.5 177.4L389.5 177.4Q389.0 177.6 388.7 178.0Q388.4 178.4 388.4 178.9L388.4 178.9Q388.4 179.5 388.8 179.9Q389.1 180.2 389.6 180.4L389.6 180.4Q390.0 180.5 390.3 180.6Z "/></g><mask id="satori_om-id-1-1-2"><rect x="402" y="172" width="170" height="18" fill="#fff" mask="url(#satori_om-id)"/></mask><g mask="url(#satori_om-id)" clip-path="url(#satori_cp-id)"><path fill="#e2e8f0" d="M407.5 187.1L407.5 187.1Q406.9 187.1 406.4 186.9Q405.9 186.7 405.6 186.4Q405.4 186.0 405.2 185.7L405.2 185.7L405.1 185.7L405.1 187L402.9 187L402.9 176.1L405.1 176.1L405.1 180.2L405.2 180.2Q405.4 179.9 405.6 179.5Q405.9 179.2 406.4 178.9Q406.8 178.7 407.5 178.7L407.5 178.7Q408.4 178.7 409.2 179.2Q410.0 179.6 410.4 180.6Q410.9 181.5 410.9 182.9L410.9 182.9Q410.9 184.3 410.4 185.2Q410.0 186.2 409.2 186.7Q408.5 187.1 407.5 187.1ZM406.8 185.4L406.8 185.4Q407.4 185.4 407.8 185.1Q408.2 184.7 408.4 184.2Q408.6 183.6 408.6 182.9L408.6 182.9Q408.6 182.2 408.4 181.6Q408.2 181.1 407.8 180.8Q407.4 180.5 406.8 180.5L406.8 180.5Q406.3 180.5 405.9 180.8Q405.5 181.1 405.3 181.6Q405.1 182.2 405.1 182.9L405.1 182.9Q405.1 183.7 405.3 184.2Q405.5 184.8 405.9 185.1Q406.3 185.4 406.8 185.4ZM415.2 187.1L415.2 187.1Q414.4 187.1 413.7 186.7Q413.1 186.4 412.7 185.7Q412.4 185.0 412.4 184.0L412.4 184.0L412.4 178.8L414.6 178.8L414.6 183.6Q414.6 184.4 415.0 184.8Q415.4 185.3 416.1 185.3L416.1 185.3Q416.5 185.3 416.9 185.1Q417.3 184.9 417.5 184.5Q417.7 184.1 417.7 183.6L417.7 183.6L417.7 178.8L419.9 178.8L419.9 187L417.8 187L417.8 185.3Q417.4 186.1 416.9 186.5L416.9 186.5Q416.2 187.1 415.2 187.1ZM423.9 187L421.7 187L421.7 178.8L423.9 178.8L423.9 187ZM422.8 177.7L422.8 177.7Q422.3 177.7 422.0 177.4Q421.6 177.1 421.6 176.6L421.6 176.6Q421.6 176.1 422.0 175.8Q422.3 175.5 422.8 175.5L422.8 175.5Q423.3 175.5 423.7 175.8Q424.0 176.1 424.0 176.6L424.0 176.6Q424.0 177.1 423.7 177.4Q423.3 177.7 422.8 177.7ZM425.8 176.1L428.0 176.1L428.0 187L425.8 187L425.8 176.1ZM432.8 187.1L432.8 187.1Q431.9 187.1 431.2 186.7Q430.4 186.2 430.0 185.2Q429.5 184.3 429.5 182.9L429.5 182.9Q429.5 181.5 430.0 180.6Q430.4 179.6 431.2 179.2Q431.9 178.7 432.8 178.7L432.8 178.7Q433.5 178.7 434.0 178.9Q434.5 179.2 434.7 179.5Q435.0 179.9 435.2 180.2L435.2 180.2L435.2 180.2L435.2 176.1L437.4 176.1L437.4 187L435.3 187L435.3 185.7L435.2 185.7Q435.0 186.0 434.7 186.4Q434.4 186.7 434.0 186.9Q433.5 187.1 432.8 187.1ZM433.5 185.4L433.5 185.4Q434.1 185.4 434.5 185.1Q434.9 184.8 435.1 184.2Q435.3 183.7 435.3 182.9L435.3 182.9Q435.3 182.2 435.1 181.6Q434.9 181.1 434.5 180.8Q434.1 180.5 433.5 180.5L433.5 180.5Q433.0 180.5 432.6 180.8Q432.2 181.1 432.0 181.6Q431.8 182.2 431.8 182.9L431.8 182.9Q431.8 183.6 432.0 184.2Q432.2 184.7 432.6 185.1Q433.0 185.4 433.5 185.4ZM441.5 187L439.3 187L439.3 178.8L441.5 178.8L441.5 187ZM440.4 177.7L440.4 177.7Q439.9 177.7 439.6 177.4Q439.2 177.1 439.2 176.6L439.2 176.6Q439.2 176.1 439.6 175.8Q439.9 175.5 440.4 175.5L440.4 175.5Q440.9 175.5 441.3 175.8Q441.6 176.1 441.6 176.6L441.6 176.6Q441.6 177.1 441.3 177.4Q440.9 177.7 440.4 177.7ZM445.6 182.3L445.6 182.3L445.6 187L443.4 187L443.4 178.8L445.5 178.8L445.5 180.5Q445.8 179.7 446.3 179.3L446.3 179.3Q447.0 178.7 448.0 178.7L448.0 178.7Q448.9 178.7 449.5 179.1Q450.1 179.4 450.5 180.1Q450.8 180.8 450.8 181.8L450.8 181.8L450.8 187L448.6 187L448.6 182.2Q448.6 181.4 448.3 181.0Q447.9 180.5 447.2 180.5L447.2 180.5Q446.7 180.5 446.3 180.7Q446.0 181.0 445.8 181.3Q445.6 181.7 445.6 182.3ZM456.4 190.2L456.4 190.2Q455.3 190.2 454.6 190.0Q453.8 189.7 453.3 189.3Q452.9 188.8 452.7 188.2L452.7 188.2L454.6 187.7Q454.7 187.9 454.9 188.1Q455.1 188.4 455.5 188.5Q455.8 188.6 456.3 188.6L456.3 188.6Q457.2 188.6 457.7 188.3Q458.1 187.9 458.1 187.1L458.1 187.1L458.1 185.5L458.0 185.5Q457.8 185.9 457.6 186.2Q457.3 186.5 456.8 186.7Q456.4 186.9 455.7 186.9L455.7 186.9Q454.8 186.9 454.0 186.5Q453.3 186.0 452.8 185.1Q452.4 184.2 452.4 182.9L452.4 182.9Q452.4 181.5 452.8 180.6Q453.3 179.6 454.0 179.2Q454.8 178.7 455.7 178.7L455.7 178.7Q456.4 178.7 456.9 178.9Q457.3 179.2 457.6 179.5Q457.9 179.9 458.1 180.2L458.1 180.2L458.2 180.2L458.2 178.8L460.3 178.8L460.3 186.9Q460.3 188.0 459.8 188.8Q459.3 189.5 458.4 189.9Q457.5 190.2 456.4 190.2ZM456.4 185.2L456.4 185.2Q457.0 185.2 457.4 184.9Q457.7 184.7 457.9 184.1Q458.2 183.6 458.2 182.9L458.2 182.9Q458.2 182.2 457.9 181.6Q457.7 181.1 457.4 180.8Q457.0 180.5 456.4 180.5L456.4 180.5Q455.8 180.5 455.4 180.8Q455.0 181.1 454.8 181.6Q454.6 182.2 454.6 182.9L454.6 182.9Q454.6 183.6 454.8 184.1Q455.0 184.6 455.4 184.9Q455.8 185.2 456.4 185.2Z M469.8 187.2L469.8 187.2Q468.5 187.2 467.5 186.8Q466.5 186.4 466.0 185.6Q465.5 184.8 465.4 183.6L465.4 183.6L467.6 183.6Q467.7 184.2 467.9 184.5Q468.2 184.9 468.7 185.1Q469.2 185.3 469.8 185.3L469.8 185.3Q470.4 185.3 470.8 185.1Q471.3 184.9 471.5 184.6Q471.8 184.3 471.8 183.9L471.8 183.9Q471.8 183.5 471.5 183.3Q471.3 183.0 470.9 182.8Q470.5 182.6 469.9 182.5L469.9 182.5L468.7 182.2Q467.3 181.9 466.5 181.1Q465.7 180.4 465.7 179.2L465.7 179.2Q465.7 178.2 466.3 177.5Q466.8 176.8 467.7 176.4Q468.6 175.9 469.8 175.9L469.8 175.9Q471.0 175.9 471.9 176.4Q472.8 176.8 473.3 177.5Q473.9 178.2 473.9 179.2L473.9 179.2L471.7 179.2Q471.6 178.5 471.1 178.2Q470.6 177.8 469.8 177.8L469.8 177.8Q469.2 177.8 468.8 178.0Q468.4 178.1 468.2 178.4Q468.0 178.7 468.0 179.1L468.0 179.1Q468.0 179.5 468.3 179.8Q468.5 180.0 468.9 180.2Q469.3 180.3 469.8 180.5L469.8 180.5L470.8 180.7Q471.4 180.9 472.0 181.1Q472.6 181.4 473.1 181.8Q473.5 182.2 473.8 182.7Q474.0 183.2 474.0 183.9L474.0 183.9Q474.0 184.9 473.5 185.6Q473.0 186.4 472.1 186.8Q471.1 187.2 469.8 187.2ZM477.9 187.2L477.9 187.2Q477.1 187.2 476.5 186.9Q475.8 186.6 475.5 186.1Q475.1 185.5 475.1 184.7L475.1 184.7Q475.1 184.0 475.4 183.6Q475.6 183.1 476.1 182.8Q476.5 182.5 477.1 182.4Q477.6 182.3 478.2 182.2L478.2 182.2Q478.9 182.1 479.4 182.1Q479.8 182.0 480.0 181.9Q480.2 181.7 480.2 181.5L480.2 181.5L480.2 181.4Q480.2 181.1 480.1 180.8Q479.9 180.6 479.6 180.5Q479.3 180.3 478.9 180.3L478.9 180.3Q478.5 180.3 478.2 180.5Q477.9 180.6 477.7 180.8Q477.5 181.0 477.4 181.3L477.4 181.3L475.4 181.0Q475.6 180.2 476.1 179.7Q476.6 179.2 477.3 179.0Q478.0 178.7 478.9 178.7L478.9 178.7Q479.6 178.7 480.2 178.9Q480.8 179.0 481.3 179.4Q481.8 179.7 482.1 180.2Q482.4 180.7 482.4 181.5L482.4 181.5L482.4 187L480.3 187L480.3 185.9L480.3 185.9Q480.1 186.2 479.7 186.5Q479.4 186.8 478.9 187.0Q478.5 187.2 477.9 187.2ZM478.5 185.6L478.5 185.6Q479.0 185.6 479.4 185.4Q479.8 185.2 480.0 184.9Q480.2 184.5 480.2 184.1L480.2 184.1L480.2 183.2Q480.1 183.3 479.9 183.3Q479.7 183.4 479.5 183.4Q479.2 183.5 479.0 183.5Q478.8 183.5 478.6 183.6L478.6 183.6Q478.2 183.6 477.9 183.7Q477.6 183.9 477.4 184.1Q477.2 184.3 477.2 184.6L477.2 184.6Q477.2 185.0 477.4 185.2Q477.6 185.4 477.8 185.5Q478.1 185.6 478.5 185.6ZM486.6 187.2L486.6 187.2Q485.8 187.2 485.2 186.9Q484.6 186.6 484.2 186.1Q483.8 185.5 483.8 184.7L483.8 184.7Q483.8 184.0 484.1 183.6Q484.3 183.1 484.8 182.8Q485.2 182.5 485.8 182.4Q486.3 182.3 486.9 182.2L486.9 182.2Q487.6 182.1 488.1 182.1Q488.5 182.0 488.7 181.9Q488.9 181.7 488.9 181.5L488.9 181.5L488.9 181.4Q488.9 181.1 488.8 180.8Q488.6 180.6 488.3 180.5Q488.0 180.3 487.6 180.3L487.6 180.3Q487.2 180.3 486.9 180.5Q486.6 180.6 486.4 180.8Q486.2 181.0 486.1 181.3L486.1 181.3L484.1 181.0Q484.3 180.2 484.8 179.7Q485.3 179.2 486.0 179.0Q486.7 178.7 487.6 178.7L487.6 178.7Q488.3 178.7 488.9 178.9Q489.5 179.0 490.0 179.4Q490.5 179.7 490.8 180.2Q491.1 180.7 491.1 181.5L491.1 181.5L491.1 187L489.0 187L489.0 185.9L489.0 185.9Q488.8 186.2 488.4 186.5Q488.1 186.8 487.6 187.0Q487.2 187.2 486.6 187.2ZM487.2 185.6L487.2 185.6Q487.7 185.6 488.1 185.4Q488.5 185.2 488.7 184.9Q488.9 184.5 488.9 184.1L488.9 184.1L488.9 183.2Q488.8 183.3 488.6 183.3Q488.4 183.4 488.2 183.4Q488.0 183.5 487.7 183.5Q487.5 183.5 487.3 183.6L487.3 183.6Q486.9 183.6 486.6 183.7Q486.3 183.9 486.1 184.1Q486.0 184.3 486.0 184.6L486.0 184.6Q486.0 185.0 486.1 185.2Q486.3 185.4 486.6 185.5Q486.8 185.6 487.2 185.6ZM497.0 187.2L497.0 187.2Q495.7 187.2 494.8 186.8Q493.8 186.4 493.2 185.6Q492.7 184.8 492.7 183.6L492.7 183.6L494.8 183.6Q494.9 184.2 495.2 184.5Q495.5 184.9 495.9 185.1Q496.4 185.3 497.0 185.3L497.0 185.3Q497.6 185.3 498.1 185.1Q498.5 184.9 498.8 184.6Q499.0 184.3 499.0 183.9L499.0 183.9Q499.0 183.5 498.8 183.3Q498.6 183.0 498.1 182.8Q497.7 182.6 497.1 182.5L497.1 182.5L495.9 182.2Q494.5 181.9 493.8 181.1Q493.0 180.4 493.0 179.2L493.0 179.2Q493.0 178.2 493.5 177.5Q494.0 176.8 495.0 176.4Q495.9 175.9 497.1 175.9L497.1 175.9Q498.3 175.9 499.2 176.4Q500.1 176.8 500.6 177.5Q501.1 178.2 501.1 179.2L501.1 179.2L498.9 179.2Q498.9 178.5 498.4 178.2Q497.9 177.8 497.0 177.8L497.0 177.8Q496.5 177.8 496.1 178.0Q495.7 178.1 495.5 178.4Q495.3 178.7 495.3 179.1L495.3 179.1Q495.3 179.5 495.5 179.8Q495.7 180.0 496.1 180.2Q496.5 180.3 497.0 180.5L497.0 180.5L498.0 180.7Q498.7 180.9 499.3 181.1Q499.9 181.4 500.3 181.8Q500.8 182.2 501.0 182.7Q501.3 183.2 501.3 183.9L501.3 183.9Q501.3 184.9 500.8 185.6Q500.3 186.4 499.3 186.8Q498.4 187.2 497.0 187.2Z M508.6 190.1L506.4 190.1L506.4 178.8L508.5 178.8L508.5 180.2L508.6 180.2Q508.8 179.9 509.1 179.5Q509.3 179.2 509.8 178.9Q510.3 178.7 511.0 178.7L511.0 178.7Q511.9 178.7 512.6 179.2Q513.4 179.6 513.8 180.6Q514.3 181.5 514.3 182.9L514.3 182.9Q514.3 184.3 513.8 185.2Q513.4 186.2 512.6 186.7Q511.9 187.1 510.9 187.1L510.9 187.1Q510.3 187.1 509.8 186.9Q509.4 186.7 509.1 186.4Q508.8 186.0 508.6 185.7L508.6 185.7L508.6 185.7L508.6 190.1ZM510.3 185.4L510.3 185.4Q510.8 185.4 511.2 185.1Q511.6 184.7 511.8 184.2Q512.0 183.6 512.0 182.9L512.0 182.9Q512.0 182.2 511.8 181.6Q511.6 181.1 511.2 180.8Q510.9 180.5 510.3 180.5L510.3 180.5Q509.7 180.5 509.3 180.8Q508.9 181.1 508.7 181.6Q508.5 182.2 508.5 182.9L508.5 182.9Q508.5 183.7 508.7 184.2Q508.9 184.8 509.3 185.1Q509.7 185.4 510.3 185.4ZM518.0 187L515.8 187L515.8 178.8L517.9 178.8L517.9 180.2L518.0 180.2Q518.3 179.5 518.8 179.1Q519.3 178.7 520.0 178.7L520.0 178.7Q520.2 178.7 520.4 178.7Q520.6 178.7 520.7 178.8L520.7 178.8L520.7 180.7Q520.6 180.7 520.3 180.7Q520.0 180.6 519.8 180.6L519.8 180.6Q519.3 180.6 518.9 180.8Q518.5 181.1 518.2 181.4Q518.0 181.8 518.0 182.3L518.0 182.3L518.0 187ZM525.6 187.2L525.6 187.2Q524.4 187.2 523.5 186.6Q522.6 186.1 522.1 185.2Q521.6 184.2 521.6 182.9L521.6 182.9Q521.6 181.7 522.1 180.7Q522.6 179.8 523.5 179.2Q524.4 178.7 525.6 178.7L525.6 178.7Q526.8 178.7 527.7 179.2Q528.6 179.8 529.1 180.7Q529.6 181.7 529.6 182.9L529.6 182.9Q529.6 184.2 529.1 185.2Q528.6 186.1 527.7 186.6Q526.8 187.2 525.6 187.2ZM525.6 185.4L525.6 185.4Q526.2 185.4 526.6 185.1Q527.0 184.8 527.2 184.2Q527.4 183.6 527.4 182.9L527.4 182.9Q527.4 182.2 527.2 181.6Q527.0 181.1 526.6 180.8Q526.2 180.4 525.6 180.4L525.6 180.4Q525.0 180.4 524.6 180.8Q524.2 181.1 524.0 181.6Q523.8 182.2 523.8 182.9L523.8 182.9Q523.8 183.6 524.0 184.2Q524.2 184.8 524.6 185.1Q525.0 185.4 525.6 185.4ZM534.1 187.1L534.1 187.1Q533.2 187.1 532.4 186.7Q531.7 186.2 531.2 185.2Q530.8 184.3 530.8 182.9L530.8 182.9Q530.8 181.5 531.2 180.6Q531.7 179.6 532.4 179.2Q533.2 178.7 534.1 178.7L534.1 178.7Q534.8 178.7 535.3 178.9Q535.7 179.2 536.0 179.5Q536.3 179.9 536.4 180.2L536.4 180.2L536.5 180.2L536.5 176.1L538.7 176.1L538.7 187L536.5 187L536.5 185.7L536.4 185.7Q536.3 186.0 536.0 186.4Q535.7 186.7 535.2 186.9Q534.8 187.1 534.1 187.1ZM534.8 185.4L534.8 185.4Q535.4 185.4 535.7 185.1Q536.1 184.8 536.3 184.2Q536.6 183.7 536.6 182.9L536.6 182.9Q536.6 182.2 536.4 181.6Q536.2 181.1 535.8 180.8Q535.4 180.5 534.8 180.5L534.8 180.5Q534.2 180.5 533.8 180.8Q533.4 181.1 533.2 181.6Q533.0 182.2 533.0 182.9L533.0 182.9Q533.0 183.6 533.2 184.2Q533.4 184.7 533.8 185.1Q534.2 185.4 534.8 185.4ZM543.4 187.1L543.4 187.1Q542.6 187.1 541.9 186.7Q541.3 186.4 540.9 185.7Q540.6 185.0 540.6 184.0L540.6 184.0L540.6 178.8L542.8 178.8L542.8 183.6Q542.8 184.4 543.2 184.8Q543.6 185.3 544.3 185.3L544.3 185.3Q544.7 185.3 545.1 185.1Q545.4 184.9 545.6 184.5Q545.8 184.1 545.8 183.6L545.8 183.6L545.8 178.8L548.1 178.8L548.1 187L546.0 187L546.0 185.3Q545.6 186.1 545.1 186.5L545.1 186.5Q544.4 187.1 543.4 187.1ZM553.6 187.2L553.6 187.2Q552.3 187.2 551.4 186.6Q550.5 186.1 550.1 185.2Q549.6 184.2 549.6 182.9L549.6 182.9Q549.6 181.7 550.1 180.7Q550.5 179.8 551.4 179.2Q552.3 178.7 553.6 178.7L553.6 178.7Q554.3 178.7 554.9 178.9Q555.5 179.1 556.0 179.4Q556.5 179.8 556.8 180.3Q557.1 180.8 557.2 181.4L557.2 181.4L555.2 181.8Q555.1 181.5 555.0 181.2Q554.8 181.0 554.6 180.8Q554.4 180.6 554.2 180.5Q553.9 180.4 553.6 180.4L553.6 180.4Q553.0 180.4 552.6 180.8Q552.2 181.1 552.0 181.6Q551.8 182.2 551.8 182.9L551.8 182.9Q551.8 183.7 552.0 184.2Q552.2 184.8 552.6 185.1Q553.0 185.4 553.6 185.4L553.6 185.4Q553.9 185.4 554.2 185.3Q554.4 185.2 554.7 185.0Q554.9 184.9 555.0 184.6Q555.1 184.3 555.2 184.0L555.2 184.0L557.2 184.4Q557.1 185.0 556.8 185.5Q556.5 186.0 556.0 186.4Q555.6 186.8 554.9 187.0Q554.3 187.2 553.6 187.2ZM561.3 178.8L562.8 178.8L562.8 180.5L561.3 180.5L561.3 184.6Q561.3 185.0 561.5 185.2Q561.6 185.4 562.0 185.4L562.0 185.4Q562.2 185.4 562.4 185.3Q562.6 185.3 562.7 185.3L562.7 185.3L563.0 186.9Q562.7 187.0 562.3 187.1Q561.9 187.1 561.6 187.1L561.6 187.1Q560.4 187.1 559.7 186.5Q559.1 185.9 559.1 184.8L559.1 184.8L559.1 180.5L558.0 180.5L558.0 178.8L559.1 178.8L559.1 176.9L561.3 176.9L561.3 178.8ZM567.5 187.2L567.5 187.2Q566.5 187.2 565.7 186.9Q565.0 186.6 564.5 186.1Q564.0 185.5 563.9 184.8L563.9 184.8L565.9 184.4Q566.1 185.0 566.5 185.3Q566.9 185.5 567.6 185.5L567.6 185.5Q568.2 185.5 568.5 185.3Q568.9 185.1 568.9 184.7L568.9 184.7Q568.9 184.4 568.7 184.2Q568.4 184.0 567.9 183.9L567.9 183.9L566.4 183.6Q565.3 183.3 564.7 182.7Q564.1 182.2 564.1 181.3L564.1 181.3Q564.1 180.5 564.5 179.9Q564.9 179.3 565.7 179.0Q566.5 178.7 567.5 178.7L567.5 178.7Q568.5 178.7 569.2 179.0Q569.9 179.2 570.4 179.7Q570.8 180.2 570.9 180.9L570.9 180.9L569.0 181.2Q568.9 180.8 568.5 180.6Q568.2 180.3 567.6 180.3L567.6 180.3Q567.0 180.3 566.6 180.5Q566.3 180.7 566.3 181.1L566.3 181.1Q566.3 181.4 566.5 181.6Q566.8 181.9 567.3 182.0L567.3 182.0L568.8 182.3Q570.0 182.5 570.6 183.0Q571.2 183.6 571.2 184.5L571.2 184.5Q571.2 185.3 570.7 185.9Q570.2 186.5 569.4 186.8Q568.6 187.2 567.5 187.2Z "/></g><mask id="satori_om-id-1-1-3"><rect x="575" y="173" width="2" height="17" fill="#fff" mask="url(#satori_om-id)"/></mask><rect x="575" y="173" width="2" height="17" fill="#22d3ee" clip-path="url(#satori_cp-id)" mask="url(#satori_om-id)"/><mask id="satori_om-id-1-1-3-0"><rect x="575" y="173" width="0" height="17" fill="#fff" mask="url(#satori_om-id)"/></mask><mask id="satori_om-id-1-2"><rect x="285" y="217" width="331" height="28" fill="#fff" mask="url(#satori_om-id)"/></mask><defs><clipPath id="satori_bc-id-1-2-0" clip-path="url(#satori_cp-id)"><path x="285" y="217" width="82" height="28" d="M299,217 h54 a14,14 0 0 1 14,14 v0 a14,14 0 0 1 -14,14 h-54 a14,14 0 0 1 -14,-14 v0 a14,14 0 0 1 14,-14"/></clipPath></defs><mask id="satori_om-id-1-2-0"><rect x="286" y="218" width="80" height="26" fill="#fff" mask="url(#satori_om-id)"/><path width="82" height="28" fill="none" stroke="#000" stroke-width="2" d="M289.101,221.101 A14,14 0 0 1 299,217 h54 a14,14 0 0 1 14,14 v0 a14,14 0 0 1 -14,14 h-54 a14,14 0 0 1 -14,-14 v0 A14,14 0 0 1 289.101,221.101"/></mask><path width="82" height="28" clip-path="url(#satori_bc-id-1-2-0)" fill="none" stroke="#22d3ee55" stroke-width="2" d="M289.101,221.101 A14,14 0 0 1 299,217 h54 a14,14 0 0 1 14,14 v0 a14,14 0 0 1 -14,14 h-54 a14,14 0 0 1 -14,-14 v0 A14,14 0 0 1 289.101,221.101"/><g mask="url(#satori_om-id)" clip-path="url(#satori_cp-id)"><path fill="#22d3ee" d="M304.1 236.1L304.1 236.1Q303.5 236.1 302.9 235.9Q302.3 235.7 301.8 235.2Q301.4 234.7 301.1 233.8Q300.8 232.9 300.8 231.6L300.8 231.6Q300.8 230.4 301.0 229.4Q301.3 228.4 301.7 227.8Q302.2 227.1 302.8 226.8Q303.4 226.4 304.2 226.4L304.2 226.4Q305.0 226.4 305.7 226.7Q306.3 227.0 306.7 227.6Q307.1 228.2 307.2 228.9L307.2 228.9L306.0 228.9Q305.9 228.3 305.4 227.9Q305.0 227.5 304.2 227.5L304.2 227.5Q303.5 227.5 303.0 227.9Q302.5 228.3 302.2 229.1Q301.9 229.9 301.9 231.1L301.9 231.1L302.0 231.1Q302.2 230.7 302.6 230.4Q303.0 230.1 303.4 230.0Q303.8 229.8 304.3 229.8L304.3 229.8Q305.1 229.8 305.8 230.2Q306.5 230.6 306.9 231.3Q307.3 232.0 307.3 232.9L307.3 232.9Q307.3 233.8 306.9 234.5Q306.5 235.3 305.8 235.7Q305.1 236.1 304.1 236.1ZM304.1 235.1L304.1 235.1Q304.7 235.1 305.1 234.8Q305.6 234.5 305.9 234.0Q306.1 233.5 306.1 232.9L306.1 232.9Q306.1 232.4 305.9 231.9Q305.6 231.4 305.2 231.1Q304.7 230.9 304.1 230.9L304.1 230.9Q303.7 230.9 303.3 231.0Q303.0 231.2 302.7 231.5Q302.4 231.8 302.2 232.2Q302.1 232.5 302.1 233.0L302.1 233.0Q302.1 233.5 302.3 234.0Q302.6 234.5 303.1 234.8Q303.5 235.1 304.1 235.1Z M312.6 238.6L312.6 238.6L312.9 237.6L313.0 237.6Q313.4 237.7 313.7 237.7Q313.9 237.6 314.2 237.4Q314.4 237.1 314.6 236.6L314.6 236.6L314.8 236.0L312.1 228.9L313.3 228.9L314.8 233.1Q315.1 233.8 315.2 234.4L315.2 234.4Q315.3 234.7 315.4 235.0L315.4 235.0Q315.4 234.7 315.5 234.4L315.5 234.4Q315.7 233.8 315.9 233.1L315.9 233.1L317.4 228.9L318.7 228.9L315.6 237.1Q315.3 237.6 315.0 238.0Q314.7 238.4 314.3 238.5Q313.9 238.7 313.4 238.7L313.4 238.7Q313.1 238.7 312.9 238.7Q312.7 238.6 312.6 238.6ZM321.2 236L320.0 236L320.0 228.9L321.1 228.9L321.1 230.0L321.2 230.0Q321.4 229.5 321.9 229.1Q322.4 228.8 323.0 228.8L323.0 228.8Q323.2 228.8 323.3 228.8Q323.5 228.8 323.6 228.8L323.6 228.8L323.6 230.0Q323.6 230.0 323.4 229.9Q323.2 229.9 322.9 229.9L322.9 229.9Q322.4 229.9 322.0 230.1Q321.6 230.3 321.4 230.7Q321.2 231.1 321.2 231.6L321.2 231.6L321.2 236ZM327.3 236.2L327.3 236.2Q326.6 236.2 326.0 235.9Q325.5 235.7 325.1 235.3Q324.7 234.9 324.6 234.3L324.6 234.3L325.7 234.0Q325.8 234.6 326.3 234.9Q326.7 235.1 327.3 235.1L327.3 235.1Q328.1 235.1 328.5 234.8Q328.9 234.5 328.9 234.1L328.9 234.1Q328.9 233.7 328.7 233.5Q328.4 233.2 327.9 233.1L327.9 233.1L326.7 232.8Q325.8 232.6 325.3 232.1Q324.8 231.6 324.8 230.9L324.8 230.9Q324.8 230.3 325.2 229.8Q325.5 229.3 326.1 229.1Q326.7 228.8 327.4 228.8L327.4 228.8Q328.2 228.8 328.7 229.0Q329.2 229.3 329.5 229.6Q329.8 230.0 330.0 230.5L330.0 230.5L329.0 230.8Q328.8 230.4 328.5 230.1Q328.1 229.8 327.5 229.8L327.5 229.8Q326.8 229.8 326.4 230.1Q326.0 230.4 326.0 230.8L326.0 230.8Q326.0 231.2 326.3 231.4Q326.5 231.7 327.2 231.8L327.2 231.8L328.2 232.1Q329.2 232.3 329.7 232.8Q330.1 233.3 330.1 234.0L330.1 234.0Q330.1 234.6 329.8 235.1Q329.4 235.6 328.8 235.9Q328.2 236.2 327.3 236.2Z M336.2 236L334.8 236L338.2 231.2L335.0 226.5L336.4 226.5L337.8 228.5Q338.1 229.0 338.3 229.3Q338.5 229.6 338.6 229.9L338.6 229.9Q338.7 230.1 338.9 230.4L338.9 230.4Q339.0 230.1 339.1 229.9L339.1 229.9Q339.3 229.6 339.5 229.3Q339.7 229.0 340.0 228.5L340.0 228.5L341.4 226.5L342.8 226.5L339.6 231.1L342.9 236L341.6 236L339.9 233.6Q339.6 233.2 339.4 232.9Q339.3 232.6 339.1 232.4L339.1 232.4Q339.0 232.2 338.9 231.9L338.9 231.9Q338.8 232.2 338.7 232.3L338.7 232.3Q338.5 232.6 338.3 232.9Q338.1 233.2 337.8 233.6L337.8 233.6L336.2 236ZM345.7 236L344.4 236L344.4 226.5L347.7 226.5Q348.8 226.5 349.5 226.9Q350.2 227.3 350.6 228.0Q350.9 228.7 350.9 229.6Q350.9 230.4 350.6 231.1Q350.2 231.8 349.5 232.2Q348.8 232.6 347.7 232.6L347.7 232.6L345.7 232.6L345.7 236ZM345.7 227.6L345.7 231.5L347.6 231.5Q348.4 231.5 348.8 231.3Q349.3 231.0 349.5 230.6Q349.7 230.1 349.7 229.6Q349.7 229.0 349.5 228.6Q349.3 228.1 348.8 227.9Q348.4 227.6 347.6 227.6L347.6 227.6L345.7 227.6Z "/></g><defs><clipPath id="satori_bc-id-1-2-1" clip-path="url(#satori_cp-id)"><path x="377" y="217" width="126" height="28" d="M391,217 h98 a14,14 0 0 1 14,14 v0 a14,14 0 0 1 -14,14 h-98 a14,14 0 0 1 -14,-14 v0 a14,14 0 0 1 14,-14"/></clipPath></defs><mask id="satori_om-id-1-2-1"><rect x="378" y="218" width="124" height="26" fill="#fff" mask="url(#satori_om-id)"/><path width="126" height="28" fill="none" stroke="#000" stroke-width="2" d="M381.101,221.101 A14,14 0 0 1 391,217 h98 a14,14 0 0 1 14,14 v0 a14,14 0 0 1 -14,14 h-98 a14,14 0 0 1 -14,-14 v0 A14,14 0 0 1 381.101,221.101"/></mask><path width="126" height="28" clip-path="url(#satori_bc-id-1-2-1)" fill="none" stroke="#a78bfa55" stroke-width="2" d="M381.101,221.101 A14,14 0 0 1 391,217 h98 a14,14 0 0 1 14,14 v0 a14,14 0 0 1 -14,14 h-98 a14,14 0 0 1 -14,-14 v0 A14,14 0 0 1 381.101,221.101"/><g mask="url(#satori_om-id)" clip-path="url(#satori_cp-id)"><path fill="#a78bfa" d="M396.0 236.1L396.0 236.1Q395.1 236.1 394.4 235.8Q393.7 235.5 393.2 234.9Q392.8 234.4 392.8 233.6L392.8 233.6L394.0 233.6Q394.1 234.1 394.3 234.4Q394.6 234.7 395.0 234.9Q395.5 235.1 396.0 235.1L396.0 235.1Q396.6 235.1 397.1 234.9Q397.5 234.7 397.8 234.3Q398.1 233.9 398.1 233.4L398.1 233.4Q398.1 232.9 397.8 232.5Q397.5 232.1 397.1 231.9Q396.6 231.7 395.9 231.7L395.9 231.7L395.1 231.7L395.1 230.6L395.9 230.6Q396.4 230.6 396.8 230.4Q397.3 230.2 397.5 229.9Q397.7 229.5 397.7 229.0L397.7 229.0Q397.7 228.5 397.5 228.2Q397.3 227.8 396.9 227.7Q396.6 227.5 396.0 227.5L396.0 227.5Q395.6 227.5 395.1 227.6Q394.7 227.8 394.4 228.1Q394.2 228.5 394.2 228.9L394.2 228.9L393.0 228.9Q393.0 228.2 393.4 227.6Q393.9 227.0 394.5 226.7Q395.2 226.4 396.1 226.4L396.1 226.4Q397.0 226.4 397.6 226.8Q398.2 227.1 398.6 227.7Q398.9 228.3 398.9 229.0L398.9 229.0Q398.9 229.8 398.5 230.3Q398.1 230.9 397.3 231.1L397.3 231.1L397.3 231.2Q397.9 231.3 398.4 231.6Q398.8 231.9 399.0 232.4Q399.3 232.8 399.3 233.4L399.3 233.4Q399.3 234.2 398.8 234.8Q398.4 235.4 397.7 235.8Q397.0 236.1 396.0 236.1Z M407.9 236.2L407.9 236.2Q406.8 236.2 406.1 235.8Q405.3 235.5 404.9 234.9Q404.5 234.3 404.4 233.5L404.4 233.5L405.7 233.5Q405.7 234.1 406.0 234.4Q406.3 234.7 406.8 234.9Q407.3 235.1 407.9 235.1L407.9 235.1Q408.5 235.1 409.0 234.9Q409.5 234.7 409.8 234.3Q410.1 233.9 410.1 233.4L410.1 233.4Q410.1 232.9 409.9 232.7Q409.6 232.4 409.2 232.2Q408.8 232.0 408.2 231.9L408.2 231.9L407.1 231.5Q406.0 231.2 405.3 230.6Q404.7 230.0 404.7 229.1L404.7 229.1Q404.7 228.3 405.1 227.7Q405.6 227.1 406.3 226.7Q407.0 226.4 407.9 226.4L407.9 226.4Q408.9 226.4 409.6 226.7Q410.3 227.1 410.7 227.6Q411.1 228.2 411.2 228.9L411.2 228.9L410.0 228.9Q409.9 228.2 409.3 227.9Q408.7 227.5 407.9 227.5L407.9 227.5Q407.3 227.5 406.8 227.7Q406.4 227.9 406.1 228.2Q405.9 228.6 405.9 229.0L405.9 229.0Q405.9 229.5 406.2 229.8Q406.5 230.1 406.9 230.3Q407.3 230.5 407.7 230.5L407.7 230.5L408.6 230.8Q409.0 230.9 409.5 231.1Q409.9 231.3 410.3 231.6Q410.8 231.9 411.0 232.3Q411.3 232.8 411.3 233.4L411.3 233.4Q411.3 234.2 410.9 234.8Q410.5 235.4 409.7 235.8Q408.9 236.2 407.9 236.2ZM415.0 236.2L415.0 236.2Q414.3 236.2 413.8 235.9Q413.2 235.7 412.9 235.2Q412.6 234.7 412.6 234.0L412.6 234.0Q412.6 233.4 412.8 233.0Q413.1 232.6 413.5 232.4Q413.9 232.2 414.4 232.1Q414.9 232.0 415.4 231.9L415.4 231.9Q416.0 231.8 416.4 231.8Q416.8 231.7 417.0 231.6Q417.2 231.5 417.2 231.2L417.2 231.2L417.2 231.2Q417.2 230.8 417.0 230.5Q416.9 230.1 416.5 230.0Q416.2 229.8 415.7 229.8L415.7 229.8Q415.2 229.8 414.8 230.0Q414.5 230.1 414.2 230.4Q414.0 230.6 413.9 230.9L413.9 230.9L412.8 230.5Q413.1 229.8 413.5 229.5Q414.0 229.1 414.6 229.0Q415.1 228.8 415.7 228.8L415.7 228.8Q416.0 228.8 416.5 228.9Q416.9 229.0 417.3 229.2Q417.8 229.5 418.0 230.0Q418.3 230.5 418.3 231.3L418.3 231.3L418.3 236L417.2 236L417.2 235.0L417.1 235.0Q417.0 235.3 416.7 235.5Q416.5 235.8 416.0 236.0Q415.6 236.2 415.0 236.2ZM415.2 235.2L415.2 235.2Q415.8 235.2 416.3 234.9Q416.7 234.7 417.0 234.3Q417.2 233.9 417.2 233.4L417.2 233.4L417.2 232.5Q417.1 232.5 416.9 232.6Q416.6 232.7 416.3 232.7Q416.0 232.8 415.8 232.8Q415.5 232.8 415.3 232.9L415.3 232.9Q414.9 232.9 414.5 233.0Q414.2 233.2 414.0 233.4Q413.7 233.6 413.7 234.0L413.7 234.0Q413.7 234.4 413.9 234.7Q414.1 234.9 414.5 235.0Q414.8 235.2 415.2 235.2ZM422.3 236.2L422.3 236.2Q421.6 236.2 421.1 235.9Q420.5 235.7 420.2 235.2Q419.9 234.7 419.9 234.0L419.9 234.0Q419.9 233.4 420.1 233.0Q420.4 232.6 420.8 232.4Q421.2 232.2 421.7 232.1Q422.2 232.0 422.7 231.9L422.7 231.9Q423.3 231.8 423.7 231.8Q424.1 231.7 424.3 231.6Q424.5 231.5 424.5 231.2L424.5 231.2L424.5 231.2Q424.5 230.8 424.3 230.5Q424.2 230.1 423.8 230.0Q423.5 229.8 423.0 229.8L423.0 229.8Q422.5 229.8 422.1 230.0Q421.8 230.1 421.5 230.4Q421.3 230.6 421.2 230.9L421.2 230.9L420.1 230.5Q420.4 229.8 420.8 229.5Q421.3 229.1 421.9 229.0Q422.4 228.8 423.0 228.8L423.0 228.8Q423.3 228.8 423.8 228.9Q424.2 229.0 424.6 229.2Q425.1 229.5 425.3 230.0Q425.6 230.5 425.6 231.3L425.6 231.3L425.6 236L424.5 236L424.5 235.0L424.4 235.0Q424.3 235.3 424.0 235.5Q423.8 235.8 423.3 236.0Q422.9 236.2 422.3 236.2ZM422.5 235.2L422.5 235.2Q423.1 235.2 423.6 234.9Q424.0 234.7 424.3 234.3Q424.5 233.9 424.5 233.4L424.5 233.4L424.5 232.5Q424.4 232.5 424.2 232.6Q423.9 232.7 423.6 232.7Q423.3 232.8 423.1 232.8Q422.8 232.8 422.6 232.9L422.6 232.9Q422.2 232.9 421.8 233.0Q421.5 233.2 421.3 233.4Q421.0 233.6 421.0 234.0L421.0 234.0Q421.0 234.4 421.2 234.7Q421.4 234.9 421.8 235.0Q422.1 235.2 422.5 235.2ZM430.8 236.2L430.8 236.2Q429.8 236.2 429.0 235.8Q428.3 235.5 427.8 234.9Q427.4 234.3 427.4 233.5L427.4 233.5L428.6 233.5Q428.7 234.1 429.0 234.4Q429.3 234.7 429.8 234.9Q430.2 235.1 430.8 235.1L430.8 235.1Q431.4 235.1 431.9 234.9Q432.5 234.7 432.8 234.3Q433.1 233.9 433.1 233.4L433.1 233.4Q433.1 232.9 432.8 232.7Q432.5 232.4 432.1 232.2Q431.7 232.0 431.2 231.9L431.2 231.9L430.0 231.5Q428.9 231.2 428.3 230.6Q427.6 230.0 427.6 229.1L427.6 229.1Q427.6 228.3 428.1 227.7Q428.5 227.1 429.2 226.7Q430.0 226.4 430.9 226.4L430.9 226.4Q431.8 226.4 432.5 226.7Q433.2 227.1 433.7 227.6Q434.1 228.2 434.1 228.9L434.1 228.9L432.9 228.9Q432.8 228.2 432.3 227.9Q431.7 227.5 430.8 227.5L430.8 227.5Q430.2 227.5 429.8 227.7Q429.3 227.9 429.1 228.2Q428.8 228.6 428.8 229.0L428.8 229.0Q428.8 229.5 429.1 229.8Q429.4 230.1 429.8 230.3Q430.3 230.5 430.6 230.5L430.6 230.5L431.6 230.8Q431.9 230.9 432.4 231.1Q432.9 231.3 433.3 231.6Q433.7 231.9 434.0 232.3Q434.2 232.8 434.2 233.4L434.2 233.4Q434.2 234.2 433.8 234.8Q433.4 235.4 432.7 235.8Q431.9 236.2 430.8 236.2Z M442.0 236.2L442.0 236.2Q441.3 236.2 440.7 235.9Q440.2 235.7 439.8 235.3Q439.4 234.9 439.3 234.3L439.3 234.3L440.4 234.0Q440.5 234.6 441.0 234.9Q441.4 235.1 442.0 235.1L442.0 235.1Q442.8 235.1 443.2 234.8Q443.7 234.5 443.7 234.1L443.7 234.1Q443.7 233.7 443.4 233.5Q443.1 233.2 442.6 233.1L442.6 233.1L441.4 232.8Q440.5 232.6 440.0 232.1Q439.5 231.6 439.5 230.9L439.5 230.9Q439.5 230.3 439.9 229.8Q440.2 229.3 440.8 229.1Q441.4 228.8 442.2 228.8L442.2 228.8Q442.9 228.8 443.4 229.0Q443.9 229.3 444.2 229.6Q444.5 230.0 444.7 230.5L444.7 230.5L443.7 230.8Q443.5 230.4 443.2 230.1Q442.8 229.8 442.2 229.8L442.2 229.8Q441.5 229.8 441.1 230.1Q440.7 230.4 440.7 230.8L440.7 230.8Q440.7 231.2 441.0 231.4Q441.3 231.7 441.9 231.8L441.9 231.8L442.9 232.1Q443.9 232.3 444.4 232.8Q444.8 233.3 444.8 234.0L444.8 234.0Q444.8 234.6 444.5 235.1Q444.1 235.6 443.5 235.9Q442.9 236.2 442.0 236.2ZM447.6 231.7L447.6 231.7L447.6 236L446.5 236L446.5 226.5L447.6 226.5L447.6 230.1Q447.9 229.5 448.4 229.2L448.4 229.2Q449.0 228.8 449.8 228.8L449.8 228.8Q450.5 228.8 451.0 229.1Q451.6 229.4 451.9 230.0Q452.2 230.6 452.2 231.5L452.2 231.5L452.2 236L451.0 236L451.0 231.6Q451.0 230.8 450.6 230.3Q450.2 229.8 449.4 229.8L449.4 229.8Q448.9 229.8 448.5 230.1Q448.1 230.3 447.9 230.7Q447.6 231.1 447.6 231.7ZM455.3 236L454.2 236L454.2 228.9L455.3 228.9L455.3 236ZM454.8 227.7L454.8 227.7Q454.4 227.7 454.2 227.5Q454.0 227.3 454.0 227.0L454.0 227.0Q454.0 226.7 454.2 226.4Q454.4 226.2 454.8 226.2L454.8 226.2Q455.1 226.2 455.3 226.4Q455.6 226.7 455.6 227.0L455.6 227.0Q455.6 227.3 455.3 227.5Q455.1 227.7 454.8 227.7ZM458.5 238.7L457.3 238.7L457.3 228.9L458.4 228.9L458.4 230.0L458.6 230.0Q458.7 229.8 458.9 229.6Q459.1 229.3 459.5 229.0Q459.9 228.8 460.6 228.8L460.6 228.8Q461.5 228.8 462.2 229.3Q462.9 229.7 463.2 230.5Q463.6 231.3 463.6 232.5L463.6 232.5Q463.6 233.6 463.2 234.4Q462.9 235.3 462.2 235.7Q461.5 236.2 460.6 236.2L460.6 236.2Q459.9 236.2 459.5 235.9Q459.1 235.7 458.9 235.4Q458.7 235.1 458.6 234.9L458.6 234.9L458.5 234.9L458.5 238.7ZM460.4 235.1L460.4 235.1Q461.1 235.1 461.6 234.8Q462.0 234.4 462.2 233.8Q462.5 233.2 462.5 232.5L462.5 232.5Q462.5 231.7 462.2 231.1Q462.0 230.5 461.6 230.2Q461.1 229.8 460.4 229.8L460.4 229.8Q459.8 229.8 459.3 230.2Q458.9 230.5 458.7 231.1Q458.5 231.7 458.5 232.5L458.5 232.5Q458.5 233.2 458.7 233.8Q458.9 234.5 459.4 234.8Q459.8 235.1 460.4 235.1ZM466.4 238.7L465.3 238.7L465.3 228.9L466.4 228.9L466.4 230.0L466.5 230.0Q466.6 229.8 466.9 229.6Q467.1 229.3 467.5 229.0Q467.9 228.8 468.6 228.8L468.6 228.8Q469.5 228.8 470.1 229.3Q470.8 229.7 471.2 230.5Q471.6 231.3 471.6 232.5L471.6 232.5Q471.6 233.6 471.2 234.4Q470.8 235.3 470.1 235.7Q469.5 236.2 468.6 236.2L468.6 236.2Q467.9 236.2 467.5 235.9Q467.1 235.7 466.9 235.4Q466.6 235.1 466.5 234.9L466.5 234.9L466.4 234.9L466.4 238.7ZM468.4 235.1L468.4 235.1Q469.1 235.1 469.5 234.8Q470.0 234.4 470.2 233.8Q470.4 233.2 470.4 232.5L470.4 232.5Q470.4 231.7 470.2 231.1Q470.0 230.5 469.5 230.2Q469.1 229.8 468.4 229.8L468.4 229.8Q467.8 229.8 467.3 230.2Q466.9 230.5 466.6 231.1Q466.4 231.7 466.4 232.5L466.4 232.5Q466.4 233.2 466.6 233.8Q466.9 234.5 467.3 234.8Q467.8 235.1 468.4 235.1ZM476.2 236.2L476.2 236.2Q475.2 236.2 474.5 235.7Q473.7 235.2 473.3 234.4Q472.9 233.6 472.9 232.5Q472.9 231.4 473.3 230.6Q473.7 229.8 474.4 229.3Q475.1 228.8 476.1 228.8L476.1 228.8Q476.7 228.8 477.2 229.0Q477.8 229.2 478.2 229.6Q478.7 230.0 478.9 230.7Q479.2 231.4 479.2 232.4L479.2 232.4L479.2 232.8L474.1 232.8Q474.1 233.5 474.3 234.0L474.3 234.0Q474.6 234.6 475.1 234.9Q475.6 235.1 476.2 235.1L476.2 235.1Q476.7 235.1 477.0 235.0Q477.3 234.9 477.6 234.7Q477.8 234.4 478.0 234.0L478.0 234.0L479.1 234.3Q478.9 234.9 478.5 235.3Q478.1 235.7 477.5 235.9Q477.0 236.2 476.2 236.2ZM474.1 231.9L474.1 231.9L478.0 231.9Q478.0 231.4 477.8 231.0L477.8 231.0Q477.6 230.4 477.2 230.1Q476.7 229.8 476.1 229.8Q475.5 229.8 475.0 230.1Q474.5 230.5 474.3 231.0L474.3 231.0Q474.1 231.4 474.1 231.9ZM483.5 236.2L483.5 236.2Q482.6 236.2 481.9 235.7Q481.2 235.3 480.9 234.4Q480.5 233.6 480.5 232.5L480.5 232.5Q480.5 231.3 480.9 230.5Q481.2 229.7 481.9 229.3Q482.6 228.8 483.5 228.8L483.5 228.8Q484.2 228.8 484.6 229.0Q485.0 229.3 485.2 229.6Q485.4 229.8 485.5 230.0L485.5 230.0L485.6 230.0L485.6 226.5L486.8 226.5L486.8 236L485.7 236L485.7 234.9L485.5 234.9Q485.4 235.1 485.2 235.4Q485.0 235.7 484.6 235.9Q484.2 236.2 483.5 236.2ZM483.7 235.1L483.7 235.1Q484.3 235.1 484.7 234.8Q485.2 234.5 485.4 233.8Q485.6 233.2 485.6 232.5L485.6 232.5Q485.6 231.7 485.4 231.1Q485.2 230.5 484.8 230.2Q484.3 229.8 483.7 229.8L483.7 229.8Q483.0 229.8 482.5 230.2Q482.1 230.5 481.9 231.1Q481.6 231.7 481.6 232.5L481.6 232.5Q481.6 233.2 481.9 233.8Q482.1 234.4 482.5 234.8Q483.0 235.1 483.7 235.1Z "/></g><defs><clipPath id="satori_bc-id-1-2-2" clip-path="url(#satori_cp-id)"><path x="513" y="217" width="103" height="28" d="M527,217 h75 a14,14 0 0 1 14,14 v0 a14,14 0 0 1 -14,14 h-75 a14,14 0 0 1 -14,-14 v0 a14,14 0 0 1 14,-14"/></clipPath></defs><mask id="satori_om-id-1-2-2"><rect x="514" y="218" width="101" height="26" fill="#fff" mask="url(#satori_om-id)"/><path width="103" height="28" fill="none" stroke="#000" stroke-width="2" d="M517.101,221.101 A14,14 0 0 1 527,217 h75 a14,14 0 0 1 14,14 v0 a14,14 0 0 1 -14,14 h-75 a14,14 0 0 1 -14,-14 v0 A14,14 0 0 1 517.101,221.101"/></mask><path width="103" height="28" clip-path="url(#satori_bc-id-1-2-2)" fill="none" stroke="#f472b655" stroke-width="2" d="M517.101,221.101 A14,14 0 0 1 527,217 h75 a14,14 0 0 1 14,14 v0 a14,14 0 0 1 -14,14 h-75 a14,14 0 0 1 -14,-14 v0 A14,14 0 0 1 517.101,221.101"/><g mask="url(#satori_om-id)" clip-path="url(#satori_cp-id)"><path fill="#f472b6" d="M531.9 236.2L531.9 236.2Q530.9 236.2 530.2 235.7Q529.5 235.2 529.1 234.4Q528.7 233.6 528.7 232.5L528.7 232.5Q528.7 231.4 529.1 230.6Q529.5 229.7 530.2 229.3Q530.9 228.8 531.9 228.8L531.9 228.8Q532.9 228.8 533.6 229.3Q534.3 229.7 534.7 230.6Q535.1 231.4 535.1 232.5L535.1 232.5Q535.1 233.6 534.7 234.4Q534.3 235.2 533.6 235.7Q532.9 236.2 531.9 236.2ZM531.9 235.1L531.9 235.1Q532.6 235.1 533.1 234.8Q533.5 234.4 533.8 233.8Q534.0 233.2 534.0 232.5L534.0 232.5Q534.0 231.8 533.8 231.2Q533.5 230.6 533.1 230.2Q532.6 229.8 531.9 229.8L531.9 229.8Q531.2 229.8 530.7 230.2Q530.3 230.6 530.0 231.2Q529.8 231.8 529.8 232.5L529.8 232.5Q529.8 233.2 530.0 233.8Q530.3 234.4 530.7 234.8Q531.2 235.1 531.9 235.1ZM537.9 238.7L536.8 238.7L536.8 228.9L537.9 228.9L537.9 230.0L538.0 230.0Q538.1 229.8 538.4 229.6Q538.6 229.3 539.0 229.0Q539.4 228.8 540.1 228.8L540.1 228.8Q541.0 228.8 541.7 229.3Q542.3 229.7 542.7 230.5Q543.1 231.3 543.1 232.5L543.1 232.5Q543.1 233.6 542.7 234.4Q542.3 235.3 541.7 235.7Q541.0 236.2 540.1 236.2L540.1 236.2Q539.4 236.2 539.0 235.9Q538.6 235.7 538.4 235.4Q538.1 235.1 538.0 234.9L538.0 234.9L537.9 234.9L537.9 238.7ZM539.9 235.1L539.9 235.1Q540.6 235.1 541.0 234.8Q541.5 234.4 541.7 233.8Q541.9 233.2 541.9 232.5L541.9 232.5Q541.9 231.7 541.7 231.1Q541.5 230.5 541.0 230.2Q540.6 229.8 539.9 229.8L539.9 229.8Q539.3 229.8 538.8 230.2Q538.4 230.5 538.2 231.1Q537.9 231.7 537.9 232.5L537.9 232.5Q537.9 233.2 538.2 233.8Q538.4 234.5 538.8 234.8Q539.3 235.1 539.9 235.1ZM547.7 236.2L547.7 236.2Q546.7 236.2 546.0 235.7Q545.2 235.2 544.8 234.4Q544.4 233.6 544.4 232.5Q544.4 231.4 544.8 230.6Q545.2 229.8 545.9 229.3Q546.6 228.8 547.6 228.8L547.6 228.8Q548.2 228.8 548.7 229.0Q549.3 229.2 549.7 229.6Q550.2 230.0 550.4 230.7Q550.7 231.4 550.7 232.4L550.7 232.4L550.7 232.8L545.6 232.8Q545.6 233.5 545.8 234.0L545.8 234.0Q546.1 234.6 546.6 234.9Q547.1 235.1 547.7 235.1L547.7 235.1Q548.2 235.1 548.5 235.0Q548.9 234.9 549.1 234.7Q549.3 234.4 549.5 234.0L549.5 234.0L550.6 234.3Q550.4 234.9 550.0 235.3Q549.6 235.7 549.1 235.9Q548.5 236.2 547.7 236.2ZM545.6 231.9L545.6 231.9L549.5 231.9Q549.5 231.4 549.3 231.0L549.3 231.0Q549.1 230.4 548.7 230.1Q548.2 229.8 547.6 229.8Q547.0 229.8 546.5 230.1Q546.1 230.5 545.8 231.0L545.8 231.0Q545.6 231.4 545.6 231.9ZM553.5 231.7L553.5 231.7L553.5 236L552.3 236L552.3 228.9L553.4 228.9L553.4 230.2Q553.7 229.6 554.2 229.2L554.2 229.2Q554.8 228.8 555.6 228.8L555.6 228.8Q556.3 228.8 556.9 229.1Q557.4 229.4 557.7 230.0Q558.0 230.6 558.0 231.5L558.0 231.5L558.0 236L556.9 236L556.9 231.6Q556.9 230.8 556.4 230.3Q556.0 229.8 555.3 229.8L555.3 229.8Q554.8 229.8 554.4 230.1Q553.9 230.3 553.7 230.7Q553.5 231.1 553.5 231.7Z M565.0 228.9L566.5 228.9L566.5 229.9L565.0 229.9L565.0 234.2Q565.0 234.6 565.2 234.9Q565.4 235.1 565.8 235.1L565.8 235.1Q566.0 235.1 566.1 235.0Q566.3 235.0 566.4 235.0L566.4 235.0L566.7 236.0Q566.5 236.0 566.3 236.1Q566.0 236.1 565.8 236.1L565.8 236.1Q564.9 236.1 564.4 235.6Q563.9 235.1 563.9 234.2L563.9 234.2L563.9 229.9L562.8 229.9L562.8 228.9L563.9 228.9L563.9 227.2L565.0 227.2L565.0 228.9ZM570.8 236.2L570.8 236.2Q569.9 236.2 569.1 235.7Q568.4 235.2 568.0 234.4Q567.6 233.6 567.6 232.5L567.6 232.5Q567.6 231.4 568.0 230.6Q568.4 229.7 569.1 229.3Q569.9 228.8 570.8 228.8L570.8 228.8Q571.8 228.8 572.5 229.3Q573.2 229.7 573.7 230.6Q574.1 231.4 574.1 232.5L574.1 232.5Q574.1 233.6 573.7 234.4Q573.2 235.2 572.5 235.7Q571.8 236.2 570.8 236.2ZM570.8 235.1L570.8 235.1Q571.5 235.1 572.0 234.8Q572.5 234.4 572.7 233.8Q572.9 233.2 572.9 232.5L572.9 232.5Q572.9 231.8 572.7 231.2Q572.5 230.6 572.0 230.2Q571.5 229.8 570.8 229.8L570.8 229.8Q570.1 229.8 569.6 230.2Q569.2 230.6 569.0 231.2Q568.7 231.8 568.7 232.5L568.7 232.5Q568.7 233.2 569.0 233.8Q569.2 234.4 569.6 234.8Q570.1 235.1 570.8 235.1Z M583.3 236.1L583.3 236.1Q582.1 236.1 581.2 235.5Q580.2 235.0 579.7 233.9Q579.1 232.8 579.1 231.3L579.1 231.3Q579.1 229.8 579.7 228.7Q580.2 227.6 581.2 227.0Q582.1 226.4 583.3 226.4L583.3 226.4Q584.1 226.4 584.7 226.6Q585.3 226.8 585.8 227.2Q586.4 227.6 586.7 228.2Q587.0 228.8 587.2 229.5L587.2 229.5L586.0 229.5Q585.9 229.0 585.6 228.7Q585.4 228.3 585.0 228.0Q584.7 227.8 584.2 227.7Q583.8 227.5 583.3 227.5L583.3 227.5Q582.5 227.5 581.8 228.0Q581.1 228.4 580.7 229.2Q580.3 230.1 580.3 231.3L580.3 231.3Q580.3 232.5 580.7 233.3Q581.1 234.2 581.8 234.6Q582.5 235.0 583.3 235.0L583.3 235.0Q583.8 235.0 584.2 234.9Q584.7 234.7 585.0 234.5Q585.4 234.2 585.6 233.9Q585.9 233.5 586.0 233.0L586.0 233.0L587.2 233.0Q587.0 233.7 586.7 234.3Q586.4 234.9 585.9 235.3Q585.3 235.7 584.7 235.9Q584.1 236.1 583.3 236.1ZM592.0 236L592.0 236L589.0 236L589.0 226.5L592.1 226.5Q593.5 226.5 594.5 227.1Q595.4 227.7 596.0 228.7Q596.5 229.8 596.5 231.3L596.5 231.3Q596.5 232.7 596.0 233.8Q595.4 234.9 594.4 235.4Q593.4 236 592.0 236ZM590.2 227.6L590.2 234.9L591.9 234.9Q593.0 234.9 593.8 234.5Q594.6 234.1 594.9 233.2Q595.3 232.4 595.3 231.3L595.3 231.3Q595.3 230.1 594.9 229.3Q594.6 228.5 593.8 228.0Q593.1 227.6 592.0 227.6L592.0 227.6L590.2 227.6ZM598.4 226.5L599.6 226.5L599.6 236L598.4 236L598.4 226.5Z "/></g></svg>