<!-- Generated by readme-aura https://github.com/collectioneur/readme-aura -->
<svg width="900" height="64" viewBox="0 0 900 64" xmlns="http://www.w3.org/2000/svg"><mask id="satori_om-id"><rect x="0" y="0" width="900" height="64" fill="#fff"/></mask><path x="0" y="0" width="900" height="64" fill="#0a0c14" d="M10,0 h880 a10,10 0 0 1 10,10 v44 a10,10 0 0 1 -10,10 h-880 a10,10 0 0 1 -10,-10 v-44 a10,10 0 0 1 10,-10"/><mask id="satori_om-id-0"><rect x="22" y="26" width="12" height="12" fill="#fff"/></mask><path x="22" y="26" width="12" height="12" fill="#ff5f56" d="M28,26 h0 a6,6 0 0 1 6,6 v0 a6,6 0 0 1 -6,6 h0 a6,6 0 0 1 -6,-6 v0 a6,6 0 0 1 6,-6"/><mask id="satori_om-id-1"><rect x="42" y="26" width="12" height="12" fill="#fff"/></mask><path x="42" y="26" width="12" height="12" fill="#ffbd2e" d="M48,26 h0 a6,6 0 0 1 6,6 v0 a6,6 0 0 1 -6,6 h0 a6,6 0 0 1 -6,-6 v0 a6,6 0 0 1 6,-6"/><mask id="satori_om-id-2"><rect x="62" y="26" width="12" height="12" fill="#fff"/></mask><path x="62" y="26" width="12" height="12" fill="#27c93f" d="M68,26 h0 a6,6 0 0 1 6,6 v0 a6,6 0 0 1 -6,6 h0 a6,6 0 0 1 -6,-6 v0 a6,6 0 0 1 6,-6"/><mask id="satori_om-id-3"><rect x="94" y="22" width="27" height="21" fill="#fff"/></mask><g  ><path fill="#22d3ee" d="M96.8 34.4L95.4 34.4Q95.4 33.3 95.7 32.7Q96.1 32.1 96.6 31.8Q97.2 31.5 97.8 31.5L97.8 31.5Q98.4 31.5 98.9 31.8Q99.4 32.0 100.1 32.6L100.1 32.6Q100.5 33.0 100.8 33.2Q101.1 33.3 101.4 33.3L101.4 33.3Q101.9 33.3 102.2 33.0Q102.5 32.6 102.5 31.9L102.5 31.9L103.9 31.9Q103.9 32.9 103.5 33.5Q103.2 34.1 102.6 34.4Q102.1 34.7 101.4 34.7L101.4 34.7Q100.8 34.7 100.3 34.4Q99.8 34.1 99.1 33.6L99.1 33.6Q98.7 33.2 98.4 33.0Q98.2 32.9 97.9 32.9L97.9 32.9Q97.4 32.9 97.1 33.2Q96.7 33.6 96.8 34.4L96.8 34.4Z M116.0 39.8L115.0 39.8L115.0 38.2Q114.0 38.1 113.2 37.8L113.2 37.8Q112.2 37.4 111.6 36.6Q111.1 35.8 111.0 34.8L111.0 34.8L112.6 34.8Q112.7 35.5 113.1 35.9Q113.5 36.4 114.1 36.6L114.1 36.6Q114.5 36.7 115.0 36.8L115.0 36.8L115.0 32.3L114.5 32.2Q113.0 31.7 112.2 31.0Q111.3 30.2 111.3 28.9L111.3 28.9Q111.3 27.9 111.9 27.1Q112.5 26.3 113.4 25.9L113.4 25.9Q114.1 25.6 115.0 25.5L115.0 25.5L115.0 23.8L116.0 23.8L116.0 25.5Q117.0 25.5 117.7 25.9L117.7 25.9Q118.7 26.3 119.2 27.1Q119.8 27.8 119.8 28.8L119.8 28.8L118.3 28.8Q118.2 27.8 117.4 27.4L117.4 27.4Q116.8 27.0 116.0 26.9L116.0 26.9L116.0 31.1L116.5 31.2Q117.0 31.3 117.6 31.6Q118.2 31.8 118.7 32.2Q119.3 32.6 119.6 33.2Q120.0 33.8 120.0 34.6L120.0 34.6Q120.0 35.6 119.4 36.5Q118.9 37.3 117.9 37.7L117.9 37.7Q117.1 38.1 116.0 38.2L116.0 38.2L116.0 39.8ZM116.0 32.6L116.0 36.8Q116.5 36.7 117.0 36.5L117.0 36.5Q117.7 36.3 118.0 35.8Q118.4 35.3 118.4 34.6L118.4 34.6Q118.4 34.0 118.1 33.6Q117.8 33.3 117.2 33.0Q116.7 32.8 116.0 32.6L116.0 32.6L116.0 32.6ZM115.0 30.8L115.0 30.8L115.0 26.9Q114.5 27.0 114.1 27.1L114.1 27.1Q113.5 27.4 113.2 27.8Q112.9 28.3 112.9 28.9L112.9 28.9Q112.9 29.5 113.3 29.9Q113.7 30.3 114.2 30.5L114.2 30.5Q114.6 30.7 115.0 30.8Z "/></g><mask id="satori_om-id-4"><rect x="133" y="22" width="335" height="21" fill="#fff"/></mask><g  ><path fill="#e2e8f0" d="M137.5 38.2L137.5 38.2Q136.5 38.2 135.8 37.9Q135.0 37.6 134.5 37.1Q134.1 36.5 133.9 35.8L133.9 35.8L135.3 35.4Q135.5 36.2 136.1 36.5Q136.6 36.9 137.4 36.9L137.4 36.9Q138.4 36.9 139.0 36.5Q139.6 36.1 139.6 35.5L139.6 35.5Q139.6 35.0 139.2 34.7Q138.9 34.4 138.2 34.2L138.2 34.2L136.7 33.8Q135.4 33.5 134.8 32.9Q134.2 32.3 134.2 31.3L134.2 31.3Q134.2 30.5 134.6 29.9Q135.1 29.3 135.9 28.9Q136.6 28.6 137.6 28.6L137.6 28.6Q138.6 28.6 139.2 28.9Q139.9 29.2 140.3 29.7Q140.7 30.2 141.0 30.8L141.0 30.8L139.6 31.2Q139.4 30.7 139.0 30.3Q138.5 29.9 137.6 29.9L137.6 29.9Q136.8 29.9 136.2 30.3Q135.7 30.6 135.7 31.2L135.7 31.2Q135.7 31.7 136.1 32.0Q136.4 32.4 137.3 32.5L137.3 32.5L138.7 32.9Q139.9 33.2 140.5 33.8Q141.1 34.4 141.1 35.4L141.1 35.4Q141.1 36.2 140.7 36.8Q140.2 37.5 139.4 37.8Q138.6 38.2 137.5 38.2ZM144.8 32.4L144.8 32.4L144.8 38L143.3 38L143.3 25.6L144.8 25.6L144.8 30.3Q145.2 29.5 145.7 29.1L145.7 29.1Q146.5 28.6 147.6 28.6L147.6 28.6Q148.5 28.6 149.2 29.0Q149.9 29.4 150.3 30.2Q150.7 30.9 150.7 32.1L150.7 32.1L150.7 38L149.2 38L149.2 32.2Q149.2 31.2 148.7 30.6Q148.1 29.9 147.1 29.9L147.1 29.9Q146.5 29.9 145.9 30.2Q145.4 30.5 145.1 31.1Q144.8 31.6 144.8 32.4ZM154.8 38L153.3 38L153.3 28.7L154.8 28.7L154.8 38ZM154.1 27.2L154.1 27.2Q153.7 27.2 153.4 26.9Q153.1 26.6 153.1 26.2L153.1 26.2Q153.1 25.8 153.4 25.5Q153.7 25.2 154.1 25.2L154.1 25.2Q154.5 25.2 154.8 25.5Q155.1 25.8 155.1 26.2L155.1 26.2Q155.1 26.6 154.8 26.9Q154.5 27.2 154.1 27.2ZM158.9 41.5L157.5 41.5L157.5 28.7L158.9 28.7L158.9 30.2L159.1 30.2Q159.2 30.0 159.5 29.6Q159.8 29.2 160.3 28.9Q160.8 28.6 161.8 28.6L161.8 28.6Q162.9 28.6 163.8 29.2Q164.7 29.8 165.2 30.8Q165.7 31.9 165.7 33.4L165.7 33.4Q165.7 34.9 165.2 35.9Q164.7 37.0 163.8 37.6Q162.9 38.2 161.8 38.2L161.8 38.2Q160.9 38.2 160.3 37.9Q159.8 37.6 159.5 37.2Q159.2 36.8 159.1 36.6L159.1 36.6L158.9 36.6L158.9 41.5ZM161.5 36.9L161.5 36.9Q162.4 36.9 163.0 36.4Q163.6 35.9 163.9 35.1Q164.2 34.3 164.2 33.4L164.2 33.4Q164.2 32.4 163.9 31.6Q163.6 30.9 163.0 30.4Q162.4 29.9 161.5 29.9L161.5 29.9Q160.7 29.9 160.1 30.4Q159.5 30.8 159.2 31.6Q158.9 32.3 158.9 33.4L158.9 33.4Q158.9 34.4 159.2 35.2Q159.5 36.0 160.1 36.4Q160.7 36.9 161.5 36.9ZM169.4 41.5L167.9 41.5L167.9 28.7L169.3 28.7L169.3 30.2L169.5 30.2Q169.6 30.0 169.9 29.6Q170.2 29.2 170.7 28.9Q171.3 28.6 172.2 28.6L172.2 28.6Q173.3 28.6 174.2 29.2Q175.1 29.8 175.6 30.8Q176.1 31.9 176.1 33.4L176.1 33.4Q176.1 34.9 175.6 35.9Q175.1 37.0 174.2 37.6Q173.3 38.2 172.2 38.2L172.2 38.2Q171.3 38.2 170.8 37.9Q170.2 37.6 169.9 37.2Q169.6 36.8 169.5 36.6L169.5 36.6L169.4 36.6L169.4 41.5ZM171.9 36.9L171.9 36.9Q172.8 36.9 173.4 36.4Q174.0 35.9 174.3 35.1Q174.6 34.3 174.6 33.4L174.6 33.4Q174.6 32.4 174.3 31.6Q174.0 30.9 173.4 30.4Q172.8 29.9 171.9 29.9L171.9 29.9Q171.1 29.9 170.5 30.4Q169.9 30.8 169.6 31.6Q169.3 32.3 169.3 33.4L169.3 33.4Q169.3 34.4 169.6 35.2Q169.9 36.0 170.5 36.4Q171.1 36.9 171.9 36.9ZM179.8 38L178.3 38L178.3 28.7L179.8 28.7L179.8 38ZM179.0 27.2L179.0 27.2Q178.6 27.2 178.3 26.9Q178.0 26.6 178.0 26.2L178.0 26.2Q178.0 25.8 178.3 25.5Q178.6 25.2 179.0 25.2L179.0 25.2Q179.5 25.2 179.8 25.5Q180.1 25.8 180.1 26.2L180.1 26.2Q180.1 26.6 179.8 26.9Q179.5 27.2 179.0 27.2ZM183.9 32.4L183.9 32.4L183.9 38L182.4 38L182.4 28.7L183.8 28.7L183.8 30.4Q184.2 29.6 184.8 29.1L184.8 29.1Q185.6 28.6 186.7 28.6L186.7 28.6Q187.6 28.6 188.3 29.0Q189.0 29.4 189.4 30.2Q189.8 30.9 189.8 32.1L189.8 32.1L189.8 38L188.3 38L188.3 32.2Q188.3 31.2 187.8 30.6Q187.2 29.9 186.2 29.9L186.2 29.9Q185.6 29.9 185.0 30.2Q184.5 30.5 184.2 31.1Q183.9 31.6 183.9 32.4ZM196.2 41.7L196.2 41.7Q195.2 41.7 194.4 41.4Q193.7 41.1 193.2 40.7Q192.7 40.3 192.4 39.8L192.4 39.8L193.6 39.0Q193.8 39.3 194.1 39.6Q194.4 39.9 194.9 40.1Q195.4 40.4 196.2 40.4L196.2 40.4Q197.3 40.4 198.0 39.8Q198.7 39.3 198.7 38.2L198.7 38.2L198.7 36.3L198.6 36.3Q198.4 36.6 198.2 36.9Q197.9 37.3 197.3 37.6Q196.8 37.9 195.9 37.9L195.9 37.9Q194.8 37.9 193.9 37.3Q193.0 36.8 192.5 35.8Q192.0 34.8 192.0 33.3L192.0 33.3Q192.0 31.9 192.5 30.8Q193.0 29.8 193.9 29.2Q194.8 28.6 195.9 28.6L195.9 28.6Q196.8 28.6 197.4 28.9Q197.9 29.2 198.2 29.6Q198.5 30.0 198.6 30.2L198.6 30.2L198.8 30.2L198.8 28.7L200.2 28.7L200.2 38.2Q200.2 39.4 199.7 40.2Q199.2 41.0 198.2 41.3Q197.3 41.7 196.2 41.7ZM196.2 36.5L196.2 36.5Q197.0 36.5 197.6 36.1Q198.2 35.8 198.5 35.0Q198.8 34.3 198.8 33.3L198.8 33.3Q198.8 32.3 198.5 31.5Q198.2 30.8 197.6 30.4Q197.0 29.9 196.2 29.9L196.2 29.9Q195.3 29.9 194.7 30.4Q194.1 30.8 193.8 31.6Q193.5 32.4 193.5 33.3L193.5 33.3Q193.5 34.2 193.8 35.0Q194.1 35.7 194.7 36.1Q195.3 36.5 196.2 36.5Z M211.8 38.2L211.8 38.2Q210.4 38.2 209.5 37.8Q208.5 37.4 207.9 36.6Q207.4 35.8 207.3 34.8L207.3 34.8L208.9 34.8Q209.0 35.5 209.4 35.9Q209.8 36.4 210.4 36.6Q211.1 36.8 211.8 36.8L211.8 36.8Q212.6 36.8 213.3 36.5Q214.0 36.3 214.3 35.8Q214.7 35.3 214.7 34.6L214.7 34.6Q214.7 34.0 214.4 33.6Q214.1 33.3 213.5 33.0Q213.0 32.8 212.3 32.6L212.3 32.6L210.8 32.2Q209.3 31.7 208.5 31.0Q207.6 30.2 207.6 28.9L207.6 28.9Q207.6 27.9 208.2 27.1Q208.8 26.3 209.7 25.9Q210.7 25.5 211.9 25.5L211.9 25.5Q213.1 25.5 214.0 25.9Q215.0 26.3 215.5 27.1Q216.1 27.8 216.1 28.8L216.1 28.8L214.6 28.8Q214.5 27.8 213.7 27.4Q212.9 26.9 211.8 26.9L211.8 26.9Q211.0 26.9 210.4 27.1Q209.8 27.4 209.5 27.8Q209.2 28.3 209.2 28.9L209.2 28.9Q209.2 29.5 209.6 29.9Q210.0 30.3 210.5 30.5Q211.1 30.7 211.5 30.9L211.5 30.9L212.8 31.2Q213.3 31.3 213.9 31.6Q214.5 31.8 215.0 32.2Q215.6 32.6 215.9 33.2Q216.3 33.8 216.3 34.6L216.3 34.6Q216.3 35.6 215.7 36.5Q215.2 37.3 214.2 37.7Q213.2 38.2 211.8 38.2ZM221.1 38.2L221.1 38.2Q220.3 38.2 219.5 37.9Q218.8 37.6 218.4 36.9Q218.0 36.3 218.0 35.4L218.0 35.4Q218.0 34.6 218.3 34.1Q218.6 33.6 219.1 33.3Q219.7 33.0 220.3 32.9Q220.9 32.7 221.6 32.6L221.6 32.6Q222.4 32.5 222.9 32.5Q223.5 32.4 223.7 32.3Q224.0 32.1 224.0 31.8L224.0 31.8L224.0 31.7Q224.0 31.2 223.8 30.7Q223.5 30.3 223.1 30.1Q222.7 29.9 222.0 29.9L222.0 29.9Q221.4 29.9 220.9 30.1Q220.4 30.3 220.1 30.6Q219.8 31.0 219.7 31.3L219.7 31.3L218.2 30.8Q218.6 30.0 219.2 29.5Q219.8 29.0 220.5 28.8Q221.3 28.6 222.0 28.6L222.0 28.6Q222.5 28.6 223.1 28.7Q223.6 28.8 224.2 29.2Q224.7 29.5 225.1 30.1Q225.5 30.8 225.5 31.9L225.5 31.9L225.5 38L224.0 38L224.0 36.7L223.9 36.7Q223.7 37.1 223.4 37.4Q223.0 37.8 222.5 38.0Q221.9 38.2 221.1 38.2ZM221.4 36.9L221.4 36.9Q222.2 36.9 222.8 36.6Q223.4 36.2 223.7 35.7Q224.0 35.2 224.0 34.6L224.0 34.6L224.0 33.4Q223.9 33.5 223.6 33.6Q223.3 33.6 222.9 33.7Q222.5 33.8 222.1 33.8Q221.7 33.9 221.5 33.9L221.5 33.9Q221.0 34.0 220.5 34.1Q220.1 34.3 219.8 34.6Q219.5 34.9 219.5 35.4L219.5 35.4Q219.5 35.9 219.7 36.2Q220.0 36.6 220.4 36.7Q220.8 36.9 221.4 36.9ZM230.7 38.2L230.7 38.2Q229.8 38.2 229.1 37.9Q228.4 37.6 228.0 36.9Q227.5 36.3 227.5 35.4L227.5 35.4Q227.5 34.6 227.8 34.1Q228.2 33.6 228.7 33.3Q229.2 33.0 229.9 32.9Q230.5 32.7 231.1 32.6L231.1 32.6Q232.0 32.5 232.5 32.5Q233.0 32.4 233.3 32.3Q233.5 32.1 233.5 31.8L233.5 31.8L233.5 31.7Q233.5 31.2 233.3 30.7Q233.1 30.3 232.7 30.1Q232.2 29.9 231.6 29.9L231.6 29.9Q230.9 29.9 230.4 30.1Q230.0 30.3 229.7 30.6Q229.4 31.0 229.2 31.3L229.2 31.3L227.8 30.8Q228.2 30.0 228.8 29.5Q229.4 29.0 230.1 28.8Q230.8 28.6 231.5 28.6L231.5 28.6Q232.0 28.6 232.6 28.7Q233.2 28.8 233.7 29.2Q234.3 29.5 234.7 30.1Q235.0 30.8 235.0 31.9L235.0 31.9L235.0 38L233.5 38L233.5 36.7L233.4 36.7Q233.3 37.1 232.9 37.4Q232.6 37.8 232.0 38.0Q231.5 38.2 230.7 38.2ZM230.9 36.9L230.9 36.9Q231.8 36.9 232.4 36.6Q232.9 36.2 233.2 35.7Q233.5 35.2 233.5 34.6L233.5 34.6L233.5 33.4Q233.4 33.5 233.1 33.6Q232.8 33.6 232.4 33.7Q232.0 33.8 231.7 33.8Q231.3 33.9 231.1 33.9L231.1 33.9Q230.5 34.0 230.1 34.1Q229.6 34.3 229.3 34.6Q229.0 34.9 229.0 35.4L229.0 35.4Q229.0 35.9 229.3 36.2Q229.5 36.6 230.0 36.7Q230.4 36.9 230.9 36.9ZM241.8 38.2L241.8 38.2Q240.4 38.2 239.5 37.8Q238.5 37.4 237.9 36.6Q237.4 35.8 237.3 34.8L237.3 34.8L238.9 34.8Q239.0 35.5 239.4 35.9Q239.8 36.4 240.4 36.6Q241.1 36.8 241.8 36.8L241.8 36.8Q242.6 36.8 243.3 36.5Q244.0 36.3 244.3 35.8Q244.7 35.3 244.7 34.6L244.7 34.6Q244.7 34.0 244.4 33.6Q244.1 33.3 243.5 33.0Q243.0 32.8 242.3 32.6L242.3 32.6L240.8 32.2Q239.3 31.7 238.5 31.0Q237.6 30.2 237.6 28.9L237.6 28.9Q237.6 27.9 238.2 27.1Q238.8 26.3 239.7 25.9Q240.7 25.5 241.9 25.5L241.9 25.5Q243.1 25.5 244.0 25.9Q245.0 26.3 245.5 27.1Q246.1 27.8 246.1 28.8L246.1 28.8L244.6 28.8Q244.5 27.8 243.7 27.4Q242.9 26.9 241.8 26.9L241.8 26.9Q241.0 26.9 240.4 27.1Q239.8 27.4 239.5 27.8Q239.2 28.3 239.2 28.9L239.2 28.9Q239.2 29.5 239.6 29.9Q240.0 30.3 240.5 30.5Q241.1 30.7 241.5 30.9L241.5 30.9L242.8 31.2Q243.3 31.3 243.9 31.6Q244.5 31.8 245.0 32.2Q245.6 32.6 245.9 33.2Q246.3 33.8 246.3 34.6L246.3 34.6Q246.3 35.6 245.7 36.5Q245.2 37.3 244.2 37.7Q243.2 38.2 241.8 38.2Z M254.8 38L253.3 38L253.3 28.7L254.8 28.7L254.8 38ZM254.1 27.2L254.1 27.2Q253.7 27.2 253.4 26.9Q253.0 26.6 253.0 26.2L253.0 26.2Q253.0 25.8 253.4 25.5Q253.7 25.2 254.1 25.2L254.1 25.2Q254.5 25.2 254.8 25.5Q255.1 25.8 255.1 26.2L255.1 26.2Q255.1 26.6 254.8 26.9Q254.5 27.2 254.1 27.2ZM258.9 32.4L258.9 32.4L258.9 38L257.4 38L257.4 28.7L258.9 28.7L258.9 30.4Q259.3 29.6 259.9 29.1L259.9 29.1Q260.7 28.6 261.7 28.6L261.7 28.6Q262.7 28.6 263.4 29.0Q264.1 29.4 264.5 30.2Q264.9 30.9 264.9 32.1L264.9 32.1L264.9 38L263.4 38L263.4 32.2Q263.4 31.2 262.8 30.6Q262.3 29.9 261.3 29.9L261.3 29.9Q260.6 29.9 260.1 30.2Q259.6 30.5 259.2 31.1Q258.9 31.6 258.9 32.4Z M273.8 41.5L272.3 41.5L272.3 28.7L273.7 28.7L273.7 30.2L273.9 30.2Q274.0 30.0 274.3 29.6Q274.6 29.2 275.1 28.9Q275.7 28.6 276.6 28.6L276.6 28.6Q277.7 28.6 278.6 29.2Q279.5 29.8 280.0 30.8Q280.5 31.9 280.5 33.4L280.5 33.4Q280.5 34.9 280.0 35.9Q279.5 37.0 278.6 37.6Q277.7 38.2 276.6 38.2L276.6 38.2Q275.7 38.2 275.2 37.9Q274.6 37.6 274.3 37.2Q274.0 36.8 273.9 36.6L273.9 36.6L273.8 36.6L273.8 41.5ZM276.4 36.9L276.4 36.9Q277.2 36.9 277.8 36.4Q278.4 35.9 278.7 35.1Q279.0 34.3 279.0 33.4L279.0 33.4Q279.0 32.4 278.7 31.6Q278.4 30.9 277.8 30.4Q277.2 29.9 276.4 29.9L276.4 29.9Q275.5 29.9 274.9 30.4Q274.3 30.8 274.0 31.6Q273.7 32.3 273.7 33.4L273.7 33.4Q273.7 34.4 274.0 35.2Q274.3 36.0 274.9 36.4Q275.5 36.9 276.4 36.9ZM284.2 38L282.7 38L282.7 28.7L284.1 28.7L284.1 30.1L284.2 30.1Q284.5 29.4 285.1 29.0Q285.8 28.6 286.6 28.6L286.6 28.6Q286.8 28.6 287.0 28.6Q287.3 28.6 287.4 28.6L287.4 28.6L287.4 30.1Q287.3 30.1 287.1 30.1Q286.8 30.0 286.5 30.0L286.5 30.0Q285.8 30.0 285.3 30.3Q284.8 30.6 284.5 31.1Q284.2 31.6 284.2 32.2L284.2 32.2L284.2 38ZM292.9 38.2L292.9 38.2Q291.6 38.2 290.6 37.6Q289.7 37.0 289.2 35.9Q288.6 34.8 288.6 33.4L288.6 33.4Q288.6 32.0 289.2 30.9Q289.7 29.8 290.6 29.2Q291.6 28.6 292.9 28.6L292.9 28.6Q294.1 28.6 295.1 29.2Q296.0 29.8 296.6 30.9Q297.1 32.0 297.1 33.4L297.1 33.4Q297.1 34.8 296.6 35.9Q296.0 37.0 295.1 37.6Q294.1 38.2 292.9 38.2ZM292.9 36.9L292.9 36.9Q293.8 36.9 294.4 36.4Q295.0 35.9 295.3 35.1Q295.6 34.3 295.6 33.4L295.6 33.4Q295.6 32.5 295.3 31.7Q295.0 30.9 294.4 30.4Q293.8 29.9 292.9 29.9L292.9 29.9Q291.9 29.9 291.3 30.4Q290.7 30.9 290.4 31.7Q290.2 32.5 290.2 33.4L290.2 33.4Q290.2 34.3 290.4 35.1Q290.7 35.9 291.3 36.4Q291.9 36.9 292.9 36.9ZM302.8 38.2L302.8 38.2Q301.6 38.2 300.7 37.6Q299.8 37.0 299.3 35.9Q298.8 34.9 298.8 33.4L298.8 33.4Q298.8 31.9 299.3 30.8Q299.8 29.8 300.7 29.2Q301.6 28.6 302.8 28.6L302.8 28.6Q303.7 28.6 304.2 28.9Q304.7 29.2 305.0 29.6Q305.3 30.0 305.4 30.2L305.4 30.2L305.6 30.2L305.6 25.6L307.1 25.6L307.1 38L305.6 38L305.6 36.6L305.4 36.6Q305.3 36.8 305.0 37.2Q304.7 37.6 304.2 37.9Q303.6 38.2 302.8 38.2ZM303.0 36.9L303.0 36.9Q303.8 36.9 304.4 36.4Q305.0 36.0 305.3 35.2Q305.6 34.4 305.6 33.4L305.6 33.4Q305.6 32.3 305.3 31.6Q305.0 30.8 304.4 30.4Q303.8 29.9 303.0 29.9L303.0 29.9Q302.1 29.9 301.5 30.4Q300.9 30.9 300.6 31.6Q300.3 32.4 300.3 33.4L300.3 33.4Q300.3 34.3 300.6 35.1Q300.9 35.9 301.5 36.4Q302.1 36.9 303.0 36.9ZM312.8 38.1L312.8 38.1Q311.9 38.1 311.2 37.7Q310.5 37.3 310.1 36.6Q309.7 35.8 309.7 34.6L309.7 34.6L309.7 28.7L311.2 28.7L311.2 34.5Q311.2 35.6 311.7 36.2Q312.3 36.8 313.3 36.8L313.3 36.8Q313.9 36.8 314.5 36.5Q315.0 36.2 315.3 35.6Q315.6 35.1 315.6 34.3L315.6 34.3L315.6 28.7L317.1 28.7L317.1 38L315.7 38L315.7 36.3Q315.3 37.2 314.6 37.6L314.6 37.6Q313.8 38.1 312.8 38.1ZM323.5 38.2L323.5 38.2Q322.2 38.2 321.3 37.6Q320.3 37.0 319.8 35.9Q319.3 34.8 319.3 33.4L319.3 33.4Q319.3 32.0 319.8 30.9Q320.3 29.8 321.3 29.2Q322.2 28.6 323.5 28.6L323.5 28.6Q324.2 28.6 324.8 28.8Q325.4 29.0 325.9 29.3Q326.4 29.6 326.7 30.1Q327.1 30.6 327.3 31.2L327.3 31.2L325.8 31.6Q325.7 31.2 325.5 30.9Q325.3 30.6 325.0 30.4Q324.7 30.2 324.3 30.1Q324.0 29.9 323.5 29.9L323.5 29.9Q322.6 29.9 322.0 30.4Q321.4 30.9 321.1 31.7Q320.8 32.5 320.8 33.4L320.8 33.4Q320.8 34.3 321.1 35.1Q321.4 35.9 322.0 36.4Q322.6 36.9 323.5 36.9L323.5 36.9Q324.0 36.9 324.4 36.7Q324.8 36.6 325.1 36.4Q325.4 36.2 325.6 35.8Q325.8 35.5 325.9 35.2L325.9 35.2L327.3 35.6Q327.1 36.2 326.8 36.7Q326.4 37.2 325.9 37.5Q325.4 37.8 324.8 38.0Q324.2 38.2 323.5 38.2ZM331.2 28.7L333.1 28.7L333.1 30.0L331.2 30.0L331.2 35.6Q331.2 36.2 331.4 36.5Q331.7 36.8 332.3 36.8L332.3 36.8Q332.4 36.8 332.6 36.8Q332.9 36.7 333.0 36.7L333.0 36.7L333.4 38.0Q333.1 38.0 332.8 38.1Q332.5 38.1 332.2 38.1L332.2 38.1Q331.0 38.1 330.4 37.5Q329.7 36.8 329.7 35.7L329.7 35.7L329.7 30.0L328.3 30.0L328.3 28.7L329.7 28.7L329.7 26.5L331.2 26.5L331.2 28.7ZM336.5 38L335.0 38L335.0 28.7L336.5 28.7L336.5 38ZM335.8 27.2L335.8 27.2Q335.3 27.2 335.0 26.9Q334.7 26.6 334.7 26.2L334.7 26.2Q334.7 25.8 335.0 25.5Q335.3 25.2 335.8 25.2L335.8 25.2Q336.2 25.2 336.5 25.5Q336.8 25.8 336.8 26.2L336.8 26.2Q336.8 26.6 336.5 26.9Q336.2 27.2 335.8 27.2ZM342.9 38.2L342.9 38.2Q341.6 38.2 340.7 37.6Q339.7 37.0 339.2 35.9Q338.7 34.8 338.7 33.4L338.7 33.4Q338.7 32.0 339.2 30.9Q339.7 29.8 340.7 29.2Q341.6 28.6 342.9 28.6L342.9 28.6Q344.2 28.6 345.1 29.2Q346.1 29.8 346.6 30.9Q347.1 32.0 347.1 33.4L347.1 33.4Q347.1 34.8 346.6 35.9Q346.1 37.0 345.1 37.6Q344.2 38.2 342.9 38.2ZM342.9 36.9L342.9 36.9Q343.8 36.9 344.4 36.4Q345.1 35.9 345.3 35.1Q345.6 34.3 345.6 33.4L345.6 33.4Q345.6 32.5 345.3 31.7Q345.1 30.9 344.4 30.4Q343.8 29.9 342.9 29.9L342.9 29.9Q342.0 29.9 341.4 30.4Q340.8 30.9 340.5 31.7Q340.2 32.5 340.2 33.4L340.2 33.4Q340.2 34.3 340.5 35.1Q340.8 35.9 341.4 36.4Q342.0 36.9 342.9 36.9ZM350.8 32.4L350.8 32.4L350.8 38L349.3 38L349.3 28.7L350.8 28.7L350.8 30.4Q351.2 29.6 351.8 29.1L351.8 29.1Q352.5 28.6 353.6 28.6L353.6 28.6Q354.5 28.6 355.2 29.0Q356.0 29.4 356.3 30.2Q356.7 30.9 356.7 32.1L356.7 32.1L356.7 38L355.2 38L355.2 32.2Q355.2 31.2 354.7 30.6Q354.1 29.9 353.2 29.9L353.2 29.9Q352.5 29.9 352.0 30.2Q351.4 30.5 351.1 31.1Q350.8 31.6 350.8 32.4Z M365.3 33.2L365.3 33.2Q364.8 33.2 364.5 32.9Q364.2 32.6 364.2 32.1L364.2 32.1Q364.2 31.7 364.5 31.3Q364.8 31.0 365.3 31.0L365.3 31.0Q365.7 31.0 366.1 31.3Q366.4 31.7 366.4 32.1L366.4 32.1Q366.4 32.6 366.1 32.9Q365.7 33.2 365.3 33.2Z M377.6 38.2L377.6 38.2Q376.3 38.2 375.4 37.6Q374.4 37.0 373.9 35.9Q373.4 34.8 373.4 33.4L373.4 33.4Q373.4 32.0 373.9 30.9Q374.4 29.8 375.4 29.2Q376.3 28.6 377.6 28.6L377.6 28.6Q378.9 28.6 379.8 29.2Q380.8 29.8 381.3 30.9Q381.8 32.0 381.8 33.4L381.8 33.4Q381.8 34.8 381.3 35.9Q380.8 37.0 379.8 37.6Q378.9 38.2 377.6 38.2ZM377.6 36.9L377.6 36.9Q378.5 36.9 379.1 36.4Q379.7 35.9 380.0 35.1Q380.3 34.3 380.3 33.4L380.3 33.4Q380.3 32.5 380.0 31.7Q379.7 30.9 379.1 30.4Q378.5 29.9 377.6 29.9L377.6 29.9Q376.7 29.9 376.1 30.4Q375.5 30.9 375.2 31.7Q374.9 32.5 374.9 33.4L374.9 33.4Q374.9 34.3 375.2 35.1Q375.5 35.9 376.1 36.4Q376.7 36.9 377.6 36.9ZM385.5 41.5L384.0 41.5L384.0 28.7L385.5 28.7L385.5 30.2L385.6 30.2Q385.8 30.0 386.1 29.6Q386.3 29.2 386.9 28.9Q387.4 28.6 388.3 28.6L388.3 28.6Q389.5 28.6 390.4 29.2Q391.2 29.8 391.7 30.8Q392.3 31.9 392.3 33.4L392.3 33.4Q392.3 34.9 391.8 35.9Q391.3 37.0 390.4 37.6Q389.5 38.2 388.3 38.2L388.3 38.2Q387.4 38.2 386.9 37.9Q386.4 37.6 386.1 37.2Q385.8 36.8 385.6 36.6L385.6 36.6L385.5 36.6L385.5 41.5ZM388.1 36.9L388.1 36.9Q389.0 36.9 389.6 36.4Q390.1 35.9 390.4 35.1Q390.7 34.3 390.7 33.4L390.7 33.4Q390.7 32.4 390.4 31.6Q390.1 30.9 389.6 30.4Q389.0 29.9 388.1 29.9L388.1 29.9Q387.2 29.9 386.7 30.4Q386.1 30.8 385.8 31.6Q385.5 32.3 385.5 33.4L385.5 33.4Q385.5 34.4 385.8 35.2Q386.1 36.0 386.7 36.4Q387.3 36.9 388.1 36.9ZM398.3 38.2L398.3 38.2Q397.0 38.2 396.0 37.6Q395.0 37.0 394.5 35.9Q394.0 34.9 394.0 33.4Q394.0 32.0 394.5 30.9Q395.0 29.8 395.9 29.2Q396.9 28.6 398.2 28.6L398.2 28.6Q398.9 28.6 399.6 28.8Q400.3 29.1 400.9 29.6Q401.5 30.2 401.8 31.1Q402.2 32.0 402.2 33.2L402.2 33.2L402.2 33.9L395.5 33.9Q395.5 34.8 395.8 35.4L395.8 35.4Q396.2 36.1 396.8 36.5Q397.5 36.9 398.3 36.9L398.3 36.9Q398.9 36.9 399.3 36.7Q399.8 36.6 400.1 36.2Q400.4 35.9 400.6 35.4L400.6 35.4L402.0 35.8Q401.8 36.5 401.3 37.1Q400.8 37.6 400.0 37.9Q399.3 38.2 398.3 38.2ZM395.5 32.6L395.5 32.6L400.7 32.6Q400.6 32.0 400.4 31.4L400.4 31.4Q400.1 30.7 399.6 30.3Q399.0 29.9 398.2 29.9Q397.3 29.9 396.7 30.3Q396.1 30.8 395.8 31.4L395.8 31.4Q395.5 32.0 395.5 32.6ZM405.8 32.4L405.8 32.4L405.8 38L404.3 38L404.3 28.7L405.8 28.7L405.8 30.4Q406.2 29.6 406.8 29.1L406.8 29.1Q407.6 28.6 408.6 28.6L408.6 28.6Q409.6 28.6 410.3 29.0Q411.0 29.4 411.4 30.2Q411.8 30.9 411.8 32.1L411.8 32.1L411.8 38L410.3 38L410.3 32.2Q410.3 31.2 409.7 30.6Q409.1 29.9 408.2 29.9L408.2 29.9Q407.5 29.9 407.0 30.2Q406.4 30.5 406.1 31.1Q405.8 31.6 405.8 32.4Z M420.9 28.7L422.8 28.7L422.8 30.0L420.9 30.0L420.9 35.6Q420.9 36.2 421.2 36.5Q421.4 36.8 422 36.8L422 36.8Q422.1 36.8 422.4 36.8Q422.6 36.7 422.8 36.7L422.8 36.7L423.1 38.0Q422.8 38.0 422.5 38.1Q422.2 38.1 422.0 38.1L422.0 38.1Q420.8 38.1 420.1 37.5Q419.4 36.8 419.4 35.7L419.4 35.7L419.4 30.0L418.0 30.0L418.0 28.7L419.4 28.7L419.4 26.5L420.9 26.5L420.9 28.7ZM428.5 38.2L428.5 38.2Q427.2 38.2 426.3 37.6Q425.3 37.0 424.8 35.9Q424.3 34.8 424.3 33.4L424.3 33.4Q424.3 32.0 424.8 30.9Q425.3 29.8 426.3 29.2Q427.2 28.6 428.5 28.6L428.5 28.6Q429.8 28.6 430.7 29.2Q431.7 29.8 432.2 30.9Q432.7 32.0 432.7 33.4L432.7 33.4Q432.7 34.8 432.2 35.9Q431.7 37.0 430.7 37.6Q429.8 38.2 428.5 38.2ZM428.5 36.9L428.5 36.9Q429.4 36.9 430.0 36.4Q430.6 35.9 430.9 35.1Q431.2 34.3 431.2 33.4L431.2 33.4Q431.2 32.5 430.9 31.7Q430.6 30.9 430.0 30.4Q429.4 29.9 428.5 29.9L428.5 29.9Q427.6 29.9 427.0 30.4Q426.4 30.9 426.1 31.7Q425.8 32.5 425.8 33.4L425.8 33.4Q425.8 34.3 426.1 35.1Q426.4 35.9 427.0 36.4Q427.6 36.9 428.5 36.9Z M444.9 38.2L444.9 38.2Q443.3 38.2 442.1 37.4Q440.8 36.6 440.1 35.2Q439.4 33.8 439.4 31.8L439.4 31.8Q439.4 29.9 440.1 28.4Q440.8 27.0 442.1 26.2Q443.3 25.5 444.9 25.5L444.9 25.5Q445.8 25.5 446.7 25.7Q447.5 26.0 448.2 26.5Q448.8 27.1 449.3 27.8Q449.7 28.6 449.9 29.5L449.9 29.5L448.3 29.5Q448.2 28.9 447.8 28.4Q447.5 27.9 447.1 27.6Q446.6 27.3 446.0 27.1Q445.5 26.9 444.9 26.9L444.9 26.9Q443.8 26.9 442.9 27.5Q442.0 28.1 441.5 29.1Q440.9 30.2 440.9 31.8L440.9 31.8Q440.9 33.4 441.5 34.5Q442.0 35.6 442.9 36.1Q443.8 36.7 444.9 36.7L444.9 36.7Q445.5 36.7 446.0 36.5Q446.6 36.4 447.1 36.0Q447.5 35.7 447.8 35.2Q448.2 34.7 448.3 34.1L448.3 34.1L449.9 34.1Q449.7 35.1 449.3 35.8Q448.8 36.5 448.2 37.1Q447.5 37.6 446.7 37.9Q445.8 38.2 444.9 38.2ZM456.2 38L456.2 38L452.3 38L452.3 25.6L456.3 25.6Q458.1 25.6 459.4 26.4Q460.7 27.1 461.4 28.5Q462.1 29.9 462.1 31.8L462.1 31.8Q462.1 33.7 461.4 35.1Q460.7 36.5 459.4 37.3Q458.0 38 456.2 38ZM453.9 27.0L453.9 36.6L456.1 36.6Q457.6 36.6 458.6 36.0Q459.6 35.5 460.0 34.4Q460.5 33.3 460.5 31.8L460.5 31.8Q460.5 30.3 460.0 29.2Q459.6 28.2 458.6 27.6Q457.6 27.0 456.2 27.0L456.2 27.0L453.9 27.0ZM464.6 25.6L466.1 25.6L466.1 38L464.6 38L464.6 25.6Z "/></g><mask id="satori_om-id-5"><rect x="474" y="23" width="10" height="18" fill="#fff"/></mask><rect x="474" y="23" width="10" height="18" fill="#a78bfa"/></svg>