<!-- Generated by readme-aura https://github.com/collectioneur/readme-aura -->
<svg width="900" height="118" viewBox="0 0 900 118" xmlns="http://www.w3.org/2000/svg"><mask id="satori_om-id"><rect x="0" y="0" width="900" height="118" fill="#fff"/></mask><path x="0" y="0" width="900" height="118" fill="#05060a" d="M12,0 h876 a12,12 0 0 1 12,12 v94 a12,12 0 0 1 -12,12 h-876 a12,12 0 0 1 -12,-12 v-94 a12,12 0 0 1 12,-12"/><mask id="satori_om-id-0"><rect x="30" y="36" width="840" height="18" fill="#fff"/></mask><g  ><path fill="#64748b" d="M32.5 46.1L32.5 46.1L32.5 51L31.2 51L31.2 40.1L32.5 40.1L32.5 44.2Q32.8 43.5 33.3 43.2L33.3 43.2Q34.0 42.7 34.9 42.7L34.9 42.7Q35.8 42.7 36.4 43.0Q37.0 43.4 37.4 44.1Q37.7 44.8 37.7 45.8L37.7 45.8L37.7 51L36.4 51L36.4 45.9Q36.4 45.0 35.9 44.4Q35.4 43.9 34.5 43.9L34.5 43.9Q34.0 43.9 33.5 44.2Q33.0 44.4 32.7 44.9Q32.5 45.4 32.5 46.1ZM42.3 51.2L42.3 51.2Q41.5 51.2 40.9 50.9Q40.3 50.6 39.9 50.0Q39.5 49.5 39.5 48.7L39.5 48.7Q39.5 48.0 39.8 47.5Q40.1 47.1 40.6 46.8Q41.0 46.6 41.6 46.5Q42.1 46.3 42.7 46.3L42.7 46.3Q43.4 46.2 43.9 46.1Q44.4 46.1 44.6 45.9Q44.8 45.8 44.8 45.5L44.8 45.5L44.8 45.5Q44.8 45.0 44.6 44.6Q44.4 44.2 44.1 44.1Q43.7 43.9 43.1 43.9L43.1 43.9Q42.5 43.9 42.1 44.0Q41.7 44.2 41.4 44.5Q41.2 44.8 41.0 45.1L41.0 45.1L39.8 44.6Q40.1 43.9 40.6 43.5Q41.1 43.1 41.8 42.9Q42.4 42.7 43.1 42.7L43.1 42.7Q43.5 42.7 44.0 42.8Q44.5 42.9 45.0 43.2Q45.5 43.5 45.8 44.1Q46.1 44.6 46.1 45.6L46.1 45.6L46.1 51L44.8 51L44.8 49.9L44.8 49.9Q44.6 50.2 44.3 50.5Q44.0 50.8 43.5 51.0Q43.0 51.2 42.3 51.2ZM42.5 50.0L42.5 50.0Q43.3 50.0 43.8 49.7Q44.3 49.5 44.6 49.0Q44.8 48.5 44.8 48.0L44.8 48.0L44.8 46.9Q44.7 47.0 44.5 47.1Q44.2 47.2 43.8 47.2Q43.5 47.3 43.2 47.3Q42.8 47.4 42.7 47.4L42.7 47.4Q42.2 47.4 41.8 47.6Q41.4 47.7 41.1 48.0Q40.9 48.3 40.9 48.7L40.9 48.7Q40.9 49.2 41.1 49.4Q41.3 49.7 41.7 49.9Q42.1 50.0 42.5 50.0ZM51.2 51.2L51.2 51.2Q50.4 51.2 49.7 50.9Q49.1 50.7 48.7 50.2Q48.2 49.7 48.1 49.0L48.1 49.0L49.3 48.7Q49.5 49.4 50.0 49.7Q50.5 50.0 51.2 50.0L51.2 50.0Q52.1 50.0 52.6 49.7Q53.1 49.3 53.1 48.8L53.1 48.8Q53.1 48.4 52.8 48.1Q52.5 47.8 51.9 47.7L51.9 47.7L50.5 47.3Q49.4 47.1 48.9 46.5Q48.3 46.0 48.3 45.1L48.3 45.1Q48.3 44.4 48.7 43.9Q49.1 43.3 49.8 43.0Q50.5 42.7 51.4 42.7L51.4 42.7Q52.2 42.7 52.8 43.0Q53.4 43.2 53.8 43.7Q54.1 44.1 54.3 44.7L54.3 44.7L53.1 45.0Q52.9 44.5 52.6 44.2Q52.2 43.8 51.4 43.8L51.4 43.8Q50.6 43.8 50.2 44.2Q49.7 44.5 49.7 45.0L49.7 45.0Q49.7 45.5 50.0 45.7Q50.3 46.0 51.0 46.2L51.0 46.2L52.3 46.5Q53.4 46.7 53.9 47.3Q54.5 47.9 54.5 48.7L54.5 48.7Q54.5 49.4 54.1 50.0Q53.6 50.5 52.9 50.9Q52.2 51.2 51.2 51.2ZM59.2 51.2L59.2 51.2Q58.3 51.2 57.7 50.9Q57.0 50.7 56.6 50.2Q56.1 49.7 56.0 49.0L56.0 49.0L57.3 48.7Q57.4 49.4 57.9 49.7Q58.4 50.0 59.1 50.0L59.1 50.0Q60.0 50.0 60.5 49.7Q61.0 49.3 61.0 48.8L61.0 48.8Q61.0 48.4 60.7 48.1Q60.4 47.8 59.8 47.7L59.8 47.7L58.4 47.3Q57.3 47.1 56.8 46.5Q56.3 46.0 56.3 45.1L56.3 45.1Q56.3 44.4 56.6 43.9Q57.0 43.3 57.7 43.0Q58.4 42.7 59.3 42.7L59.3 42.7Q60.1 42.7 60.7 43.0Q61.3 43.2 61.7 43.7Q62.0 44.1 62.2 44.7L62.2 44.7L61.0 45.0Q60.9 44.5 60.5 44.2Q60.1 43.8 59.3 43.8L59.3 43.8Q58.6 43.8 58.1 44.2Q57.6 44.5 57.6 45.0L57.6 45.0Q57.6 45.5 57.9 45.7Q58.2 46.0 59.0 46.2L59.0 46.2L60.2 46.5Q61.3 46.7 61.8 47.3Q62.4 47.9 62.4 48.7L62.4 48.7Q62.4 49.4 62.0 50.0Q61.6 50.5 60.8 50.9Q60.1 51.2 59.2 51.2ZM66.6 51.2L66.6 51.2Q65.8 51.2 65.2 50.9Q64.5 50.6 64.2 50.0Q63.8 49.5 63.8 48.7L63.8 48.7Q63.8 48.0 64.1 47.5Q64.3 47.1 64.8 46.8Q65.3 46.6 65.8 46.5Q66.4 46.3 67.0 46.3L67.0 46.3Q67.7 46.2 68.2 46.1Q68.6 46.1 68.9 45.9Q69.1 45.8 69.1 45.5L69.1 45.5L69.1 45.5Q69.1 45.0 68.9 44.6Q68.7 44.2 68.3 44.1Q67.9 43.9 67.4 43.9L67.4 43.9Q66.8 43.9 66.4 44.0Q65.9 44.2 65.7 44.5Q65.4 44.8 65.3 45.1L65.3 45.1L64.0 44.6Q64.3 43.9 64.9 43.5Q65.4 43.1 66.0 42.9Q66.7 42.7 67.3 42.7L67.3 42.7Q67.7 42.7 68.3 42.8Q68.8 42.9 69.3 43.2Q69.8 43.5 70.1 44.1Q70.4 44.6 70.4 45.6L70.4 45.6L70.4 51L69.1 51L69.1 49.9L69.0 49.9Q68.9 50.2 68.6 50.5Q68.3 50.8 67.8 51.0Q67.3 51.2 66.6 51.2ZM66.8 50.0L66.8 50.0Q67.5 50.0 68.0 49.7Q68.5 49.5 68.8 49.0Q69.1 48.5 69.1 48.0L69.1 48.0L69.1 46.9Q69.0 47.0 68.7 47.1Q68.5 47.2 68.1 47.2Q67.8 47.3 67.4 47.3Q67.1 47.4 66.9 47.4L66.9 47.4Q66.4 47.4 66.0 47.6Q65.6 47.7 65.4 48.0Q65.1 48.3 65.1 48.7L65.1 48.7Q65.1 49.2 65.3 49.4Q65.6 49.7 65.9 49.9Q66.3 50.0 66.8 50.0ZM74.0 46.1L74.0 46.1L74.0 51L72.7 51L72.7 42.8L74.0 42.8L74.0 44.3Q74.3 43.6 74.9 43.2L74.9 43.2Q75.6 42.7 76.5 42.7L76.5 42.7Q77.3 42.7 77.9 43.0Q78.6 43.4 78.9 44.1Q79.3 44.8 79.3 45.8L79.3 45.8L79.3 51L77.9 51L77.9 45.9Q77.9 45.0 77.4 44.4Q76.9 43.9 76.1 43.9L76.1 43.9Q75.5 43.9 75.0 44.2Q74.6 44.4 74.3 44.9Q74.0 45.4 74.0 46.1ZM88.1 53.9L88.1 53.9Q86.4 53.9 85.2 53.4Q83.9 53.0 83.0 52.1Q82.2 51.3 81.7 50.0Q81.3 48.8 81.3 47.2L81.3 47.2Q81.3 45.6 81.8 44.4Q82.2 43.1 83.1 42.3Q83.9 41.4 85.1 40.9Q86.4 40.5 87.9 40.5L87.9 40.5Q89.4 40.5 90.6 41.0Q91.7 41.4 92.5 42.3Q93.2 43.1 93.6 44.2Q94.0 45.2 94.0 46.3L94.0 46.3Q94.0 47.1 93.9 47.9Q93.8 48.7 93.6 49.3Q93.3 50.0 92.8 50.4Q92.3 50.8 91.5 50.8L91.5 50.8Q91.1 50.8 90.7 50.7Q90.2 50.5 89.9 50.3Q89.5 50.0 89.5 49.5L89.5 49.5L89.4 49.5Q89.2 50.0 88.7 50.4Q88.2 50.7 87.4 50.7L87.4 50.7Q86.4 50.7 85.8 50.2Q85.1 49.8 84.8 48.9Q84.5 48.1 84.5 47.1L84.5 47.1Q84.5 46.1 84.8 45.3Q85.2 44.5 85.9 44.1Q86.6 43.6 87.5 43.6L87.5 43.6Q88.2 43.6 88.7 43.9Q89.1 44.2 89.3 44.4L89.3 44.4L89.4 44.4L89.4 43.8L90.6 43.8L90.6 48.6Q90.6 49.1 90.8 49.4Q91.0 49.7 91.5 49.7L91.5 49.7Q92.1 49.7 92.3 49.4Q92.6 49.0 92.7 48.3Q92.8 47.5 92.8 46.3L92.8 46.3Q92.8 45.4 92.5 44.5Q92.2 43.7 91.6 43.0Q91.0 42.3 90.1 41.9Q89.1 41.5 87.9 41.5L87.9 41.5Q86.6 41.5 85.6 41.9Q84.6 42.3 83.9 43.0Q83.2 43.8 82.9 44.8Q82.5 45.9 82.5 47.2L82.5 47.2Q82.5 48.5 82.9 49.6Q83.2 50.6 84.0 51.4Q84.7 52.1 85.7 52.5Q86.7 52.8 88.1 52.8L88.1 52.8Q88.7 52.8 89.3 52.7Q89.8 52.6 90.3 52.5Q90.7 52.3 90.9 52.3L90.9 52.3L91.2 53.3Q90.9 53.4 90.4 53.6Q89.8 53.7 89.2 53.8Q88.6 53.9 88.1 53.9ZM87.5 49.6L87.5 49.6Q88.2 49.6 88.6 49.3Q89.0 49.0 89.2 48.5Q89.4 47.9 89.4 47.0L89.4 47.0Q89.4 46.1 89.2 45.6Q89.0 45.2 88.6 45.0Q88.1 44.8 87.5 44.8L87.5 44.8Q86.9 44.8 86.5 45.1Q86.0 45.4 85.8 45.9Q85.6 46.4 85.6 47.0L85.6 47.0Q85.6 47.7 85.8 48.3Q86.0 48.9 86.4 49.2Q86.8 49.6 87.5 49.6ZM99.1 51.2L99.1 51.2Q98.1 51.2 97.3 50.7Q96.5 50.1 96.1 49.2Q95.7 48.2 95.7 46.9L95.7 46.9Q95.7 45.6 96.1 44.7Q96.5 43.7 97.3 43.2Q98.1 42.7 99.1 42.7L99.1 42.7Q99.9 42.7 100.4 43.0Q100.9 43.2 101.1 43.6Q101.4 43.9 101.5 44.1L101.5 44.1L101.6 44.1L101.6 40.1L102.9 40.1L102.9 51L101.7 51L101.7 49.7L101.5 49.7Q101.4 50.0 101.1 50.3Q100.9 50.6 100.4 50.9Q99.9 51.2 99.1 51.2ZM99.3 50.0L99.3 50.0Q100.1 50.0 100.6 49.6Q101.1 49.2 101.4 48.5Q101.6 47.8 101.6 46.9L101.6 46.9Q101.6 46.0 101.4 45.3Q101.1 44.6 100.6 44.3Q100.1 43.9 99.3 43.9L99.3 43.9Q98.5 43.9 98.0 44.3Q97.5 44.7 97.3 45.4Q97.0 46.1 97.0 46.9L97.0 46.9Q97.0 47.8 97.3 48.5Q97.5 49.2 98.0 49.6Q98.6 50.0 99.3 50.0ZM108.7 51.2L108.7 51.2Q107.5 51.2 106.6 50.6Q105.8 50.1 105.3 49.2Q104.8 48.2 104.8 47.0Q104.8 45.7 105.3 44.8Q105.8 43.8 106.6 43.3Q107.4 42.7 108.5 42.7L108.5 42.7Q109.2 42.7 109.8 42.9Q110.4 43.1 111.0 43.6Q111.5 44.1 111.8 44.9Q112.1 45.7 112.1 46.8L112.1 46.8L112.1 47.4L106.2 47.4Q106.2 48.1 106.5 48.7L106.5 48.7Q106.8 49.4 107.4 49.7Q107.9 50.0 108.7 50.0L108.7 50.0Q109.2 50.0 109.6 49.9Q110.0 49.7 110.3 49.4Q110.5 49.2 110.7 48.7L110.7 48.7L112.0 49.1Q111.8 49.7 111.3 50.2Q110.9 50.6 110.2 50.9Q109.5 51.2 108.7 51.2ZM106.2 46.2L106.2 46.2L110.8 46.2Q110.7 45.7 110.5 45.2L110.5 45.2Q110.3 44.6 109.8 44.2Q109.3 43.9 108.5 43.9Q107.8 43.9 107.3 44.2Q106.7 44.6 106.5 45.2L106.5 45.2Q106.2 45.7 106.2 46.2ZM117.7 51L116.4 51L113.2 42.8L114.7 42.8L116.4 47.7Q116.7 48.4 116.9 49.2L116.9 49.2Q117.0 49.5 117.0 49.8L117.0 49.8Q117.1 49.5 117.2 49.2L117.2 49.2Q117.4 48.4 117.7 47.7L117.7 47.7L119.4 42.8L120.9 42.8L117.7 51ZM123.4 51.1L123.4 51.1Q123.0 51.1 122.7 50.8Q122.4 50.5 122.4 50.1L122.4 50.1Q122.4 49.7 122.7 49.4Q123.0 49.1 123.4 49.1L123.4 49.1Q123.8 49.1 124.1 49.4Q124.4 49.7 124.4 50.1L124.4 50.1Q124.4 50.5 124.1 50.8Q123.8 51.1 123.4 51.1ZM123.4 45.2L123.4 45.2Q123.0 45.2 122.7 44.9Q122.4 44.6 122.4 44.2L122.4 44.2Q122.4 43.8 122.7 43.5Q123.0 43.2 123.4 43.2L123.4 43.2Q123.8 43.2 124.1 43.5Q124.4 43.8 124.4 44.2L124.4 44.2Q124.4 44.6 124.1 44.9Q123.8 45.2 123.4 45.2ZM128.0 47.8L126.8 47.8Q126.8 46.9 127.1 46.3Q127.4 45.8 127.9 45.5Q128.4 45.3 128.9 45.3L128.9 45.3Q129.5 45.3 129.9 45.5Q130.4 45.7 131.0 46.3L131.0 46.3Q131.4 46.6 131.6 46.7Q131.8 46.9 132.1 46.9L132.1 46.9Q132.6 46.9 132.8 46.5Q133.1 46.2 133.1 45.6L133.1 45.6L134.3 45.6Q134.3 46.5 134.0 47.0Q133.7 47.6 133.2 47.8Q132.7 48.1 132.2 48.1L132.2 48.1Q131.6 48.1 131.1 47.8Q130.7 47.6 130.1 47.1L130.1 47.1Q129.7 46.8 129.5 46.6Q129.3 46.5 129.0 46.5L129.0 46.5Q128.6 46.5 128.3 46.8Q128.0 47.1 128.0 47.8L128.0 47.8ZM140.8 52.6L139.9 52.6L139.9 51.2Q139.0 51.1 138.3 50.8L138.3 50.8Q137.4 50.4 136.9 49.7Q136.4 49.1 136.4 48.1L136.4 48.1L137.8 48.1Q137.8 48.8 138.2 49.2Q138.6 49.6 139.1 49.7L139.1 49.7Q139.5 49.9 139.9 49.9L139.9 49.9L139.9 46.0L139.4 45.9Q138.1 45.5 137.4 44.8Q136.7 44.1 136.7 43.0L136.7 43.0Q136.7 42.1 137.2 41.4Q137.7 40.7 138.5 40.3L138.5 40.3Q139.1 40.0 139.9 40.0L139.9 40.0L139.9 38.5L140.8 38.5L140.8 39.9Q141.6 40.0 142.3 40.3L142.3 40.3Q143.1 40.7 143.6 41.4Q144.1 42.0 144.1 42.8L144.1 42.8L142.8 42.8Q142.7 42.0 142.0 41.6L142.0 41.6Q141.5 41.3 140.8 41.2L140.8 41.2L140.8 44.9L141.2 45.0Q141.6 45.1 142.2 45.3Q142.7 45.5 143.2 45.9Q143.7 46.2 144.0 46.7Q144.3 47.3 144.3 48.0L144.3 48.0Q144.3 48.9 143.8 49.6Q143.3 50.4 142.5 50.8L142.5 50.8Q141.7 51.1 140.8 51.2L140.8 51.2L140.8 52.6ZM140.8 46.2L140.8 49.9Q141.2 49.9 141.7 49.7L141.7 49.7Q142.2 49.5 142.6 49.0Q142.9 48.6 142.9 48.0L142.9 48.0Q142.9 47.5 142.6 47.1Q142.3 46.8 141.8 46.6Q141.4 46.4 140.8 46.2L140.8 46.2L140.8 46.2ZM139.9 44.6L139.9 44.6L139.9 41.2Q139.5 41.3 139.1 41.4L139.1 41.4Q138.6 41.6 138.3 42.0Q138.0 42.4 138.0 42.9L138.0 42.9Q138.0 43.5 138.4 43.9Q138.7 44.2 139.2 44.4L139.2 44.4Q139.6 44.5 139.9 44.6Z M151.5 51.1L151.5 51.1Q151.1 51.1 150.8 50.8Q150.5 50.5 150.5 50.1L150.5 50.1Q150.5 49.7 150.8 49.4Q151.1 49.1 151.5 49.1L151.5 49.1Q151.9 49.1 152.2 49.4Q152.5 49.7 152.5 50.1L152.5 50.1Q152.5 50.5 152.2 50.8Q151.9 51.1 151.5 51.1ZM157.5 39.6L158.7 39.6L155.2 52.6L154.0 52.6L157.5 39.6ZM163.6 51.2L163.6 51.2Q162.5 51.2 161.6 50.6Q160.8 50.1 160.3 49.2Q159.8 48.2 159.8 47.0L159.8 47.0Q159.8 45.7 160.3 44.7Q160.8 43.8 161.6 43.2Q162.5 42.7 163.6 42.7L163.6 42.7Q164.2 42.7 164.7 42.9Q165.2 43.0 165.6 43.3Q166.1 43.6 166.4 44.0Q166.7 44.4 166.9 45.0L166.9 45.0L165.6 45.3Q165.5 45.0 165.3 44.8Q165.2 44.5 164.9 44.3Q164.6 44.1 164.3 44.0Q164.0 43.9 163.6 43.9L163.6 43.9Q162.7 43.9 162.2 44.3Q161.7 44.7 161.4 45.4Q161.2 46.1 161.2 47.0L161.2 47.0Q161.2 47.8 161.4 48.5Q161.7 49.1 162.2 49.6Q162.7 50.0 163.6 50.0L163.6 50.0Q164.0 50.0 164.3 49.9Q164.7 49.8 164.9 49.6Q165.2 49.4 165.4 49.1Q165.6 48.8 165.7 48.5L165.7 48.5L166.9 48.8Q166.8 49.4 166.4 49.8Q166.1 50.3 165.7 50.6Q165.2 50.9 164.7 51.0Q164.2 51.2 163.6 51.2ZM172.1 51.2L172.1 51.2Q171.0 51.2 170.2 50.6Q169.3 50.1 168.9 49.2Q168.4 48.2 168.4 47.0L168.4 47.0Q168.4 45.7 168.9 44.7Q169.3 43.8 170.2 43.2Q171.0 42.7 172.1 42.7L172.1 42.7Q173.3 42.7 174.1 43.2Q174.9 43.8 175.4 44.7Q175.9 45.7 175.9 47.0L175.9 47.0Q175.9 48.2 175.4 49.2Q174.9 50.1 174.1 50.6Q173.3 51.2 172.1 51.2ZM172.1 50.0L172.1 50.0Q173.0 50.0 173.5 49.6Q174.0 49.1 174.3 48.5Q174.5 47.8 174.5 47.0L174.5 47.0Q174.5 46.1 174.3 45.4Q174.0 44.7 173.5 44.3Q173.0 43.9 172.1 43.9L172.1 43.9Q171.3 43.9 170.8 44.3Q170.3 44.7 170.0 45.4Q169.7 46.1 169.7 47.0L169.7 47.0Q169.7 47.8 170.0 48.5Q170.3 49.1 170.8 49.6Q171.3 50.0 172.1 50.0ZM179.1 46.1L179.1 46.1L179.1 51L177.8 51L177.8 42.8L179.1 42.8L179.1 44.3Q179.4 43.6 180.0 43.2L180.0 43.2Q180.6 42.7 181.6 42.7L181.6 42.7Q182.4 42.7 183.0 43.0Q183.6 43.4 184.0 44.1Q184.3 44.8 184.3 45.8L184.3 45.8L184.3 51L183.0 51L183.0 45.9Q183.0 45.0 182.5 44.4Q182.0 43.9 181.2 43.9L181.2 43.9Q180.6 43.9 180.1 44.2Q179.7 44.4 179.4 44.9Q179.1 45.4 179.1 46.1ZM188.2 42.8L189.9 42.8L189.9 43.9L188.2 43.9L188.2 48.9Q188.2 49.4 188.4 49.7Q188.6 49.9 189.2 49.9L189.2 49.9Q189.3 49.9 189.5 49.9Q189.7 49.9 189.8 49.8L189.8 49.8L190.1 51.0Q189.9 51.0 189.6 51.1Q189.4 51.1 189.1 51.1L189.1 51.1Q188.1 51.1 187.5 50.5Q186.9 50.0 186.9 49.0L186.9 49.0L186.9 43.9L185.6 43.9L185.6 42.8L186.9 42.8L186.9 40.9L188.2 40.9L188.2 42.8ZM193.9 51.2L193.9 51.2Q193.1 51.2 192.4 50.9Q191.8 50.6 191.4 50.0Q191.1 49.5 191.1 48.7L191.1 48.7Q191.1 48.0 191.3 47.5Q191.6 47.1 192.1 46.8Q192.6 46.6 193.1 46.5Q193.7 46.3 194.3 46.3L194.3 46.3Q195.0 46.2 195.4 46.1Q195.9 46.1 196.1 45.9Q196.4 45.8 196.4 45.5L196.4 45.5L196.4 45.5Q196.4 45.0 196.2 44.6Q196.0 44.2 195.6 44.1Q195.2 43.9 194.6 43.9L194.6 43.9Q194.1 43.9 193.6 44.0Q193.2 44.2 193.0 44.5Q192.7 44.8 192.6 45.1L192.6 45.1L191.3 44.6Q191.6 43.9 192.2 43.5Q192.7 43.1 193.3 42.9Q194.0 42.7 194.6 42.7L194.6 42.7Q195.0 42.7 195.5 42.8Q196.1 42.9 196.5 43.2Q197.0 43.5 197.4 44.1Q197.7 44.6 197.7 45.6L197.7 45.6L197.7 51L196.4 51L196.4 49.9L196.3 49.9Q196.1 50.2 195.8 50.5Q195.5 50.8 195.0 51.0Q194.6 51.2 193.9 51.2ZM194.1 50.0L194.1 50.0Q194.8 50.0 195.3 49.7Q195.8 49.5 196.1 49.0Q196.4 48.5 196.4 48.0L196.4 48.0L196.4 46.9Q196.3 47.0 196.0 47.1Q195.7 47.2 195.4 47.2Q195.0 47.3 194.7 47.3Q194.4 47.4 194.2 47.4L194.2 47.4Q193.7 47.4 193.3 47.6Q192.9 47.7 192.6 48.0Q192.4 48.3 192.4 48.7L192.4 48.7Q192.4 49.2 192.6 49.4Q192.8 49.7 193.2 49.9Q193.6 50.0 194.1 50.0ZM203.3 51.2L203.3 51.2Q202.2 51.2 201.4 50.6Q200.5 50.1 200.1 49.2Q199.6 48.2 199.6 47.0L199.6 47.0Q199.6 45.7 200.1 44.7Q200.5 43.8 201.4 43.2Q202.2 42.7 203.3 42.7L203.3 42.7Q203.9 42.7 204.4 42.9Q205.0 43.0 205.4 43.3Q205.8 43.6 206.2 44.0Q206.5 44.4 206.6 45.0L206.6 45.0L205.4 45.3Q205.3 45.0 205.1 44.8Q204.9 44.5 204.7 44.3Q204.4 44.1 204.1 44.0Q203.7 43.9 203.3 43.9L203.3 43.9Q202.5 43.9 202.0 44.3Q201.4 44.7 201.2 45.4Q200.9 46.1 200.9 47.0L200.9 47.0Q200.9 47.8 201.2 48.5Q201.4 49.1 202.0 49.6Q202.5 50.0 203.3 50.0L203.3 50.0Q203.7 50.0 204.1 49.9Q204.4 49.8 204.7 49.6Q205.0 49.4 205.1 49.1Q205.3 48.8 205.4 48.5L205.4 48.5L206.7 48.8Q206.5 49.4 206.2 49.8Q205.9 50.3 205.4 50.6Q205.0 50.9 204.5 51.0Q203.9 51.2 203.3 51.2ZM210.1 42.8L211.8 42.8L211.8 43.9L210.1 43.9L210.1 48.9Q210.1 49.4 210.3 49.7Q210.5 49.9 211.1 49.9L211.1 49.9Q211.2 49.9 211.4 49.9Q211.6 49.9 211.7 49.8L211.7 49.8L212.0 51.0Q211.8 51.0 211.5 51.1Q211.3 51.1 211.0 51.1L211.0 51.1Q210.0 51.1 209.4 50.5Q208.8 50.0 208.8 49.0L208.8 49.0L208.8 43.9L207.5 43.9L207.5 42.8L208.8 42.8L208.8 40.9L210.1 40.9L210.1 42.8ZM214.5 51.1L214.5 51.1Q214.1 51.1 213.8 50.8Q213.5 50.5 213.5 50.1L213.5 50.1Q213.5 49.7 213.8 49.4Q214.1 49.1 214.5 49.1L214.5 49.1Q214.9 49.1 215.2 49.4Q215.5 49.7 215.5 50.1L215.5 50.1Q215.5 50.5 215.2 50.8Q214.9 51.1 214.5 51.1ZM220.6 51.2L220.6 51.2Q219.7 51.2 219.1 50.9Q218.4 50.7 218.0 50.2Q217.6 49.7 217.4 49.0L217.4 49.0L218.7 48.7Q218.8 49.4 219.3 49.7Q219.8 50.0 220.6 50.0L220.6 50.0Q221.4 50.0 221.9 49.7Q222.4 49.3 222.4 48.8L222.4 48.8Q222.4 48.4 222.1 48.1Q221.8 47.8 221.2 47.7L221.2 47.7L219.9 47.3Q218.8 47.1 218.2 46.5Q217.7 46.0 217.7 45.1L217.7 45.1Q217.7 44.4 218.1 43.9Q218.5 43.3 219.1 43.0Q219.8 42.7 220.7 42.7L220.7 42.7Q221.5 42.7 222.1 43.0Q222.7 43.2 223.1 43.7Q223.5 44.1 223.6 44.7L223.6 44.7L222.5 45.0Q222.3 44.5 221.9 44.2Q221.5 43.8 220.7 43.8L220.7 43.8Q220.0 43.8 219.5 44.2Q219.0 44.5 219.0 45.0L219.0 45.0Q219.0 45.5 219.3 45.7Q219.7 46.0 220.4 46.2L220.4 46.2L221.6 46.5Q222.7 46.7 223.3 47.3Q223.8 47.9 223.8 48.7L223.8 48.7Q223.8 49.4 223.4 50.0Q223.0 50.5 222.3 50.9Q221.5 51.2 220.6 51.2ZM227.0 46.1L227.0 46.1L227.0 51L225.7 51L225.7 40.1L227.0 40.1L227.0 44.2Q227.4 43.5 227.9 43.2L227.9 43.2Q228.6 42.7 229.5 42.7L229.5 42.7Q230.3 42.7 230.9 43.0Q231.6 43.4 231.9 44.1Q232.3 44.8 232.3 45.8L232.3 45.8L232.3 51L230.9 51L230.9 45.9Q230.9 45.0 230.4 44.4Q229.9 43.9 229.1 43.9L229.1 43.9Q228.5 43.9 228.0 44.2Q227.6 44.4 227.3 44.9Q227.0 45.4 227.0 46.1Z "/></g><mask id="satori_om-id-1"><rect x="30" y="64" width="840" height="18" fill="#fff"/></mask><mask id="satori_om-id-1-0"><rect x="30" y="64" width="245" height="18" fill="#fff"/></mask><g  ><path fill="#22d3ee" d="M32.7 79L31.3 79L31.3 68.1L32.7 68.1L32.7 72.8L38.4 72.8L38.4 68.1L39.8 68.1L39.8 79L38.4 79L38.4 74.0L32.7 74.0L32.7 79ZM49.2 79L42.5 79L42.5 68.1L49.1 68.1L49.1 69.3L43.9 69.3L43.9 72.9L48.8 72.9L48.8 74.1L43.9 74.1L43.9 77.8L49.2 77.8L49.2 79ZM54.3 69.3L50.9 69.3L50.9 68.1L59.1 68.1L59.1 69.3L55.7 69.3L55.7 79L54.3 79L54.3 69.3ZM61.2 68.1L62.6 68.1L62.6 79L61.2 79L61.2 68.1ZM69.6 79.1L69.6 79.1Q68.2 79.1 67.1 78.5Q66.0 77.8 65.4 76.5Q64.8 75.3 64.8 73.6L64.8 73.6Q64.8 71.8 65.4 70.6Q66.0 69.3 67.1 68.6Q68.2 67.9 69.6 67.9L69.6 67.9Q70.4 67.9 71.2 68.2Q71.9 68.4 72.5 68.9Q73.1 69.4 73.5 70.0Q73.9 70.7 74.0 71.5L74.0 71.5L72.6 71.5Q72.5 71.0 72.2 70.5Q71.9 70.1 71.5 69.8Q71.1 69.5 70.6 69.4Q70.1 69.2 69.6 69.2L69.6 69.2Q68.6 69.2 67.8 69.7Q67.0 70.2 66.6 71.2Q66.1 72.2 66.1 73.6L66.1 73.6Q66.1 74.9 66.6 75.9Q67.1 76.9 67.8 77.4Q68.6 77.9 69.6 77.9L69.6 77.9Q70.1 77.9 70.6 77.7Q71.1 77.6 71.5 77.3Q71.9 77.0 72.2 76.6Q72.5 76.1 72.6 75.6L72.6 75.6L74.0 75.6Q73.9 76.4 73.5 77.1Q73.1 77.7 72.5 78.2Q71.9 78.7 71.2 78.9Q70.4 79.1 69.6 79.1Z M81.2 74.8L81.2 74.8Q80.8 74.8 80.5 74.5Q80.2 74.2 80.2 73.8L80.2 73.8Q80.2 73.4 80.5 73.1Q80.8 72.8 81.2 72.8L81.2 72.8Q81.6 72.8 81.9 73.1Q82.2 73.4 82.2 73.8L82.2 73.8Q82.2 74.2 81.9 74.5Q81.6 74.8 81.2 74.8Z M90.2 79L88.9 79L88.9 68.1L90.9 68.1L93.6 75.0Q93.7 75.2 93.8 75.6Q93.9 75.9 94.0 76.4Q94.2 76.8 94.3 77.2L94.3 77.2Q94.3 77.3 94.4 77.5L94.4 77.5Q94.4 77.4 94.4 77.2L94.4 77.2Q94.6 76.8 94.7 76.4Q94.8 76.0 95.0 75.6Q95.1 75.2 95.2 75.0L95.2 75.0L97.8 68.1L99.8 68.1L99.8 79L98.5 79L98.5 72.8Q98.5 72.4 98.5 72.0Q98.5 71.6 98.5 71.1Q98.5 70.6 98.5 70.1L98.5 70.1Q98.5 69.8 98.5 69.6L98.5 69.6Q98.4 69.9 98.3 70.2L98.3 70.2Q98.1 70.7 98.0 71.2Q97.8 71.7 97.7 72.1Q97.5 72.5 97.4 72.8L97.4 72.8L95.0 79L93.8 79L91.3 72.8Q91.2 72.5 91.0 72.1Q90.9 71.7 90.7 71.2Q90.6 70.8 90.4 70.2L90.4 70.2Q90.3 69.9 90.2 69.6L90.2 69.6Q90.2 69.8 90.2 70.1L90.2 70.1Q90.2 70.5 90.2 71.0Q90.2 71.5 90.2 72.0Q90.2 72.4 90.2 72.8L90.2 72.8L90.2 79ZM104.6 79.2L104.6 79.2Q103.8 79.2 103.2 78.9Q102.5 78.6 102.2 78.0Q101.8 77.5 101.8 76.7L101.8 76.7Q101.8 76.0 102.1 75.5Q102.4 75.1 102.8 74.8Q103.3 74.6 103.9 74.5Q104.4 74.3 105.0 74.3L105.0 74.3Q105.7 74.2 106.2 74.1Q106.6 74.1 106.9 73.9Q107.1 73.8 107.1 73.5L107.1 73.5L107.1 73.5Q107.1 73.0 106.9 72.6Q106.7 72.2 106.3 72.1Q105.9 71.9 105.4 71.9L105.4 71.9Q104.8 71.9 104.4 72.0Q104.0 72.2 103.7 72.5Q103.4 72.8 103.3 73.1L103.3 73.1L102.0 72.6Q102.3 71.9 102.9 71.5Q103.4 71.1 104.1 70.9Q104.7 70.7 105.3 70.7L105.3 70.7Q105.7 70.7 106.3 70.8Q106.8 70.9 107.3 71.2Q107.8 71.5 108.1 72.1Q108.4 72.6 108.4 73.6L108.4 73.6L108.4 79L107.1 79L107.1 77.9L107.0 77.9Q106.9 78.2 106.6 78.5Q106.3 78.8 105.8 79.0Q105.3 79.2 104.6 79.2ZM104.8 78.0L104.8 78.0Q105.5 78.0 106.1 77.7Q106.6 77.5 106.8 77.0Q107.1 76.5 107.1 76.0L107.1 76.0L107.1 74.9Q107.0 75.0 106.7 75.1Q106.5 75.2 106.1 75.2Q105.8 75.3 105.4 75.3Q105.1 75.4 104.9 75.4L104.9 75.4Q104.5 75.4 104.0 75.6Q103.6 75.7 103.4 76.0Q103.1 76.3 103.1 76.7L103.1 76.7Q103.1 77.2 103.3 77.4Q103.6 77.7 103.9 77.9Q104.3 78.0 104.8 78.0ZM113.5 79.2L113.5 79.2Q112.7 79.2 112.0 78.9Q111.4 78.7 110.9 78.2Q110.5 77.7 110.4 77.0L110.4 77.0L111.6 76.7Q111.8 77.4 112.3 77.7Q112.8 78.0 113.5 78.0L113.5 78.0Q114.3 78.0 114.9 77.7Q115.4 77.3 115.4 76.8L115.4 76.8Q115.4 76.4 115.1 76.1Q114.8 75.8 114.2 75.7L114.2 75.7L112.8 75.3Q111.7 75.1 111.1 74.5Q110.6 74.0 110.6 73.1L110.6 73.1Q110.6 72.4 111.0 71.9Q111.4 71.3 112.1 71.0Q112.8 70.7 113.6 70.7L113.6 70.7Q114.5 70.7 115.1 71.0Q115.7 71.2 116.0 71.7Q116.4 72.1 116.6 72.7L116.6 72.7L115.4 73.0Q115.2 72.5 114.8 72.2Q114.4 71.8 113.6 71.8L113.6 71.8Q112.9 71.8 112.4 72.2Q111.9 72.5 111.9 73.0L111.9 73.0Q111.9 73.5 112.3 73.7Q112.6 74.0 113.3 74.2L113.3 74.2L114.6 74.5Q115.7 74.7 116.2 75.3Q116.7 75.9 116.7 76.7L116.7 76.7Q116.7 77.4 116.3 78.0Q115.9 78.5 115.2 78.9Q114.5 79.2 113.5 79.2ZM120.2 70.8L121.9 70.8L121.9 71.9L120.2 71.9L120.2 76.9Q120.2 77.4 120.4 77.7Q120.6 77.9 121.1 77.9L121.1 77.9Q121.3 77.9 121.5 77.9Q121.7 77.9 121.8 77.8L121.8 77.8L122.1 79.0Q121.9 79.0 121.6 79.1Q121.4 79.1 121.1 79.1L121.1 79.1Q120.0 79.1 119.5 78.5Q118.9 78.0 118.9 77.0L118.9 77.0L118.9 71.9L117.6 71.9L117.6 70.8L118.9 70.8L118.9 68.9L120.2 68.9L120.2 70.8ZM127.0 79.2L127.0 79.2Q125.8 79.2 124.9 78.6Q124.1 78.1 123.6 77.2Q123.1 76.2 123.1 75.0Q123.1 73.7 123.6 72.8Q124.1 71.8 124.9 71.3Q125.7 70.7 126.8 70.7L126.8 70.7Q127.5 70.7 128.1 70.9Q128.8 71.1 129.3 71.6Q129.8 72.1 130.1 72.9Q130.4 73.7 130.4 74.8L130.4 74.8L130.4 75.4L124.5 75.4Q124.5 76.1 124.8 76.7L124.8 76.7Q125.1 77.4 125.7 77.7Q126.2 78.0 127.0 78.0L127.0 78.0Q127.5 78.0 127.9 77.9Q128.3 77.7 128.6 77.4Q128.8 77.2 129.0 76.7L129.0 76.7L130.3 77.1Q130.1 77.7 129.6 78.2Q129.2 78.6 128.5 78.9Q127.8 79.2 127.0 79.2ZM124.5 74.2L124.5 74.2L129.1 74.2Q129.0 73.7 128.8 73.2L128.8 73.2Q128.6 72.6 128.1 72.2Q127.6 71.9 126.8 71.9Q126.1 71.9 125.6 72.2Q125.0 72.6 124.8 73.2L124.8 73.2Q124.5 73.7 124.5 74.2ZM133.6 79L132.3 79L132.3 70.8L133.6 70.8L133.6 72.1L133.7 72.1Q133.9 71.4 134.5 71.1Q135.0 70.7 135.8 70.7L135.8 70.7Q135.9 70.7 136.1 70.7Q136.3 70.7 136.4 70.7L136.4 70.7L136.4 72.0Q136.4 72.0 136.1 72.0Q135.9 72.0 135.7 72.0L135.7 72.0Q135.1 72.0 134.6 72.2Q134.1 72.5 133.9 72.9Q133.6 73.3 133.6 73.9L133.6 73.9L133.6 79ZM141.4 79.2L141.4 79.2Q140.2 79.2 139.3 78.6Q138.5 78.1 138.0 77.2Q137.5 76.2 137.5 75.0Q137.5 73.7 138.0 72.8Q138.4 71.8 139.3 71.3Q140.1 70.7 141.2 70.7L141.2 70.7Q141.9 70.7 142.5 70.9Q143.1 71.1 143.7 71.6Q144.2 72.1 144.5 72.9Q144.8 73.7 144.8 74.8L144.8 74.8L144.8 75.4L138.9 75.4Q138.9 76.1 139.2 76.7L139.2 76.7Q139.5 77.4 140.1 77.7Q140.6 78.0 141.4 78.0L141.4 78.0Q141.9 78.0 142.3 77.9Q142.7 77.7 142.9 77.4Q143.2 77.2 143.4 76.7L143.4 76.7L144.7 77.1Q144.5 77.7 144.0 78.2Q143.6 78.6 142.9 78.9Q142.2 79.2 141.4 79.2ZM138.9 74.2L138.9 74.2L143.5 74.2Q143.4 73.7 143.2 73.2L143.2 73.2Q143.0 72.6 142.5 72.2Q142.0 71.9 141.2 71.9Q140.5 71.9 140.0 72.2Q139.4 72.6 139.2 73.2L139.2 73.2Q138.9 73.7 138.9 74.2Z M155.5 79.1L155.5 79.1Q154.1 79.1 153.0 78.5Q151.9 77.8 151.3 76.5Q150.6 75.3 150.6 73.6L150.6 73.6Q150.6 71.8 151.3 70.6Q151.9 69.3 153.0 68.6Q154.1 67.9 155.5 67.9L155.5 67.9Q156.3 67.9 157.0 68.2Q157.8 68.4 158.4 68.9Q159.0 69.4 159.3 70.0Q159.7 70.7 159.9 71.5L159.9 71.5L158.5 71.5Q158.4 71.0 158.1 70.5Q157.8 70.1 157.4 69.8Q157.0 69.5 156.5 69.4Q156.0 69.2 155.5 69.2L155.5 69.2Q154.5 69.2 153.7 69.7Q152.9 70.2 152.5 71.2Q152.0 72.2 152.0 73.6L152.0 73.6Q152.0 74.9 152.5 75.9Q152.9 76.9 153.7 77.4Q154.5 77.9 155.5 77.9L155.5 77.9Q156.0 77.9 156.5 77.7Q157.0 77.6 157.4 77.3Q157.8 77.0 158.1 76.6Q158.4 76.1 158.5 75.6L158.5 75.6L159.9 75.6Q159.7 76.4 159.3 77.1Q159.0 77.7 158.4 78.2Q157.8 78.7 157.0 78.9Q156.3 79.1 155.5 79.1ZM164.9 69.3L161.4 69.3L161.4 68.1L169.7 68.1L169.7 69.3L166.2 69.3L166.2 79L164.9 79L164.9 69.3ZM176.1 79.1L176.1 79.1Q174.7 79.1 173.6 78.5Q172.5 77.8 171.9 76.5Q171.3 75.3 171.3 73.6L171.3 73.6Q171.3 71.8 171.9 70.6Q172.5 69.3 173.6 68.6Q174.7 67.9 176.1 67.9L176.1 67.9Q177.5 67.9 178.6 68.6Q179.7 69.3 180.3 70.6Q181.0 71.8 181.0 73.6L181.0 73.6Q181.0 75.3 180.3 76.5Q179.7 77.8 178.6 78.5Q177.5 79.1 176.1 79.1ZM176.1 77.9L176.1 77.9Q177.1 77.9 177.9 77.4Q178.7 76.9 179.1 75.9Q179.6 74.9 179.6 73.6L179.6 73.6Q179.6 72.1 179.1 71.2Q178.7 70.2 177.9 69.7Q177.1 69.2 176.1 69.2L176.1 69.2Q175.1 69.2 174.4 69.7Q173.6 70.2 173.1 71.2Q172.6 72.2 172.6 73.6L172.6 73.6Q172.6 74.9 173.1 75.9Q173.6 76.9 174.4 77.4Q175.1 77.9 176.1 77.9Z M190.3 79.1L190.3 79.1Q189.2 79.1 188.5 78.7Q187.7 78.3 187.3 77.7Q186.8 77.0 186.8 76.2L186.8 76.2Q186.8 75.4 187.1 74.9Q187.4 74.4 187.9 73.9L187.9 73.9Q188.4 73.5 189.0 73.1L189.0 73.1Q188.9 72.9 188.7 72.8L188.7 72.8Q188.3 72.2 188.0 71.7Q187.7 71.1 187.7 70.5L187.7 70.5Q187.7 69.7 188.0 69.2Q188.4 68.6 189.0 68.3Q189.6 68.0 190.4 68.0L190.4 68.0Q191.2 68.0 191.8 68.3Q192.4 68.6 192.7 69.2Q193.0 69.7 193.0 70.3L193.0 70.3Q193.0 70.8 192.9 71.3Q192.7 71.7 192.3 72.0Q192.0 72.4 191.6 72.7L191.6 72.7L190.8 73.3L193.1 76.1Q193.2 76.0 193.3 75.8L193.3 75.8Q193.6 75.1 193.6 74.2L193.6 74.2L194.9 74.2Q194.9 75.3 194.6 76.0Q194.4 76.7 194.0 77.1L194.0 77.1Q194.0 77.1 194.0 77.1L194.0 77.1L195.5 79L193.9 79L193.2 78.1Q192.6 78.6 191.9 78.9L191.9 78.9Q191.1 79.1 190.3 79.1ZM192.4 77.1L189.8 74.1L189.4 74.3Q188.7 74.8 188.5 75.3Q188.2 75.7 188.2 76.2L188.2 76.2Q188.2 76.7 188.4 77.1Q188.7 77.5 189.2 77.8Q189.6 78.0 190.2 78.0L190.2 78.0Q190.9 78.0 191.5 77.7L191.5 77.7Q192.0 77.5 192.4 77.1L192.4 77.1ZM190.0 72.3L190.0 72.3L190.7 71.8Q190.9 71.7 191.2 71.5Q191.4 71.3 191.6 71.0Q191.7 70.7 191.7 70.3L191.7 70.3Q191.7 69.8 191.4 69.5Q191.0 69.1 190.4 69.1L190.4 69.1Q190.0 69.1 189.7 69.3Q189.4 69.5 189.2 69.8Q189.0 70.0 189.0 70.4L189.0 70.4Q189.0 70.9 189.2 71.2Q189.4 71.6 189.7 72.0L189.7 72.0Q189.9 72.2 190.0 72.3Z M204.1 69.3L200.7 69.3L200.7 68.1L208.9 68.1L208.9 69.3L205.5 69.3L205.5 79L204.1 79L204.1 69.3ZM214.2 79.2L214.2 79.2Q213.0 79.2 212.2 78.6Q211.3 78.1 210.9 77.2Q210.4 76.2 210.4 75.0Q210.4 73.7 210.8 72.8Q211.3 71.8 212.1 71.3Q213.0 70.7 214.1 70.7L214.1 70.7Q214.7 70.7 215.4 70.9Q216.0 71.1 216.5 71.6Q217.0 72.1 217.3 72.9Q217.6 73.7 217.6 74.8L217.6 74.8L217.6 75.4L211.7 75.4Q211.8 76.1 212.0 76.7L212.0 76.7Q212.4 77.4 212.9 77.7Q213.5 78.0 214.2 78.0L214.2 78.0Q214.7 78.0 215.1 77.9Q215.5 77.7 215.8 77.4Q216.1 77.2 216.2 76.7L216.2 76.7L217.5 77.1Q217.3 77.7 216.9 78.2Q216.4 78.6 215.7 78.9Q215.1 79.2 214.2 79.2ZM211.7 74.2L211.7 74.2L216.3 74.2Q216.3 73.7 216.1 73.2L216.1 73.2Q215.8 72.6 215.3 72.2Q214.8 71.9 214.1 71.9Q213.3 71.9 212.8 72.2Q212.3 72.6 212.0 73.2L212.0 73.2Q211.8 73.7 211.7 74.2ZM222.9 79.2L222.9 79.2Q221.8 79.2 220.9 78.6Q220.1 78.1 219.6 77.2Q219.1 76.2 219.1 75.0L219.1 75.0Q219.1 73.7 219.6 72.7Q220.1 71.8 220.9 71.2Q221.8 70.7 222.9 70.7L222.9 70.7Q223.5 70.7 224.0 70.9Q224.5 71.0 225.0 71.3Q225.4 71.6 225.7 72.0Q226.0 72.4 226.2 73.0L226.2 73.0L224.9 73.3Q224.8 73.0 224.6 72.8Q224.5 72.5 224.2 72.3Q223.9 72.1 223.6 72.0Q223.3 71.9 222.9 71.9L222.9 71.9Q222.0 71.9 221.5 72.3Q221.0 72.7 220.7 73.4Q220.5 74.1 220.5 75.0L220.5 75.0Q220.5 75.8 220.7 76.5Q221.0 77.1 221.5 77.6Q222.0 78.0 222.9 78.0L222.9 78.0Q223.3 78.0 223.6 77.9Q224.0 77.8 224.2 77.6Q224.5 77.4 224.7 77.1Q224.9 76.8 225.0 76.5L225.0 76.5L226.2 76.8Q226.1 77.4 225.7 77.8Q225.4 78.3 225.0 78.6Q224.5 78.9 224.0 79.0Q223.5 79.2 222.9 79.2ZM229.4 74.1L229.4 74.1L229.4 79L228.1 79L228.1 68.1L229.4 68.1L229.4 72.2Q229.8 71.5 230.3 71.2L230.3 71.2Q231.0 70.7 231.9 70.7L231.9 70.7Q232.7 70.7 233.3 71.0Q234.0 71.4 234.3 72.1Q234.7 72.8 234.7 73.8L234.7 73.8L234.7 79L233.3 79L233.3 73.9Q233.3 73.0 232.8 72.4Q232.3 71.9 231.5 71.9L231.5 71.9Q230.9 71.9 230.4 72.2Q230.0 72.4 229.7 72.9Q229.4 73.4 229.4 74.1Z M247.8 79L241.4 79L241.4 68.1L242.7 68.1L242.7 77.8L247.8 77.8L247.8 79ZM253.1 79.2L253.1 79.2Q251.9 79.2 251.1 78.6Q250.2 78.1 249.7 77.2Q249.3 76.2 249.3 75.0Q249.3 73.7 249.7 72.8Q250.2 71.8 251.0 71.3Q251.9 70.7 253.0 70.7L253.0 70.7Q253.6 70.7 254.2 70.9Q254.9 71.1 255.4 71.6Q255.9 72.1 256.2 72.9Q256.5 73.7 256.5 74.8L256.5 74.8L256.5 75.4L250.6 75.4Q250.6 76.1 250.9 76.7L250.9 76.7Q251.2 77.4 251.8 77.7Q252.4 78.0 253.1 78.0L253.1 78.0Q253.6 78.0 254.0 77.9Q254.4 77.7 254.7 77.4Q255.0 77.2 255.1 76.7L255.1 76.7L256.4 77.1Q256.2 77.7 255.8 78.2Q255.3 78.6 254.6 78.9Q254.0 79.2 253.1 79.2ZM250.6 74.2L250.6 74.2L255.2 74.2Q255.1 73.7 255.0 73.2L255.0 73.2Q254.7 72.6 254.2 72.2Q253.7 71.9 253.0 71.9Q252.2 71.9 251.7 72.2Q251.2 72.6 250.9 73.2L250.9 73.2Q250.7 73.7 250.6 74.2ZM260.7 79.2L260.7 79.2Q259.9 79.2 259.3 78.9Q258.7 78.6 258.3 78.0Q257.9 77.5 257.9 76.7L257.9 76.7Q257.9 76.0 258.2 75.5Q258.5 75.1 258.9 74.8Q259.4 74.6 260.0 74.5Q260.5 74.3 261.1 74.3L261.1 74.3Q261.8 74.2 262.3 74.1Q262.8 74.1 263.0 73.9Q263.2 73.8 263.2 73.5L263.2 73.5L263.2 73.5Q263.2 73.0 263.0 72.6Q262.8 72.2 262.4 72.1Q262.1 71.9 261.5 71.9L261.5 71.9Q260.9 71.9 260.5 72.0Q260.1 72.2 259.8 72.5Q259.6 72.8 259.4 73.1L259.4 73.1L258.2 72.6Q258.5 71.9 259.0 71.5Q259.5 71.1 260.2 70.9Q260.8 70.7 261.5 70.7L261.5 70.7Q261.9 70.7 262.4 70.8Q262.9 70.9 263.4 71.2Q263.9 71.5 264.2 72.1Q264.5 72.6 264.5 73.6L264.5 73.6L264.5 79L263.2 79L263.2 77.9L263.1 77.9Q263.0 78.2 262.7 78.5Q262.4 78.8 261.9 79.0Q261.4 79.2 260.7 79.2ZM260.9 78.0L260.9 78.0Q261.7 78.0 262.2 77.7Q262.7 77.5 262.9 77.0Q263.2 76.5 263.2 76.0L263.2 76.0L263.2 74.9Q263.1 75.0 262.9 75.1Q262.6 75.2 262.2 75.2Q261.9 75.3 261.6 75.3Q261.2 75.4 261.0 75.4L261.0 75.4Q260.6 75.4 260.2 75.6Q259.7 75.7 259.5 76.0Q259.2 76.3 259.2 76.7L259.2 76.7Q259.2 77.2 259.5 77.4Q259.7 77.7 260.1 77.9Q260.4 78.0 260.9 78.0ZM269.9 79.2L269.9 79.2Q268.9 79.2 268.1 78.7Q267.3 78.1 266.9 77.2Q266.4 76.2 266.4 74.9L266.4 74.9Q266.4 73.6 266.9 72.7Q267.3 71.7 268.1 71.2Q268.9 70.7 269.9 70.7L269.9 70.7Q270.7 70.7 271.2 71.0Q271.7 71.2 271.9 71.6Q272.2 71.9 272.3 72.1L272.3 72.1L272.4 72.1L272.4 68.1L273.7 68.1L273.7 79L272.4 79L272.4 77.7L272.3 77.7Q272.2 78.0 271.9 78.3Q271.6 78.6 271.2 78.9Q270.7 79.2 269.9 79.2ZM270.1 78.0L270.1 78.0Q270.9 78.0 271.4 77.6Q271.9 77.2 272.1 76.5Q272.4 75.8 272.4 74.9L272.4 74.9Q272.4 74.0 272.1 73.3Q271.9 72.6 271.4 72.3Q270.9 71.9 270.1 71.9L270.1 71.9Q269.3 71.9 268.8 72.3Q268.3 72.7 268.0 73.4Q267.8 74.1 267.8 74.9L267.8 74.9Q267.8 75.8 268.0 76.5Q268.3 77.2 268.8 77.6Q269.3 78.0 270.1 78.0Z "/></g><mask id="satori_om-id-1-1"><rect x="303" y="64" width="218" height="18" fill="#fff"/></mask><g  ><path fill="#a78bfa" d="M304.2 68.1L305.5 68.1L305.5 79L304.2 79L304.2 68.1ZM309.1 79L307.8 79L307.8 70.8L309.1 70.8L309.1 79ZM308.5 69.5L308.5 69.5Q308.1 69.5 307.8 69.2Q307.5 69.0 307.5 68.6L307.5 68.6Q307.5 68.2 307.8 68.0Q308.1 67.7 308.5 67.7L308.5 67.7Q308.8 67.7 309.1 68.0Q309.4 68.2 309.4 68.6L309.4 68.6Q309.4 69.0 309.1 69.2Q308.8 69.5 308.5 69.5ZM312.7 74.1L312.7 74.1L312.7 79L311.4 79L311.4 70.8L312.7 70.8L312.7 72.3Q313.0 71.6 313.6 71.2L313.6 71.2Q314.3 70.7 315.2 70.7L315.2 70.7Q316.0 70.7 316.7 71.0Q317.3 71.4 317.6 72.1Q318.0 72.8 318.0 73.8L318.0 73.8L318.0 79L316.7 79L316.7 73.9Q316.7 73.0 316.2 72.4Q315.7 71.9 314.8 71.9L314.8 71.9Q314.2 71.9 313.8 72.2Q313.3 72.4 313.0 72.9Q312.7 73.4 312.7 74.1ZM321.6 79L320.3 79L320.3 68.1L321.6 68.1L321.6 74.4L321.8 74.4L325.3 70.8L326.9 70.8L323.5 74.3L327.2 79L325.5 79L322.5 75.2L321.6 76.0L321.6 79ZM332.0 79.2L332.0 79.2Q330.8 79.2 329.9 78.6Q329.1 78.1 328.6 77.2Q328.1 76.2 328.1 75.0Q328.1 73.7 328.6 72.8Q329.0 71.8 329.9 71.3Q330.7 70.7 331.8 70.7L331.8 70.7Q332.5 70.7 333.1 70.9Q333.7 71.1 334.2 71.6Q334.8 72.1 335.1 72.9Q335.4 73.7 335.4 74.8L335.4 74.8L335.4 75.4L329.5 75.4Q329.5 76.1 329.8 76.7L329.8 76.7Q330.1 77.4 330.7 77.7Q331.2 78.0 332.0 78.0L332.0 78.0Q332.5 78.0 332.8 77.9Q333.2 77.7 333.5 77.4Q333.8 77.2 334.0 76.7L334.0 76.7L335.2 77.1Q335.1 77.7 334.6 78.2Q334.1 78.6 333.5 78.9Q332.8 79.2 332.0 79.2ZM329.5 74.2L329.5 74.2L334.0 74.2Q334.0 73.7 333.8 73.2L333.8 73.2Q333.5 72.6 333.0 72.2Q332.5 71.9 331.8 71.9Q331.1 71.9 330.5 72.2Q330.0 72.6 329.7 73.2L329.7 73.2Q329.5 73.7 329.5 74.2ZM340.3 79.2L340.3 79.2Q339.3 79.2 338.5 78.7Q337.7 78.1 337.3 77.2Q336.9 76.2 336.9 74.9L336.9 74.9Q336.9 73.6 337.3 72.7Q337.8 71.7 338.5 71.2Q339.3 70.7 340.3 70.7L340.3 70.7Q341.1 70.7 341.6 71.0Q342.1 71.2 342.3 71.6Q342.6 71.9 342.7 72.1L342.7 72.1L342.8 72.1L342.8 68.1L344.1 68.1L344.1 79L342.9 79L342.9 77.7L342.7 77.7Q342.6 78.0 342.3 78.3Q342.1 78.6 341.6 78.9Q341.1 79.2 340.3 79.2ZM340.5 78.0L340.5 78.0Q341.3 78.0 341.8 77.6Q342.3 77.2 342.6 76.5Q342.8 75.8 342.8 74.9L342.8 74.9Q342.8 74.0 342.6 73.3Q342.3 72.6 341.8 72.3Q341.3 71.9 340.5 71.9L340.5 71.9Q339.8 71.9 339.2 72.3Q338.7 72.7 338.5 73.4Q338.2 74.1 338.2 74.9L338.2 74.9Q338.2 75.8 338.5 76.5Q338.7 77.2 339.2 77.6Q339.8 78.0 340.5 78.0ZM347.8 79L346.4 79L346.4 70.8L347.8 70.8L347.8 79ZM347.1 69.5L347.1 69.5Q346.7 69.5 346.5 69.2Q346.2 69.0 346.2 68.6L346.2 68.6Q346.2 68.2 346.5 68.0Q346.7 67.7 347.1 67.7L347.1 67.7Q347.5 67.7 347.8 68.0Q348.0 68.2 348.0 68.6L348.0 68.6Q348.0 69.0 347.8 69.2Q347.5 69.5 347.1 69.5ZM351.4 74.1L351.4 74.1L351.4 79L350.1 79L350.1 70.8L351.3 70.8L351.4 72.3Q351.7 71.6 352.2 71.2L352.2 71.2Q352.9 70.7 353.9 70.7L353.9 70.7Q354.7 70.7 355.3 71.0Q355.9 71.4 356.3 72.1Q356.6 72.8 356.6 73.8L356.6 73.8L356.6 79L355.3 79L355.3 73.9Q355.3 73.0 354.8 72.4Q354.3 71.9 353.5 71.9L353.5 71.9Q352.9 71.9 352.4 72.2Q351.9 72.4 351.7 72.9Q351.4 73.4 351.4 74.1ZM359.9 79.1L359.9 79.1Q359.5 79.1 359.2 78.8Q359.0 78.5 359.0 78.1L359.0 78.1Q359.0 77.7 359.2 77.4Q359.5 77.1 359.9 77.1L359.9 77.1Q360.4 77.1 360.6 77.4Q360.9 77.7 360.9 78.1L360.9 78.1Q360.9 78.5 360.6 78.8Q360.4 79.1 359.9 79.1ZM366.6 79.2L366.6 79.2Q365.5 79.2 364.6 78.6Q363.8 78.1 363.3 77.2Q362.9 76.2 362.9 75.0L362.9 75.0Q362.9 73.7 363.3 72.7Q363.8 71.8 364.6 71.2Q365.5 70.7 366.6 70.7L366.6 70.7Q367.2 70.7 367.7 70.9Q368.2 71.0 368.7 71.3Q369.1 71.6 369.4 72.0Q369.7 72.4 369.9 73.0L369.9 73.0L368.6 73.3Q368.6 73.0 368.4 72.8Q368.2 72.5 367.9 72.3Q367.7 72.1 367.3 72.0Q367.0 71.9 366.6 71.9L366.6 71.9Q365.8 71.9 365.2 72.3Q364.7 72.7 364.5 73.4Q364.2 74.1 364.2 75.0L364.2 75.0Q364.2 75.8 364.5 76.5Q364.7 77.1 365.2 77.6Q365.8 78.0 366.6 78.0L366.6 78.0Q367.0 78.0 367.4 77.9Q367.7 77.8 368.0 77.6Q368.2 77.4 368.4 77.1Q368.6 76.8 368.7 76.5L368.7 76.5L369.9 76.8Q369.8 77.4 369.5 77.8Q369.1 78.3 368.7 78.6Q368.3 78.9 367.7 79.0Q367.2 79.2 366.6 79.2ZM375.2 79.2L375.2 79.2Q374.1 79.2 373.2 78.6Q372.4 78.1 371.9 77.2Q371.4 76.2 371.4 75.0L371.4 75.0Q371.4 73.7 371.9 72.7Q372.4 71.8 373.2 71.2Q374.1 70.7 375.2 70.7L375.2 70.7Q376.3 70.7 377.1 71.2Q378.0 71.8 378.4 72.7Q378.9 73.7 378.9 75.0L378.9 75.0Q378.9 76.2 378.4 77.2Q378.0 78.1 377.1 78.6Q376.3 79.2 375.2 79.2ZM375.2 78.0L375.2 78.0Q376.0 78.0 376.5 77.6Q377.1 77.1 377.3 76.5Q377.6 75.8 377.6 75.0L377.6 75.0Q377.6 74.1 377.3 73.4Q377.1 72.7 376.5 72.3Q376.0 71.9 375.2 71.9L375.2 71.9Q374.3 71.9 373.8 72.3Q373.3 72.7 373.0 73.4Q372.8 74.1 372.8 75.0L372.8 75.0Q372.8 75.8 373.0 76.5Q373.3 77.1 373.8 77.6Q374.3 78.0 375.2 78.0ZM382.1 79L380.8 79L380.8 70.8L382.1 70.8L382.1 72.3Q382.3 71.9 382.5 71.5L382.5 71.5Q382.9 71.1 383.4 70.9Q383.9 70.7 384.4 70.7L384.4 70.7Q385.3 70.7 385.9 71.2L385.9 71.2Q386.3 71.7 386.5 72.3L386.5 72.3Q386.6 71.9 386.9 71.6L386.9 71.6Q387.3 71.1 387.9 70.9Q388.4 70.7 389.1 70.7L389.1 70.7Q389.8 70.7 390.4 71.0Q391.0 71.3 391.3 71.9Q391.7 72.5 391.7 73.5L391.7 73.5L391.7 79L390.3 79L390.3 73.5Q390.3 72.6 389.8 72.2Q389.3 71.9 388.7 71.9L388.7 71.9Q388.1 71.9 387.7 72.1Q387.3 72.3 387.1 72.7Q386.9 73.1 386.9 73.7L386.9 73.7L386.9 79L385.6 79L385.6 73.4Q385.6 72.7 385.1 72.3Q384.7 71.9 384.0 71.9L384.0 71.9Q383.5 71.9 383.1 72.1Q382.7 72.3 382.4 72.8Q382.1 73.2 382.1 73.8L382.1 73.8L382.1 79ZM396.7 67.6L397.9 67.6L394.4 80.6L393.1 80.6L396.7 67.6ZM400.7 79L399.4 79L399.4 70.8L400.7 70.8L400.7 79ZM400.0 69.5L400.0 69.5Q399.7 69.5 399.4 69.2Q399.1 69.0 399.1 68.6L399.1 68.6Q399.1 68.2 399.4 68.0Q399.7 67.7 400.0 67.7L400.0 67.7Q400.4 67.7 400.7 68.0Q401.0 68.2 401.0 68.6L401.0 68.6Q401.0 69.0 400.7 69.2Q400.4 69.5 400.0 69.5ZM404.3 74.1L404.3 74.1L404.3 79L403.0 79L403.0 70.8L404.3 70.8L404.3 72.3Q404.6 71.6 405.2 71.2L405.2 71.2Q405.9 70.7 406.8 70.7L406.8 70.7Q407.6 70.7 408.2 71.0Q408.9 71.4 409.2 72.1Q409.6 72.8 409.6 73.8L409.6 73.8L409.6 79L408.2 79L408.2 73.9Q408.2 73.0 407.7 72.4Q407.2 71.9 406.4 71.9L406.4 71.9Q405.8 71.9 405.3 72.2Q404.9 72.4 404.6 72.9Q404.3 73.4 404.3 74.1ZM414.6 67.6L415.8 67.6L412.3 80.6L411.0 80.6L414.6 67.6ZM418.8 79L417.4 79L417.4 68.1L418.8 68.1L418.8 72.8L424.6 72.8L424.6 68.1L425.9 68.1L425.9 79L424.6 79L424.6 74.0L418.8 74.0L418.8 79ZM430.7 79.2L430.7 79.2Q429.9 79.2 429.3 78.9Q428.7 78.6 428.3 78.0Q427.9 77.5 427.9 76.7L427.9 76.7Q427.9 76.0 428.2 75.5Q428.5 75.1 428.9 74.8Q429.4 74.6 430.0 74.5Q430.5 74.3 431.1 74.3L431.1 74.3Q431.8 74.2 432.3 74.1Q432.8 74.1 433.0 73.9Q433.2 73.8 433.2 73.5L433.2 73.5L433.2 73.5Q433.2 73.0 433.0 72.6Q432.8 72.2 432.4 72.1Q432.1 71.9 431.5 71.9L431.5 71.9Q430.9 71.9 430.5 72.0Q430.1 72.2 429.8 72.5Q429.6 72.8 429.4 73.1L429.4 73.1L428.2 72.6Q428.5 71.9 429.0 71.5Q429.5 71.1 430.2 70.9Q430.8 70.7 431.5 70.7L431.5 70.7Q431.9 70.7 432.4 70.8Q432.9 70.9 433.4 71.2Q433.9 71.5 434.2 72.1Q434.5 72.6 434.5 73.6L434.5 73.6L434.5 79L433.2 79L433.2 77.9L433.1 77.9Q433.0 78.2 432.7 78.5Q432.4 78.8 431.9 79.0Q431.4 79.2 430.7 79.2ZM430.9 78.0L430.9 78.0Q431.7 78.0 432.2 77.7Q432.7 77.5 432.9 77.0Q433.2 76.5 433.2 76.0L433.2 76.0L433.2 74.9Q433.1 75.0 432.9 75.1Q432.6 75.2 432.2 75.2Q431.9 75.3 431.6 75.3Q431.2 75.4 431.0 75.4L431.0 75.4Q430.6 75.4 430.2 75.6Q429.7 75.7 429.5 76.0Q429.2 76.3 429.2 76.7L429.2 76.7Q429.2 77.2 429.5 77.4Q429.7 77.7 430.1 77.9Q430.4 78.0 430.9 78.0ZM439.6 79.2L439.6 79.2Q438.8 79.2 438.1 78.9Q437.5 78.7 437.0 78.2Q436.6 77.7 436.5 77.0L436.5 77.0L437.7 76.7Q437.9 77.4 438.4 77.7Q438.9 78.0 439.6 78.0L439.6 78.0Q440.5 78.0 441.0 77.7Q441.5 77.3 441.5 76.8L441.5 76.8Q441.5 76.4 441.2 76.1Q440.9 75.8 440.3 75.7L440.3 75.7L438.9 75.3Q437.8 75.1 437.3 74.5Q436.7 74.0 436.7 73.1L436.7 73.1Q436.7 72.4 437.1 71.9Q437.5 71.3 438.2 71.0Q438.9 70.7 439.8 70.7L439.8 70.7Q440.6 70.7 441.2 71.0Q441.8 71.2 442.1 71.7Q442.5 72.1 442.7 72.7L442.7 72.7L441.5 73.0Q441.3 72.5 440.9 72.2Q440.6 71.8 439.8 71.8L439.8 71.8Q439.0 71.8 438.5 72.2Q438.1 72.5 438.1 73.0L438.1 73.0Q438.1 73.5 438.4 73.7Q438.7 74.0 439.4 74.2L439.4 74.2L440.7 74.5Q441.8 74.7 442.3 75.3Q442.9 75.9 442.9 76.7L442.9 76.7Q442.9 77.4 442.4 78.0Q442.0 78.5 441.3 78.9Q440.6 79.2 439.6 79.2ZM447.5 79.2L447.5 79.2Q446.7 79.2 446.0 78.9Q445.4 78.7 445.0 78.2Q444.5 77.7 444.4 77.0L444.4 77.0L445.6 76.7Q445.8 77.4 446.3 77.7Q446.8 78.0 447.5 78.0L447.5 78.0Q448.4 78.0 448.9 77.7Q449.4 77.3 449.4 76.8L449.4 76.8Q449.4 76.4 449.1 76.1Q448.8 75.8 448.2 75.7L448.2 75.7L446.8 75.3Q445.7 75.1 445.2 74.5Q444.6 74.0 444.6 73.1L444.6 73.1Q444.6 72.4 445.0 71.9Q445.4 71.3 446.1 71.0Q446.8 70.7 447.7 70.7L447.7 70.7Q448.5 70.7 449.1 71.0Q449.7 71.2 450.1 71.7Q450.4 72.1 450.6 72.7L450.6 72.7L449.4 73.0Q449.3 72.5 448.9 72.2Q448.5 71.8 447.7 71.8L447.7 71.8Q447.0 71.8 446.5 72.2Q446.0 72.5 446.0 73.0L446.0 73.0Q446.0 73.5 446.3 73.7Q446.6 74.0 447.4 74.2L447.4 74.2L448.6 74.5Q449.7 74.7 450.2 75.3Q450.8 75.9 450.8 76.7L450.8 76.7Q450.8 77.4 450.4 78.0Q450.0 78.5 449.2 78.9Q448.5 79.2 447.5 79.2ZM455.0 79.2L455.0 79.2Q454.2 79.2 453.6 78.9Q452.9 78.6 452.6 78.0Q452.2 77.5 452.2 76.7L452.2 76.7Q452.2 76.0 452.5 75.5Q452.7 75.1 453.2 74.8Q453.7 74.6 454.2 74.5Q454.8 74.3 455.4 74.3L455.4 74.3Q456.1 74.2 456.6 74.1Q457.0 74.1 457.2 73.9Q457.5 73.8 457.5 73.5L457.5 73.5L457.5 73.5Q457.5 73.0 457.3 72.6Q457.1 72.2 456.7 72.1Q456.3 71.9 455.8 71.9L455.8 71.9Q455.2 71.9 454.8 72.0Q454.3 72.2 454.1 72.5Q453.8 72.8 453.7 73.1L453.7 73.1L452.4 72.6Q452.7 71.9 453.3 71.5Q453.8 71.1 454.4 70.9Q455.1 70.7 455.7 70.7L455.7 70.7Q456.1 70.7 456.7 70.8Q457.2 70.9 457.7 71.2Q458.1 71.5 458.5 72.1Q458.8 72.6 458.8 73.6L458.8 73.6L458.8 79L457.5 79L457.5 77.9L457.4 77.9Q457.3 78.2 457.0 78.5Q456.6 78.8 456.2 79.0Q455.7 79.2 455.0 79.2ZM455.2 78.0L455.2 78.0Q455.9 78.0 456.4 77.7Q456.9 77.5 457.2 77.0Q457.5 76.5 457.5 76.0L457.5 76.0L457.5 74.9Q457.4 75.0 457.1 75.1Q456.8 75.2 456.5 75.2Q456.1 75.3 455.8 75.3Q455.5 75.4 455.3 75.4L455.3 75.4Q454.8 75.4 454.4 75.6Q454.0 75.7 453.8 76.0Q453.5 76.3 453.5 76.7L453.5 76.7Q453.5 77.2 453.7 77.4Q453.9 77.7 454.3 77.9Q454.7 78.0 455.2 78.0ZM462.4 74.1L462.4 74.1L462.4 79L461.1 79L461.1 70.8L462.4 70.8L462.4 72.3Q462.7 71.6 463.3 71.2L463.3 71.2Q463.9 70.7 464.9 70.7L464.9 70.7Q465.7 70.7 466.3 71.0Q467.0 71.4 467.3 72.1Q467.6 72.8 467.6 73.8L467.6 73.8L467.6 79L466.3 79L466.3 73.9Q466.3 73.0 465.8 72.4Q465.3 71.9 464.5 71.9L464.5 71.9Q463.9 71.9 463.4 72.2Q463.0 72.4 462.7 72.9Q462.4 73.4 462.4 74.1ZM469.9 73.7L474.7 73.7L474.7 74.9L469.9 74.9L469.9 73.7ZM477.6 79L476.1 79L480.0 68.1L481.7 68.1L485.7 79L484.2 79L483.1 76.0L478.6 76.0L477.6 79ZM479.0 74.7L482.7 74.7L481.9 72.5Q481.7 71.9 481.4 71.0L481.4 71.0Q481.2 70.3 480.8 69.2L480.8 69.2Q480.5 70.3 480.3 71.1L480.3 71.1Q480.0 72.0 479.8 72.5L479.8 72.5L479.0 74.7ZM488.5 79L487.2 79L487.2 70.8L488.5 70.8L488.5 79ZM487.9 69.5L487.9 69.5Q487.5 69.5 487.2 69.2Q487.0 69.0 487.0 68.6L487.0 68.6Q487.0 68.2 487.2 68.0Q487.5 67.7 487.9 67.7L487.9 67.7Q488.3 67.7 488.5 68.0Q488.8 68.2 488.8 68.6L488.8 68.6Q488.8 69.0 488.5 69.2Q488.3 69.5 487.9 69.5ZM493.9 79.2L493.9 79.2Q492.9 79.2 492.1 78.7Q491.3 78.1 490.9 77.2Q490.4 76.2 490.4 74.9L490.4 74.9Q490.4 73.6 490.9 72.7Q491.3 71.7 492.1 71.2Q492.9 70.7 493.9 70.7L493.9 70.7Q494.7 70.7 495.2 71.0Q495.7 71.2 495.9 71.6Q496.2 71.9 496.3 72.1L496.3 72.1L496.4 72.1L496.4 68.1L497.7 68.1L497.7 79L496.4 79L496.4 77.7L496.3 77.7Q496.2 78.0 495.9 78.3Q495.6 78.6 495.2 78.9Q494.7 79.2 493.9 79.2ZM494.1 78.0L494.1 78.0Q494.9 78.0 495.4 77.6Q495.9 77.2 496.1 76.5Q496.4 75.8 496.4 74.9L496.4 74.9Q496.4 74.0 496.2 73.3Q495.9 72.6 495.4 72.3Q494.9 71.9 494.1 71.9L494.1 71.9Q493.3 71.9 492.8 72.3Q492.3 72.7 492.0 73.4Q491.8 74.1 491.8 74.9L491.8 74.9Q491.8 75.8 492.0 76.5Q492.3 77.2 492.8 77.6Q493.3 78.0 494.1 78.0ZM501.3 79L500.0 79L500.0 70.8L501.3 70.8L501.3 79ZM500.7 69.5L500.7 69.5Q500.3 69.5 500.1 69.2Q499.8 69.0 499.8 68.6L499.8 68.6Q499.8 68.2 500.1 68.0Q500.3 67.7 500.7 67.7L500.7 67.7Q501.1 67.7 501.3 68.0Q501.6 68.2 501.6 68.6L501.6 68.6Q501.6 69.0 501.3 69.2Q501.1 69.5 500.7 69.5ZM507.5 79.2L507.5 79.2Q506.7 79.2 506.2 78.9Q505.7 78.6 505.5 78.3Q505.2 78.0 505.1 77.7L505.1 77.7L504.9 77.7L504.9 79L503.7 79L503.7 68.1L505.0 68.1L505.0 72.1L505.1 72.1Q505.2 71.9 505.5 71.6Q505.7 71.2 506.2 71.0Q506.7 70.7 507.5 70.7L507.5 70.7Q508.5 70.7 509.3 71.2Q510.0 71.7 510.5 72.7Q510.9 73.6 510.9 74.9L510.9 74.9Q510.9 76.2 510.5 77.2Q510.0 78.1 509.3 78.7Q508.5 79.2 507.5 79.2ZM507.3 78.0L507.3 78.0Q508.0 78.0 508.6 77.6Q509.1 77.2 509.3 76.5Q509.6 75.8 509.6 74.9L509.6 74.9Q509.6 74.1 509.3 73.4Q509.1 72.7 508.6 72.3Q508.0 71.9 507.3 71.9L507.3 71.9Q506.5 71.9 506.0 72.3Q505.5 72.6 505.2 73.3Q505.0 74.0 505.0 74.9L505.0 74.9Q505.0 75.8 505.2 76.5Q505.5 77.2 506.0 77.6Q506.5 78.0 507.3 78.0ZM516.3 79.2L516.3 79.2Q515.1 79.2 514.2 78.6Q513.4 78.1 512.9 77.2Q512.5 76.2 512.5 75.0Q512.5 73.7 512.9 72.8Q513.4 71.8 514.2 71.3Q515.0 70.7 516.1 70.7L516.1 70.7Q516.8 70.7 517.4 70.9Q518.1 71.1 518.6 71.6Q519.1 72.1 519.4 72.9Q519.7 73.7 519.7 74.8L519.7 74.8L519.7 75.4L513.8 75.4Q513.8 76.1 514.1 76.7L514.1 76.7Q514.4 77.4 515.0 77.7Q515.5 78.0 516.3 78.0L516.3 78.0Q516.8 78.0 517.2 77.9Q517.6 77.7 517.9 77.4Q518.1 77.2 518.3 76.7L518.3 76.7L519.6 77.1Q519.4 77.7 518.9 78.2Q518.5 78.6 517.8 78.9Q517.1 79.2 516.3 79.2ZM513.8 74.2L513.8 74.2L518.4 74.2Q518.3 73.7 518.1 73.2L518.1 73.2Q517.9 72.6 517.4 72.2Q516.9 71.9 516.1 71.9Q515.4 71.9 514.9 72.2Q514.3 72.6 514.1 73.2L514.1 73.2Q513.8 73.7 513.8 74.2Z "/></g><mask id="satori_om-id-1-2"><rect x="549" y="64" width="162" height="18" fill="#fff"/></mask><g  ><path fill="#f472b6" d="M553.5 82.2L553.5 82.2Q552.6 82.2 551.9 82.0Q551.2 81.8 550.8 81.4Q550.4 81.0 550.1 80.6L550.1 80.6L551.2 79.9Q551.4 80.1 551.6 80.4Q551.9 80.7 552.3 80.9Q552.8 81.1 553.5 81.1L553.5 81.1Q554.5 81.1 555.1 80.6Q555.7 80.1 555.7 79.1L555.7 79.1L555.7 77.5L555.6 77.5Q555.5 77.7 555.2 78.1Q555.0 78.4 554.5 78.6Q554.0 78.9 553.2 78.9L553.2 78.9Q552.2 78.9 551.5 78.4Q550.7 77.9 550.2 77.0Q549.8 76.2 549.8 74.9L549.8 74.9Q549.8 73.6 550.2 72.7Q550.7 71.7 551.4 71.2Q552.2 70.7 553.2 70.7L553.2 70.7Q554.0 70.7 554.5 71.0Q555.0 71.2 555.2 71.6Q555.5 71.9 555.6 72.1L555.6 72.1L555.8 72.1L555.8 70.8L557.0 70.8L557.0 79.2Q557.0 80.3 556.6 80.9Q556.1 81.6 555.3 81.9Q554.5 82.2 553.5 82.2ZM553.4 77.7L553.4 77.7Q554.2 77.7 554.7 77.4Q555.2 77.0 555.5 76.4Q555.7 75.7 555.7 74.8L555.7 74.8Q555.7 74.0 555.5 73.3Q555.2 72.6 554.7 72.3Q554.2 71.9 553.4 71.9L553.4 71.9Q552.7 71.9 552.1 72.3Q551.6 72.7 551.4 73.4Q551.1 74.0 551.1 74.8L551.1 74.8Q551.1 75.7 551.4 76.3Q551.6 77.0 552.1 77.3Q552.7 77.7 553.4 77.7ZM560.7 79L559.4 79L559.4 70.8L560.7 70.8L560.7 79ZM560.0 69.5L560.0 69.5Q559.6 69.5 559.4 69.2Q559.1 69.0 559.1 68.6L559.1 68.6Q559.1 68.2 559.4 68.0Q559.6 67.7 560.0 67.7L560.0 67.7Q560.4 67.7 560.7 68.0Q560.9 68.2 560.9 68.6L560.9 68.6Q560.9 69.0 560.7 69.2Q560.4 69.5 560.0 69.5ZM564.5 70.8L566.2 70.8L566.2 71.9L564.5 71.9L564.5 76.9Q564.5 77.4 564.8 77.7Q565.0 77.9 565.5 77.9L565.5 77.9Q565.6 77.9 565.8 77.9Q566.0 77.9 566.2 77.8L566.2 77.8L566.4 79.0Q566.2 79.0 566.0 79.1Q565.7 79.1 565.5 79.1L565.5 79.1Q564.4 79.1 563.8 78.5Q563.2 78.0 563.2 77.0L563.2 77.0L563.2 71.9L562.0 71.9L562.0 70.8L563.2 70.8L563.2 68.9L564.5 68.9L564.5 70.8ZM569.2 74.1L569.2 74.1L569.2 79L567.9 79L567.9 68.1L569.2 68.1L569.2 72.2Q569.6 71.5 570.1 71.2L570.1 71.2Q570.7 70.7 571.7 70.7L571.7 70.7Q572.5 70.7 573.1 71.0Q573.8 71.4 574.1 72.1Q574.5 72.8 574.5 73.8L574.5 73.8L574.5 79L573.1 79L573.1 73.9Q573.1 73.0 572.6 72.4Q572.1 71.9 571.3 71.9L571.3 71.9Q570.7 71.9 570.2 72.2Q569.8 72.4 569.5 72.9Q569.2 73.4 569.2 74.1ZM579.5 79.1L579.5 79.1Q578.7 79.1 578.1 78.8Q577.5 78.4 577.1 77.7Q576.8 77.0 576.8 76.0L576.8 76.0L576.8 70.8L578.1 70.8L578.1 75.9Q578.1 76.8 578.6 77.4Q579.1 77.9 579.9 77.9L579.9 77.9Q580.5 77.9 581.0 77.7Q581.5 77.4 581.7 76.9Q582.0 76.4 582.0 75.7L582.0 75.7L582.0 70.8L583.3 70.8L583.3 79L582.0 79L582.0 77.5Q581.7 78.3 581.1 78.6L581.1 78.6Q580.4 79.1 579.5 79.1ZM589.4 79.2L589.4 79.2Q588.7 79.2 588.2 78.9Q587.7 78.6 587.5 78.3Q587.2 78.0 587.1 77.7L587.1 77.7L586.9 77.7L586.9 79L585.6 79L585.6 68.1L587.0 68.1L587.0 72.1L587.1 72.1Q587.2 71.9 587.4 71.6Q587.7 71.2 588.2 71.0Q588.6 70.7 589.4 70.7L589.4 70.7Q590.5 70.7 591.2 71.2Q592.0 71.7 592.5 72.7Q592.9 73.6 592.9 74.9L592.9 74.9Q592.9 76.2 592.5 77.2Q592.0 78.1 591.2 78.7Q590.5 79.2 589.4 79.2ZM589.2 78.0L589.2 78.0Q590.0 78.0 590.5 77.6Q591.0 77.2 591.3 76.5Q591.6 75.8 591.6 74.9L591.6 74.9Q591.6 74.1 591.3 73.4Q591.0 72.7 590.5 72.3Q590.0 71.9 589.2 71.9L589.2 71.9Q588.5 71.9 588.0 72.3Q587.5 72.6 587.2 73.3Q586.9 74.0 586.9 74.9L586.9 74.9Q586.9 75.8 587.2 76.5Q587.5 77.2 588.0 77.6Q588.5 78.0 589.2 78.0ZM595.8 79.1L595.8 79.1Q595.4 79.1 595.1 78.8Q594.8 78.5 594.8 78.1L594.8 78.1Q594.8 77.7 595.1 77.4Q595.4 77.1 595.8 77.1L595.8 77.1Q596.2 77.1 596.5 77.4Q596.8 77.7 596.8 78.1L596.8 78.1Q596.8 78.5 596.5 78.8Q596.2 79.1 595.8 79.1ZM602.5 79.2L602.5 79.2Q601.4 79.2 600.5 78.6Q599.7 78.1 599.2 77.2Q598.7 76.2 598.7 75.0L598.7 75.0Q598.7 73.7 599.2 72.7Q599.7 71.8 600.5 71.2Q601.4 70.7 602.5 70.7L602.5 70.7Q603.1 70.7 603.6 70.9Q604.1 71.0 604.6 71.3Q605.0 71.6 605.3 72.0Q605.6 72.4 605.8 73.0L605.8 73.0L604.5 73.3Q604.4 73.0 604.3 72.8Q604.1 72.5 603.8 72.3Q603.6 72.1 603.2 72.0Q602.9 71.9 602.5 71.9L602.5 71.9Q601.7 71.9 601.1 72.3Q600.6 72.7 600.3 73.4Q600.1 74.1 600.1 75.0L600.1 75.0Q600.1 75.8 600.3 76.5Q600.6 77.1 601.1 77.6Q601.7 78.0 602.5 78.0L602.5 78.0Q602.9 78.0 603.2 77.9Q603.6 77.8 603.8 77.6Q604.1 77.4 604.3 77.1Q604.5 76.8 604.6 76.5L604.6 76.5L605.8 76.8Q605.7 77.4 605.3 77.8Q605.0 78.3 604.6 78.6Q604.1 78.9 603.6 79.0Q603.1 79.2 602.5 79.2ZM611.0 79.2L611.0 79.2Q609.9 79.2 609.1 78.6Q608.3 78.1 607.8 77.2Q607.3 76.2 607.3 75.0L607.3 75.0Q607.3 73.7 607.8 72.7Q608.3 71.8 609.1 71.2Q609.9 70.7 611.0 70.7L611.0 70.7Q612.2 70.7 613.0 71.2Q613.8 71.8 614.3 72.7Q614.8 73.7 614.8 75.0L614.8 75.0Q614.8 76.2 614.3 77.2Q613.8 78.1 613.0 78.6Q612.2 79.2 611.0 79.2ZM611.0 78.0L611.0 78.0Q611.9 78.0 612.4 77.6Q612.9 77.1 613.2 76.5Q613.5 75.8 613.5 75.0L613.5 75.0Q613.5 74.1 613.2 73.4Q612.9 72.7 612.4 72.3Q611.9 71.9 611.0 71.9L611.0 71.9Q610.2 71.9 609.7 72.3Q609.2 72.7 608.9 73.4Q608.7 74.1 608.7 75.0L608.7 75.0Q608.7 75.8 608.9 76.5Q609.2 77.1 609.7 77.6Q610.2 78.0 611.0 78.0ZM618.0 79L616.7 79L616.7 70.8L618.0 70.8L618.0 72.3Q618.2 71.9 618.4 71.5L618.4 71.5Q618.8 71.1 619.3 70.9Q619.8 70.7 620.3 70.7L620.3 70.7Q621.2 70.7 621.7 71.2L621.7 71.2Q622.2 71.7 622.4 72.3L622.4 72.3Q622.5 71.9 622.8 71.6L622.8 71.6Q623.2 71.1 623.7 70.9Q624.3 70.7 625.0 70.7L625.0 70.7Q625.7 70.7 626.2 71.0Q626.8 71.3 627.2 71.9Q627.5 72.5 627.5 73.5L627.5 73.5L627.5 79L626.2 79L626.2 73.5Q626.2 72.6 625.7 72.2Q625.2 71.9 624.6 71.9L624.6 71.9Q624.0 71.9 623.6 72.1Q623.2 72.3 623.0 72.7Q622.8 73.1 622.8 73.7L622.8 73.7L622.8 79L621.5 79L621.5 73.4Q621.5 72.7 621.0 72.3Q620.6 71.9 619.9 71.9L619.9 71.9Q619.4 71.9 619.0 72.1Q618.5 72.3 618.3 72.8Q618.0 73.2 618.0 73.8L618.0 73.8L618.0 79ZM632.5 67.6L633.8 67.6L630.2 80.6L629.0 80.6L632.5 67.6ZM636.8 79L635.4 79L635.4 68.1L636.8 68.1L636.8 72.8L642.5 72.8L642.5 68.1L643.9 68.1L643.9 79L642.5 79L642.5 74.0L636.8 74.0L636.8 79ZM648.7 79.2L648.7 79.2Q647.9 79.2 647.3 78.9Q646.6 78.6 646.3 78.0Q645.9 77.5 645.9 76.7L645.9 76.7Q645.9 76.0 646.2 75.5Q646.5 75.1 646.9 74.8Q647.4 74.6 648.0 74.5Q648.5 74.3 649.1 74.3L649.1 74.3Q649.8 74.2 650.3 74.1Q650.7 74.1 651.0 73.9Q651.2 73.8 651.2 73.5L651.2 73.5L651.2 73.5Q651.2 73.0 651.0 72.6Q650.8 72.2 650.4 72.1Q650.0 71.9 649.5 71.9L649.5 71.9Q648.9 71.9 648.5 72.0Q648.1 72.2 647.8 72.5Q647.5 72.8 647.4 73.1L647.4 73.1L646.1 72.6Q646.4 71.9 647.0 71.5Q647.5 71.1 648.2 70.9Q648.8 70.7 649.4 70.7L649.4 70.7Q649.8 70.7 650.4 70.8Q650.9 70.9 651.4 71.2Q651.9 71.5 652.2 72.1Q652.5 72.6 652.5 73.6L652.5 73.6L652.5 79L651.2 79L651.2 77.9L651.1 77.9Q651.0 78.2 650.7 78.5Q650.4 78.8 649.9 79.0Q649.4 79.2 648.7 79.2ZM648.9 78.0L648.9 78.0Q649.6 78.0 650.2 77.7Q650.7 77.5 650.9 77.0Q651.2 76.5 651.2 76.0L651.2 76.0L651.2 74.9Q651.1 75.0 650.8 75.1Q650.6 75.2 650.2 75.2Q649.9 75.3 649.5 75.3Q649.2 75.4 649.0 75.4L649.0 75.4Q648.6 75.4 648.1 75.6Q647.7 75.7 647.5 76.0Q647.2 76.3 647.2 76.7L647.2 76.7Q647.2 77.2 647.4 77.4Q647.7 77.7 648.0 77.9Q648.4 78.0 648.9 78.0ZM657.6 79.2L657.6 79.2Q656.8 79.2 656.1 78.9Q655.5 78.7 655.0 78.2Q654.6 77.7 654.5 77.0L654.5 77.0L655.7 76.7Q655.9 77.4 656.4 77.7Q656.9 78.0 657.6 78.0L657.6 78.0Q658.4 78.0 659.0 77.7Q659.5 77.3 659.5 76.8L659.5 76.8Q659.5 76.4 659.2 76.1Q658.9 75.8 658.3 75.7L658.3 75.7L656.9 75.3Q655.8 75.1 655.2 74.5Q654.7 74.0 654.7 73.1L654.7 73.1Q654.7 72.4 655.1 71.9Q655.5 71.3 656.2 71.0Q656.9 70.7 657.7 70.7L657.7 70.7Q658.6 70.7 659.2 71.0Q659.8 71.2 660.1 71.7Q660.5 72.1 660.7 72.7L660.7 72.7L659.5 73.0Q659.3 72.5 658.9 72.2Q658.5 71.8 657.7 71.8L657.7 71.8Q657.0 71.8 656.5 72.2Q656.0 72.5 656.0 73.0L656.0 73.0Q656.0 73.5 656.4 73.7Q656.7 74.0 657.4 74.2L657.4 74.2L658.7 74.5Q659.8 74.7 660.3 75.3Q660.8 75.9 660.8 76.7L660.8 76.7Q660.8 77.4 660.4 78.0Q660.0 78.5 659.3 78.9Q658.6 79.2 657.6 79.2ZM666.1 79.2L666.1 79.2Q665.0 79.2 664.1 78.6Q663.3 78.1 662.8 77.2Q662.3 76.2 662.3 75.0L662.3 75.0Q662.3 73.7 662.8 72.7Q663.3 71.8 664.1 71.2Q665.0 70.7 666.1 70.7L666.1 70.7Q666.7 70.7 667.2 70.9Q667.7 71.0 668.2 71.3Q668.6 71.6 668.9 72.0Q669.2 72.4 669.4 73.0L669.4 73.0L668.1 73.3Q668.0 73.0 667.9 72.8Q667.7 72.5 667.4 72.3Q667.1 72.1 666.8 72.0Q666.5 71.9 666.1 71.9L666.1 71.9Q665.3 71.9 664.7 72.3Q664.2 72.7 663.9 73.4Q663.7 74.1 663.7 75.0L663.7 75.0Q663.7 75.8 663.9 76.5Q664.2 77.1 664.7 77.6Q665.3 78.0 666.1 78.0L666.1 78.0Q666.5 78.0 666.8 77.9Q667.2 77.8 667.4 77.6Q667.7 77.4 667.9 77.1Q668.1 76.8 668.2 76.5L668.2 76.5L669.4 76.8Q669.3 77.4 668.9 77.8Q668.6 78.3 668.2 78.6Q667.7 78.9 667.2 79.0Q666.7 79.2 666.1 79.2ZM674.6 79.2L674.6 79.2Q673.5 79.2 672.7 78.6Q671.8 78.1 671.4 77.2Q670.9 76.2 670.9 75.0L670.9 75.0Q670.9 73.7 671.4 72.7Q671.8 71.8 672.7 71.2Q673.5 70.7 674.6 70.7L674.6 70.7Q675.8 70.7 676.6 71.2Q677.4 71.8 677.9 72.7Q678.4 73.7 678.4 75.0L678.4 75.0Q678.4 76.2 677.9 77.2Q677.4 78.1 676.6 78.6Q675.8 79.2 674.6 79.2ZM674.6 78.0L674.6 78.0Q675.5 78.0 676.0 77.6Q676.5 77.1 676.8 76.5Q677.0 75.8 677.0 75.0L677.0 75.0Q677.0 74.1 676.8 73.4Q676.5 72.7 676.0 72.3Q675.5 71.9 674.6 71.9L674.6 71.9Q673.8 71.9 673.3 72.3Q672.8 72.7 672.5 73.4Q672.3 74.1 672.3 75.0L672.3 75.0Q672.3 75.8 672.5 76.5Q672.8 77.1 673.3 77.6Q673.8 78.0 674.6 78.0ZM685.1 79L683.5 79L679.5 68.1L681.0 68.1L683.3 74.6Q683.5 75.1 683.8 76.0L683.8 76.0Q684.0 76.8 684.3 77.9L684.3 77.9Q684.7 76.8 684.9 76.0L684.9 76.0Q685.2 75.1 685.4 74.6L685.4 74.6L687.6 68.1L689.1 68.1L685.1 79ZM692.0 79L690.7 79L690.7 70.8L692.0 70.8L692.0 79ZM691.3 69.5L691.3 69.5Q690.9 69.5 690.7 69.2Q690.4 69.0 690.4 68.6L690.4 68.6Q690.4 68.2 690.7 68.0Q690.9 67.7 691.3 67.7L691.3 67.7Q691.7 67.7 692.0 68.0Q692.2 68.2 692.2 68.6L692.2 68.6Q692.2 69.0 692.0 69.2Q691.7 69.5 691.3 69.5ZM697.6 79.2L697.6 79.2Q696.5 79.2 695.7 78.6Q694.8 78.1 694.4 77.2Q693.9 76.2 693.9 75.0L693.9 75.0Q693.9 73.7 694.4 72.7Q694.8 71.8 695.7 71.2Q696.5 70.7 697.6 70.7L697.6 70.7Q698.2 70.7 698.7 70.9Q699.3 71.0 699.7 71.3Q700.1 71.6 700.5 72.0Q700.8 72.4 700.9 73.0L700.9 73.0L699.7 73.3Q699.6 73.0 699.4 72.8Q699.2 72.5 699.0 72.3Q698.7 72.1 698.4 72.0Q698.0 71.9 697.6 71.9L697.6 71.9Q696.8 71.9 696.3 72.3Q695.7 72.7 695.5 73.4Q695.2 74.1 695.2 75.0L695.2 75.0Q695.2 75.8 695.5 76.5Q695.7 77.1 696.3 77.6Q696.8 78.0 697.6 78.0L697.6 78.0Q698.0 78.0 698.4 77.9Q698.7 77.8 699.0 77.6Q699.2 77.4 699.4 77.1Q699.6 76.8 699.7 76.5L699.7 76.5L701.0 76.8Q700.8 77.4 700.5 77.8Q700.2 78.3 699.7 78.6Q699.3 78.9 698.8 79.0Q698.2 79.2 697.6 79.2ZM706.3 79.2L706.3 79.2Q705.1 79.2 704.2 78.6Q703.4 78.1 702.9 77.2Q702.5 76.2 702.5 75.0Q702.5 73.7 702.9 72.8Q703.4 71.8 704.2 71.3Q705.0 70.7 706.1 70.7L706.1 70.7Q706.8 70.7 707.4 70.9Q708.1 71.1 708.6 71.6Q709.1 72.1 709.4 72.9Q709.7 73.7 709.7 74.8L709.7 74.8L709.7 75.4L703.8 75.4Q703.8 76.1 704.1 76.7L704.1 76.7Q704.4 77.4 705.0 77.7Q705.6 78.0 706.3 78.0L706.3 78.0Q706.8 78.0 707.2 77.9Q707.6 77.7 707.9 77.4Q708.1 77.2 708.3 76.7L708.3 76.7L709.6 77.1Q709.4 77.7 708.9 78.2Q708.5 78.6 707.8 78.9Q707.1 79.2 706.3 79.2ZM703.8 74.2L703.8 74.2L708.4 74.2Q708.3 73.7 708.1 73.2L708.1 73.2Q707.9 72.6 707.4 72.2Q706.9 71.9 706.1 71.9Q705.4 71.9 704.9 72.2Q704.3 72.6 704.1 73.2L704.1 73.2Q703.8 73.7 703.8 74.2Z "/></g></svg>